<?xml version="1.0" encoding="UTF-8" standalone="no"?>
<!DOCTYPE svg PUBLIC "-//W3C//DTD SVG 1.1//EN"
 "http://www.w3.org/Graphics/SVG/1.1/DTD/svg11.dtd">
<!-- Generated by graphviz version 8.1.0 (20230707.0739)
 -->
<!-- Title: psfb_droop.X/mcc_generated_files/can/src/can1.c Pages: 1 -->
<svg width="334pt" height="264pt"
 viewBox="0.00 0.00 333.87 264.00" xmlns="http://www.w3.org/2000/svg" xmlns:xlink="http://www.w3.org/1999/xlink">

<svg id="main" version="1.1" xmlns="http://www.w3.org/2000/svg" xmlns:xlink="http://www.w3.org/1999/xlink" xml:space="preserve">

<style type="text/css"><![CDATA[
.node, .edge {opacity: 0.7;}
.node.selected, .edge.selected {opacity: 1;}
.edge:hover path { stroke: red; }
.edge:hover polygon { stroke: red; fill: red; }
]]></style>
<script type="application/ecmascript" xlink:href="svg.min.js"/>
<svg id="graph" class="graph">
<g id="graph0" class="graph" transform="scale(1 1) rotate(0) translate(4 260)">
<title>psfb_droop.X/mcc_generated_files/can/src/can1.c</title>
<!-- Node1 -->
<g id="Node000001" class="node">
<title>Node1</title>
<g id="a_Node000001"><a xlink:title="This is the generated driver source file for CAN1 driver using CCL.">
<polygon fill="#999999" stroke="#666666" points="146.75,-256 5.5,-256 5.5,-224 146.75,-224 146.75,-256"/>
<text text-anchor="start" x="13.5" y="-242.5" font-family="Helvetica,sans-Serif" font-size="10.00">psfb_droop.X/mcc_generated</text>
<text text-anchor="middle" x="76.12" y="-230.5" font-family="Helvetica,sans-Serif" font-size="10.00">_files/can/src/can1.c</text>
</a>
</g>
</g>
<!-- Node2 -->
<g id="Node000002" class="node">
<title>Node2</title>
<g id="a_Node000002"><a xlink:title=" ">
<polygon fill="#e0e0e0" stroke="#999999" points="48.25,-188 0,-188 0,-168 48.25,-168 48.25,-188"/>
<text text-anchor="middle" x="24.12" y="-174.5" font-family="Helvetica,sans-Serif" font-size="10.00">string.h</text>
</a>
</g>
</g>
<!-- Node1&#45;&gt;Node2 -->
<g id="edge1_Node000001_Node000002" class="edge">
<title>Node1&#45;&gt;Node2</title>
<g id="a_edge1_Node000001_Node000002"><a xlink:title=" ">
<path fill="none" stroke="#63b8ff" d="M62.73,-223.55C55.59,-215.3 46.76,-205.12 39.36,-196.57"/>
<polygon fill="#63b8ff" stroke="#63b8ff" points="41.47,-194.67 32.28,-189.41 36.18,-199.26 41.47,-194.67"/>
</a>
</g>
</g>
<!-- Node3 -->
<g id="Node000003" class="node">
<title>Node3</title>
<g id="a_Node000003"><a xlink:href="a00086.html" target="_top" xlink:title="This is the generated driver types header file for the CAN driver using CCL.">
<polygon fill="white" stroke="#666666" points="178.25,-76 100,-76 100,-56 178.25,-56 178.25,-76"/>
<text text-anchor="middle" x="139.12" y="-62.5" font-family="Helvetica,sans-Serif" font-size="10.00">../can_types.h</text>
</a>
</g>
</g>
<!-- Node1&#45;&gt;Node3 -->
<g id="edge2_Node000001_Node000003" class="edge">
<title>Node1&#45;&gt;Node3</title>
<g id="a_edge2_Node000001_Node000003"><a xlink:title=" ">
<path fill="none" stroke="#63b8ff" d="M81.72,-223.74C93.19,-192.42 119.37,-120.94 132.02,-86.4"/>
<polygon fill="#63b8ff" stroke="#63b8ff" points="135.6,-87.8 135.75,-77.21 129.03,-85.4 135.6,-87.8"/>
</a>
</g>
</g>
<!-- Node5 -->
<g id="Node000005" class="node">
<title>Node5</title>
<g id="a_Node000005"><a xlink:href="a00077.html" target="_top" xlink:title="This is the generated driver header file for the CAN1 driver using CCL.">
<polygon fill="white" stroke="#666666" points="224.25,-188 170,-188 170,-168 224.25,-168 224.25,-188"/>
<text text-anchor="middle" x="197.12" y="-174.5" font-family="Helvetica,sans-Serif" font-size="10.00">../can1.h</text>
</a>
</g>
</g>
<!-- Node1&#45;&gt;Node5 -->
<g id="edge4_Node000001_Node000005" class="edge">
<title>Node1&#45;&gt;Node5</title>
<g id="a_edge4_Node000001_Node000005"><a xlink:title=" ">
<path fill="none" stroke="#63b8ff" d="M107.29,-223.55C126.1,-214.22 149.92,-202.41 168.3,-193.29"/>
<polygon fill="#63b8ff" stroke="#63b8ff" points="169.75,-195.99 177.15,-188.41 166.64,-189.71 169.75,-195.99"/>
</a>
</g>
</g>
<!-- Node4 -->
<g id="Node000004" class="node">
<title>Node4</title>
<g id="a_Node000004"><a xlink:title=" ">
<polygon fill="#e0e0e0" stroke="#999999" points="254.25,-20 206,-20 206,0 254.25,0 254.25,-20"/>
<text text-anchor="middle" x="230.12" y="-6.5" font-family="Helvetica,sans-Serif" font-size="10.00">stdint.h</text>
</a>
</g>
</g>
<!-- Node3&#45;&gt;Node4 -->
<g id="edge3_Node000003_Node000004" class="edge">
<title>Node3&#45;&gt;Node4</title>
<g id="a_edge3_Node000003_Node000004"><a xlink:title=" ">
<path fill="none" stroke="#63b8ff" d="M154.98,-55.59C168.72,-47.44 188.87,-35.48 204.84,-26"/>
<polygon fill="#63b8ff" stroke="#63b8ff" points="206.34,-28.59 213.15,-20.48 202.76,-22.57 206.34,-28.59"/>
</a>
</g>
</g>
<!-- Node5&#45;&gt;Node3 -->
<g id="edge8_Node000005_Node000003" class="edge">
<title>Node5&#45;&gt;Node3</title>
<g id="a_edge8_Node000005_Node000003"><a xlink:title=" ">
<path fill="none" stroke="#63b8ff" d="M174.05,-167.57C159.43,-160.24 141.7,-148.51 133.12,-132 125.86,-118.01 128.26,-100.04 131.97,-86.54"/>
<polygon fill="#63b8ff" stroke="#63b8ff" points="135.49,-88.03 135.2,-77.44 128.82,-85.89 135.49,-88.03"/>
</a>
</g>
</g>
<!-- Node5&#45;&gt;Node4 -->
<g id="edge7_Node000005_Node000004" class="edge">
<title>Node5&#45;&gt;Node4</title>
<g id="a_edge7_Node000005_Node000004"><a xlink:title=" ">
<path fill="none" stroke="#63b8ff" d="M224.6,-171.81C248.37,-165.98 282.14,-154.25 303.12,-132 321.26,-112.77 318.61,-102.04 323.12,-76 324.64,-67.24 327.85,-63.53 323.12,-56 310.39,-35.68 285.59,-24.31 264.8,-18.09"/>
<polygon fill="#63b8ff" stroke="#63b8ff" points="265.95,-14.5 255.38,-15.28 264.13,-21.26 265.95,-14.5"/>
</a>
</g>
</g>
<!-- Node6 -->
<g id="Node000006" class="node">
<title>Node6</title>
<g id="a_Node000006"><a xlink:title=" ">
<polygon fill="#e0e0e0" stroke="#999999" points="176.5,-132 141.75,-132 141.75,-112 176.5,-112 176.5,-132"/>
<text text-anchor="middle" x="159.12" y="-118.5" font-family="Helvetica,sans-Serif" font-size="10.00">xc.h</text>
</a>
</g>
</g>
<!-- Node5&#45;&gt;Node6 -->
<g id="edge5_Node000005_Node000006" class="edge">
<title>Node5&#45;&gt;Node6</title>
<g id="a_edge5_Node000005_Node000006"><a xlink:title=" ">
<path fill="none" stroke="#63b8ff" d="M190.51,-167.59C185.38,-160.32 178.14,-150.02 171.9,-141.15"/>
<polygon fill="#63b8ff" stroke="#63b8ff" points="174.29,-139.46 165.67,-133.3 168.56,-143.49 174.29,-139.46"/>
</a>
</g>
</g>
<!-- Node7 -->
<g id="Node000007" class="node">
<title>Node7</title>
<g id="a_Node000007"><a xlink:title=" ">
<polygon fill="#e0e0e0" stroke="#999999" points="314,-76 258.25,-76 258.25,-56 314,-56 314,-76"/>
<text text-anchor="middle" x="286.12" y="-62.5" font-family="Helvetica,sans-Serif" font-size="10.00">stdbool.h</text>
</a>
</g>
</g>
<!-- Node5&#45;&gt;Node7 -->
<g id="edge6_Node000005_Node000007" class="edge">
<title>Node5&#45;&gt;Node7</title>
<g id="a_edge6_Node000005_Node000007"><a xlink:title=" ">
<path fill="none" stroke="#63b8ff" d="M224.57,-171C245.13,-164.91 271.89,-153.27 285.12,-132 293.43,-118.66 293,-100.61 290.87,-86.91"/>
<polygon fill="#63b8ff" stroke="#63b8ff" points="294.13,-86.35 288.75,-77.22 287.27,-87.71 294.13,-86.35"/>
</a>
</g>
</g>
<!-- Node8 -->
<g id="Node000008" class="node">
<title>Node8</title>
<g id="a_Node000008"><a xlink:href="a00083_source.html" target="_top" xlink:title=" ">
<polygon fill="white" stroke="#666666" points="276.12,-132 194.12,-132 194.12,-112 276.12,-112 276.12,-132"/>
<text text-anchor="middle" x="235.12" y="-118.5" font-family="Helvetica,sans-Serif" font-size="10.00">can_interface.h</text>
</a>
</g>
</g>
<!-- Node5&#45;&gt;Node8 -->
<g id="edge9_Node000005_Node000008" class="edge">
<title>Node5&#45;&gt;Node8</title>
<g id="a_edge9_Node000005_Node000008"><a xlink:title=" ">
<path fill="none" stroke="#63b8ff" d="M203.74,-167.59C208.87,-160.32 216.11,-150.02 222.35,-141.15"/>
<polygon fill="#63b8ff" stroke="#63b8ff" points="225.69,-143.49 228.58,-133.3 219.96,-139.46 225.69,-143.49"/>
</a>
</g>
</g>
<!-- Node8&#45;&gt;Node3 -->
<g id="edge12_Node000008_Node000003" class="edge">
<title>Node8&#45;&gt;Node3</title>
<g id="a_edge12_Node000008_Node000003"><a xlink:title=" ">
<path fill="none" stroke="#63b8ff" d="M218.4,-111.59C203.76,-103.36 182.25,-91.26 165.32,-81.74"/>
<polygon fill="#63b8ff" stroke="#63b8ff" points="167.41,-78.33 156.98,-76.48 163.98,-84.43 167.41,-78.33"/>
</a>
</g>
</g>
<!-- Node8&#45;&gt;Node4 -->
<g id="edge11_Node000008_Node000004" class="edge">
<title>Node8&#45;&gt;Node4</title>
<g id="a_edge11_Node000008_Node000004"><a xlink:title=" ">
<path fill="none" stroke="#63b8ff" d="M234.7,-111.62C233.89,-93.92 232.14,-55.24 231.05,-31.32"/>
<polygon fill="#63b8ff" stroke="#63b8ff" points="234.5,-31.19 230.55,-21.35 227.51,-31.5 234.5,-31.19"/>
</a>
</g>
</g>
<!-- Node8&#45;&gt;Node7 -->
<g id="edge10_Node000008_Node000007" class="edge">
<title>Node8&#45;&gt;Node7</title>
<g id="a_edge10_Node000008_Node000007"><a xlink:title=" ">
<path fill="none" stroke="#63b8ff" d="M244.01,-111.59C251.18,-104.01 261.44,-93.13 270.05,-84.02"/>
<polygon fill="#63b8ff" stroke="#63b8ff" points="272.02,-86.97 276.34,-77.3 266.93,-82.17 272.02,-86.97"/>
</a>
</g>
</g>
</g>
</svg>
</svg>

<style type='text/css'>
<![CDATA[
[data-mouse-over-selected='false'] { opacity: 0.7; }
[data-mouse-over-selected='true']  { opacity: 1.0; }
]]>
</style>
<script type="application/ecmascript"><![CDATA[
document.addEventListener('DOMContentLoaded', (event) => {
  highlightEdges();
  highlightAdjacentNodes();
});
]]></script>
</svg>
