<?xml version="1.0" encoding="UTF-8" standalone="no"?>
<!DOCTYPE svg PUBLIC "-//W3C//DTD SVG 1.1//EN"
 "http://www.w3.org/Graphics/SVG/1.1/DTD/svg11.dtd">
<!-- Generated by graphviz version 8.1.0 (20230707.0739)
 -->
<!-- Title: psfb_droop.X/mcc_generated_files/can/can_types.h Pages: 1 -->
<svg width="308pt" height="244pt"
 viewBox="0.00 0.00 308.25 244.00" xmlns="http://www.w3.org/2000/svg" xmlns:xlink="http://www.w3.org/1999/xlink">
<g id="graph0" class="graph" transform="scale(1 1) rotate(0) translate(4 240)">
<title>psfb_droop.X/mcc_generated_files/can/can_types.h</title>
<!-- Node1 -->
<g id="Node000001" class="node">
<title>Node1</title>
<g id="a_Node000001"><a xlink:title="This is the generated driver types header file for the CAN driver using CCL.">
<polygon fill="#999999" stroke="#666666" points="201.25,-236 60,-236 60,-204 201.25,-204 201.25,-236"/>
<text text-anchor="start" x="68" y="-222.5" font-family="Helvetica,sans-Serif" font-size="10.00">psfb_droop.X/mcc_generated</text>
<text text-anchor="middle" x="130.62" y="-210.5" font-family="Helvetica,sans-Serif" font-size="10.00">_files/can/can_types.h</text>
</a>
</g>
</g>
<!-- Node2 -->
<g id="Node000002" class="node">
<title>Node2</title>
<g id="a_Node000002"><a xlink:href="a00077.html" target="_top" xlink:title="This is the generated driver header file for the CAN1 driver using CCL.">
<polygon fill="white" stroke="#666666" points="171.25,-100 30,-100 30,-68 171.25,-68 171.25,-100"/>
<text text-anchor="start" x="38" y="-86.5" font-family="Helvetica,sans-Serif" font-size="10.00">psfb_droop.X/mcc_generated</text>
<text text-anchor="middle" x="100.62" y="-74.5" font-family="Helvetica,sans-Serif" font-size="10.00">_files/can/can1.h</text>
</a>
</g>
</g>
<!-- Node1&#45;&gt;Node2 -->
<g id="edge1_Node000001_Node000002" class="edge">
<title>Node1&#45;&gt;Node2</title>
<g id="a_edge1_Node000001_Node000002"><a xlink:title=" ">
<path fill="none" stroke="#63b8ff" d="M81.35,-198.27C69.14,-190.63 57.57,-180.66 50.62,-168 43.79,-155.53 45.25,-149.17 50.62,-136 56.44,-121.77 68.35,-109.36 79.09,-100.34"/>
<polygon fill="#63b8ff" stroke="#63b8ff" points="79.33,-201.72 89.74,-203.66 82.81,-195.65 79.33,-201.72"/>
</a>
</g>
</g>
<!-- Node3 -->
<g id="Node000003" class="node">
<title>Node3</title>
<g id="a_Node000003"><a xlink:href="a00089.html" target="_top" xlink:title="This is the generated driver source file for CAN1 driver using CCL.">
<polygon fill="white" stroke="#666666" points="300.25,-32 159,-32 159,0 300.25,0 300.25,-32"/>
<text text-anchor="start" x="167" y="-18.5" font-family="Helvetica,sans-Serif" font-size="10.00">psfb_droop.X/mcc_generated</text>
<text text-anchor="middle" x="229.62" y="-6.5" font-family="Helvetica,sans-Serif" font-size="10.00">_files/can/src/can1.c</text>
</a>
</g>
</g>
<!-- Node1&#45;&gt;Node3 -->
<g id="edge6_Node000001_Node000003" class="edge">
<title>Node1&#45;&gt;Node3</title>
<g id="a_edge6_Node000001_Node000003"><a xlink:title=" ">
<path fill="none" stroke="#63b8ff" d="M178.23,-198.09C190.66,-190.38 202.76,-180.42 210.62,-168 237.89,-124.91 234.85,-60.97 231.69,-32.1"/>
<polygon fill="#63b8ff" stroke="#63b8ff" points="176.65,-195.53 169.72,-203.54 180.14,-201.6 176.65,-195.53"/>
</a>
</g>
</g>
<!-- Node5 -->
<g id="Node000005" class="node">
<title>Node5</title>
<g id="a_Node000005"><a xlink:href="a00083_source.html" target="_top" xlink:title=" ">
<polygon fill="white" stroke="#666666" points="201.25,-168 60,-168 60,-136 201.25,-136 201.25,-168"/>
<text text-anchor="start" x="68" y="-154.5" font-family="Helvetica,sans-Serif" font-size="10.00">psfb_droop.X/mcc_generated</text>
<text text-anchor="middle" x="130.62" y="-142.5" font-family="Helvetica,sans-Serif" font-size="10.00">_files/can/can_interface.h</text>
</a>
</g>
</g>
<!-- Node1&#45;&gt;Node5 -->
<g id="edge4_Node000001_Node000005" class="edge">
<title>Node1&#45;&gt;Node5</title>
<g id="a_edge4_Node000001_Node000005"><a xlink:title=" ">
<path fill="none" stroke="#63b8ff" d="M130.62,-192.89C130.62,-184.52 130.62,-175.54 130.62,-168.22"/>
<polygon fill="#63b8ff" stroke="#63b8ff" points="127.13,-192.69 130.62,-202.69 134.13,-192.69 127.13,-192.69"/>
</a>
</g>
</g>
<!-- Node2&#45;&gt;Node3 -->
<g id="edge2_Node000002_Node000003" class="edge">
<title>Node2&#45;&gt;Node3</title>
<g id="a_edge2_Node000002_Node000003"><a xlink:title=" ">
<path fill="none" stroke="#63b8ff" d="M140.48,-62.61C159.54,-52.86 181.97,-41.38 199.57,-32.38"/>
<polygon fill="#63b8ff" stroke="#63b8ff" points="139.18,-59.86 131.87,-67.53 142.37,-66.09 139.18,-59.86"/>
</a>
</g>
</g>
<!-- Node4 -->
<g id="Node000004" class="node">
<title>Node4</title>
<g id="a_Node000004"><a xlink:href="a00176.html" target="_top" xlink:title="This is the generated driver header file for the System driver.">
<polygon fill="white" stroke="#666666" points="141.25,-32 0,-32 0,0 141.25,0 141.25,-32"/>
<text text-anchor="start" x="8" y="-18.5" font-family="Helvetica,sans-Serif" font-size="10.00">psfb_droop.X/mcc_generated</text>
<text text-anchor="middle" x="70.62" y="-6.5" font-family="Helvetica,sans-Serif" font-size="10.00">_files/system/src/system.c</text>
</a>
</g>
</g>
<!-- Node2&#45;&gt;Node4 -->
<g id="edge3_Node000002_Node000004" class="edge">
<title>Node2&#45;&gt;Node4</title>
<g id="a_edge3_Node000002_Node000004"><a xlink:title=" ">
<path fill="none" stroke="#63b8ff" d="M89.14,-57.74C85.23,-49.14 80.98,-39.79 77.55,-32.22"/>
<polygon fill="#63b8ff" stroke="#63b8ff" points="86.34,-59.04 93.67,-66.69 92.72,-56.14 86.34,-59.04"/>
</a>
</g>
</g>
<!-- Node5&#45;&gt;Node2 -->
<g id="edge5_Node000005_Node000002" class="edge">
<title>Node5&#45;&gt;Node2</title>
<g id="a_edge5_Node000005_Node000002"><a xlink:title=" ">
<path fill="none" stroke="#63b8ff" d="M119.14,-125.74C115.23,-117.14 110.98,-107.79 107.55,-100.22"/>
<polygon fill="#63b8ff" stroke="#63b8ff" points="116.34,-127.04 123.67,-134.69 122.72,-124.14 116.34,-127.04"/>
</a>
</g>
</g>
</g>
</svg>
