<?xml version="1.0" encoding="UTF-8" standalone="no"?>
<!DOCTYPE svg PUBLIC "-//W3C//DTD SVG 1.1//EN"
 "http://www.w3.org/Graphics/SVG/1.1/DTD/svg11.dtd">
<!-- Generated by graphviz version 2.44.1 (20200629.0846)
 -->
<!-- Title: psfb_droop.X/mcc_generated_files/can/can_types.h Pages: 1 -->
<svg width="310pt" height="236pt"
 viewBox="0.00 0.00 310.00 236.00" xmlns="http://www.w3.org/2000/svg" xmlns:xlink="http://www.w3.org/1999/xlink">

<svg id="main" version="1.1" xmlns="http://www.w3.org/2000/svg" xmlns:xlink="http://www.w3.org/1999/xlink" xml:space="preserve">

<style type="text/css"><![CDATA[
.node, .edge {opacity: 0.7;}
.node.selected, .edge.selected {opacity: 1;}
.edge:hover path { stroke: red; }
.edge:hover polygon { stroke: red; fill: red; }
]]></style>
<script type="application/ecmascript" xlink:href="svg.min.js"/>
<svg id="graph" class="graph">
<g id="graph0" class="graph" transform="scale(1 1) rotate(0) translate(4 232)">
<title>psfb_droop.X/mcc_generated_files/can/can_types.h</title>
<!-- Node1 -->
<g id="Node000001" class="node">
<title>Node1</title>
<g id="a_Node000001"><a xlink:title="This is the generated driver types header file for the CAN driver using CCL.">
<polygon fill="#999999" stroke="#666666" points="203,-228 61,-228 61,-198 203,-198 203,-228"/>
<text text-anchor="start" x="69" y="-216" font-family="Helvetica,sans-Serif" font-size="10.00">psfb_droop.X/mcc_generated</text>
<text text-anchor="middle" x="132" y="-205" font-family="Helvetica,sans-Serif" font-size="10.00">_files/can/can_types.h</text>
</a>
</g>
</g>
<!-- Node2 -->
<g id="Node000002" class="node">
<title>Node2</title>
<g id="a_Node000002"><a xlink:href="a00077.html" target="_top" xlink:title="This is the generated driver header file for the CAN1 driver using CCL.">
<polygon fill="white" stroke="#666666" points="172,-96 30,-96 30,-66 172,-66 172,-96"/>
<text text-anchor="start" x="38" y="-84" font-family="Helvetica,sans-Serif" font-size="10.00">psfb_droop.X/mcc_generated</text>
<text text-anchor="middle" x="101" y="-73" font-family="Helvetica,sans-Serif" font-size="10.00">_files/can/can1.h</text>
</a>
</g>
</g>
<!-- Node1&#45;&gt;Node2 -->
<g id="edge1_Node000001_Node000002" class="edge">
<title>Node1&#45;&gt;Node2</title>
<g id="a_edge1_Node000001_Node000002"><a xlink:title=" ">
<path fill="none" stroke="#63b8ff" d="M84.83,-193.11C71.86,-185.48 59.35,-175.27 52,-162 45.54,-150.34 46.96,-144.34 52,-132 57.88,-117.6 70.13,-105.1 80.91,-96.2"/>
<polygon fill="#63b8ff" stroke="#63b8ff" points="83.36,-196.3 93.82,-197.99 86.7,-190.15 83.36,-196.3"/>
</a>
</g>
</g>
<!-- Node3 -->
<g id="Node000003" class="node">
<title>Node3</title>
<g id="a_Node000003"><a xlink:href="a00089.html" target="_top" xlink:title="This is the generated driver source file for CAN1 driver using CCL.">
<polygon fill="white" stroke="#666666" points="302,-30 160,-30 160,0 302,0 302,-30"/>
<text text-anchor="start" x="168" y="-18" font-family="Helvetica,sans-Serif" font-size="10.00">psfb_droop.X/mcc_generated</text>
<text text-anchor="middle" x="231" y="-7" font-family="Helvetica,sans-Serif" font-size="10.00">_files/can/src/can1.c</text>
</a>
</g>
</g>
<!-- Node1&#45;&gt;Node3 -->
<g id="edge6_Node000001_Node000003" class="edge">
<title>Node1&#45;&gt;Node3</title>
<g id="a_edge6_Node000001_Node000003"><a xlink:title=" ">
<path fill="none" stroke="#63b8ff" d="M177.46,-192.9C190.62,-185.19 203.66,-174.99 212,-162 238.79,-120.27 235.89,-57.94 232.91,-30.2"/>
<polygon fill="#63b8ff" stroke="#63b8ff" points="175.5,-189.98 168.4,-197.84 178.85,-196.13 175.5,-189.98"/>
</a>
</g>
</g>
<!-- Node5 -->
<g id="Node000005" class="node">
<title>Node5</title>
<g id="a_Node000005"><a xlink:href="a00083_source.html" target="_top" xlink:title=" ">
<polygon fill="white" stroke="#666666" points="203,-162 61,-162 61,-132 203,-132 203,-162"/>
<text text-anchor="start" x="69" y="-150" font-family="Helvetica,sans-Serif" font-size="10.00">psfb_droop.X/mcc_generated</text>
<text text-anchor="middle" x="132" y="-139" font-family="Helvetica,sans-Serif" font-size="10.00">_files/can/can_interface.h</text>
</a>
</g>
</g>
<!-- Node1&#45;&gt;Node5 -->
<g id="edge4_Node000001_Node000005" class="edge">
<title>Node1&#45;&gt;Node5</title>
<g id="a_edge4_Node000001_Node000005"><a xlink:title=" ">
<path fill="none" stroke="#63b8ff" d="M132,-187.54C132,-178.96 132,-169.61 132,-162.16"/>
<polygon fill="#63b8ff" stroke="#63b8ff" points="128.5,-187.8 132,-197.8 135.5,-187.8 128.5,-187.8"/>
</a>
</g>
</g>
<!-- Node2&#45;&gt;Node3 -->
<g id="edge2_Node000002_Node000003" class="edge">
<title>Node2&#45;&gt;Node3</title>
<g id="a_edge2_Node000002_Node000003"><a xlink:title=" ">
<path fill="none" stroke="#63b8ff" d="M138.55,-61.51C158.95,-51.47 183.76,-39.26 202.54,-30.01"/>
<polygon fill="#63b8ff" stroke="#63b8ff" points="136.95,-58.4 129.53,-65.95 140.05,-64.68 136.95,-58.4"/>
</a>
</g>
</g>
<!-- Node4 -->
<g id="Node000004" class="node">
<title>Node4</title>
<g id="a_Node000004"><a xlink:href="a00176.html" target="_top" xlink:title="This is the generated driver header file for the System driver.">
<polygon fill="white" stroke="#666666" points="142,-30 0,-30 0,0 142,0 142,-30"/>
<text text-anchor="start" x="8" y="-18" font-family="Helvetica,sans-Serif" font-size="10.00">psfb_droop.X/mcc_generated</text>
<text text-anchor="middle" x="71" y="-7" font-family="Helvetica,sans-Serif" font-size="10.00">_files/system/src/system.c</text>
</a>
</g>
</g>
<!-- Node2&#45;&gt;Node4 -->
<g id="edge3_Node000002_Node000004" class="edge">
<title>Node2&#45;&gt;Node4</title>
<g id="a_edge3_Node000002_Node000004"><a xlink:title=" ">
<path fill="none" stroke="#63b8ff" d="M90.07,-56.68C85.9,-47.79 81.29,-37.95 77.64,-30.16"/>
<polygon fill="#63b8ff" stroke="#63b8ff" points="86.93,-58.23 94.34,-65.8 93.27,-55.26 86.93,-58.23"/>
</a>
</g>
</g>
<!-- Node5&#45;&gt;Node2 -->
<g id="edge5_Node000005_Node000002" class="edge">
<title>Node5&#45;&gt;Node2</title>
<g id="a_edge5_Node000005_Node000002"><a xlink:title=" ">
<path fill="none" stroke="#63b8ff" d="M120.7,-122.68C116.4,-113.79 111.63,-103.95 107.86,-96.16"/>
<polygon fill="#63b8ff" stroke="#63b8ff" points="117.61,-124.32 125.12,-131.8 123.91,-121.27 117.61,-124.32"/>
</a>
</g>
</g>
</g>
</svg>
</svg>

<style type='text/css'>
<![CDATA[
[data-mouse-over-selected='false'] { opacity: 0.7; }
[data-mouse-over-selected='true']  { opacity: 1.0; }
]]>
</style>
<script type="application/ecmascript"><![CDATA[
document.addEventListener('DOMContentLoaded', (event) => {
  highlightEdges();
  highlightAdjacentNodes();
});
]]></script>
</svg>
