<?xml version="1.0" encoding="UTF-8" standalone="no"?>
<!DOCTYPE svg PUBLIC "-//W3C//DTD SVG 1.1//EN"
 "http://www.w3.org/Graphics/SVG/1.1/DTD/svg11.dtd">
<!-- Generated by graphviz version 8.1.0 (20230707.0739)
 -->
<!-- Title: psfb_droop.X/mcc_generated_files/cmp/cmp3.h Pages: 1 -->
<svg width="851pt" height="188pt"
 viewBox="0.00 0.00 851.12 188.00" xmlns="http://www.w3.org/2000/svg" xmlns:xlink="http://www.w3.org/1999/xlink">
<g id="graph0" class="graph" transform="scale(1 1) rotate(0) translate(4 184)">
<title>psfb_droop.X/mcc_generated_files/cmp/cmp3.h</title>
<!-- Node1 -->
<g id="Node000001" class="node">
<title>Node1</title>
<g id="a_Node000001"><a xlink:title="This is the generated driver header file for the CMP3 driver.">
<polygon fill="#999999" stroke="#666666" points="349.25,-180 208,-180 208,-148 349.25,-148 349.25,-180"/>
<text text-anchor="start" x="216" y="-166.5" font-family="Helvetica,sans-Serif" font-size="10.00">psfb_droop.X/mcc_generated</text>
<text text-anchor="middle" x="278.62" y="-154.5" font-family="Helvetica,sans-Serif" font-size="10.00">_files/cmp/cmp3.h</text>
</a>
</g>
</g>
<!-- Node2 -->
<g id="Node000002" class="node">
<title>Node2</title>
<g id="a_Node000002"><a xlink:href="a00104.html" target="_top" xlink:title="This is the generated driver source file for CMP3 driver.">
<polygon fill="white" stroke="#666666" points="141.25,-112 0,-112 0,-80 141.25,-80 141.25,-112"/>
<text text-anchor="start" x="8" y="-98.5" font-family="Helvetica,sans-Serif" font-size="10.00">psfb_droop.X/mcc_generated</text>
<text text-anchor="middle" x="70.62" y="-86.5" font-family="Helvetica,sans-Serif" font-size="10.00">_files/cmp/src/cmp3.c</text>
</a>
</g>
</g>
<!-- Node1&#45;&gt;Node2 -->
<g id="edge1_Node000001_Node000002" class="edge">
<title>Node1&#45;&gt;Node2</title>
<g id="a_edge1_Node000001_Node000002"><a xlink:title=" ">
<path fill="none" stroke="#63b8ff" d="M219.42,-144.21C187.79,-134.18 149.34,-121.98 119.45,-112.49"/>
<polygon fill="#63b8ff" stroke="#63b8ff" points="218.27,-147.84 228.86,-147.53 220.39,-141.17 218.27,-147.84"/>
</a>
</g>
</g>
<!-- Node3 -->
<g id="Node000003" class="node">
<title>Node3</title>
<g id="a_Node000003"><a xlink:href="a00176.html" target="_top" xlink:title="This is the generated driver header file for the System driver.">
<polygon fill="white" stroke="#666666" points="300.25,-112 159,-112 159,-80 300.25,-80 300.25,-112"/>
<text text-anchor="start" x="167" y="-98.5" font-family="Helvetica,sans-Serif" font-size="10.00">psfb_droop.X/mcc_generated</text>
<text text-anchor="middle" x="229.62" y="-86.5" font-family="Helvetica,sans-Serif" font-size="10.00">_files/system/src/system.c</text>
</a>
</g>
</g>
<!-- Node1&#45;&gt;Node3 -->
<g id="edge2_Node000001_Node000003" class="edge">
<title>Node1&#45;&gt;Node3</title>
<g id="a_edge2_Node000001_Node000003"><a xlink:title=" ">
<path fill="none" stroke="#63b8ff" d="M260.71,-138.87C254.1,-129.96 246.79,-120.12 240.93,-112.22"/>
<polygon fill="#63b8ff" stroke="#63b8ff" points="258.49,-140.75 267.26,-146.69 264.11,-136.58 258.49,-140.75"/>
</a>
</g>
</g>
<!-- Node4 -->
<g id="Node000004" class="node">
<title>Node4</title>
<g id="a_Node000004"><a xlink:href="a00299.html" target="_top" xlink:title="Contains fault functions including the fault handler, fault object initialization and fault execution...">
<polygon fill="white" stroke="#666666" points="341.12,-38 232.12,-38 232.12,-6 341.12,-6 341.12,-38"/>
<text text-anchor="start" x="240.12" y="-24.5" font-family="Helvetica,sans-Serif" font-size="10.00">psfb_droop.X/sources</text>
<text text-anchor="middle" x="286.62" y="-12.5" font-family="Helvetica,sans-Serif" font-size="10.00">/fault/fault.c</text>
</a>
</g>
</g>
<!-- Node1&#45;&gt;Node4 -->
<g id="edge3_Node000001_Node000004" class="edge">
<title>Node1&#45;&gt;Node4</title>
<g id="a_edge3_Node000001_Node000004"><a xlink:title=" ">
<path fill="none" stroke="#63b8ff" d="M297.26,-138.44C302.28,-130.43 307.04,-121.22 309.62,-112 316.81,-86.34 304.84,-56.28 295.64,-38.49"/>
<polygon fill="#63b8ff" stroke="#63b8ff" points="293.82,-136.28 291.12,-146.52 299.62,-140.2 293.82,-136.28"/>
</a>
</g>
</g>
<!-- Node5 -->
<g id="Node000005" class="node">
<title>Node5</title>
<g id="a_Node000005"><a xlink:href="a00302.html" target="_top" xlink:title="Contains public fault functions.">
<polygon fill="white" stroke="#666666" points="548.12,-112 439.12,-112 439.12,-80 548.12,-80 548.12,-112"/>
<text text-anchor="start" x="447.12" y="-98.5" font-family="Helvetica,sans-Serif" font-size="10.00">psfb_droop.X/sources</text>
<text text-anchor="middle" x="493.62" y="-86.5" font-family="Helvetica,sans-Serif" font-size="10.00">/fault/fault.h</text>
</a>
</g>
</g>
<!-- Node1&#45;&gt;Node5 -->
<g id="edge4_Node000001_Node000005" class="edge">
<title>Node1&#45;&gt;Node5</title>
<g id="a_edge4_Node000001_Node000005"><a xlink:title=" ">
<path fill="none" stroke="#63b8ff" d="M339.4,-144.34C372.17,-134.28 412.13,-122.02 443.16,-112.49"/>
<polygon fill="#63b8ff" stroke="#63b8ff" points="338.57,-141.25 330.03,-147.53 340.62,-147.94 338.57,-141.25"/>
</a>
</g>
</g>
<!-- Node5&#45;&gt;Node4 -->
<g id="edge6_Node000005_Node000004" class="edge">
<title>Node5&#45;&gt;Node4</title>
<g id="a_edge6_Node000005_Node000004"><a xlink:title=" ">
<path fill="none" stroke="#63b8ff" d="M439.06,-76.02C405.33,-64.29 362.59,-49.42 330.96,-38.42"/>
<polygon fill="#63b8ff" stroke="#63b8ff" points="437.62,-79.57 448.22,-79.55 439.92,-72.96 437.62,-79.57"/>
</a>
</g>
</g>
<!-- Node5&#45;&gt;Node5 -->
<g id="edge7_Node000005_Node000005" class="edge">
<title>Node5&#45;&gt;Node5</title>
<g id="a_edge7_Node000005_Node000005"><a xlink:title=" ">
<path fill="none" stroke="#63b8ff" d="M558.89,-105.25C563.39,-103.13 566.12,-100.05 566.12,-96 566.12,-89.36 558.75,-85.31 548.32,-83.86"/>
<polygon fill="#63b8ff" stroke="#63b8ff" points="558.04,-102.13 549.32,-108.14 559.89,-108.88 558.04,-102.13"/>
</a>
</g>
</g>
<!-- Node6 -->
<g id="Node000006" class="node">
<title>Node6</title>
<g id="a_Node000006"><a xlink:href="a00056_source.html" target="_top" xlink:title=" ">
<polygon fill="white" stroke="#666666" points="462.5,-32 358.75,-32 358.75,-12 462.5,-12 462.5,-32"/>
<text text-anchor="middle" x="410.62" y="-18.5" font-family="Helvetica,sans-Serif" font-size="10.00">psfb_droop.X/main.c</text>
</a>
</g>
</g>
<!-- Node5&#45;&gt;Node6 -->
<g id="edge5_Node000005_Node000006" class="edge">
<title>Node5&#45;&gt;Node6</title>
<g id="a_edge5_Node000005_Node000006"><a xlink:title=" ">
<path fill="none" stroke="#63b8ff" d="M467.77,-72.57C452.14,-59.01 433.04,-42.44 421.36,-32.31"/>
<polygon fill="#63b8ff" stroke="#63b8ff" points="465.18,-75.82 475.02,-79.73 469.76,-70.53 465.18,-75.82"/>
</a>
</g>
</g>
<!-- Node7 -->
<g id="Node000007" class="node">
<title>Node7</title>
<g id="a_Node000007"><a xlink:href="a00398.html" target="_top" xlink:title="Contains Control loop interrupt Callback that acquires the ADC raw data and process it in the control...">
<polygon fill="white" stroke="#666666" points="589.12,-38 480.12,-38 480.12,-6 589.12,-6 589.12,-38"/>
<text text-anchor="start" x="488.12" y="-24.5" font-family="Helvetica,sans-Serif" font-size="10.00">psfb_droop.X/sources</text>
<text text-anchor="middle" x="534.62" y="-12.5" font-family="Helvetica,sans-Serif" font-size="10.00">/pwrctrl/pwrctrl_isr.c</text>
</a>
</g>
</g>
<!-- Node5&#45;&gt;Node7 -->
<g id="edge8_Node000005_Node000007" class="edge">
<title>Node5&#45;&gt;Node7</title>
<g id="a_edge8_Node000005_Node000007"><a xlink:title=" ">
<path fill="none" stroke="#63b8ff" d="M507.59,-70.47C513.68,-59.78 520.62,-47.6 525.94,-38.25"/>
<polygon fill="#63b8ff" stroke="#63b8ff" points="504.23,-68.31 502.32,-78.73 510.31,-71.77 504.23,-68.31"/>
</a>
</g>
</g>
<!-- Node8 -->
<g id="Node000008" class="node">
<title>Node8</title>
<g id="a_Node000008"><a xlink:href="a00404.html" target="_top" xlink:title="Contains some of the functions used in the interrupt service routine of control loop.">
<polygon fill="white" stroke="#666666" points="716.12,-44 607.12,-44 607.12,0 716.12,0 716.12,-44"/>
<text text-anchor="start" x="615.12" y="-30.5" font-family="Helvetica,sans-Serif" font-size="10.00">psfb_droop.X/sources</text>
<text text-anchor="start" x="615.12" y="-18.5" font-family="Helvetica,sans-Serif" font-size="10.00">/pwrctrl/pwrctrl_isr</text>
<text text-anchor="middle" x="661.62" y="-6.5" font-family="Helvetica,sans-Serif" font-size="10.00">_extension.c</text>
</a>
</g>
</g>
<!-- Node5&#45;&gt;Node8 -->
<g id="edge9_Node000005_Node000008" class="edge">
<title>Node5&#45;&gt;Node8</title>
<g id="a_edge9_Node000005_Node000008"><a xlink:title=" ">
<path fill="none" stroke="#63b8ff" d="M539.57,-75.31C561.9,-65.74 588.78,-54.22 611.62,-44.43"/>
<polygon fill="#63b8ff" stroke="#63b8ff" points="538.48,-72.4 530.67,-79.55 541.24,-78.83 538.48,-72.4"/>
</a>
</g>
</g>
<!-- Node9 -->
<g id="Node000009" class="node">
<title>Node9</title>
<g id="a_Node000009"><a xlink:href="a00413.html" target="_top" xlink:title="Contains power control state machine functions that is executed every 100us.">
<polygon fill="white" stroke="#666666" points="843.12,-38 734.12,-38 734.12,-6 843.12,-6 843.12,-38"/>
<text text-anchor="start" x="742.12" y="-24.5" font-family="Helvetica,sans-Serif" font-size="10.00">psfb_droop.X/sources</text>
<text text-anchor="middle" x="788.62" y="-12.5" font-family="Helvetica,sans-Serif" font-size="10.00">/pwrctrl/pwrctrl_sm.c</text>
</a>
</g>
</g>
<!-- Node5&#45;&gt;Node9 -->
<g id="edge10_Node000005_Node000009" class="edge">
<title>Node5&#45;&gt;Node9</title>
<g id="a_edge10_Node000005_Node000009"><a xlink:title=" ">
<path fill="none" stroke="#63b8ff" d="M558.99,-82.55C605.72,-73.18 669.93,-59.36 725.62,-44 731.63,-42.34 737.9,-40.45 744.06,-38.5"/>
<polygon fill="#63b8ff" stroke="#63b8ff" points="558.52,-79.27 549.4,-84.65 559.89,-86.14 558.52,-79.27"/>
</a>
</g>
</g>
</g>
</svg>
