<?xml version="1.0" encoding="UTF-8" standalone="no"?>
<!DOCTYPE svg PUBLIC "-//W3C//DTD SVG 1.1//EN"
 "http://www.w3.org/Graphics/SVG/1.1/DTD/svg11.dtd">
<!-- Generated by graphviz version 8.1.0 (20230707.0739)
 -->
<!-- Title: psfb_droop.X/mcc_generated_files/adc/src/adc1.c Pages: 1 -->
<svg width="338pt" height="220pt"
 viewBox="0.00 0.00 338.25 220.00" xmlns="http://www.w3.org/2000/svg" xmlns:xlink="http://www.w3.org/1999/xlink">
<g id="graph0" class="graph" transform="scale(1 1) rotate(0) translate(4 216)">
<title>psfb_droop.X/mcc_generated_files/adc/src/adc1.c</title>
<!-- Node1 -->
<g id="Node000001" class="node">
<title>Node1</title>
<g id="a_Node000001"><a xlink:title="This is the generated driver source file for ADC1 driver.">
<polygon fill="#999999" stroke="#666666" points="141.25,-212 0,-212 0,-180 141.25,-180 141.25,-212"/>
<text text-anchor="start" x="8" y="-198.5" font-family="Helvetica,sans-Serif" font-size="10.00">psfb_droop.X/mcc_generated</text>
<text text-anchor="middle" x="70.62" y="-186.5" font-family="Helvetica,sans-Serif" font-size="10.00">_files/adc/src/adc1.c</text>
</a>
</g>
</g>
<!-- Node2 -->
<g id="Node000002" class="node">
<title>Node2</title>
<g id="a_Node000002"><a xlink:title=" ">
<polygon fill="#e0e0e0" stroke="#999999" points="60.88,-144 10.38,-144 10.38,-124 60.88,-124 60.88,-144"/>
<text text-anchor="middle" x="35.62" y="-130.5" font-family="Helvetica,sans-Serif" font-size="10.00">stddef.h</text>
</a>
</g>
</g>
<!-- Node1&#45;&gt;Node2 -->
<g id="edge1_Node000001_Node000002" class="edge">
<title>Node1&#45;&gt;Node2</title>
<g id="a_edge1_Node000001_Node000002"><a xlink:title=" ">
<path fill="none" stroke="#63b8ff" d="M61.61,-179.55C57,-171.65 51.36,-161.97 46.51,-153.66"/>
<polygon fill="#63b8ff" stroke="#63b8ff" points="49.17,-152.28 41.11,-145.41 43.13,-155.81 49.17,-152.28"/>
</a>
</g>
</g>
<!-- Node3 -->
<g id="Node000003" class="node">
<title>Node3</title>
<g id="a_Node000003"><a xlink:href="a00062.html" target="_top" xlink:title="This is the generated driver header file for the ADC1 driver.">
<polygon fill="white" stroke="#666666" points="132.75,-144 78.5,-144 78.5,-124 132.75,-124 132.75,-144"/>
<text text-anchor="middle" x="105.62" y="-130.5" font-family="Helvetica,sans-Serif" font-size="10.00">../adc1.h</text>
</a>
</g>
</g>
<!-- Node1&#45;&gt;Node3 -->
<g id="edge2_Node000001_Node000003" class="edge">
<title>Node1&#45;&gt;Node3</title>
<g id="a_edge2_Node000001_Node000003"><a xlink:title=" ">
<path fill="none" stroke="#63b8ff" d="M79.64,-179.55C84.25,-171.65 89.89,-161.97 94.74,-153.66"/>
<polygon fill="#63b8ff" stroke="#63b8ff" points="98.12,-155.81 100.14,-145.41 92.08,-152.28 98.12,-155.81"/>
</a>
</g>
</g>
<!-- Node4 -->
<g id="Node000004" class="node">
<title>Node4</title>
<g id="a_Node000004"><a xlink:title=" ">
<polygon fill="#e0e0e0" stroke="#999999" points="40,-88 5.25,-88 5.25,-68 40,-68 40,-88"/>
<text text-anchor="middle" x="22.62" y="-74.5" font-family="Helvetica,sans-Serif" font-size="10.00">xc.h</text>
</a>
</g>
</g>
<!-- Node3&#45;&gt;Node4 -->
<g id="edge3_Node000003_Node000004" class="edge">
<title>Node3&#45;&gt;Node4</title>
<g id="a_edge3_Node000003_Node000004"><a xlink:title=" ">
<path fill="none" stroke="#63b8ff" d="M91.17,-123.59C78.75,-115.51 60.6,-103.71 46.1,-94.27"/>
<polygon fill="#63b8ff" stroke="#63b8ff" points="48.49,-91 38.2,-88.48 44.67,-96.87 48.49,-91"/>
</a>
</g>
</g>
<!-- Node5 -->
<g id="Node000005" class="node">
<title>Node5</title>
<g id="a_Node000005"><a xlink:title=" ">
<polygon fill="#e0e0e0" stroke="#999999" points="63.5,-26 7.75,-26 7.75,-6 63.5,-6 63.5,-26"/>
<text text-anchor="middle" x="35.62" y="-12.5" font-family="Helvetica,sans-Serif" font-size="10.00">stdbool.h</text>
</a>
</g>
</g>
<!-- Node3&#45;&gt;Node5 -->
<g id="edge4_Node000003_Node000005" class="edge">
<title>Node3&#45;&gt;Node5</title>
<g id="a_edge4_Node000003_Node000005"><a xlink:title=" ">
<path fill="none" stroke="#63b8ff" d="M99.9,-123.51C88.3,-104.29 61.88,-60.5 46.77,-35.47"/>
<polygon fill="#63b8ff" stroke="#63b8ff" points="49.4,-34.05 41.24,-27.3 43.41,-37.67 49.4,-34.05"/>
</a>
</g>
</g>
<!-- Node6 -->
<g id="Node000006" class="node">
<title>Node6</title>
<g id="a_Node000006"><a xlink:title=" ">
<polygon fill="#e0e0e0" stroke="#999999" points="129.75,-26 81.5,-26 81.5,-6 129.75,-6 129.75,-26"/>
<text text-anchor="middle" x="105.62" y="-12.5" font-family="Helvetica,sans-Serif" font-size="10.00">stdint.h</text>
</a>
</g>
</g>
<!-- Node3&#45;&gt;Node6 -->
<g id="edge5_Node000003_Node000006" class="edge">
<title>Node3&#45;&gt;Node6</title>
<g id="a_edge5_Node000003_Node000006"><a xlink:title=" ">
<path fill="none" stroke="#63b8ff" d="M105.62,-123.51C105.62,-104.72 105.62,-62.44 105.62,-37.16"/>
<polygon fill="#63b8ff" stroke="#63b8ff" points="109.13,-37.3 105.62,-27.3 102.13,-37.3 109.13,-37.3"/>
</a>
</g>
</g>
<!-- Node7 -->
<g id="Node000007" class="node">
<title>Node7</title>
<g id="a_Node000007"><a xlink:href="a00071.html" target="_top" xlink:title="This is the generated driver types header file for the ADC driver.">
<polygon fill="white" stroke="#666666" points="330.25,-26 261,-26 261,-6 330.25,-6 330.25,-26"/>
<text text-anchor="middle" x="295.62" y="-12.5" font-family="Helvetica,sans-Serif" font-size="10.00">adc_types.h</text>
</a>
</g>
</g>
<!-- Node3&#45;&gt;Node7 -->
<g id="edge6_Node000003_Node000007" class="edge">
<title>Node3&#45;&gt;Node7</title>
<g id="a_edge6_Node000003_Node000007"><a xlink:title=" ">
<path fill="none" stroke="#63b8ff" d="M133.15,-126.19C158.31,-119.15 195.87,-106.57 224.62,-88 247.39,-73.29 268.7,-50.26 281.91,-34.44"/>
<polygon fill="#63b8ff" stroke="#63b8ff" points="285.12,-37.04 288.71,-27.08 279.69,-32.63 285.12,-37.04"/>
</a>
</g>
</g>
<!-- Node8 -->
<g id="Node000008" class="node">
<title>Node8</title>
<g id="a_Node000008"><a xlink:href="a00068_source.html" target="_top" xlink:title=" ">
<polygon fill="white" stroke="#666666" points="215.62,-88 133.62,-88 133.62,-68 215.62,-68 215.62,-88"/>
<text text-anchor="middle" x="174.62" y="-74.5" font-family="Helvetica,sans-Serif" font-size="10.00">adc_interface.h</text>
</a>
</g>
</g>
<!-- Node3&#45;&gt;Node8 -->
<g id="edge7_Node000003_Node000008" class="edge">
<title>Node3&#45;&gt;Node8</title>
<g id="a_edge7_Node000003_Node000008"><a xlink:title=" ">
<path fill="none" stroke="#63b8ff" d="M117.64,-123.59C127.74,-115.7 142.37,-104.24 154.29,-94.92"/>
<polygon fill="#63b8ff" stroke="#63b8ff" points="156.03,-97.22 161.74,-88.3 151.71,-91.71 156.03,-97.22"/>
</a>
</g>
</g>
<!-- Node8&#45;&gt;Node5 -->
<g id="edge9_Node000008_Node000005" class="edge">
<title>Node8&#45;&gt;Node5</title>
<g id="a_edge9_Node000008_Node000005"><a xlink:title=" ">
<path fill="none" stroke="#63b8ff" d="M152.91,-67.62C129.85,-57.67 93.21,-41.85 67.01,-30.55"/>
<polygon fill="#63b8ff" stroke="#63b8ff" points="68.76,-27.06 58.19,-26.31 65.99,-33.49 68.76,-27.06"/>
</a>
</g>
</g>
<!-- Node8&#45;&gt;Node6 -->
<g id="edge8_Node000008_Node000006" class="edge">
<title>Node8&#45;&gt;Node6</title>
<g id="a_edge8_Node000008_Node000006"><a xlink:title=" ">
<path fill="none" stroke="#63b8ff" d="M163.84,-67.62C153.25,-58.41 136.87,-44.17 124.18,-33.14"/>
<polygon fill="#63b8ff" stroke="#63b8ff" points="126.95,-30.03 117.1,-26.11 122.35,-35.32 126.95,-30.03"/>
</a>
</g>
</g>
<!-- Node8&#45;&gt;Node7 -->
<g id="edge10_Node000008_Node000007" class="edge">
<title>Node8&#45;&gt;Node7</title>
<g id="a_edge10_Node000008_Node000007"><a xlink:title=" ">
<path fill="none" stroke="#63b8ff" d="M193.53,-67.62C213.24,-57.85 244.38,-42.41 267.08,-31.15"/>
<polygon fill="#63b8ff" stroke="#63b8ff" points="268.45,-33.89 275.85,-26.31 265.34,-27.62 268.45,-33.89"/>
</a>
</g>
</g>
<!-- Node9 -->
<g id="Node000009" class="node">
<title>Node9</title>
<g id="a_Node000009"><a xlink:href="a00143_source.html" target="_top" xlink:title=" ">
<polygon fill="white" stroke="#666666" points="243.38,-32 147.88,-32 147.88,0 243.38,0 243.38,-32"/>
<text text-anchor="start" x="155.88" y="-18.5" font-family="Helvetica,sans-Serif" font-size="10.00">../system/interrupt</text>
<text text-anchor="middle" x="195.62" y="-6.5" font-family="Helvetica,sans-Serif" font-size="10.00">_types.h</text>
</a>
</g>
</g>
<!-- Node8&#45;&gt;Node9 -->
<g id="edge11_Node000008_Node000009" class="edge">
<title>Node8&#45;&gt;Node9</title>
<g id="a_edge11_Node000008_Node000009"><a xlink:title=" ">
<path fill="none" stroke="#63b8ff" d="M177.91,-67.62C180.27,-60.88 183.57,-51.43 186.69,-42.52"/>
<polygon fill="#63b8ff" stroke="#63b8ff" points="190.33,-43.74 190.33,-33.14 183.72,-41.42 190.33,-43.74"/>
</a>
</g>
</g>
</g>
</svg>
