<?xml version="1.0" encoding="UTF-8" standalone="no"?>
<!DOCTYPE svg PUBLIC "-//W3C//DTD SVG 1.1//EN"
 "http://www.w3.org/Graphics/SVG/1.1/DTD/svg11.dtd">
<!-- Generated by graphviz version 8.1.0 (20230707.0739)
 -->
<!-- Title: psfb_droop.X/mcc_generated_files/cmp/cmp1.h Pages: 1 -->
<svg width="308pt" height="108pt"
 viewBox="0.00 0.00 308.25 108.00" xmlns="http://www.w3.org/2000/svg" xmlns:xlink="http://www.w3.org/1999/xlink">
<g id="graph0" class="graph" transform="scale(1 1) rotate(0) translate(4 104)">
<title>psfb_droop.X/mcc_generated_files/cmp/cmp1.h</title>
<!-- Node1 -->
<g id="Node000001" class="node">
<title>Node1</title>
<g id="a_Node000001"><a xlink:title="This is the generated driver header file for the CMP1 driver.">
<polygon fill="#999999" stroke="#666666" points="220.25,-100 79,-100 79,-68 220.25,-68 220.25,-100"/>
<text text-anchor="start" x="87" y="-86.5" font-family="Helvetica,sans-Serif" font-size="10.00">psfb_droop.X/mcc_generated</text>
<text text-anchor="middle" x="149.62" y="-74.5" font-family="Helvetica,sans-Serif" font-size="10.00">_files/cmp/cmp1.h</text>
</a>
</g>
</g>
<!-- Node2 -->
<g id="Node000002" class="node">
<title>Node2</title>
<g id="a_Node000002"><a xlink:href="a00101.html" target="_top" xlink:title="This is the generated driver source file for CMP1 driver.">
<polygon fill="white" stroke="#666666" points="141.25,-32 0,-32 0,0 141.25,0 141.25,-32"/>
<text text-anchor="start" x="8" y="-18.5" font-family="Helvetica,sans-Serif" font-size="10.00">psfb_droop.X/mcc_generated</text>
<text text-anchor="middle" x="70.62" y="-6.5" font-family="Helvetica,sans-Serif" font-size="10.00">_files/cmp/src/cmp1.c</text>
</a>
</g>
</g>
<!-- Node1&#45;&gt;Node2 -->
<g id="edge1_Node000001_Node000002" class="edge">
<title>Node1&#45;&gt;Node2</title>
<g id="a_edge1_Node000001_Node000002"><a xlink:title=" ">
<path fill="none" stroke="#63b8ff" d="M123.14,-60.87C111.97,-51.55 99.25,-40.91 89.12,-32.45"/>
<polygon fill="#63b8ff" stroke="#63b8ff" points="120.38,-63.97 130.3,-67.69 124.87,-58.59 120.38,-63.97"/>
</a>
</g>
</g>
<!-- Node3 -->
<g id="Node000003" class="node">
<title>Node3</title>
<g id="a_Node000003"><a xlink:href="a00176.html" target="_top" xlink:title="This is the generated driver header file for the System driver.">
<polygon fill="white" stroke="#666666" points="300.25,-32 159,-32 159,0 300.25,0 300.25,-32"/>
<text text-anchor="start" x="167" y="-18.5" font-family="Helvetica,sans-Serif" font-size="10.00">psfb_droop.X/mcc_generated</text>
<text text-anchor="middle" x="229.62" y="-6.5" font-family="Helvetica,sans-Serif" font-size="10.00">_files/system/src/system.c</text>
</a>
</g>
</g>
<!-- Node1&#45;&gt;Node3 -->
<g id="edge2_Node000001_Node000003" class="edge">
<title>Node1&#45;&gt;Node3</title>
<g id="a_edge2_Node000001_Node000003"><a xlink:title=" ">
<path fill="none" stroke="#63b8ff" d="M176.45,-60.87C187.75,-51.55 200.64,-40.91 210.89,-32.45"/>
<polygon fill="#63b8ff" stroke="#63b8ff" points="174.67,-58.63 169.18,-67.69 179.12,-64.03 174.67,-58.63"/>
</a>
</g>
</g>
</g>
</svg>
