<?xml version="1.0" encoding="UTF-8" standalone="no"?>
<!DOCTYPE svg PUBLIC "-//W3C//DTD SVG 1.1//EN"
 "http://www.w3.org/Graphics/SVG/1.1/DTD/svg11.dtd">
<!-- Generated by graphviz version 8.1.0 (20230707.0739)
 -->
<!-- Title: psfb_droop.X/mcc_generated_files/adc/adc1.h Pages: 1 -->
<svg width="333pt" height="164pt"
 viewBox="0.00 0.00 333.00 164.00" xmlns="http://www.w3.org/2000/svg" xmlns:xlink="http://www.w3.org/1999/xlink">
<g id="graph0" class="graph" transform="scale(1 1) rotate(0) translate(4 160)">
<title>psfb_droop.X/mcc_generated_files/adc/adc1.h</title>
<!-- Node1 -->
<g id="Node000001" class="node">
<title>Node1</title>
<g id="a_Node000001"><a xlink:title="This is the generated driver header file for the ADC1 driver.">
<polygon fill="#999999" stroke="#666666" points="171,-156 29.75,-156 29.75,-124 171,-124 171,-156"/>
<text text-anchor="start" x="37.75" y="-142.5" font-family="Helvetica,sans-Serif" font-size="10.00">psfb_droop.X/mcc_generated</text>
<text text-anchor="middle" x="100.38" y="-130.5" font-family="Helvetica,sans-Serif" font-size="10.00">_files/adc/adc1.h</text>
</a>
</g>
</g>
<!-- Node2 -->
<g id="Node000002" class="node">
<title>Node2</title>
<g id="a_Node000002"><a xlink:title=" ">
<polygon fill="#e0e0e0" stroke="#999999" points="34.75,-88 0,-88 0,-68 34.75,-68 34.75,-88"/>
<text text-anchor="middle" x="17.38" y="-74.5" font-family="Helvetica,sans-Serif" font-size="10.00">xc.h</text>
</a>
</g>
</g>
<!-- Node1&#45;&gt;Node2 -->
<g id="edge1_Node000001_Node000002" class="edge">
<title>Node1&#45;&gt;Node2</title>
<g id="a_edge1_Node000001_Node000002"><a xlink:title=" ">
<path fill="none" stroke="#63b8ff" d="M79,-123.55C66.75,-114.69 51.42,-103.61 39.11,-94.71"/>
<polygon fill="#63b8ff" stroke="#63b8ff" points="41.54,-91.43 31.39,-88.41 37.44,-97.1 41.54,-91.43"/>
</a>
</g>
</g>
<!-- Node3 -->
<g id="Node000003" class="node">
<title>Node3</title>
<g id="a_Node000003"><a xlink:title=" ">
<polygon fill="#e0e0e0" stroke="#999999" points="58.25,-26 2.5,-26 2.5,-6 58.25,-6 58.25,-26"/>
<text text-anchor="middle" x="30.38" y="-12.5" font-family="Helvetica,sans-Serif" font-size="10.00">stdbool.h</text>
</a>
</g>
</g>
<!-- Node1&#45;&gt;Node3 -->
<g id="edge2_Node000001_Node000003" class="edge">
<title>Node1&#45;&gt;Node3</title>
<g id="a_edge2_Node000001_Node000003"><a xlink:title=" ">
<path fill="none" stroke="#63b8ff" d="M91.51,-123.55C78.69,-101.21 55.01,-59.93 41.18,-35.83"/>
<polygon fill="#63b8ff" stroke="#63b8ff" points="43.77,-34.31 35.76,-27.38 37.7,-37.8 43.77,-34.31"/>
</a>
</g>
</g>
<!-- Node4 -->
<g id="Node000004" class="node">
<title>Node4</title>
<g id="a_Node000004"><a xlink:title=" ">
<polygon fill="#e0e0e0" stroke="#999999" points="124.5,-26 76.25,-26 76.25,-6 124.5,-6 124.5,-26"/>
<text text-anchor="middle" x="100.38" y="-12.5" font-family="Helvetica,sans-Serif" font-size="10.00">stdint.h</text>
</a>
</g>
</g>
<!-- Node1&#45;&gt;Node4 -->
<g id="edge3_Node000001_Node000004" class="edge">
<title>Node1&#45;&gt;Node4</title>
<g id="a_edge3_Node000001_Node000004"><a xlink:title=" ">
<path fill="none" stroke="#63b8ff" d="M100.38,-123.55C100.38,-101.61 100.38,-61.4 100.38,-37.15"/>
<polygon fill="#63b8ff" stroke="#63b8ff" points="103.88,-37.38 100.38,-27.38 96.88,-37.38 103.88,-37.38"/>
</a>
</g>
</g>
<!-- Node5 -->
<g id="Node000005" class="node">
<title>Node5</title>
<g id="a_Node000005"><a xlink:href="a00071.html" target="_top" xlink:title="This is the generated driver types header file for the ADC driver.">
<polygon fill="white" stroke="#666666" points="325,-26 255.75,-26 255.75,-6 325,-6 325,-26"/>
<text text-anchor="middle" x="290.38" y="-12.5" font-family="Helvetica,sans-Serif" font-size="10.00">adc_types.h</text>
</a>
</g>
</g>
<!-- Node1&#45;&gt;Node5 -->
<g id="edge4_Node000001_Node000005" class="edge">
<title>Node1&#45;&gt;Node5</title>
<g id="a_edge4_Node000001_Node000005"><a xlink:title=" ">
<path fill="none" stroke="#63b8ff" d="M147.4,-123.59C170.18,-114.97 197.32,-102.93 219.38,-88 241.58,-72.97 262.73,-50.37 276.08,-34.72"/>
<polygon fill="#63b8ff" stroke="#63b8ff" points="279.28,-37.35 282.99,-27.42 273.9,-32.87 279.28,-37.35"/>
</a>
</g>
</g>
<!-- Node6 -->
<g id="Node000006" class="node">
<title>Node6</title>
<g id="a_Node000006"><a xlink:href="a00068_source.html" target="_top" xlink:title=" ">
<polygon fill="white" stroke="#666666" points="210.38,-88 128.38,-88 128.38,-68 210.38,-68 210.38,-88"/>
<text text-anchor="middle" x="169.38" y="-74.5" font-family="Helvetica,sans-Serif" font-size="10.00">adc_interface.h</text>
</a>
</g>
</g>
<!-- Node1&#45;&gt;Node6 -->
<g id="edge5_Node000001_Node000006" class="edge">
<title>Node1&#45;&gt;Node6</title>
<g id="a_edge5_Node000001_Node000006"><a xlink:title=" ">
<path fill="none" stroke="#63b8ff" d="M118.14,-123.55C128.03,-114.95 140.33,-104.26 150.4,-95.5"/>
<polygon fill="#63b8ff" stroke="#63b8ff" points="152.31,-97.61 157.56,-88.41 147.71,-92.33 152.31,-97.61"/>
</a>
</g>
</g>
<!-- Node6&#45;&gt;Node3 -->
<g id="edge7_Node000006_Node000003" class="edge">
<title>Node6&#45;&gt;Node3</title>
<g id="a_edge7_Node000006_Node000003"><a xlink:title=" ">
<path fill="none" stroke="#63b8ff" d="M147.66,-67.62C124.6,-57.67 87.96,-41.85 61.76,-30.55"/>
<polygon fill="#63b8ff" stroke="#63b8ff" points="63.51,-27.06 52.94,-26.31 60.74,-33.49 63.51,-27.06"/>
</a>
</g>
</g>
<!-- Node6&#45;&gt;Node4 -->
<g id="edge6_Node000006_Node000004" class="edge">
<title>Node6&#45;&gt;Node4</title>
<g id="a_edge6_Node000006_Node000004"><a xlink:title=" ">
<path fill="none" stroke="#63b8ff" d="M158.59,-67.62C148,-58.41 131.62,-44.17 118.93,-33.14"/>
<polygon fill="#63b8ff" stroke="#63b8ff" points="121.7,-30.03 111.85,-26.11 117.1,-35.32 121.7,-30.03"/>
</a>
</g>
</g>
<!-- Node6&#45;&gt;Node5 -->
<g id="edge8_Node000006_Node000005" class="edge">
<title>Node6&#45;&gt;Node5</title>
<g id="a_edge8_Node000006_Node000005"><a xlink:title=" ">
<path fill="none" stroke="#63b8ff" d="M188.28,-67.62C207.99,-57.85 239.13,-42.41 261.83,-31.15"/>
<polygon fill="#63b8ff" stroke="#63b8ff" points="263.2,-33.89 270.6,-26.31 260.09,-27.62 263.2,-33.89"/>
</a>
</g>
</g>
<!-- Node7 -->
<g id="Node000007" class="node">
<title>Node7</title>
<g id="a_Node000007"><a xlink:href="a00143_source.html" target="_top" xlink:title=" ">
<polygon fill="white" stroke="#666666" points="238.12,-32 142.62,-32 142.62,0 238.12,0 238.12,-32"/>
<text text-anchor="start" x="150.62" y="-18.5" font-family="Helvetica,sans-Serif" font-size="10.00">../system/interrupt</text>
<text text-anchor="middle" x="190.38" y="-6.5" font-family="Helvetica,sans-Serif" font-size="10.00">_types.h</text>
</a>
</g>
</g>
<!-- Node6&#45;&gt;Node7 -->
<g id="edge9_Node000006_Node000007" class="edge">
<title>Node6&#45;&gt;Node7</title>
<g id="a_edge9_Node000006_Node000007"><a xlink:title=" ">
<path fill="none" stroke="#63b8ff" d="M172.66,-67.62C175.02,-60.88 178.32,-51.43 181.44,-42.52"/>
<polygon fill="#63b8ff" stroke="#63b8ff" points="185.08,-43.74 185.08,-33.14 178.47,-41.42 185.08,-43.74"/>
</a>
</g>
</g>
</g>
</svg>
