<?xml version="1.0" encoding="UTF-8" standalone="no"?>
<!DOCTYPE svg PUBLIC "-//W3C//DTD SVG 1.1//EN"
 "http://www.w3.org/Graphics/SVG/1.1/DTD/svg11.dtd">
<!-- Generated by graphviz version 8.1.0 (20230707.0739)
 -->
<!-- Title: psfb_droop.X/mcc_generated_files/can/can1.h Pages: 1 -->
<svg width="236pt" height="208pt"
 viewBox="0.00 0.00 236.39 208.00" xmlns="http://www.w3.org/2000/svg" xmlns:xlink="http://www.w3.org/1999/xlink">
<g id="graph0" class="graph" transform="scale(1 1) rotate(0) translate(4 204)">
<title>psfb_droop.X/mcc_generated_files/can/can1.h</title>
<!-- Node1 -->
<g id="Node000001" class="node">
<title>Node1</title>
<g id="a_Node000001"><a xlink:title="This is the generated driver header file for the CAN1 driver using CCL.">
<polygon fill="#999999" stroke="#666666" points="202,-200 60.75,-200 60.75,-168 202,-168 202,-200"/>
<text text-anchor="start" x="68.75" y="-186.5" font-family="Helvetica,sans-Serif" font-size="10.00">psfb_droop.X/mcc_generated</text>
<text text-anchor="middle" x="131.38" y="-174.5" font-family="Helvetica,sans-Serif" font-size="10.00">_files/can/can1.h</text>
</a>
</g>
</g>
<!-- Node2 -->
<g id="Node000002" class="node">
<title>Node2</title>
<g id="a_Node000002"><a xlink:title=" ">
<polygon fill="#e0e0e0" stroke="#999999" points="34.75,-132 0,-132 0,-112 34.75,-112 34.75,-132"/>
<text text-anchor="middle" x="17.38" y="-118.5" font-family="Helvetica,sans-Serif" font-size="10.00">xc.h</text>
</a>
</g>
</g>
<!-- Node1&#45;&gt;Node2 -->
<g id="edge1_Node000001_Node000002" class="edge">
<title>Node1&#45;&gt;Node2</title>
<g id="a_edge1_Node000001_Node000002"><a xlink:title=" ">
<path fill="none" stroke="#63b8ff" d="M102.02,-167.55C84.26,-158.2 61.78,-146.37 44.45,-137.25"/>
<polygon fill="#63b8ff" stroke="#63b8ff" points="46.4,-133.79 35.92,-132.23 43.14,-139.99 46.4,-133.79"/>
</a>
</g>
</g>
<!-- Node3 -->
<g id="Node000003" class="node">
<title>Node3</title>
<g id="a_Node000003"><a xlink:title=" ">
<polygon fill="#e0e0e0" stroke="#999999" points="212.25,-76 156.5,-76 156.5,-56 212.25,-56 212.25,-76"/>
<text text-anchor="middle" x="184.38" y="-62.5" font-family="Helvetica,sans-Serif" font-size="10.00">stdbool.h</text>
</a>
</g>
</g>
<!-- Node1&#45;&gt;Node3 -->
<g id="edge2_Node000001_Node000003" class="edge">
<title>Node1&#45;&gt;Node3</title>
<g id="a_edge2_Node000001_Node000003"><a xlink:title=" ">
<path fill="none" stroke="#63b8ff" d="M152.65,-167.55C163.31,-158.5 175.23,-146.1 181.38,-132 187.52,-117.89 187.98,-100.38 187.05,-87.09"/>
<polygon fill="#63b8ff" stroke="#63b8ff" points="190.45,-86.88 185.95,-77.29 183.49,-87.6 190.45,-86.88"/>
</a>
</g>
</g>
<!-- Node4 -->
<g id="Node000004" class="node">
<title>Node4</title>
<g id="a_Node000004"><a xlink:title=" ">
<polygon fill="#e0e0e0" stroke="#999999" points="152.5,-20 104.25,-20 104.25,0 152.5,0 152.5,-20"/>
<text text-anchor="middle" x="128.38" y="-6.5" font-family="Helvetica,sans-Serif" font-size="10.00">stdint.h</text>
</a>
</g>
</g>
<!-- Node1&#45;&gt;Node4 -->
<g id="edge3_Node000001_Node000004" class="edge">
<title>Node1&#45;&gt;Node4</title>
<g id="a_edge3_Node000001_Node000004"><a xlink:title=" ">
<path fill="none" stroke="#63b8ff" d="M156.43,-167.55C191.3,-144.02 247.43,-97.55 221.38,-56 208.64,-35.68 183.84,-24.31 163.05,-18.09"/>
<polygon fill="#63b8ff" stroke="#63b8ff" points="164.2,-14.5 153.63,-15.28 162.38,-21.26 164.2,-14.5"/>
</a>
</g>
</g>
<!-- Node5 -->
<g id="Node000005" class="node">
<title>Node5</title>
<g id="a_Node000005"><a xlink:href="a00086.html" target="_top" xlink:title="This is the generated driver types header file for the CAN driver using CCL.">
<polygon fill="white" stroke="#666666" points="100,-76 30.75,-76 30.75,-56 100,-56 100,-76"/>
<text text-anchor="middle" x="65.38" y="-62.5" font-family="Helvetica,sans-Serif" font-size="10.00">can_types.h</text>
</a>
</g>
</g>
<!-- Node1&#45;&gt;Node5 -->
<g id="edge4_Node000001_Node000005" class="edge">
<title>Node1&#45;&gt;Node5</title>
<g id="a_edge4_Node000001_Node000005"><a xlink:title=" ">
<path fill="none" stroke="#63b8ff" d="M112.17,-167.9C101.6,-158.61 89.1,-145.86 81.38,-132 73.66,-118.17 69.63,-100.64 67.54,-87.27"/>
<polygon fill="#63b8ff" stroke="#63b8ff" points="70.89,-86.86 66.12,-77.39 63.94,-87.76 70.89,-86.86"/>
</a>
</g>
</g>
<!-- Node6 -->
<g id="Node000006" class="node">
<title>Node6</title>
<g id="a_Node000006"><a xlink:href="a00083_source.html" target="_top" xlink:title=" ">
<polygon fill="white" stroke="#666666" points="172.38,-132 90.38,-132 90.38,-112 172.38,-112 172.38,-132"/>
<text text-anchor="middle" x="131.38" y="-118.5" font-family="Helvetica,sans-Serif" font-size="10.00">can_interface.h</text>
</a>
</g>
</g>
<!-- Node1&#45;&gt;Node6 -->
<g id="edge6_Node000001_Node000006" class="edge">
<title>Node1&#45;&gt;Node6</title>
<g id="a_edge6_Node000001_Node000006"><a xlink:title=" ">
<path fill="none" stroke="#63b8ff" d="M131.38,-167.55C131.38,-160.17 131.38,-151.24 131.38,-143.32"/>
<polygon fill="#63b8ff" stroke="#63b8ff" points="134.88,-143.41 131.38,-133.41 127.88,-143.41 134.88,-143.41"/>
</a>
</g>
</g>
<!-- Node5&#45;&gt;Node4 -->
<g id="edge5_Node000005_Node000004" class="edge">
<title>Node5&#45;&gt;Node4</title>
<g id="a_edge5_Node000005_Node000004"><a xlink:title=" ">
<path fill="none" stroke="#63b8ff" d="M76.35,-55.59C85.47,-47.77 98.67,-36.46 109.48,-27.19"/>
<polygon fill="#63b8ff" stroke="#63b8ff" points="111.21,-29.46 116.53,-20.3 106.66,-24.15 111.21,-29.46"/>
</a>
</g>
</g>
<!-- Node6&#45;&gt;Node3 -->
<g id="edge7_Node000006_Node000003" class="edge">
<title>Node6&#45;&gt;Node3</title>
<g id="a_edge7_Node000006_Node000003"><a xlink:title=" ">
<path fill="none" stroke="#63b8ff" d="M140.61,-111.59C148.05,-104.01 158.73,-93.13 167.67,-84.02"/>
<polygon fill="#63b8ff" stroke="#63b8ff" points="169.74,-86.89 174.25,-77.3 164.75,-81.98 169.74,-86.89"/>
</a>
</g>
</g>
<!-- Node6&#45;&gt;Node4 -->
<g id="edge8_Node000006_Node000004" class="edge">
<title>Node6&#45;&gt;Node4</title>
<g id="a_edge8_Node000006_Node000004"><a xlink:title=" ">
<path fill="none" stroke="#63b8ff" d="M131.12,-111.62C130.64,-93.92 129.58,-55.24 128.93,-31.32"/>
<polygon fill="#63b8ff" stroke="#63b8ff" points="132.4,-31.26 128.63,-21.35 125.4,-31.45 132.4,-31.26"/>
</a>
</g>
</g>
<!-- Node6&#45;&gt;Node5 -->
<g id="edge9_Node000006_Node000005" class="edge">
<title>Node6&#45;&gt;Node5</title>
<g id="a_edge9_Node000006_Node000005"><a xlink:title=" ">
<path fill="none" stroke="#63b8ff" d="M119.88,-111.59C110.32,-103.77 96.5,-92.46 85.17,-83.19"/>
<polygon fill="#63b8ff" stroke="#63b8ff" points="87.7,-79.92 77.74,-76.3 83.26,-85.34 87.7,-79.92"/>
</a>
</g>
</g>
</g>
</svg>
