<?xml version="1.0" encoding="UTF-8" standalone="no"?>
<!DOCTYPE svg PUBLIC "-//W3C//DTD SVG 1.1//EN"
 "http://www.w3.org/Graphics/SVG/1.1/DTD/svg11.dtd">
<!-- Generated by graphviz version 8.1.0 (20230707.0739)
 -->
<!-- Title: psfb_droop.X/mcc_generated_files/cmp/cmp3.h Pages: 1 -->
<svg width="149pt" height="152pt"
 viewBox="0.00 0.00 149.25 152.00" xmlns="http://www.w3.org/2000/svg" xmlns:xlink="http://www.w3.org/1999/xlink">
<g id="graph0" class="graph" transform="scale(1 1) rotate(0) translate(4 148)">
<title>psfb_droop.X/mcc_generated_files/cmp/cmp3.h</title>
<!-- Node1 -->
<g id="Node000001" class="node">
<title>Node1</title>
<g id="a_Node000001"><a xlink:title="This is the generated driver header file for the CMP3 driver.">
<polygon fill="#999999" stroke="#666666" points="141.25,-144 0,-144 0,-112 141.25,-112 141.25,-144"/>
<text text-anchor="start" x="8" y="-130.5" font-family="Helvetica,sans-Serif" font-size="10.00">psfb_droop.X/mcc_generated</text>
<text text-anchor="middle" x="70.62" y="-118.5" font-family="Helvetica,sans-Serif" font-size="10.00">_files/cmp/cmp3.h</text>
</a>
</g>
</g>
<!-- Node2 -->
<g id="Node000002" class="node">
<title>Node2</title>
<g id="a_Node000002"><a xlink:title=" ">
<polygon fill="#e0e0e0" stroke="#999999" points="59.88,-20 9.38,-20 9.38,0 59.88,0 59.88,-20"/>
<text text-anchor="middle" x="34.62" y="-6.5" font-family="Helvetica,sans-Serif" font-size="10.00">stddef.h</text>
</a>
</g>
</g>
<!-- Node1&#45;&gt;Node2 -->
<g id="edge1_Node000001_Node000002" class="edge">
<title>Node1&#45;&gt;Node2</title>
<g id="a_edge1_Node000001_Node000002"><a xlink:title=" ">
<path fill="none" stroke="#63b8ff" d="M47.98,-111.62C36.89,-102.67 24.65,-90.34 18.62,-76 12.31,-60.95 17.74,-42.85 23.93,-29.57"/>
<polygon fill="#63b8ff" stroke="#63b8ff" points="27.34,-31.6 28.84,-21.11 21.13,-28.37 27.34,-31.6"/>
</a>
</g>
</g>
<!-- Node3 -->
<g id="Node000003" class="node">
<title>Node3</title>
<g id="a_Node000003"><a xlink:title=" ">
<polygon fill="#e0e0e0" stroke="#999999" points="133.5,-20 77.75,-20 77.75,0 133.5,0 133.5,-20"/>
<text text-anchor="middle" x="105.62" y="-6.5" font-family="Helvetica,sans-Serif" font-size="10.00">stdbool.h</text>
</a>
</g>
</g>
<!-- Node1&#45;&gt;Node3 -->
<g id="edge2_Node000001_Node000003" class="edge">
<title>Node1&#45;&gt;Node3</title>
<g id="a_edge2_Node000001_Node000003"><a xlink:title=" ">
<path fill="none" stroke="#63b8ff" d="M93.27,-111.62C104.36,-102.67 116.6,-90.34 122.62,-76 128.97,-60.89 123.23,-42.8 116.76,-29.54"/>
<polygon fill="#63b8ff" stroke="#63b8ff" points="119.48,-28.21 111.64,-21.09 113.33,-31.55 119.48,-28.21"/>
</a>
</g>
</g>
<!-- Node4 -->
<g id="Node000004" class="node">
<title>Node4</title>
<g id="a_Node000004"><a xlink:href="a00098_source.html" target="_top" xlink:title=" ">
<polygon fill="white" stroke="#666666" points="113.12,-76 28.12,-76 28.12,-56 113.12,-56 113.12,-76"/>
<text text-anchor="middle" x="70.62" y="-62.5" font-family="Helvetica,sans-Serif" font-size="10.00">cmp_interface.h</text>
</a>
</g>
</g>
<!-- Node1&#45;&gt;Node4 -->
<g id="edge3_Node000001_Node000004" class="edge">
<title>Node1&#45;&gt;Node4</title>
<g id="a_edge3_Node000001_Node000004"><a xlink:title=" ">
<path fill="none" stroke="#63b8ff" d="M70.62,-111.55C70.62,-104.17 70.62,-95.24 70.62,-87.32"/>
<polygon fill="#63b8ff" stroke="#63b8ff" points="74.13,-87.41 70.62,-77.41 67.13,-87.41 74.13,-87.41"/>
</a>
</g>
</g>
<!-- Node4&#45;&gt;Node2 -->
<g id="edge5_Node000004_Node000002" class="edge">
<title>Node4&#45;&gt;Node2</title>
<g id="a_edge5_Node000004_Node000002"><a xlink:title=" ">
<path fill="none" stroke="#63b8ff" d="M64.35,-55.59C59.55,-48.39 52.78,-38.23 46.91,-29.43"/>
<polygon fill="#63b8ff" stroke="#63b8ff" points="49.28,-27.68 40.82,-21.3 43.46,-31.56 49.28,-27.68"/>
</a>
</g>
</g>
<!-- Node4&#45;&gt;Node3 -->
<g id="edge4_Node000004_Node000003" class="edge">
<title>Node4&#45;&gt;Node3</title>
<g id="a_edge4_Node000004_Node000003"><a xlink:title=" ">
<path fill="none" stroke="#63b8ff" d="M76.72,-55.59C81.39,-48.39 87.97,-38.23 93.68,-29.43"/>
<polygon fill="#63b8ff" stroke="#63b8ff" points="97.1,-31.59 99.6,-21.3 91.22,-27.79 97.1,-31.59"/>
</a>
</g>
</g>
</g>
</svg>
