<?xml version="1.0" encoding="UTF-8" standalone="no"?>
<!DOCTYPE svg PUBLIC "-//W3C//DTD SVG 1.1//EN"
 "http://www.w3.org/Graphics/SVG/1.1/DTD/svg11.dtd">
<!-- Generated by graphviz version 8.1.0 (20230707.0739)
 -->
<!-- Title: psfb_droop.X/mcc_generated_files/adc/adc_types.h Pages: 1 -->
<!--zoomable 404 -->

<svg id="main" version="1.1" xmlns="http://www.w3.org/2000/svg" xmlns:xlink="http://www.w3.org/1999/xlink" xml:space="preserve" onload="init(evt)">

<style type="text/css"><![CDATA[
.node, .edge {opacity: 0.7;}
.node.selected, .edge.selected {opacity: 1;}
.edge:hover path { stroke: red; }
.edge:hover polygon { stroke: red; fill: red; }
]]></style>

<defs>
  <circle id="rim" cx="0" cy="0" r="7"/>
  <circle id="rim2" cx="0" cy="0" r="3.5"/>
  <g id="zoomPlus">
    <use xlink:href="#rim" fill="#404040"><set attributeName="fill" to="#808080" begin="zoomplus.mouseover" end="zoomplus.mouseout"/></use>
    <path d="M-4,0h8M0,-4v8" fill="none" stroke="white" stroke-width="1.5" pointer-events="none"/>
  </g>
  <g id="zoomMin">
    <use xlink:href="#rim" fill="#404040"><set attributeName="fill" to="#808080" begin="zoomminus.mouseover" end="zoomminus.mouseout"/></use>
    <path d="M-4,0h8" fill="none" stroke="white" stroke-width="1.5" pointer-events="none"/>
  </g>
  <g id="arrowUp" transform="translate(30 24)">
    <use xlink:href="#rim"/>
    <path pointer-events="none" fill="none" stroke="white" stroke-width="1.5" d="M0,-3.0v7 M-2.5,-0.5L0,-3.0L2.5,-0.5"/>
  </g>
  <g id="arrowRight" transform="rotate(90) translate(36 -43)">
    <use xlink:href="#rim"/>
    <path pointer-events="none" fill="none" stroke="white" stroke-width="1.5" d="M0,-3.0v7 M-2.5,-0.5L0,-3.0L2.5,-0.5"/>
  </g>
  <g id="arrowDown" transform="rotate(180) translate(-30 -48)">
    <use xlink:href="#rim"/>
    <path pointer-events="none" fill="none" stroke="white" stroke-width="1.5" d="M0,-3.0v7 M-2.5,-0.5L0,-3.0L2.5,-0.5"/>
  </g>
  <g id="arrowLeft" transform="rotate(270) translate(-36 17)">
    <use xlink:href="#rim"/>
    <path pointer-events="none" fill="none" stroke="white" stroke-width="1.5" d="M0,-3.0v7 M-2.5,-0.5L0,-3.0L2.5,-0.5"/>
  </g>
  <g id="resetDef">
    <use xlink:href="#rim2" fill="#404040"><set attributeName="fill" to="#808080" begin="reset.mouseover" end="reset.mouseout"/></use>
  </g>
</defs>
<script type="application/ecmascript">
var viewWidth = 968;
var viewHeight = 404;
var sectionId = 'dynsection-0';
</script>
<script type="application/ecmascript" xlink:href="svg.min.js"/>
<svg id="graph" class="graph">
<g id="viewport">
<title>psfb_droop.X/mcc_generated_files/adc/adc_types.h</title>
<!-- Node1 -->
<g id="Node000001" class="node">
<title>Node1</title>
<g id="a_Node000001"><a xlink:title="This is the generated driver types header file for the ADC driver.">
<polygon fill="#999999" stroke="#666666" points="721.5,-396 580.25,-396 580.25,-364 721.5,-364 721.5,-396"/>
<text text-anchor="start" x="588.25" y="-382.5" font-family="Helvetica,sans-Serif" font-size="10.00">psfb_droop.X/mcc_generated</text>
<text text-anchor="middle" x="650.88" y="-370.5" font-family="Helvetica,sans-Serif" font-size="10.00">_files/adc/adc_types.h</text>
</a>
</g>
</g>
<!-- Node2 -->
<g id="Node000002" class="node">
<title>Node2</title>
<g id="a_Node000002"><a xlink:href="a00062.html" target="_top" xlink:title="This is the generated driver header file for the ADC1 driver.">
<polygon fill="white" stroke="#666666" points="622.5,-260 481.25,-260 481.25,-228 622.5,-228 622.5,-260"/>
<text text-anchor="start" x="489.25" y="-246.5" font-family="Helvetica,sans-Serif" font-size="10.00">psfb_droop.X/mcc_generated</text>
<text text-anchor="middle" x="551.88" y="-234.5" font-family="Helvetica,sans-Serif" font-size="10.00">_files/adc/adc1.h</text>
</a>
</g>
</g>
<!-- Node1&#45;&gt;Node2 -->
<g id="edge1_Node000001_Node000002" class="edge">
<title>Node1&#45;&gt;Node2</title>
<g id="a_edge1_Node000001_Node000002"><a xlink:title=" ">
<path fill="none" stroke="#63b8ff" d="M605.42,-358.41C592.55,-350.57 579.66,-340.46 570.88,-328 556.56,-307.7 552.85,-278.3 551.99,-260.49"/>
<polygon fill="#63b8ff" stroke="#63b8ff" points="603.31,-361.81 613.74,-363.72 606.78,-355.73 603.31,-361.81"/>
</a>
</g>
</g>
<!-- Node14 -->
<g id="Node000014" class="node">
<title>Node14</title>
<g id="a_Node000014"><a xlink:href="a00404.html" target="_top" xlink:title="Contains some of the functions used in the interrupt service routine of control loop.">
<polygon fill="white" stroke="#666666" points="960.38,-192 851.38,-192 851.38,-148 960.38,-148 960.38,-192"/>
<text text-anchor="start" x="859.38" y="-178.5" font-family="Helvetica,sans-Serif" font-size="10.00">psfb_droop.X/sources</text>
<text text-anchor="start" x="859.38" y="-166.5" font-family="Helvetica,sans-Serif" font-size="10.00">/pwrctrl/pwrctrl_isr</text>
<text text-anchor="middle" x="905.88" y="-154.5" font-family="Helvetica,sans-Serif" font-size="10.00">_extension.c</text>
</a>
</g>
</g>
<!-- Node1&#45;&gt;Node14 -->
<g id="edge16_Node000001_Node000014" class="edge">
<title>Node1&#45;&gt;Node14</title>
<g id="a_edge16_Node000001_Node000014"><a xlink:title=" ">
<path fill="none" stroke="#63b8ff" d="M686.91,-357.77C700.98,-349.04 717.02,-338.52 730.88,-328 789.55,-283.45 852.48,-223.67 884.5,-192.29"/>
<polygon fill="#63b8ff" stroke="#63b8ff" points="685.25,-355.3 678.54,-363.51 688.9,-361.27 685.25,-355.3"/>
</a>
</g>
</g>
<!-- Node15 -->
<g id="Node000015" class="node">
<title>Node15</title>
<g id="a_Node000015"><a xlink:href="a00068_source.html" target="_top" xlink:title=" ">
<polygon fill="white" stroke="#666666" points="721.5,-328 580.25,-328 580.25,-296 721.5,-296 721.5,-328"/>
<text text-anchor="start" x="588.25" y="-314.5" font-family="Helvetica,sans-Serif" font-size="10.00">psfb_droop.X/mcc_generated</text>
<text text-anchor="middle" x="650.88" y="-302.5" font-family="Helvetica,sans-Serif" font-size="10.00">_files/adc/adc_interface.h</text>
</a>
</g>
</g>
<!-- Node1&#45;&gt;Node15 -->
<g id="edge14_Node000001_Node000015" class="edge">
<title>Node1&#45;&gt;Node15</title>
<g id="a_edge14_Node000001_Node000015"><a xlink:title=" ">
<path fill="none" stroke="#63b8ff" d="M650.88,-352.89C650.88,-344.52 650.88,-335.54 650.88,-328.22"/>
<polygon fill="#63b8ff" stroke="#63b8ff" points="647.38,-352.69 650.88,-362.69 654.38,-352.69 647.38,-352.69"/>
</a>
</g>
</g>
<!-- Node3 -->
<g id="Node000003" class="node">
<title>Node3</title>
<g id="a_Node000003"><a xlink:href="a00056_source.html" target="_top" xlink:title=" ">
<polygon fill="white" stroke="#666666" points="103.75,-180 0,-180 0,-160 103.75,-160 103.75,-180"/>
<text text-anchor="middle" x="51.88" y="-166.5" font-family="Helvetica,sans-Serif" font-size="10.00">psfb_droop.X/main.c</text>
</a>
</g>
</g>
<!-- Node2&#45;&gt;Node3 -->
<g id="edge2_Node000002_Node000003" class="edge">
<title>Node2&#45;&gt;Node3</title>
<g id="a_edge2_Node000002_Node000003"><a xlink:title=" ">
<path fill="none" stroke="#63b8ff" d="M469.93,-238.78C381.08,-232.97 235.51,-219.89 112.88,-192 100.32,-189.14 86.73,-184.62 75.58,-180.49"/>
<polygon fill="#63b8ff" stroke="#63b8ff" points="469.55,-242.32 479.75,-239.46 469.99,-235.34 469.55,-242.32"/>
</a>
</g>
</g>
<!-- Node4 -->
<g id="Node000004" class="node">
<title>Node4</title>
<g id="a_Node000004"><a xlink:href="a00074.html" target="_top" xlink:title="This is the generated driver source file for ADC1 driver.">
<polygon fill="white" stroke="#666666" points="263.5,-186 122.25,-186 122.25,-154 263.5,-154 263.5,-186"/>
<text text-anchor="start" x="130.25" y="-172.5" font-family="Helvetica,sans-Serif" font-size="10.00">psfb_droop.X/mcc_generated</text>
<text text-anchor="middle" x="192.88" y="-160.5" font-family="Helvetica,sans-Serif" font-size="10.00">_files/adc/src/adc1.c</text>
</a>
</g>
</g>
<!-- Node2&#45;&gt;Node4 -->
<g id="edge3_Node000002_Node000004" class="edge">
<title>Node2&#45;&gt;Node4</title>
<g id="a_edge3_Node000002_Node000004"><a xlink:title=" ">
<path fill="none" stroke="#63b8ff" d="M470.21,-229.89C414.18,-220.46 338.24,-206.84 271.88,-192 264.4,-190.33 256.56,-188.43 248.84,-186.47"/>
<polygon fill="#63b8ff" stroke="#63b8ff" points="469.35,-233.46 479.79,-231.66 470.5,-226.56 469.35,-233.46"/>
</a>
</g>
</g>
<!-- Node5 -->
<g id="Node000005" class="node">
<title>Node5</title>
<g id="a_Node000005"><a xlink:href="a00176.html" target="_top" xlink:title="This is the generated driver header file for the System driver.">
<polygon fill="white" stroke="#666666" points="422.5,-186 281.25,-186 281.25,-154 422.5,-154 422.5,-186"/>
<text text-anchor="start" x="289.25" y="-172.5" font-family="Helvetica,sans-Serif" font-size="10.00">psfb_droop.X/mcc_generated</text>
<text text-anchor="middle" x="351.88" y="-160.5" font-family="Helvetica,sans-Serif" font-size="10.00">_files/system/src/system.c</text>
</a>
</g>
</g>
<!-- Node2&#45;&gt;Node5 -->
<g id="edge4_Node000002_Node000005" class="edge">
<title>Node2&#45;&gt;Node5</title>
<g id="a_edge4_Node000002_Node000005"><a xlink:title=" ">
<path fill="none" stroke="#63b8ff" d="M498.73,-223.87C466.21,-212.16 425.14,-197.38 394.71,-186.42"/>
<polygon fill="#63b8ff" stroke="#63b8ff" points="497.38,-227.46 507.97,-227.55 499.75,-220.87 497.38,-227.46"/>
</a>
</g>
</g>
<!-- Node6 -->
<g id="Node000006" class="node">
<title>Node6</title>
<g id="a_Node000006"><a xlink:href="a00269.html" target="_top" xlink:title="measure current sensor offsets">
<polygon fill="white" stroke="#666666" points="559.25,-192 440.5,-192 440.5,-148 559.25,-148 559.25,-192"/>
<text text-anchor="start" x="448.5" y="-178.5" font-family="Helvetica,sans-Serif" font-size="10.00">psfb_droop.X/sources</text>
<text text-anchor="start" x="448.5" y="-166.5" font-family="Helvetica,sans-Serif" font-size="10.00">/device/dev_adc_sensor</text>
<text text-anchor="middle" x="499.88" y="-154.5" font-family="Helvetica,sans-Serif" font-size="10.00">_offsets.h</text>
</a>
</g>
</g>
<!-- Node2&#45;&gt;Node6 -->
<g id="edge5_Node000002_Node000006" class="edge">
<title>Node2&#45;&gt;Node6</title>
<g id="a_edge5_Node000002_Node000006"><a xlink:title=" ">
<path fill="none" stroke="#63b8ff" d="M534.46,-218.89C528.23,-210.26 521.27,-200.62 515.23,-192.26"/>
<polygon fill="#63b8ff" stroke="#63b8ff" points="532.15,-220.67 540.85,-226.73 537.83,-216.57 532.15,-220.67"/>
</a>
</g>
</g>
<!-- Node11 -->
<g id="Node000011" class="node">
<title>Node11</title>
<g id="a_Node000011"><a xlink:href="a00278.html" target="_top" xlink:title="Contains ADC initialization that was not supported by MCC generated code.">
<polygon fill="white" stroke="#666666" points="706.12,-192 577.62,-192 577.62,-148 706.12,-148 706.12,-192"/>
<text text-anchor="start" x="585.62" y="-178.5" font-family="Helvetica,sans-Serif" font-size="10.00">psfb_droop.X/sources</text>
<text text-anchor="start" x="585.62" y="-166.5" font-family="Helvetica,sans-Serif" font-size="10.00">/driver/mcc_extension</text>
<text text-anchor="middle" x="641.88" y="-154.5" font-family="Helvetica,sans-Serif" font-size="10.00">/drv_custom_config_adc.h</text>
</a>
</g>
</g>
<!-- Node2&#45;&gt;Node11 -->
<g id="edge10_Node000002_Node000011" class="edge">
<title>Node2&#45;&gt;Node11</title>
<g id="a_edge10_Node000002_Node000011"><a xlink:title=" ">
<path fill="none" stroke="#63b8ff" d="M579.29,-221.06C590.73,-211.92 603.96,-201.33 615.31,-192.26"/>
<polygon fill="#63b8ff" stroke="#63b8ff" points="577.58,-218.75 571.96,-227.73 581.96,-224.22 577.58,-218.75"/>
</a>
</g>
</g>
<!-- Node13 -->
<g id="Node000013" class="node">
<title>Node13</title>
<g id="a_Node000013"><a xlink:href="a00398.html" target="_top" xlink:title="Contains Control loop interrupt Callback that acquires the ADC raw data and process it in the control...">
<polygon fill="white" stroke="#666666" points="833.38,-186 724.38,-186 724.38,-154 833.38,-154 833.38,-186"/>
<text text-anchor="start" x="732.38" y="-172.5" font-family="Helvetica,sans-Serif" font-size="10.00">psfb_droop.X/sources</text>
<text text-anchor="middle" x="778.88" y="-160.5" font-family="Helvetica,sans-Serif" font-size="10.00">/pwrctrl/pwrctrl_isr.c</text>
</a>
</g>
</g>
<!-- Node2&#45;&gt;Node13 -->
<g id="edge12_Node000002_Node000013" class="edge">
<title>Node2&#45;&gt;Node13</title>
<g id="a_edge12_Node000002_Node000013"><a xlink:title=" ">
<path fill="none" stroke="#63b8ff" d="M612.02,-224.4C642.81,-214.82 680.88,-202.89 714.88,-192 720.44,-190.22 726.28,-188.33 732.06,-186.44"/>
<polygon fill="#63b8ff" stroke="#63b8ff" points="611.38,-221.24 602.87,-227.55 613.46,-227.93 611.38,-221.24"/>
</a>
</g>
</g>
<!-- Node2&#45;&gt;Node14 -->
<g id="edge13_Node000002_Node000014" class="edge">
<title>Node2&#45;&gt;Node14</title>
<g id="a_edge13_Node000002_Node000014"><a xlink:title=" ">
<path fill="none" stroke="#63b8ff" d="M633.46,-232.01C692.17,-223.3 773.01,-209.66 842.88,-192 845.56,-191.32 848.29,-190.59 851.04,-189.81"/>
<polygon fill="#63b8ff" stroke="#63b8ff" points="633.15,-228.67 623.76,-233.58 634.16,-235.59 633.15,-228.67"/>
</a>
</g>
</g>
<!-- Node7 -->
<g id="Node000007" class="node">
<title>Node7</title>
<g id="a_Node000007"><a xlink:href="a00266_source.html" target="_top" xlink:title=" ">
<polygon fill="white" stroke="#666666" points="433.25,-112 314.5,-112 314.5,-68 433.25,-68 433.25,-112"/>
<text text-anchor="start" x="322.5" y="-98.5" font-family="Helvetica,sans-Serif" font-size="10.00">psfb_droop.X/sources</text>
<text text-anchor="start" x="322.5" y="-86.5" font-family="Helvetica,sans-Serif" font-size="10.00">/device/dev_adc_sensor</text>
<text text-anchor="middle" x="373.88" y="-74.5" font-family="Helvetica,sans-Serif" font-size="10.00">_offsets.c</text>
</a>
</g>
</g>
<!-- Node6&#45;&gt;Node7 -->
<g id="edge6_Node000006_Node000007" class="edge">
<title>Node6&#45;&gt;Node7</title>
<g id="a_edge6_Node000006_Node000007"><a xlink:title=" ">
<path fill="none" stroke="#63b8ff" d="M456.42,-142.1C440.67,-132.35 423.12,-121.49 408.26,-112.29"/>
<polygon fill="#63b8ff" stroke="#63b8ff" points="454.1,-145.4 464.44,-147.69 457.78,-139.45 454.1,-145.4"/>
</a>
</g>
</g>
<!-- Node8 -->
<g id="Node000008" class="node">
<title>Node8</title>
<g id="a_Node000008"><a xlink:href="a00263.html" target="_top" xlink:title="Contains h files that are part of device layer.">
<polygon fill="white" stroke="#666666" points="560.38,-106 451.38,-106 451.38,-74 560.38,-74 560.38,-106"/>
<text text-anchor="start" x="459.38" y="-92.5" font-family="Helvetica,sans-Serif" font-size="10.00">psfb_droop.X/sources</text>
<text text-anchor="middle" x="505.88" y="-80.5" font-family="Helvetica,sans-Serif" font-size="10.00">/device/device.h</text>
</a>
</g>
</g>
<!-- Node6&#45;&gt;Node8 -->
<g id="edge7_Node000006_Node000008" class="edge">
<title>Node6&#45;&gt;Node8</title>
<g id="a_edge7_Node000006_Node000008"><a xlink:title=" ">
<path fill="none" stroke="#63b8ff" d="M502.34,-136.96C503.16,-126.28 504.04,-114.88 504.71,-106.11"/>
<polygon fill="#63b8ff" stroke="#63b8ff" points="498.79,-136.45 501.51,-146.69 505.77,-136.98 498.79,-136.45"/>
</a>
</g>
</g>
<!-- Node9 -->
<g id="Node000009" class="node">
<title>Node9</title>
<g id="a_Node000009"><a xlink:href="a00299.html" target="_top" xlink:title="Contains fault functions including the fault handler, fault object initialization and fault execution...">
<polygon fill="white" stroke="#666666" points="497.38,-32 388.38,-32 388.38,0 497.38,0 497.38,-32"/>
<text text-anchor="start" x="396.38" y="-18.5" font-family="Helvetica,sans-Serif" font-size="10.00">psfb_droop.X/sources</text>
<text text-anchor="middle" x="442.88" y="-6.5" font-family="Helvetica,sans-Serif" font-size="10.00">/fault/fault.c</text>
</a>
</g>
</g>
<!-- Node8&#45;&gt;Node9 -->
<g id="edge8_Node000008_Node000009" class="edge">
<title>Node8&#45;&gt;Node9</title>
<g id="a_edge8_Node000008_Node000009"><a xlink:title=" ">
<path fill="none" stroke="#63b8ff" d="M485.55,-65.77C475.94,-54.78 464.73,-41.98 456.22,-32.25"/>
<polygon fill="#63b8ff" stroke="#63b8ff" points="483.3,-67.51 492.51,-72.73 488.56,-62.9 483.3,-67.51"/>
</a>
</g>
</g>
<!-- Node10 -->
<g id="Node000010" class="node">
<title>Node10</title>
<g id="a_Node000010"><a xlink:href="a00413.html" target="_top" xlink:title="Contains power control state machine functions that is executed every 100us.">
<polygon fill="white" stroke="#666666" points="624.38,-32 515.38,-32 515.38,0 624.38,0 624.38,-32"/>
<text text-anchor="start" x="523.38" y="-18.5" font-family="Helvetica,sans-Serif" font-size="10.00">psfb_droop.X/sources</text>
<text text-anchor="middle" x="569.88" y="-6.5" font-family="Helvetica,sans-Serif" font-size="10.00">/pwrctrl/pwrctrl_sm.c</text>
</a>
</g>
</g>
<!-- Node8&#45;&gt;Node10 -->
<g id="edge9_Node000008_Node000010" class="edge">
<title>Node8&#45;&gt;Node10</title>
<g id="a_edge9_Node000008_Node000010"><a xlink:title=" ">
<path fill="none" stroke="#63b8ff" d="M526.53,-65.77C536.29,-54.78 547.67,-41.98 556.32,-32.25"/>
<polygon fill="#63b8ff" stroke="#63b8ff" points="524.48,-62.93 520.45,-72.73 529.71,-67.58 524.48,-62.93"/>
</a>
</g>
</g>
<!-- Node12 -->
<g id="Node000012" class="node">
<title>Node12</title>
<g id="a_Node000012"><a xlink:href="a00293_source.html" target="_top" xlink:title=" ">
<polygon fill="white" stroke="#666666" points="699,-112 584.75,-112 584.75,-68 699,-68 699,-112"/>
<text text-anchor="start" x="592.75" y="-98.5" font-family="Helvetica,sans-Serif" font-size="10.00">psfb_droop.X/sources</text>
<text text-anchor="start" x="592.75" y="-86.5" font-family="Helvetica,sans-Serif" font-size="10.00">/driver/mcc_extension</text>
<text text-anchor="middle" x="641.88" y="-74.5" font-family="Helvetica,sans-Serif" font-size="10.00">/mcc_custom_config.c</text>
</a>
</g>
</g>
<!-- Node11&#45;&gt;Node12 -->
<g id="edge11_Node000011_Node000012" class="edge">
<title>Node11&#45;&gt;Node12</title>
<g id="a_edge11_Node000011_Node000012"><a xlink:title=" ">
<path fill="none" stroke="#63b8ff" d="M641.88,-136.82C641.88,-128.54 641.88,-119.85 641.88,-112.29"/>
<polygon fill="#63b8ff" stroke="#63b8ff" points="638.38,-136.69 641.88,-146.69 645.38,-136.69 638.38,-136.69"/>
</a>
</g>
</g>
<!-- Node15&#45;&gt;Node2 -->
<g id="edge15_Node000015_Node000002" class="edge">
<title>Node15&#45;&gt;Node2</title>
<g id="a_edge15_Node000015_Node000002"><a xlink:title=" ">
<path fill="none" stroke="#63b8ff" d="M618.67,-289.53C604.4,-280.02 587.95,-269.05 574.94,-260.38"/>
<polygon fill="#63b8ff" stroke="#63b8ff" points="616.4,-292.89 626.66,-295.53 620.28,-287.07 616.4,-292.89"/>
</a>
</g>
</g>
</g>
</svg>

<g id="navigator" transform="translate(0 0)" fill="#404254">
  <rect fill="#f2f5e9" fill-opacity="0.5" stroke="#606060" stroke-width=".5" x="0" y="0" width="60" height="60"/>
  <use id="zoomplus" xlink:href="#zoomPlus" x="17" y="9" onmousedown="handleZoom(evt,'in')"/>
  <use id="zoomminus" xlink:href="#zoomMin" x="42" y="9" onmousedown="handleZoom(evt,'out')"/>
  <use id="reset" xlink:href="#resetDef" x="30" y="36" onmousedown="handleReset()"/>
   <use id="arrowup" xlink:href="#arrowUp" x="0" y="0" onmousedown="handlePan(0,-1)"/>
  <use id="arrowright" xlink:href="#arrowRight" x="0" y="0" onmousedown="handlePan(1,0)"/>
  <use id="arrowdown" xlink:href="#arrowDown" x="0" y="0" onmousedown="handlePan(0,1)"/>
  <use id="arrowleft" xlink:href="#arrowLeft" x="0" y="0" onmousedown="handlePan(-1,0)"/>
</g>
<svg viewBox="0 0 15 15" width="100%" height="30px" preserveAspectRatio="xMaxYMin meet">
 <g id="arrow_out" transform="scale(0.3 0.3)">
  <a xlink:href="a00073_org.svg" target="_base">
   <rect id="button" ry="5" rx="5" y="6" x="6" height="38" width="38"
        fill="#f2f5e9" fill-opacity="0.5" stroke="#606060" stroke-width="1.0"/>
   <path id="arrow"
     d="M 11.500037,31.436501 C 11.940474,20.09759 22.043105,11.32322 32.158766,21.979434 L 37.068811,17.246167 C 37.068811,17.246167 37.088388,32 37.088388,32 L 22.160133,31.978069 C 22.160133,31.978069 26.997745,27.140456 26.997745,27.140456 C 18.528582,18.264221 13.291696,25.230495 11.500037,31.436501 z"
     style="fill:#404040;"/>
  </a>
 </g>
</svg>

<style type='text/css'>
<![CDATA[
[data-mouse-over-selected='false'] { opacity: 0.7; }
[data-mouse-over-selected='true']  { opacity: 1.0; }
]]>
</style>
<script type="application/ecmascript"><![CDATA[
document.addEventListener('DOMContentLoaded', (event) => {
  highlightEdges();
  highlightAdjacentNodes();
});
]]></script>
</svg>
