<?xml version="1.0" encoding="UTF-8" standalone="no"?>
<!DOCTYPE svg PUBLIC "-//W3C//DTD SVG 1.1//EN"
 "http://www.w3.org/Graphics/SVG/1.1/DTD/svg11.dtd">
<!-- Generated by graphviz version 8.1.0 (20230707.0739)
 -->
<!-- Title: psfb_droop.X/mcc_generated_files/system/src/pins.c Pages: 1 -->
<svg width="173pt" height="152pt"
 viewBox="0.00 0.00 173.25 152.00" xmlns="http://www.w3.org/2000/svg" xmlns:xlink="http://www.w3.org/1999/xlink">
<g id="graph0" class="graph" transform="scale(1 1) rotate(0) translate(4 148)">
<title>psfb_droop.X/mcc_generated_files/system/src/pins.c</title>
<!-- Node1 -->
<g id="Node000001" class="node">
<title>Node1</title>
<g id="a_Node000001"><a xlink:title="This is the generated driver source file for PINS driver.">
<polygon fill="#999999" stroke="#666666" points="141.25,-144 0,-144 0,-112 141.25,-112 141.25,-144"/>
<text text-anchor="start" x="8" y="-130.5" font-family="Helvetica,sans-Serif" font-size="10.00">psfb_droop.X/mcc_generated</text>
<text text-anchor="middle" x="70.62" y="-118.5" font-family="Helvetica,sans-Serif" font-size="10.00">_files/system/src/pins.c</text>
</a>
</g>
</g>
<!-- Node2 -->
<g id="Node000002" class="node">
<title>Node2</title>
<g id="a_Node000002"><a xlink:title=" ">
<polygon fill="#e0e0e0" stroke="#999999" points="96,-20 61.25,-20 61.25,0 96,0 96,-20"/>
<text text-anchor="middle" x="78.62" y="-6.5" font-family="Helvetica,sans-Serif" font-size="10.00">xc.h</text>
</a>
</g>
</g>
<!-- Node1&#45;&gt;Node2 -->
<g id="edge1_Node000001_Node000002" class="edge">
<title>Node1&#45;&gt;Node2</title>
<g id="a_edge1_Node000001_Node000002"><a xlink:title=" ">
<path fill="none" stroke="#63b8ff" d="M55.3,-111.77C42.96,-97.58 28.86,-75.71 36.62,-56 40.93,-45.08 49.27,-35.25 57.4,-27.58"/>
<polygon fill="#63b8ff" stroke="#63b8ff" points="59.37,-29.63 64.6,-20.41 54.77,-24.35 59.37,-29.63"/>
</a>
</g>
</g>
<!-- Node3 -->
<g id="Node000003" class="node">
<title>Node3</title>
<g id="a_Node000003"><a xlink:title=" ">
<polygon fill="#e0e0e0" stroke="#999999" points="95.88,-76 45.38,-76 45.38,-56 95.88,-56 95.88,-76"/>
<text text-anchor="middle" x="70.62" y="-62.5" font-family="Helvetica,sans-Serif" font-size="10.00">stddef.h</text>
</a>
</g>
</g>
<!-- Node1&#45;&gt;Node3 -->
<g id="edge2_Node000001_Node000003" class="edge">
<title>Node1&#45;&gt;Node3</title>
<g id="a_edge2_Node000001_Node000003"><a xlink:title=" ">
<path fill="none" stroke="#63b8ff" d="M70.62,-111.55C70.62,-104.17 70.62,-95.24 70.62,-87.32"/>
<polygon fill="#63b8ff" stroke="#63b8ff" points="74.13,-87.41 70.62,-77.41 67.13,-87.41 74.13,-87.41"/>
</a>
</g>
</g>
<!-- Node4 -->
<g id="Node000004" class="node">
<title>Node4</title>
<g id="a_Node000004"><a xlink:href="a00146_source.html" target="_top" xlink:title=" ">
<polygon fill="white" stroke="#666666" points="165.25,-76 114,-76 114,-56 165.25,-56 165.25,-76"/>
<text text-anchor="middle" x="139.62" y="-62.5" font-family="Helvetica,sans-Serif" font-size="10.00">../pins.h</text>
</a>
</g>
</g>
<!-- Node1&#45;&gt;Node4 -->
<g id="edge3_Node000001_Node000004" class="edge">
<title>Node1&#45;&gt;Node4</title>
<g id="a_edge3_Node000001_Node000004"><a xlink:title=" ">
<path fill="none" stroke="#63b8ff" d="M88.39,-111.55C98.28,-102.95 110.58,-92.26 120.65,-83.5"/>
<polygon fill="#63b8ff" stroke="#63b8ff" points="122.56,-85.61 127.81,-76.41 117.96,-80.33 122.56,-85.61"/>
</a>
</g>
</g>
<!-- Node4&#45;&gt;Node2 -->
<g id="edge4_Node000004_Node000002" class="edge">
<title>Node4&#45;&gt;Node2</title>
<g id="a_edge4_Node000004_Node000002"><a xlink:title=" ">
<path fill="none" stroke="#63b8ff" d="M129,-55.59C120.25,-47.85 107.64,-36.69 97.23,-27.47"/>
<polygon fill="#63b8ff" stroke="#63b8ff" points="99.94,-25.31 90.13,-21.3 95.3,-30.55 99.94,-25.31"/>
</a>
</g>
</g>
</g>
</svg>
