<?xml version="1.0" encoding="UTF-8" standalone="no"?>
<!DOCTYPE svg PUBLIC "-//W3C//DTD SVG 1.1//EN"
 "http://www.w3.org/Graphics/SVG/1.1/DTD/svg11.dtd">
<!-- Generated by graphviz version 8.1.0 (20230707.0739)
 -->
<!-- Title: psfb_droop.X/mcc_generated_files/system/system_types.h Pages: 1 -->
<svg width="272pt" height="176pt"
 viewBox="0.00 0.00 271.50 176.00" xmlns="http://www.w3.org/2000/svg" xmlns:xlink="http://www.w3.org/1999/xlink">
<g id="graph0" class="graph" transform="scale(1 1) rotate(0) translate(4 172)">
<title>psfb_droop.X/mcc_generated_files/system/system_types.h</title>
<!-- Node1 -->
<g id="Node000001" class="node">
<title>Node1</title>
<g id="a_Node000001"><a xlink:title="This is the generated driver types header file for the System driver.">
<polygon fill="#999999" stroke="#666666" points="192.88,-168 46.38,-168 46.38,-136 192.88,-136 192.88,-168"/>
<text text-anchor="start" x="54.38" y="-154.5" font-family="Helvetica,sans-Serif" font-size="10.00">psfb_droop.X/mcc_generated</text>
<text text-anchor="middle" x="119.62" y="-142.5" font-family="Helvetica,sans-Serif" font-size="10.00">_files/system/system_types.h</text>
</a>
</g>
</g>
<!-- Node2 -->
<g id="Node000002" class="node">
<title>Node2</title>
<g id="a_Node000002"><a xlink:href="a00176.html" target="_top" xlink:title="This is the generated driver header file for the System driver.">
<polygon fill="white" stroke="#666666" points="141.25,-32 0,-32 0,0 141.25,0 141.25,-32"/>
<text text-anchor="start" x="8" y="-18.5" font-family="Helvetica,sans-Serif" font-size="10.00">psfb_droop.X/mcc_generated</text>
<text text-anchor="middle" x="70.62" y="-6.5" font-family="Helvetica,sans-Serif" font-size="10.00">_files/system/src/system.c</text>
</a>
</g>
</g>
<!-- Node1&#45;&gt;Node2 -->
<g id="edge1_Node000001_Node000002" class="edge">
<title>Node1&#45;&gt;Node2</title>
<g id="a_edge1_Node000001_Node000002"><a xlink:title=" ">
<path fill="none" stroke="#63b8ff" d="M103.05,-126.32C98.17,-118.2 93.19,-108.96 89.62,-100 80.61,-77.33 75.33,-49.41 72.7,-32.42"/>
<polygon fill="#63b8ff" stroke="#63b8ff" points="100.57,-127.95 108.85,-134.56 106.5,-124.23 100.57,-127.95"/>
</a>
</g>
</g>
<!-- Node3 -->
<g id="Node000003" class="node">
<title>Node3</title>
<g id="a_Node000003"><a xlink:href="a00182_source.html" target="_top" xlink:title=" ">
<polygon fill="white" stroke="#666666" points="240.25,-100 99,-100 99,-68 240.25,-68 240.25,-100"/>
<text text-anchor="start" x="107" y="-86.5" font-family="Helvetica,sans-Serif" font-size="10.00">psfb_droop.X/mcc_generated</text>
<text text-anchor="middle" x="169.62" y="-74.5" font-family="Helvetica,sans-Serif" font-size="10.00">_files/system/system.h</text>
</a>
</g>
</g>
<!-- Node1&#45;&gt;Node3 -->
<g id="edge2_Node000001_Node000003" class="edge">
<title>Node1&#45;&gt;Node3</title>
<g id="a_edge2_Node000001_Node000003"><a xlink:title=" ">
<path fill="none" stroke="#63b8ff" d="M137.69,-127.15C144.5,-118.17 152.04,-108.21 158.09,-100.22"/>
<polygon fill="#63b8ff" stroke="#63b8ff" points="134.47,-124.61 131.22,-134.69 140.05,-128.83 134.47,-124.61"/>
</a>
</g>
</g>
<!-- Node3&#45;&gt;Node2 -->
<g id="edge4_Node000003_Node000002" class="edge">
<title>Node3&#45;&gt;Node2</title>
<g id="a_edge4_Node000003_Node000002"><a xlink:title=" ">
<path fill="none" stroke="#63b8ff" d="M137.42,-61.53C123.15,-52.02 106.7,-41.05 93.69,-32.38"/>
<polygon fill="#63b8ff" stroke="#63b8ff" points="135.15,-64.89 145.41,-67.53 139.03,-59.07 135.15,-64.89"/>
</a>
</g>
</g>
<!-- Node4 -->
<g id="Node000004" class="node">
<title>Node4</title>
<g id="a_Node000004"><a xlink:href="a00056_source.html" target="_top" xlink:title=" ">
<polygon fill="white" stroke="#666666" points="263.5,-26 159.75,-26 159.75,-6 263.5,-6 263.5,-26"/>
<text text-anchor="middle" x="211.62" y="-12.5" font-family="Helvetica,sans-Serif" font-size="10.00">psfb_droop.X/main.c</text>
</a>
</g>
</g>
<!-- Node3&#45;&gt;Node4 -->
<g id="edge3_Node000003_Node000004" class="edge">
<title>Node3&#45;&gt;Node4</title>
<g id="a_edge3_Node000003_Node000004"><a xlink:title=" ">
<path fill="none" stroke="#63b8ff" d="M185.09,-58.7C192.26,-47.43 200.35,-34.71 205.7,-26.32"/>
<polygon fill="#63b8ff" stroke="#63b8ff" points="181.78,-56.38 179.37,-66.69 187.69,-60.13 181.78,-56.38"/>
</a>
</g>
</g>
</g>
</svg>
