<?xml version="1.0" encoding="UTF-8" standalone="no"?>
<!DOCTYPE svg PUBLIC "-//W3C//DTD SVG 1.1//EN"
 "http://www.w3.org/Graphics/SVG/1.1/DTD/svg11.dtd">
<!-- Generated by graphviz version 8.1.0 (20230707.0739)
 -->
<!-- Title: psfb_droop.X/mcc_generated_files/system/src/reset.c Pages: 1 -->
<svg width="238pt" height="152pt"
 viewBox="0.00 0.00 237.50 152.00" xmlns="http://www.w3.org/2000/svg" xmlns:xlink="http://www.w3.org/1999/xlink">
<g id="graph0" class="graph" transform="scale(1 1) rotate(0) translate(4 148)">
<title>psfb_droop.X/mcc_generated_files/system/src/reset.c</title>
<!-- Node1 -->
<g id="Node000001" class="node">
<title>Node1</title>
<g id="a_Node000001"><a xlink:title="This is the generated driver source file for RESET driver.">
<polygon fill="#999999" stroke="#666666" points="176.5,-144 35.25,-144 35.25,-112 176.5,-112 176.5,-144"/>
<text text-anchor="start" x="43.25" y="-130.5" font-family="Helvetica,sans-Serif" font-size="10.00">psfb_droop.X/mcc_generated</text>
<text text-anchor="middle" x="105.88" y="-118.5" font-family="Helvetica,sans-Serif" font-size="10.00">_files/system/src/reset.c</text>
</a>
</g>
</g>
<!-- Node2 -->
<g id="Node000002" class="node">
<title>Node2</title>
<g id="a_Node000002"><a xlink:title=" ">
<polygon fill="#e0e0e0" stroke="#999999" points="55.75,-76 0,-76 0,-56 55.75,-56 55.75,-76"/>
<text text-anchor="middle" x="27.88" y="-62.5" font-family="Helvetica,sans-Serif" font-size="10.00">stdbool.h</text>
</a>
</g>
</g>
<!-- Node1&#45;&gt;Node2 -->
<g id="edge1_Node000001_Node000002" class="edge">
<title>Node1&#45;&gt;Node2</title>
<g id="a_edge1_Node000001_Node000002"><a xlink:title=" ">
<path fill="none" stroke="#63b8ff" d="M85.79,-111.55C74.39,-102.78 60.15,-91.83 48.64,-82.97"/>
<polygon fill="#63b8ff" stroke="#63b8ff" points="51.17,-79.73 41.11,-76.41 46.9,-85.28 51.17,-79.73"/>
</a>
</g>
</g>
<!-- Node3 -->
<g id="Node000003" class="node">
<title>Node3</title>
<g id="a_Node000003"><a xlink:title=" ">
<polygon fill="#e0e0e0" stroke="#999999" points="122,-20 73.75,-20 73.75,0 122,0 122,-20"/>
<text text-anchor="middle" x="97.88" y="-6.5" font-family="Helvetica,sans-Serif" font-size="10.00">stdint.h</text>
</a>
</g>
</g>
<!-- Node1&#45;&gt;Node3 -->
<g id="edge2_Node000001_Node000003" class="edge">
<title>Node1&#45;&gt;Node3</title>
<g id="a_edge2_Node000001_Node000003"><a xlink:title=" ">
<path fill="none" stroke="#63b8ff" d="M104.83,-111.84C103.41,-91.22 100.86,-54.29 99.28,-31.31"/>
<polygon fill="#63b8ff" stroke="#63b8ff" points="102.71,-31.17 98.53,-21.44 95.72,-31.65 102.71,-31.17"/>
</a>
</g>
</g>
<!-- Node4 -->
<g id="Node000004" class="node">
<title>Node4</title>
<g id="a_Node000004"><a xlink:title=" ">
<polygon fill="#e0e0e0" stroke="#999999" points="146.25,-76 111.5,-76 111.5,-56 146.25,-56 146.25,-76"/>
<text text-anchor="middle" x="128.88" y="-62.5" font-family="Helvetica,sans-Serif" font-size="10.00">xc.h</text>
</a>
</g>
</g>
<!-- Node1&#45;&gt;Node4 -->
<g id="edge3_Node000001_Node000004" class="edge">
<title>Node1&#45;&gt;Node4</title>
<g id="a_edge3_Node000001_Node000004"><a xlink:title=" ">
<path fill="none" stroke="#63b8ff" d="M111.8,-111.55C114.73,-103.91 118.29,-94.61 121.4,-86.49"/>
<polygon fill="#63b8ff" stroke="#63b8ff" points="124.96,-88 125.27,-77.41 118.42,-85.49 124.96,-88"/>
</a>
</g>
</g>
<!-- Node5 -->
<g id="Node000005" class="node">
<title>Node5</title>
<g id="a_Node000005"><a xlink:href="a00149_source.html" target="_top" xlink:title=" ">
<polygon fill="white" stroke="#666666" points="219.38,-76 164.38,-76 164.38,-56 219.38,-56 219.38,-76"/>
<text text-anchor="middle" x="191.88" y="-62.5" font-family="Helvetica,sans-Serif" font-size="10.00">../reset.h</text>
</a>
</g>
</g>
<!-- Node1&#45;&gt;Node5 -->
<g id="edge4_Node000001_Node000005" class="edge">
<title>Node1&#45;&gt;Node5</title>
<g id="a_edge4_Node000001_Node000005"><a xlink:title=" ">
<path fill="none" stroke="#63b8ff" d="M128.02,-111.55C140.84,-102.61 156.91,-91.39 169.73,-82.45"/>
<polygon fill="#63b8ff" stroke="#63b8ff" points="171.19,-85 177.39,-76.41 167.19,-79.26 171.19,-85"/>
</a>
</g>
</g>
<!-- Node5&#45;&gt;Node3 -->
<g id="edge5_Node000005_Node000003" class="edge">
<title>Node5&#45;&gt;Node3</title>
<g id="a_edge5_Node000005_Node000003"><a xlink:title=" ">
<path fill="none" stroke="#63b8ff" d="M175.5,-55.59C161.17,-47.36 140.1,-35.26 123.53,-25.74"/>
<polygon fill="#63b8ff" stroke="#63b8ff" points="125.79,-22.43 115.38,-20.48 122.3,-28.5 125.79,-22.43"/>
</a>
</g>
</g>
<!-- Node6 -->
<g id="Node000006" class="node">
<title>Node6</title>
<g id="a_Node000006"><a xlink:href="a00152.html" target="_top" xlink:title="This is the generated driver types header file for the RESET driver.">
<polygon fill="white" stroke="#666666" points="229.5,-20 154.25,-20 154.25,0 229.5,0 229.5,-20"/>
<text text-anchor="middle" x="191.88" y="-6.5" font-family="Helvetica,sans-Serif" font-size="10.00">reset_types.h</text>
</a>
</g>
</g>
<!-- Node5&#45;&gt;Node6 -->
<g id="edge6_Node000005_Node000006" class="edge">
<title>Node5&#45;&gt;Node6</title>
<g id="a_edge6_Node000005_Node000006"><a xlink:title=" ">
<path fill="none" stroke="#63b8ff" d="M191.88,-55.59C191.88,-48.86 191.88,-39.53 191.88,-31.15"/>
<polygon fill="#63b8ff" stroke="#63b8ff" points="195.38,-31.3 191.88,-21.3 188.38,-31.3 195.38,-31.3"/>
</a>
</g>
</g>
</g>
</svg>
