<?xml version="1.0" encoding="UTF-8" standalone="no"?>
<!DOCTYPE svg PUBLIC "-//W3C//DTD SVG 1.1//EN"
 "http://www.w3.org/Graphics/SVG/1.1/DTD/svg11.dtd">
<!-- Generated by graphviz version 8.1.0 (20230707.0739)
 -->
<!-- Title: psfb_droop.X/mcc_generated_files/pwm_hs/pwm_hs_types.h Pages: 1 -->
<svg width="1148pt" height="256pt"
 viewBox="0.00 0.00 1148.38 256.00" xmlns="http://www.w3.org/2000/svg" xmlns:xlink="http://www.w3.org/1999/xlink">
<g id="graph0" class="graph" transform="scale(1 1) rotate(0) translate(4 252)">
<title>psfb_droop.X/mcc_generated_files/pwm_hs/pwm_hs_types.h</title>
<!-- Node1 -->
<g id="Node000001" class="node">
<title>Node1</title>
<g id="a_Node000001"><a xlink:title="This is the generated driver types header file for the PWM driver.">
<polygon fill="#999999" stroke="#666666" points="876.88,-248 722.88,-248 722.88,-216 876.88,-216 876.88,-248"/>
<text text-anchor="start" x="730.88" y="-234.5" font-family="Helvetica,sans-Serif" font-size="10.00">psfb_droop.X/mcc_generated</text>
<text text-anchor="middle" x="799.88" y="-222.5" font-family="Helvetica,sans-Serif" font-size="10.00">_files/pwm_hs/pwm_hs_types.h</text>
</a>
</g>
</g>
<!-- Node2 -->
<g id="Node000002" class="node">
<title>Node2</title>
<g id="a_Node000002"><a xlink:href="a00119.html" target="_top" xlink:title="This is the generated driver header file for the PWM driver.">
<polygon fill="white" stroke="#666666" points="759.5,-112 618.25,-112 618.25,-80 759.5,-80 759.5,-112"/>
<text text-anchor="start" x="626.25" y="-98.5" font-family="Helvetica,sans-Serif" font-size="10.00">psfb_droop.X/mcc_generated</text>
<text text-anchor="middle" x="688.88" y="-86.5" font-family="Helvetica,sans-Serif" font-size="10.00">_files/pwm_hs/pwm.h</text>
</a>
</g>
</g>
<!-- Node1&#45;&gt;Node2 -->
<g id="edge1_Node000001_Node000002" class="edge">
<title>Node1&#45;&gt;Node2</title>
<g id="a_edge1_Node000001_Node000002"><a xlink:title=" ">
<path fill="none" stroke="#63b8ff" d="M745.76,-210.68C731.6,-203.01 717.6,-192.93 707.88,-180 692.86,-160.03 689.39,-130.26 688.76,-112.32"/>
<polygon fill="#63b8ff" stroke="#63b8ff" points="744.04,-214.23 754.54,-215.6 747.19,-207.98 744.04,-214.23"/>
</a>
</g>
</g>
<!-- Node9 -->
<g id="Node000009" class="node">
<title>Node9</title>
<g id="a_Node000009"><a xlink:href="a00380.html" target="_top" xlink:title="Contains power control initialization including control loop initialization and start&#45;up initializati...">
<polygon fill="white" stroke="#666666" points="1140.38,-38 1031.38,-38 1031.38,-6 1140.38,-6 1140.38,-38"/>
<text text-anchor="start" x="1039.38" y="-24.5" font-family="Helvetica,sans-Serif" font-size="10.00">psfb_droop.X/sources</text>
<text text-anchor="middle" x="1085.88" y="-12.5" font-family="Helvetica,sans-Serif" font-size="10.00">/pwrctrl/pwrctrl.c</text>
</a>
</g>
</g>
<!-- Node1&#45;&gt;Node9 -->
<g id="edge12_Node000001_Node000009" class="edge">
<title>Node1&#45;&gt;Node9</title>
<g id="a_edge12_Node000001_Node000009"><a xlink:title=" ">
<path fill="none" stroke="#63b8ff" d="M840.25,-210.59C856.65,-201.79 875.55,-191.01 891.88,-180 961.21,-133.25 1036.26,-67.75 1069.01,-38.35"/>
<polygon fill="#63b8ff" stroke="#63b8ff" points="839.12,-207.75 831.91,-215.52 842.39,-213.94 839.12,-207.75"/>
</a>
</g>
</g>
<!-- Node11 -->
<g id="Node000011" class="node">
<title>Node11</title>
<g id="a_Node000011"><a xlink:href="a00125_source.html" target="_top" xlink:title=" ">
<polygon fill="white" stroke="#666666" points="883.25,-180 716.5,-180 716.5,-148 883.25,-148 883.25,-180"/>
<text text-anchor="start" x="724.5" y="-166.5" font-family="Helvetica,sans-Serif" font-size="10.00">psfb_droop.X/mcc_generated</text>
<text text-anchor="middle" x="799.88" y="-154.5" font-family="Helvetica,sans-Serif" font-size="10.00">_files/pwm_hs/pwm_hs_interface.h</text>
</a>
</g>
</g>
<!-- Node1&#45;&gt;Node11 -->
<g id="edge10_Node000001_Node000011" class="edge">
<title>Node1&#45;&gt;Node11</title>
<g id="a_edge10_Node000001_Node000011"><a xlink:title=" ">
<path fill="none" stroke="#63b8ff" d="M799.88,-204.89C799.88,-196.52 799.88,-187.54 799.88,-180.22"/>
<polygon fill="#63b8ff" stroke="#63b8ff" points="796.38,-204.69 799.88,-214.69 803.38,-204.69 796.38,-204.69"/>
</a>
</g>
</g>
<!-- Node3 -->
<g id="Node000003" class="node">
<title>Node3</title>
<g id="a_Node000003"><a xlink:href="a00056_source.html" target="_top" xlink:title=" ">
<polygon fill="white" stroke="#666666" points="103.75,-32 0,-32 0,-12 103.75,-12 103.75,-32"/>
<text text-anchor="middle" x="51.88" y="-18.5" font-family="Helvetica,sans-Serif" font-size="10.00">psfb_droop.X/main.c</text>
</a>
</g>
</g>
<!-- Node2&#45;&gt;Node3 -->
<g id="edge2_Node000002_Node000003" class="edge">
<title>Node2&#45;&gt;Node3</title>
<g id="a_edge2_Node000002_Node000003"><a xlink:title=" ">
<path fill="none" stroke="#63b8ff" d="M607.09,-93.99C494.59,-91.19 286.29,-80.95 112.88,-44 100.06,-41.27 86.22,-36.65 74.96,-32.43"/>
<polygon fill="#63b8ff" stroke="#63b8ff" points="606.93,-97.51 617.01,-94.24 607.1,-90.51 606.93,-97.51"/>
</a>
</g>
</g>
<!-- Node4 -->
<g id="Node000004" class="node">
<title>Node4</title>
<g id="a_Node000004"><a xlink:href="a00131.html" target="_top" xlink:title="This is the generated driver source file for PWM driver.">
<polygon fill="white" stroke="#666666" points="263.5,-38 122.25,-38 122.25,-6 263.5,-6 263.5,-38"/>
<text text-anchor="start" x="130.25" y="-24.5" font-family="Helvetica,sans-Serif" font-size="10.00">psfb_droop.X/mcc_generated</text>
<text text-anchor="middle" x="192.88" y="-12.5" font-family="Helvetica,sans-Serif" font-size="10.00">_files/pwm_hs/src/pwm.c</text>
</a>
</g>
</g>
<!-- Node2&#45;&gt;Node4 -->
<g id="edge3_Node000002_Node000004" class="edge">
<title>Node2&#45;&gt;Node4</title>
<g id="a_edge3_Node000002_Node000004"><a xlink:title=" ">
<path fill="none" stroke="#63b8ff" d="M607.14,-88.37C522.69,-80.73 387.3,-66.29 271.88,-44 263.79,-42.44 255.32,-40.51 247.04,-38.45"/>
<polygon fill="#63b8ff" stroke="#63b8ff" points="606.68,-91.93 616.95,-89.33 607.3,-84.96 606.68,-91.93"/>
</a>
</g>
</g>
<!-- Node5 -->
<g id="Node000005" class="node">
<title>Node5</title>
<g id="a_Node000005"><a xlink:href="a00176.html" target="_top" xlink:title="This is the generated driver header file for the System driver.">
<polygon fill="white" stroke="#666666" points="422.5,-38 281.25,-38 281.25,-6 422.5,-6 422.5,-38"/>
<text text-anchor="start" x="289.25" y="-24.5" font-family="Helvetica,sans-Serif" font-size="10.00">psfb_droop.X/mcc_generated</text>
<text text-anchor="middle" x="351.88" y="-12.5" font-family="Helvetica,sans-Serif" font-size="10.00">_files/system/src/system.c</text>
</a>
</g>
</g>
<!-- Node2&#45;&gt;Node5 -->
<g id="edge4_Node000002_Node000005" class="edge">
<title>Node2&#45;&gt;Node5</title>
<g id="a_edge4_Node000002_Node000005"><a xlink:title=" ">
<path fill="none" stroke="#63b8ff" d="M607.43,-80.15C556.76,-70.58 490.33,-57.46 431.88,-44 424.46,-42.29 416.68,-40.39 409.02,-38.45"/>
<polygon fill="#63b8ff" stroke="#63b8ff" points="606.52,-83.73 617,-82.14 607.82,-76.85 606.52,-83.73"/>
</a>
</g>
</g>
<!-- Node6 -->
<g id="Node000006" class="node">
<title>Node6</title>
<g id="a_Node000006"><a xlink:href="a00233_source.html" target="_top" xlink:title=" ">
<polygon fill="white" stroke="#666666" points="604.75,-38 441,-38 441,-6 604.75,-6 604.75,-38"/>
<text text-anchor="start" x="449" y="-24.5" font-family="Helvetica,sans-Serif" font-size="10.00">psfb_droop.X/sources</text>
<text text-anchor="middle" x="522.88" y="-12.5" font-family="Helvetica,sans-Serif" font-size="10.00">/app/app_PBV_psfb_frame_map.c</text>
</a>
</g>
</g>
<!-- Node2&#45;&gt;Node6 -->
<g id="edge5_Node000002_Node000006" class="edge">
<title>Node2&#45;&gt;Node6</title>
<g id="a_edge5_Node000002_Node000006"><a xlink:title=" ">
<path fill="none" stroke="#63b8ff" d="M643.36,-75.26C616.6,-63.65 583.25,-49.19 558.43,-38.42"/>
<polygon fill="#63b8ff" stroke="#63b8ff" points="641.7,-78.79 652.26,-79.55 644.48,-72.36 641.7,-78.79"/>
</a>
</g>
</g>
<!-- Node7 -->
<g id="Node000007" class="node">
<title>Node7</title>
<g id="a_Node000007"><a xlink:href="a00281.html" target="_top" xlink:title="Contains PWM initialization that was not supported by MCC generated code.">
<polygon fill="white" stroke="#666666" points="755.38,-44 622.38,-44 622.38,0 755.38,0 755.38,-44"/>
<text text-anchor="start" x="630.38" y="-30.5" font-family="Helvetica,sans-Serif" font-size="10.00">psfb_droop.X/sources</text>
<text text-anchor="start" x="630.38" y="-18.5" font-family="Helvetica,sans-Serif" font-size="10.00">/driver/mcc_extension</text>
<text text-anchor="middle" x="688.88" y="-6.5" font-family="Helvetica,sans-Serif" font-size="10.00">/drv_custom_config_pwm.h</text>
</a>
</g>
</g>
<!-- Node2&#45;&gt;Node7 -->
<g id="edge6_Node000002_Node000007" class="edge">
<title>Node2&#45;&gt;Node7</title>
<g id="a_edge6_Node000002_Node000007"><a xlink:title=" ">
<path fill="none" stroke="#63b8ff" d="M688.88,-68.94C688.88,-60.84 688.88,-52 688.88,-44.26"/>
<polygon fill="#63b8ff" stroke="#63b8ff" points="685.38,-68.73 688.88,-78.73 692.38,-68.73 685.38,-68.73"/>
</a>
</g>
</g>
<!-- Node8 -->
<g id="Node000008" class="node">
<title>Node8</title>
<g id="a_Node000008"><a xlink:href="a00299.html" target="_top" xlink:title="Contains fault functions including the fault handler, fault object initialization and fault execution...">
<polygon fill="white" stroke="#666666" points="882.38,-38 773.38,-38 773.38,-6 882.38,-6 882.38,-38"/>
<text text-anchor="start" x="781.38" y="-24.5" font-family="Helvetica,sans-Serif" font-size="10.00">psfb_droop.X/sources</text>
<text text-anchor="middle" x="827.88" y="-12.5" font-family="Helvetica,sans-Serif" font-size="10.00">/fault/fault.c</text>
</a>
</g>
</g>
<!-- Node2&#45;&gt;Node8 -->
<g id="edge7_Node000002_Node000008" class="edge">
<title>Node2&#45;&gt;Node8</title>
<g id="a_edge7_Node000002_Node000008"><a xlink:title=" ">
<path fill="none" stroke="#63b8ff" d="M728.18,-74.64C750.38,-63.14 777.69,-49 798.11,-38.42"/>
<polygon fill="#63b8ff" stroke="#63b8ff" points="726.96,-71.85 719.69,-79.55 730.18,-78.06 726.96,-71.85"/>
</a>
</g>
</g>
<!-- Node2&#45;&gt;Node9 -->
<g id="edge8_Node000002_Node000009" class="edge">
<title>Node2&#45;&gt;Node9</title>
<g id="a_edge8_Node000002_Node000009"><a xlink:title=" ">
<path fill="none" stroke="#63b8ff" d="M770.31,-86.34C838.18,-78.21 937.1,-64.25 1021.88,-44 1028.47,-42.42 1035.36,-40.48 1042.08,-38.43"/>
<polygon fill="#63b8ff" stroke="#63b8ff" points="770.21,-82.94 760.69,-87.59 771.03,-89.89 770.21,-82.94"/>
</a>
</g>
</g>
<!-- Node10 -->
<g id="Node000010" class="node">
<title>Node10</title>
<g id="a_Node000010"><a xlink:href="a00407.html" target="_top" xlink:title="Contains PSFB control phase calculation between primary and secondary, and the PWM distribution.">
<polygon fill="white" stroke="#666666" points="1013.25,-38 900.5,-38 900.5,-6 1013.25,-6 1013.25,-38"/>
<text text-anchor="start" x="908.5" y="-24.5" font-family="Helvetica,sans-Serif" font-size="10.00">psfb_droop.X/sources</text>
<text text-anchor="middle" x="956.88" y="-12.5" font-family="Helvetica,sans-Serif" font-size="10.00">/pwrctrl/pwrctrl_pwm.c</text>
</a>
</g>
</g>
<!-- Node2&#45;&gt;Node10 -->
<g id="edge9_Node000002_Node000010" class="edge">
<title>Node2&#45;&gt;Node10</title>
<g id="a_edge9_Node000002_Node000010"><a xlink:title=" ">
<path fill="none" stroke="#63b8ff" d="M765.51,-77.02C803.66,-67.75 850.37,-55.9 891.88,-44 897.92,-42.27 904.24,-40.35 910.48,-38.4"/>
<polygon fill="#63b8ff" stroke="#63b8ff" points="764.89,-73.81 756,-79.56 766.54,-80.61 764.89,-73.81"/>
</a>
</g>
</g>
<!-- Node11&#45;&gt;Node2 -->
<g id="edge11_Node000011_Node000002" class="edge">
<title>Node11&#45;&gt;Node2</title>
<g id="a_edge11_Node000011_Node000002"><a xlink:title=" ">
<path fill="none" stroke="#63b8ff" d="M764.67,-142.07C748.47,-132.44 729.6,-121.21 714.74,-112.38"/>
<polygon fill="#63b8ff" stroke="#63b8ff" points="762.47,-145.42 772.85,-147.53 766.04,-139.41 762.47,-145.42"/>
</a>
</g>
</g>
</g>
</svg>
