<?xml version="1.0" encoding="UTF-8" standalone="no"?>
<!DOCTYPE svg PUBLIC "-//W3C//DTD SVG 1.1//EN"
 "http://www.w3.org/Graphics/SVG/1.1/DTD/svg11.dtd">
<!-- Generated by graphviz version 8.1.0 (20230707.0739)
 -->
<!-- Title: psfb_droop.X/mcc_generated_files/system/src/traps.c Pages: 1 -->
<svg width="149pt" height="152pt"
 viewBox="0.00 0.00 149.25 152.00" xmlns="http://www.w3.org/2000/svg" xmlns:xlink="http://www.w3.org/1999/xlink">
<g id="graph0" class="graph" transform="scale(1 1) rotate(0) translate(4 148)">
<title>psfb_droop.X/mcc_generated_files/system/src/traps.c</title>
<!-- Node1 -->
<g id="Node000001" class="node">
<title>Node1</title>
<g id="a_Node000001"><a xlink:title="This is the generated driver source file for TRAPS driver.">
<polygon fill="#999999" stroke="#666666" points="141.25,-144 0,-144 0,-112 141.25,-112 141.25,-144"/>
<text text-anchor="start" x="8" y="-130.5" font-family="Helvetica,sans-Serif" font-size="10.00">psfb_droop.X/mcc_generated</text>
<text text-anchor="middle" x="70.62" y="-118.5" font-family="Helvetica,sans-Serif" font-size="10.00">_files/system/src/traps.c</text>
</a>
</g>
</g>
<!-- Node2 -->
<g id="Node000002" class="node">
<title>Node2</title>
<g id="a_Node000002"><a xlink:title=" ">
<polygon fill="#e0e0e0" stroke="#999999" points="57,-76 22.25,-76 22.25,-56 57,-56 57,-76"/>
<text text-anchor="middle" x="39.62" y="-62.5" font-family="Helvetica,sans-Serif" font-size="10.00">xc.h</text>
</a>
</g>
</g>
<!-- Node1&#45;&gt;Node2 -->
<g id="edge1_Node000001_Node000002" class="edge">
<title>Node1&#45;&gt;Node2</title>
<g id="a_edge1_Node000001_Node000002"><a xlink:title=" ">
<path fill="none" stroke="#63b8ff" d="M62.64,-111.55C58.61,-103.74 53.67,-94.19 49.41,-85.94"/>
<polygon fill="#63b8ff" stroke="#63b8ff" points="52.19,-84.69 44.49,-77.41 45.97,-87.9 52.19,-84.69"/>
</a>
</g>
</g>
<!-- Node3 -->
<g id="Node000003" class="node">
<title>Node3</title>
<g id="a_Node000003"><a xlink:href="a00188_source.html" target="_top" xlink:title=" ">
<polygon fill="white" stroke="#666666" points="130.12,-76 75.12,-76 75.12,-56 130.12,-56 130.12,-76"/>
<text text-anchor="middle" x="102.62" y="-62.5" font-family="Helvetica,sans-Serif" font-size="10.00">../traps.h</text>
</a>
</g>
</g>
<!-- Node1&#45;&gt;Node3 -->
<g id="edge2_Node000001_Node000003" class="edge">
<title>Node1&#45;&gt;Node3</title>
<g id="a_edge2_Node000001_Node000003"><a xlink:title=" ">
<path fill="none" stroke="#63b8ff" d="M78.87,-111.55C83.03,-103.74 88.13,-94.19 92.53,-85.94"/>
<polygon fill="#63b8ff" stroke="#63b8ff" points="95.99,-87.88 97.61,-77.41 89.81,-84.58 95.99,-87.88"/>
</a>
</g>
</g>
<!-- Node4 -->
<g id="Node000004" class="node">
<title>Node4</title>
<g id="a_Node000004"><a xlink:title=" ">
<polygon fill="#e0e0e0" stroke="#999999" points="126.75,-20 78.5,-20 78.5,0 126.75,0 126.75,-20"/>
<text text-anchor="middle" x="102.62" y="-6.5" font-family="Helvetica,sans-Serif" font-size="10.00">stdint.h</text>
</a>
</g>
</g>
<!-- Node3&#45;&gt;Node4 -->
<g id="edge3_Node000003_Node000004" class="edge">
<title>Node3&#45;&gt;Node4</title>
<g id="a_edge3_Node000003_Node000004"><a xlink:title=" ">
<path fill="none" stroke="#63b8ff" d="M102.62,-55.59C102.62,-48.86 102.62,-39.53 102.62,-31.15"/>
<polygon fill="#63b8ff" stroke="#63b8ff" points="106.13,-31.3 102.62,-21.3 99.13,-31.3 106.13,-31.3"/>
</a>
</g>
</g>
</g>
</svg>
