<?xml version="1.0" encoding="UTF-8" standalone="no"?>
<!DOCTYPE svg PUBLIC "-//W3C//DTD SVG 1.1//EN"
 "http://www.w3.org/Graphics/SVG/1.1/DTD/svg11.dtd">
<!-- Generated by graphviz version 8.1.0 (20230707.0739)
 -->
<!-- Title: psfb_droop.X/mcc_generated_files/pwm_hs/pwm.h Pages: 1 -->
<svg width="1148pt" height="120pt"
 viewBox="0.00 0.00 1148.25 120.00" xmlns="http://www.w3.org/2000/svg" xmlns:xlink="http://www.w3.org/1999/xlink">
<g id="graph0" class="graph" transform="scale(1 1) rotate(0) translate(4 116)">
<title>psfb_droop.X/mcc_generated_files/pwm_hs/pwm.h</title>
<!-- Node1 -->
<g id="Node000001" class="node">
<title>Node1</title>
<g id="a_Node000001"><a xlink:title="This is the generated driver header file for the PWM driver.">
<polygon fill="#999999" stroke="#666666" points="676.5,-112 535.25,-112 535.25,-80 676.5,-80 676.5,-112"/>
<text text-anchor="start" x="543.25" y="-98.5" font-family="Helvetica,sans-Serif" font-size="10.00">psfb_droop.X/mcc_generated</text>
<text text-anchor="middle" x="605.88" y="-86.5" font-family="Helvetica,sans-Serif" font-size="10.00">_files/pwm_hs/pwm.h</text>
</a>
</g>
</g>
<!-- Node2 -->
<g id="Node000002" class="node">
<title>Node2</title>
<g id="a_Node000002"><a xlink:href="a00056_source.html" target="_top" xlink:title=" ">
<polygon fill="white" stroke="#666666" points="103.75,-32 0,-32 0,-12 103.75,-12 103.75,-32"/>
<text text-anchor="middle" x="51.88" y="-18.5" font-family="Helvetica,sans-Serif" font-size="10.00">psfb_droop.X/main.c</text>
</a>
</g>
</g>
<!-- Node1&#45;&gt;Node2 -->
<g id="edge1_Node000001_Node000002" class="edge">
<title>Node1&#45;&gt;Node2</title>
<g id="a_edge1_Node000001_Node000002"><a xlink:title=" ">
<path fill="none" stroke="#63b8ff" d="M524.08,-92.25C425.53,-87.63 255.41,-75.47 112.88,-44 100.19,-41.2 86.47,-36.62 75.27,-32.46"/>
<polygon fill="#63b8ff" stroke="#63b8ff" points="523.71,-95.78 533.86,-92.74 524.02,-88.79 523.71,-95.78"/>
</a>
</g>
</g>
<!-- Node3 -->
<g id="Node000003" class="node">
<title>Node3</title>
<g id="a_Node000003"><a xlink:href="a00131.html" target="_top" xlink:title="This is the generated driver source file for PWM driver.">
<polygon fill="white" stroke="#666666" points="263.5,-38 122.25,-38 122.25,-6 263.5,-6 263.5,-38"/>
<text text-anchor="start" x="130.25" y="-24.5" font-family="Helvetica,sans-Serif" font-size="10.00">psfb_droop.X/mcc_generated</text>
<text text-anchor="middle" x="192.88" y="-12.5" font-family="Helvetica,sans-Serif" font-size="10.00">_files/pwm_hs/src/pwm.c</text>
</a>
</g>
</g>
<!-- Node1&#45;&gt;Node3 -->
<g id="edge2_Node000001_Node000003" class="edge">
<title>Node1&#45;&gt;Node3</title>
<g id="a_edge2_Node000001_Node000003"><a xlink:title=" ">
<path fill="none" stroke="#63b8ff" d="M524.16,-85.04C456.26,-76.16 357.31,-61.82 271.88,-44 264.1,-42.38 255.94,-40.46 247.94,-38.45"/>
<polygon fill="#63b8ff" stroke="#63b8ff" points="523.41,-88.6 533.78,-86.41 524.31,-81.66 523.41,-88.6"/>
</a>
</g>
</g>
<!-- Node4 -->
<g id="Node000004" class="node">
<title>Node4</title>
<g id="a_Node000004"><a xlink:href="a00176.html" target="_top" xlink:title="This is the generated driver header file for the System driver.">
<polygon fill="white" stroke="#666666" points="422.5,-38 281.25,-38 281.25,-6 422.5,-6 422.5,-38"/>
<text text-anchor="start" x="289.25" y="-24.5" font-family="Helvetica,sans-Serif" font-size="10.00">psfb_droop.X/mcc_generated</text>
<text text-anchor="middle" x="351.88" y="-12.5" font-family="Helvetica,sans-Serif" font-size="10.00">_files/system/src/system.c</text>
</a>
</g>
</g>
<!-- Node1&#45;&gt;Node4 -->
<g id="edge3_Node000001_Node000004" class="edge">
<title>Node1&#45;&gt;Node4</title>
<g id="a_edge3_Node000001_Node000004"><a xlink:title=" ">
<path fill="none" stroke="#63b8ff" d="M541.05,-76.63C499.35,-64.8 445.76,-49.61 406.27,-38.42"/>
<polygon fill="#63b8ff" stroke="#63b8ff" points="539.81,-80.19 550.39,-79.55 541.72,-73.46 539.81,-80.19"/>
</a>
</g>
</g>
<!-- Node5 -->
<g id="Node000005" class="node">
<title>Node5</title>
<g id="a_Node000005"><a xlink:href="a00233_source.html" target="_top" xlink:title=" ">
<polygon fill="white" stroke="#666666" points="604.75,-38 441,-38 441,-6 604.75,-6 604.75,-38"/>
<text text-anchor="start" x="449" y="-24.5" font-family="Helvetica,sans-Serif" font-size="10.00">psfb_droop.X/sources</text>
<text text-anchor="middle" x="522.88" y="-12.5" font-family="Helvetica,sans-Serif" font-size="10.00">/app/app_PBV_psfb_frame_map.c</text>
</a>
</g>
</g>
<!-- Node1&#45;&gt;Node5 -->
<g id="edge4_Node000001_Node000005" class="edge">
<title>Node1&#45;&gt;Node5</title>
<g id="a_edge4_Node000001_Node000005"><a xlink:title=" ">
<path fill="none" stroke="#63b8ff" d="M580.26,-72.78C567.45,-61.67 552.27,-48.5 540.74,-38.5"/>
<polygon fill="#63b8ff" stroke="#63b8ff" points="577.43,-75.82 587.27,-79.73 582.01,-70.53 577.43,-75.82"/>
</a>
</g>
</g>
<!-- Node6 -->
<g id="Node000006" class="node">
<title>Node6</title>
<g id="a_Node000006"><a xlink:href="a00281.html" target="_top" xlink:title="Contains PWM initialization that was not supported by MCC generated code.">
<polygon fill="white" stroke="#666666" points="755.38,-44 622.38,-44 622.38,0 755.38,0 755.38,-44"/>
<text text-anchor="start" x="630.38" y="-30.5" font-family="Helvetica,sans-Serif" font-size="10.00">psfb_droop.X/sources</text>
<text text-anchor="start" x="630.38" y="-18.5" font-family="Helvetica,sans-Serif" font-size="10.00">/driver/mcc_extension</text>
<text text-anchor="middle" x="688.88" y="-6.5" font-family="Helvetica,sans-Serif" font-size="10.00">/drv_custom_config_pwm.h</text>
</a>
</g>
</g>
<!-- Node1&#45;&gt;Node6 -->
<g id="edge5_Node000001_Node000006" class="edge">
<title>Node1&#45;&gt;Node6</title>
<g id="a_edge5_Node000001_Node000006"><a xlink:title=" ">
<path fill="none" stroke="#63b8ff" d="M631.78,-72.52C642.19,-63.5 654.12,-53.15 664.37,-44.26"/>
<polygon fill="#63b8ff" stroke="#63b8ff" points="629.74,-70.53 624.48,-79.73 634.32,-75.82 629.74,-70.53"/>
</a>
</g>
</g>
<!-- Node7 -->
<g id="Node000007" class="node">
<title>Node7</title>
<g id="a_Node000007"><a xlink:href="a00299.html" target="_top" xlink:title="Contains fault functions including the fault handler, fault object initialization and fault execution...">
<polygon fill="white" stroke="#666666" points="882.38,-38 773.38,-38 773.38,-6 882.38,-6 882.38,-38"/>
<text text-anchor="start" x="781.38" y="-24.5" font-family="Helvetica,sans-Serif" font-size="10.00">psfb_droop.X/sources</text>
<text text-anchor="middle" x="827.88" y="-12.5" font-family="Helvetica,sans-Serif" font-size="10.00">/fault/fault.c</text>
</a>
</g>
</g>
<!-- Node1&#45;&gt;Node7 -->
<g id="edge6_Node000001_Node000007" class="edge">
<title>Node1&#45;&gt;Node7</title>
<g id="a_edge6_Node000001_Node000007"><a xlink:title=" ">
<path fill="none" stroke="#63b8ff" d="M664.92,-76.24C694.89,-66.67 731.85,-54.8 764.88,-44 770.35,-42.21 776.1,-40.32 781.79,-38.43"/>
<polygon fill="#63b8ff" stroke="#63b8ff" points="664.1,-73.14 655.63,-79.52 666.22,-79.81 664.1,-73.14"/>
</a>
</g>
</g>
<!-- Node8 -->
<g id="Node000008" class="node">
<title>Node8</title>
<g id="a_Node000008"><a xlink:href="a00380.html" target="_top" xlink:title="Contains power control initialization including control loop initialization and start&#45;up initializati...">
<polygon fill="white" stroke="#666666" points="1009.38,-38 900.38,-38 900.38,-6 1009.38,-6 1009.38,-38"/>
<text text-anchor="start" x="908.38" y="-24.5" font-family="Helvetica,sans-Serif" font-size="10.00">psfb_droop.X/sources</text>
<text text-anchor="middle" x="954.88" y="-12.5" font-family="Helvetica,sans-Serif" font-size="10.00">/pwrctrl/pwrctrl.c</text>
</a>
</g>
</g>
<!-- Node1&#45;&gt;Node8 -->
<g id="edge7_Node000001_Node000008" class="edge">
<title>Node1&#45;&gt;Node8</title>
<g id="a_edge7_Node000001_Node000008"><a xlink:title=" ">
<path fill="none" stroke="#63b8ff" d="M687.57,-83.66C745.15,-74.89 823.8,-61.32 891.88,-44 898.24,-42.38 904.9,-40.44 911.4,-38.4"/>
<polygon fill="#63b8ff" stroke="#63b8ff" points="687.08,-80.35 677.71,-85.3 688.12,-87.27 687.08,-80.35"/>
</a>
</g>
</g>
<!-- Node9 -->
<g id="Node000009" class="node">
<title>Node9</title>
<g id="a_Node000009"><a xlink:href="a00407.html" target="_top" xlink:title="Contains PSFB control phase calculation between primary and secondary, and the PWM distribution.">
<polygon fill="white" stroke="#666666" points="1140.25,-38 1027.5,-38 1027.5,-6 1140.25,-6 1140.25,-38"/>
<text text-anchor="start" x="1035.5" y="-24.5" font-family="Helvetica,sans-Serif" font-size="10.00">psfb_droop.X/sources</text>
<text text-anchor="middle" x="1083.88" y="-12.5" font-family="Helvetica,sans-Serif" font-size="10.00">/pwrctrl/pwrctrl_pwm.c</text>
</a>
</g>
</g>
<!-- Node1&#45;&gt;Node9 -->
<g id="edge8_Node000001_Node000009" class="edge">
<title>Node1&#45;&gt;Node9</title>
<g id="a_edge8_Node000001_Node000009"><a xlink:title=" ">
<path fill="none" stroke="#63b8ff" d="M687.45,-89.51C771.32,-82.81 905.34,-69.11 1018.88,-44 1025.71,-42.49 1032.84,-40.56 1039.78,-38.48"/>
<polygon fill="#63b8ff" stroke="#63b8ff" points="687.41,-86.08 677.72,-90.36 687.96,-93.06 687.41,-86.08"/>
</a>
</g>
</g>
</g>
</svg>
