<?xml version="1.0" encoding="UTF-8" standalone="no"?>
<!DOCTYPE svg PUBLIC "-//W3C//DTD SVG 1.1//EN"
 "http://www.w3.org/Graphics/SVG/1.1/DTD/svg11.dtd">
<!-- Generated by graphviz version 8.1.0 (20230707.0739)
 -->
<!-- Title: psfb_droop.X/mcc_generated_files/crc/crc_types.h Pages: 1 -->
<svg width="445pt" height="244pt"
 viewBox="0.00 0.00 444.62 244.00" xmlns="http://www.w3.org/2000/svg" xmlns:xlink="http://www.w3.org/1999/xlink">
<g id="graph0" class="graph" transform="scale(1 1) rotate(0) translate(4 240)">
<title>psfb_droop.X/mcc_generated_files/crc/crc_types.h</title>
<!-- Node1 -->
<g id="Node000001" class="node">
<title>Node1</title>
<g id="a_Node000001"><a xlink:title="This is the generated driver types header file for the CRC driver.">
<polygon fill="#999999" stroke="#666666" points="300.25,-236 159,-236 159,-204 300.25,-204 300.25,-236"/>
<text text-anchor="start" x="167" y="-222.5" font-family="Helvetica,sans-Serif" font-size="10.00">psfb_droop.X/mcc_generated</text>
<text text-anchor="middle" x="229.62" y="-210.5" font-family="Helvetica,sans-Serif" font-size="10.00">_files/crc/crc_types.h</text>
</a>
</g>
</g>
<!-- Node2 -->
<g id="Node000002" class="node">
<title>Node2</title>
<g id="a_Node000002"><a xlink:href="a00107.html" target="_top" xlink:title="This is the generated driver header file for the CRC driver.">
<polygon fill="white" stroke="#666666" points="300.25,-100 159,-100 159,-68 300.25,-68 300.25,-100"/>
<text text-anchor="start" x="167" y="-86.5" font-family="Helvetica,sans-Serif" font-size="10.00">psfb_droop.X/mcc_generated</text>
<text text-anchor="middle" x="229.62" y="-74.5" font-family="Helvetica,sans-Serif" font-size="10.00">_files/crc/crc.h</text>
</a>
</g>
</g>
<!-- Node1&#45;&gt;Node2 -->
<g id="edge1_Node000001_Node000002" class="edge">
<title>Node1&#45;&gt;Node2</title>
<g id="a_edge1_Node000001_Node000002"><a xlink:title=" ">
<path fill="none" stroke="#63b8ff" d="M211.81,-194.73C206.87,-186.64 202.16,-177.3 199.62,-168 195.89,-154.28 195.89,-149.72 199.62,-136 203.19,-122.92 211.05,-109.77 217.84,-100.1"/>
<polygon fill="#63b8ff" stroke="#63b8ff" points="209.42,-196.47 217.84,-202.9 215.27,-192.62 209.42,-196.47"/>
</a>
</g>
</g>
<!-- Node6 -->
<g id="Node000006" class="node">
<title>Node6</title>
<g id="a_Node000006"><a xlink:href="a00110_source.html" target="_top" xlink:title=" ">
<polygon fill="white" stroke="#666666" points="350.25,-168 209,-168 209,-136 350.25,-136 350.25,-168"/>
<text text-anchor="start" x="217" y="-154.5" font-family="Helvetica,sans-Serif" font-size="10.00">psfb_droop.X/mcc_generated</text>
<text text-anchor="middle" x="279.62" y="-142.5" font-family="Helvetica,sans-Serif" font-size="10.00">_files/crc/crc_interface.h</text>
</a>
</g>
</g>
<!-- Node1&#45;&gt;Node6 -->
<g id="edge5_Node000001_Node000006" class="edge">
<title>Node1&#45;&gt;Node6</title>
<g id="a_edge5_Node000001_Node000006"><a xlink:title=" ">
<path fill="none" stroke="#63b8ff" d="M247.69,-195.15C254.5,-186.17 262.04,-176.21 268.09,-168.22"/>
<polygon fill="#63b8ff" stroke="#63b8ff" points="244.47,-192.61 241.22,-202.69 250.05,-196.83 244.47,-192.61"/>
</a>
</g>
</g>
<!-- Node3 -->
<g id="Node000003" class="node">
<title>Node3</title>
<g id="a_Node000003"><a xlink:href="a00116_source.html" target="_top" xlink:title=" ">
<polygon fill="white" stroke="#666666" points="141.25,-32 0,-32 0,0 141.25,0 141.25,-32"/>
<text text-anchor="start" x="8" y="-18.5" font-family="Helvetica,sans-Serif" font-size="10.00">psfb_droop.X/mcc_generated</text>
<text text-anchor="middle" x="70.62" y="-6.5" font-family="Helvetica,sans-Serif" font-size="10.00">_files/crc/src/crc.c</text>
</a>
</g>
</g>
<!-- Node2&#45;&gt;Node3 -->
<g id="edge2_Node000002_Node000003" class="edge">
<title>Node2&#45;&gt;Node3</title>
<g id="a_edge2_Node000002_Node000003"><a xlink:title=" ">
<path fill="none" stroke="#63b8ff" d="M182.46,-63.42C158.66,-53.54 130.2,-41.73 107.95,-32.49"/>
<polygon fill="#63b8ff" stroke="#63b8ff" points="180.77,-66.92 191.35,-67.53 183.45,-60.46 180.77,-66.92"/>
</a>
</g>
</g>
<!-- Node4 -->
<g id="Node000004" class="node">
<title>Node4</title>
<g id="a_Node000004"><a xlink:href="a00176.html" target="_top" xlink:title="This is the generated driver header file for the System driver.">
<polygon fill="white" stroke="#666666" points="300.25,-32 159,-32 159,0 300.25,0 300.25,-32"/>
<text text-anchor="start" x="167" y="-18.5" font-family="Helvetica,sans-Serif" font-size="10.00">psfb_droop.X/mcc_generated</text>
<text text-anchor="middle" x="229.62" y="-6.5" font-family="Helvetica,sans-Serif" font-size="10.00">_files/system/src/system.c</text>
</a>
</g>
</g>
<!-- Node2&#45;&gt;Node4 -->
<g id="edge3_Node000002_Node000004" class="edge">
<title>Node2&#45;&gt;Node4</title>
<g id="a_edge3_Node000002_Node000004"><a xlink:title=" ">
<path fill="none" stroke="#63b8ff" d="M229.62,-56.89C229.62,-48.52 229.62,-39.54 229.62,-32.22"/>
<polygon fill="#63b8ff" stroke="#63b8ff" points="226.13,-56.69 229.62,-66.69 233.13,-56.69 226.13,-56.69"/>
</a>
</g>
</g>
<!-- Node5 -->
<g id="Node000005" class="node">
<title>Node5</title>
<g id="a_Node000005"><a xlink:href="a00239_source.html" target="_top" xlink:title=" ">
<polygon fill="white" stroke="#666666" points="436.62,-32 318.62,-32 318.62,0 436.62,0 436.62,-32"/>
<text text-anchor="start" x="326.62" y="-18.5" font-family="Helvetica,sans-Serif" font-size="10.00">psfb_droop.X/sources</text>
<text text-anchor="middle" x="377.62" y="-6.5" font-family="Helvetica,sans-Serif" font-size="10.00">/app/app_PBV_UART.c</text>
</a>
</g>
</g>
<!-- Node2&#45;&gt;Node5 -->
<g id="edge4_Node000002_Node000005" class="edge">
<title>Node2&#45;&gt;Node5</title>
<g id="a_edge4_Node000002_Node000005"><a xlink:title=" ">
<path fill="none" stroke="#63b8ff" d="M274.12,-63.16C296.15,-53.33 322.36,-41.65 342.89,-32.49"/>
<polygon fill="#63b8ff" stroke="#63b8ff" points="273.03,-60.26 265.32,-67.53 275.88,-66.65 273.03,-60.26"/>
</a>
</g>
</g>
<!-- Node6&#45;&gt;Node2 -->
<g id="edge6_Node000006_Node000002" class="edge">
<title>Node6&#45;&gt;Node2</title>
<g id="a_edge6_Node000006_Node000002"><a xlink:title=" ">
<path fill="none" stroke="#63b8ff" d="M261.56,-127.15C254.75,-118.17 247.21,-108.21 241.16,-100.22"/>
<polygon fill="#63b8ff" stroke="#63b8ff" points="259.2,-128.83 268.03,-134.69 264.78,-124.61 259.2,-128.83"/>
</a>
</g>
</g>
</g>
</svg>
