<?xml version="1.0" encoding="UTF-8" standalone="no"?>
<!DOCTYPE svg PUBLIC "-//W3C//DTD SVG 1.1//EN"
 "http://www.w3.org/Graphics/SVG/1.1/DTD/svg11.dtd">
<!-- Generated by graphviz version 8.1.0 (20230707.0739)
 -->
<!-- Title: psfb_droop.X/mcc_generated_files/system/src/clock.c Pages: 1 -->
<svg width="184pt" height="152pt"
 viewBox="0.00 0.00 183.62 152.00" xmlns="http://www.w3.org/2000/svg" xmlns:xlink="http://www.w3.org/1999/xlink">
<g id="graph0" class="graph" transform="scale(1 1) rotate(0) translate(4 148)">
<title>psfb_droop.X/mcc_generated_files/system/src/clock.c</title>
<!-- Node1 -->
<g id="Node000001" class="node">
<title>Node1</title>
<g id="a_Node000001"><a xlink:title="This is the generated source file for CLOCK driver.">
<polygon fill="#999999" stroke="#666666" points="148,-144 6.75,-144 6.75,-112 148,-112 148,-144"/>
<text text-anchor="start" x="14.75" y="-130.5" font-family="Helvetica,sans-Serif" font-size="10.00">psfb_droop.X/mcc_generated</text>
<text text-anchor="middle" x="77.38" y="-118.5" font-family="Helvetica,sans-Serif" font-size="10.00">_files/system/src/clock.c</text>
</a>
</g>
</g>
<!-- Node2 -->
<g id="Node000002" class="node">
<title>Node2</title>
<g id="a_Node000002"><a xlink:title=" ">
<polygon fill="#e0e0e0" stroke="#999999" points="34.75,-76 0,-76 0,-56 34.75,-56 34.75,-76"/>
<text text-anchor="middle" x="17.38" y="-62.5" font-family="Helvetica,sans-Serif" font-size="10.00">xc.h</text>
</a>
</g>
</g>
<!-- Node1&#45;&gt;Node2 -->
<g id="edge1_Node000001_Node000002" class="edge">
<title>Node1&#45;&gt;Node2</title>
<g id="a_edge1_Node000001_Node000002"><a xlink:title=" ">
<path fill="none" stroke="#63b8ff" d="M61.92,-111.55C53.5,-103.13 43.07,-92.69 34.41,-84.04"/>
<polygon fill="#63b8ff" stroke="#63b8ff" points="37.33,-82 27.78,-77.41 32.38,-86.95 37.33,-82"/>
</a>
</g>
</g>
<!-- Node3 -->
<g id="Node000003" class="node">
<title>Node3</title>
<g id="a_Node000003"><a xlink:title=" ">
<polygon fill="#e0e0e0" stroke="#999999" points="101.5,-76 53.25,-76 53.25,-56 101.5,-56 101.5,-76"/>
<text text-anchor="middle" x="77.38" y="-62.5" font-family="Helvetica,sans-Serif" font-size="10.00">stdint.h</text>
</a>
</g>
</g>
<!-- Node1&#45;&gt;Node3 -->
<g id="edge2_Node000001_Node000003" class="edge">
<title>Node1&#45;&gt;Node3</title>
<g id="a_edge2_Node000001_Node000003"><a xlink:title=" ">
<path fill="none" stroke="#63b8ff" d="M77.38,-111.55C77.38,-104.17 77.38,-95.24 77.38,-87.32"/>
<polygon fill="#63b8ff" stroke="#63b8ff" points="80.88,-87.41 77.38,-77.41 73.88,-87.41 80.88,-87.41"/>
</a>
</g>
</g>
<!-- Node4 -->
<g id="Node000004" class="node">
<title>Node4</title>
<g id="a_Node000004"><a xlink:href="a00134_source.html" target="_top" xlink:title=" ">
<polygon fill="white" stroke="#666666" points="175.62,-76 119.12,-76 119.12,-56 175.62,-56 175.62,-76"/>
<text text-anchor="middle" x="147.38" y="-62.5" font-family="Helvetica,sans-Serif" font-size="10.00">../clock.h</text>
</a>
</g>
</g>
<!-- Node1&#45;&gt;Node4 -->
<g id="edge3_Node000001_Node000004" class="edge">
<title>Node1&#45;&gt;Node4</title>
<g id="a_edge3_Node000001_Node000004"><a xlink:title=" ">
<path fill="none" stroke="#63b8ff" d="M95.4,-111.55C105.43,-102.95 117.91,-92.26 128.12,-83.5"/>
<polygon fill="#63b8ff" stroke="#63b8ff" points="130.08,-85.57 135.4,-76.41 125.53,-80.26 130.08,-85.57"/>
</a>
</g>
</g>
<!-- Node5 -->
<g id="Node000005" class="node">
<title>Node5</title>
<g id="a_Node000005"><a xlink:title=" ">
<polygon fill="#e0e0e0" stroke="#999999" points="175.25,-20 119.5,-20 119.5,0 175.25,0 175.25,-20"/>
<text text-anchor="middle" x="147.38" y="-6.5" font-family="Helvetica,sans-Serif" font-size="10.00">stdbool.h</text>
</a>
</g>
</g>
<!-- Node4&#45;&gt;Node5 -->
<g id="edge4_Node000004_Node000005" class="edge">
<title>Node4&#45;&gt;Node5</title>
<g id="a_edge4_Node000004_Node000005"><a xlink:title=" ">
<path fill="none" stroke="#63b8ff" d="M147.38,-55.59C147.38,-48.86 147.38,-39.53 147.38,-31.15"/>
<polygon fill="#63b8ff" stroke="#63b8ff" points="150.88,-31.3 147.38,-21.3 143.88,-31.3 150.88,-31.3"/>
</a>
</g>
</g>
</g>
</svg>
