<?xml version="1.0" encoding="UTF-8" standalone="no"?>
<!DOCTYPE svg PUBLIC "-//W3C//DTD SVG 1.1//EN"
 "http://www.w3.org/Graphics/SVG/1.1/DTD/svg11.dtd">
<!-- Generated by graphviz version 8.1.0 (20230707.0739)
 -->
<!-- Title: psfb_droop.X/mcc_generated_files/system/src/system.c Pages: 1 -->
<svg width="1846pt" height="276pt"
 viewBox="0.00 0.00 1845.94 276.00" xmlns="http://www.w3.org/2000/svg" xmlns:xlink="http://www.w3.org/1999/xlink">
<g id="graph0" class="graph" transform="scale(1 1) rotate(0) translate(4 272)">
<title>psfb_droop.X/mcc_generated_files/system/src/system.c</title>
<!-- Node1 -->
<g id="Node000001" class="node">
<title>Node1</title>
<g id="a_Node000001"><a xlink:title="This is the generated driver header file for the System driver.">
<polygon fill="#999999" stroke="#666666" points="899.29,-268 758.04,-268 758.04,-236 899.29,-236 899.29,-268"/>
<text text-anchor="start" x="766.04" y="-254.5" font-family="Helvetica,sans-Serif" font-size="10.00">psfb_droop.X/mcc_generated</text>
<text text-anchor="middle" x="828.66" y="-242.5" font-family="Helvetica,sans-Serif" font-size="10.00">_files/system/src/system.c</text>
</a>
</g>
</g>
<!-- Node2 -->
<g id="Node000002" class="node">
<title>Node2</title>
<g id="a_Node000002"><a xlink:href="a00182_source.html" target="_top" xlink:title=" ">
<polygon fill="white" stroke="#666666" points="435.41,-200 369.91,-200 369.91,-180 435.41,-180 435.41,-200"/>
<text text-anchor="middle" x="402.66" y="-186.5" font-family="Helvetica,sans-Serif" font-size="10.00">../system.h</text>
</a>
</g>
</g>
<!-- Node1&#45;&gt;Node2 -->
<g id="edge1_Node000001_Node000002" class="edge">
<title>Node1&#45;&gt;Node2</title>
<g id="a_edge1_Node000001_Node000002"><a xlink:title=" ">
<path fill="none" stroke="#63b8ff" d="M757.61,-241.88C682.68,-232.12 561.23,-215.88 456.66,-200 453.39,-199.5 450,-198.97 446.6,-198.43"/>
<polygon fill="#63b8ff" stroke="#63b8ff" points="447.2,-194.82 436.77,-196.67 446.08,-201.73 447.2,-194.82"/>
</a>
</g>
</g>
<!-- Node5 -->
<g id="Node000005" class="node">
<title>Node5</title>
<g id="a_Node000005"><a xlink:href="a00185.html" target="_top" xlink:title="This is the generated driver types header file for the System driver.">
<polygon fill="white" stroke="#666666" points="317.54,-144 231.79,-144 231.79,-124 317.54,-124 317.54,-144"/>
<text text-anchor="middle" x="274.66" y="-130.5" font-family="Helvetica,sans-Serif" font-size="10.00">system_types.h</text>
</a>
</g>
</g>
<!-- Node1&#45;&gt;Node5 -->
<g id="edge5_Node000001_Node000005" class="edge">
<title>Node1&#45;&gt;Node5</title>
<g id="a_edge5_Node000001_Node000005"><a xlink:title=" ">
<path fill="none" stroke="#63b8ff" d="M757.76,-247.89C645.2,-242.18 431.12,-227.97 360.66,-200 333.11,-189.06 306.73,-166.78 290.62,-151.37"/>
<polygon fill="#63b8ff" stroke="#63b8ff" points="293.76,-149.57 284.18,-145.04 288.85,-154.55 293.76,-149.57"/>
</a>
</g>
</g>
<!-- Node6 -->
<g id="Node000006" class="node">
<title>Node6</title>
<g id="a_Node000006"><a xlink:href="a00134_source.html" target="_top" xlink:title=" ">
<polygon fill="white" stroke="#666666" points="1207.91,-144 1151.41,-144 1151.41,-124 1207.91,-124 1207.91,-144"/>
<text text-anchor="middle" x="1179.66" y="-130.5" font-family="Helvetica,sans-Serif" font-size="10.00">../clock.h</text>
</a>
</g>
</g>
<!-- Node1&#45;&gt;Node6 -->
<g id="edge6_Node000001_Node000006" class="edge">
<title>Node1&#45;&gt;Node6</title>
<g id="a_edge6_Node000001_Node000006"><a xlink:title=" ">
<path fill="none" stroke="#63b8ff" d="M875.27,-235.6C945.23,-212.48 1076.07,-169.24 1141.03,-147.77"/>
<polygon fill="#63b8ff" stroke="#63b8ff" points="1141.85,-150.85 1150.24,-144.39 1139.65,-144.21 1141.85,-150.85"/>
</a>
</g>
</g>
<!-- Node8 -->
<g id="Node000008" class="node">
<title>Node8</title>
<g id="a_Node000008"><a xlink:href="a00146_source.html" target="_top" xlink:title=" ">
<polygon fill="white" stroke="#666666" points="666.29,-200 615.04,-200 615.04,-180 666.29,-180 666.29,-200"/>
<text text-anchor="middle" x="640.66" y="-186.5" font-family="Helvetica,sans-Serif" font-size="10.00">../pins.h</text>
</a>
</g>
</g>
<!-- Node1&#45;&gt;Node8 -->
<g id="edge8_Node000001_Node000008" class="edge">
<title>Node1&#45;&gt;Node8</title>
<g id="a_edge8_Node000001_Node000008"><a xlink:title=" ">
<path fill="none" stroke="#63b8ff" d="M780.25,-235.55C747.98,-225.25 706.26,-211.94 676.87,-202.55"/>
<polygon fill="#63b8ff" stroke="#63b8ff" points="678.22,-198.99 667.63,-199.29 676.1,-205.66 678.22,-198.99"/>
</a>
</g>
</g>
<!-- Node9 -->
<g id="Node000009" class="node">
<title>Node9</title>
<g id="a_Node000009"><a xlink:href="a00062.html" target="_top" xlink:title="This is the generated driver header file for the ADC1 driver.">
<polygon fill="white" stroke="#666666" points="547.66,-200 465.66,-200 465.66,-180 547.66,-180 547.66,-200"/>
<text text-anchor="middle" x="506.66" y="-186.5" font-family="Helvetica,sans-Serif" font-size="10.00">../../adc/adc1.h</text>
</a>
</g>
</g>
<!-- Node1&#45;&gt;Node9 -->
<g id="edge10_Node000001_Node000009" class="edge">
<title>Node1&#45;&gt;Node9</title>
<g id="a_edge10_Node000001_Node000009"><a xlink:title=" ">
<path fill="none" stroke="#63b8ff" d="M757.6,-237.76C697.48,-226.56 612.71,-210.76 558.73,-200.7"/>
<polygon fill="#63b8ff" stroke="#63b8ff" points="559.5,-197.1 549.03,-198.71 558.22,-203.98 559.5,-197.1"/>
</a>
</g>
</g>
<!-- Node13 -->
<g id="Node000013" class="node">
<title>Node13</title>
<g id="a_Node000013"><a xlink:href="a00077.html" target="_top" xlink:title="This is the generated driver header file for the CAN1 driver using CCL.">
<polygon fill="white" stroke="#666666" points="142.66,-200 60.66,-200 60.66,-180 142.66,-180 142.66,-200"/>
<text text-anchor="middle" x="101.66" y="-186.5" font-family="Helvetica,sans-Serif" font-size="10.00">../../can/can1.h</text>
</a>
</g>
</g>
<!-- Node1&#45;&gt;Node13 -->
<g id="edge20_Node000001_Node000013" class="edge">
<title>Node1&#45;&gt;Node13</title>
<g id="a_edge20_Node000001_Node000013"><a xlink:title=" ">
<path fill="none" stroke="#63b8ff" d="M757.63,-245.14C611.82,-233.1 281.7,-205.86 153.72,-195.3"/>
<polygon fill="#63b8ff" stroke="#63b8ff" points="154.31,-191.75 144.06,-194.42 153.73,-198.73 154.31,-191.75"/>
</a>
</g>
</g>
<!-- Node16 -->
<g id="Node000016" class="node">
<title>Node16</title>
<g id="a_Node000016"><a xlink:href="a00092.html" target="_top" xlink:title="This is the generated driver header file for the CMP1 driver.">
<polygon fill="white" stroke="#666666" points="1570.66,-200 1482.66,-200 1482.66,-180 1570.66,-180 1570.66,-200"/>
<text text-anchor="middle" x="1526.66" y="-186.5" font-family="Helvetica,sans-Serif" font-size="10.00">../../cmp/cmp1.h</text>
</a>
</g>
</g>
<!-- Node1&#45;&gt;Node16 -->
<g id="edge30_Node000001_Node000016" class="edge">
<title>Node1&#45;&gt;Node16</title>
<g id="a_edge30_Node000001_Node000016"><a xlink:title=" ">
<path fill="none" stroke="#63b8ff" d="M899.5,-247.47C1016.48,-241.19 1257.59,-226.32 1471.37,-200.18"/>
<polygon fill="#63b8ff" stroke="#63b8ff" points="1471.68,-203.55 1481.17,-198.85 1470.82,-196.6 1471.68,-203.55"/>
</a>
</g>
</g>
<!-- Node19 -->
<g id="Node000019" class="node">
<title>Node19</title>
<g id="a_Node000019"><a xlink:href="a00095.html" target="_top" xlink:title="This is the generated driver header file for the CMP3 driver.">
<polygon fill="white" stroke="#666666" points="1676.66,-200 1588.66,-200 1588.66,-180 1676.66,-180 1676.66,-200"/>
<text text-anchor="middle" x="1632.66" y="-186.5" font-family="Helvetica,sans-Serif" font-size="10.00">../../cmp/cmp3.h</text>
</a>
</g>
</g>
<!-- Node1&#45;&gt;Node19 -->
<g id="edge36_Node000001_Node000019" class="edge">
<title>Node1&#45;&gt;Node19</title>
<g id="a_edge36_Node000001_Node000019"><a xlink:title=" ">
<path fill="none" stroke="#63b8ff" d="M899.55,-248.56C1031.21,-243.51 1322.55,-229.9 1577.59,-200.13"/>
<polygon fill="#63b8ff" stroke="#63b8ff" points="1577.66,-203.53 1587.18,-198.89 1576.84,-196.58 1577.66,-203.53"/>
</a>
</g>
</g>
<!-- Node20 -->
<g id="Node000020" class="node">
<title>Node20</title>
<g id="a_Node000020"><a xlink:href="a00107.html" target="_top" xlink:title="This is the generated driver header file for the CRC driver.">
<polygon fill="white" stroke="#666666" points="757.79,-200 685.54,-200 685.54,-180 757.79,-180 757.79,-200"/>
<text text-anchor="middle" x="721.66" y="-186.5" font-family="Helvetica,sans-Serif" font-size="10.00">../../crc/crc.h</text>
</a>
</g>
</g>
<!-- Node1&#45;&gt;Node20 -->
<g id="edge40_Node000001_Node000020" class="edge">
<title>Node1&#45;&gt;Node20</title>
<g id="a_edge40_Node000001_Node000020"><a xlink:title=" ">
<path fill="none" stroke="#63b8ff" d="M801.11,-235.55C784.7,-226.35 763.99,-214.74 747.84,-205.68"/>
<polygon fill="#63b8ff" stroke="#63b8ff" points="749.88,-202.25 739.44,-200.41 746.45,-208.35 749.88,-202.25"/>
</a>
</g>
</g>
<!-- Node23 -->
<g id="Node000023" class="node">
<title>Node23</title>
<g id="a_Node000023"><a xlink:href="a00137_source.html" target="_top" xlink:title=" ">
<polygon fill="white" stroke="#666666" points="213.54,-144 163.79,-144 163.79,-124 213.54,-124 213.54,-144"/>
<text text-anchor="middle" x="188.66" y="-130.5" font-family="Helvetica,sans-Serif" font-size="10.00">../dmt.h</text>
</a>
</g>
</g>
<!-- Node1&#45;&gt;Node23 -->
<g id="edge48_Node000001_Node000023" class="edge">
<title>Node1&#45;&gt;Node23</title>
<g id="a_edge48_Node000001_Node000023"><a xlink:title=" ">
<path fill="none" stroke="#63b8ff" d="M757.8,-251.52C658.77,-250.54 474.21,-242.43 323.66,-200 282.81,-188.49 239.2,-165.25 212.94,-149.9"/>
<polygon fill="#63b8ff" stroke="#63b8ff" points="215.15,-146.55 204.76,-144.45 211.57,-152.57 215.15,-146.55"/>
</a>
</g>
</g>
<!-- Node24 -->
<g id="Node000024" class="node">
<title>Node24</title>
<g id="a_Node000024"><a xlink:href="a00119.html" target="_top" xlink:title="This is the generated driver header file for the PWM driver.">
<polygon fill="white" stroke="#666666" points="953.41,-200 851.91,-200 851.91,-180 953.41,-180 953.41,-200"/>
<text text-anchor="middle" x="902.66" y="-186.5" font-family="Helvetica,sans-Serif" font-size="10.00">../../pwm_hs/pwm.h</text>
</a>
</g>
</g>
<!-- Node1&#45;&gt;Node24 -->
<g id="edge51_Node000001_Node000024" class="edge">
<title>Node1&#45;&gt;Node24</title>
<g id="a_edge51_Node000001_Node000024"><a xlink:title=" ">
<path fill="none" stroke="#63b8ff" d="M847.72,-235.55C858.43,-226.87 871.78,-216.04 882.64,-207.24"/>
<polygon fill="#63b8ff" stroke="#63b8ff" points="884.5,-209.42 890.06,-200.41 880.09,-203.99 884.5,-209.42"/>
</a>
</g>
</g>
<!-- Node28 -->
<g id="Node000028" class="node">
<title>Node28</title>
<g id="a_Node000028"><a xlink:href="a00200.html" target="_top" xlink:title="This is the generated driver header file for the TMR1 driver.">
<polygon fill="white" stroke="#666666" points="1464.91,-200 1378.41,-200 1378.41,-180 1464.91,-180 1464.91,-200"/>
<text text-anchor="middle" x="1421.66" y="-186.5" font-family="Helvetica,sans-Serif" font-size="10.00">../../timer/tmr1.h</text>
</a>
</g>
</g>
<!-- Node1&#45;&gt;Node28 -->
<g id="edge61_Node000001_Node000028" class="edge">
<title>Node1&#45;&gt;Node28</title>
<g id="a_edge61_Node000001_Node000028"><a xlink:title=" ">
<path fill="none" stroke="#63b8ff" d="M899.76,-246.06C1001.24,-238.62 1193.71,-223.06 1367.14,-200.25"/>
<polygon fill="#63b8ff" stroke="#63b8ff" points="1367.56,-203.59 1377.01,-198.81 1366.64,-196.65 1367.56,-203.59"/>
</a>
</g>
</g>
<!-- Node30 -->
<g id="Node000030" class="node">
<title>Node30</title>
<g id="a_Node000030"><a xlink:href="a00206.html" target="_top" xlink:title="This is the generated driver header file for the UART1 driver.">
<polygon fill="white" stroke="#666666" points="1360.41,-200 1276.91,-200 1276.91,-180 1360.41,-180 1360.41,-200"/>
<text text-anchor="middle" x="1318.66" y="-186.5" font-family="Helvetica,sans-Serif" font-size="10.00">../../uart/uart1.h</text>
</a>
</g>
</g>
<!-- Node1&#45;&gt;Node30 -->
<g id="edge70_Node000001_Node000030" class="edge">
<title>Node1&#45;&gt;Node30</title>
<g id="a_edge70_Node000001_Node000030"><a xlink:title=" ">
<path fill="none" stroke="#63b8ff" d="M899.65,-242.31C998.98,-230.15 1177.16,-208.33 1265.72,-197.48"/>
<polygon fill="#63b8ff" stroke="#63b8ff" points="1266.07,-200.84 1275.57,-196.15 1265.22,-193.9 1266.07,-200.84"/>
</a>
</g>
</g>
<!-- Node33 -->
<g id="Node000033" class="node">
<title>Node33</title>
<g id="a_Node000033"><a xlink:href="a00140_source.html" target="_top" xlink:title=" ">
<polygon fill="white" stroke="#666666" points="1762.91,-200 1694.41,-200 1694.41,-180 1762.91,-180 1762.91,-200"/>
<text text-anchor="middle" x="1728.66" y="-186.5" font-family="Helvetica,sans-Serif" font-size="10.00">../interrupt.h</text>
</a>
</g>
</g>
<!-- Node1&#45;&gt;Node33 -->
<g id="edge79_Node000001_Node000033" class="edge">
<title>Node1&#45;&gt;Node33</title>
<g id="a_edge79_Node000001_Node000033"><a xlink:title=" ">
<path fill="none" stroke="#63b8ff" d="M899.55,-250.3C1044.96,-248.09 1387.58,-238.97 1683.5,-200.11"/>
<polygon fill="#63b8ff" stroke="#63b8ff" points="1683.55,-203.5 1693.01,-198.71 1682.63,-196.56 1683.55,-203.5"/>
</a>
</g>
</g>
<!-- Node3 -->
<g id="Node000003" class="node">
<title>Node3</title>
<g id="a_Node000003"><a xlink:title=" ">
<polygon fill="#e0e0e0" stroke="#999999" points="622.04,-144 587.29,-144 587.29,-124 622.04,-124 622.04,-144"/>
<text text-anchor="middle" x="604.66" y="-130.5" font-family="Helvetica,sans-Serif" font-size="10.00">xc.h</text>
</a>
</g>
</g>
<!-- Node2&#45;&gt;Node3 -->
<g id="edge2_Node000002_Node000003" class="edge">
<title>Node2&#45;&gt;Node3</title>
<g id="a_edge2_Node000002_Node000003"><a xlink:title=" ">
<path fill="none" stroke="#63b8ff" d="M435.57,-180.2C474.68,-169.75 539.28,-152.48 576.28,-142.59"/>
<polygon fill="#63b8ff" stroke="#63b8ff" points="577.07,-145.73 585.82,-139.77 575.26,-138.97 577.07,-145.73"/>
</a>
</g>
</g>
<!-- Node4 -->
<g id="Node000004" class="node">
<title>Node4</title>
<g id="a_Node000004"><a xlink:title=" ">
<polygon fill="#e0e0e0" stroke="#999999" points="649.79,-20 601.54,-20 601.54,0 649.79,0 649.79,-20"/>
<text text-anchor="middle" x="625.66" y="-6.5" font-family="Helvetica,sans-Serif" font-size="10.00">stdint.h</text>
</a>
</g>
</g>
<!-- Node2&#45;&gt;Node4 -->
<g id="edge3_Node000002_Node000004" class="edge">
<title>Node2&#45;&gt;Node4</title>
<g id="a_edge3_Node000002_Node000004"><a xlink:title=" ">
<path fill="none" stroke="#63b8ff" d="M399.54,-179.57C392.26,-155.69 377.06,-92.16 407.66,-56 430.85,-28.61 535.11,-17.28 590.62,-13.12"/>
<polygon fill="#63b8ff" stroke="#63b8ff" points="590.63,-16.56 600.36,-12.36 590.14,-9.58 590.63,-16.56"/>
</a>
</g>
</g>
<!-- Node2&#45;&gt;Node5 -->
<g id="edge4_Node000002_Node000005" class="edge">
<title>Node2&#45;&gt;Node5</title>
<g id="a_edge4_Node000002_Node000005"><a xlink:title=" ">
<path fill="none" stroke="#63b8ff" d="M380.37,-179.59C360.12,-171.05 330.01,-158.35 307.09,-148.68"/>
<polygon fill="#63b8ff" stroke="#63b8ff" points="308.71,-145.14 298.13,-144.48 305.99,-151.59 308.71,-145.14"/>
</a>
</g>
</g>
<!-- Node7 -->
<g id="Node000007" class="node">
<title>Node7</title>
<g id="a_Node000007"><a xlink:title=" ">
<polygon fill="#e0e0e0" stroke="#999999" points="1052.54,-82 996.79,-82 996.79,-62 1052.54,-62 1052.54,-82"/>
<text text-anchor="middle" x="1024.66" y="-68.5" font-family="Helvetica,sans-Serif" font-size="10.00">stdbool.h</text>
</a>
</g>
</g>
<!-- Node6&#45;&gt;Node7 -->
<g id="edge7_Node000006_Node000007" class="edge">
<title>Node6&#45;&gt;Node7</title>
<g id="a_edge7_Node000006_Node000007"><a xlink:title=" ">
<path fill="none" stroke="#63b8ff" d="M1155.45,-123.62C1129.59,-113.62 1088.39,-97.67 1059.15,-86.35"/>
<polygon fill="#63b8ff" stroke="#63b8ff" points="1060.56,-82.75 1049.97,-82.41 1058.03,-89.28 1060.56,-82.75"/>
</a>
</g>
</g>
<!-- Node8&#45;&gt;Node3 -->
<g id="edge9_Node000008_Node000003" class="edge">
<title>Node8&#45;&gt;Node3</title>
<g id="a_edge9_Node000008_Node000003"><a xlink:title=" ">
<path fill="none" stroke="#63b8ff" d="M634.39,-179.59C629.59,-172.39 622.82,-162.23 616.95,-153.43"/>
<polygon fill="#63b8ff" stroke="#63b8ff" points="619.32,-151.68 610.86,-145.3 613.5,-155.56 619.32,-151.68"/>
</a>
</g>
</g>
<!-- Node9&#45;&gt;Node3 -->
<g id="edge11_Node000009_Node000003" class="edge">
<title>Node9&#45;&gt;Node3</title>
<g id="a_edge11_Node000009_Node000003"><a xlink:title=" ">
<path fill="none" stroke="#63b8ff" d="M523.73,-179.59C538.68,-171.36 560.64,-159.26 577.92,-149.74"/>
<polygon fill="#63b8ff" stroke="#63b8ff" points="579.39,-152.37 586.46,-144.48 576.01,-146.24 579.39,-152.37"/>
</a>
</g>
</g>
<!-- Node9&#45;&gt;Node4 -->
<g id="edge13_Node000009_Node000004" class="edge">
<title>Node9&#45;&gt;Node4</title>
<g id="a_edge13_Node000009_Node000004"><a xlink:title=" ">
<path fill="none" stroke="#63b8ff" d="M480.64,-179.55C464.52,-172.31 444.83,-160.71 433.66,-144 411.83,-111.31 400.09,-86.69 424.66,-56 445.07,-30.52 538.63,-18.49 590.6,-13.69"/>
<polygon fill="#63b8ff" stroke="#63b8ff" points="590.67,-17.11 600.33,-12.75 590.06,-10.14 590.67,-17.11"/>
</a>
</g>
</g>
<!-- Node9&#45;&gt;Node7 -->
<g id="edge12_Node000009_Node000007" class="edge">
<title>Node9&#45;&gt;Node7</title>
<g id="a_edge12_Node000009_Node000007"><a xlink:title=" ">
<path fill="none" stroke="#63b8ff" d="M513.47,-179.97C525.04,-165.36 550.12,-136.89 578.66,-124 587.94,-119.81 878.94,-88.51 985.81,-77.13"/>
<polygon fill="#63b8ff" stroke="#63b8ff" points="985.87,-80.53 995.44,-75.99 985.12,-73.57 985.87,-80.53"/>
</a>
</g>
</g>
<!-- Node10 -->
<g id="Node000010" class="node">
<title>Node10</title>
<g id="a_Node000010"><a xlink:href="a00071.html" target="_top" xlink:title="This is the generated driver types header file for the ADC driver.">
<polygon fill="white" stroke="#666666" points="503.29,-82 434.04,-82 434.04,-62 503.29,-62 503.29,-82"/>
<text text-anchor="middle" x="468.66" y="-68.5" font-family="Helvetica,sans-Serif" font-size="10.00">adc_types.h</text>
</a>
</g>
</g>
<!-- Node9&#45;&gt;Node10 -->
<g id="edge14_Node000009_Node000010" class="edge">
<title>Node9&#45;&gt;Node10</title>
<g id="a_edge14_Node000009_Node000010"><a xlink:title=" ">
<path fill="none" stroke="#63b8ff" d="M482.56,-179.6C467.55,-172.33 449.48,-160.68 440.66,-144 431.52,-126.7 442.24,-105.74 452.95,-91.09"/>
<polygon fill="#63b8ff" stroke="#63b8ff" points="456.31,-93.49 459.78,-83.48 450.82,-89.14 456.31,-93.49"/>
</a>
</g>
</g>
<!-- Node11 -->
<g id="Node000011" class="node">
<title>Node11</title>
<g id="a_Node000011"><a xlink:href="a00068_source.html" target="_top" xlink:title=" ">
<polygon fill="white" stroke="#666666" points="531.66,-144 449.66,-144 449.66,-124 531.66,-124 531.66,-144"/>
<text text-anchor="middle" x="490.66" y="-130.5" font-family="Helvetica,sans-Serif" font-size="10.00">adc_interface.h</text>
</a>
</g>
</g>
<!-- Node9&#45;&gt;Node11 -->
<g id="edge15_Node000009_Node000011" class="edge">
<title>Node9&#45;&gt;Node11</title>
<g id="a_edge15_Node000009_Node000011"><a xlink:title=" ">
<path fill="none" stroke="#63b8ff" d="M503.88,-179.59C501.84,-172.7 498.99,-163.1 496.46,-154.57"/>
<polygon fill="#63b8ff" stroke="#63b8ff" points="499.62,-153.89 493.42,-145.3 492.9,-155.88 499.62,-153.89"/>
</a>
</g>
</g>
<!-- Node11&#45;&gt;Node4 -->
<g id="edge16_Node000011_Node000004" class="edge">
<title>Node11&#45;&gt;Node4</title>
<g id="a_edge16_Node000011_Node000004"><a xlink:title=" ">
<path fill="none" stroke="#63b8ff" d="M500.81,-123.83C523.48,-103.34 578.52,-53.6 607.36,-27.54"/>
<polygon fill="#63b8ff" stroke="#63b8ff" points="609.33,-30.58 614.4,-21.28 604.63,-25.38 609.33,-30.58"/>
</a>
</g>
</g>
<!-- Node11&#45;&gt;Node7 -->
<g id="edge17_Node000011_Node000007" class="edge">
<title>Node11&#45;&gt;Node7</title>
<g id="a_edge17_Node000011_Node000007"><a xlink:title=" ">
<path fill="none" stroke="#63b8ff" d="M532.07,-125.97C536.65,-125.27 541.25,-124.6 545.66,-124 588.85,-118.17 879.17,-88.03 985.63,-77.03"/>
<polygon fill="#63b8ff" stroke="#63b8ff" points="985.93,-80.41 995.51,-75.9 985.21,-73.45 985.93,-80.41"/>
</a>
</g>
</g>
<!-- Node11&#45;&gt;Node10 -->
<g id="edge18_Node000011_Node000010" class="edge">
<title>Node11&#45;&gt;Node10</title>
<g id="a_edge18_Node000011_Node000010"><a xlink:title=" ">
<path fill="none" stroke="#63b8ff" d="M487.23,-123.62C484.17,-115.3 479.61,-102.86 475.78,-92.4"/>
<polygon fill="#63b8ff" stroke="#63b8ff" points="478.73,-91.3 472.01,-83.11 472.16,-93.71 478.73,-91.3"/>
</a>
</g>
</g>
<!-- Node12 -->
<g id="Node000012" class="node">
<title>Node12</title>
<g id="a_Node000012"><a xlink:href="a00143_source.html" target="_top" xlink:title=" ">
<polygon fill="white" stroke="#666666" points="1417.41,-88 1321.91,-88 1321.91,-56 1417.41,-56 1417.41,-88"/>
<text text-anchor="start" x="1329.91" y="-74.5" font-family="Helvetica,sans-Serif" font-size="10.00">../system/interrupt</text>
<text text-anchor="middle" x="1369.66" y="-62.5" font-family="Helvetica,sans-Serif" font-size="10.00">_types.h</text>
</a>
</g>
</g>
<!-- Node11&#45;&gt;Node12 -->
<g id="edge19_Node000011_Node000012" class="edge">
<title>Node11&#45;&gt;Node12</title>
<g id="a_edge19_Node000011_Node000012"><a xlink:title=" ">
<path fill="none" stroke="#63b8ff" d="M531.82,-128.47C546.58,-126.93 563.36,-125.28 578.66,-124 852.11,-101.21 1179.46,-82.98 1310.85,-76.04"/>
<polygon fill="#63b8ff" stroke="#63b8ff" points="1310.66,-79.5 1320.47,-75.48 1310.29,-72.51 1310.66,-79.5"/>
</a>
</g>
</g>
<!-- Node13&#45;&gt;Node3 -->
<g id="edge21_Node000013_Node000003" class="edge">
<title>Node13&#45;&gt;Node3</title>
<g id="a_edge21_Node000013_Node000003"><a xlink:title=" ">
<path fill="none" stroke="#63b8ff" d="M142.88,-185.3C220.71,-178.19 394.64,-161.75 540.66,-144 552.32,-142.58 565.14,-140.82 576.23,-139.23"/>
<polygon fill="#63b8ff" stroke="#63b8ff" points="576.64,-142.56 586.03,-137.66 575.63,-135.64 576.64,-142.56"/>
</a>
</g>
</g>
<!-- Node13&#45;&gt;Node4 -->
<g id="edge23_Node000013_Node000004" class="edge">
<title>Node13&#45;&gt;Node4</title>
<g id="a_edge23_Node000013_Node000004"><a xlink:title=" ">
<path fill="none" stroke="#63b8ff" d="M60.45,-179.55C41.53,-172.94 20.87,-161.95 9.66,-144 -3.81,-122.4 -4.99,-80.66 22.66,-56 65.12,-18.14 467.89,-12.13 590.45,-11.18"/>
<polygon fill="#63b8ff" stroke="#63b8ff" points="590.12,-14.67 600.09,-11.1 590.07,-7.68 590.12,-14.67"/>
</a>
</g>
</g>
<!-- Node13&#45;&gt;Node7 -->
<g id="edge22_Node000013_Node000007" class="edge">
<title>Node13&#45;&gt;Node7</title>
<g id="a_edge22_Node000013_Node000007"><a xlink:title=" ">
<path fill="none" stroke="#63b8ff" d="M105.96,-179.82C113.47,-165 130.5,-136.22 154.66,-124 226.54,-87.65 798.35,-94.12 878.66,-88 915.05,-85.23 956.41,-80.86 985.8,-77.56"/>
<polygon fill="#63b8ff" stroke="#63b8ff" points="985.9,-80.95 995.44,-76.35 985.11,-74 985.9,-80.95"/>
</a>
</g>
</g>
<!-- Node14 -->
<g id="Node000014" class="node">
<title>Node14</title>
<g id="a_Node000014"><a xlink:href="a00086.html" target="_top" xlink:title="This is the generated driver types header file for the CAN driver using CCL.">
<polygon fill="white" stroke="#666666" points="101.29,-82 32.04,-82 32.04,-62 101.29,-62 101.29,-82"/>
<text text-anchor="middle" x="66.66" y="-68.5" font-family="Helvetica,sans-Serif" font-size="10.00">can_types.h</text>
</a>
</g>
</g>
<!-- Node13&#45;&gt;Node14 -->
<g id="edge24_Node000013_Node000014" class="edge">
<title>Node13&#45;&gt;Node14</title>
<g id="a_edge24_Node000013_Node000014"><a xlink:title=" ">
<path fill="none" stroke="#63b8ff" d="M65.69,-179.59C47.62,-172.85 27.34,-161.74 16.66,-144 4.77,-124.24 24.94,-102.75 43.11,-88.64"/>
<polygon fill="#63b8ff" stroke="#63b8ff" points="44.7,-91.08 50.71,-82.35 40.57,-85.43 44.7,-91.08"/>
</a>
</g>
</g>
<!-- Node15 -->
<g id="Node000015" class="node">
<title>Node15</title>
<g id="a_Node000015"><a xlink:href="a00083_source.html" target="_top" xlink:title=" ">
<polygon fill="white" stroke="#666666" points="107.66,-144 25.66,-144 25.66,-124 107.66,-124 107.66,-144"/>
<text text-anchor="middle" x="66.66" y="-130.5" font-family="Helvetica,sans-Serif" font-size="10.00">can_interface.h</text>
</a>
</g>
</g>
<!-- Node13&#45;&gt;Node15 -->
<g id="edge26_Node000013_Node000015" class="edge">
<title>Node13&#45;&gt;Node15</title>
<g id="a_edge26_Node000013_Node000015"><a xlink:title=" ">
<path fill="none" stroke="#63b8ff" d="M95.57,-179.59C90.9,-172.39 84.32,-162.23 78.61,-153.43"/>
<polygon fill="#63b8ff" stroke="#63b8ff" points="81.07,-151.79 72.69,-145.3 75.19,-155.59 81.07,-151.79"/>
</a>
</g>
</g>
<!-- Node14&#45;&gt;Node4 -->
<g id="edge25_Node000014_Node000004" class="edge">
<title>Node14&#45;&gt;Node4</title>
<g id="a_edge25_Node000014_Node000004"><a xlink:title=" ">
<path fill="none" stroke="#63b8ff" d="M101.71,-64.08C116.74,-61.28 134.52,-58.2 150.66,-56 314.35,-33.67 511.29,-18.82 590.32,-13.35"/>
<polygon fill="#63b8ff" stroke="#63b8ff" points="590.37,-16.79 600.11,-12.61 589.89,-9.8 590.37,-16.79"/>
</a>
</g>
</g>
<!-- Node15&#45;&gt;Node4 -->
<g id="edge28_Node000015_Node000004" class="edge">
<title>Node15&#45;&gt;Node4</title>
<g id="a_edge28_Node000015_Node000004"><a xlink:title=" ">
<path fill="none" stroke="#63b8ff" d="M85.56,-123.55C119.51,-107.01 193.44,-72.98 259.66,-56 378.67,-25.49 524.92,-15.43 590.7,-12.31"/>
<polygon fill="#63b8ff" stroke="#63b8ff" points="590.45,-15.78 600.29,-11.84 590.14,-8.79 590.45,-15.78"/>
</a>
</g>
</g>
<!-- Node15&#45;&gt;Node7 -->
<g id="edge27_Node000015_Node000007" class="edge">
<title>Node15&#45;&gt;Node7</title>
<g id="a_edge27_Node000015_Node000007"><a xlink:title=" ">
<path fill="none" stroke="#63b8ff" d="M108.04,-125.71C112.63,-125.05 117.24,-124.47 121.66,-124 456.64,-88.75 542.79,-113.22 878.66,-88 915.05,-85.27 956.42,-80.9 985.8,-77.58"/>
<polygon fill="#63b8ff" stroke="#63b8ff" points="985.91,-80.98 995.44,-76.36 985.11,-74.02 985.91,-80.98"/>
</a>
</g>
</g>
<!-- Node15&#45;&gt;Node14 -->
<g id="edge29_Node000015_Node000014" class="edge">
<title>Node15&#45;&gt;Node14</title>
<g id="a_edge29_Node000015_Node000014"><a xlink:title=" ">
<path fill="none" stroke="#63b8ff" d="M66.66,-123.62C66.66,-115.48 66.66,-103.39 66.66,-93.07"/>
<polygon fill="#63b8ff" stroke="#63b8ff" points="70.16,-93.11 66.66,-83.11 63.16,-93.11 70.16,-93.11"/>
</a>
</g>
</g>
<!-- Node16&#45;&gt;Node7 -->
<g id="edge32_Node000016_Node000007" class="edge">
<title>Node16&#45;&gt;Node7</title>
<g id="a_edge32_Node000016_Node000007"><a xlink:title=" ">
<path fill="none" stroke="#63b8ff" d="M1482.61,-181.35C1426.19,-171.39 1331.66,-154.04 1297.66,-144 1274.71,-137.22 1270.51,-131.13 1247.66,-124 1184.23,-104.19 1108.46,-88.49 1063.57,-79.99"/>
<polygon fill="#63b8ff" stroke="#63b8ff" points="1064.32,-76.38 1053.85,-77.98 1063.03,-83.26 1064.32,-76.38"/>
</a>
</g>
</g>
<!-- Node17 -->
<g id="Node000017" class="node">
<title>Node17</title>
<g id="a_Node000017"><a xlink:title=" ">
<polygon fill="#e0e0e0" stroke="#999999" points="1709.91,-82 1659.41,-82 1659.41,-62 1709.91,-62 1709.91,-82"/>
<text text-anchor="middle" x="1684.66" y="-68.5" font-family="Helvetica,sans-Serif" font-size="10.00">stddef.h</text>
</a>
</g>
</g>
<!-- Node16&#45;&gt;Node17 -->
<g id="edge31_Node000016_Node000017" class="edge">
<title>Node16&#45;&gt;Node17</title>
<g id="a_edge31_Node000016_Node000017"><a xlink:title=" ">
<path fill="none" stroke="#63b8ff" d="M1569.38,-179.51C1613.39,-169.3 1676.56,-153.29 1683.66,-144 1694.64,-129.64 1693.37,-108.44 1690.29,-92.94"/>
<polygon fill="#63b8ff" stroke="#63b8ff" points="1693.49,-92.31 1687.74,-83.41 1686.69,-93.96 1693.49,-92.31"/>
</a>
</g>
</g>
<!-- Node18 -->
<g id="Node000018" class="node">
<title>Node18</title>
<g id="a_Node000018"><a xlink:href="a00098_source.html" target="_top" xlink:title=" ">
<polygon fill="white" stroke="#666666" points="1821.16,-144 1736.16,-144 1736.16,-124 1821.16,-124 1821.16,-144"/>
<text text-anchor="middle" x="1778.66" y="-130.5" font-family="Helvetica,sans-Serif" font-size="10.00">cmp_interface.h</text>
</a>
</g>
</g>
<!-- Node16&#45;&gt;Node18 -->
<g id="edge33_Node000016_Node000018" class="edge">
<title>Node16&#45;&gt;Node18</title>
<g id="a_edge33_Node000016_Node000018"><a xlink:title=" ">
<path fill="none" stroke="#63b8ff" d="M1570.85,-179.53C1613.84,-170.32 1679.23,-156.31 1725.15,-146.47"/>
<polygon fill="#63b8ff" stroke="#63b8ff" points="1725.75,-149.7 1734.8,-144.19 1724.28,-142.86 1725.75,-149.7"/>
</a>
</g>
</g>
<!-- Node18&#45;&gt;Node7 -->
<g id="edge34_Node000018_Node000007" class="edge">
<title>Node18&#45;&gt;Node7</title>
<g id="a_edge34_Node000018_Node000007"><a xlink:title=" ">
<path fill="none" stroke="#63b8ff" d="M1735.69,-129.58C1601.58,-118.91 1192.06,-86.32 1063.62,-76.1"/>
<polygon fill="#63b8ff" stroke="#63b8ff" points="1064.02,-72.54 1053.77,-75.24 1063.47,-79.52 1064.02,-72.54"/>
</a>
</g>
</g>
<!-- Node18&#45;&gt;Node17 -->
<g id="edge35_Node000018_Node000017" class="edge">
<title>Node18&#45;&gt;Node17</title>
<g id="a_edge35_Node000018_Node000017"><a xlink:title=" ">
<path fill="none" stroke="#63b8ff" d="M1763.98,-123.62C1749.08,-114.11 1725.78,-99.24 1708.28,-88.08"/>
<polygon fill="#63b8ff" stroke="#63b8ff" points="1710.56,-84.74 1700.25,-82.31 1706.79,-90.64 1710.56,-84.74"/>
</a>
</g>
</g>
<!-- Node19&#45;&gt;Node7 -->
<g id="edge38_Node000019_Node000007" class="edge">
<title>Node19&#45;&gt;Node7</title>
<g id="a_edge38_Node000019_Node000007"><a xlink:title=" ">
<path fill="none" stroke="#63b8ff" d="M1588.43,-181.48C1513.97,-168.82 1371.35,-144.56 1368.66,-144 1331.93,-136.4 1323.31,-132.03 1286.66,-124 1207.59,-106.67 1114.44,-89.25 1063.24,-79.92"/>
<polygon fill="#63b8ff" stroke="#63b8ff" points="1064.14,-76.35 1053.67,-78.01 1062.89,-83.23 1064.14,-76.35"/>
</a>
</g>
</g>
<!-- Node19&#45;&gt;Node17 -->
<g id="edge37_Node000019_Node000017" class="edge">
<title>Node19&#45;&gt;Node17</title>
<g id="a_edge37_Node000019_Node000017"><a xlink:title=" ">
<path fill="none" stroke="#63b8ff" d="M1676.69,-180.43C1733.53,-169.17 1825.81,-150.08 1830.66,-144 1862.92,-103.59 1773.97,-84.64 1720.97,-77.14"/>
<polygon fill="#63b8ff" stroke="#63b8ff" points="1721.63,-73.56 1711.26,-75.71 1720.71,-80.5 1721.63,-73.56"/>
</a>
</g>
</g>
<!-- Node19&#45;&gt;Node18 -->
<g id="edge39_Node000019_Node000018" class="edge">
<title>Node19&#45;&gt;Node18</title>
<g id="a_edge39_Node000019_Node000018"><a xlink:title=" ">
<path fill="none" stroke="#63b8ff" d="M1658.1,-179.59C1681.5,-170.94 1716.47,-158 1742.73,-148.29"/>
<polygon fill="#63b8ff" stroke="#63b8ff" points="1743.87,-151.23 1752.03,-144.48 1741.44,-144.67 1743.87,-151.23"/>
</a>
</g>
</g>
<!-- Node20&#45;&gt;Node3 -->
<g id="edge41_Node000020_Node000003" class="edge">
<title>Node20&#45;&gt;Node3</title>
<g id="a_edge41_Node000020_Node000003"><a xlink:title=" ">
<path fill="none" stroke="#63b8ff" d="M701.28,-179.59C682.15,-170.76 653.39,-157.49 632.22,-147.72"/>
<polygon fill="#63b8ff" stroke="#63b8ff" points="634.06,-144.25 623.51,-143.24 631.13,-150.61 634.06,-144.25"/>
</a>
</g>
</g>
<!-- Node20&#45;&gt;Node4 -->
<g id="edge42_Node000020_Node000004" class="edge">
<title>Node20&#45;&gt;Node4</title>
<g id="a_edge42_Node000020_Node000004"><a xlink:title=" ">
<path fill="none" stroke="#63b8ff" d="M716.77,-179.93C701.75,-152.08 656.1,-67.44 635.7,-29.61"/>
<polygon fill="#63b8ff" stroke="#63b8ff" points="638.49,-28.41 630.66,-21.27 632.33,-31.73 638.49,-28.41"/>
</a>
</g>
</g>
<!-- Node20&#45;&gt;Node7 -->
<g id="edge43_Node000020_Node000007" class="edge">
<title>Node20&#45;&gt;Node7</title>
<g id="a_edge43_Node000020_Node000007"><a xlink:title=" ">
<path fill="none" stroke="#63b8ff" d="M758.16,-185.15C816.64,-178.49 928.29,-163.63 962.66,-144 984.79,-131.37 1002.93,-107.84 1013.76,-91.34"/>
<polygon fill="#63b8ff" stroke="#63b8ff" points="1017.18,-93.47 1019.52,-83.14 1011.25,-89.76 1017.18,-93.47"/>
</a>
</g>
</g>
<!-- Node21 -->
<g id="Node000021" class="node">
<title>Node21</title>
<g id="a_Node000021"><a xlink:href="a00113.html" target="_top" xlink:title="This is the generated driver types header file for the CRC driver.">
<polygon fill="white" stroke="#666666" points="754.16,-82 687.16,-82 687.16,-62 754.16,-62 754.16,-82"/>
<text text-anchor="middle" x="720.66" y="-68.5" font-family="Helvetica,sans-Serif" font-size="10.00">crc_types.h</text>
</a>
</g>
</g>
<!-- Node20&#45;&gt;Node21 -->
<g id="edge44_Node000020_Node000021" class="edge">
<title>Node20&#45;&gt;Node21</title>
<g id="a_edge44_Node000020_Node000021"><a xlink:title=" ">
<path fill="none" stroke="#63b8ff" d="M717.53,-179.57C713.84,-170.62 708.72,-156.68 706.66,-144 703.81,-126.39 708.43,-106.46 713.11,-92.21"/>
<polygon fill="#63b8ff" stroke="#63b8ff" points="716.64,-93.75 716.74,-83.16 710.05,-91.38 716.64,-93.75"/>
</a>
</g>
</g>
<!-- Node22 -->
<g id="Node000022" class="node">
<title>Node22</title>
<g id="a_Node000022"><a xlink:href="a00110_source.html" target="_top" xlink:title=" ">
<polygon fill="white" stroke="#666666" points="795.54,-144 715.79,-144 715.79,-124 795.54,-124 795.54,-144"/>
<text text-anchor="middle" x="755.66" y="-130.5" font-family="Helvetica,sans-Serif" font-size="10.00">crc_interface.h</text>
</a>
</g>
</g>
<!-- Node20&#45;&gt;Node22 -->
<g id="edge45_Node000020_Node000022" class="edge">
<title>Node20&#45;&gt;Node22</title>
<g id="a_edge45_Node000020_Node000022"><a xlink:title=" ">
<path fill="none" stroke="#63b8ff" d="M727.59,-179.59C732.12,-172.39 738.52,-162.23 744.06,-153.43"/>
<polygon fill="#63b8ff" stroke="#63b8ff" points="747.44,-155.63 749.81,-145.3 741.52,-151.9 747.44,-155.63"/>
</a>
</g>
</g>
<!-- Node22&#45;&gt;Node7 -->
<g id="edge46_Node000022_Node000007" class="edge">
<title>Node22&#45;&gt;Node7</title>
<g id="a_edge46_Node000022_Node000007"><a xlink:title=" ">
<path fill="none" stroke="#63b8ff" d="M795.94,-124.02C847.28,-112.57 935.43,-92.9 985.99,-81.63"/>
<polygon fill="#63b8ff" stroke="#63b8ff" points="986.49,-84.88 995.49,-79.28 984.97,-78.05 986.49,-84.88"/>
</a>
</g>
</g>
<!-- Node22&#45;&gt;Node21 -->
<g id="edge47_Node000022_Node000021" class="edge">
<title>Node22&#45;&gt;Node21</title>
<g id="a_edge47_Node000022_Node000021"><a xlink:title=" ">
<path fill="none" stroke="#63b8ff" d="M750.2,-123.62C745.18,-115.03 737.62,-102.07 731.4,-91.41"/>
<polygon fill="#63b8ff" stroke="#63b8ff" points="734.04,-89.99 725.98,-83.11 728,-93.51 734.04,-89.99"/>
</a>
</g>
</g>
<!-- Node23&#45;&gt;Node4 -->
<g id="edge50_Node000023_Node000004" class="edge">
<title>Node23&#45;&gt;Node4</title>
<g id="a_edge50_Node000023_Node000004"><a xlink:title=" ">
<path fill="none" stroke="#63b8ff" d="M202.15,-123.67C226.7,-107.18 280.86,-73 331.66,-56 421.91,-25.8 534.6,-15.76 590.64,-12.51"/>
<polygon fill="#63b8ff" stroke="#63b8ff" points="590.59,-15.96 600.39,-11.93 590.21,-8.97 590.59,-15.96"/>
</a>
</g>
</g>
<!-- Node23&#45;&gt;Node7 -->
<g id="edge49_Node000023_Node000007" class="edge">
<title>Node23&#45;&gt;Node7</title>
<g id="a_edge49_Node000023_Node000007"><a xlink:title=" ">
<path fill="none" stroke="#63b8ff" d="M213.79,-125.74C216.76,-125.06 219.77,-124.46 222.66,-124 511.08,-78.4 587.57,-110.93 878.66,-88 915.04,-85.13 956.41,-80.78 985.8,-77.5"/>
<polygon fill="#63b8ff" stroke="#63b8ff" points="985.89,-80.9 995.44,-76.3 985.11,-73.94 985.89,-80.9"/>
</a>
</g>
</g>
<!-- Node24&#45;&gt;Node3 -->
<g id="edge52_Node000024_Node000003" class="edge">
<title>Node24&#45;&gt;Node3</title>
<g id="a_edge52_Node000024_Node000003"><a xlink:title=" ">
<path fill="none" stroke="#63b8ff" d="M851.44,-179.72C788.29,-168.27 683.21,-149.23 633.02,-140.14"/>
<polygon fill="#63b8ff" stroke="#63b8ff" points="633.81,-136.54 623.34,-138.2 632.56,-143.43 633.81,-136.54"/>
</a>
</g>
</g>
<!-- Node24&#45;&gt;Node4 -->
<g id="edge53_Node000024_Node000004" class="edge">
<title>Node24&#45;&gt;Node4</title>
<g id="a_edge53_Node000024_Node000004"><a xlink:title=" ">
<path fill="none" stroke="#63b8ff" d="M953.82,-183.21C1001.29,-176.66 1066.9,-164.18 1082.66,-144 1100.51,-121.15 1094.53,-82.97 1061.66,-56 1030.89,-30.76 759.21,-16.72 660.94,-12.43"/>
<polygon fill="#63b8ff" stroke="#63b8ff" points="661.25,-8.9 651.11,-11.97 660.95,-15.89 661.25,-8.9"/>
</a>
</g>
</g>
<!-- Node24&#45;&gt;Node7 -->
<g id="edge54_Node000024_Node000007" class="edge">
<title>Node24&#45;&gt;Node7</title>
<g id="a_edge54_Node000024_Node000007"><a xlink:title=" ">
<path fill="none" stroke="#63b8ff" d="M953.88,-181.8C996.7,-174.61 1052.92,-162.02 1066.66,-144 1080.05,-126.45 1062.09,-104.29 1045.68,-89.44"/>
<polygon fill="#63b8ff" stroke="#63b8ff" points="1048.3,-86.22 1038.41,-82.4 1043.76,-91.55 1048.3,-86.22"/>
</a>
</g>
</g>
<!-- Node25 -->
<g id="Node000025" class="node">
<title>Node25</title>
<g id="a_Node000025"><a xlink:title=" ">
<polygon fill="#e0e0e0" stroke="#999999" points="1057.41,-144 1009.91,-144 1009.91,-124 1057.41,-124 1057.41,-144"/>
<text text-anchor="middle" x="1033.66" y="-130.5" font-family="Helvetica,sans-Serif" font-size="10.00">stdlib.h</text>
</a>
</g>
</g>
<!-- Node24&#45;&gt;Node25 -->
<g id="edge55_Node000024_Node000025" class="edge">
<title>Node24&#45;&gt;Node25</title>
<g id="a_edge55_Node000024_Node000025"><a xlink:title=" ">
<path fill="none" stroke="#63b8ff" d="M925.48,-179.59C946.3,-171.01 977.3,-158.23 1000.79,-148.55"/>
<polygon fill="#63b8ff" stroke="#63b8ff" points="1001.76,-151.53 1009.67,-144.48 999.09,-145.05 1001.76,-151.53"/>
</a>
</g>
</g>
<!-- Node26 -->
<g id="Node000026" class="node">
<title>Node26</title>
<g id="a_Node000026"><a xlink:href="a00128.html" target="_top" xlink:title="This is the generated driver types header file for the PWM driver.">
<polygon fill="white" stroke="#666666" points="869.41,-82 779.91,-82 779.91,-62 869.41,-62 869.41,-82"/>
<text text-anchor="middle" x="824.66" y="-68.5" font-family="Helvetica,sans-Serif" font-size="10.00">pwm_hs_types.h</text>
</a>
</g>
</g>
<!-- Node24&#45;&gt;Node26 -->
<g id="edge56_Node000024_Node000026" class="edge">
<title>Node24&#45;&gt;Node26</title>
<g id="a_edge56_Node000024_Node000026"><a xlink:title=" ">
<path fill="none" stroke="#63b8ff" d="M884.23,-179.66C870.75,-171.89 853.06,-159.6 842.66,-144 832.43,-128.64 828.01,-107.86 826.11,-92.76"/>
<polygon fill="#63b8ff" stroke="#63b8ff" points="829.52,-92.68 825.06,-83.07 822.55,-93.36 829.52,-92.68"/>
</a>
</g>
</g>
<!-- Node27 -->
<g id="Node000027" class="node">
<title>Node27</title>
<g id="a_Node000027"><a xlink:href="a00125_source.html" target="_top" xlink:title=" ">
<polygon fill="white" stroke="#666666" points="953.79,-144 851.54,-144 851.54,-124 953.79,-124 953.79,-144"/>
<text text-anchor="middle" x="902.66" y="-130.5" font-family="Helvetica,sans-Serif" font-size="10.00">pwm_hs_interface.h</text>
</a>
</g>
</g>
<!-- Node24&#45;&gt;Node27 -->
<g id="edge57_Node000024_Node000027" class="edge">
<title>Node24&#45;&gt;Node27</title>
<g id="a_edge57_Node000024_Node000027"><a xlink:title=" ">
<path fill="none" stroke="#63b8ff" d="M902.66,-179.59C902.66,-172.86 902.66,-163.53 902.66,-155.15"/>
<polygon fill="#63b8ff" stroke="#63b8ff" points="906.16,-155.3 902.66,-145.3 899.16,-155.3 906.16,-155.3"/>
</a>
</g>
</g>
<!-- Node27&#45;&gt;Node4 -->
<g id="edge59_Node000027_Node000004" class="edge">
<title>Node27&#45;&gt;Node4</title>
<g id="a_edge59_Node000027_Node000004"><a xlink:title=" ">
<path fill="none" stroke="#63b8ff" d="M902.67,-123.53C902.14,-107.13 898.52,-73.5 878.66,-56 846.84,-27.96 722.69,-16.74 660.94,-12.83"/>
<polygon fill="#63b8ff" stroke="#63b8ff" points="661.37,-9.29 651.17,-12.19 660.95,-16.28 661.37,-9.29"/>
</a>
</g>
</g>
<!-- Node27&#45;&gt;Node7 -->
<g id="edge58_Node000027_Node000007" class="edge">
<title>Node27&#45;&gt;Node7</title>
<g id="a_edge58_Node000027_Node000007"><a xlink:title=" ">
<path fill="none" stroke="#63b8ff" d="M921.73,-123.62C941.6,-113.85 972.99,-98.41 995.89,-87.15"/>
<polygon fill="#63b8ff" stroke="#63b8ff" points="997.31,-89.86 1004.74,-82.31 994.22,-83.58 997.31,-89.86"/>
</a>
</g>
</g>
<!-- Node27&#45;&gt;Node26 -->
<g id="edge60_Node000027_Node000026" class="edge">
<title>Node27&#45;&gt;Node26</title>
<g id="a_edge60_Node000027_Node000026"><a xlink:title=" ">
<path fill="none" stroke="#63b8ff" d="M890.48,-123.62C878.46,-114.38 859.85,-100.07 845.48,-89.01"/>
<polygon fill="#63b8ff" stroke="#63b8ff" points="847.83,-85.63 837.77,-82.31 843.56,-91.18 847.83,-85.63"/>
</a>
</g>
</g>
<!-- Node28&#45;&gt;Node3 -->
<g id="edge64_Node000028_Node000003" class="edge">
<title>Node28&#45;&gt;Node3</title>
<g id="a_edge64_Node000028_Node000003"><a xlink:title=" ">
<path fill="none" stroke="#63b8ff" d="M1378.02,-181.07C1375.2,-180.67 1372.4,-180.31 1369.66,-180 1076.44,-146.78 1001.02,-164.97 706.66,-144 681.79,-142.23 653.56,-139.7 633.11,-137.77"/>
<polygon fill="#63b8ff" stroke="#63b8ff" points="633.63,-134.21 623.34,-136.74 632.96,-141.18 633.63,-134.21"/>
</a>
</g>
</g>
<!-- Node28&#45;&gt;Node4 -->
<g id="edge63_Node000028_Node000004" class="edge">
<title>Node28&#45;&gt;Node4</title>
<g id="a_edge63_Node000028_Node000004"><a xlink:title=" ">
<path fill="none" stroke="#63b8ff" d="M1465.37,-181.01C1504.93,-172.94 1559.31,-159.48 1574.66,-144 1602.66,-115.78 1618.11,-84.76 1590.66,-56 1557.94,-21.72 830.56,-12.89 660.84,-11.3"/>
<polygon fill="#63b8ff" stroke="#63b8ff" points="661.07,-7.79 651.04,-11.2 661.01,-14.79 661.07,-7.79"/>
</a>
</g>
</g>
<!-- Node28&#45;&gt;Node17 -->
<g id="edge62_Node000028_Node000017" class="edge">
<title>Node28&#45;&gt;Node17</title>
<g id="a_edge62_Node000028_Node000017"><a xlink:title=" ">
<path fill="none" stroke="#63b8ff" d="M1465.17,-181.23C1528.24,-169.83 1638.39,-149.34 1645.66,-144 1662.98,-131.29 1673.52,-108.47 1679.2,-92.13"/>
<polygon fill="#63b8ff" stroke="#63b8ff" points="1682.71,-93.64 1682.38,-83.05 1676.03,-91.54 1682.71,-93.64"/>
</a>
</g>
</g>
<!-- Node29 -->
<g id="Node000029" class="node">
<title>Node29</title>
<g id="a_Node000029"><a xlink:href="a00197_source.html" target="_top" xlink:title=" ">
<polygon fill="white" stroke="#666666" points="1465.66,-144 1377.66,-144 1377.66,-124 1465.66,-124 1465.66,-144"/>
<text text-anchor="middle" x="1421.66" y="-130.5" font-family="Helvetica,sans-Serif" font-size="10.00">timer_interface.h</text>
</a>
</g>
</g>
<!-- Node28&#45;&gt;Node29 -->
<g id="edge65_Node000028_Node000029" class="edge">
<title>Node28&#45;&gt;Node29</title>
<g id="a_edge65_Node000028_Node000029"><a xlink:title=" ">
<path fill="none" stroke="#63b8ff" d="M1421.66,-179.59C1421.66,-172.86 1421.66,-163.53 1421.66,-155.15"/>
<polygon fill="#63b8ff" stroke="#63b8ff" points="1425.16,-155.3 1421.66,-145.3 1418.16,-155.3 1425.16,-155.3"/>
</a>
</g>
</g>
<!-- Node29&#45;&gt;Node4 -->
<g id="edge67_Node000029_Node000004" class="edge">
<title>Node29&#45;&gt;Node4</title>
<g id="a_edge67_Node000029_Node000004"><a xlink:title=" ">
<path fill="none" stroke="#63b8ff" d="M1426.09,-123.72C1433.04,-107.6 1444.06,-74.4 1426.66,-56 1400,-27.79 812.29,-14.59 660.95,-11.65"/>
<polygon fill="#63b8ff" stroke="#63b8ff" points="661.09,-8.13 651.03,-11.44 660.96,-15.13 661.09,-8.13"/>
</a>
</g>
</g>
<!-- Node29&#45;&gt;Node7 -->
<g id="edge68_Node000029_Node000007" class="edge">
<title>Node29&#45;&gt;Node7</title>
<g id="a_edge68_Node000029_Node000007"><a xlink:title=" ">
<path fill="none" stroke="#63b8ff" d="M1377.28,-126.29C1299.05,-114.47 1137.88,-90.11 1063.65,-78.89"/>
<polygon fill="#63b8ff" stroke="#63b8ff" points="1064.34,-75.31 1053.93,-77.27 1063.3,-82.23 1064.34,-75.31"/>
</a>
</g>
</g>
<!-- Node29&#45;&gt;Node12 -->
<g id="edge69_Node000029_Node000012" class="edge">
<title>Node29&#45;&gt;Node12</title>
<g id="a_edge69_Node000029_Node000012"><a xlink:title=" ">
<path fill="none" stroke="#63b8ff" d="M1413.54,-123.62C1407.18,-116.28 1398.05,-105.75 1389.76,-96.19"/>
<polygon fill="#63b8ff" stroke="#63b8ff" points="1391.98,-94.41 1382.79,-89.14 1386.69,-98.99 1391.98,-94.41"/>
</a>
</g>
</g>
<!-- Node29&#45;&gt;Node17 -->
<g id="edge66_Node000029_Node000017" class="edge">
<title>Node29&#45;&gt;Node17</title>
<g id="a_edge66_Node000029_Node000017"><a xlink:title=" ">
<path fill="none" stroke="#63b8ff" d="M1463.05,-123.56C1514.04,-111.92 1599.88,-92.34 1648.4,-81.27"/>
<polygon fill="#63b8ff" stroke="#63b8ff" points="1649.06,-84.48 1658.03,-78.85 1647.5,-77.66 1649.06,-84.48"/>
</a>
</g>
</g>
<!-- Node30&#45;&gt;Node4 -->
<g id="edge72_Node000030_Node000004" class="edge">
<title>Node30&#45;&gt;Node4</title>
<g id="a_edge72_Node000030_Node000004"><a xlink:title=" ">
<path fill="none" stroke="#63b8ff" d="M1310.3,-179.52C1297.79,-165.8 1272.96,-140.27 1247.66,-124 1182.68,-82.2 1162.54,-75.08 1087.66,-56 932.1,-16.36 738.9,-11.16 660.82,-10.81"/>
<polygon fill="#63b8ff" stroke="#63b8ff" points="661.17,-7.31 651.16,-10.79 661.15,-14.31 661.17,-7.31"/>
</a>
</g>
</g>
<!-- Node30&#45;&gt;Node7 -->
<g id="edge71_Node000030_Node000007" class="edge">
<title>Node30&#45;&gt;Node7</title>
<g id="a_edge71_Node000030_Node000007"><a xlink:title=" ">
<path fill="none" stroke="#63b8ff" d="M1306.8,-179.7C1288.45,-165.73 1251.66,-139.36 1216.66,-124 1165.96,-101.75 1103.35,-87.35 1063.7,-79.71"/>
<polygon fill="#63b8ff" stroke="#63b8ff" points="1064.38,-76.09 1053.91,-77.68 1063.09,-82.97 1064.38,-76.09"/>
</a>
</g>
</g>
<!-- Node30&#45;&gt;Node17 -->
<g id="edge73_Node000030_Node000017" class="edge">
<title>Node30&#45;&gt;Node17</title>
<g id="a_edge73_Node000030_Node000017"><a xlink:title=" ">
<path fill="none" stroke="#63b8ff" d="M1360.69,-181.58C1363.73,-181.05 1366.74,-180.51 1369.66,-180 1460.77,-163.96 1488.54,-177.75 1574.66,-144 1609.14,-130.49 1644.28,-105.43 1665.28,-88.98"/>
<polygon fill="#63b8ff" stroke="#63b8ff" points="1667,-91.29 1672.62,-82.31 1662.63,-85.82 1667,-91.29"/>
</a>
</g>
</g>
<!-- Node31 -->
<g id="Node000031" class="node">
<title>Node31</title>
<g id="a_Node000031"><a xlink:href="a00209_source.html" target="_top" xlink:title=" ">
<polygon fill="white" stroke="#666666" points="1566.04,-144 1483.29,-144 1483.29,-124 1566.04,-124 1566.04,-144"/>
<text text-anchor="middle" x="1524.66" y="-130.5" font-family="Helvetica,sans-Serif" font-size="10.00">uart_interface.h</text>
</a>
</g>
</g>
<!-- Node30&#45;&gt;Node31 -->
<g id="edge74_Node000030_Node000031" class="edge">
<title>Node30&#45;&gt;Node31</title>
<g id="a_edge74_Node000030_Node000031"><a xlink:title=" ">
<path fill="none" stroke="#63b8ff" d="M1354.55,-179.59C1388.75,-170.63 1440.44,-157.08 1477.87,-147.27"/>
<polygon fill="#63b8ff" stroke="#63b8ff" points="1478.72,-150.4 1487.5,-144.48 1476.94,-143.63 1478.72,-150.4"/>
</a>
</g>
</g>
<!-- Node31&#45;&gt;Node4 -->
<g id="edge76_Node000031_Node000004" class="edge">
<title>Node31&#45;&gt;Node4</title>
<g id="a_edge76_Node000031_Node000004"><a xlink:title=" ">
<path fill="none" stroke="#63b8ff" d="M1518.53,-123.74C1506.63,-106.7 1478.6,-70.77 1444.66,-56 1372.13,-24.42 808.45,-13.76 660.91,-11.49"/>
<polygon fill="#63b8ff" stroke="#63b8ff" points="661.29,-7.99 651.24,-11.33 661.19,-14.98 661.29,-7.99"/>
</a>
</g>
</g>
<!-- Node31&#45;&gt;Node7 -->
<g id="edge75_Node000031_Node000007" class="edge">
<title>Node31&#45;&gt;Node7</title>
<g id="a_edge75_Node000031_Node000007"><a xlink:title=" ">
<path fill="none" stroke="#63b8ff" d="M1482.96,-125.28C1480.15,-124.83 1477.37,-124.4 1474.66,-124 1323.22,-101.81 1141.88,-83.88 1063.69,-76.56"/>
<polygon fill="#63b8ff" stroke="#63b8ff" points="1064.2,-73 1053.92,-75.56 1063.55,-79.97 1064.2,-73"/>
</a>
</g>
</g>
<!-- Node31&#45;&gt;Node17 -->
<g id="edge77_Node000031_Node000017" class="edge">
<title>Node31&#45;&gt;Node17</title>
<g id="a_edge77_Node000031_Node000017"><a xlink:title=" ">
<path fill="none" stroke="#63b8ff" d="M1549.66,-123.62C1576.47,-113.57 1619.26,-97.53 1649.46,-86.2"/>
<polygon fill="#63b8ff" stroke="#63b8ff" points="1650.44,-89.2 1658.58,-82.41 1647.98,-82.64 1650.44,-89.2"/>
</a>
</g>
</g>
<!-- Node32 -->
<g id="Node000032" class="node">
<title>Node32</title>
<g id="a_Node000032"><a xlink:href="a00212.html" target="_top" xlink:title="This is the generated driver types header file for the UART driver.">
<polygon fill="white" stroke="#666666" points="1581.66,-82 1511.66,-82 1511.66,-62 1581.66,-62 1581.66,-82"/>
<text text-anchor="middle" x="1546.66" y="-68.5" font-family="Helvetica,sans-Serif" font-size="10.00">uart_types.h</text>
</a>
</g>
</g>
<!-- Node31&#45;&gt;Node32 -->
<g id="edge78_Node000031_Node000032" class="edge">
<title>Node31&#45;&gt;Node32</title>
<g id="a_edge78_Node000031_Node000032"><a xlink:title=" ">
<path fill="none" stroke="#63b8ff" d="M1528.1,-123.62C1531.15,-115.3 1535.71,-102.86 1539.55,-92.4"/>
<polygon fill="#63b8ff" stroke="#63b8ff" points="1543.17,-93.71 1543.32,-83.11 1536.59,-91.3 1543.17,-93.71"/>
</a>
</g>
</g>
</g>
</svg>
