<?xml version="1.0" encoding="UTF-8" standalone="no"?>
<!DOCTYPE svg PUBLIC "-//W3C//DTD SVG 1.1//EN"
 "http://www.w3.org/Graphics/SVG/1.1/DTD/svg11.dtd">
<!-- Generated by graphviz version 8.1.0 (20230707.0739)
 -->
<!-- Title: psfb_droop.X/mcc_generated_files/cmp/src/cmp1.c Pages: 1 -->
<svg width="174pt" height="208pt"
 viewBox="0.00 0.00 173.50 208.00" xmlns="http://www.w3.org/2000/svg" xmlns:xlink="http://www.w3.org/1999/xlink">

<svg id="main" version="1.1" xmlns="http://www.w3.org/2000/svg" xmlns:xlink="http://www.w3.org/1999/xlink" xml:space="preserve">

<style type="text/css"><![CDATA[
.node, .edge {opacity: 0.7;}
.node.selected, .edge.selected {opacity: 1;}
.edge:hover path { stroke: red; }
.edge:hover polygon { stroke: red; fill: red; }
]]></style>
<script type="application/ecmascript" xlink:href="svg.min.js"/>
<svg id="graph" class="graph">
<g id="graph0" class="graph" transform="scale(1 1) rotate(0) translate(4 204)">
<title>psfb_droop.X/mcc_generated_files/cmp/src/cmp1.c</title>
<!-- Node1 -->
<g id="Node000001" class="node">
<title>Node1</title>
<g id="a_Node000001"><a xlink:title="This is the generated driver source file for CMP1 driver.">
<polygon fill="#999999" stroke="#666666" points="141.25,-200 0,-200 0,-168 141.25,-168 141.25,-200"/>
<text text-anchor="start" x="8" y="-186.5" font-family="Helvetica,sans-Serif" font-size="10.00">psfb_droop.X/mcc_generated</text>
<text text-anchor="middle" x="70.62" y="-174.5" font-family="Helvetica,sans-Serif" font-size="10.00">_files/cmp/src/cmp1.c</text>
</a>
</g>
</g>
<!-- Node2 -->
<g id="Node000002" class="node">
<title>Node2</title>
<g id="a_Node000002"><a xlink:title=" ">
<polygon fill="#e0e0e0" stroke="#999999" points="56,-132 21.25,-132 21.25,-112 56,-112 56,-132"/>
<text text-anchor="middle" x="38.62" y="-118.5" font-family="Helvetica,sans-Serif" font-size="10.00">xc.h</text>
</a>
</g>
</g>
<!-- Node1&#45;&gt;Node2 -->
<g id="edge1_Node000001_Node000002" class="edge">
<title>Node1&#45;&gt;Node2</title>
<g id="a_edge1_Node000001_Node000002"><a xlink:title=" ">
<path fill="none" stroke="#63b8ff" d="M62.38,-167.55C58.22,-159.74 53.12,-150.19 48.72,-141.94"/>
<polygon fill="#63b8ff" stroke="#63b8ff" points="51.44,-140.58 43.64,-133.41 45.26,-143.88 51.44,-140.58"/>
</a>
</g>
</g>
<!-- Node3 -->
<g id="Node000003" class="node">
<title>Node3</title>
<g id="a_Node000003"><a xlink:href="a00092.html" target="_top" xlink:title="This is the generated driver header file for the CMP1 driver.">
<polygon fill="white" stroke="#666666" points="131.25,-132 74,-132 74,-112 131.25,-112 131.25,-132"/>
<text text-anchor="middle" x="102.62" y="-118.5" font-family="Helvetica,sans-Serif" font-size="10.00">../cmp1.h</text>
</a>
</g>
</g>
<!-- Node1&#45;&gt;Node3 -->
<g id="edge2_Node000001_Node000003" class="edge">
<title>Node1&#45;&gt;Node3</title>
<g id="a_edge2_Node000001_Node000003"><a xlink:title=" ">
<path fill="none" stroke="#63b8ff" d="M78.87,-167.55C83.03,-159.74 88.13,-150.19 92.53,-141.94"/>
<polygon fill="#63b8ff" stroke="#63b8ff" points="95.99,-143.88 97.61,-133.41 89.81,-140.58 95.99,-143.88"/>
</a>
</g>
</g>
<!-- Node4 -->
<g id="Node000004" class="node">
<title>Node4</title>
<g id="a_Node000004"><a xlink:title=" ">
<polygon fill="#e0e0e0" stroke="#999999" points="91.88,-20 41.38,-20 41.38,0 91.88,0 91.88,-20"/>
<text text-anchor="middle" x="66.62" y="-6.5" font-family="Helvetica,sans-Serif" font-size="10.00">stddef.h</text>
</a>
</g>
</g>
<!-- Node3&#45;&gt;Node4 -->
<g id="edge3_Node000003_Node000004" class="edge">
<title>Node3&#45;&gt;Node4</title>
<g id="a_edge3_Node000003_Node000004"><a xlink:title=" ">
<path fill="none" stroke="#63b8ff" d="M85.32,-111.51C73.12,-103.75 57.72,-91.53 50.62,-76 43.84,-61.15 49.32,-43.03 55.64,-29.7"/>
<polygon fill="#63b8ff" stroke="#63b8ff" points="59.09,-31.66 60.68,-21.19 52.91,-28.39 59.09,-31.66"/>
</a>
</g>
</g>
<!-- Node5 -->
<g id="Node000005" class="node">
<title>Node5</title>
<g id="a_Node000005"><a xlink:title=" ">
<polygon fill="#e0e0e0" stroke="#999999" points="165.5,-20 109.75,-20 109.75,0 165.5,0 165.5,-20"/>
<text text-anchor="middle" x="137.62" y="-6.5" font-family="Helvetica,sans-Serif" font-size="10.00">stdbool.h</text>
</a>
</g>
</g>
<!-- Node3&#45;&gt;Node5 -->
<g id="edge4_Node000003_Node000005" class="edge">
<title>Node3&#45;&gt;Node5</title>
<g id="a_edge4_Node000003_Node000005"><a xlink:title=" ">
<path fill="none" stroke="#63b8ff" d="M119.93,-111.51C132.13,-103.75 147.53,-91.53 154.62,-76 161.44,-61.1 155.66,-42.98 149.05,-29.67"/>
<polygon fill="#63b8ff" stroke="#63b8ff" points="151.7,-28.23 143.8,-21.17 145.57,-31.61 151.7,-28.23"/>
</a>
</g>
</g>
<!-- Node6 -->
<g id="Node000006" class="node">
<title>Node6</title>
<g id="a_Node000006"><a xlink:href="a00098_source.html" target="_top" xlink:title=" ">
<polygon fill="white" stroke="#666666" points="145.12,-76 60.12,-76 60.12,-56 145.12,-56 145.12,-76"/>
<text text-anchor="middle" x="102.62" y="-62.5" font-family="Helvetica,sans-Serif" font-size="10.00">cmp_interface.h</text>
</a>
</g>
</g>
<!-- Node3&#45;&gt;Node6 -->
<g id="edge5_Node000003_Node000006" class="edge">
<title>Node3&#45;&gt;Node6</title>
<g id="a_edge5_Node000003_Node000006"><a xlink:title=" ">
<path fill="none" stroke="#63b8ff" d="M102.62,-111.59C102.62,-104.86 102.62,-95.53 102.62,-87.15"/>
<polygon fill="#63b8ff" stroke="#63b8ff" points="106.13,-87.3 102.62,-77.3 99.13,-87.3 106.13,-87.3"/>
</a>
</g>
</g>
<!-- Node6&#45;&gt;Node4 -->
<g id="edge7_Node000006_Node000004" class="edge">
<title>Node6&#45;&gt;Node4</title>
<g id="a_edge7_Node000006_Node000004"><a xlink:title=" ">
<path fill="none" stroke="#63b8ff" d="M96.35,-55.59C91.55,-48.39 84.78,-38.23 78.91,-29.43"/>
<polygon fill="#63b8ff" stroke="#63b8ff" points="81.28,-27.68 72.82,-21.3 75.46,-31.56 81.28,-27.68"/>
</a>
</g>
</g>
<!-- Node6&#45;&gt;Node5 -->
<g id="edge6_Node000006_Node000005" class="edge">
<title>Node6&#45;&gt;Node5</title>
<g id="a_edge6_Node000006_Node000005"><a xlink:title=" ">
<path fill="none" stroke="#63b8ff" d="M108.72,-55.59C113.39,-48.39 119.97,-38.23 125.68,-29.43"/>
<polygon fill="#63b8ff" stroke="#63b8ff" points="129.1,-31.59 131.6,-21.3 123.22,-27.79 129.1,-31.59"/>
</a>
</g>
</g>
</g>
</svg>
</svg>

<style type='text/css'>
<![CDATA[
[data-mouse-over-selected='false'] { opacity: 0.7; }
[data-mouse-over-selected='true']  { opacity: 1.0; }
]]>
</style>
<script type="application/ecmascript"><![CDATA[
document.addEventListener('DOMContentLoaded', (event) => {
  highlightEdges();
  highlightAdjacentNodes();
});
]]></script>
</svg>
