<?xml version="1.0" encoding="UTF-8" standalone="no"?>
<!DOCTYPE svg PUBLIC "-//W3C//DTD SVG 1.1//EN"
 "http://www.w3.org/Graphics/SVG/1.1/DTD/svg11.dtd">
<!-- Generated by graphviz version 8.1.0 (20230707.0739)
 -->
<!-- Title: psfb_droop.X/mcc_generated_files/pwm_hs/pwm.h Pages: 1 -->
<svg width="342pt" height="152pt"
 viewBox="0.00 0.00 342.12 152.00" xmlns="http://www.w3.org/2000/svg" xmlns:xlink="http://www.w3.org/1999/xlink">

<svg id="main" version="1.1" xmlns="http://www.w3.org/2000/svg" xmlns:xlink="http://www.w3.org/1999/xlink" xml:space="preserve">

<style type="text/css"><![CDATA[
.node, .edge {opacity: 0.7;}
.node.selected, .edge.selected {opacity: 1;}
.edge:hover path { stroke: red; }
.edge:hover polygon { stroke: red; fill: red; }
]]></style>
<script type="application/ecmascript" xlink:href="svg.min.js"/>
<svg id="graph" class="graph">
<g id="graph0" class="graph" transform="scale(1 1) rotate(0) translate(4 148)">
<title>psfb_droop.X/mcc_generated_files/pwm_hs/pwm.h</title>
<!-- Node1 -->
<g id="Node000001" class="node">
<title>Node1</title>
<g id="a_Node000001"><a xlink:title="This is the generated driver header file for the PWM driver.">
<polygon fill="#999999" stroke="#666666" points="251,-144 109.75,-144 109.75,-112 251,-112 251,-144"/>
<text text-anchor="start" x="117.75" y="-130.5" font-family="Helvetica,sans-Serif" font-size="10.00">psfb_droop.X/mcc_generated</text>
<text text-anchor="middle" x="180.38" y="-118.5" font-family="Helvetica,sans-Serif" font-size="10.00">_files/pwm_hs/pwm.h</text>
</a>
</g>
</g>
<!-- Node2 -->
<g id="Node000002" class="node">
<title>Node2</title>
<g id="a_Node000002"><a xlink:title=" ">
<polygon fill="#e0e0e0" stroke="#999999" points="34.75,-76 0,-76 0,-56 34.75,-56 34.75,-76"/>
<text text-anchor="middle" x="17.38" y="-62.5" font-family="Helvetica,sans-Serif" font-size="10.00">xc.h</text>
</a>
</g>
</g>
<!-- Node1&#45;&gt;Node2 -->
<g id="edge1_Node000001_Node000002" class="edge">
<title>Node1&#45;&gt;Node2</title>
<g id="a_edge1_Node000001_Node000002"><a xlink:title=" ">
<path fill="none" stroke="#63b8ff" d="M138.4,-111.55C109.02,-100.73 70.59,-86.59 45,-77.17"/>
<polygon fill="#63b8ff" stroke="#63b8ff" points="46.48,-73.61 35.88,-73.44 44.06,-80.18 46.48,-73.61"/>
</a>
</g>
</g>
<!-- Node3 -->
<g id="Node000003" class="node">
<title>Node3</title>
<g id="a_Node000003"><a xlink:title=" ">
<polygon fill="#e0e0e0" stroke="#999999" points="97.5,-20 49.25,-20 49.25,0 97.5,0 97.5,-20"/>
<text text-anchor="middle" x="73.38" y="-6.5" font-family="Helvetica,sans-Serif" font-size="10.00">stdint.h</text>
</a>
</g>
</g>
<!-- Node1&#45;&gt;Node3 -->
<g id="edge2_Node000001_Node000003" class="edge">
<title>Node1&#45;&gt;Node3</title>
<g id="a_edge2_Node000001_Node000003"><a xlink:title=" ">
<path fill="none" stroke="#63b8ff" d="M128.5,-111.52C110.84,-103.67 92.71,-92.26 81.38,-76 72.32,-63.01 70.75,-44.93 71.2,-31.13"/>
<polygon fill="#63b8ff" stroke="#63b8ff" points="74.75,-31.57 71.98,-21.35 67.77,-31.07 74.75,-31.57"/>
</a>
</g>
</g>
<!-- Node4 -->
<g id="Node000004" class="node">
<title>Node4</title>
<g id="a_Node000004"><a xlink:title=" ">
<polygon fill="#e0e0e0" stroke="#999999" points="175.25,-20 119.5,-20 119.5,0 175.25,0 175.25,-20"/>
<text text-anchor="middle" x="147.38" y="-6.5" font-family="Helvetica,sans-Serif" font-size="10.00">stdbool.h</text>
</a>
</g>
</g>
<!-- Node1&#45;&gt;Node4 -->
<g id="edge3_Node000001_Node000004" class="edge">
<title>Node1&#45;&gt;Node4</title>
<g id="a_edge3_Node000001_Node000004"><a xlink:title=" ">
<path fill="none" stroke="#63b8ff" d="M191.21,-111.56C200.1,-96.84 209.93,-74.28 201.38,-56 195.69,-43.86 184.94,-33.86 174.53,-26.39"/>
<polygon fill="#63b8ff" stroke="#63b8ff" points="176.86,-23.08 166.59,-20.49 173.01,-28.92 176.86,-23.08"/>
</a>
</g>
</g>
<!-- Node5 -->
<g id="Node000005" class="node">
<title>Node5</title>
<g id="a_Node000005"><a xlink:title=" ">
<polygon fill="#e0e0e0" stroke="#999999" points="334.12,-76 286.62,-76 286.62,-56 334.12,-56 334.12,-76"/>
<text text-anchor="middle" x="310.38" y="-62.5" font-family="Helvetica,sans-Serif" font-size="10.00">stdlib.h</text>
</a>
</g>
</g>
<!-- Node1&#45;&gt;Node5 -->
<g id="edge4_Node000001_Node000005" class="edge">
<title>Node1&#45;&gt;Node5</title>
<g id="a_edge4_Node000001_Node000005"><a xlink:title=" ">
<path fill="none" stroke="#63b8ff" d="M213.85,-111.55C234.35,-102.09 260.37,-90.08 280.23,-80.91"/>
<polygon fill="#63b8ff" stroke="#63b8ff" points="281.38,-83.78 288.99,-76.41 278.44,-77.42 281.38,-83.78"/>
</a>
</g>
</g>
<!-- Node6 -->
<g id="Node000006" class="node">
<title>Node6</title>
<g id="a_Node000006"><a xlink:href="a00128.html" target="_top" xlink:title="This is the generated driver types header file for the PWM driver.">
<polygon fill="white" stroke="#666666" points="296.12,-20 206.62,-20 206.62,0 296.12,0 296.12,-20"/>
<text text-anchor="middle" x="251.38" y="-6.5" font-family="Helvetica,sans-Serif" font-size="10.00">pwm_hs_types.h</text>
</a>
</g>
</g>
<!-- Node1&#45;&gt;Node6 -->
<g id="edge5_Node000001_Node000006" class="edge">
<title>Node1&#45;&gt;Node6</title>
<g id="a_edge5_Node000001_Node000006"><a xlink:title=" ">
<path fill="none" stroke="#63b8ff" d="M191.9,-111.7C199.23,-101.74 208.73,-88.35 216.38,-76 225.65,-61.02 235.06,-43.38 241.78,-30.26"/>
<polygon fill="#63b8ff" stroke="#63b8ff" points="245.35,-31.96 246.74,-21.46 239.1,-28.8 245.35,-31.96"/>
</a>
</g>
</g>
<!-- Node7 -->
<g id="Node000007" class="node">
<title>Node7</title>
<g id="a_Node000007"><a xlink:href="a00125_source.html" target="_top" xlink:title=" ">
<polygon fill="white" stroke="#666666" points="192.5,-76 90.25,-76 90.25,-56 192.5,-56 192.5,-76"/>
<text text-anchor="middle" x="141.38" y="-62.5" font-family="Helvetica,sans-Serif" font-size="10.00">pwm_hs_interface.h</text>
</a>
</g>
</g>
<!-- Node1&#45;&gt;Node7 -->
<g id="edge6_Node000001_Node000007" class="edge">
<title>Node1&#45;&gt;Node7</title>
<g id="a_edge6_Node000001_Node000007"><a xlink:title=" ">
<path fill="none" stroke="#63b8ff" d="M170.33,-111.55C165.14,-103.56 158.77,-93.76 153.33,-85.39"/>
<polygon fill="#63b8ff" stroke="#63b8ff" points="155.87,-83.88 147.49,-77.41 150.01,-87.7 155.87,-83.88"/>
</a>
</g>
</g>
<!-- Node7&#45;&gt;Node3 -->
<g id="edge8_Node000007_Node000003" class="edge">
<title>Node7&#45;&gt;Node3</title>
<g id="a_edge8_Node000007_Node000003"><a xlink:title=" ">
<path fill="none" stroke="#63b8ff" d="M129.53,-55.59C119.58,-47.7 105.16,-36.24 93.42,-26.92"/>
<polygon fill="#63b8ff" stroke="#63b8ff" points="96.09,-23.78 86.08,-20.3 91.74,-29.26 96.09,-23.78"/>
</a>
</g>
</g>
<!-- Node7&#45;&gt;Node4 -->
<g id="edge7_Node000007_Node000004" class="edge">
<title>Node7&#45;&gt;Node4</title>
<g id="a_edge7_Node000007_Node000004"><a xlink:title=" ">
<path fill="none" stroke="#63b8ff" d="M142.42,-55.59C143.17,-48.86 144.2,-39.53 145.14,-31.15"/>
<polygon fill="#63b8ff" stroke="#63b8ff" points="148.72,-31.62 146.34,-21.3 141.76,-30.85 148.72,-31.62"/>
</a>
</g>
</g>
<!-- Node7&#45;&gt;Node6 -->
<g id="edge9_Node000007_Node000006" class="edge">
<title>Node7&#45;&gt;Node6</title>
<g id="a_edge9_Node000007_Node000006"><a xlink:title=" ">
<path fill="none" stroke="#63b8ff" d="M160.54,-55.59C177.62,-47.21 202.89,-34.8 222.44,-25.21"/>
<polygon fill="#63b8ff" stroke="#63b8ff" points="223.63,-28.03 231.06,-20.48 220.55,-21.74 223.63,-28.03"/>
</a>
</g>
</g>
</g>
</svg>
</svg>

<style type='text/css'>
<![CDATA[
[data-mouse-over-selected='false'] { opacity: 0.7; }
[data-mouse-over-selected='true']  { opacity: 1.0; }
]]>
</style>
<script type="application/ecmascript"><![CDATA[
document.addEventListener('DOMContentLoaded', (event) => {
  highlightEdges();
  highlightAdjacentNodes();
});
]]></script>
</svg>
