<?xml version="1.0" encoding="UTF-8" standalone="no"?>
<!DOCTYPE svg PUBLIC "-//W3C//DTD SVG 1.1//EN"
 "http://www.w3.org/Graphics/SVG/1.1/DTD/svg11.dtd">
<!-- Generated by graphviz version 8.1.0 (20230707.0739)
 -->
<!-- Title: psfb_droop.X/sources/app/app_PBV_psfb_frame_map.h Pages: 1 -->
<svg width="200pt" height="152pt"
 viewBox="0.00 0.00 199.75 152.00" xmlns="http://www.w3.org/2000/svg" xmlns:xlink="http://www.w3.org/1999/xlink">

<svg id="main" version="1.1" xmlns="http://www.w3.org/2000/svg" xmlns:xlink="http://www.w3.org/1999/xlink" xml:space="preserve">

<style type="text/css"><![CDATA[
.node, .edge {opacity: 0.7;}
.node.selected, .edge.selected {opacity: 1;}
.edge:hover path { stroke: red; }
.edge:hover polygon { stroke: red; fill: red; }
]]></style>
<script type="application/ecmascript" xlink:href="svg.min.js"/>
<svg id="graph" class="graph">
<g id="graph0" class="graph" transform="scale(1 1) rotate(0) translate(4 148)">
<title>psfb_droop.X/sources/app/app_PBV_psfb_frame_map.h</title>
<!-- Node1 -->
<g id="Node000001" class="node">
<title>Node1</title>
<g id="a_Node000001"><a xlink:title="app PBV psfb Frame map file Example">
<polygon fill="#999999" stroke="#666666" points="163.75,-144 0,-144 0,-112 163.75,-112 163.75,-144"/>
<text text-anchor="start" x="8" y="-130.5" font-family="Helvetica,sans-Serif" font-size="10.00">psfb_droop.X/sources</text>
<text text-anchor="middle" x="81.88" y="-118.5" font-family="Helvetica,sans-Serif" font-size="10.00">/app/app_PBV_psfb_frame_map.h</text>
</a>
</g>
</g>
<!-- Node2 -->
<g id="Node000002" class="node">
<title>Node2</title>
<g id="a_Node000002"><a xlink:title=" ">
<polygon fill="#e0e0e0" stroke="#999999" points="58.25,-20 23.5,-20 23.5,0 58.25,0 58.25,-20"/>
<text text-anchor="middle" x="40.88" y="-6.5" font-family="Helvetica,sans-Serif" font-size="10.00">xc.h</text>
</a>
</g>
</g>
<!-- Node1&#45;&gt;Node2 -->
<g id="edge1_Node000001_Node000002" class="edge">
<title>Node1&#45;&gt;Node2</title>
<g id="a_edge1_Node000001_Node000002"><a xlink:title=" ">
<path fill="none" stroke="#63b8ff" d="M74.63,-111.57C70.08,-101.56 64.25,-88.16 59.88,-76 54.5,-61.1 49.52,-43.87 46.01,-30.9"/>
<polygon fill="#63b8ff" stroke="#63b8ff" points="49.17,-30.15 43.23,-21.37 42.4,-31.93 49.17,-30.15"/>
</a>
</g>
</g>
<!-- Node3 -->
<g id="Node000003" class="node">
<title>Node3</title>
<g id="a_Node000003"><a xlink:href="a00230_source.html" target="_top" xlink:title=" ">
<polygon fill="white" stroke="#666666" points="176.62,-76 69.12,-76 69.12,-56 176.62,-56 176.62,-76"/>
<text text-anchor="middle" x="122.88" y="-62.5" font-family="Helvetica,sans-Serif" font-size="10.00">app_PBV_interface.h</text>
</a>
</g>
</g>
<!-- Node1&#45;&gt;Node3 -->
<g id="edge2_Node000001_Node000003" class="edge">
<title>Node1&#45;&gt;Node3</title>
<g id="a_edge2_Node000001_Node000003"><a xlink:title=" ">
<path fill="none" stroke="#63b8ff" d="M92.43,-111.55C97.89,-103.56 104.59,-93.76 110.31,-85.39"/>
<polygon fill="#63b8ff" stroke="#63b8ff" points="113.69,-87.64 116.45,-77.41 107.91,-83.69 113.69,-87.64"/>
</a>
</g>
</g>
<!-- Node3&#45;&gt;Node2 -->
<g id="edge3_Node000003_Node000002" class="edge">
<title>Node3&#45;&gt;Node2</title>
<g id="a_edge3_Node000003_Node000002"><a xlink:title=" ">
<path fill="none" stroke="#63b8ff" d="M108.59,-55.59C96.32,-47.51 78.39,-35.71 64.07,-26.27"/>
<polygon fill="#63b8ff" stroke="#63b8ff" points="66.55,-23.06 56.27,-20.48 62.7,-28.9 66.55,-23.06"/>
</a>
</g>
</g>
<!-- Node4 -->
<g id="Node000004" class="node">
<title>Node4</title>
<g id="a_Node000004"><a xlink:href="a00245_source.html" target="_top" xlink:title=" ">
<polygon fill="white" stroke="#666666" points="191.75,-20 76,-20 76,0 191.75,0 191.75,-20"/>
<text text-anchor="middle" x="133.88" y="-6.5" font-family="Helvetica,sans-Serif" font-size="10.00">config/comms_config.h</text>
</a>
</g>
</g>
<!-- Node3&#45;&gt;Node4 -->
<g id="edge4_Node000003_Node000004" class="edge">
<title>Node3&#45;&gt;Node4</title>
<g id="a_edge4_Node000003_Node000004"><a xlink:title=" ">
<path fill="none" stroke="#63b8ff" d="M124.79,-55.59C126.18,-48.78 128.11,-39.32 129.83,-30.86"/>
<polygon fill="#63b8ff" stroke="#63b8ff" points="133.41,-31.8 131.98,-21.3 126.56,-30.4 133.41,-31.8"/>
</a>
</g>
</g>
</g>
</svg>
</svg>

<style type='text/css'>
<![CDATA[
[data-mouse-over-selected='false'] { opacity: 0.7; }
[data-mouse-over-selected='true']  { opacity: 1.0; }
]]>
</style>
<script type="application/ecmascript"><![CDATA[
document.addEventListener('DOMContentLoaded', (event) => {
  highlightEdges();
  highlightAdjacentNodes();
});
]]></script>
</svg>
