<?xml version="1.0" encoding="UTF-8" standalone="no"?>
<!DOCTYPE svg PUBLIC "-//W3C//DTD SVG 1.1//EN"
 "http://www.w3.org/Graphics/SVG/1.1/DTD/svg11.dtd">
<!-- Generated by graphviz version 8.1.0 (20230707.0739)
 -->
<!-- Title: psfb_droop.X/sources/app/app_PBV_psfb_frame_map.h Pages: 1 -->
<svg width="408pt" height="108pt"
 viewBox="0.00 0.00 407.75 108.00" xmlns="http://www.w3.org/2000/svg" xmlns:xlink="http://www.w3.org/1999/xlink">
<g id="graph0" class="graph" transform="scale(1 1) rotate(0) translate(4 104)">
<title>psfb_droop.X/sources/app/app_PBV_psfb_frame_map.h</title>
<!-- Node1 -->
<g id="Node000001" class="node">
<title>Node1</title>
<g id="a_Node000001"><a xlink:title="app PBV psfb Frame map file Example">
<polygon fill="#999999" stroke="#666666" points="251.75,-100 88,-100 88,-68 251.75,-68 251.75,-100"/>
<text text-anchor="start" x="96" y="-86.5" font-family="Helvetica,sans-Serif" font-size="10.00">psfb_droop.X/sources</text>
<text text-anchor="middle" x="169.88" y="-74.5" font-family="Helvetica,sans-Serif" font-size="10.00">/app/app_PBV_psfb_frame_map.h</text>
</a>
</g>
</g>
<!-- Node2 -->
<g id="Node000002" class="node">
<title>Node2</title>
<g id="a_Node000002"><a xlink:href="a00056_source.html" target="_top" xlink:title=" ">
<polygon fill="white" stroke="#666666" points="103.75,-26 0,-26 0,-6 103.75,-6 103.75,-26"/>
<text text-anchor="middle" x="51.88" y="-12.5" font-family="Helvetica,sans-Serif" font-size="10.00">psfb_droop.X/main.c</text>
</a>
</g>
</g>
<!-- Node1&#45;&gt;Node2 -->
<g id="edge1_Node000001_Node000002" class="edge">
<title>Node1&#45;&gt;Node2</title>
<g id="a_edge1_Node000001_Node000002"><a xlink:title=" ">
<path fill="none" stroke="#63b8ff" d="M132.73,-62.22C111.31,-50.24 85.4,-35.75 68.79,-26.46"/>
<polygon fill="#63b8ff" stroke="#63b8ff" points="130.77,-65.7 141.21,-67.53 134.19,-59.59 130.77,-65.7"/>
</a>
</g>
</g>
<!-- Node3 -->
<g id="Node000003" class="node">
<title>Node3</title>
<g id="a_Node000003"><a xlink:href="a00059_source.html" target="_top" xlink:title=" ">
<polygon fill="white" stroke="#666666" points="217.62,-32 122.12,-32 122.12,0 217.62,0 217.62,-32"/>
<text text-anchor="start" x="130.12" y="-18.5" font-family="Helvetica,sans-Serif" font-size="10.00">psfb_droop.X/main</text>
<text text-anchor="middle" x="169.88" y="-6.5" font-family="Helvetica,sans-Serif" font-size="10.00">_tasks.c</text>
</a>
</g>
</g>
<!-- Node1&#45;&gt;Node3 -->
<g id="edge2_Node000001_Node000003" class="edge">
<title>Node1&#45;&gt;Node3</title>
<g id="a_edge2_Node000001_Node000003"><a xlink:title=" ">
<path fill="none" stroke="#63b8ff" d="M169.88,-56.89C169.88,-48.52 169.88,-39.54 169.88,-32.22"/>
<polygon fill="#63b8ff" stroke="#63b8ff" points="166.38,-56.69 169.88,-66.69 173.38,-56.69 166.38,-56.69"/>
</a>
</g>
</g>
<!-- Node4 -->
<g id="Node000004" class="node">
<title>Node4</title>
<g id="a_Node000004"><a xlink:href="a00233_source.html" target="_top" xlink:title=" ">
<polygon fill="white" stroke="#666666" points="399.75,-32 236,-32 236,0 399.75,0 399.75,-32"/>
<text text-anchor="start" x="244" y="-18.5" font-family="Helvetica,sans-Serif" font-size="10.00">psfb_droop.X/sources</text>
<text text-anchor="middle" x="317.88" y="-6.5" font-family="Helvetica,sans-Serif" font-size="10.00">/app/app_PBV_psfb_frame_map.c</text>
</a>
</g>
</g>
<!-- Node1&#45;&gt;Node4 -->
<g id="edge3_Node000001_Node000004" class="edge">
<title>Node1&#45;&gt;Node4</title>
<g id="a_edge3_Node000001_Node000004"><a xlink:title=" ">
<path fill="none" stroke="#63b8ff" d="M214.37,-63.16C236.4,-53.33 262.61,-41.65 283.14,-32.49"/>
<polygon fill="#63b8ff" stroke="#63b8ff" points="213.28,-60.26 205.57,-67.53 216.13,-66.65 213.28,-60.26"/>
</a>
</g>
</g>
</g>
</svg>
