<?xml version="1.0" encoding="UTF-8" standalone="no"?>
<!DOCTYPE svg PUBLIC "-//W3C//DTD SVG 1.1//EN"
 "http://www.w3.org/Graphics/SVG/1.1/DTD/svg11.dtd">
<!-- Generated by graphviz version 8.1.0 (20230707.0739)
 -->
<!-- Title: psfb_droop.X/mcc_generated_files/uart/uart_types.h Pages: 1 -->
<svg width="445pt" height="244pt"
 viewBox="0.00 0.00 444.62 244.00" xmlns="http://www.w3.org/2000/svg" xmlns:xlink="http://www.w3.org/1999/xlink">

<svg id="main" version="1.1" xmlns="http://www.w3.org/2000/svg" xmlns:xlink="http://www.w3.org/1999/xlink" xml:space="preserve">

<style type="text/css"><![CDATA[
.node, .edge {opacity: 0.7;}
.node.selected, .edge.selected {opacity: 1;}
.edge:hover path { stroke: red; }
.edge:hover polygon { stroke: red; fill: red; }
]]></style>
<script type="application/ecmascript" xlink:href="svg.min.js"/>
<svg id="graph" class="graph">
<g id="graph0" class="graph" transform="scale(1 1) rotate(0) translate(4 240)">
<title>psfb_droop.X/mcc_generated_files/uart/uart_types.h</title>
<!-- Node1 -->
<g id="Node000001" class="node">
<title>Node1</title>
<g id="a_Node000001"><a xlink:title="This is the generated driver types header file for the UART driver.">
<polygon fill="#999999" stroke="#666666" points="300.25,-236 159,-236 159,-204 300.25,-204 300.25,-236"/>
<text text-anchor="start" x="167" y="-222.5" font-family="Helvetica,sans-Serif" font-size="10.00">psfb_droop.X/mcc_generated</text>
<text text-anchor="middle" x="229.62" y="-210.5" font-family="Helvetica,sans-Serif" font-size="10.00">_files/uart/uart_types.h</text>
</a>
</g>
</g>
<!-- Node2 -->
<g id="Node000002" class="node">
<title>Node2</title>
<g id="a_Node000002"><a xlink:href="a00209_source.html" target="_top" xlink:title=" ">
<polygon fill="white" stroke="#666666" points="300.25,-168 159,-168 159,-136 300.25,-136 300.25,-168"/>
<text text-anchor="start" x="167" y="-154.5" font-family="Helvetica,sans-Serif" font-size="10.00">psfb_droop.X/mcc_generated</text>
<text text-anchor="middle" x="229.62" y="-142.5" font-family="Helvetica,sans-Serif" font-size="10.00">_files/uart/uart_interface.h</text>
</a>
</g>
</g>
<!-- Node1&#45;&gt;Node2 -->
<g id="edge1_Node000001_Node000002" class="edge">
<title>Node1&#45;&gt;Node2</title>
<g id="a_edge1_Node000001_Node000002"><a xlink:title=" ">
<path fill="none" stroke="#63b8ff" d="M229.62,-192.89C229.62,-184.52 229.62,-175.54 229.62,-168.22"/>
<polygon fill="#63b8ff" stroke="#63b8ff" points="226.13,-192.69 229.62,-202.69 233.13,-192.69 226.13,-192.69"/>
</a>
</g>
</g>
<!-- Node3 -->
<g id="Node000003" class="node">
<title>Node3</title>
<g id="a_Node000003"><a xlink:href="a00206.html" target="_top" xlink:title="This is the generated driver header file for the UART1 driver.">
<polygon fill="white" stroke="#666666" points="300.25,-100 159,-100 159,-68 300.25,-68 300.25,-100"/>
<text text-anchor="start" x="167" y="-86.5" font-family="Helvetica,sans-Serif" font-size="10.00">psfb_droop.X/mcc_generated</text>
<text text-anchor="middle" x="229.62" y="-74.5" font-family="Helvetica,sans-Serif" font-size="10.00">_files/uart/uart1.h</text>
</a>
</g>
</g>
<!-- Node2&#45;&gt;Node3 -->
<g id="edge2_Node000002_Node000003" class="edge">
<title>Node2&#45;&gt;Node3</title>
<g id="a_edge2_Node000002_Node000003"><a xlink:title=" ">
<path fill="none" stroke="#63b8ff" d="M229.62,-124.89C229.62,-116.52 229.62,-107.54 229.62,-100.22"/>
<polygon fill="#63b8ff" stroke="#63b8ff" points="226.13,-124.69 229.62,-134.69 233.13,-124.69 226.13,-124.69"/>
</a>
</g>
</g>
<!-- Node4 -->
<g id="Node000004" class="node">
<title>Node4</title>
<g id="a_Node000004"><a xlink:href="a00176.html" target="_top" xlink:title="This is the generated driver header file for the System driver.">
<polygon fill="white" stroke="#666666" points="141.25,-32 0,-32 0,0 141.25,0 141.25,-32"/>
<text text-anchor="start" x="8" y="-18.5" font-family="Helvetica,sans-Serif" font-size="10.00">psfb_droop.X/mcc_generated</text>
<text text-anchor="middle" x="70.62" y="-6.5" font-family="Helvetica,sans-Serif" font-size="10.00">_files/system/src/system.c</text>
</a>
</g>
</g>
<!-- Node3&#45;&gt;Node4 -->
<g id="edge3_Node000003_Node000004" class="edge">
<title>Node3&#45;&gt;Node4</title>
<g id="a_edge3_Node000003_Node000004"><a xlink:title=" ">
<path fill="none" stroke="#63b8ff" d="M182.46,-63.42C158.66,-53.54 130.2,-41.73 107.95,-32.49"/>
<polygon fill="#63b8ff" stroke="#63b8ff" points="180.77,-66.92 191.35,-67.53 183.45,-60.46 180.77,-66.92"/>
</a>
</g>
</g>
<!-- Node5 -->
<g id="Node000005" class="node">
<title>Node5</title>
<g id="a_Node000005"><a xlink:href="a00203.html" target="_top" xlink:title="This is the generated driver source file for the UART1 driver.">
<polygon fill="white" stroke="#666666" points="300.25,-32 159,-32 159,0 300.25,0 300.25,-32"/>
<text text-anchor="start" x="167" y="-18.5" font-family="Helvetica,sans-Serif" font-size="10.00">psfb_droop.X/mcc_generated</text>
<text text-anchor="middle" x="229.62" y="-6.5" font-family="Helvetica,sans-Serif" font-size="10.00">_files/uart/src/uart1.c</text>
</a>
</g>
</g>
<!-- Node3&#45;&gt;Node5 -->
<g id="edge4_Node000003_Node000005" class="edge">
<title>Node3&#45;&gt;Node5</title>
<g id="a_edge4_Node000003_Node000005"><a xlink:title=" ">
<path fill="none" stroke="#63b8ff" d="M229.62,-56.89C229.62,-48.52 229.62,-39.54 229.62,-32.22"/>
<polygon fill="#63b8ff" stroke="#63b8ff" points="226.13,-56.69 229.62,-66.69 233.13,-56.69 226.13,-56.69"/>
</a>
</g>
</g>
<!-- Node6 -->
<g id="Node000006" class="node">
<title>Node6</title>
<g id="a_Node000006"><a xlink:href="a00239_source.html" target="_top" xlink:title=" ">
<polygon fill="white" stroke="#666666" points="436.62,-32 318.62,-32 318.62,0 436.62,0 436.62,-32"/>
<text text-anchor="start" x="326.62" y="-18.5" font-family="Helvetica,sans-Serif" font-size="10.00">psfb_droop.X/sources</text>
<text text-anchor="middle" x="377.62" y="-6.5" font-family="Helvetica,sans-Serif" font-size="10.00">/app/app_PBV_UART.c</text>
</a>
</g>
</g>
<!-- Node3&#45;&gt;Node6 -->
<g id="edge5_Node000003_Node000006" class="edge">
<title>Node3&#45;&gt;Node6</title>
<g id="a_edge5_Node000003_Node000006"><a xlink:title=" ">
<path fill="none" stroke="#63b8ff" d="M274.12,-63.16C296.15,-53.33 322.36,-41.65 342.89,-32.49"/>
<polygon fill="#63b8ff" stroke="#63b8ff" points="273.03,-60.26 265.32,-67.53 275.88,-66.65 273.03,-60.26"/>
</a>
</g>
</g>
</g>
</svg>
</svg>

<style type='text/css'>
<![CDATA[
[data-mouse-over-selected='false'] { opacity: 0.7; }
[data-mouse-over-selected='true']  { opacity: 1.0; }
]]>
</style>
<script type="application/ecmascript"><![CDATA[
document.addEventListener('DOMContentLoaded', (event) => {
  highlightEdges();
  highlightAdjacentNodes();
});
]]></script>
</svg>
