<?xml version="1.0" encoding="UTF-8" standalone="no"?>
<!DOCTYPE svg PUBLIC "-//W3C//DTD SVG 1.1//EN"
 "http://www.w3.org/Graphics/SVG/1.1/DTD/svg11.dtd">
<!-- Generated by graphviz version 8.1.0 (20230707.0739)
 -->
<!-- Title: psfb_droop.X/sources/driver/mcc_extension/drv_custom_config_pwm.h Pages: 1 -->
<svg width="566pt" height="288pt"
 viewBox="0.00 0.00 565.91 288.00" xmlns="http://www.w3.org/2000/svg" xmlns:xlink="http://www.w3.org/1999/xlink">
<g id="graph0" class="graph" transform="scale(1 1) rotate(0) translate(4 284)">
<title>psfb_droop.X/sources/driver/mcc_extension/drv_custom_config_pwm.h</title>
<!-- Node1 -->
<g id="Node000001" class="node">
<title>Node1</title>
<g id="a_Node000001"><a xlink:title="Contains PWM initialization that was not supported by MCC generated code.">
<polygon fill="#999999" stroke="#666666" points="267,-280 134,-280 134,-236 267,-236 267,-280"/>
<text text-anchor="start" x="142" y="-266.5" font-family="Helvetica,sans-Serif" font-size="10.00">psfb_droop.X/sources</text>
<text text-anchor="start" x="142" y="-254.5" font-family="Helvetica,sans-Serif" font-size="10.00">/driver/mcc_extension</text>
<text text-anchor="middle" x="200.5" y="-242.5" font-family="Helvetica,sans-Serif" font-size="10.00">/drv_custom_config_pwm.h</text>
</a>
</g>
</g>
<!-- Node2 -->
<g id="Node000002" class="node">
<title>Node2</title>
<g id="a_Node000002"><a xlink:href="a00416_source.html" target="_top" xlink:title=" ">
<polygon fill="white" stroke="#666666" points="158,-200 37,-200 37,-180 158,-180 158,-200"/>
<text text-anchor="middle" x="97.5" y="-186.5" font-family="Helvetica,sans-Serif" font-size="10.00">pwrctrl/pwrctrl_typedef.h</text>
</a>
</g>
</g>
<!-- Node1&#45;&gt;Node2 -->
<g id="edge1_Node000001_Node000002" class="edge">
<title>Node1&#45;&gt;Node2</title>
<g id="a_edge1_Node000001_Node000002"><a xlink:title=" ">
<path fill="none" stroke="#63b8ff" d="M167.06,-235.57C152.12,-226 134.86,-214.94 121.28,-206.24"/>
<polygon fill="#63b8ff" stroke="#63b8ff" points="123.42,-202.81 113.12,-200.37 119.65,-208.71 123.42,-202.81"/>
</a>
</g>
</g>
<!-- Node7 -->
<g id="Node000007" class="node">
<title>Node7</title>
<g id="a_Node000007"><a xlink:href="a00290.html" target="_top" xlink:title="Contains public functions and defines for the MCC code extension for PWM.">
<polygon fill="white" stroke="#666666" points="250.12,-144 150.88,-144 150.88,-112 250.12,-112 250.12,-144"/>
<text text-anchor="start" x="158.88" y="-130.5" font-family="Helvetica,sans-Serif" font-size="10.00">drv_mcc_extension</text>
<text text-anchor="middle" x="200.5" y="-118.5" font-family="Helvetica,sans-Serif" font-size="10.00">_pwm.h</text>
</a>
</g>
</g>
<!-- Node1&#45;&gt;Node7 -->
<g id="edge6_Node000001_Node000007" class="edge">
<title>Node1&#45;&gt;Node7</title>
<g id="a_edge6_Node000001_Node000007"><a xlink:title=" ">
<path fill="none" stroke="#63b8ff" d="M200.5,-235.58C200.5,-213.54 200.5,-179.17 200.5,-155.45"/>
<polygon fill="#63b8ff" stroke="#63b8ff" points="204,-155.45 200.5,-145.45 197,-155.45 204,-155.45"/>
</a>
</g>
</g>
<!-- Node10 -->
<g id="Node000010" class="node">
<title>Node10</title>
<g id="a_Node000010"><a xlink:href="a00119.html" target="_top" xlink:title="This is the generated driver header file for the PWM driver.">
<polygon fill="white" stroke="#666666" points="430.25,-138 346.75,-138 346.75,-118 430.25,-118 430.25,-138"/>
<text text-anchor="middle" x="388.5" y="-124.5" font-family="Helvetica,sans-Serif" font-size="10.00">pwm_hs/pwm.h</text>
</a>
</g>
</g>
<!-- Node1&#45;&gt;Node10 -->
<g id="edge11_Node000001_Node000010" class="edge">
<title>Node1&#45;&gt;Node10</title>
<g id="a_edge11_Node000001_Node000010"><a xlink:title=" ">
<path fill="none" stroke="#63b8ff" d="M231.97,-235.58C269.83,-209.8 332.47,-167.15 365.88,-144.4"/>
<polygon fill="#63b8ff" stroke="#63b8ff" points="367.57,-146.81 373.86,-138.29 363.63,-141.02 367.57,-146.81"/>
</a>
</g>
</g>
<!-- Node3 -->
<g id="Node000003" class="node">
<title>Node3</title>
<g id="a_Node000003"><a xlink:href="a00317.html" target="_top" xlink:title="Contains fault data types.">
<polygon fill="white" stroke="#666666" points="122.5,-138 22.5,-138 22.5,-118 122.5,-118 122.5,-138"/>
<text text-anchor="middle" x="72.5" y="-124.5" font-family="Helvetica,sans-Serif" font-size="10.00">fault/fault_typedef.h</text>
</a>
</g>
</g>
<!-- Node2&#45;&gt;Node3 -->
<g id="edge2_Node000002_Node000003" class="edge">
<title>Node2&#45;&gt;Node3</title>
<g id="a_edge2_Node000002_Node000003"><a xlink:title=" ">
<path fill="none" stroke="#63b8ff" d="M93.59,-179.62C90.09,-171.21 84.83,-158.6 80.45,-148.07"/>
<polygon fill="#63b8ff" stroke="#63b8ff" points="83.37,-147 76.3,-139.11 76.91,-149.69 83.37,-147"/>
</a>
</g>
</g>
<!-- Node4 -->
<g id="Node000004" class="node">
<title>Node4</title>
<g id="a_Node000004"><a xlink:href="a00308.html" target="_top" xlink:title="Contains fault generic public functions.">
<polygon fill="white" stroke="#666666" points="85,-76 0,-76 0,-56 85,-56 85,-76"/>
<text text-anchor="middle" x="42.5" y="-62.5" font-family="Helvetica,sans-Serif" font-size="10.00">fault_common.h</text>
</a>
</g>
</g>
<!-- Node3&#45;&gt;Node4 -->
<g id="edge3_Node000003_Node000004" class="edge">
<title>Node3&#45;&gt;Node4</title>
<g id="a_edge3_Node000003_Node000004"><a xlink:title=" ">
<path fill="none" stroke="#63b8ff" d="M67.81,-117.62C63.56,-109.12 57.17,-96.33 51.87,-85.74"/>
<polygon fill="#63b8ff" stroke="#63b8ff" points="54.66,-84.49 47.06,-77.11 48.4,-87.62 54.66,-84.49"/>
</a>
</g>
</g>
<!-- Node5 -->
<g id="Node000005" class="node">
<title>Node5</title>
<g id="a_Node000005"><a xlink:title=" ">
<polygon fill="#e0e0e0" stroke="#999999" points="268.62,-20 220.38,-20 220.38,0 268.62,0 268.62,-20"/>
<text text-anchor="middle" x="244.5" y="-6.5" font-family="Helvetica,sans-Serif" font-size="10.00">stdint.h</text>
</a>
</g>
</g>
<!-- Node4&#45;&gt;Node5 -->
<g id="edge4_Node000004_Node000005" class="edge">
<title>Node4&#45;&gt;Node5</title>
<g id="a_edge4_Node000004_Node000005"><a xlink:title=" ">
<path fill="none" stroke="#63b8ff" d="M77.69,-55.59C114.72,-45.69 172.67,-30.2 209.6,-20.33"/>
<polygon fill="#63b8ff" stroke="#63b8ff" points="210.13,-23.54 218.88,-17.58 208.32,-16.78 210.13,-23.54"/>
</a>
</g>
</g>
<!-- Node6 -->
<g id="Node000006" class="node">
<title>Node6</title>
<g id="a_Node000006"><a xlink:title=" ">
<polygon fill="#e0e0e0" stroke="#999999" points="365.38,-20 309.62,-20 309.62,0 365.38,0 365.38,-20"/>
<text text-anchor="middle" x="337.5" y="-6.5" font-family="Helvetica,sans-Serif" font-size="10.00">stdbool.h</text>
</a>
</g>
</g>
<!-- Node4&#45;&gt;Node6 -->
<g id="edge5_Node000004_Node000006" class="edge">
<title>Node4&#45;&gt;Node6</title>
<g id="a_edge5_Node000004_Node000006"><a xlink:title=" ">
<path fill="none" stroke="#63b8ff" d="M85.4,-57.15C142.65,-46.67 243.24,-28.25 298.47,-18.14"/>
<polygon fill="#63b8ff" stroke="#63b8ff" points="299,-21.42 308.21,-16.18 297.74,-14.54 299,-21.42"/>
</a>
</g>
</g>
<!-- Node7&#45;&gt;Node5 -->
<g id="edge8_Node000007_Node000005" class="edge">
<title>Node7&#45;&gt;Node5</title>
<g id="a_edge8_Node000007_Node000005"><a xlink:title=" ">
<path fill="none" stroke="#63b8ff" d="M198.86,-111.68C197.88,-96.86 198.04,-74.04 205.5,-56 209.85,-45.48 217.68,-35.68 225.19,-27.93"/>
<polygon fill="#63b8ff" stroke="#63b8ff" points="227.25,-30.84 232.03,-21.39 222.39,-25.8 227.25,-30.84"/>
</a>
</g>
</g>
<!-- Node7&#45;&gt;Node6 -->
<g id="edge9_Node000007_Node000006" class="edge">
<title>Node7&#45;&gt;Node6</title>
<g id="a_edge9_Node000007_Node000006"><a xlink:title=" ">
<path fill="none" stroke="#63b8ff" d="M205.42,-111.58C211.15,-95.81 221.97,-71.49 238.5,-56 255.55,-40.02 279.25,-28.98 299.19,-21.83"/>
<polygon fill="#63b8ff" stroke="#63b8ff" points="300.16,-24.86 308.51,-18.34 297.92,-18.22 300.16,-24.86"/>
</a>
</g>
</g>
<!-- Node8 -->
<g id="Node000008" class="node">
<title>Node8</title>
<g id="a_Node000008"><a xlink:title=" ">
<polygon fill="#e0e0e0" stroke="#999999" points="281.88,-76 247.12,-76 247.12,-56 281.88,-56 281.88,-76"/>
<text text-anchor="middle" x="264.5" y="-62.5" font-family="Helvetica,sans-Serif" font-size="10.00">xc.h</text>
</a>
</g>
</g>
<!-- Node7&#45;&gt;Node8 -->
<g id="edge7_Node000007_Node000008" class="edge">
<title>Node7&#45;&gt;Node8</title>
<g id="a_edge7_Node000007_Node000008"><a xlink:title=" ">
<path fill="none" stroke="#63b8ff" d="M216.98,-111.55C226.06,-103.04 237.33,-92.48 246.61,-83.77"/>
<polygon fill="#63b8ff" stroke="#63b8ff" points="248.56,-86.8 253.46,-77.41 243.78,-81.69 248.56,-86.8"/>
</a>
</g>
</g>
<!-- Node9 -->
<g id="Node000009" class="node">
<title>Node9</title>
<g id="a_Node000009"><a xlink:title=" ">
<polygon fill="#e0e0e0" stroke="#999999" points="153.75,-76 103.25,-76 103.25,-56 153.75,-56 153.75,-76"/>
<text text-anchor="middle" x="128.5" y="-62.5" font-family="Helvetica,sans-Serif" font-size="10.00">stddef.h</text>
</a>
</g>
</g>
<!-- Node7&#45;&gt;Node9 -->
<g id="edge10_Node000007_Node000009" class="edge">
<title>Node7&#45;&gt;Node9</title>
<g id="a_edge10_Node000007_Node000009"><a xlink:title=" ">
<path fill="none" stroke="#63b8ff" d="M181.96,-111.55C171.54,-102.87 158.55,-92.04 147.99,-83.24"/>
<polygon fill="#63b8ff" stroke="#63b8ff" points="150.71,-80.12 140.79,-76.41 146.23,-85.5 150.71,-80.12"/>
</a>
</g>
</g>
<!-- Node10&#45;&gt;Node5 -->
<g id="edge13_Node000010_Node000005" class="edge">
<title>Node10&#45;&gt;Node5</title>
<g id="a_edge13_Node000010_Node000005"><a xlink:title=" ">
<path fill="none" stroke="#63b8ff" d="M376.72,-117.51C352.12,-97.7 295.09,-51.76 264.59,-27.19"/>
<polygon fill="#63b8ff" stroke="#63b8ff" points="267.03,-23.85 257.04,-20.3 262.64,-29.3 267.03,-23.85"/>
</a>
</g>
</g>
<!-- Node10&#45;&gt;Node6 -->
<g id="edge14_Node000010_Node000006" class="edge">
<title>Node10&#45;&gt;Node6</title>
<g id="a_edge14_Node000010_Node000006"><a xlink:title=" ">
<path fill="none" stroke="#63b8ff" d="M406.67,-117.66C429.67,-104.56 464.46,-79.69 448.5,-56 439.98,-43.35 404.75,-30.41 376.23,-21.68"/>
<polygon fill="#63b8ff" stroke="#63b8ff" points="377.29,-18.04 366.7,-18.54 375.29,-24.75 377.29,-18.04"/>
</a>
</g>
</g>
<!-- Node10&#45;&gt;Node8 -->
<g id="edge12_Node000010_Node000008" class="edge">
<title>Node10&#45;&gt;Node8</title>
<g id="a_edge12_Node000010_Node000008"><a xlink:title=" ">
<path fill="none" stroke="#63b8ff" d="M369.12,-117.62C348.36,-107.58 315.22,-91.54 291.82,-80.22"/>
<polygon fill="#63b8ff" stroke="#63b8ff" points="293.66,-76.74 283.13,-75.53 290.61,-83.04 293.66,-76.74"/>
</a>
</g>
</g>
<!-- Node11 -->
<g id="Node000011" class="node">
<title>Node11</title>
<g id="a_Node000011"><a xlink:title=" ">
<polygon fill="#e0e0e0" stroke="#999999" points="543.25,-76 495.75,-76 495.75,-56 543.25,-56 543.25,-76"/>
<text text-anchor="middle" x="519.5" y="-62.5" font-family="Helvetica,sans-Serif" font-size="10.00">stdlib.h</text>
</a>
</g>
</g>
<!-- Node10&#45;&gt;Node11 -->
<g id="edge15_Node000010_Node000011" class="edge">
<title>Node10&#45;&gt;Node11</title>
<g id="a_edge15_Node000010_Node000011"><a xlink:title=" ">
<path fill="none" stroke="#63b8ff" d="M408.97,-117.62C430.5,-107.76 464.62,-92.13 489.26,-80.85"/>
<polygon fill="#63b8ff" stroke="#63b8ff" points="490.54,-83.66 498.17,-76.31 487.63,-77.29 490.54,-83.66"/>
</a>
</g>
</g>
<!-- Node12 -->
<g id="Node000012" class="node">
<title>Node12</title>
<g id="a_Node000012"><a xlink:href="a00128.html" target="_top" xlink:title="This is the generated driver types header file for the PWM driver.">
<polygon fill="white" stroke="#666666" points="484.25,-20 394.75,-20 394.75,0 484.25,0 484.25,-20"/>
<text text-anchor="middle" x="439.5" y="-6.5" font-family="Helvetica,sans-Serif" font-size="10.00">pwm_hs_types.h</text>
</a>
</g>
</g>
<!-- Node10&#45;&gt;Node12 -->
<g id="edge16_Node000010_Node000012" class="edge">
<title>Node10&#45;&gt;Node12</title>
<g id="a_edge16_Node000010_Node000012"><a xlink:title=" ">
<path fill="none" stroke="#63b8ff" d="M430.66,-126.93C469.35,-124.34 524.74,-113.7 552.5,-76 572.06,-49.43 532.69,-32.04 495.17,-21.99"/>
<polygon fill="#63b8ff" stroke="#63b8ff" points="496.24,-18.4 485.69,-19.35 494.53,-25.19 496.24,-18.4"/>
</a>
</g>
</g>
<!-- Node13 -->
<g id="Node000013" class="node">
<title>Node13</title>
<g id="a_Node000013"><a xlink:href="a00125_source.html" target="_top" xlink:title=" ">
<polygon fill="white" stroke="#666666" points="439.62,-76 337.38,-76 337.38,-56 439.62,-56 439.62,-76"/>
<text text-anchor="middle" x="388.5" y="-62.5" font-family="Helvetica,sans-Serif" font-size="10.00">pwm_hs_interface.h</text>
</a>
</g>
</g>
<!-- Node10&#45;&gt;Node13 -->
<g id="edge17_Node000010_Node000013" class="edge">
<title>Node10&#45;&gt;Node13</title>
<g id="a_edge17_Node000010_Node000013"><a xlink:title=" ">
<path fill="none" stroke="#63b8ff" d="M388.5,-117.62C388.5,-109.48 388.5,-97.39 388.5,-87.07"/>
<polygon fill="#63b8ff" stroke="#63b8ff" points="392,-87.11 388.5,-77.11 385,-87.11 392,-87.11"/>
</a>
</g>
</g>
<!-- Node13&#45;&gt;Node5 -->
<g id="edge19_Node000013_Node000005" class="edge">
<title>Node13&#45;&gt;Node5</title>
<g id="a_edge19_Node000013_Node000005"><a xlink:title=" ">
<path fill="none" stroke="#63b8ff" d="M363.42,-55.59C340.05,-46.83 304.99,-33.68 278.99,-23.93"/>
<polygon fill="#63b8ff" stroke="#63b8ff" points="280.41,-20.35 269.82,-20.12 277.95,-26.91 280.41,-20.35"/>
</a>
</g>
</g>
<!-- Node13&#45;&gt;Node6 -->
<g id="edge18_Node000013_Node000006" class="edge">
<title>Node13&#45;&gt;Node6</title>
<g id="a_edge18_Node000013_Node000006"><a xlink:title=" ">
<path fill="none" stroke="#63b8ff" d="M379.62,-55.59C372.45,-48.01 362.18,-37.13 353.58,-28.02"/>
<polygon fill="#63b8ff" stroke="#63b8ff" points="356.69,-26.17 347.28,-21.3 351.6,-30.97 356.69,-26.17"/>
</a>
</g>
</g>
<!-- Node13&#45;&gt;Node12 -->
<g id="edge20_Node000013_Node000012" class="edge">
<title>Node13&#45;&gt;Node12</title>
<g id="a_edge20_Node000013_Node000012"><a xlink:title=" ">
<path fill="none" stroke="#63b8ff" d="M397.38,-55.59C404.55,-48.01 414.82,-37.13 423.42,-28.02"/>
<polygon fill="#63b8ff" stroke="#63b8ff" points="425.4,-30.97 429.72,-21.3 420.31,-26.17 425.4,-30.97"/>
</a>
</g>
</g>
</g>
</svg>
