<?xml version="1.0" encoding="UTF-8" standalone="no"?>
<!DOCTYPE svg PUBLIC "-//W3C//DTD SVG 1.1//EN"
 "http://www.w3.org/Graphics/SVG/1.1/DTD/svg11.dtd">
<!-- Generated by graphviz version 8.1.0 (20230707.0739)
 -->
<!-- Title: psfb_droop.X/sources/device/dev_adc_sensor_offsets.h Pages: 1 -->
<svg width="459pt" height="400pt"
 viewBox="0.00 0.00 458.93 400.00" xmlns="http://www.w3.org/2000/svg" xmlns:xlink="http://www.w3.org/1999/xlink">
<g id="graph0" class="graph" transform="scale(1 1) rotate(0) translate(4 396)">
<title>psfb_droop.X/sources/device/dev_adc_sensor_offsets.h</title>
<!-- Node1 -->
<g id="Node000001" class="node">
<title>Node1</title>
<g id="a_Node000001"><a xlink:title="measure current sensor offsets">
<polygon fill="#999999" stroke="#666666" points="186.75,-392 68,-392 68,-348 186.75,-348 186.75,-392"/>
<text text-anchor="start" x="76" y="-378.5" font-family="Helvetica,sans-Serif" font-size="10.00">psfb_droop.X/sources</text>
<text text-anchor="start" x="76" y="-366.5" font-family="Helvetica,sans-Serif" font-size="10.00">/device/dev_adc_sensor</text>
<text text-anchor="middle" x="127.38" y="-354.5" font-family="Helvetica,sans-Serif" font-size="10.00">_offsets.h</text>
</a>
</g>
</g>
<!-- Node2 -->
<g id="Node000002" class="node">
<title>Node2</title>
<g id="a_Node000002"><a xlink:title=" ">
<polygon fill="#e0e0e0" stroke="#999999" points="34.75,-88 0,-88 0,-68 34.75,-68 34.75,-88"/>
<text text-anchor="middle" x="17.38" y="-74.5" font-family="Helvetica,sans-Serif" font-size="10.00">xc.h</text>
</a>
</g>
</g>
<!-- Node1&#45;&gt;Node2 -->
<g id="edge1_Node000001_Node000002" class="edge">
<title>Node1&#45;&gt;Node2</title>
<g id="a_edge1_Node000001_Node000002"><a xlink:title=" ">
<path fill="none" stroke="#63b8ff" d="M89.25,-347.7C74.96,-338.24 59.5,-326.05 48.38,-312 28.96,-287.48 21.38,-278.28 21.38,-247 21.38,-247 21.38,-247 21.38,-189 21.38,-157.7 19.74,-121.43 18.56,-99.36"/>
<polygon fill="#63b8ff" stroke="#63b8ff" points="22,-99.2 17.95,-89.41 15.01,-99.59 22,-99.2"/>
</a>
</g>
</g>
<!-- Node3 -->
<g id="Node000003" class="node">
<title>Node3</title>
<g id="a_Node000003"><a xlink:title=" ">
<polygon fill="#e0e0e0" stroke="#999999" points="168.5,-26 120.25,-26 120.25,-6 168.5,-6 168.5,-26"/>
<text text-anchor="middle" x="144.38" y="-12.5" font-family="Helvetica,sans-Serif" font-size="10.00">stdint.h</text>
</a>
</g>
</g>
<!-- Node1&#45;&gt;Node3 -->
<g id="edge2_Node000001_Node000003" class="edge">
<title>Node1&#45;&gt;Node3</title>
<g id="a_edge2_Node000001_Node000003"><a xlink:title=" ">
<path fill="none" stroke="#63b8ff" d="M107.87,-347.88C88.73,-324.88 62.38,-286.12 62.38,-247 62.38,-247 62.38,-247 62.38,-133 62.38,-102.36 68.1,-93.31 85.38,-68 94.8,-54.19 108.87,-41.83 120.9,-32.74"/>
<polygon fill="#63b8ff" stroke="#63b8ff" points="122.54,-35.15 128.6,-26.46 118.44,-29.48 122.54,-35.15"/>
</a>
</g>
</g>
<!-- Node4 -->
<g id="Node000004" class="node">
<title>Node4</title>
<g id="a_Node000004"><a xlink:href="a00383_source.html" target="_top" xlink:title=" ">
<polygon fill="white" stroke="#666666" points="234.5,-312 150.25,-312 150.25,-292 234.5,-292 234.5,-312"/>
<text text-anchor="middle" x="192.38" y="-298.5" font-family="Helvetica,sans-Serif" font-size="10.00">pwrctrl/pwrctrl.h</text>
</a>
</g>
</g>
<!-- Node1&#45;&gt;Node4 -->
<g id="edge3_Node000001_Node000004" class="edge">
<title>Node1&#45;&gt;Node4</title>
<g id="a_edge3_Node000001_Node000004"><a xlink:title=" ">
<path fill="none" stroke="#63b8ff" d="M148.3,-347.75C157.09,-338.82 167.19,-328.57 175.5,-320.13"/>
<polygon fill="#63b8ff" stroke="#63b8ff" points="177.58,-323 182.1,-313.42 172.59,-318.09 177.58,-323"/>
</a>
</g>
</g>
<!-- Node12 -->
<g id="Node000012" class="node">
<title>Node12</title>
<g id="a_Node000012"><a xlink:href="a00062.html" target="_top" xlink:title="This is the generated driver header file for the ADC1 driver.">
<polygon fill="white" stroke="#666666" points="313.38,-144 249.38,-144 249.38,-124 313.38,-124 313.38,-144"/>
<text text-anchor="middle" x="281.38" y="-130.5" font-family="Helvetica,sans-Serif" font-size="10.00">adc/adc1.h</text>
</a>
</g>
</g>
<!-- Node1&#45;&gt;Node12 -->
<g id="edge13_Node000001_Node000012" class="edge">
<title>Node1&#45;&gt;Node12</title>
<g id="a_edge13_Node000001_Node000012"><a xlink:title=" ">
<path fill="none" stroke="#63b8ff" d="M187,-366.99C261.01,-360.91 384.53,-338.2 442.38,-256 478.82,-204.21 383.1,-165.13 323.99,-146.71"/>
<polygon fill="#63b8ff" stroke="#63b8ff" points="325.36,-143.16 314.78,-143.61 323.33,-149.86 325.36,-143.16"/>
</a>
</g>
</g>
<!-- Node5 -->
<g id="Node000005" class="node">
<title>Node5</title>
<g id="a_Node000005"><a xlink:href="a00416_source.html" target="_top" xlink:title=" ">
<polygon fill="white" stroke="#666666" points="185.12,-200 95.62,-200 95.62,-180 185.12,-180 185.12,-200"/>
<text text-anchor="middle" x="140.38" y="-186.5" font-family="Helvetica,sans-Serif" font-size="10.00">pwrctrl_typedef.h</text>
</a>
</g>
</g>
<!-- Node4&#45;&gt;Node5 -->
<g id="edge4_Node000004_Node000005" class="edge">
<title>Node4&#45;&gt;Node5</title>
<g id="a_edge4_Node000004_Node000005"><a xlink:title=" ">
<path fill="none" stroke="#63b8ff" d="M164.33,-291.63C148.06,-284.59 128.95,-273.16 119.38,-256 111.09,-241.17 118.65,-222.59 126.92,-209.09"/>
<polygon fill="#63b8ff" stroke="#63b8ff" points="130.16,-211.54 132.85,-201.29 124.36,-207.63 130.16,-211.54"/>
</a>
</g>
</g>
<!-- Node9 -->
<g id="Node000009" class="node">
<title>Node9</title>
<g id="a_Node000009"><a xlink:href="a00395.html" target="_top" xlink:title="Contains public functions relevant for power control communication interface.">
<polygon fill="white" stroke="#666666" points="255.88,-256 128.88,-256 128.88,-236 255.88,-236 255.88,-256"/>
<text text-anchor="middle" x="192.38" y="-242.5" font-family="Helvetica,sans-Serif" font-size="10.00">pwrctrl_comm_interface.h</text>
</a>
</g>
</g>
<!-- Node4&#45;&gt;Node9 -->
<g id="edge9_Node000004_Node000009" class="edge">
<title>Node4&#45;&gt;Node9</title>
<g id="a_edge9_Node000004_Node000009"><a xlink:title=" ">
<path fill="none" stroke="#63b8ff" d="M192.38,-291.59C192.38,-284.86 192.38,-275.53 192.38,-267.15"/>
<polygon fill="#63b8ff" stroke="#63b8ff" points="195.88,-267.3 192.38,-257.3 188.88,-267.3 195.88,-267.3"/>
</a>
</g>
</g>
<!-- Node10 -->
<g id="Node000010" class="node">
<title>Node10</title>
<g id="a_Node000010"><a xlink:href="a00389.html" target="_top" xlink:title="Contains the power control reusable functions.">
<polygon fill="white" stroke="#666666" points="369.12,-256 273.62,-256 273.62,-236 369.12,-236 369.12,-256"/>
<text text-anchor="middle" x="321.38" y="-242.5" font-family="Helvetica,sans-Serif" font-size="10.00">pwrctrl_common.h</text>
</a>
</g>
</g>
<!-- Node4&#45;&gt;Node10 -->
<g id="edge10_Node000004_Node000010" class="edge">
<title>Node4&#45;&gt;Node10</title>
<g id="a_edge10_Node000004_Node000010"><a xlink:title=" ">
<path fill="none" stroke="#63b8ff" d="M214.85,-291.59C235.25,-283.05 265.6,-270.35 288.69,-260.68"/>
<polygon fill="#63b8ff" stroke="#63b8ff" points="289.86,-263.57 297.73,-256.48 287.15,-257.11 289.86,-263.57"/>
</a>
</g>
</g>
<!-- Node11 -->
<g id="Node000011" class="node">
<title>Node11</title>
<g id="a_Node000011"><a xlink:title=" ">
<polygon fill="#e0e0e0" stroke="#999999" points="433.38,-256 387.38,-256 387.38,-236 433.38,-236 433.38,-256"/>
<text text-anchor="middle" x="410.38" y="-242.5" font-family="Helvetica,sans-Serif" font-size="10.00">math.h</text>
</a>
</g>
</g>
<!-- Node4&#45;&gt;Node11 -->
<g id="edge12_Node000004_Node000011" class="edge">
<title>Node4&#45;&gt;Node11</title>
<g id="a_edge12_Node000004_Node000011"><a xlink:title=" ">
<path fill="none" stroke="#63b8ff" d="M233.49,-291.51C268.96,-283.22 321.83,-270.63 376.41,-256.45"/>
<polygon fill="#63b8ff" stroke="#63b8ff" points="377.19,-259.6 385.98,-253.69 375.42,-252.83 377.19,-259.6"/>
</a>
</g>
</g>
<!-- Node6 -->
<g id="Node000006" class="node">
<title>Node6</title>
<g id="a_Node000006"><a xlink:href="a00317.html" target="_top" xlink:title="Contains fault data types.">
<polygon fill="white" stroke="#666666" points="190.38,-144 90.38,-144 90.38,-124 190.38,-124 190.38,-144"/>
<text text-anchor="middle" x="140.38" y="-130.5" font-family="Helvetica,sans-Serif" font-size="10.00">fault/fault_typedef.h</text>
</a>
</g>
</g>
<!-- Node5&#45;&gt;Node6 -->
<g id="edge5_Node000005_Node000006" class="edge">
<title>Node5&#45;&gt;Node6</title>
<g id="a_edge5_Node000005_Node000006"><a xlink:title=" ">
<path fill="none" stroke="#63b8ff" d="M140.38,-179.59C140.38,-172.86 140.38,-163.53 140.38,-155.15"/>
<polygon fill="#63b8ff" stroke="#63b8ff" points="143.88,-155.3 140.38,-145.3 136.88,-155.3 143.88,-155.3"/>
</a>
</g>
</g>
<!-- Node7 -->
<g id="Node000007" class="node">
<title>Node7</title>
<g id="a_Node000007"><a xlink:href="a00308.html" target="_top" xlink:title="Contains fault generic public functions.">
<polygon fill="white" stroke="#666666" points="179.88,-88 94.88,-88 94.88,-68 179.88,-68 179.88,-88"/>
<text text-anchor="middle" x="137.38" y="-74.5" font-family="Helvetica,sans-Serif" font-size="10.00">fault_common.h</text>
</a>
</g>
</g>
<!-- Node6&#45;&gt;Node7 -->
<g id="edge6_Node000006_Node000007" class="edge">
<title>Node6&#45;&gt;Node7</title>
<g id="a_edge6_Node000006_Node000007"><a xlink:title=" ">
<path fill="none" stroke="#63b8ff" d="M139.85,-123.59C139.48,-116.86 138.96,-107.53 138.49,-99.15"/>
<polygon fill="#63b8ff" stroke="#63b8ff" points="141.94,-99.09 137.89,-89.3 134.95,-99.48 141.94,-99.09"/>
</a>
</g>
</g>
<!-- Node7&#45;&gt;Node3 -->
<g id="edge7_Node000007_Node000003" class="edge">
<title>Node7&#45;&gt;Node3</title>
<g id="a_edge7_Node000007_Node000003"><a xlink:title=" ">
<path fill="none" stroke="#63b8ff" d="M138.47,-67.62C139.43,-59.39 140.86,-47.13 142.07,-36.74"/>
<polygon fill="#63b8ff" stroke="#63b8ff" points="145.63,-37.45 143.31,-27.11 138.68,-36.64 145.63,-37.45"/>
</a>
</g>
</g>
<!-- Node8 -->
<g id="Node000008" class="node">
<title>Node8</title>
<g id="a_Node000008"><a xlink:title=" ">
<polygon fill="#e0e0e0" stroke="#999999" points="245.25,-26 189.5,-26 189.5,-6 245.25,-6 245.25,-26"/>
<text text-anchor="middle" x="217.38" y="-12.5" font-family="Helvetica,sans-Serif" font-size="10.00">stdbool.h</text>
</a>
</g>
</g>
<!-- Node7&#45;&gt;Node8 -->
<g id="edge8_Node000007_Node000008" class="edge">
<title>Node7&#45;&gt;Node8</title>
<g id="a_edge8_Node000007_Node000008"><a xlink:title=" ">
<path fill="none" stroke="#63b8ff" d="M149.88,-67.62C162.32,-58.29 181.65,-43.79 196.44,-32.7"/>
<polygon fill="#63b8ff" stroke="#63b8ff" points="198.06,-35.11 203.96,-26.31 193.86,-29.51 198.06,-35.11"/>
</a>
</g>
</g>
<!-- Node10&#45;&gt;Node5 -->
<g id="edge11_Node000010_Node000005" class="edge">
<title>Node10&#45;&gt;Node5</title>
<g id="a_edge11_Node000010_Node000005"><a xlink:title=" ">
<path fill="none" stroke="#63b8ff" d="M289.85,-235.59C260.05,-226.71 215.15,-213.31 182.34,-203.52"/>
<polygon fill="#63b8ff" stroke="#63b8ff" points="183.73,-199.98 173.15,-200.48 181.73,-206.69 183.73,-199.98"/>
</a>
</g>
</g>
<!-- Node12&#45;&gt;Node2 -->
<g id="edge14_Node000012_Node000002" class="edge">
<title>Node12&#45;&gt;Node2</title>
<g id="a_edge14_Node000012_Node000002"><a xlink:title=" ">
<path fill="none" stroke="#63b8ff" d="M249,-126.38C196.89,-115.72 95.23,-94.93 45.77,-84.81"/>
<polygon fill="#63b8ff" stroke="#63b8ff" points="46.71,-81.22 36.21,-82.65 45.31,-88.08 46.71,-81.22"/>
</a>
</g>
</g>
<!-- Node12&#45;&gt;Node3 -->
<g id="edge16_Node000012_Node000003" class="edge">
<title>Node12&#45;&gt;Node3</title>
<g id="a_edge16_Node000012_Node000003"><a xlink:title=" ">
<path fill="none" stroke="#63b8ff" d="M270.16,-123.51C246.77,-103.7 192.51,-57.76 163.49,-33.19"/>
<polygon fill="#63b8ff" stroke="#63b8ff" points="166.25,-30.09 156.36,-26.3 161.73,-35.43 166.25,-30.09"/>
</a>
</g>
</g>
<!-- Node12&#45;&gt;Node8 -->
<g id="edge15_Node000012_Node000008" class="edge">
<title>Node12&#45;&gt;Node8</title>
<g id="a_edge15_Node000012_Node000008"><a xlink:title=" ">
<path fill="none" stroke="#63b8ff" d="M276.14,-123.51C265.58,-104.38 241.59,-60.89 227.75,-35.8"/>
<polygon fill="#63b8ff" stroke="#63b8ff" points="230.4,-34.36 222.51,-27.3 224.27,-37.75 230.4,-34.36"/>
</a>
</g>
</g>
<!-- Node13 -->
<g id="Node000013" class="node">
<title>Node13</title>
<g id="a_Node000013"><a xlink:href="a00071.html" target="_top" xlink:title="This is the generated driver types header file for the ADC driver.">
<polygon fill="white" stroke="#666666" points="446,-26 376.75,-26 376.75,-6 446,-6 446,-26"/>
<text text-anchor="middle" x="411.38" y="-12.5" font-family="Helvetica,sans-Serif" font-size="10.00">adc_types.h</text>
</a>
</g>
</g>
<!-- Node12&#45;&gt;Node13 -->
<g id="edge17_Node000012_Node000013" class="edge">
<title>Node12&#45;&gt;Node13</title>
<g id="a_edge17_Node000012_Node000013"><a xlink:title=" ">
<path fill="none" stroke="#63b8ff" d="M306.23,-123.64C324.13,-116.01 348.09,-103.91 365.38,-88 381.53,-73.13 394.51,-51.42 402.5,-35.92"/>
<polygon fill="#63b8ff" stroke="#63b8ff" points="405.94,-37.86 407.22,-27.35 399.66,-34.77 405.94,-37.86"/>
</a>
</g>
</g>
<!-- Node14 -->
<g id="Node000014" class="node">
<title>Node14</title>
<g id="a_Node000014"><a xlink:href="a00068_source.html" target="_top" xlink:title=" ">
<polygon fill="white" stroke="#666666" points="356.38,-88 274.38,-88 274.38,-68 356.38,-68 356.38,-88"/>
<text text-anchor="middle" x="315.38" y="-74.5" font-family="Helvetica,sans-Serif" font-size="10.00">adc_interface.h</text>
</a>
</g>
</g>
<!-- Node12&#45;&gt;Node14 -->
<g id="edge18_Node000012_Node000014" class="edge">
<title>Node12&#45;&gt;Node14</title>
<g id="a_edge18_Node000012_Node000014"><a xlink:title=" ">
<path fill="none" stroke="#63b8ff" d="M287.3,-123.59C291.83,-116.39 298.23,-106.23 303.77,-97.43"/>
<polygon fill="#63b8ff" stroke="#63b8ff" points="307.15,-99.63 309.52,-89.3 301.23,-95.9 307.15,-99.63"/>
</a>
</g>
</g>
<!-- Node14&#45;&gt;Node3 -->
<g id="edge19_Node000014_Node000003" class="edge">
<title>Node14&#45;&gt;Node3</title>
<g id="a_edge19_Node000014_Node000003"><a xlink:title=" ">
<path fill="none" stroke="#63b8ff" d="M284.86,-67.53C257.35,-58.83 215.89,-45.3 180.38,-32 179.09,-31.52 177.78,-31.02 176.47,-30.51"/>
<polygon fill="#63b8ff" stroke="#63b8ff" points="177.94,-26.93 167.36,-26.46 175.34,-33.43 177.94,-26.93"/>
</a>
</g>
</g>
<!-- Node14&#45;&gt;Node8 -->
<g id="edge20_Node000014_Node000008" class="edge">
<title>Node14&#45;&gt;Node8</title>
<g id="a_edge20_Node000014_Node000008"><a xlink:title=" ">
<path fill="none" stroke="#63b8ff" d="M300.06,-67.62C284.46,-58.07 260.01,-43.11 241.74,-31.92"/>
<polygon fill="#63b8ff" stroke="#63b8ff" points="243.94,-28.55 233.58,-26.31 240.28,-34.52 243.94,-28.55"/>
</a>
</g>
</g>
<!-- Node14&#45;&gt;Node13 -->
<g id="edge21_Node000014_Node000013" class="edge">
<title>Node14&#45;&gt;Node13</title>
<g id="a_edge21_Node000014_Node000013"><a xlink:title=" ">
<path fill="none" stroke="#63b8ff" d="M330.38,-67.62C345.59,-58.11 369.39,-43.24 387.25,-32.08"/>
<polygon fill="#63b8ff" stroke="#63b8ff" points="388.86,-34.58 395.48,-26.31 385.15,-28.64 388.86,-34.58"/>
</a>
</g>
</g>
<!-- Node15 -->
<g id="Node000015" class="node">
<title>Node15</title>
<g id="a_Node000015"><a xlink:href="a00143_source.html" target="_top" xlink:title=" ">
<polygon fill="white" stroke="#666666" points="359.12,-32 263.62,-32 263.62,0 359.12,0 359.12,-32"/>
<text text-anchor="start" x="271.62" y="-18.5" font-family="Helvetica,sans-Serif" font-size="10.00">../system/interrupt</text>
<text text-anchor="middle" x="311.38" y="-6.5" font-family="Helvetica,sans-Serif" font-size="10.00">_types.h</text>
</a>
</g>
</g>
<!-- Node14&#45;&gt;Node15 -->
<g id="edge22_Node000014_Node000015" class="edge">
<title>Node14&#45;&gt;Node15</title>
<g id="a_edge22_Node000014_Node000015"><a xlink:title=" ">
<path fill="none" stroke="#63b8ff" d="M314.75,-67.62C314.31,-61.02 313.7,-51.84 313.12,-43.11"/>
<polygon fill="#63b8ff" stroke="#63b8ff" points="316.54,-42.89 312.38,-33.14 309.56,-43.35 316.54,-42.89"/>
</a>
</g>
</g>
</g>
</svg>
