<?xml version="1.0" encoding="UTF-8" standalone="no"?>
<!DOCTYPE svg PUBLIC "-//W3C//DTD SVG 1.1//EN"
 "http://www.w3.org/Graphics/SVG/1.1/DTD/svg11.dtd">
<!-- Generated by graphviz version 8.1.0 (20230707.0739)
 -->
<!-- Title: psfb_droop.X/mcc_generated_files/uart/src/uart1.c Pages: 1 -->
<svg width="329pt" height="208pt"
 viewBox="0.00 0.00 328.50 208.00" xmlns="http://www.w3.org/2000/svg" xmlns:xlink="http://www.w3.org/1999/xlink">

<svg id="main" version="1.1" xmlns="http://www.w3.org/2000/svg" xmlns:xlink="http://www.w3.org/1999/xlink" xml:space="preserve">

<style type="text/css"><![CDATA[
.node, .edge {opacity: 0.7;}
.node.selected, .edge.selected {opacity: 1;}
.edge:hover path { stroke: red; }
.edge:hover polygon { stroke: red; fill: red; }
]]></style>
<script type="application/ecmascript" xlink:href="svg.min.js"/>
<svg id="graph" class="graph">
<g id="graph0" class="graph" transform="scale(1 1) rotate(0) translate(4 204)">
<title>psfb_droop.X/mcc_generated_files/uart/src/uart1.c</title>
<!-- Node1 -->
<g id="Node000001" class="node">
<title>Node1</title>
<g id="a_Node000001"><a xlink:title="This is the generated driver source file for the UART1 driver.">
<polygon fill="#999999" stroke="#666666" points="290.75,-200 149.5,-200 149.5,-168 290.75,-168 290.75,-200"/>
<text text-anchor="start" x="157.5" y="-186.5" font-family="Helvetica,sans-Serif" font-size="10.00">psfb_droop.X/mcc_generated</text>
<text text-anchor="middle" x="220.12" y="-174.5" font-family="Helvetica,sans-Serif" font-size="10.00">_files/uart/src/uart1.c</text>
</a>
</g>
</g>
<!-- Node2 -->
<g id="Node000002" class="node">
<title>Node2</title>
<g id="a_Node000002"><a xlink:title=" ">
<polygon fill="#e0e0e0" stroke="#999999" points="48.25,-20 0,-20 0,0 48.25,0 48.25,-20"/>
<text text-anchor="middle" x="24.12" y="-6.5" font-family="Helvetica,sans-Serif" font-size="10.00">stdint.h</text>
</a>
</g>
</g>
<!-- Node1&#45;&gt;Node2 -->
<g id="edge1_Node000001_Node000002" class="edge">
<title>Node1&#45;&gt;Node2</title>
<g id="a_edge1_Node000001_Node000002"><a xlink:title=" ">
<path fill="none" stroke="#63b8ff" d="M176.99,-167.58C136.66,-151 77.61,-120.83 43.12,-76 33.14,-63.03 28.4,-44.94 26.15,-31.14"/>
<polygon fill="#63b8ff" stroke="#63b8ff" points="29.51,-30.81 24.74,-21.35 22.56,-31.72 29.51,-30.81"/>
</a>
</g>
</g>
<!-- Node3 -->
<g id="Node000003" class="node">
<title>Node3</title>
<g id="a_Node000003"><a xlink:title=" ">
<polygon fill="#e0e0e0" stroke="#999999" points="278.38,-20 227.88,-20 227.88,0 278.38,0 278.38,-20"/>
<text text-anchor="middle" x="253.12" y="-6.5" font-family="Helvetica,sans-Serif" font-size="10.00">stddef.h</text>
</a>
</g>
</g>
<!-- Node1&#45;&gt;Node3 -->
<g id="edge2_Node000001_Node000003" class="edge">
<title>Node1&#45;&gt;Node3</title>
<g id="a_edge2_Node000001_Node000003"><a xlink:title=" ">
<path fill="none" stroke="#63b8ff" d="M223.05,-167.74C229.04,-136.55 242.66,-65.56 249.32,-30.85"/>
<polygon fill="#63b8ff" stroke="#63b8ff" points="252.91,-31.69 251.36,-21.21 246.04,-30.37 252.91,-31.69"/>
</a>
</g>
</g>
<!-- Node4 -->
<g id="Node000004" class="node">
<title>Node4</title>
<g id="a_Node000004"><a xlink:title=" ">
<polygon fill="#e0e0e0" stroke="#999999" points="320.5,-132 285.75,-132 285.75,-112 320.5,-112 320.5,-132"/>
<text text-anchor="middle" x="303.12" y="-118.5" font-family="Helvetica,sans-Serif" font-size="10.00">xc.h</text>
</a>
</g>
</g>
<!-- Node1&#45;&gt;Node4 -->
<g id="edge3_Node000001_Node000004" class="edge">
<title>Node1&#45;&gt;Node4</title>
<g id="a_edge3_Node000001_Node000004"><a xlink:title=" ">
<path fill="none" stroke="#63b8ff" d="M241.5,-167.55C253.75,-158.69 269.08,-147.61 281.39,-138.71"/>
<polygon fill="#63b8ff" stroke="#63b8ff" points="283.06,-141.1 289.11,-132.41 278.96,-135.43 283.06,-141.1"/>
</a>
</g>
</g>
<!-- Node5 -->
<g id="Node000005" class="node">
<title>Node5</title>
<g id="a_Node000005"><a xlink:href="a00206.html" target="_top" xlink:title="This is the generated driver header file for the UART1 driver.">
<polygon fill="white" stroke="#666666" points="209.62,-132 154.62,-132 154.62,-112 209.62,-112 209.62,-132"/>
<text text-anchor="middle" x="182.12" y="-118.5" font-family="Helvetica,sans-Serif" font-size="10.00">../uart1.h</text>
</a>
</g>
</g>
<!-- Node1&#45;&gt;Node5 -->
<g id="edge4_Node000001_Node000005" class="edge">
<title>Node1&#45;&gt;Node5</title>
<g id="a_edge4_Node000001_Node000005"><a xlink:title=" ">
<path fill="none" stroke="#63b8ff" d="M210.34,-167.55C205.34,-159.65 199.21,-149.97 193.94,-141.66"/>
<polygon fill="#63b8ff" stroke="#63b8ff" points="196.39,-139.98 188.08,-133.41 190.48,-143.73 196.39,-139.98"/>
</a>
</g>
</g>
<!-- Node5&#45;&gt;Node2 -->
<g id="edge6_Node000005_Node000002" class="edge">
<title>Node5&#45;&gt;Node2</title>
<g id="a_edge6_Node000005_Node000002"><a xlink:title=" ">
<path fill="none" stroke="#63b8ff" d="M154.44,-115.99C128.47,-110.12 89.74,-98.23 63.12,-76 48.48,-63.76 37.91,-44.53 31.5,-30.15"/>
<polygon fill="#63b8ff" stroke="#63b8ff" points="34.48,-29.2 27.41,-21.3 28.01,-31.88 34.48,-29.2"/>
</a>
</g>
</g>
<!-- Node5&#45;&gt;Node3 -->
<g id="edge7_Node000005_Node000003" class="edge">
<title>Node5&#45;&gt;Node3</title>
<g id="a_edge7_Node000005_Node000003"><a xlink:title=" ">
<path fill="none" stroke="#63b8ff" d="M188.18,-111.62C199.92,-93.44 225.96,-53.09 241.26,-29.38"/>
<polygon fill="#63b8ff" stroke="#63b8ff" points="244.6,-31.65 247.09,-21.35 238.72,-27.86 244.6,-31.65"/>
</a>
</g>
</g>
<!-- Node6 -->
<g id="Node000006" class="node">
<title>Node6</title>
<g id="a_Node000006"><a xlink:title=" ">
<polygon fill="#e0e0e0" stroke="#999999" points="210,-20 154.25,-20 154.25,0 210,0 210,-20"/>
<text text-anchor="middle" x="182.12" y="-6.5" font-family="Helvetica,sans-Serif" font-size="10.00">stdbool.h</text>
</a>
</g>
</g>
<!-- Node5&#45;&gt;Node6 -->
<g id="edge5_Node000005_Node000006" class="edge">
<title>Node5&#45;&gt;Node6</title>
<g id="a_edge5_Node000005_Node000006"><a xlink:title=" ">
<path fill="none" stroke="#63b8ff" d="M182.12,-111.62C182.12,-93.92 182.12,-55.24 182.12,-31.32"/>
<polygon fill="#63b8ff" stroke="#63b8ff" points="185.63,-31.35 182.12,-21.35 178.63,-31.35 185.63,-31.35"/>
</a>
</g>
</g>
<!-- Node7 -->
<g id="Node000007" class="node">
<title>Node7</title>
<g id="a_Node000007"><a xlink:href="a00209_source.html" target="_top" xlink:title=" ">
<polygon fill="white" stroke="#666666" points="154.5,-76 71.75,-76 71.75,-56 154.5,-56 154.5,-76"/>
<text text-anchor="middle" x="113.12" y="-62.5" font-family="Helvetica,sans-Serif" font-size="10.00">uart_interface.h</text>
</a>
</g>
</g>
<!-- Node5&#45;&gt;Node7 -->
<g id="edge8_Node000005_Node000007" class="edge">
<title>Node5&#45;&gt;Node7</title>
<g id="a_edge8_Node000005_Node000007"><a xlink:title=" ">
<path fill="none" stroke="#63b8ff" d="M170.11,-111.59C160.01,-103.7 145.38,-92.24 133.46,-82.92"/>
<polygon fill="#63b8ff" stroke="#63b8ff" points="136.04,-79.71 126.01,-76.3 131.72,-85.22 136.04,-79.71"/>
</a>
</g>
</g>
<!-- Node7&#45;&gt;Node2 -->
<g id="edge10_Node000007_Node000002" class="edge">
<title>Node7&#45;&gt;Node2</title>
<g id="a_edge10_Node000007_Node000002"><a xlink:title=" ">
<path fill="none" stroke="#63b8ff" d="M97.62,-55.59C84.18,-47.44 64.48,-35.48 48.86,-26"/>
<polygon fill="#63b8ff" stroke="#63b8ff" points="51.11,-22.67 40.75,-20.48 47.48,-28.66 51.11,-22.67"/>
</a>
</g>
</g>
<!-- Node7&#45;&gt;Node3 -->
<g id="edge11_Node000007_Node000003" class="edge">
<title>Node7&#45;&gt;Node3</title>
<g id="a_edge11_Node000007_Node000003"><a xlink:title=" ">
<path fill="none" stroke="#63b8ff" d="M137.51,-55.59C159.86,-46.97 193.19,-34.12 218.33,-24.42"/>
<polygon fill="#63b8ff" stroke="#63b8ff" points="219.48,-27.34 227.55,-20.48 216.96,-20.81 219.48,-27.34"/>
</a>
</g>
</g>
<!-- Node7&#45;&gt;Node6 -->
<g id="edge9_Node000007_Node000006" class="edge">
<title>Node7&#45;&gt;Node6</title>
<g id="a_edge9_Node000007_Node000006"><a xlink:title=" ">
<path fill="none" stroke="#63b8ff" d="M125.14,-55.59C135.24,-47.7 149.87,-36.24 161.79,-26.92"/>
<polygon fill="#63b8ff" stroke="#63b8ff" points="163.53,-29.22 169.24,-20.3 159.21,-23.71 163.53,-29.22"/>
</a>
</g>
</g>
<!-- Node8 -->
<g id="Node000008" class="node">
<title>Node8</title>
<g id="a_Node000008"><a xlink:href="a00212.html" target="_top" xlink:title="This is the generated driver types header file for the UART driver.">
<polygon fill="white" stroke="#666666" points="136.12,-20 66.12,-20 66.12,0 136.12,0 136.12,-20"/>
<text text-anchor="middle" x="101.12" y="-6.5" font-family="Helvetica,sans-Serif" font-size="10.00">uart_types.h</text>
</a>
</g>
</g>
<!-- Node7&#45;&gt;Node8 -->
<g id="edge12_Node000007_Node000008" class="edge">
<title>Node7&#45;&gt;Node8</title>
<g id="a_edge12_Node000007_Node000008"><a xlink:title=" ">
<path fill="none" stroke="#63b8ff" d="M111.03,-55.59C109.52,-48.78 107.42,-39.32 105.54,-30.86"/>
<polygon fill="#63b8ff" stroke="#63b8ff" points="108.78,-30.3 103.19,-21.3 101.94,-31.82 108.78,-30.3"/>
</a>
</g>
</g>
</g>
</svg>
</svg>

<style type='text/css'>
<![CDATA[
[data-mouse-over-selected='false'] { opacity: 0.7; }
[data-mouse-over-selected='true']  { opacity: 1.0; }
]]>
</style>
<script type="application/ecmascript"><![CDATA[
document.addEventListener('DOMContentLoaded', (event) => {
  highlightEdges();
  highlightAdjacentNodes();
});
]]></script>
</svg>
