<?xml version="1.0" encoding="UTF-8" standalone="no"?>
<!DOCTYPE svg PUBLIC "-//W3C//DTD SVG 1.1//EN"
 "http://www.w3.org/Graphics/SVG/1.1/DTD/svg11.dtd">
<!-- Generated by graphviz version 8.1.0 (20230707.0739)
 -->
<!-- Title: psfb_droop.X/sources/device/device.h Pages: 1 -->
<svg width="520pt" height="444pt"
 viewBox="0.00 0.00 519.88 444.00" xmlns="http://www.w3.org/2000/svg" xmlns:xlink="http://www.w3.org/1999/xlink">
<g id="graph0" class="graph" transform="scale(1 1) rotate(0) translate(4 440)">
<title>psfb_droop.X/sources/device/device.h</title>
<!-- Node1 -->
<g id="Node000001" class="node">
<title>Node1</title>
<g id="a_Node000001"><a xlink:title="Contains h files that are part of device layer.">
<polygon fill="#999999" stroke="#666666" points="129.75,-436 20.75,-436 20.75,-404 129.75,-404 129.75,-436"/>
<text text-anchor="start" x="28.75" y="-422.5" font-family="Helvetica,sans-Serif" font-size="10.00">psfb_droop.X/sources</text>
<text text-anchor="middle" x="75.25" y="-410.5" font-family="Helvetica,sans-Serif" font-size="10.00">/device/device.h</text>
</a>
</g>
</g>
<!-- Node2 -->
<g id="Node000002" class="node">
<title>Node2</title>
<g id="a_Node000002"><a xlink:href="a00275_source.html" target="_top" xlink:title=" ">
<polygon fill="white" stroke="#666666" points="56.5,-144 0,-144 0,-124 56.5,-124 56.5,-144"/>
<text text-anchor="middle" x="28.25" y="-130.5" font-family="Helvetica,sans-Serif" font-size="10.00">dev_led.h</text>
</a>
</g>
</g>
<!-- Node1&#45;&gt;Node2 -->
<g id="edge1_Node000001_Node000002" class="edge">
<title>Node1&#45;&gt;Node2</title>
<g id="a_edge1_Node000001_Node000002"><a xlink:title=" ">
<path fill="none" stroke="#63b8ff" d="M64.81,-403.63C51.24,-382.12 29.25,-341.35 29.25,-303 29.25,-303 29.25,-303 29.25,-245 29.25,-213.72 28.84,-177.45 28.55,-155.37"/>
<polygon fill="#63b8ff" stroke="#63b8ff" points="32.03,-155.37 28.39,-145.42 25.03,-155.46 32.03,-155.37"/>
</a>
</g>
</g>
<!-- Node5 -->
<g id="Node000005" class="node">
<title>Node5</title>
<g id="a_Node000005"><a xlink:href="a00269.html" target="_top" xlink:title="measure current sensor offsets">
<polygon fill="white" stroke="#666666" points="186.12,-368 58.38,-368 58.38,-348 186.12,-348 186.12,-368"/>
<text text-anchor="middle" x="122.25" y="-354.5" font-family="Helvetica,sans-Serif" font-size="10.00">dev_adc_sensor_offsets.h</text>
</a>
</g>
</g>
<!-- Node1&#45;&gt;Node5 -->
<g id="edge4_Node000001_Node000005" class="edge">
<title>Node1&#45;&gt;Node5</title>
<g id="a_edge4_Node000001_Node000005"><a xlink:title=" ">
<path fill="none" stroke="#63b8ff" d="M87.35,-403.55C93.75,-395.39 101.62,-385.33 108.27,-376.84"/>
<polygon fill="#63b8ff" stroke="#63b8ff" points="111.47,-379.44 114.88,-369.41 105.96,-375.12 111.47,-379.44"/>
</a>
</g>
</g>
<!-- Node3 -->
<g id="Node000003" class="node">
<title>Node3</title>
<g id="a_Node000003"><a xlink:title=" ">
<polygon fill="#e0e0e0" stroke="#999999" points="146.62,-88 111.88,-88 111.88,-68 146.62,-68 146.62,-88"/>
<text text-anchor="middle" x="129.25" y="-74.5" font-family="Helvetica,sans-Serif" font-size="10.00">xc.h</text>
</a>
</g>
</g>
<!-- Node2&#45;&gt;Node3 -->
<g id="edge2_Node000002_Node000003" class="edge">
<title>Node2&#45;&gt;Node3</title>
<g id="a_edge2_Node000002_Node000003"><a xlink:title=" ">
<path fill="none" stroke="#63b8ff" d="M45.84,-123.59C61.32,-115.32 84.09,-103.14 101.93,-93.6"/>
<polygon fill="#63b8ff" stroke="#63b8ff" points="103.35,-96.28 110.52,-88.48 100.05,-90.11 103.35,-96.28"/>
</a>
</g>
</g>
<!-- Node4 -->
<g id="Node000004" class="node">
<title>Node4</title>
<g id="a_Node000004"><a xlink:title=" ">
<polygon fill="#e0e0e0" stroke="#999999" points="198.38,-26 150.12,-26 150.12,-6 198.38,-6 198.38,-26"/>
<text text-anchor="middle" x="174.25" y="-12.5" font-family="Helvetica,sans-Serif" font-size="10.00">stdint.h</text>
</a>
</g>
</g>
<!-- Node2&#45;&gt;Node4 -->
<g id="edge3_Node000002_Node000004" class="edge">
<title>Node2&#45;&gt;Node4</title>
<g id="a_edge3_Node000002_Node000004"><a xlink:title=" ">
<path fill="none" stroke="#63b8ff" d="M32.17,-123.92C38.45,-110.24 51.97,-84.24 70.25,-68 90.4,-50.09 117.97,-36.95 139.66,-28.5"/>
<polygon fill="#63b8ff" stroke="#63b8ff" points="140.63,-31.5 148.77,-24.73 138.18,-24.94 140.63,-31.5"/>
</a>
</g>
</g>
<!-- Node5&#45;&gt;Node3 -->
<g id="edge5_Node000005_Node000003" class="edge">
<title>Node5&#45;&gt;Node3</title>
<g id="a_edge5_Node000005_Node000003"><a xlink:title=" ">
<path fill="none" stroke="#63b8ff" d="M122.25,-347.58C122.25,-328.57 122.25,-284.24 122.25,-247 122.25,-247 122.25,-247 122.25,-189 122.25,-157.66 125.11,-121.4 127.18,-99.34"/>
<polygon fill="#63b8ff" stroke="#63b8ff" points="130.76,-99.7 128.25,-89.4 123.79,-99.02 130.76,-99.7"/>
</a>
</g>
</g>
<!-- Node5&#45;&gt;Node4 -->
<g id="edge6_Node000005_Node000004" class="edge">
<title>Node5&#45;&gt;Node4</title>
<g id="a_edge6_Node000005_Node000004"><a xlink:title=" ">
<path fill="none" stroke="#63b8ff" d="M116.64,-347.67C106.07,-329.16 84.25,-286.2 84.25,-247 84.25,-247 84.25,-247 84.25,-133 84.25,-102.9 85.86,-92.56 103.25,-68 114.04,-52.76 130.86,-40.39 145.42,-31.65"/>
<polygon fill="#63b8ff" stroke="#63b8ff" points="146.62,-34.42 153.58,-26.43 143.16,-28.34 146.62,-34.42"/>
</a>
</g>
</g>
<!-- Node6 -->
<g id="Node000006" class="node">
<title>Node6</title>
<g id="a_Node000006"><a xlink:href="a00383_source.html" target="_top" xlink:title=" ">
<polygon fill="white" stroke="#666666" points="304.38,-312 220.12,-312 220.12,-292 304.38,-292 304.38,-312"/>
<text text-anchor="middle" x="262.25" y="-298.5" font-family="Helvetica,sans-Serif" font-size="10.00">pwrctrl/pwrctrl.h</text>
</a>
</g>
</g>
<!-- Node5&#45;&gt;Node6 -->
<g id="edge7_Node000005_Node000006" class="edge">
<title>Node5&#45;&gt;Node6</title>
<g id="a_edge7_Node000005_Node000006"><a xlink:title=" ">
<path fill="none" stroke="#63b8ff" d="M146.64,-347.59C168.98,-338.97 202.32,-326.12 227.46,-316.42"/>
<polygon fill="#63b8ff" stroke="#63b8ff" points="228.6,-319.34 236.67,-312.48 226.08,-312.81 228.6,-319.34"/>
</a>
</g>
</g>
<!-- Node14 -->
<g id="Node000014" class="node">
<title>Node14</title>
<g id="a_Node000014"><a xlink:href="a00062.html" target="_top" xlink:title="This is the generated driver header file for the ADC1 driver.">
<polygon fill="white" stroke="#666666" points="397.25,-144 333.25,-144 333.25,-124 397.25,-124 397.25,-144"/>
<text text-anchor="middle" x="365.25" y="-130.5" font-family="Helvetica,sans-Serif" font-size="10.00">adc/adc1.h</text>
</a>
</g>
</g>
<!-- Node5&#45;&gt;Node14 -->
<g id="edge17_Node000005_Node000014" class="edge">
<title>Node5&#45;&gt;Node14</title>
<g id="a_edge17_Node000005_Node000014"><a xlink:title=" ">
<path fill="none" stroke="#63b8ff" d="M186.43,-348.57C280.3,-334.74 447.67,-303.89 482.25,-256 513.2,-213.14 441.98,-170.43 397.53,-149.06"/>
<polygon fill="#63b8ff" stroke="#63b8ff" points="399.24,-145.53 388.7,-144.47 396.27,-151.87 399.24,-145.53"/>
</a>
</g>
</g>
<!-- Node7 -->
<g id="Node000007" class="node">
<title>Node7</title>
<g id="a_Node000007"><a xlink:href="a00416_source.html" target="_top" xlink:title=" ">
<polygon fill="white" stroke="#666666" points="307,-200 217.5,-200 217.5,-180 307,-180 307,-200"/>
<text text-anchor="middle" x="262.25" y="-186.5" font-family="Helvetica,sans-Serif" font-size="10.00">pwrctrl_typedef.h</text>
</a>
</g>
</g>
<!-- Node6&#45;&gt;Node7 -->
<g id="edge8_Node000006_Node000007" class="edge">
<title>Node6&#45;&gt;Node7</title>
<g id="a_edge8_Node000006_Node000007"><a xlink:title=" ">
<path fill="none" stroke="#63b8ff" d="M304.67,-297.66C357.91,-292.48 444.64,-280.46 464.25,-256 505.29,-204.81 391.45,-193.38 318.37,-191.17"/>
<polygon fill="#63b8ff" stroke="#63b8ff" points="318.55,-187.65 308.47,-190.9 318.38,-194.65 318.55,-187.65"/>
</a>
</g>
</g>
<!-- Node11 -->
<g id="Node000011" class="node">
<title>Node11</title>
<g id="a_Node000011"><a xlink:href="a00395.html" target="_top" xlink:title="Contains public functions relevant for power control communication interface.">
<polygon fill="white" stroke="#666666" points="454.75,-256 327.75,-256 327.75,-236 454.75,-236 454.75,-256"/>
<text text-anchor="middle" x="391.25" y="-242.5" font-family="Helvetica,sans-Serif" font-size="10.00">pwrctrl_comm_interface.h</text>
</a>
</g>
</g>
<!-- Node6&#45;&gt;Node11 -->
<g id="edge13_Node000006_Node000011" class="edge">
<title>Node6&#45;&gt;Node11</title>
<g id="a_edge13_Node000006_Node000011"><a xlink:title=" ">
<path fill="none" stroke="#63b8ff" d="M284.72,-291.59C305.13,-283.05 335.48,-270.35 358.57,-260.68"/>
<polygon fill="#63b8ff" stroke="#63b8ff" points="359.73,-263.57 367.6,-256.48 357.03,-257.11 359.73,-263.57"/>
</a>
</g>
</g>
<!-- Node12 -->
<g id="Node000012" class="node">
<title>Node12</title>
<g id="a_Node000012"><a xlink:href="a00389.html" target="_top" xlink:title="Contains the power control reusable functions.">
<polygon fill="white" stroke="#666666" points="310,-256 214.5,-256 214.5,-236 310,-236 310,-256"/>
<text text-anchor="middle" x="262.25" y="-242.5" font-family="Helvetica,sans-Serif" font-size="10.00">pwrctrl_common.h</text>
</a>
</g>
</g>
<!-- Node6&#45;&gt;Node12 -->
<g id="edge14_Node000006_Node000012" class="edge">
<title>Node6&#45;&gt;Node12</title>
<g id="a_edge14_Node000006_Node000012"><a xlink:title=" ">
<path fill="none" stroke="#63b8ff" d="M262.25,-291.59C262.25,-284.86 262.25,-275.53 262.25,-267.15"/>
<polygon fill="#63b8ff" stroke="#63b8ff" points="265.75,-267.3 262.25,-257.3 258.75,-267.3 265.75,-267.3"/>
</a>
</g>
</g>
<!-- Node13 -->
<g id="Node000013" class="node">
<title>Node13</title>
<g id="a_Node000013"><a xlink:title=" ">
<polygon fill="#e0e0e0" stroke="#999999" points="196.25,-256 150.25,-256 150.25,-236 196.25,-236 196.25,-256"/>
<text text-anchor="middle" x="173.25" y="-242.5" font-family="Helvetica,sans-Serif" font-size="10.00">math.h</text>
</a>
</g>
</g>
<!-- Node6&#45;&gt;Node13 -->
<g id="edge16_Node000006_Node000013" class="edge">
<title>Node6&#45;&gt;Node13</title>
<g id="a_edge16_Node000006_Node000013"><a xlink:title=" ">
<path fill="none" stroke="#63b8ff" d="M246.75,-291.59C233.3,-283.44 213.6,-271.48 197.98,-262"/>
<polygon fill="#63b8ff" stroke="#63b8ff" points="200.24,-258.67 189.87,-256.48 196.61,-264.66 200.24,-258.67"/>
</a>
</g>
</g>
<!-- Node8 -->
<g id="Node000008" class="node">
<title>Node8</title>
<g id="a_Node000008"><a xlink:href="a00317.html" target="_top" xlink:title="Contains fault data types.">
<polygon fill="white" stroke="#666666" points="303.25,-144 203.25,-144 203.25,-124 303.25,-124 303.25,-144"/>
<text text-anchor="middle" x="253.25" y="-130.5" font-family="Helvetica,sans-Serif" font-size="10.00">fault/fault_typedef.h</text>
</a>
</g>
</g>
<!-- Node7&#45;&gt;Node8 -->
<g id="edge9_Node000007_Node000008" class="edge">
<title>Node7&#45;&gt;Node8</title>
<g id="a_edge9_Node000007_Node000008"><a xlink:title=" ">
<path fill="none" stroke="#63b8ff" d="M260.68,-179.59C259.55,-172.78 257.97,-163.32 256.56,-154.86"/>
<polygon fill="#63b8ff" stroke="#63b8ff" points="259.9,-154.59 254.8,-145.3 252.99,-155.74 259.9,-154.59"/>
</a>
</g>
</g>
<!-- Node9 -->
<g id="Node000009" class="node">
<title>Node9</title>
<g id="a_Node000009"><a xlink:href="a00308.html" target="_top" xlink:title="Contains fault generic public functions.">
<polygon fill="white" stroke="#666666" points="287.75,-88 202.75,-88 202.75,-68 287.75,-68 287.75,-88"/>
<text text-anchor="middle" x="245.25" y="-74.5" font-family="Helvetica,sans-Serif" font-size="10.00">fault_common.h</text>
</a>
</g>
</g>
<!-- Node8&#45;&gt;Node9 -->
<g id="edge10_Node000008_Node000009" class="edge">
<title>Node8&#45;&gt;Node9</title>
<g id="a_edge10_Node000008_Node000009"><a xlink:title=" ">
<path fill="none" stroke="#63b8ff" d="M251.86,-123.59C250.86,-116.86 249.48,-107.53 248.24,-99.15"/>
<polygon fill="#63b8ff" stroke="#63b8ff" points="251.56,-98.68 246.63,-89.3 244.63,-99.7 251.56,-98.68"/>
</a>
</g>
</g>
<!-- Node9&#45;&gt;Node4 -->
<g id="edge11_Node000009_Node000004" class="edge">
<title>Node9&#45;&gt;Node4</title>
<g id="a_edge11_Node000009_Node000004"><a xlink:title=" ">
<path fill="none" stroke="#63b8ff" d="M234.16,-67.62C223.26,-58.41 206.4,-44.17 193.35,-33.14"/>
<polygon fill="#63b8ff" stroke="#63b8ff" points="195.93,-29.89 186.03,-26.11 191.41,-35.24 195.93,-29.89"/>
</a>
</g>
</g>
<!-- Node10 -->
<g id="Node000010" class="node">
<title>Node10</title>
<g id="a_Node000010"><a xlink:title=" ">
<polygon fill="#e0e0e0" stroke="#999999" points="311.12,-26 255.38,-26 255.38,-6 311.12,-6 311.12,-26"/>
<text text-anchor="middle" x="283.25" y="-12.5" font-family="Helvetica,sans-Serif" font-size="10.00">stdbool.h</text>
</a>
</g>
</g>
<!-- Node9&#45;&gt;Node10 -->
<g id="edge12_Node000009_Node000010" class="edge">
<title>Node9&#45;&gt;Node10</title>
<g id="a_edge12_Node000009_Node000010"><a xlink:title=" ">
<path fill="none" stroke="#63b8ff" d="M251.19,-67.62C256.69,-58.94 265.01,-45.8 271.8,-35.08"/>
<polygon fill="#63b8ff" stroke="#63b8ff" points="275.08,-37.43 277.48,-27.11 269.17,-33.69 275.08,-37.43"/>
</a>
</g>
</g>
<!-- Node12&#45;&gt;Node7 -->
<g id="edge15_Node000012_Node000007" class="edge">
<title>Node12&#45;&gt;Node7</title>
<g id="a_edge15_Node000012_Node000007"><a xlink:title=" ">
<path fill="none" stroke="#63b8ff" d="M262.25,-235.59C262.25,-228.86 262.25,-219.53 262.25,-211.15"/>
<polygon fill="#63b8ff" stroke="#63b8ff" points="265.75,-211.3 262.25,-201.3 258.75,-211.3 265.75,-211.3"/>
</a>
</g>
</g>
<!-- Node14&#45;&gt;Node3 -->
<g id="edge18_Node000014_Node000003" class="edge">
<title>Node14&#45;&gt;Node3</title>
<g id="a_edge18_Node000014_Node000003"><a xlink:title=" ">
<path fill="none" stroke="#63b8ff" d="M332.78,-126.57C292.23,-118.37 220.81,-103.42 160.25,-88 159.3,-87.76 158.33,-87.51 157.36,-87.25"/>
<polygon fill="#63b8ff" stroke="#63b8ff" points="158.47,-83.65 147.9,-84.34 156.6,-90.39 158.47,-83.65"/>
</a>
</g>
</g>
<!-- Node14&#45;&gt;Node4 -->
<g id="edge20_Node000014_Node000004" class="edge">
<title>Node14&#45;&gt;Node4</title>
<g id="a_edge20_Node000014_Node000004"><a xlink:title=" ">
<path fill="none" stroke="#63b8ff" d="M332.94,-126.38C285.94,-116.47 203.21,-97.9 193.25,-88 179.84,-74.66 175.59,-52.97 174.39,-37.07"/>
<polygon fill="#63b8ff" stroke="#63b8ff" points="177.85,-37.12 173.96,-27.27 170.86,-37.4 177.85,-37.12"/>
</a>
</g>
</g>
<!-- Node14&#45;&gt;Node10 -->
<g id="edge19_Node000014_Node000010" class="edge">
<title>Node14&#45;&gt;Node10</title>
<g id="a_edge19_Node000014_Node000010"><a xlink:title=" ">
<path fill="none" stroke="#63b8ff" d="M358.54,-123.51C344.9,-104.21 313.73,-60.11 296.07,-35.13"/>
<polygon fill="#63b8ff" stroke="#63b8ff" points="298.45,-33.45 289.82,-27.3 292.74,-37.49 298.45,-33.45"/>
</a>
</g>
</g>
<!-- Node15 -->
<g id="Node000015" class="node">
<title>Node15</title>
<g id="a_Node000015"><a xlink:href="a00071.html" target="_top" xlink:title="This is the generated driver types header file for the ADC driver.">
<polygon fill="white" stroke="#666666" points="511.88,-26 442.62,-26 442.62,-6 511.88,-6 511.88,-26"/>
<text text-anchor="middle" x="477.25" y="-12.5" font-family="Helvetica,sans-Serif" font-size="10.00">adc_types.h</text>
</a>
</g>
</g>
<!-- Node14&#45;&gt;Node15 -->
<g id="edge21_Node000014_Node000015" class="edge">
<title>Node14&#45;&gt;Node15</title>
<g id="a_edge21_Node000014_Node000015"><a xlink:title=" ">
<path fill="none" stroke="#63b8ff" d="M384.81,-123.63C399.9,-115.69 420.61,-103.19 435.25,-88 449.96,-72.73 461.71,-51.37 468.99,-36.08"/>
<polygon fill="#63b8ff" stroke="#63b8ff" points="472.54,-37.74 473.49,-27.19 466.17,-34.84 472.54,-37.74"/>
</a>
</g>
</g>
<!-- Node16 -->
<g id="Node000016" class="node">
<title>Node16</title>
<g id="a_Node000016"><a xlink:href="a00068_source.html" target="_top" xlink:title=" ">
<polygon fill="white" stroke="#666666" points="426.25,-88 344.25,-88 344.25,-68 426.25,-68 426.25,-88"/>
<text text-anchor="middle" x="385.25" y="-74.5" font-family="Helvetica,sans-Serif" font-size="10.00">adc_interface.h</text>
</a>
</g>
</g>
<!-- Node14&#45;&gt;Node16 -->
<g id="edge22_Node000014_Node000016" class="edge">
<title>Node14&#45;&gt;Node16</title>
<g id="a_edge22_Node000014_Node000016"><a xlink:title=" ">
<path fill="none" stroke="#63b8ff" d="M368.73,-123.59C371.29,-116.7 374.84,-107.1 378,-98.57"/>
<polygon fill="#63b8ff" stroke="#63b8ff" points="381.62,-99.89 381.81,-89.3 375.05,-97.46 381.62,-99.89"/>
</a>
</g>
</g>
<!-- Node16&#45;&gt;Node4 -->
<g id="edge23_Node000016_Node000004" class="edge">
<title>Node16&#45;&gt;Node4</title>
<g id="a_edge23_Node000016_Node000004"><a xlink:title=" ">
<path fill="none" stroke="#63b8ff" d="M352.28,-67.62C313.4,-56.57 249.04,-38.27 209.28,-26.96"/>
<polygon fill="#63b8ff" stroke="#63b8ff" points="210.34,-23.34 199.76,-23.97 208.43,-30.07 210.34,-23.34"/>
</a>
</g>
</g>
<!-- Node16&#45;&gt;Node10 -->
<g id="edge24_Node000016_Node000010" class="edge">
<title>Node16&#45;&gt;Node10</title>
<g id="a_edge24_Node000016_Node000010"><a xlink:title=" ">
<path fill="none" stroke="#63b8ff" d="M369.31,-67.62C352.99,-58.03 327.39,-42.97 308.35,-31.77"/>
<polygon fill="#63b8ff" stroke="#63b8ff" points="310.47,-28.36 300.08,-26.31 306.92,-34.4 310.47,-28.36"/>
</a>
</g>
</g>
<!-- Node16&#45;&gt;Node15 -->
<g id="edge25_Node000016_Node000015" class="edge">
<title>Node16&#45;&gt;Node15</title>
<g id="a_edge25_Node000016_Node000015"><a xlink:title=" ">
<path fill="none" stroke="#63b8ff" d="M399.62,-67.62C414.21,-58.11 437.01,-43.24 454.13,-32.08"/>
<polygon fill="#63b8ff" stroke="#63b8ff" points="455.51,-34.7 461.98,-26.31 451.69,-28.84 455.51,-34.7"/>
</a>
</g>
</g>
<!-- Node17 -->
<g id="Node000017" class="node">
<title>Node17</title>
<g id="a_Node000017"><a xlink:href="a00143_source.html" target="_top" xlink:title=" ">
<polygon fill="white" stroke="#666666" points="425,-32 329.5,-32 329.5,0 425,0 425,-32"/>
<text text-anchor="start" x="337.5" y="-18.5" font-family="Helvetica,sans-Serif" font-size="10.00">../system/interrupt</text>
<text text-anchor="middle" x="377.25" y="-6.5" font-family="Helvetica,sans-Serif" font-size="10.00">_types.h</text>
</a>
</g>
</g>
<!-- Node16&#45;&gt;Node17 -->
<g id="edge26_Node000016_Node000017" class="edge">
<title>Node16&#45;&gt;Node17</title>
<g id="a_edge26_Node000016_Node000017"><a xlink:title=" ">
<path fill="none" stroke="#63b8ff" d="M384,-67.62C383.11,-60.95 381.87,-51.64 380.69,-42.82"/>
<polygon fill="#63b8ff" stroke="#63b8ff" points="384.06,-42.59 379.27,-33.14 377.12,-43.52 384.06,-42.59"/>
</a>
</g>
</g>
</g>
</svg>
