<?xml version="1.0" encoding="UTF-8" standalone="no"?>
<!DOCTYPE svg PUBLIC "-//W3C//DTD SVG 1.1//EN"
 "http://www.w3.org/Graphics/SVG/1.1/DTD/svg11.dtd">
<!-- Generated by graphviz version 2.44.1 (20200629.0846)
 -->
<!-- Title: psfb_droop.X/mcc_generated_files/uart/uart1.h Pages: 1 -->
<svg width="290pt" height="148pt"
 viewBox="0.00 0.00 289.50 148.00" xmlns="http://www.w3.org/2000/svg" xmlns:xlink="http://www.w3.org/1999/xlink">

<svg id="main" version="1.1" xmlns="http://www.w3.org/2000/svg" xmlns:xlink="http://www.w3.org/1999/xlink" xml:space="preserve">

<style type="text/css"><![CDATA[
.node, .edge {opacity: 0.7;}
.node.selected, .edge.selected {opacity: 1;}
.edge:hover path { stroke: red; }
.edge:hover polygon { stroke: red; fill: red; }
]]></style>
<script type="application/ecmascript" xlink:href="svg.min.js"/>
<svg id="graph" class="graph">
<g id="graph0" class="graph" transform="scale(1 1) rotate(0) translate(4 144)">
<title>psfb_droop.X/mcc_generated_files/uart/uart1.h</title>
<!-- Node1 -->
<g id="Node000001" class="node">
<title>Node1</title>
<g id="a_Node000001"><a xlink:title="This is the generated driver header file for the UART1 driver.">
<polygon fill="#999999" stroke="#666666" points="205,-140 63,-140 63,-110 205,-110 205,-140"/>
<text text-anchor="start" x="71" y="-128" font-family="Helvetica,sans-Serif" font-size="10.00">psfb_droop.X/mcc_generated</text>
<text text-anchor="middle" x="134" y="-117" font-family="Helvetica,sans-Serif" font-size="10.00">_files/uart/uart1.h</text>
</a>
</g>
</g>
<!-- Node2 -->
<g id="Node000002" class="node">
<title>Node2</title>
<g id="a_Node000002"><a xlink:title=" ">
<polygon fill="#e0e0e0" stroke="#999999" points="56,-19 0,-19 0,0 56,0 56,-19"/>
<text text-anchor="middle" x="28" y="-7" font-family="Helvetica,sans-Serif" font-size="10.00">stdbool.h</text>
</a>
</g>
</g>
<!-- Node1&#45;&gt;Node2 -->
<g id="edge1_Node000001_Node000002" class="edge">
<title>Node1&#45;&gt;Node2</title>
<g id="a_edge1_Node000001_Node000002"><a xlink:title=" ">
<path fill="none" stroke="#63b8ff" d="M120.58,-109.63C100.73,-88.37 63.68,-48.71 42.98,-26.54"/>
<polygon fill="#63b8ff" stroke="#63b8ff" points="45.54,-24.15 36.15,-19.23 40.42,-28.93 45.54,-24.15"/>
</a>
</g>
</g>
<!-- Node3 -->
<g id="Node000003" class="node">
<title>Node3</title>
<g id="a_Node000003"><a xlink:title=" ">
<polygon fill="#e0e0e0" stroke="#999999" points="123.5,-19 74.5,-19 74.5,0 123.5,0 123.5,-19"/>
<text text-anchor="middle" x="99" y="-7" font-family="Helvetica,sans-Serif" font-size="10.00">stdint.h</text>
</a>
</g>
</g>
<!-- Node1&#45;&gt;Node3 -->
<g id="edge2_Node000001_Node000003" class="edge">
<title>Node1&#45;&gt;Node3</title>
<g id="a_edge2_Node000001_Node000003"><a xlink:title=" ">
<path fill="none" stroke="#63b8ff" d="M129.57,-109.63C123.24,-89.12 111.63,-51.47 104.68,-28.93"/>
<polygon fill="#63b8ff" stroke="#63b8ff" points="107.98,-27.75 101.69,-19.23 101.29,-29.82 107.98,-27.75"/>
</a>
</g>
</g>
<!-- Node4 -->
<g id="Node000004" class="node">
<title>Node4</title>
<g id="a_Node000004"><a xlink:title=" ">
<polygon fill="#e0e0e0" stroke="#999999" points="281.5,-19 230.5,-19 230.5,0 281.5,0 281.5,-19"/>
<text text-anchor="middle" x="256" y="-7" font-family="Helvetica,sans-Serif" font-size="10.00">stddef.h</text>
</a>
</g>
</g>
<!-- Node1&#45;&gt;Node4 -->
<g id="edge3_Node000001_Node000004" class="edge">
<title>Node1&#45;&gt;Node4</title>
<g id="a_edge3_Node000001_Node000004"><a xlink:title=" ">
<path fill="none" stroke="#63b8ff" d="M167,-109.97C184.29,-101.43 204.94,-89.23 220,-74 232.93,-60.93 242.76,-42.29 248.86,-28.58"/>
<polygon fill="#63b8ff" stroke="#63b8ff" points="252.14,-29.82 252.78,-19.24 245.68,-27.11 252.14,-29.82"/>
</a>
</g>
</g>
<!-- Node5 -->
<g id="Node000005" class="node">
<title>Node5</title>
<g id="a_Node000005"><a xlink:href="a00209_source.html" target="_top" xlink:title=" ">
<polygon fill="white" stroke="#666666" points="210.5,-74 127.5,-74 127.5,-55 210.5,-55 210.5,-74"/>
<text text-anchor="middle" x="169" y="-62" font-family="Helvetica,sans-Serif" font-size="10.00">uart_interface.h</text>
</a>
</g>
</g>
<!-- Node1&#45;&gt;Node5 -->
<g id="edge4_Node000001_Node000005" class="edge">
<title>Node1&#45;&gt;Node5</title>
<g id="a_edge4_Node000001_Node000005"><a xlink:title=" ">
<path fill="none" stroke="#63b8ff" d="M142.47,-109.84C147.29,-101.78 153.37,-91.62 158.5,-83.06"/>
<polygon fill="#63b8ff" stroke="#63b8ff" points="161.62,-84.64 163.76,-74.27 155.62,-81.05 161.62,-84.64"/>
</a>
</g>
</g>
<!-- Node5&#45;&gt;Node2 -->
<g id="edge5_Node000005_Node000002" class="edge">
<title>Node5&#45;&gt;Node2</title>
<g id="a_edge5_Node000005_Node000002"><a xlink:title=" ">
<path fill="none" stroke="#63b8ff" d="M146.35,-54.98C123.15,-46.27 86.88,-32.63 60.6,-22.75"/>
<polygon fill="#63b8ff" stroke="#63b8ff" points="61.66,-19.41 51.07,-19.17 59.2,-25.97 61.66,-19.41"/>
</a>
</g>
</g>
<!-- Node5&#45;&gt;Node3 -->
<g id="edge6_Node000005_Node000003" class="edge">
<title>Node5&#45;&gt;Node3</title>
<g id="a_edge6_Node000005_Node000003"><a xlink:title=" ">
<path fill="none" stroke="#63b8ff" d="M157.75,-54.98C147.2,-47 131.2,-34.88 118.56,-25.31"/>
<polygon fill="#63b8ff" stroke="#63b8ff" points="120.54,-22.42 110.45,-19.17 116.31,-28 120.54,-22.42"/>
</a>
</g>
</g>
<!-- Node5&#45;&gt;Node4 -->
<g id="edge7_Node000005_Node000004" class="edge">
<title>Node5&#45;&gt;Node4</title>
<g id="a_edge7_Node000005_Node000004"><a xlink:title=" ">
<path fill="none" stroke="#63b8ff" d="M182.98,-54.98C196.47,-46.77 217.13,-34.18 233.04,-24.49"/>
<polygon fill="#63b8ff" stroke="#63b8ff" points="235.05,-27.36 241.77,-19.17 231.41,-21.38 235.05,-27.36"/>
</a>
</g>
</g>
<!-- Node6 -->
<g id="Node000006" class="node">
<title>Node6</title>
<g id="a_Node000006"><a xlink:href="a00212.html" target="_top" xlink:title="This is the generated driver types header file for the UART driver.">
<polygon fill="white" stroke="#666666" points="212.5,-19 141.5,-19 141.5,0 212.5,0 212.5,-19"/>
<text text-anchor="middle" x="177" y="-7" font-family="Helvetica,sans-Serif" font-size="10.00">uart_types.h</text>
</a>
</g>
</g>
<!-- Node5&#45;&gt;Node6 -->
<g id="edge8_Node000005_Node000006" class="edge">
<title>Node5&#45;&gt;Node6</title>
<g id="a_edge8_Node000005_Node000006"><a xlink:title=" ">
<path fill="none" stroke="#63b8ff" d="M170.32,-54.75C171.37,-47.8 172.87,-37.85 174.19,-29.13"/>
<polygon fill="#63b8ff" stroke="#63b8ff" points="177.67,-29.5 175.7,-19.09 170.75,-28.45 177.67,-29.5"/>
</a>
</g>
</g>
</g>
</svg>
</svg>

<style type='text/css'>
<![CDATA[
[data-mouse-over-selected='false'] { opacity: 0.7; }
[data-mouse-over-selected='true']  { opacity: 1.0; }
]]>
</style>
<script type="application/ecmascript"><![CDATA[
document.addEventListener('DOMContentLoaded', (event) => {
  highlightEdges();
  highlightAdjacentNodes();
});
]]></script>
</svg>
