<?xml version="1.0" encoding="UTF-8" standalone="no"?>
<!DOCTYPE svg PUBLIC "-//W3C//DTD SVG 1.1//EN"
 "http://www.w3.org/Graphics/SVG/1.1/DTD/svg11.dtd">
<!-- Generated by graphviz version 8.1.0 (20230707.0739)
 -->
<!-- Title: psfb_droop.X/sources/driver/mcc_extension/drv_mcc_extension_adc.h Pages: 1 -->
<svg width="266pt" height="212pt"
 viewBox="0.00 0.00 265.50 212.00" xmlns="http://www.w3.org/2000/svg" xmlns:xlink="http://www.w3.org/1999/xlink">
<g id="graph0" class="graph" transform="scale(1 1) rotate(0) translate(4 208)">
<title>psfb_droop.X/sources/driver/mcc_extension/drv_mcc_extension_adc.h</title>
<!-- Node1 -->
<g id="Node000001" class="node">
<title>Node1</title>
<g id="a_Node000001"><a xlink:title="Contains public functions and defines for the MCC code extension for ADC.">
<polygon fill="#999999" stroke="#666666" points="199,-204 67.5,-204 67.5,-160 199,-160 199,-204"/>
<text text-anchor="start" x="75.5" y="-190.5" font-family="Helvetica,sans-Serif" font-size="10.00">psfb_droop.X/sources</text>
<text text-anchor="start" x="75.5" y="-178.5" font-family="Helvetica,sans-Serif" font-size="10.00">/driver/mcc_extension</text>
<text text-anchor="middle" x="133.25" y="-166.5" font-family="Helvetica,sans-Serif" font-size="10.00">/drv_mcc_extension_adc.h</text>
</a>
</g>
</g>
<!-- Node2 -->
<g id="Node000002" class="node">
<title>Node2</title>
<g id="a_Node000002"><a xlink:href="a00278.html" target="_top" xlink:title="Contains ADC initialization that was not supported by MCC generated code.">
<polygon fill="white" stroke="#666666" points="128.5,-124 0,-124 0,-80 128.5,-80 128.5,-124"/>
<text text-anchor="start" x="8" y="-110.5" font-family="Helvetica,sans-Serif" font-size="10.00">psfb_droop.X/sources</text>
<text text-anchor="start" x="8" y="-98.5" font-family="Helvetica,sans-Serif" font-size="10.00">/driver/mcc_extension</text>
<text text-anchor="middle" x="64.25" y="-86.5" font-family="Helvetica,sans-Serif" font-size="10.00">/drv_custom_config_adc.h</text>
</a>
</g>
</g>
<!-- Node1&#45;&gt;Node2 -->
<g id="edge1_Node000001_Node000002" class="edge">
<title>Node1&#45;&gt;Node2</title>
<g id="a_edge1_Node000001_Node000002"><a xlink:title=" ">
<path fill="none" stroke="#63b8ff" d="M107.26,-151.62C99.22,-142.53 90.53,-132.71 83.08,-124.29"/>
<polygon fill="#63b8ff" stroke="#63b8ff" points="104.15,-153.52 113.4,-158.69 109.39,-148.88 104.15,-153.52"/>
</a>
</g>
</g>
<!-- Node4 -->
<g id="Node000004" class="node">
<title>Node4</title>
<g id="a_Node000004"><a xlink:href="a00284.html" target="_top" xlink:title="Contain the peripheral header files with MCC extension code.">
<polygon fill="white" stroke="#666666" points="257.5,-124 147,-124 147,-80 257.5,-80 257.5,-124"/>
<text text-anchor="start" x="155" y="-110.5" font-family="Helvetica,sans-Serif" font-size="10.00">psfb_droop.X/sources</text>
<text text-anchor="start" x="155" y="-98.5" font-family="Helvetica,sans-Serif" font-size="10.00">/driver/mcc_extension</text>
<text text-anchor="middle" x="202.25" y="-86.5" font-family="Helvetica,sans-Serif" font-size="10.00">/drv_mcc_extension.h</text>
</a>
</g>
</g>
<!-- Node1&#45;&gt;Node4 -->
<g id="edge3_Node000001_Node000004" class="edge">
<title>Node1&#45;&gt;Node4</title>
<g id="a_edge3_Node000001_Node000004"><a xlink:title=" ">
<path fill="none" stroke="#63b8ff" d="M159.24,-151.62C167.28,-142.53 175.97,-132.71 183.42,-124.29"/>
<polygon fill="#63b8ff" stroke="#63b8ff" points="157.11,-148.88 153.1,-158.69 162.35,-153.52 157.11,-148.88"/>
</a>
</g>
</g>
<!-- Node3 -->
<g id="Node000003" class="node">
<title>Node3</title>
<g id="a_Node000003"><a xlink:href="a00293_source.html" target="_top" xlink:title=" ">
<polygon fill="white" stroke="#666666" points="190.38,-44 76.12,-44 76.12,0 190.38,0 190.38,-44"/>
<text text-anchor="start" x="84.12" y="-30.5" font-family="Helvetica,sans-Serif" font-size="10.00">psfb_droop.X/sources</text>
<text text-anchor="start" x="84.12" y="-18.5" font-family="Helvetica,sans-Serif" font-size="10.00">/driver/mcc_extension</text>
<text text-anchor="middle" x="133.25" y="-6.5" font-family="Helvetica,sans-Serif" font-size="10.00">/mcc_custom_config.c</text>
</a>
</g>
</g>
<!-- Node2&#45;&gt;Node3 -->
<g id="edge2_Node000002_Node000003" class="edge">
<title>Node2&#45;&gt;Node3</title>
<g id="a_edge2_Node000002_Node000003"><a xlink:title=" ">
<path fill="none" stroke="#63b8ff" d="M90.24,-71.62C98.28,-62.53 106.97,-52.71 114.42,-44.29"/>
<polygon fill="#63b8ff" stroke="#63b8ff" points="88.11,-68.88 84.1,-78.69 93.35,-73.52 88.11,-68.88"/>
</a>
</g>
</g>
<!-- Node4&#45;&gt;Node3 -->
<g id="edge4_Node000004_Node000003" class="edge">
<title>Node4&#45;&gt;Node3</title>
<g id="a_edge4_Node000004_Node000003"><a xlink:title=" ">
<path fill="none" stroke="#63b8ff" d="M176.26,-71.62C168.22,-62.53 159.53,-52.71 152.08,-44.29"/>
<polygon fill="#63b8ff" stroke="#63b8ff" points="173.15,-73.52 182.4,-78.69 178.39,-68.88 173.15,-73.52"/>
</a>
</g>
</g>
</g>
</svg>
