<?xml version="1.0" encoding="UTF-8" standalone="no"?>
<!DOCTYPE svg PUBLIC "-//W3C//DTD SVG 1.1//EN"
 "http://www.w3.org/Graphics/SVG/1.1/DTD/svg11.dtd">
<!-- Generated by graphviz version 8.1.0 (20230707.0739)
 -->
<!-- Title: psfb_droop.X/mcc_generated_files/timer/tmr1.h Pages: 1 -->
<svg width="431pt" height="108pt"
 viewBox="0.00 0.00 430.50 108.00" xmlns="http://www.w3.org/2000/svg" xmlns:xlink="http://www.w3.org/1999/xlink">
<g id="graph0" class="graph" transform="scale(1 1) rotate(0) translate(4 104)">
<title>psfb_droop.X/mcc_generated_files/timer/tmr1.h</title>
<!-- Node1 -->
<g id="Node000001" class="node">
<title>Node1</title>
<g id="a_Node000001"><a xlink:title="This is the generated driver header file for the TMR1 driver.">
<polygon fill="#999999" stroke="#666666" points="263.5,-100 122.25,-100 122.25,-68 263.5,-68 263.5,-100"/>
<text text-anchor="start" x="130.25" y="-86.5" font-family="Helvetica,sans-Serif" font-size="10.00">psfb_droop.X/mcc_generated</text>
<text text-anchor="middle" x="192.88" y="-74.5" font-family="Helvetica,sans-Serif" font-size="10.00">_files/timer/tmr1.h</text>
</a>
</g>
</g>
<!-- Node2 -->
<g id="Node000002" class="node">
<title>Node2</title>
<g id="a_Node000002"><a xlink:href="a00056_source.html" target="_top" xlink:title=" ">
<polygon fill="white" stroke="#666666" points="103.75,-26 0,-26 0,-6 103.75,-6 103.75,-26"/>
<text text-anchor="middle" x="51.88" y="-12.5" font-family="Helvetica,sans-Serif" font-size="10.00">psfb_droop.X/main.c</text>
</a>
</g>
</g>
<!-- Node1&#45;&gt;Node2 -->
<g id="edge1_Node000001_Node000002" class="edge">
<title>Node1&#45;&gt;Node2</title>
<g id="a_edge1_Node000001_Node000002"><a xlink:title=" ">
<path fill="none" stroke="#63b8ff" d="M149.87,-62.87C124.01,-50.76 92.3,-35.92 72.09,-26.46"/>
<polygon fill="#63b8ff" stroke="#63b8ff" points="148.28,-66.46 158.82,-67.53 151.24,-60.12 148.28,-66.46"/>
</a>
</g>
</g>
<!-- Node3 -->
<g id="Node000003" class="node">
<title>Node3</title>
<g id="a_Node000003"><a xlink:href="a00176.html" target="_top" xlink:title="This is the generated driver header file for the System driver.">
<polygon fill="white" stroke="#666666" points="263.5,-32 122.25,-32 122.25,0 263.5,0 263.5,-32"/>
<text text-anchor="start" x="130.25" y="-18.5" font-family="Helvetica,sans-Serif" font-size="10.00">psfb_droop.X/mcc_generated</text>
<text text-anchor="middle" x="192.88" y="-6.5" font-family="Helvetica,sans-Serif" font-size="10.00">_files/system/src/system.c</text>
</a>
</g>
</g>
<!-- Node1&#45;&gt;Node3 -->
<g id="edge2_Node000001_Node000003" class="edge">
<title>Node1&#45;&gt;Node3</title>
<g id="a_edge2_Node000001_Node000003"><a xlink:title=" ">
<path fill="none" stroke="#63b8ff" d="M192.88,-56.89C192.88,-48.52 192.88,-39.54 192.88,-32.22"/>
<polygon fill="#63b8ff" stroke="#63b8ff" points="189.38,-56.69 192.88,-66.69 196.38,-56.69 189.38,-56.69"/>
</a>
</g>
</g>
<!-- Node4 -->
<g id="Node000004" class="node">
<title>Node4</title>
<g id="a_Node000004"><a xlink:href="a00194.html" target="_top" xlink:title="This is the generated driver source file for TMR1 driver.">
<polygon fill="white" stroke="#666666" points="422.5,-32 281.25,-32 281.25,0 422.5,0 422.5,-32"/>
<text text-anchor="start" x="289.25" y="-18.5" font-family="Helvetica,sans-Serif" font-size="10.00">psfb_droop.X/mcc_generated</text>
<text text-anchor="middle" x="351.88" y="-6.5" font-family="Helvetica,sans-Serif" font-size="10.00">_files/timer/src/tmr1.c</text>
</a>
</g>
</g>
<!-- Node1&#45;&gt;Node4 -->
<g id="edge3_Node000001_Node000004" class="edge">
<title>Node1&#45;&gt;Node4</title>
<g id="a_edge3_Node000001_Node000004"><a xlink:title=" ">
<path fill="none" stroke="#63b8ff" d="M240.04,-63.42C263.84,-53.54 292.3,-41.73 314.55,-32.49"/>
<polygon fill="#63b8ff" stroke="#63b8ff" points="239.05,-60.46 231.15,-67.53 241.73,-66.92 239.05,-60.46"/>
</a>
</g>
</g>
</g>
</svg>
