<?xml version="1.0" encoding="UTF-8" standalone="no"?>
<!DOCTYPE svg PUBLIC "-//W3C//DTD SVG 1.1//EN"
 "http://www.w3.org/Graphics/SVG/1.1/DTD/svg11.dtd">
<!-- Generated by graphviz version 8.1.0 (20230707.0739)
 -->
<!-- Title: psfb_droop.X/sources/pwrctrl/pwrctrl_common.c Pages: 1 -->
<svg width="470pt" height="376pt"
 viewBox="0.00 0.00 470.38 376.00" xmlns="http://www.w3.org/2000/svg" xmlns:xlink="http://www.w3.org/1999/xlink">
<g id="graph0" class="graph" transform="scale(1 1) rotate(0) translate(4 372)">
<title>psfb_droop.X/sources/pwrctrl/pwrctrl_common.c</title>
<!-- Node1 -->
<g id="Node000001" class="node">
<title>Node1</title>
<g id="a_Node000001"><a xlink:title="Contains generic functions that handles power control ramp Up/Down and the averaging generic function...">
<polygon fill="#999999" stroke="#666666" points="241.38,-368 111.38,-368 111.38,-336 241.38,-336 241.38,-368"/>
<text text-anchor="start" x="119.38" y="-354.5" font-family="Helvetica,sans-Serif" font-size="10.00">psfb_droop.X/sources</text>
<text text-anchor="middle" x="176.38" y="-342.5" font-family="Helvetica,sans-Serif" font-size="10.00">/pwrctrl/pwrctrl_common.c</text>
</a>
</g>
</g>
<!-- Node2 -->
<g id="Node000002" class="node">
<title>Node2</title>
<g id="a_Node000002"><a xlink:title=" ">
<polygon fill="#e0e0e0" stroke="#999999" points="34.75,-300 0,-300 0,-280 34.75,-280 34.75,-300"/>
<text text-anchor="middle" x="17.38" y="-286.5" font-family="Helvetica,sans-Serif" font-size="10.00">xc.h</text>
</a>
</g>
</g>
<!-- Node1&#45;&gt;Node2 -->
<g id="edge1_Node000001_Node000002" class="edge">
<title>Node1&#45;&gt;Node2</title>
<g id="a_edge1_Node000001_Node000002"><a xlink:title=" ">
<path fill="none" stroke="#63b8ff" d="M135.43,-335.55C107.05,-324.84 70.04,-310.87 45.08,-301.45"/>
<polygon fill="#63b8ff" stroke="#63b8ff" points="46.45,-297.85 35.86,-297.6 43.98,-304.4 46.45,-297.85"/>
</a>
</g>
</g>
<!-- Node3 -->
<g id="Node000003" class="node">
<title>Node3</title>
<g id="a_Node000003"><a xlink:title=" ">
<polygon fill="#e0e0e0" stroke="#999999" points="140.5,-20 92.25,-20 92.25,0 140.5,0 140.5,-20"/>
<text text-anchor="middle" x="116.38" y="-6.5" font-family="Helvetica,sans-Serif" font-size="10.00">stdint.h</text>
</a>
</g>
</g>
<!-- Node1&#45;&gt;Node3 -->
<g id="edge2_Node000001_Node000003" class="edge">
<title>Node1&#45;&gt;Node3</title>
<g id="a_edge2_Node000001_Node000003"><a xlink:title=" ">
<path fill="none" stroke="#63b8ff" d="M144.32,-335.62C110.6,-316.94 62.38,-282.01 62.38,-235 62.38,-235 62.38,-235 62.38,-121 62.38,-85.39 85.46,-49.33 101.44,-28.62"/>
<polygon fill="#63b8ff" stroke="#63b8ff" points="104.63,-31.23 108.17,-21.25 99.18,-26.85 104.63,-31.23"/>
</a>
</g>
</g>
<!-- Node4 -->
<g id="Node000004" class="node">
<title>Node4</title>
<g id="a_Node000004"><a xlink:title=" ">
<polygon fill="#e0e0e0" stroke="#999999" points="227.25,-20 171.5,-20 171.5,0 227.25,0 227.25,-20"/>
<text text-anchor="middle" x="199.38" y="-6.5" font-family="Helvetica,sans-Serif" font-size="10.00">stdbool.h</text>
</a>
</g>
</g>
<!-- Node1&#45;&gt;Node4 -->
<g id="edge3_Node000001_Node000004" class="edge">
<title>Node1&#45;&gt;Node4</title>
<g id="a_edge3_Node000001_Node000004"><a xlink:title=" ">
<path fill="none" stroke="#63b8ff" d="M241.63,-338.15C326.04,-319.61 462.38,-282.35 462.38,-235 462.38,-235 462.38,-235 462.38,-121 462.38,-24.97 311.28,-11.32 238.14,-10.33"/>
<polygon fill="#63b8ff" stroke="#63b8ff" points="238.54,-6.83 228.52,-10.27 238.5,-13.83 238.54,-6.83"/>
</a>
</g>
</g>
<!-- Node5 -->
<g id="Node000005" class="node">
<title>Node5</title>
<g id="a_Node000005"><a xlink:title=" ">
<polygon fill="#e0e0e0" stroke="#999999" points="271.62,-300 221.12,-300 221.12,-280 271.62,-280 271.62,-300"/>
<text text-anchor="middle" x="246.38" y="-286.5" font-family="Helvetica,sans-Serif" font-size="10.00">stddef.h</text>
</a>
</g>
</g>
<!-- Node1&#45;&gt;Node5 -->
<g id="edge4_Node000001_Node000005" class="edge">
<title>Node1&#45;&gt;Node5</title>
<g id="a_edge4_Node000001_Node000005"><a xlink:title=" ">
<path fill="none" stroke="#63b8ff" d="M194.4,-335.55C204.43,-326.95 216.91,-316.26 227.12,-307.5"/>
<polygon fill="#63b8ff" stroke="#63b8ff" points="229.08,-309.57 234.4,-300.41 224.53,-304.26 229.08,-309.57"/>
</a>
</g>
</g>
<!-- Node6 -->
<g id="Node000006" class="node">
<title>Node6</title>
<g id="a_Node000006"><a xlink:href="a00383_source.html" target="_top" xlink:title=" ">
<polygon fill="white" stroke="#666666" points="202.75,-300 150,-300 150,-280 202.75,-280 202.75,-300"/>
<text text-anchor="middle" x="176.38" y="-286.5" font-family="Helvetica,sans-Serif" font-size="10.00">pwrctrl.h</text>
</a>
</g>
</g>
<!-- Node1&#45;&gt;Node6 -->
<g id="edge5_Node000001_Node000006" class="edge">
<title>Node1&#45;&gt;Node6</title>
<g id="a_edge5_Node000001_Node000006"><a xlink:title=" ">
<path fill="none" stroke="#63b8ff" d="M176.38,-335.55C176.38,-328.17 176.38,-319.24 176.38,-311.32"/>
<polygon fill="#63b8ff" stroke="#63b8ff" points="179.88,-311.41 176.38,-301.41 172.88,-311.41 179.88,-311.41"/>
</a>
</g>
</g>
<!-- Node7 -->
<g id="Node000007" class="node">
<title>Node7</title>
<g id="a_Node000007"><a xlink:href="a00416_source.html" target="_top" xlink:title=" ">
<polygon fill="white" stroke="#666666" points="203.12,-188 113.62,-188 113.62,-168 203.12,-168 203.12,-188"/>
<text text-anchor="middle" x="158.38" y="-174.5" font-family="Helvetica,sans-Serif" font-size="10.00">pwrctrl_typedef.h</text>
</a>
</g>
</g>
<!-- Node6&#45;&gt;Node7 -->
<g id="edge6_Node000006_Node000007" class="edge">
<title>Node6&#45;&gt;Node7</title>
<g id="a_edge6_Node000006_Node000007"><a xlink:title=" ">
<path fill="none" stroke="#63b8ff" d="M156.9,-279.6C143.63,-272.02 127.13,-260 119.38,-244 111.11,-226.94 124.5,-208.49 137.79,-195.62"/>
<polygon fill="#63b8ff" stroke="#63b8ff" points="139.75,-198.67 144.86,-189.39 135.08,-193.46 139.75,-198.67"/>
</a>
</g>
</g>
<!-- Node10 -->
<g id="Node000010" class="node">
<title>Node10</title>
<g id="a_Node000010"><a xlink:href="a00395.html" target="_top" xlink:title="Contains public functions relevant for power control communication interface.">
<polygon fill="white" stroke="#666666" points="433.88,-244 306.88,-244 306.88,-224 433.88,-224 433.88,-244"/>
<text text-anchor="middle" x="370.38" y="-230.5" font-family="Helvetica,sans-Serif" font-size="10.00">pwrctrl_comm_interface.h</text>
</a>
</g>
</g>
<!-- Node6&#45;&gt;Node10 -->
<g id="edge11_Node000006_Node000010" class="edge">
<title>Node6&#45;&gt;Node10</title>
<g id="a_edge11_Node000006_Node000010"><a xlink:title=" ">
<path fill="none" stroke="#63b8ff" d="M202.94,-281.6C234.62,-272.79 288.05,-257.91 326.03,-247.34"/>
<polygon fill="#63b8ff" stroke="#63b8ff" points="326.61,-250.54 335.3,-244.48 324.73,-243.79 326.61,-250.54"/>
</a>
</g>
</g>
<!-- Node11 -->
<g id="Node000011" class="node">
<title>Node11</title>
<g id="a_Node000011"><a xlink:href="a00389.html" target="_top" xlink:title="Contains the power control reusable functions.">
<polygon fill="white" stroke="#666666" points="224.12,-244 128.62,-244 128.62,-224 224.12,-224 224.12,-244"/>
<text text-anchor="middle" x="176.38" y="-230.5" font-family="Helvetica,sans-Serif" font-size="10.00">pwrctrl_common.h</text>
</a>
</g>
</g>
<!-- Node6&#45;&gt;Node11 -->
<g id="edge12_Node000006_Node000011" class="edge">
<title>Node6&#45;&gt;Node11</title>
<g id="a_edge12_Node000006_Node000011"><a xlink:title=" ">
<path fill="none" stroke="#63b8ff" d="M176.38,-279.59C176.38,-272.86 176.38,-263.53 176.38,-255.15"/>
<polygon fill="#63b8ff" stroke="#63b8ff" points="179.88,-255.3 176.38,-245.3 172.88,-255.3 179.88,-255.3"/>
</a>
</g>
</g>
<!-- Node12 -->
<g id="Node000012" class="node">
<title>Node12</title>
<g id="a_Node000012"><a xlink:title=" ">
<polygon fill="#e0e0e0" stroke="#999999" points="288.38,-244 242.38,-244 242.38,-224 288.38,-224 288.38,-244"/>
<text text-anchor="middle" x="265.38" y="-230.5" font-family="Helvetica,sans-Serif" font-size="10.00">math.h</text>
</a>
</g>
</g>
<!-- Node6&#45;&gt;Node12 -->
<g id="edge14_Node000006_Node000012" class="edge">
<title>Node6&#45;&gt;Node12</title>
<g id="a_edge14_Node000006_Node000012"><a xlink:title=" ">
<path fill="none" stroke="#63b8ff" d="M191.88,-279.59C205.32,-271.44 225.02,-259.48 240.64,-250"/>
<polygon fill="#63b8ff" stroke="#63b8ff" points="242.02,-252.66 248.75,-244.48 238.39,-246.67 242.02,-252.66"/>
</a>
</g>
</g>
<!-- Node8 -->
<g id="Node000008" class="node">
<title>Node8</title>
<g id="a_Node000008"><a xlink:href="a00317.html" target="_top" xlink:title="Contains fault data types.">
<polygon fill="white" stroke="#666666" points="208.38,-132 108.38,-132 108.38,-112 208.38,-112 208.38,-132"/>
<text text-anchor="middle" x="158.38" y="-118.5" font-family="Helvetica,sans-Serif" font-size="10.00">fault/fault_typedef.h</text>
</a>
</g>
</g>
<!-- Node7&#45;&gt;Node8 -->
<g id="edge7_Node000007_Node000008" class="edge">
<title>Node7&#45;&gt;Node8</title>
<g id="a_edge7_Node000007_Node000008"><a xlink:title=" ">
<path fill="none" stroke="#63b8ff" d="M158.38,-167.59C158.38,-160.86 158.38,-151.53 158.38,-143.15"/>
<polygon fill="#63b8ff" stroke="#63b8ff" points="161.88,-143.3 158.38,-133.3 154.88,-143.3 161.88,-143.3"/>
</a>
</g>
</g>
<!-- Node9 -->
<g id="Node000009" class="node">
<title>Node9</title>
<g id="a_Node000009"><a xlink:href="a00308.html" target="_top" xlink:title="Contains fault generic public functions.">
<polygon fill="white" stroke="#666666" points="200.88,-76 115.88,-76 115.88,-56 200.88,-56 200.88,-76"/>
<text text-anchor="middle" x="158.38" y="-62.5" font-family="Helvetica,sans-Serif" font-size="10.00">fault_common.h</text>
</a>
</g>
</g>
<!-- Node8&#45;&gt;Node9 -->
<g id="edge8_Node000008_Node000009" class="edge">
<title>Node8&#45;&gt;Node9</title>
<g id="a_edge8_Node000008_Node000009"><a xlink:title=" ">
<path fill="none" stroke="#63b8ff" d="M158.38,-111.59C158.38,-104.86 158.38,-95.53 158.38,-87.15"/>
<polygon fill="#63b8ff" stroke="#63b8ff" points="161.88,-87.3 158.38,-77.3 154.88,-87.3 161.88,-87.3"/>
</a>
</g>
</g>
<!-- Node9&#45;&gt;Node3 -->
<g id="edge9_Node000009_Node000003" class="edge">
<title>Node9&#45;&gt;Node3</title>
<g id="a_edge9_Node000009_Node000003"><a xlink:title=" ">
<path fill="none" stroke="#63b8ff" d="M151.06,-55.59C145.34,-48.24 137.22,-37.8 130.27,-28.87"/>
<polygon fill="#63b8ff" stroke="#63b8ff" points="132.51,-27.04 123.61,-21.3 126.98,-31.34 132.51,-27.04"/>
</a>
</g>
</g>
<!-- Node9&#45;&gt;Node4 -->
<g id="edge10_Node000009_Node000004" class="edge">
<title>Node9&#45;&gt;Node4</title>
<g id="a_edge10_Node000009_Node000004"><a xlink:title=" ">
<path fill="none" stroke="#63b8ff" d="M165.52,-55.59C171.1,-48.24 179.03,-37.8 185.81,-28.87"/>
<polygon fill="#63b8ff" stroke="#63b8ff" points="189.06,-31.38 192.32,-21.3 183.48,-27.15 189.06,-31.38"/>
</a>
</g>
</g>
<!-- Node11&#45;&gt;Node7 -->
<g id="edge13_Node000011_Node000007" class="edge">
<title>Node11&#45;&gt;Node7</title>
<g id="a_edge13_Node000011_Node000007"><a xlink:title=" ">
<path fill="none" stroke="#63b8ff" d="M173.24,-223.59C170.94,-216.7 167.74,-207.1 164.9,-198.57"/>
<polygon fill="#63b8ff" stroke="#63b8ff" points="167.96,-197.68 161.47,-189.3 161.32,-199.89 167.96,-197.68"/>
</a>
</g>
</g>
</g>
</svg>
