<?xml version="1.0" encoding="UTF-8" standalone="no"?>
<!DOCTYPE svg PUBLIC "-//W3C//DTD SVG 1.1//EN"
 "http://www.w3.org/Graphics/SVG/1.1/DTD/svg11.dtd">
<!-- Generated by graphviz version 8.1.0 (20230707.0739)
 -->
<!-- Title: psfb_droop.X/sources/fault/fault_common.h Pages: 1 -->
<svg width="1504pt" height="552pt"
 viewBox="0.00 0.00 1504.25 552.00" xmlns="http://www.w3.org/2000/svg" xmlns:xlink="http://www.w3.org/1999/xlink">
<g id="graph0" class="graph" transform="scale(1 1) rotate(0) translate(4 548)">
<title>psfb_droop.X/sources/fault/fault_common.h</title>
<!-- Node1 -->
<g id="Node000001" class="node">
<title>Node1</title>
<g id="a_Node000001"><a xlink:title="Contains fault generic public functions.">
<polygon fill="#999999" stroke="#666666" points="1174.75,-544 1065.75,-544 1065.75,-512 1174.75,-512 1174.75,-544"/>
<text text-anchor="start" x="1073.75" y="-530.5" font-family="Helvetica,sans-Serif" font-size="10.00">psfb_droop.X/sources</text>
<text text-anchor="middle" x="1120.25" y="-518.5" font-family="Helvetica,sans-Serif" font-size="10.00">/fault/fault_common.h</text>
</a>
</g>
</g>
<!-- Node2 -->
<g id="Node000002" class="node">
<title>Node2</title>
<g id="a_Node000002"><a xlink:href="a00299.html" target="_top" xlink:title="Contains fault functions including the fault handler, fault object initialization and fault execution...">
<polygon fill="white" stroke="#666666" points="1178.75,-32 1069.75,-32 1069.75,0 1178.75,0 1178.75,-32"/>
<text text-anchor="start" x="1077.75" y="-18.5" font-family="Helvetica,sans-Serif" font-size="10.00">psfb_droop.X/sources</text>
<text text-anchor="middle" x="1124.25" y="-6.5" font-family="Helvetica,sans-Serif" font-size="10.00">/fault/fault.c</text>
</a>
</g>
</g>
<!-- Node1&#45;&gt;Node2 -->
<g id="edge1_Node000001_Node000002" class="edge">
<title>Node1&#45;&gt;Node2</title>
<g id="a_edge1_Node000001_Node000002"><a xlink:title=" ">
<path fill="none" stroke="#63b8ff" d="M1185.67,-517.46C1293.38,-499.89 1496.25,-458.16 1496.25,-393 1496.25,-393 1496.25,-393 1496.25,-169 1496.25,-121.19 1496.26,-98.26 1459.25,-68 1417.41,-33.79 1263.04,-22.41 1179.24,-18.72"/>
<polygon fill="#63b8ff" stroke="#63b8ff" points="1185.24,-514.14 1175.92,-519.18 1186.35,-521.06 1185.24,-514.14"/>
</a>
</g>
</g>
<!-- Node3 -->
<g id="Node000003" class="node">
<title>Node3</title>
<g id="a_Node000003"><a xlink:href="a00311.html" target="_top" xlink:title="Contains API functions for fault protection.">
<polygon fill="white" stroke="#666666" points="140.5,-186 0,-186 0,-154 140.5,-154 140.5,-186"/>
<text text-anchor="start" x="8" y="-172.5" font-family="Helvetica,sans-Serif" font-size="10.00">psfb_droop.X/sources</text>
<text text-anchor="middle" x="70.25" y="-160.5" font-family="Helvetica,sans-Serif" font-size="10.00">/fault/fault_comm_interface.c</text>
</a>
</g>
</g>
<!-- Node1&#45;&gt;Node3 -->
<g id="edge2_Node000001_Node000003" class="edge">
<title>Node1&#45;&gt;Node3</title>
<g id="a_edge2_Node000001_Node000003"><a xlink:title=" ">
<path fill="none" stroke="#63b8ff" d="M1054.67,-522.22C871.4,-507.99 367.25,-462.54 367.25,-393 367.25,-393 367.25,-393 367.25,-317 367.25,-264 212.98,-211.56 126.81,-186.4"/>
<polygon fill="#63b8ff" stroke="#63b8ff" points="1054.25,-525.78 1064.49,-523.05 1054.79,-518.8 1054.25,-525.78"/>
</a>
</g>
</g>
<!-- Node4 -->
<g id="Node000004" class="node">
<title>Node4</title>
<g id="a_Node000004"><a xlink:href="a00305_source.html" target="_top" xlink:title=" ">
<polygon fill="white" stroke="#666666" points="1238.75,-476 1129.75,-476 1129.75,-444 1238.75,-444 1238.75,-476"/>
<text text-anchor="start" x="1137.75" y="-462.5" font-family="Helvetica,sans-Serif" font-size="10.00">psfb_droop.X/sources</text>
<text text-anchor="middle" x="1184.25" y="-450.5" font-family="Helvetica,sans-Serif" font-size="10.00">/fault/fault_common.c</text>
</a>
</g>
</g>
<!-- Node1&#45;&gt;Node4 -->
<g id="edge3_Node000001_Node000004" class="edge">
<title>Node1&#45;&gt;Node4</title>
<g id="a_edge3_Node000001_Node000004"><a xlink:title=" ">
<path fill="none" stroke="#63b8ff" d="M1142.56,-503.99C1151.48,-494.79 1161.5,-484.46 1169.49,-476.22"/>
<polygon fill="#63b8ff" stroke="#63b8ff" points="1140.54,-501.08 1136.09,-510.69 1145.57,-505.95 1140.54,-501.08"/>
</a>
</g>
</g>
<!-- Node5 -->
<g id="Node000005" class="node">
<title>Node5</title>
<g id="a_Node000005"><a xlink:href="a00317.html" target="_top" xlink:title="Contains fault data types.">
<polygon fill="white" stroke="#666666" points="1111.75,-476 1002.75,-476 1002.75,-444 1111.75,-444 1111.75,-476"/>
<text text-anchor="start" x="1010.75" y="-462.5" font-family="Helvetica,sans-Serif" font-size="10.00">psfb_droop.X/sources</text>
<text text-anchor="middle" x="1057.25" y="-450.5" font-family="Helvetica,sans-Serif" font-size="10.00">/fault/fault_typedef.h</text>
</a>
</g>
</g>
<!-- Node1&#45;&gt;Node5 -->
<g id="edge4_Node000001_Node000005" class="edge">
<title>Node1&#45;&gt;Node5</title>
<g id="a_edge4_Node000001_Node000005"><a xlink:title=" ">
<path fill="none" stroke="#63b8ff" d="M1098.28,-503.99C1089.51,-494.79 1079.64,-484.46 1071.78,-476.22"/>
<polygon fill="#63b8ff" stroke="#63b8ff" points="1095.2,-505.88 1104.64,-510.69 1100.27,-501.04 1095.2,-505.88"/>
</a>
</g>
</g>
<!-- Node6 -->
<g id="Node000006" class="node">
<title>Node6</title>
<g id="a_Node000006"><a xlink:href="a00416_source.html" target="_top" xlink:title=" ">
<polygon fill="white" stroke="#666666" points="1119.25,-408 995.25,-408 995.25,-376 1119.25,-376 1119.25,-408"/>
<text text-anchor="start" x="1003.25" y="-394.5" font-family="Helvetica,sans-Serif" font-size="10.00">psfb_droop.X/sources</text>
<text text-anchor="middle" x="1057.25" y="-382.5" font-family="Helvetica,sans-Serif" font-size="10.00">/pwrctrl/pwrctrl_typedef.h</text>
</a>
</g>
</g>
<!-- Node5&#45;&gt;Node6 -->
<g id="edge5_Node000005_Node000006" class="edge">
<title>Node5&#45;&gt;Node6</title>
<g id="a_edge5_Node000005_Node000006"><a xlink:title=" ">
<path fill="none" stroke="#63b8ff" d="M1057.25,-432.89C1057.25,-424.52 1057.25,-415.54 1057.25,-408.22"/>
<polygon fill="#63b8ff" stroke="#63b8ff" points="1053.75,-432.69 1057.25,-442.69 1060.75,-432.69 1053.75,-432.69"/>
</a>
</g>
</g>
<!-- Node7 -->
<g id="Node000007" class="node">
<title>Node7</title>
<g id="a_Node000007"><a xlink:href="a00281.html" target="_top" xlink:title="Contains PWM initialization that was not supported by MCC generated code.">
<polygon fill="white" stroke="#666666" points="927.75,-340 794.75,-340 794.75,-296 927.75,-296 927.75,-340"/>
<text text-anchor="start" x="802.75" y="-326.5" font-family="Helvetica,sans-Serif" font-size="10.00">psfb_droop.X/sources</text>
<text text-anchor="start" x="802.75" y="-314.5" font-family="Helvetica,sans-Serif" font-size="10.00">/driver/mcc_extension</text>
<text text-anchor="middle" x="861.25" y="-302.5" font-family="Helvetica,sans-Serif" font-size="10.00">/drv_custom_config_pwm.h</text>
</a>
</g>
</g>
<!-- Node6&#45;&gt;Node7 -->
<g id="edge6_Node000006_Node000007" class="edge">
<title>Node6&#45;&gt;Node7</title>
<g id="a_edge6_Node000006_Node000007"><a xlink:title=" ">
<path fill="none" stroke="#63b8ff" d="M1005.05,-371.82C978.72,-362.15 946.71,-350.39 919.58,-340.43"/>
<polygon fill="#63b8ff" stroke="#63b8ff" points="1003.61,-375.39 1014.2,-375.55 1006.02,-368.82 1003.61,-375.39"/>
</a>
</g>
</g>
<!-- Node8 -->
<g id="Node000008" class="node">
<title>Node8</title>
<g id="a_Node000008"><a xlink:href="a00302.html" target="_top" xlink:title="Contains public fault functions.">
<polygon fill="white" stroke="#666666" points="1290.75,-260 1181.75,-260 1181.75,-228 1290.75,-228 1290.75,-260"/>
<text text-anchor="start" x="1189.75" y="-246.5" font-family="Helvetica,sans-Serif" font-size="10.00">psfb_droop.X/sources</text>
<text text-anchor="middle" x="1236.25" y="-234.5" font-family="Helvetica,sans-Serif" font-size="10.00">/fault/fault.h</text>
</a>
</g>
</g>
<!-- Node6&#45;&gt;Node8 -->
<g id="edge7_Node000006_Node000008" class="edge">
<title>Node6&#45;&gt;Node8</title>
<g id="a_edge7_Node000006_Node000008"><a xlink:title=" ">
<path fill="none" stroke="#63b8ff" d="M1084.32,-368.92C1121.01,-339 1185.58,-286.33 1217.42,-260.36"/>
<polygon fill="#63b8ff" stroke="#63b8ff" points="1082.6,-366.62 1077.07,-375.65 1087.03,-372.04 1082.6,-366.62"/>
</a>
</g>
</g>
<!-- Node13 -->
<g id="Node000013" class="node">
<title>Node13</title>
<g id="a_Node000013"><a xlink:href="a00383_source.html" target="_top" xlink:title=" ">
<polygon fill="white" stroke="#666666" points="820.75,-260 711.75,-260 711.75,-228 820.75,-228 820.75,-260"/>
<text text-anchor="start" x="719.75" y="-246.5" font-family="Helvetica,sans-Serif" font-size="10.00">psfb_droop.X/sources</text>
<text text-anchor="middle" x="766.25" y="-234.5" font-family="Helvetica,sans-Serif" font-size="10.00">/pwrctrl/pwrctrl.h</text>
</a>
</g>
</g>
<!-- Node6&#45;&gt;Node13 -->
<g id="edge14_Node000006_Node000013" class="edge">
<title>Node6&#45;&gt;Node13</title>
<g id="a_edge14_Node000006_Node000013"><a xlink:title=" ">
<path fill="none" stroke="#63b8ff" d="M984.34,-386.4C913.53,-380.38 812.8,-367.22 785.25,-340 763.95,-318.96 763.09,-281.25 764.54,-260.22"/>
<polygon fill="#63b8ff" stroke="#63b8ff" points="983.74,-389.94 993.99,-387.27 984.31,-382.97 983.74,-389.94"/>
</a>
</g>
</g>
<!-- Node22 -->
<g id="Node000022" class="node">
<title>Node22</title>
<g id="a_Node000022"><a xlink:href="a00410.html" target="_top" xlink:title="Contains public functions for PWM.">
<polygon fill="white" stroke="#666666" points="963.62,-186 850.88,-186 850.88,-154 963.62,-154 963.62,-186"/>
<text text-anchor="start" x="858.88" y="-172.5" font-family="Helvetica,sans-Serif" font-size="10.00">psfb_droop.X/sources</text>
<text text-anchor="middle" x="907.25" y="-160.5" font-family="Helvetica,sans-Serif" font-size="10.00">/pwrctrl/pwrctrl_pwm.h</text>
</a>
</g>
</g>
<!-- Node6&#45;&gt;Node22 -->
<g id="edge41_Node000006_Node000022" class="edge">
<title>Node6&#45;&gt;Node22</title>
<g id="a_edge41_Node000006_Node000022"><a xlink:title=" ">
<path fill="none" stroke="#63b8ff" d="M1074.46,-366.25C1085.92,-346.48 1096.92,-318.45 1085.25,-296 1056.6,-240.88 991.28,-204.99 948.24,-186.37"/>
<polygon fill="#63b8ff" stroke="#63b8ff" points="1071.02,-364.16 1068.72,-374.5 1076.97,-367.85 1071.02,-364.16"/>
</a>
</g>
</g>
<!-- Node23 -->
<g id="Node000023" class="node">
<title>Node23</title>
<g id="a_Node000023"><a xlink:href="a00407.html" target="_top" xlink:title="Contains PSFB control phase calculation between primary and secondary, and the PWM distribution.">
<polygon fill="white" stroke="#666666" points="1430.62,-106 1317.88,-106 1317.88,-74 1430.62,-74 1430.62,-106"/>
<text text-anchor="start" x="1325.88" y="-92.5" font-family="Helvetica,sans-Serif" font-size="10.00">psfb_droop.X/sources</text>
<text text-anchor="middle" x="1374.25" y="-80.5" font-family="Helvetica,sans-Serif" font-size="10.00">/pwrctrl/pwrctrl_pwm.c</text>
</a>
</g>
</g>
<!-- Node6&#45;&gt;Node23 -->
<g id="edge40_Node000006_Node000023" class="edge">
<title>Node6&#45;&gt;Node23</title>
<g id="a_edge40_Node000006_Node000023"><a xlink:title=" ">
<path fill="none" stroke="#63b8ff" d="M1127.54,-372.3C1186.27,-353.24 1268.23,-318.07 1318.25,-260 1357.99,-213.86 1369.73,-138.66 1373.03,-106.44"/>
<polygon fill="#63b8ff" stroke="#63b8ff" points="1126.7,-369.21 1118.22,-375.57 1128.81,-375.89 1126.7,-369.21"/>
</a>
</g>
</g>
<!-- Node24 -->
<g id="Node000024" class="node">
<title>Node24</title>
<g id="a_Node000024"><a xlink:href="a00389.html" target="_top" xlink:title="Contains the power control reusable functions.">
<polygon fill="white" stroke="#666666" points="1076.25,-334 946.25,-334 946.25,-302 1076.25,-302 1076.25,-334"/>
<text text-anchor="start" x="954.25" y="-320.5" font-family="Helvetica,sans-Serif" font-size="10.00">psfb_droop.X/sources</text>
<text text-anchor="middle" x="1011.25" y="-308.5" font-family="Helvetica,sans-Serif" font-size="10.00">/pwrctrl/pwrctrl_common.h</text>
</a>
</g>
</g>
<!-- Node6&#45;&gt;Node24 -->
<g id="edge38_Node000006_Node000024" class="edge">
<title>Node6&#45;&gt;Node24</title>
<g id="a_edge38_Node000006_Node000024"><a xlink:title=" ">
<path fill="none" stroke="#63b8ff" d="M1041.58,-366.47C1034.75,-355.78 1026.97,-343.6 1020.99,-334.25"/>
<polygon fill="#63b8ff" stroke="#63b8ff" points="1039.16,-368.19 1047.49,-374.73 1045.06,-364.42 1039.16,-368.19"/>
</a>
</g>
</g>
<!-- Node8&#45;&gt;Node2 -->
<g id="edge9_Node000008_Node000002" class="edge">
<title>Node8&#45;&gt;Node2</title>
<g id="a_edge9_Node000008_Node000002"><a xlink:title=" ">
<path fill="none" stroke="#63b8ff" d="M1291.3,-223.67C1368.61,-193.62 1494.09,-132.43 1439.25,-68 1406.49,-29.5 1260.35,-19.98 1179.14,-17.68"/>
<polygon fill="#63b8ff" stroke="#63b8ff" points="1290.29,-220.69 1282.2,-227.53 1292.79,-227.23 1290.29,-220.69"/>
</a>
</g>
</g>
<!-- Node8&#45;&gt;Node8 -->
<g id="edge10_Node000008_Node000008" class="edge">
<title>Node8&#45;&gt;Node8</title>
<g id="a_edge10_Node000008_Node000008"><a xlink:title=" ">
<path fill="none" stroke="#63b8ff" d="M1301.16,-254.24C1305.87,-251.93 1308.75,-248.52 1308.75,-244 1308.75,-236.77 1301.37,-232.37 1290.95,-230.79"/>
<polygon fill="#63b8ff" stroke="#63b8ff" points="1300.57,-251.06 1291.95,-257.21 1302.53,-257.78 1300.57,-251.06"/>
</a>
</g>
</g>
<!-- Node9 -->
<g id="Node000009" class="node">
<title>Node9</title>
<g id="a_Node000009"><a xlink:href="a00056_source.html" target="_top" xlink:title=" ">
<polygon fill="white" stroke="#666666" points="1123.12,-180 1019.38,-180 1019.38,-160 1123.12,-160 1123.12,-180"/>
<text text-anchor="middle" x="1071.25" y="-166.5" font-family="Helvetica,sans-Serif" font-size="10.00">psfb_droop.X/main.c</text>
</a>
</g>
</g>
<!-- Node8&#45;&gt;Node9 -->
<g id="edge8_Node000008_Node000009" class="edge">
<title>Node8&#45;&gt;Node9</title>
<g id="a_edge8_Node000008_Node000009"><a xlink:title=" ">
<path fill="none" stroke="#63b8ff" d="M1190.86,-223.19C1158.97,-209.28 1117.74,-191.29 1092.95,-180.47"/>
<polygon fill="#63b8ff" stroke="#63b8ff" points="1189.29,-226.76 1199.85,-227.55 1192.09,-220.35 1189.29,-226.76"/>
</a>
</g>
</g>
<!-- Node10 -->
<g id="Node000010" class="node">
<title>Node10</title>
<g id="a_Node000010"><a xlink:href="a00398.html" target="_top" xlink:title="Contains Control loop interrupt Callback that acquires the ADC raw data and process it in the control...">
<polygon fill="white" stroke="#666666" points="1261.75,-106 1152.75,-106 1152.75,-74 1261.75,-74 1261.75,-106"/>
<text text-anchor="start" x="1160.75" y="-92.5" font-family="Helvetica,sans-Serif" font-size="10.00">psfb_droop.X/sources</text>
<text text-anchor="middle" x="1207.25" y="-80.5" font-family="Helvetica,sans-Serif" font-size="10.00">/pwrctrl/pwrctrl_isr.c</text>
</a>
</g>
</g>
<!-- Node8&#45;&gt;Node10 -->
<g id="edge11_Node000008_Node000010" class="edge">
<title>Node8&#45;&gt;Node10</title>
<g id="a_edge11_Node000008_Node000010"><a xlink:title=" ">
<path fill="none" stroke="#63b8ff" d="M1250.34,-218.17C1259.49,-198.67 1268.19,-171.07 1259.25,-148 1252.81,-131.39 1239.03,-116.65 1227.27,-106.33"/>
<polygon fill="#63b8ff" stroke="#63b8ff" points="1246.85,-216.31 1245.46,-226.82 1253.1,-219.47 1246.85,-216.31"/>
</a>
</g>
</g>
<!-- Node11 -->
<g id="Node000011" class="node">
<title>Node11</title>
<g id="a_Node000011"><a xlink:href="a00404.html" target="_top" xlink:title="Contains some of the functions used in the interrupt service routine of control loop.">
<polygon fill="white" stroke="#666666" points="1249.75,-192 1140.75,-192 1140.75,-148 1249.75,-148 1249.75,-192"/>
<text text-anchor="start" x="1148.75" y="-178.5" font-family="Helvetica,sans-Serif" font-size="10.00">psfb_droop.X/sources</text>
<text text-anchor="start" x="1148.75" y="-166.5" font-family="Helvetica,sans-Serif" font-size="10.00">/pwrctrl/pwrctrl_isr</text>
<text text-anchor="middle" x="1195.25" y="-154.5" font-family="Helvetica,sans-Serif" font-size="10.00">_extension.c</text>
</a>
</g>
</g>
<!-- Node8&#45;&gt;Node11 -->
<g id="edge12_Node000008_Node000011" class="edge">
<title>Node8&#45;&gt;Node11</title>
<g id="a_edge12_Node000008_Node000011"><a xlink:title=" ">
<path fill="none" stroke="#63b8ff" d="M1222.2,-218.33C1217.38,-209.85 1212.01,-200.44 1207.35,-192.26"/>
<polygon fill="#63b8ff" stroke="#63b8ff" points="1219.57,-219.77 1227.55,-226.73 1225.65,-216.31 1219.57,-219.77"/>
</a>
</g>
</g>
<!-- Node12 -->
<g id="Node000012" class="node">
<title>Node12</title>
<g id="a_Node000012"><a xlink:href="a00413.html" target="_top" xlink:title="Contains power control state machine functions that is executed every 100us.">
<polygon fill="white" stroke="#666666" points="878.75,-32 769.75,-32 769.75,0 878.75,0 878.75,-32"/>
<text text-anchor="start" x="777.75" y="-18.5" font-family="Helvetica,sans-Serif" font-size="10.00">psfb_droop.X/sources</text>
<text text-anchor="middle" x="824.25" y="-6.5" font-family="Helvetica,sans-Serif" font-size="10.00">/pwrctrl/pwrctrl_sm.c</text>
</a>
</g>
</g>
<!-- Node8&#45;&gt;Node12 -->
<g id="edge13_Node000008_Node000012" class="edge">
<title>Node8&#45;&gt;Node12</title>
<g id="a_edge13_Node000008_Node000012"><a xlink:title=" ">
<path fill="none" stroke="#63b8ff" d="M1258.92,-219.16C1265.12,-211.14 1271.02,-201.75 1274.25,-192 1281.01,-171.61 1278.82,-76.17 1271.25,-68 1258.04,-53.75 995.26,-30.84 878.9,-21.34"/>
<polygon fill="#63b8ff" stroke="#63b8ff" points="1255.63,-216.64 1251.91,-226.56 1261,-221.12 1255.63,-216.64"/>
</a>
</g>
</g>
<!-- Node13&#45;&gt;Node2 -->
<g id="edge23_Node000013_Node000002" class="edge">
<title>Node13&#45;&gt;Node2</title>
<g id="a_edge23_Node000013_Node000002"><a xlink:title=" ">
<path fill="none" stroke="#63b8ff" d="M754.46,-218C738.73,-180.53 716.83,-109.77 753.25,-68 773.71,-44.54 971.16,-27.64 1069.36,-20.61"/>
<polygon fill="#63b8ff" stroke="#63b8ff" points="751.46,-218.88 758.68,-226.63 757.87,-216.07 751.46,-218.88"/>
</a>
</g>
</g>
<!-- Node13&#45;&gt;Node3 -->
<g id="edge24_Node000013_Node000003" class="edge">
<title>Node13&#45;&gt;Node3</title>
<g id="a_edge24_Node000013_Node000003"><a xlink:title=" ">
<path fill="none" stroke="#63b8ff" d="M700.62,-241.01C588.11,-236.83 351.48,-224.65 154.25,-192 145.35,-190.53 136.01,-188.59 126.92,-186.49"/>
<polygon fill="#63b8ff" stroke="#63b8ff" points="700.32,-244.54 710.44,-241.4 700.57,-237.55 700.32,-244.54"/>
</a>
</g>
</g>
<!-- Node13&#45;&gt;Node9 -->
<g id="edge15_Node000013_Node000009" class="edge">
<title>Node13&#45;&gt;Node9</title>
<g id="a_edge15_Node000013_Node000009"><a xlink:title=" ">
<path fill="none" stroke="#63b8ff" d="M831.81,-230.81C880.06,-221.4 947.11,-207.41 1005.25,-192 1017.92,-188.64 1031.76,-184.34 1043.49,-180.5"/>
<polygon fill="#63b8ff" stroke="#63b8ff" points="831.34,-227.53 822.19,-232.86 832.67,-234.4 831.34,-227.53"/>
</a>
</g>
</g>
<!-- Node13&#45;&gt;Node10 -->
<g id="edge28_Node000013_Node000010" class="edge">
<title>Node13&#45;&gt;Node10</title>
<g id="a_edge28_Node000013_Node000010"><a xlink:title=" ">
<path fill="none" stroke="#63b8ff" d="M831.75,-237.12C874.33,-230.91 929.64,-218.15 972.25,-192 994.27,-178.48 988.5,-161.94 1010.25,-148 1033.85,-132.87 1102.98,-114.78 1152.68,-103.1"/>
<polygon fill="#63b8ff" stroke="#63b8ff" points="831.37,-233.78 821.94,-238.6 832.32,-240.72 831.37,-233.78"/>
</a>
</g>
</g>
<!-- Node13&#45;&gt;Node11 -->
<g id="edge29_Node000013_Node000011" class="edge">
<title>Node13&#45;&gt;Node11</title>
<g id="a_edge29_Node000013_Node000011"><a xlink:title=" ">
<path fill="none" stroke="#63b8ff" d="M831.6,-237.54C905.33,-230.54 1028.51,-216.3 1132.25,-192 1134.94,-191.37 1137.69,-190.67 1140.45,-189.93"/>
<polygon fill="#63b8ff" stroke="#63b8ff" points="831.71,-234.11 822.08,-238.52 832.37,-241.08 831.71,-234.11"/>
</a>
</g>
</g>
<!-- Node13&#45;&gt;Node12 -->
<g id="edge37_Node000013_Node000012" class="edge">
<title>Node13&#45;&gt;Node12</title>
<g id="a_edge37_Node000013_Node000012"><a xlink:title=" ">
<path fill="none" stroke="#63b8ff" d="M700.67,-239.58C552.71,-231.54 204.4,-210.73 187.25,-192 174.04,-177.58 175.6,-163.71 187.25,-148 256.62,-54.49 627.69,-26.62 769.29,-19.32"/>
<polygon fill="#63b8ff" stroke="#63b8ff" points="700.22,-243.11 710.4,-240.16 700.6,-236.12 700.22,-243.11"/>
</a>
</g>
</g>
<!-- Node14 -->
<g id="Node000014" class="node">
<title>Node14</title>
<g id="a_Node000014"><a xlink:href="a00233_source.html" target="_top" xlink:title=" ">
<polygon fill="white" stroke="#666666" points="926.12,-106 762.38,-106 762.38,-74 926.12,-74 926.12,-106"/>
<text text-anchor="start" x="770.38" y="-92.5" font-family="Helvetica,sans-Serif" font-size="10.00">psfb_droop.X/sources</text>
<text text-anchor="middle" x="844.25" y="-80.5" font-family="Helvetica,sans-Serif" font-size="10.00">/app/app_PBV_psfb_frame_map.c</text>
</a>
</g>
</g>
<!-- Node13&#45;&gt;Node14 -->
<g id="edge16_Node000013_Node000014" class="edge">
<title>Node13&#45;&gt;Node14</title>
<g id="a_edge16_Node000013_Node000014"><a xlink:title=" ">
<path fill="none" stroke="#63b8ff" d="M776.67,-217.7C784.91,-198.31 797.01,-171.07 809.25,-148 816.98,-133.43 826.9,-117.49 834.21,-106.18"/>
<polygon fill="#63b8ff" stroke="#63b8ff" points="773.17,-216 772.52,-226.58 779.62,-218.71 773.17,-216"/>
</a>
</g>
</g>
<!-- Node15 -->
<g id="Node000015" class="node">
<title>Node15</title>
<g id="a_Node000015"><a xlink:href="a00269.html" target="_top" xlink:title="measure current sensor offsets">
<polygon fill="white" stroke="#666666" points="719.62,-192 600.88,-192 600.88,-148 719.62,-148 719.62,-192"/>
<text text-anchor="start" x="608.88" y="-178.5" font-family="Helvetica,sans-Serif" font-size="10.00">psfb_droop.X/sources</text>
<text text-anchor="start" x="608.88" y="-166.5" font-family="Helvetica,sans-Serif" font-size="10.00">/device/dev_adc_sensor</text>
<text text-anchor="middle" x="660.25" y="-154.5" font-family="Helvetica,sans-Serif" font-size="10.00">_offsets.h</text>
</a>
</g>
</g>
<!-- Node13&#45;&gt;Node15 -->
<g id="edge17_Node000013_Node000015" class="edge">
<title>Node13&#45;&gt;Node15</title>
<g id="a_edge17_Node000013_Node000015"><a xlink:title=" ">
<path fill="none" stroke="#63b8ff" d="M734.56,-221.47C721.04,-212.29 705.3,-201.6 691.8,-192.43"/>
<polygon fill="#63b8ff" stroke="#63b8ff" points="732.27,-224.83 742.51,-227.55 736.2,-219.04 732.27,-224.83"/>
</a>
</g>
</g>
<!-- Node18 -->
<g id="Node000018" class="node">
<title>Node18</title>
<g id="a_Node000018"><a xlink:href="a00293_source.html" target="_top" xlink:title=" ">
<polygon fill="white" stroke="#666666" points="1058.38,-112 944.12,-112 944.12,-68 1058.38,-68 1058.38,-112"/>
<text text-anchor="start" x="952.12" y="-98.5" font-family="Helvetica,sans-Serif" font-size="10.00">psfb_droop.X/sources</text>
<text text-anchor="start" x="952.12" y="-86.5" font-family="Helvetica,sans-Serif" font-size="10.00">/driver/mcc_extension</text>
<text text-anchor="middle" x="1001.25" y="-74.5" font-family="Helvetica,sans-Serif" font-size="10.00">/mcc_custom_config.c</text>
</a>
</g>
</g>
<!-- Node13&#45;&gt;Node18 -->
<g id="edge22_Node000013_Node000018" class="edge">
<title>Node13&#45;&gt;Node18</title>
<g id="a_edge22_Node000013_Node000018"><a xlink:title=" ">
<path fill="none" stroke="#63b8ff" d="M786.78,-219.22C793.99,-210.72 802.08,-201.01 809.25,-192 824.47,-172.87 822.58,-162.51 842.25,-148 850.92,-141.6 902.06,-123.76 944.04,-109.72"/>
<polygon fill="#63b8ff" stroke="#63b8ff" points="783.49,-216.69 779.66,-226.57 788.81,-221.23 783.49,-216.69"/>
</a>
</g>
</g>
<!-- Node19 -->
<g id="Node000019" class="node">
<title>Node19</title>
<g id="a_Node000019"><a xlink:href="a00380.html" target="_top" xlink:title="Contains power control initialization including control loop initialization and start&#45;up initializati...">
<polygon fill="white" stroke="#666666" points="305.75,-186 196.75,-186 196.75,-154 305.75,-154 305.75,-186"/>
<text text-anchor="start" x="204.75" y="-172.5" font-family="Helvetica,sans-Serif" font-size="10.00">psfb_droop.X/sources</text>
<text text-anchor="middle" x="251.25" y="-160.5" font-family="Helvetica,sans-Serif" font-size="10.00">/pwrctrl/pwrctrl.c</text>
</a>
</g>
</g>
<!-- Node13&#45;&gt;Node19 -->
<g id="edge25_Node000013_Node000019" class="edge">
<title>Node13&#45;&gt;Node19</title>
<g id="a_edge25_Node000013_Node000019"><a xlink:title=" ">
<path fill="none" stroke="#63b8ff" d="M700.41,-239.9C611.78,-234.74 449.59,-221.85 314.25,-192 307.49,-190.51 300.45,-188.57 293.61,-186.46"/>
<polygon fill="#63b8ff" stroke="#63b8ff" points="700.19,-243.45 710.38,-240.52 700.59,-236.46 700.19,-243.45"/>
</a>
</g>
</g>
<!-- Node20 -->
<g id="Node000020" class="node">
<title>Node20</title>
<g id="a_Node000020"><a xlink:href="a00392.html" target="_top" xlink:title="Contains power control interface with communication/gui.">
<polygon fill="white" stroke="#666666" points="434.88,-192 323.62,-192 323.62,-148 434.88,-148 434.88,-192"/>
<text text-anchor="start" x="331.62" y="-178.5" font-family="Helvetica,sans-Serif" font-size="10.00">psfb_droop.X/sources</text>
<text text-anchor="start" x="331.62" y="-166.5" font-family="Helvetica,sans-Serif" font-size="10.00">/pwrctrl/pwrctrl_comm</text>
<text text-anchor="middle" x="379.25" y="-154.5" font-family="Helvetica,sans-Serif" font-size="10.00">_interface.c</text>
</a>
</g>
</g>
<!-- Node13&#45;&gt;Node20 -->
<g id="edge26_Node000013_Node000020" class="edge">
<title>Node13&#45;&gt;Node20</title>
<g id="a_edge26_Node000013_Node000020"><a xlink:title=" ">
<path fill="none" stroke="#63b8ff" d="M700.76,-235.66C635.28,-227.61 531.98,-212.99 444.25,-192 441.25,-191.28 438.19,-190.49 435.11,-189.66"/>
<polygon fill="#63b8ff" stroke="#63b8ff" points="699.98,-239.21 710.33,-236.94 700.83,-232.26 699.98,-239.21"/>
</a>
</g>
</g>
<!-- Node21 -->
<g id="Node000021" class="node">
<title>Node21</title>
<g id="a_Node000021"><a xlink:href="a00386.html" target="_top" xlink:title="Contains generic functions that handles power control ramp Up/Down and the averaging generic function...">
<polygon fill="white" stroke="#666666" points="583.25,-186 453.25,-186 453.25,-154 583.25,-154 583.25,-186"/>
<text text-anchor="start" x="461.25" y="-172.5" font-family="Helvetica,sans-Serif" font-size="10.00">psfb_droop.X/sources</text>
<text text-anchor="middle" x="518.25" y="-160.5" font-family="Helvetica,sans-Serif" font-size="10.00">/pwrctrl/pwrctrl_common.c</text>
</a>
</g>
</g>
<!-- Node13&#45;&gt;Node21 -->
<g id="edge27_Node000013_Node000021" class="edge">
<title>Node13&#45;&gt;Node21</title>
<g id="a_edge27_Node000013_Node000021"><a xlink:title=" ">
<path fill="none" stroke="#63b8ff" d="M702.7,-224.55C662.02,-212.74 609.84,-197.59 571.36,-186.42"/>
<polygon fill="#63b8ff" stroke="#63b8ff" points="701.47,-228.13 712.05,-227.55 703.42,-221.4 701.47,-228.13"/>
</a>
</g>
</g>
<!-- Node13&#45;&gt;Node22 -->
<g id="edge30_Node000013_Node000022" class="edge">
<title>Node13&#45;&gt;Node22</title>
<g id="a_edge30_Node000013_Node000022"><a xlink:title=" ">
<path fill="none" stroke="#63b8ff" d="M806.12,-222.64C828.64,-211.14 856.34,-197 877.05,-186.42"/>
<polygon fill="#63b8ff" stroke="#63b8ff" points="804.81,-219.89 797.5,-227.55 808,-226.12 804.81,-219.89"/>
</a>
</g>
</g>
<!-- Node16 -->
<g id="Node000016" class="node">
<title>Node16</title>
<g id="a_Node000016"><a xlink:href="a00266_source.html" target="_top" xlink:title=" ">
<polygon fill="white" stroke="#666666" points="578.62,-112 459.88,-112 459.88,-68 578.62,-68 578.62,-112"/>
<text text-anchor="start" x="467.88" y="-98.5" font-family="Helvetica,sans-Serif" font-size="10.00">psfb_droop.X/sources</text>
<text text-anchor="start" x="467.88" y="-86.5" font-family="Helvetica,sans-Serif" font-size="10.00">/device/dev_adc_sensor</text>
<text text-anchor="middle" x="519.25" y="-74.5" font-family="Helvetica,sans-Serif" font-size="10.00">_offsets.c</text>
</a>
</g>
</g>
<!-- Node15&#45;&gt;Node16 -->
<g id="edge18_Node000015_Node000016" class="edge">
<title>Node15&#45;&gt;Node16</title>
<g id="a_edge18_Node000015_Node000016"><a xlink:title=" ">
<path fill="none" stroke="#63b8ff" d="M612.11,-142.37C594.37,-132.55 574.51,-121.57 557.73,-112.29"/>
<polygon fill="#63b8ff" stroke="#63b8ff" points="610.28,-145.91 620.72,-147.69 613.67,-139.78 610.28,-145.91"/>
</a>
</g>
</g>
<!-- Node17 -->
<g id="Node000017" class="node">
<title>Node17</title>
<g id="a_Node000017"><a xlink:href="a00263.html" target="_top" xlink:title="Contains h files that are part of device layer.">
<polygon fill="white" stroke="#666666" points="705.75,-106 596.75,-106 596.75,-74 705.75,-74 705.75,-106"/>
<text text-anchor="start" x="604.75" y="-92.5" font-family="Helvetica,sans-Serif" font-size="10.00">psfb_droop.X/sources</text>
<text text-anchor="middle" x="651.25" y="-80.5" font-family="Helvetica,sans-Serif" font-size="10.00">/device/device.h</text>
</a>
</g>
</g>
<!-- Node15&#45;&gt;Node17 -->
<g id="edge19_Node000015_Node000017" class="edge">
<title>Node15&#45;&gt;Node17</title>
<g id="a_edge19_Node000015_Node000017"><a xlink:title=" ">
<path fill="none" stroke="#63b8ff" d="M656.55,-136.96C655.32,-126.28 654.01,-114.88 652.99,-106.11"/>
<polygon fill="#63b8ff" stroke="#63b8ff" points="653.17,-137.15 657.79,-146.69 660.12,-136.35 653.17,-137.15"/>
</a>
</g>
</g>
<!-- Node17&#45;&gt;Node2 -->
<g id="edge20_Node000017_Node000002" class="edge">
<title>Node17&#45;&gt;Node2</title>
<g id="a_edge20_Node000017_Node000002"><a xlink:title=" ">
<path fill="none" stroke="#63b8ff" d="M708.53,-70.76C712.48,-69.75 716.41,-68.82 720.25,-68 843.66,-41.63 991.38,-27.24 1069.52,-20.94"/>
<polygon fill="#63b8ff" stroke="#63b8ff" points="707.85,-67.59 699.11,-73.57 709.68,-74.35 707.85,-67.59"/>
</a>
</g>
</g>
<!-- Node17&#45;&gt;Node12 -->
<g id="edge21_Node000017_Node000012" class="edge">
<title>Node17&#45;&gt;Node12</title>
<g id="a_edge21_Node000017_Node000012"><a xlink:title=" ">
<path fill="none" stroke="#63b8ff" d="M698.32,-69.41C726.27,-57.78 761.22,-43.23 787.2,-32.42"/>
<polygon fill="#63b8ff" stroke="#63b8ff" points="697.25,-66.48 689.36,-73.55 699.94,-72.94 697.25,-66.48"/>
</a>
</g>
</g>
<!-- Node22&#45;&gt;Node2 -->
<g id="edge33_Node000022_Node000002" class="edge">
<title>Node22&#45;&gt;Node2</title>
<g id="a_edge33_Node000022_Node000002"><a xlink:title=" ">
<path fill="none" stroke="#63b8ff" d="M967.59,-150.33C1018.31,-134.53 1082.94,-114.13 1085.25,-112 1108.43,-90.59 1118.2,-53.37 1122.02,-32.44"/>
<polygon fill="#63b8ff" stroke="#63b8ff" points="966.84,-147.21 958.33,-153.52 968.92,-153.89 966.84,-147.21"/>
</a>
</g>
</g>
<!-- Node22&#45;&gt;Node10 -->
<g id="edge34_Node000022_Node000010" class="edge">
<title>Node22&#45;&gt;Node10</title>
<g id="a_edge34_Node000022_Node000010"><a xlink:title=" ">
<path fill="none" stroke="#63b8ff" d="M967.63,-150.59C970.88,-149.69 974.1,-148.82 977.25,-148 1048.19,-129.45 1067.35,-130.69 1138.25,-112 1144.67,-110.31 1151.38,-108.42 1158,-106.48"/>
<polygon fill="#63b8ff" stroke="#63b8ff" points="966.89,-147.45 958.22,-153.54 968.79,-154.18 966.89,-147.45"/>
</a>
</g>
</g>
<!-- Node22&#45;&gt;Node12 -->
<g id="edge36_Node000022_Node000012" class="edge">
<title>Node22&#45;&gt;Node12</title>
<g id="a_edge36_Node000022_Node000012"><a xlink:title=" ">
<path fill="none" stroke="#63b8ff" d="M964.93,-150.19C1009.47,-135.38 1064.06,-116.53 1067.25,-112 1078.52,-96.02 1079.58,-83.18 1067.25,-68 1044.02,-39.39 943.4,-26.24 879.15,-20.67"/>
<polygon fill="#63b8ff" stroke="#63b8ff" points="964.13,-147.1 955.73,-153.56 966.33,-153.74 964.13,-147.1"/>
</a>
</g>
</g>
<!-- Node22&#45;&gt;Node14 -->
<g id="edge31_Node000022_Node000014" class="edge">
<title>Node22&#45;&gt;Node14</title>
<g id="a_edge31_Node000022_Node000014"><a xlink:title=" ">
<path fill="none" stroke="#63b8ff" d="M888.13,-145.33C877.92,-132.68 865.64,-117.48 856.67,-106.38"/>
<polygon fill="#63b8ff" stroke="#63b8ff" points="885.8,-147.01 894.8,-152.59 891.24,-142.61 885.8,-147.01"/>
</a>
</g>
</g>
<!-- Node22&#45;&gt;Node18 -->
<g id="edge32_Node000022_Node000018" class="edge">
<title>Node22&#45;&gt;Node18</title>
<g id="a_edge32_Node000022_Node000018"><a xlink:title=" ">
<path fill="none" stroke="#63b8ff" d="M933.98,-146.82C947.04,-135.98 962.69,-123 975.6,-112.28"/>
<polygon fill="#63b8ff" stroke="#63b8ff" points="932.28,-144.51 926.82,-153.59 936.75,-149.9 932.28,-144.51"/>
</a>
</g>
</g>
<!-- Node22&#45;&gt;Node23 -->
<g id="edge35_Node000022_Node000023" class="edge">
<title>Node22&#45;&gt;Node23</title>
<g id="a_edge35_Node000022_Node000023"><a xlink:title=" ">
<path fill="none" stroke="#63b8ff" d="M974.77,-154.59C986.57,-152.26 998.75,-149.96 1010.25,-148 1125.68,-128.29 1155.82,-131.71 1271.25,-112 1286.27,-109.44 1302.45,-106.31 1317.44,-103.26"/>
<polygon fill="#63b8ff" stroke="#63b8ff" points="974.18,-151.34 965.06,-156.74 975.56,-158.2 974.18,-151.34"/>
</a>
</g>
</g>
<!-- Node24&#45;&gt;Node13 -->
<g id="edge39_Node000024_Node000013" class="edge">
<title>Node24&#45;&gt;Node13</title>
<g id="a_edge39_Node000024_Node000013"><a xlink:title=" ">
<path fill="none" stroke="#63b8ff" d="M948.21,-298.47C908.06,-286.67 856.65,-271.57 818.72,-260.42"/>
<polygon fill="#63b8ff" stroke="#63b8ff" points="947.11,-302.09 957.69,-301.55 949.08,-295.38 947.11,-302.09"/>
</a>
</g>
</g>
</g>
</svg>
