<?xml version="1.0" encoding="UTF-8" standalone="no"?>
<!DOCTYPE svg PUBLIC "-//W3C//DTD SVG 1.1//EN"
 "http://www.w3.org/Graphics/SVG/1.1/DTD/svg11.dtd">
<!-- Generated by graphviz version 8.1.0 (20230707.0739)
 -->
<!-- Title: Fault_GetFlags Pages: 1 -->
<svg width="409pt" height="78pt"
 viewBox="0.00 0.00 409.25 78.00" xmlns="http://www.w3.org/2000/svg" xmlns:xlink="http://www.w3.org/1999/xlink">

<svg id="main" version="1.1" xmlns="http://www.w3.org/2000/svg" xmlns:xlink="http://www.w3.org/1999/xlink" xml:space="preserve">

<style type="text/css"><![CDATA[
.node, .edge {opacity: 0.7;}
.node.selected, .edge.selected {opacity: 1;}
.edge:hover path { stroke: red; }
.edge:hover polygon { stroke: red; fill: red; }
]]></style>
<script type="application/ecmascript" xlink:href="svg.min.js"/>
<svg id="graph" class="graph">
<g id="graph0" class="graph" transform="scale(1 1) rotate(0) translate(4 74)">
<title>Fault_GetFlags</title>
<!-- Node1 -->
<g id="Node000001" class="node">
<title>Node1</title>
<g id="a_Node000001"><a xlink:title=" ">
<polygon fill="#999999" stroke="#666666" points="401.25,-42 318.5,-42 318.5,-22 401.25,-22 401.25,-42"/>
<text text-anchor="middle" x="359.88" y="-28.5" font-family="Helvetica,sans-Serif" font-size="10.00">Fault_GetFlags</text>
</a>
</g>
</g>
<!-- Node2 -->
<g id="Node000002" class="node">
<title>Node2</title>
<g id="a_Node000002"><a xlink:href="a00426.html#ga96b58cf519f2a436993861504db6b3e1" target="_top" xlink:title="this builds frame">
<polygon fill="white" stroke="#666666" points="282.5,-70 173.5,-70 173.5,-38 282.5,-38 282.5,-70"/>
<text text-anchor="start" x="181.5" y="-56.5" font-family="Helvetica,sans-Serif" font-size="10.00">App_PBV_psfb_Build</text>
<text text-anchor="middle" x="228" y="-44.5" font-family="Helvetica,sans-Serif" font-size="10.00">_Frame</text>
</a>
</g>
</g>
<!-- Node1&#45;&gt;Node2 -->
<g id="edge1_Node000001_Node000002" class="edge">
<title>Node1&#45;&gt;Node2</title>
<g id="a_edge1_Node000001_Node000002"><a xlink:title=" ">
<path fill="none" stroke="#63b8ff" d="M307.4,-40.72C299.36,-42.08 291.03,-43.49 282.93,-44.86"/>
<polygon fill="#63b8ff" stroke="#63b8ff" points="307.86,-44.02 317.14,-38.9 306.69,-37.12 307.86,-44.02"/>
</a>
</g>
</g>
<!-- Node4 -->
<g id="Node000004" class="node">
<title>Node4</title>
<g id="a_Node000004"><a xlink:href="a00443.html#gacd1ca209275dae0bc2388ac954858d83" target="_top" xlink:title="Executes the fault handlers.">
<polygon fill="white" stroke="#666666" points="267.5,-20 188.5,-20 188.5,0 267.5,0 267.5,-20"/>
<text text-anchor="middle" x="228" y="-6.5" font-family="Helvetica,sans-Serif" font-size="10.00">Fault_Execute</text>
</a>
</g>
</g>
<!-- Node1&#45;&gt;Node4 -->
<g id="edge3_Node000001_Node000004" class="edge">
<title>Node1&#45;&gt;Node4</title>
<g id="a_edge3_Node000001_Node000004"><a xlink:title=" ">
<path fill="none" stroke="#63b8ff" d="M307.31,-23.27C294.15,-21.04 280.22,-18.68 267.82,-16.58"/>
<polygon fill="#63b8ff" stroke="#63b8ff" points="306.69,-26.88 317.14,-25.1 307.86,-19.98 306.69,-26.88"/>
</a>
</g>
</g>
<!-- Node3 -->
<g id="Node000003" class="node">
<title>Node3</title>
<g id="a_Node000003"><a xlink:href="a00426.html#ga34ef08c06d636819aa039ff4a8f85c50" target="_top" xlink:title="this is high frequency task to simulate sending of high frequency numeric data. Also to check if ther...">
<polygon fill="white" stroke="#666666" points="137.5,-64 0,-64 0,-44 137.5,-44 137.5,-64"/>
<text text-anchor="middle" x="68.75" y="-50.5" font-family="Helvetica,sans-Serif" font-size="10.00">App_PBV_psfb_Task_10ms</text>
</a>
</g>
</g>
<!-- Node2&#45;&gt;Node3 -->
<g id="edge2_Node000002_Node000003" class="edge">
<title>Node2&#45;&gt;Node3</title>
<g id="a_edge2_Node000002_Node000003"><a xlink:title=" ">
<path fill="none" stroke="#63b8ff" d="M162.45,-54C154.36,-54 146.07,-54 137.92,-54"/>
<polygon fill="#63b8ff" stroke="#63b8ff" points="162.32,-57.5 172.32,-54 162.32,-50.5 162.32,-57.5"/>
</a>
</g>
</g>
<!-- Node5 -->
<g id="Node000005" class="node">
<title>Node5</title>
<g id="a_Node000005"><a xlink:href="a00435.html#ga2068c3c2584547dbc1c8b9bca2d55b18" target="_top" xlink:title="Executes the power converter control loop.">
<polygon fill="white" stroke="#666666" points="104.88,-20 32.62,-20 32.62,0 104.88,0 104.88,-20"/>
<text text-anchor="middle" x="68.75" y="-6.5" font-family="Helvetica,sans-Serif" font-size="10.00">__attribute__</text>
</a>
</g>
</g>
<!-- Node4&#45;&gt;Node5 -->
<g id="edge4_Node000004_Node000005" class="edge">
<title>Node4&#45;&gt;Node5</title>
<g id="a_edge4_Node000004_Node000005"><a xlink:title=" ">
<path fill="none" stroke="#63b8ff" d="M177.34,-10C153.92,-10 126.51,-10 105.22,-10"/>
<polygon fill="#63b8ff" stroke="#63b8ff" points="177.13,-13.5 187.13,-10 177.13,-6.5 177.13,-13.5"/>
</a>
</g>
</g>
</g>
</svg>
</svg>

<style type='text/css'>
<![CDATA[
[data-mouse-over-selected='false'] { opacity: 0.7; }
[data-mouse-over-selected='true']  { opacity: 1.0; }
]]>
</style>
<script type="application/ecmascript"><![CDATA[
document.addEventListener('DOMContentLoaded', (event) => {
  highlightEdges();
  highlightAdjacentNodes();
});
]]></script>
</svg>
