<?xml version="1.0" encoding="UTF-8" standalone="no"?>
<!DOCTYPE svg PUBLIC "-//W3C//DTD SVG 1.1//EN"
 "http://www.w3.org/Graphics/SVG/1.1/DTD/svg11.dtd">
<!-- Generated by graphviz version 8.1.0 (20230707.0739)
 -->
<!-- Title: psfb_droop.X/sources/pwrctrl/pwrctrl_common.h Pages: 1 -->
<svg width="1455pt" height="336pt"
 viewBox="0.00 0.00 1455.43 336.00" xmlns="http://www.w3.org/2000/svg" xmlns:xlink="http://www.w3.org/1999/xlink">
<g id="graph0" class="graph" transform="scale(1 1) rotate(0) translate(4 332)">
<title>psfb_droop.X/sources/pwrctrl/pwrctrl_common.h</title>
<!-- Node1 -->
<g id="Node000001" class="node">
<title>Node1</title>
<g id="a_Node000001"><a xlink:title="Contains the power control reusable functions.">
<polygon fill="#999999" stroke="#666666" points="836.88,-328 706.88,-328 706.88,-296 836.88,-296 836.88,-328"/>
<text text-anchor="start" x="714.88" y="-314.5" font-family="Helvetica,sans-Serif" font-size="10.00">psfb_droop.X/sources</text>
<text text-anchor="middle" x="771.88" y="-302.5" font-family="Helvetica,sans-Serif" font-size="10.00">/pwrctrl/pwrctrl_common.h</text>
</a>
</g>
</g>
<!-- Node2 -->
<g id="Node000002" class="node">
<title>Node2</title>
<g id="a_Node000002"><a xlink:href="a00383_source.html" target="_top" xlink:title=" ">
<polygon fill="white" stroke="#666666" points="826.38,-260 717.38,-260 717.38,-228 826.38,-228 826.38,-260"/>
<text text-anchor="start" x="725.38" y="-246.5" font-family="Helvetica,sans-Serif" font-size="10.00">psfb_droop.X/sources</text>
<text text-anchor="middle" x="771.88" y="-234.5" font-family="Helvetica,sans-Serif" font-size="10.00">/pwrctrl/pwrctrl.h</text>
</a>
</g>
</g>
<!-- Node1&#45;&gt;Node2 -->
<g id="edge1_Node000001_Node000002" class="edge">
<title>Node1&#45;&gt;Node2</title>
<g id="a_edge1_Node000001_Node000002"><a xlink:title=" ">
<path fill="none" stroke="#63b8ff" d="M771.88,-284.89C771.88,-276.52 771.88,-267.54 771.88,-260.22"/>
<polygon fill="#63b8ff" stroke="#63b8ff" points="768.38,-284.69 771.88,-294.69 775.38,-284.69 768.38,-284.69"/>
</a>
</g>
</g>
<!-- Node3 -->
<g id="Node000003" class="node">
<title>Node3</title>
<g id="a_Node000003"><a xlink:href="a00056_source.html" target="_top" xlink:title=" ">
<polygon fill="white" stroke="#666666" points="103.75,-180 0,-180 0,-160 103.75,-160 103.75,-180"/>
<text text-anchor="middle" x="51.88" y="-166.5" font-family="Helvetica,sans-Serif" font-size="10.00">psfb_droop.X/main.c</text>
</a>
</g>
</g>
<!-- Node2&#45;&gt;Node3 -->
<g id="edge2_Node000002_Node000003" class="edge">
<title>Node2&#45;&gt;Node3</title>
<g id="a_edge2_Node000002_Node000003"><a xlink:title=" ">
<path fill="none" stroke="#63b8ff" d="M706.35,-242.85C587.81,-241.49 330.32,-233.5 117.88,-192 104.07,-189.3 89.1,-184.68 76.91,-180.46"/>
<polygon fill="#63b8ff" stroke="#63b8ff" points="706.01,-246.36 716.04,-242.96 706.08,-239.36 706.01,-246.36"/>
</a>
</g>
</g>
<!-- Node4 -->
<g id="Node000004" class="node">
<title>Node4</title>
<g id="a_Node000004"><a xlink:href="a00233_source.html" target="_top" xlink:title=" ">
<polygon fill="white" stroke="#666666" points="586.75,-106 423,-106 423,-74 586.75,-74 586.75,-106"/>
<text text-anchor="start" x="431" y="-92.5" font-family="Helvetica,sans-Serif" font-size="10.00">psfb_droop.X/sources</text>
<text text-anchor="middle" x="504.88" y="-80.5" font-family="Helvetica,sans-Serif" font-size="10.00">/app/app_PBV_psfb_frame_map.c</text>
</a>
</g>
</g>
<!-- Node2&#45;&gt;Node4 -->
<g id="edge3_Node000002_Node000004" class="edge">
<title>Node2&#45;&gt;Node4</title>
<g id="a_edge3_Node000002_Node000004"><a xlink:title=" ">
<path fill="none" stroke="#63b8ff" d="M706.2,-234.63C649.33,-226.2 572.57,-211.65 548.88,-192 522.23,-169.9 511.27,-128.56 507.13,-106.24"/>
<polygon fill="#63b8ff" stroke="#63b8ff" points="705.54,-238.21 715.93,-236.18 706.54,-231.28 705.54,-238.21"/>
</a>
</g>
</g>
<!-- Node5 -->
<g id="Node000005" class="node">
<title>Node5</title>
<g id="a_Node000005"><a xlink:href="a00269.html" target="_top" xlink:title="measure current sensor offsets">
<polygon fill="white" stroke="#666666" points="410.25,-192 291.5,-192 291.5,-148 410.25,-148 410.25,-192"/>
<text text-anchor="start" x="299.5" y="-178.5" font-family="Helvetica,sans-Serif" font-size="10.00">psfb_droop.X/sources</text>
<text text-anchor="start" x="299.5" y="-166.5" font-family="Helvetica,sans-Serif" font-size="10.00">/device/dev_adc_sensor</text>
<text text-anchor="middle" x="350.88" y="-154.5" font-family="Helvetica,sans-Serif" font-size="10.00">_offsets.h</text>
</a>
</g>
</g>
<!-- Node2&#45;&gt;Node5 -->
<g id="edge4_Node000002_Node000005" class="edge">
<title>Node2&#45;&gt;Node5</title>
<g id="a_edge4_Node000002_Node000005"><a xlink:title=" ">
<path fill="none" stroke="#63b8ff" d="M706.71,-231.86C625.76,-218.01 488.76,-194.58 410.48,-181.19"/>
<polygon fill="#63b8ff" stroke="#63b8ff" points="705.82,-235.43 716.27,-233.66 707,-228.53 705.82,-235.43"/>
</a>
</g>
</g>
<!-- Node8 -->
<g id="Node000008" class="node">
<title>Node8</title>
<g id="a_Node000008"><a xlink:href="a00299.html" target="_top" xlink:title="Contains fault functions including the fault handler, fault object initialization and fault execution...">
<polygon fill="white" stroke="#666666" points="405.38,-32 296.38,-32 296.38,0 405.38,0 405.38,-32"/>
<text text-anchor="start" x="304.38" y="-18.5" font-family="Helvetica,sans-Serif" font-size="10.00">psfb_droop.X/sources</text>
<text text-anchor="middle" x="350.88" y="-6.5" font-family="Helvetica,sans-Serif" font-size="10.00">/fault/fault.c</text>
</a>
</g>
</g>
<!-- Node2&#45;&gt;Node8 -->
<g id="edge10_Node000002_Node000008" class="edge">
<title>Node2&#45;&gt;Node8</title>
<g id="a_edge10_Node000002_Node000008"><a xlink:title=" ">
<path fill="none" stroke="#63b8ff" d="M706.23,-239.72C591.56,-233.4 359.68,-217.83 282.88,-192 217.85,-170.13 184.54,-171.77 150.88,-112 141.28,-94.96 138.88,-83.44 150.88,-68 168.57,-45.22 243.12,-30.92 296,-23.45"/>
<polygon fill="#63b8ff" stroke="#63b8ff" points="705.77,-243.25 715.95,-240.3 706.15,-236.26 705.77,-243.25"/>
</a>
</g>
</g>
<!-- Node9 -->
<g id="Node000009" class="node">
<title>Node9</title>
<g id="a_Node000009"><a xlink:href="a00413.html" target="_top" xlink:title="Contains power control state machine functions that is executed every 100us.">
<polygon fill="white" stroke="#666666" points="969.38,-32 860.38,-32 860.38,0 969.38,0 969.38,-32"/>
<text text-anchor="start" x="868.38" y="-18.5" font-family="Helvetica,sans-Serif" font-size="10.00">psfb_droop.X/sources</text>
<text text-anchor="middle" x="914.88" y="-6.5" font-family="Helvetica,sans-Serif" font-size="10.00">/pwrctrl/pwrctrl_sm.c</text>
</a>
</g>
</g>
<!-- Node2&#45;&gt;Node9 -->
<g id="edge24_Node000002_Node000009" class="edge">
<title>Node2&#45;&gt;Node9</title>
<g id="a_edge24_Node000002_Node000009"><a xlink:title=" ">
<path fill="none" stroke="#63b8ff" d="M837.76,-242.78C995.14,-241.57 1382.78,-234.28 1421.88,-192 1554.94,-48.08 1126.38,-22.52 969.84,-17.98"/>
<polygon fill="#63b8ff" stroke="#63b8ff" points="837.81,-239.29 827.84,-242.86 837.86,-246.29 837.81,-239.29"/>
</a>
</g>
</g>
<!-- Node10 -->
<g id="Node000010" class="node">
<title>Node10</title>
<g id="a_Node000010"><a xlink:href="a00293_source.html" target="_top" xlink:title=" ">
<polygon fill="white" stroke="#666666" points="719,-112 604.75,-112 604.75,-68 719,-68 719,-112"/>
<text text-anchor="start" x="612.75" y="-98.5" font-family="Helvetica,sans-Serif" font-size="10.00">psfb_droop.X/sources</text>
<text text-anchor="start" x="612.75" y="-86.5" font-family="Helvetica,sans-Serif" font-size="10.00">/driver/mcc_extension</text>
<text text-anchor="middle" x="661.88" y="-74.5" font-family="Helvetica,sans-Serif" font-size="10.00">/mcc_custom_config.c</text>
</a>
</g>
</g>
<!-- Node2&#45;&gt;Node10 -->
<g id="edge9_Node000002_Node000010" class="edge">
<title>Node2&#45;&gt;Node10</title>
<g id="a_edge9_Node000002_Node000010"><a xlink:title=" ">
<path fill="none" stroke="#63b8ff" d="M706.41,-235.91C651.64,-228.47 579.67,-214.64 561.88,-192 549.79,-176.63 552.05,-164.91 561.88,-148 571.41,-131.59 587.64,-119.5 604.28,-110.8"/>
<polygon fill="#63b8ff" stroke="#63b8ff" points="705.75,-239.48 716.12,-237.31 706.66,-232.54 705.75,-239.48"/>
</a>
</g>
</g>
<!-- Node11 -->
<g id="Node000011" class="node">
<title>Node11</title>
<g id="a_Node000011"><a xlink:href="a00311.html" target="_top" xlink:title="Contains API functions for fault protection.">
<polygon fill="white" stroke="#666666" points="842.12,-186 701.62,-186 701.62,-154 842.12,-154 842.12,-186"/>
<text text-anchor="start" x="709.62" y="-172.5" font-family="Helvetica,sans-Serif" font-size="10.00">psfb_droop.X/sources</text>
<text text-anchor="middle" x="771.88" y="-160.5" font-family="Helvetica,sans-Serif" font-size="10.00">/fault/fault_comm_interface.c</text>
</a>
</g>
</g>
<!-- Node2&#45;&gt;Node11 -->
<g id="edge11_Node000002_Node000011" class="edge">
<title>Node2&#45;&gt;Node11</title>
<g id="a_edge11_Node000002_Node000011"><a xlink:title=" ">
<path fill="none" stroke="#63b8ff" d="M771.88,-216.82C771.88,-206.55 771.88,-195.12 771.88,-186.25"/>
<polygon fill="#63b8ff" stroke="#63b8ff" points="768.38,-216.73 771.88,-226.73 775.38,-216.73 768.38,-216.73"/>
</a>
</g>
</g>
<!-- Node12 -->
<g id="Node000012" class="node">
<title>Node12</title>
<g id="a_Node000012"><a xlink:href="a00380.html" target="_top" xlink:title="Contains power control initialization including control loop initialization and start&#45;up initializati...">
<polygon fill="white" stroke="#666666" points="969.38,-186 860.38,-186 860.38,-154 969.38,-154 969.38,-186"/>
<text text-anchor="start" x="868.38" y="-172.5" font-family="Helvetica,sans-Serif" font-size="10.00">psfb_droop.X/sources</text>
<text text-anchor="middle" x="914.88" y="-160.5" font-family="Helvetica,sans-Serif" font-size="10.00">/pwrctrl/pwrctrl.c</text>
</a>
</g>
</g>
<!-- Node2&#45;&gt;Node12 -->
<g id="edge12_Node000002_Node000012" class="edge">
<title>Node2&#45;&gt;Node12</title>
<g id="a_edge12_Node000002_Node000012"><a xlink:title=" ">
<path fill="none" stroke="#63b8ff" d="M812.31,-222.64C835.15,-211.14 863.24,-197 884.25,-186.42"/>
<polygon fill="#63b8ff" stroke="#63b8ff" points="810.91,-219.93 803.55,-227.55 814.06,-226.18 810.91,-219.93"/>
</a>
</g>
</g>
<!-- Node13 -->
<g id="Node000013" class="node">
<title>Node13</title>
<g id="a_Node000013"><a xlink:href="a00392.html" target="_top" xlink:title="Contains power control interface with communication/gui.">
<polygon fill="white" stroke="#666666" points="1098.5,-192 987.25,-192 987.25,-148 1098.5,-148 1098.5,-192"/>
<text text-anchor="start" x="995.25" y="-178.5" font-family="Helvetica,sans-Serif" font-size="10.00">psfb_droop.X/sources</text>
<text text-anchor="start" x="995.25" y="-166.5" font-family="Helvetica,sans-Serif" font-size="10.00">/pwrctrl/pwrctrl_comm</text>
<text text-anchor="middle" x="1042.88" y="-154.5" font-family="Helvetica,sans-Serif" font-size="10.00">_interface.c</text>
</a>
</g>
</g>
<!-- Node2&#45;&gt;Node13 -->
<g id="edge13_Node000002_Node000013" class="edge">
<title>Node2&#45;&gt;Node13</title>
<g id="a_edge13_Node000002_Node000013"><a xlink:title=" ">
<path fill="none" stroke="#63b8ff" d="M837.3,-228.22C878.19,-218.65 931.85,-205.49 978.88,-192 981.46,-191.26 984.1,-190.48 986.76,-189.68"/>
<polygon fill="#63b8ff" stroke="#63b8ff" points="836.6,-225.02 827.65,-230.69 838.18,-231.84 836.6,-225.02"/>
</a>
</g>
</g>
<!-- Node14 -->
<g id="Node000014" class="node">
<title>Node14</title>
<g id="a_Node000014"><a xlink:href="a00386.html" target="_top" xlink:title="Contains generic functions that handles power control ramp Up/Down and the averaging generic function...">
<polygon fill="white" stroke="#666666" points="1246.88,-186 1116.88,-186 1116.88,-154 1246.88,-154 1246.88,-186"/>
<text text-anchor="start" x="1124.88" y="-172.5" font-family="Helvetica,sans-Serif" font-size="10.00">psfb_droop.X/sources</text>
<text text-anchor="middle" x="1181.88" y="-160.5" font-family="Helvetica,sans-Serif" font-size="10.00">/pwrctrl/pwrctrl_common.c</text>
</a>
</g>
</g>
<!-- Node2&#45;&gt;Node14 -->
<g id="edge14_Node000002_Node000014" class="edge">
<title>Node2&#45;&gt;Node14</title>
<g id="a_edge14_Node000002_Node000014"><a xlink:title=" ">
<path fill="none" stroke="#63b8ff" d="M837.23,-235.55C905.26,-227.23 1014.69,-212.21 1107.88,-192 1115.31,-190.39 1123.11,-188.45 1130.73,-186.42"/>
<polygon fill="#63b8ff" stroke="#63b8ff" points="837.18,-232.16 827.67,-236.83 838.02,-239.11 837.18,-232.16"/>
</a>
</g>
</g>
<!-- Node15 -->
<g id="Node000015" class="node">
<title>Node15</title>
<g id="a_Node000015"><a xlink:href="a00398.html" target="_top" xlink:title="Contains Control loop interrupt Callback that acquires the ADC raw data and process it in the control...">
<polygon fill="white" stroke="#666666" points="1191.38,-106 1082.38,-106 1082.38,-74 1191.38,-74 1191.38,-106"/>
<text text-anchor="start" x="1090.38" y="-92.5" font-family="Helvetica,sans-Serif" font-size="10.00">psfb_droop.X/sources</text>
<text text-anchor="middle" x="1136.88" y="-80.5" font-family="Helvetica,sans-Serif" font-size="10.00">/pwrctrl/pwrctrl_isr.c</text>
</a>
</g>
</g>
<!-- Node2&#45;&gt;Node15 -->
<g id="edge15_Node000002_Node000015" class="edge">
<title>Node2&#45;&gt;Node15</title>
<g id="a_edge15_Node000002_Node000015"><a xlink:title=" ">
<path fill="none" stroke="#63b8ff" d="M837.34,-240.88C963.07,-236.12 1228.38,-222.55 1255.88,-192 1268.96,-177.47 1266.3,-164.55 1255.88,-148 1241.65,-125.42 1215.73,-111.58 1191.7,-103.21"/>
<polygon fill="#63b8ff" stroke="#63b8ff" points="837.58,-237.4 827.71,-241.27 837.84,-244.4 837.58,-237.4"/>
</a>
</g>
</g>
<!-- Node16 -->
<g id="Node000016" class="node">
<title>Node16</title>
<g id="a_Node000016"><a xlink:href="a00404.html" target="_top" xlink:title="Contains some of the functions used in the interrupt service routine of control loop.">
<polygon fill="white" stroke="#666666" points="1412.38,-192 1303.38,-192 1303.38,-148 1412.38,-148 1412.38,-192"/>
<text text-anchor="start" x="1311.38" y="-178.5" font-family="Helvetica,sans-Serif" font-size="10.00">psfb_droop.X/sources</text>
<text text-anchor="start" x="1311.38" y="-166.5" font-family="Helvetica,sans-Serif" font-size="10.00">/pwrctrl/pwrctrl_isr</text>
<text text-anchor="middle" x="1357.88" y="-154.5" font-family="Helvetica,sans-Serif" font-size="10.00">_extension.c</text>
</a>
</g>
</g>
<!-- Node2&#45;&gt;Node16 -->
<g id="edge16_Node000002_Node000016" class="edge">
<title>Node2&#45;&gt;Node16</title>
<g id="a_edge16_Node000002_Node000016"><a xlink:title=" ">
<path fill="none" stroke="#63b8ff" d="M837.44,-240.67C936.19,-236.23 1128.6,-223.97 1288.88,-192 1293.54,-191.07 1298.34,-189.95 1303.14,-188.72"/>
<polygon fill="#63b8ff" stroke="#63b8ff" points="837.57,-237.21 827.73,-241.14 837.87,-244.2 837.57,-237.21"/>
</a>
</g>
</g>
<!-- Node17 -->
<g id="Node000017" class="node">
<title>Node17</title>
<g id="a_Node000017"><a xlink:href="a00410.html" target="_top" xlink:title="Contains public functions for PWM.">
<polygon fill="white" stroke="#666666" points="683.25,-186 570.5,-186 570.5,-154 683.25,-154 683.25,-186"/>
<text text-anchor="start" x="578.5" y="-172.5" font-family="Helvetica,sans-Serif" font-size="10.00">psfb_droop.X/sources</text>
<text text-anchor="middle" x="626.88" y="-160.5" font-family="Helvetica,sans-Serif" font-size="10.00">/pwrctrl/pwrctrl_pwm.h</text>
</a>
</g>
</g>
<!-- Node2&#45;&gt;Node17 -->
<g id="edge17_Node000002_Node000017" class="edge">
<title>Node2&#45;&gt;Node17</title>
<g id="a_edge17_Node000002_Node000017"><a xlink:title=" ">
<path fill="none" stroke="#63b8ff" d="M731.19,-222.8C707.97,-211.27 679.32,-197.04 657.93,-186.42"/>
<polygon fill="#63b8ff" stroke="#63b8ff" points="729.26,-226.24 739.77,-227.55 732.37,-219.97 729.26,-226.24"/>
</a>
</g>
</g>
<!-- Node6 -->
<g id="Node000006" class="node">
<title>Node6</title>
<g id="a_Node000006"><a xlink:href="a00266_source.html" target="_top" xlink:title=" ">
<polygon fill="white" stroke="#666666" points="278.25,-112 159.5,-112 159.5,-68 278.25,-68 278.25,-112"/>
<text text-anchor="start" x="167.5" y="-98.5" font-family="Helvetica,sans-Serif" font-size="10.00">psfb_droop.X/sources</text>
<text text-anchor="start" x="167.5" y="-86.5" font-family="Helvetica,sans-Serif" font-size="10.00">/device/dev_adc_sensor</text>
<text text-anchor="middle" x="218.88" y="-74.5" font-family="Helvetica,sans-Serif" font-size="10.00">_offsets.c</text>
</a>
</g>
</g>
<!-- Node5&#45;&gt;Node6 -->
<g id="edge5_Node000005_Node000006" class="edge">
<title>Node5&#45;&gt;Node6</title>
<g id="a_edge5_Node000005_Node000006"><a xlink:title=" ">
<path fill="none" stroke="#63b8ff" d="M305.35,-142.1C288.85,-132.35 270.47,-121.49 254.9,-112.29"/>
<polygon fill="#63b8ff" stroke="#63b8ff" points="303.42,-145.61 313.81,-147.69 306.98,-139.59 303.42,-145.61"/>
</a>
</g>
</g>
<!-- Node7 -->
<g id="Node000007" class="node">
<title>Node7</title>
<g id="a_Node000007"><a xlink:href="a00263.html" target="_top" xlink:title="Contains h files that are part of device layer.">
<polygon fill="white" stroke="#666666" points="405.38,-106 296.38,-106 296.38,-74 405.38,-74 405.38,-106"/>
<text text-anchor="start" x="304.38" y="-92.5" font-family="Helvetica,sans-Serif" font-size="10.00">psfb_droop.X/sources</text>
<text text-anchor="middle" x="350.88" y="-80.5" font-family="Helvetica,sans-Serif" font-size="10.00">/device/device.h</text>
</a>
</g>
</g>
<!-- Node5&#45;&gt;Node7 -->
<g id="edge6_Node000005_Node000007" class="edge">
<title>Node5&#45;&gt;Node7</title>
<g id="a_edge6_Node000005_Node000007"><a xlink:title=" ">
<path fill="none" stroke="#63b8ff" d="M350.88,-136.96C350.88,-126.28 350.88,-114.88 350.88,-106.11"/>
<polygon fill="#63b8ff" stroke="#63b8ff" points="347.38,-136.69 350.88,-146.69 354.38,-136.69 347.38,-136.69"/>
</a>
</g>
</g>
<!-- Node7&#45;&gt;Node8 -->
<g id="edge7_Node000007_Node000008" class="edge">
<title>Node7&#45;&gt;Node8</title>
<g id="a_edge7_Node000007_Node000008"><a xlink:title=" ">
<path fill="none" stroke="#63b8ff" d="M350.88,-62.82C350.88,-52.55 350.88,-41.12 350.88,-32.25"/>
<polygon fill="#63b8ff" stroke="#63b8ff" points="347.38,-62.73 350.88,-72.73 354.38,-62.73 347.38,-62.73"/>
</a>
</g>
</g>
<!-- Node7&#45;&gt;Node9 -->
<g id="edge8_Node000007_Node000009" class="edge">
<title>Node7&#45;&gt;Node9</title>
<g id="a_edge8_Node000007_Node000009"><a xlink:title=" ">
<path fill="none" stroke="#63b8ff" d="M403.4,-70.54C406.92,-69.6 410.44,-68.74 413.88,-68 573.72,-33.66 767.37,-22.28 860.14,-18.63"/>
<polygon fill="#63b8ff" stroke="#63b8ff" points="402.52,-67.44 393.88,-73.58 404.46,-74.17 402.52,-67.44"/>
</a>
</g>
</g>
<!-- Node17&#45;&gt;Node4 -->
<g id="edge18_Node000017_Node000004" class="edge">
<title>Node17&#45;&gt;Node4</title>
<g id="a_edge18_Node000017_Node000004"><a xlink:title=" ">
<path fill="none" stroke="#63b8ff" d="M593.51,-147.67C573.07,-134.6 547.38,-118.17 528.93,-106.38"/>
<polygon fill="#63b8ff" stroke="#63b8ff" points="591.46,-151.15 601.77,-153.59 595.23,-145.25 591.46,-151.15"/>
</a>
</g>
</g>
<!-- Node17&#45;&gt;Node8 -->
<g id="edge20_Node000017_Node000008" class="edge">
<title>Node17&#45;&gt;Node8</title>
<g id="a_edge20_Node000017_Node000008"><a xlink:title=" ">
<path fill="none" stroke="#63b8ff" d="M685.98,-148.83C702.45,-140.17 718.41,-128.21 727.88,-112 737.74,-95.11 740.74,-82.73 727.88,-68 707.01,-44.13 505.38,-27.38 405.87,-20.49"/>
<polygon fill="#63b8ff" stroke="#63b8ff" points="684.73,-146.03 677.27,-153.55 687.79,-152.32 684.73,-146.03"/>
</a>
</g>
</g>
<!-- Node17&#45;&gt;Node9 -->
<g id="edge23_Node000017_Node000009" class="edge">
<title>Node17&#45;&gt;Node9</title>
<g id="a_edge23_Node000017_Node000009"><a xlink:title=" ">
<path fill="none" stroke="#63b8ff" d="M683.22,-150.53C686.47,-149.63 689.71,-148.78 692.88,-148 781.84,-126.06 830.38,-176.08 895.88,-112 917.28,-91.06 918.1,-53.31 916.62,-32.25"/>
<polygon fill="#63b8ff" stroke="#63b8ff" points="682.45,-147.4 673.81,-153.53 684.39,-154.12 682.45,-147.4"/>
</a>
</g>
</g>
<!-- Node17&#45;&gt;Node10 -->
<g id="edge19_Node000017_Node000010" class="edge">
<title>Node17&#45;&gt;Node10</title>
<g id="a_edge19_Node000017_Node000010"><a xlink:title=" ">
<path fill="none" stroke="#63b8ff" d="M638.24,-143.67C642.79,-133.53 647.97,-121.98 652.32,-112.28"/>
<polygon fill="#63b8ff" stroke="#63b8ff" points="634.69,-142.03 633.79,-152.59 641.08,-144.9 634.69,-142.03"/>
</a>
</g>
</g>
<!-- Node17&#45;&gt;Node15 -->
<g id="edge21_Node000017_Node000015" class="edge">
<title>Node17&#45;&gt;Node15</title>
<g id="a_edge21_Node000017_Node000015"><a xlink:title=" ">
<path fill="none" stroke="#63b8ff" d="M681.98,-150.66C685.65,-149.69 689.3,-148.79 692.88,-148 765.91,-131.83 980.16,-107.75 1081.95,-96.8"/>
<polygon fill="#63b8ff" stroke="#63b8ff" points="681.35,-147.48 672.67,-153.56 683.24,-154.22 681.35,-147.48"/>
</a>
</g>
</g>
<!-- Node18 -->
<g id="Node000018" class="node">
<title>Node18</title>
<g id="a_Node000018"><a xlink:href="a00407.html" target="_top" xlink:title="Contains PSFB control phase calculation between primary and secondary, and the PWM distribution.">
<polygon fill="white" stroke="#666666" points="887.25,-106 774.5,-106 774.5,-74 887.25,-74 887.25,-106"/>
<text text-anchor="start" x="782.5" y="-92.5" font-family="Helvetica,sans-Serif" font-size="10.00">psfb_droop.X/sources</text>
<text text-anchor="middle" x="830.88" y="-80.5" font-family="Helvetica,sans-Serif" font-size="10.00">/pwrctrl/pwrctrl_pwm.c</text>
</a>
</g>
</g>
<!-- Node17&#45;&gt;Node18 -->
<g id="edge22_Node000017_Node000018" class="edge">
<title>Node17&#45;&gt;Node18</title>
<g id="a_edge22_Node000017_Node000018"><a xlink:title=" ">
<path fill="none" stroke="#63b8ff" d="M677.19,-149.76C712.15,-136.39 758.13,-118.82 790.65,-106.38"/>
<polygon fill="#63b8ff" stroke="#63b8ff" points="676.27,-146.75 668.18,-153.59 678.77,-153.29 676.27,-146.75"/>
</a>
</g>
</g>
</g>
</svg>
