<?xml version="1.0" encoding="UTF-8" standalone="no"?>
<!DOCTYPE svg PUBLIC "-//W3C//DTD SVG 1.1//EN"
 "http://www.w3.org/Graphics/SVG/1.1/DTD/svg11.dtd">
<!-- Generated by graphviz version 8.1.0 (20230707.0739)
 -->
<!-- Title: psfb_droop.X/sources/fault/fault.h Pages: 1 -->
<!--zoomable 264 -->

<svg id="main" version="1.1" xmlns="http://www.w3.org/2000/svg" xmlns:xlink="http://www.w3.org/1999/xlink" xml:space="preserve" onload="init(evt)">

<style type="text/css"><![CDATA[
.node, .edge {opacity: 0.7;}
.node.selected, .edge.selected {opacity: 1;}
.edge:hover path { stroke: red; }
.edge:hover polygon { stroke: red; fill: red; }
]]></style>

<defs>
  <circle id="rim" cx="0" cy="0" r="7"/>
  <circle id="rim2" cx="0" cy="0" r="3.5"/>
  <g id="zoomPlus">
    <use xlink:href="#rim" fill="#404040"><set attributeName="fill" to="#808080" begin="zoomplus.mouseover" end="zoomplus.mouseout"/></use>
    <path d="M-4,0h8M0,-4v8" fill="none" stroke="white" stroke-width="1.5" pointer-events="none"/>
  </g>
  <g id="zoomMin">
    <use xlink:href="#rim" fill="#404040"><set attributeName="fill" to="#808080" begin="zoomminus.mouseover" end="zoomminus.mouseout"/></use>
    <path d="M-4,0h8" fill="none" stroke="white" stroke-width="1.5" pointer-events="none"/>
  </g>
  <g id="arrowUp" transform="translate(30 24)">
    <use xlink:href="#rim"/>
    <path pointer-events="none" fill="none" stroke="white" stroke-width="1.5" d="M0,-3.0v7 M-2.5,-0.5L0,-3.0L2.5,-0.5"/>
  </g>
  <g id="arrowRight" transform="rotate(90) translate(36 -43)">
    <use xlink:href="#rim"/>
    <path pointer-events="none" fill="none" stroke="white" stroke-width="1.5" d="M0,-3.0v7 M-2.5,-0.5L0,-3.0L2.5,-0.5"/>
  </g>
  <g id="arrowDown" transform="rotate(180) translate(-30 -48)">
    <use xlink:href="#rim"/>
    <path pointer-events="none" fill="none" stroke="white" stroke-width="1.5" d="M0,-3.0v7 M-2.5,-0.5L0,-3.0L2.5,-0.5"/>
  </g>
  <g id="arrowLeft" transform="rotate(270) translate(-36 17)">
    <use xlink:href="#rim"/>
    <path pointer-events="none" fill="none" stroke="white" stroke-width="1.5" d="M0,-3.0v7 M-2.5,-0.5L0,-3.0L2.5,-0.5"/>
  </g>
  <g id="resetDef">
    <use xlink:href="#rim2" fill="#404040"><set attributeName="fill" to="#808080" begin="reset.mouseover" end="reset.mouseout"/></use>
  </g>
</defs>
<script type="application/ecmascript">
var viewWidth = 757;
var viewHeight = 264;
var sectionId = 'dynsection-0';
</script>
<script type="application/ecmascript" xlink:href="svg.min.js"/>
<svg id="graph" class="graph">
<g id="viewport">
<title>psfb_droop.X/sources/fault/fault.h</title>
<!-- Node1 -->
<g id="Node000001" class="node">
<title>Node1</title>
<g id="a_Node000001"><a xlink:title="Contains public fault functions.">
<polygon fill="#999999" stroke="#666666" points="298.85,-256 189.85,-256 189.85,-224 298.85,-224 298.85,-256"/>
<text text-anchor="start" x="197.85" y="-242.5" font-family="Helvetica,sans-Serif" font-size="10.00">psfb_droop.X/sources</text>
<text text-anchor="middle" x="244.35" y="-230.5" font-family="Helvetica,sans-Serif" font-size="10.00">/fault/fault.h</text>
</a>
</g>
</g>
<!-- Node1&#45;&gt;Node1 -->
<g id="edge8_Node000001_Node000001" class="edge">
<title>Node1&#45;&gt;Node1</title>
<g id="a_edge8_Node000001_Node000001"><a xlink:title=" ">
<path fill="none" stroke="#63b8ff" d="M299.05,-251.07C309.47,-249.74 316.85,-246.05 316.85,-240 316.85,-236.31 314.11,-233.5 309.61,-231.57"/>
<polygon fill="#63b8ff" stroke="#63b8ff" points="310.6,-227.95 300.05,-228.93 308.9,-234.75 310.6,-227.95"/>
</a>
</g>
</g>
<!-- Node2 -->
<g id="Node000002" class="node">
<title>Node2</title>
<g id="a_Node000002"><a xlink:title=" ">
<polygon fill="#e0e0e0" stroke="#999999" points="89.6,-20 39.1,-20 39.1,0 89.6,0 89.6,-20"/>
<text text-anchor="middle" x="64.35" y="-6.5" font-family="Helvetica,sans-Serif" font-size="10.00">stddef.h</text>
</a>
</g>
</g>
<!-- Node1&#45;&gt;Node2 -->
<g id="edge1_Node000001_Node000002" class="edge">
<title>Node1&#45;&gt;Node2</title>
<g id="a_edge1_Node000001_Node000002"><a xlink:title=" ">
<path fill="none" stroke="#63b8ff" d="M201.67,-223.63C158.14,-206.38 90.48,-175.07 43.35,-132 15.47,-106.52 -11.4,-89.85 5.35,-56 11.6,-43.37 23.28,-33.32 34.61,-25.95"/>
<polygon fill="#63b8ff" stroke="#63b8ff" points="36.12,-28.52 42.91,-20.39 32.53,-22.51 36.12,-28.52"/>
</a>
</g>
</g>
<!-- Node3 -->
<g id="Node000003" class="node">
<title>Node3</title>
<g id="a_Node000003"><a xlink:href="a00095.html" target="_top" xlink:title="This is the generated driver header file for the CMP3 driver.">
<polygon fill="white" stroke="#666666" points="122.35,-132 52.35,-132 52.35,-112 122.35,-112 122.35,-132"/>
<text text-anchor="middle" x="87.35" y="-118.5" font-family="Helvetica,sans-Serif" font-size="10.00">cmp/cmp3.h</text>
</a>
</g>
</g>
<!-- Node1&#45;&gt;Node3 -->
<g id="edge2_Node000001_Node000003" class="edge">
<title>Node1&#45;&gt;Node3</title>
<g id="a_edge2_Node000001_Node000003"><a xlink:title=" ">
<path fill="none" stroke="#63b8ff" d="M223.17,-223.67C209.26,-213.58 190.68,-200.05 174.35,-188 151.61,-171.22 125.68,-151.81 108.08,-138.6"/>
<polygon fill="#63b8ff" stroke="#63b8ff" points="110.8,-135.51 100.71,-132.3 106.6,-141.11 110.8,-135.51"/>
</a>
</g>
</g>
<!-- Node6 -->
<g id="Node000006" class="node">
<title>Node6</title>
<g id="a_Node000006"><a xlink:href="a00416_source.html" target="_top" xlink:title=" ">
<polygon fill="white" stroke="#666666" points="304.85,-188 183.85,-188 183.85,-168 304.85,-168 304.85,-188"/>
<text text-anchor="middle" x="244.35" y="-174.5" font-family="Helvetica,sans-Serif" font-size="10.00">pwrctrl/pwrctrl_typedef.h</text>
</a>
</g>
</g>
<!-- Node1&#45;&gt;Node6 -->
<g id="edge9_Node000001_Node000006" class="edge">
<title>Node1&#45;&gt;Node6</title>
<g id="a_edge9_Node000001_Node000006"><a xlink:title=" ">
<path fill="none" stroke="#63b8ff" d="M244.35,-223.55C244.35,-216.17 244.35,-207.24 244.35,-199.32"/>
<polygon fill="#63b8ff" stroke="#63b8ff" points="247.85,-199.41 244.35,-189.41 240.85,-199.41 247.85,-199.41"/>
</a>
</g>
</g>
<!-- Node10 -->
<g id="Node000010" class="node">
<title>Node10</title>
<g id="a_Node000010"><a xlink:href="a00248_source.html" target="_top" xlink:title=" ">
<polygon fill="white" stroke="#666666" points="383.47,-76 305.22,-76 305.22,-56 383.47,-56 383.47,-76"/>
<text text-anchor="middle" x="344.35" y="-62.5" font-family="Helvetica,sans-Serif" font-size="10.00">config/config.h</text>
</a>
</g>
</g>
<!-- Node1&#45;&gt;Node10 -->
<g id="edge14_Node000001_Node000010" class="edge">
<title>Node1&#45;&gt;Node10</title>
<g id="a_edge14_Node000001_Node000010"><a xlink:title=" ">
<path fill="none" stroke="#63b8ff" d="M274.46,-223.57C288.54,-214.91 304.36,-202.85 314.35,-188 335.21,-156.98 341.58,-112.73 343.51,-87.23"/>
<polygon fill="#63b8ff" stroke="#63b8ff" points="347.06,-87.54 344.15,-77.36 340.07,-87.13 347.06,-87.54"/>
</a>
</g>
</g>
<!-- Node12 -->
<g id="Node000012" class="node">
<title>Node12</title>
<g id="a_Node000012"><a xlink:href="a00254_source.html" target="_top" xlink:title=" ">
<polygon fill="white" stroke="#666666" points="491.85,-132 406.85,-132 406.85,-112 491.85,-112 491.85,-132"/>
<text text-anchor="middle" x="449.35" y="-118.5" font-family="Helvetica,sans-Serif" font-size="10.00">config/macros.h</text>
</a>
</g>
</g>
<!-- Node1&#45;&gt;Node12 -->
<g id="edge19_Node000001_Node000012" class="edge">
<title>Node1&#45;&gt;Node12</title>
<g id="a_edge19_Node000001_Node000012"><a xlink:title=" ">
<path fill="none" stroke="#63b8ff" d="M280.54,-223.54C301.84,-214.04 329.08,-201.19 352.35,-188 379.2,-172.78 408.43,-152.66 427.71,-138.87"/>
<polygon fill="#63b8ff" stroke="#63b8ff" points="429.51,-141.16 435.56,-132.47 425.41,-135.49 429.51,-141.16"/>
</a>
</g>
</g>
<!-- Node3&#45;&gt;Node2 -->
<g id="edge3_Node000003_Node000002" class="edge">
<title>Node3&#45;&gt;Node2</title>
<g id="a_edge3_Node000003_Node000002"><a xlink:title=" ">
<path fill="none" stroke="#63b8ff" d="M57.8,-111.51C41.26,-104.51 22.08,-93.18 12.35,-76 1.92,-57.58 20.45,-38.96 38.21,-26.4"/>
<polygon fill="#63b8ff" stroke="#63b8ff" points="39.86,-28.85 46.27,-20.42 36,-23.01 39.86,-28.85"/>
</a>
</g>
</g>
<!-- Node4 -->
<g id="Node000004" class="node">
<title>Node4</title>
<g id="a_Node000004"><a xlink:title=" ">
<polygon fill="#e0e0e0" stroke="#999999" points="272.22,-20 216.47,-20 216.47,0 272.22,0 272.22,-20"/>
<text text-anchor="middle" x="244.35" y="-6.5" font-family="Helvetica,sans-Serif" font-size="10.00">stdbool.h</text>
</a>
</g>
</g>
<!-- Node3&#45;&gt;Node4 -->
<g id="edge4_Node000003_Node000004" class="edge">
<title>Node3&#45;&gt;Node4</title>
<g id="a_edge4_Node000003_Node000004"><a xlink:title=" ">
<path fill="none" stroke="#63b8ff" d="M100.74,-111.62C127.73,-92.71 188.95,-49.82 222.07,-26.61"/>
<polygon fill="#63b8ff" stroke="#63b8ff" points="223.82,-28.96 230,-20.35 219.8,-23.23 223.82,-28.96"/>
</a>
</g>
</g>
<!-- Node5 -->
<g id="Node000005" class="node">
<title>Node5</title>
<g id="a_Node000005"><a xlink:href="a00098_source.html" target="_top" xlink:title=" ">
<polygon fill="white" stroke="#666666" points="106.85,-76 21.85,-76 21.85,-56 106.85,-56 106.85,-76"/>
<text text-anchor="middle" x="64.35" y="-62.5" font-family="Helvetica,sans-Serif" font-size="10.00">cmp_interface.h</text>
</a>
</g>
</g>
<!-- Node3&#45;&gt;Node5 -->
<g id="edge5_Node000003_Node000005" class="edge">
<title>Node3&#45;&gt;Node5</title>
<g id="a_edge5_Node000003_Node000005"><a xlink:title=" ">
<path fill="none" stroke="#63b8ff" d="M83.34,-111.59C80.38,-104.63 76.23,-94.89 72.56,-86.29"/>
<polygon fill="#63b8ff" stroke="#63b8ff" points="75.45,-85.13 68.31,-77.3 69.01,-87.87 75.45,-85.13"/>
</a>
</g>
</g>
<!-- Node5&#45;&gt;Node2 -->
<g id="edge7_Node000005_Node000002" class="edge">
<title>Node5&#45;&gt;Node2</title>
<g id="a_edge7_Node000005_Node000002"><a xlink:title=" ">
<path fill="none" stroke="#63b8ff" d="M64.35,-55.59C64.35,-48.86 64.35,-39.53 64.35,-31.15"/>
<polygon fill="#63b8ff" stroke="#63b8ff" points="67.85,-31.3 64.35,-21.3 60.85,-31.3 67.85,-31.3"/>
</a>
</g>
</g>
<!-- Node5&#45;&gt;Node4 -->
<g id="edge6_Node000005_Node000004" class="edge">
<title>Node5&#45;&gt;Node4</title>
<g id="a_edge6_Node000005_Node000004"><a xlink:title=" ">
<path fill="none" stroke="#63b8ff" d="M95.7,-55.59C126.33,-46.41 173.01,-32.4 205.87,-22.54"/>
<polygon fill="#63b8ff" stroke="#63b8ff" points="206.45,-25.72 215.02,-19.5 204.44,-19.02 206.45,-25.72"/>
</a>
</g>
</g>
<!-- Node7 -->
<g id="Node000007" class="node">
<title>Node7</title>
<g id="a_Node000007"><a xlink:href="a00317.html" target="_top" xlink:title="Contains fault data types.">
<polygon fill="white" stroke="#666666" points="294.35,-132 194.35,-132 194.35,-112 294.35,-112 294.35,-132"/>
<text text-anchor="middle" x="244.35" y="-118.5" font-family="Helvetica,sans-Serif" font-size="10.00">fault/fault_typedef.h</text>
</a>
</g>
</g>
<!-- Node6&#45;&gt;Node7 -->
<g id="edge10_Node000006_Node000007" class="edge">
<title>Node6&#45;&gt;Node7</title>
<g id="a_edge10_Node000006_Node000007"><a xlink:title=" ">
<path fill="none" stroke="#63b8ff" d="M244.35,-167.59C244.35,-160.86 244.35,-151.53 244.35,-143.15"/>
<polygon fill="#63b8ff" stroke="#63b8ff" points="247.85,-143.3 244.35,-133.3 240.85,-143.3 247.85,-143.3"/>
</a>
</g>
</g>
<!-- Node8 -->
<g id="Node000008" class="node">
<title>Node8</title>
<g id="a_Node000008"><a xlink:href="a00308.html" target="_top" xlink:title="Contains fault generic public functions.">
<polygon fill="white" stroke="#666666" points="286.85,-76 201.85,-76 201.85,-56 286.85,-56 286.85,-76"/>
<text text-anchor="middle" x="244.35" y="-62.5" font-family="Helvetica,sans-Serif" font-size="10.00">fault_common.h</text>
</a>
</g>
</g>
<!-- Node7&#45;&gt;Node8 -->
<g id="edge11_Node000007_Node000008" class="edge">
<title>Node7&#45;&gt;Node8</title>
<g id="a_edge11_Node000007_Node000008"><a xlink:title=" ">
<path fill="none" stroke="#63b8ff" d="M244.35,-111.59C244.35,-104.86 244.35,-95.53 244.35,-87.15"/>
<polygon fill="#63b8ff" stroke="#63b8ff" points="247.85,-87.3 244.35,-77.3 240.85,-87.3 247.85,-87.3"/>
</a>
</g>
</g>
<!-- Node8&#45;&gt;Node4 -->
<g id="edge13_Node000008_Node000004" class="edge">
<title>Node8&#45;&gt;Node4</title>
<g id="a_edge13_Node000008_Node000004"><a xlink:title=" ">
<path fill="none" stroke="#63b8ff" d="M244.35,-55.59C244.35,-48.86 244.35,-39.53 244.35,-31.15"/>
<polygon fill="#63b8ff" stroke="#63b8ff" points="247.85,-31.3 244.35,-21.3 240.85,-31.3 247.85,-31.3"/>
</a>
</g>
</g>
<!-- Node9 -->
<g id="Node000009" class="node">
<title>Node9</title>
<g id="a_Node000009"><a xlink:title=" ">
<polygon fill="#e0e0e0" stroke="#999999" points="368.47,-20 320.22,-20 320.22,0 368.47,0 368.47,-20"/>
<text text-anchor="middle" x="344.35" y="-6.5" font-family="Helvetica,sans-Serif" font-size="10.00">stdint.h</text>
</a>
</g>
</g>
<!-- Node8&#45;&gt;Node9 -->
<g id="edge12_Node000008_Node000009" class="edge">
<title>Node8&#45;&gt;Node9</title>
<g id="a_edge12_Node000008_Node000009"><a xlink:title=" ">
<path fill="none" stroke="#63b8ff" d="M261.77,-55.59C277.16,-47.28 299.85,-35.03 317.55,-25.47"/>
<polygon fill="#63b8ff" stroke="#63b8ff" points="318.66,-28.31 325.8,-20.48 315.33,-22.15 318.66,-28.31"/>
</a>
</g>
</g>
<!-- Node10&#45;&gt;Node2 -->
<g id="edge18_Node000010_Node000002" class="edge">
<title>Node10&#45;&gt;Node2</title>
<g id="a_edge18_Node000010_Node000002"><a xlink:title=" ">
<path fill="none" stroke="#63b8ff" d="M304.83,-57.38C250.36,-46.87 153.02,-28.1 100.43,-17.96"/>
<polygon fill="#63b8ff" stroke="#63b8ff" points="101.4,-14.39 90.92,-15.93 100.08,-21.26 101.4,-14.39"/>
</a>
</g>
</g>
<!-- Node10&#45;&gt;Node4 -->
<g id="edge17_Node000010_Node000004" class="edge">
<title>Node10&#45;&gt;Node4</title>
<g id="a_edge17_Node000010_Node000004"><a xlink:title=" ">
<path fill="none" stroke="#63b8ff" d="M326.93,-55.59C311.54,-47.28 288.85,-35.03 271.15,-25.47"/>
<polygon fill="#63b8ff" stroke="#63b8ff" points="273.37,-22.15 262.9,-20.48 270.04,-28.31 273.37,-22.15"/>
</a>
</g>
</g>
<!-- Node10&#45;&gt;Node9 -->
<g id="edge16_Node000010_Node000009" class="edge">
<title>Node10&#45;&gt;Node9</title>
<g id="a_edge16_Node000010_Node000009"><a xlink:title=" ">
<path fill="none" stroke="#63b8ff" d="M344.35,-55.59C344.35,-48.86 344.35,-39.53 344.35,-31.15"/>
<polygon fill="#63b8ff" stroke="#63b8ff" points="347.85,-31.3 344.35,-21.3 340.85,-31.3 347.85,-31.3"/>
</a>
</g>
</g>
<!-- Node11 -->
<g id="Node000011" class="node">
<title>Node11</title>
<g id="a_Node000011"><a xlink:title=" ">
<polygon fill="#e0e0e0" stroke="#999999" points="650.72,-20 615.97,-20 615.97,0 650.72,0 650.72,-20"/>
<text text-anchor="middle" x="633.35" y="-6.5" font-family="Helvetica,sans-Serif" font-size="10.00">xc.h</text>
</a>
</g>
</g>
<!-- Node10&#45;&gt;Node11 -->
<g id="edge15_Node000010_Node000011" class="edge">
<title>Node10&#45;&gt;Node11</title>
<g id="a_edge15_Node000010_Node000011"><a xlink:title=" ">
<path fill="none" stroke="#63b8ff" d="M383.93,-57.6C443,-46.57 552.82,-26.05 604.74,-16.35"/>
<polygon fill="#63b8ff" stroke="#63b8ff" points="605.29,-19.62 614.48,-14.34 604.01,-12.74 605.29,-19.62"/>
</a>
</g>
</g>
<!-- Node12&#45;&gt;Node2 -->
<g id="edge23_Node000012_Node000002" class="edge">
<title>Node12&#45;&gt;Node2</title>
<g id="a_edge23_Node000012_Node000002"><a xlink:title=" ">
<path fill="none" stroke="#63b8ff" d="M406.74,-117.36C355.16,-112.08 266.16,-100.16 193.35,-76 154.9,-63.24 113.6,-40.7 88.37,-25.8"/>
<polygon fill="#63b8ff" stroke="#63b8ff" points="90.59,-22.45 80.21,-20.32 86.99,-28.46 90.59,-22.45"/>
</a>
</g>
</g>
<!-- Node12&#45;&gt;Node4 -->
<g id="edge22_Node000012_Node000004" class="edge">
<title>Node12&#45;&gt;Node4</title>
<g id="a_edge22_Node000012_Node000004"><a xlink:title=" ">
<path fill="none" stroke="#63b8ff" d="M443.57,-111.56C434.43,-97.42 415.3,-70.81 392.35,-56 358.84,-34.38 314.41,-22.7 283,-16.7"/>
<polygon fill="#63b8ff" stroke="#63b8ff" points="283.94,-13.14 273.48,-14.81 282.7,-20.03 283.94,-13.14"/>
</a>
</g>
</g>
<!-- Node12&#45;&gt;Node9 -->
<g id="edge21_Node000012_Node000009" class="edge">
<title>Node12&#45;&gt;Node9</title>
<g id="a_edge21_Node000012_Node000009"><a xlink:title=" ">
<path fill="none" stroke="#63b8ff" d="M447.99,-111.56C445.58,-97.9 439.44,-72.44 425.35,-56 412.86,-41.44 394.43,-30.68 378.31,-23.34"/>
<polygon fill="#63b8ff" stroke="#63b8ff" points="380.21,-19.91 369.64,-19.2 377.46,-26.35 380.21,-19.91"/>
</a>
</g>
</g>
<!-- Node12&#45;&gt;Node10 -->
<g id="edge27_Node000012_Node000010" class="edge">
<title>Node12&#45;&gt;Node10</title>
<g id="a_edge27_Node000012_Node000010"><a xlink:title=" ">
<path fill="none" stroke="#63b8ff" d="M431.06,-111.59C414.9,-103.28 391.08,-91.03 372.49,-81.47"/>
<polygon fill="#63b8ff" stroke="#63b8ff" points="374.28,-77.94 363.78,-76.48 371.07,-84.17 374.28,-77.94"/>
</a>
</g>
</g>
<!-- Node12&#45;&gt;Node11 -->
<g id="edge20_Node000012_Node000011" class="edge">
<title>Node12&#45;&gt;Node11</title>
<g id="a_edge20_Node000012_Node000011"><a xlink:title=" ">
<path fill="none" stroke="#63b8ff" d="M492.25,-120.47C529.33,-117.69 581.94,-107.83 614.35,-76 626.28,-64.29 630.82,-45.53 632.5,-31.17"/>
<polygon fill="#63b8ff" stroke="#63b8ff" points="636.05,-31.64 633.33,-21.4 629.07,-31.09 636.05,-31.64"/>
</a>
</g>
</g>
<!-- Node13 -->
<g id="Node000013" class="node">
<title>Node13</title>
<g id="a_Node000013"><a xlink:title=" ">
<polygon fill="#e0e0e0" stroke="#999999" points="523.35,-76 477.35,-76 477.35,-56 523.35,-56 523.35,-76"/>
<text text-anchor="middle" x="500.35" y="-62.5" font-family="Helvetica,sans-Serif" font-size="10.00">math.h</text>
</a>
</g>
</g>
<!-- Node12&#45;&gt;Node13 -->
<g id="edge24_Node000012_Node000013" class="edge">
<title>Node12&#45;&gt;Node13</title>
<g id="a_edge24_Node000012_Node000013"><a xlink:title=" ">
<path fill="none" stroke="#63b8ff" d="M458.23,-111.59C465.4,-104.01 475.67,-93.13 484.27,-84.02"/>
<polygon fill="#63b8ff" stroke="#63b8ff" points="486.25,-86.97 490.57,-77.3 481.16,-82.17 486.25,-86.97"/>
</a>
</g>
</g>
<!-- Node14 -->
<g id="Node000014" class="node">
<title>Node14</title>
<g id="a_Node000014"><a xlink:href="a00257_source.html" target="_top" xlink:title=" ">
<polygon fill="white" stroke="#666666" points="748.97,-76 661.72,-76 661.72,-56 748.97,-56 748.97,-76"/>
<text text-anchor="middle" x="705.35" y="-62.5" font-family="Helvetica,sans-Serif" font-size="10.00">useful_macros.h</text>
</a>
</g>
</g>
<!-- Node12&#45;&gt;Node14 -->
<g id="edge25_Node000012_Node000014" class="edge">
<title>Node12&#45;&gt;Node14</title>
<g id="a_edge25_Node000012_Node000014"><a xlink:title=" ">
<path fill="none" stroke="#63b8ff" d="M492.2,-111.96C535.78,-102.77 603.45,-88.49 650.82,-78.5"/>
<polygon fill="#63b8ff" stroke="#63b8ff" points="651.44,-81.74 660.5,-76.25 650,-74.89 651.44,-81.74"/>
</a>
</g>
</g>
<!-- Node15 -->
<g id="Node000015" class="node">
<title>Node15</title>
<g id="a_Node000015"><a xlink:href="a00251_source.html" target="_top" xlink:title=" ">
<polygon fill="white" stroke="#666666" points="604.97,-76 541.72,-76 541.72,-56 604.97,-56 604.97,-76"/>
<text text-anchor="middle" x="573.35" y="-62.5" font-family="Helvetica,sans-Serif" font-size="10.00">hardware.h</text>
</a>
</g>
</g>
<!-- Node12&#45;&gt;Node15 -->
<g id="edge28_Node000012_Node000015" class="edge">
<title>Node12&#45;&gt;Node15</title>
<g id="a_edge28_Node000012_Node000015"><a xlink:title=" ">
<path fill="none" stroke="#63b8ff" d="M470.95,-111.59C490.48,-103.09 519.48,-90.46 541.63,-80.81"/>
<polygon fill="#63b8ff" stroke="#63b8ff" points="542.81,-83.68 550.58,-76.48 540.02,-77.26 542.81,-83.68"/>
</a>
</g>
</g>
<!-- Node14&#45;&gt;Node11 -->
<g id="edge26_Node000014_Node000011" class="edge">
<title>Node14&#45;&gt;Node11</title>
<g id="a_edge26_Node000014_Node000011"><a xlink:title=" ">
<path fill="none" stroke="#63b8ff" d="M692.81,-55.59C682.17,-47.62 666.7,-36.02 654.21,-26.64"/>
<polygon fill="#63b8ff" stroke="#63b8ff" points="656.85,-23.5 646.75,-20.3 652.65,-29.1 656.85,-23.5"/>
</a>
</g>
</g>
</g>
</svg>

<g id="navigator" transform="translate(0 0)" fill="#404254">
  <rect fill="#f2f5e9" fill-opacity="0.5" stroke="#606060" stroke-width=".5" x="0" y="0" width="60" height="60"/>
  <use id="zoomplus" xlink:href="#zoomPlus" x="17" y="9" onmousedown="handleZoom(evt,'in')"/>
  <use id="zoomminus" xlink:href="#zoomMin" x="42" y="9" onmousedown="handleZoom(evt,'out')"/>
  <use id="reset" xlink:href="#resetDef" x="30" y="36" onmousedown="handleReset()"/>
   <use id="arrowup" xlink:href="#arrowUp" x="0" y="0" onmousedown="handlePan(0,-1)"/>
  <use id="arrowright" xlink:href="#arrowRight" x="0" y="0" onmousedown="handlePan(1,0)"/>
  <use id="arrowdown" xlink:href="#arrowDown" x="0" y="0" onmousedown="handlePan(0,1)"/>
  <use id="arrowleft" xlink:href="#arrowLeft" x="0" y="0" onmousedown="handlePan(-1,0)"/>
</g>
<svg viewBox="0 0 15 15" width="100%" height="30px" preserveAspectRatio="xMaxYMin meet">
 <g id="arrow_out" transform="scale(0.3 0.3)">
  <a xlink:href="a00303_org.svg" target="_base">
   <rect id="button" ry="5" rx="5" y="6" x="6" height="38" width="38"
        fill="#f2f5e9" fill-opacity="0.5" stroke="#606060" stroke-width="1.0"/>
   <path id="arrow"
     d="M 11.500037,31.436501 C 11.940474,20.09759 22.043105,11.32322 32.158766,21.979434 L 37.068811,17.246167 C 37.068811,17.246167 37.088388,32 37.088388,32 L 22.160133,31.978069 C 22.160133,31.978069 26.997745,27.140456 26.997745,27.140456 C 18.528582,18.264221 13.291696,25.230495 11.500037,31.436501 z"
     style="fill:#404040;"/>
  </a>
 </g>
</svg>

<style type='text/css'>
<![CDATA[
[data-mouse-over-selected='false'] { opacity: 0.7; }
[data-mouse-over-selected='true']  { opacity: 1.0; }
]]>
</style>
<script type="application/ecmascript"><![CDATA[
document.addEventListener('DOMContentLoaded', (event) => {
  highlightEdges();
  highlightAdjacentNodes();
});
]]></script>
</svg>
