<?xml version="1.0" encoding="UTF-8" standalone="no"?>
<!DOCTYPE svg PUBLIC "-//W3C//DTD SVG 1.1//EN"
 "http://www.w3.org/Graphics/SVG/1.1/DTD/svg11.dtd">
<!-- Generated by graphviz version 8.1.0 (20230707.0739)
 -->
<!-- Title: psfb_droop.X/sources/pwrctrl/pwrctrl.c Pages: 1 -->
<svg width="480pt" height="376pt"
 viewBox="0.00 0.00 480.48 376.00" xmlns="http://www.w3.org/2000/svg" xmlns:xlink="http://www.w3.org/1999/xlink">

<svg id="main" version="1.1" xmlns="http://www.w3.org/2000/svg" xmlns:xlink="http://www.w3.org/1999/xlink" xml:space="preserve">

<style type="text/css"><![CDATA[
.node, .edge {opacity: 0.7;}
.node.selected, .edge.selected {opacity: 1;}
.edge:hover path { stroke: red; }
.edge:hover polygon { stroke: red; fill: red; }
]]></style>
<script type="application/ecmascript" xlink:href="svg.min.js"/>
<svg id="graph" class="graph">
<g id="graph0" class="graph" transform="scale(1 1) rotate(0) translate(4 372)">
<title>psfb_droop.X/sources/pwrctrl/pwrctrl.c</title>
<!-- Node1 -->
<g id="Node000001" class="node">
<title>Node1</title>
<g id="a_Node000001"><a xlink:title="Contains power control initialization including control loop initialization and start&#45;up initializati...">
<polygon fill="#999999" stroke="#666666" points="119.98,-368 10.98,-368 10.98,-336 119.98,-336 119.98,-368"/>
<text text-anchor="start" x="18.98" y="-354.5" font-family="Helvetica,sans-Serif" font-size="10.00">psfb_droop.X/sources</text>
<text text-anchor="middle" x="65.48" y="-342.5" font-family="Helvetica,sans-Serif" font-size="10.00">/pwrctrl/pwrctrl.c</text>
</a>
</g>
</g>
<!-- Node2 -->
<g id="Node000002" class="node">
<title>Node2</title>
<g id="a_Node000002"><a xlink:title=" ">
<polygon fill="#e0e0e0" stroke="#999999" points="62.86,-76 28.11,-76 28.11,-56 62.86,-56 62.86,-76"/>
<text text-anchor="middle" x="45.48" y="-62.5" font-family="Helvetica,sans-Serif" font-size="10.00">xc.h</text>
</a>
</g>
</g>
<!-- Node1&#45;&gt;Node2 -->
<g id="edge1_Node000001_Node000002" class="edge">
<title>Node1&#45;&gt;Node2</title>
<g id="a_edge1_Node000001_Node000002"><a xlink:title=" ">
<path fill="none" stroke="#63b8ff" d="M61.36,-335.74C55.77,-313.69 46.48,-271.53 46.48,-235 46.48,-235 46.48,-235 46.48,-177 46.48,-145.72 46.07,-109.45 45.78,-87.37"/>
<polygon fill="#63b8ff" stroke="#63b8ff" points="49.26,-87.37 45.63,-77.42 42.27,-87.46 49.26,-87.37"/>
</a>
</g>
</g>
<!-- Node3 -->
<g id="Node000003" class="node">
<title>Node3</title>
<g id="a_Node000003"><a xlink:href="a00128.html" target="_top" xlink:title="This is the generated driver types header file for the PWM driver.">
<polygon fill="white" stroke="#666666" points="220.73,-20 92.23,-20 92.23,0 220.73,0 220.73,-20"/>
<text text-anchor="middle" x="156.48" y="-6.5" font-family="Helvetica,sans-Serif" font-size="10.00">pwm_hs/pwm_hs_types.h</text>
</a>
</g>
</g>
<!-- Node1&#45;&gt;Node3 -->
<g id="edge2_Node000001_Node000003" class="edge">
<title>Node1&#45;&gt;Node3</title>
<g id="a_edge2_Node000001_Node000003"><a xlink:title=" ">
<path fill="none" stroke="#63b8ff" d="M50.08,-335.64C30.86,-314.77 0.48,-275.4 0.48,-235 0.48,-235 0.48,-235 0.48,-121 0.48,-90.9 -1.45,-77.63 19.48,-56 35.94,-38.99 58.92,-28.41 81.37,-21.83"/>
<polygon fill="#63b8ff" stroke="#63b8ff" points="82.21,-24.96 90.96,-18.99 80.4,-18.19 82.21,-24.96"/>
</a>
</g>
</g>
<!-- Node4 -->
<g id="Node000004" class="node">
<title>Node4</title>
<g id="a_Node000004"><a xlink:href="a00119.html" target="_top" xlink:title="This is the generated driver header file for the PWM driver.">
<polygon fill="white" stroke="#666666" points="198.23,-132 114.73,-132 114.73,-112 198.23,-112 198.23,-132"/>
<text text-anchor="middle" x="156.48" y="-118.5" font-family="Helvetica,sans-Serif" font-size="10.00">pwm_hs/pwm.h</text>
</a>
</g>
</g>
<!-- Node1&#45;&gt;Node4 -->
<g id="edge3_Node000001_Node000004" class="edge">
<title>Node1&#45;&gt;Node4</title>
<g id="a_edge3_Node000001_Node000004"><a xlink:title=" ">
<path fill="none" stroke="#63b8ff" d="M71.59,-335.69C87.65,-295.46 131.01,-186.83 148.75,-142.37"/>
<polygon fill="#63b8ff" stroke="#63b8ff" points="152.31,-143.89 152.77,-133.3 145.81,-141.29 152.31,-143.89"/>
</a>
</g>
</g>
<!-- Node9 -->
<g id="Node000009" class="node">
<title>Node9</title>
<g id="a_Node000009"><a xlink:href="a00383_source.html" target="_top" xlink:title=" ">
<polygon fill="white" stroke="#666666" points="252.86,-300 200.11,-300 200.11,-280 252.86,-280 252.86,-300"/>
<text text-anchor="middle" x="226.48" y="-286.5" font-family="Helvetica,sans-Serif" font-size="10.00">pwrctrl.h</text>
</a>
</g>
</g>
<!-- Node1&#45;&gt;Node9 -->
<g id="edge13_Node000001_Node000009" class="edge">
<title>Node1&#45;&gt;Node9</title>
<g id="a_edge13_Node000001_Node000009"><a xlink:title=" ">
<path fill="none" stroke="#63b8ff" d="M106.94,-335.55C133.03,-325.83 166.34,-313.41 191.16,-304.16"/>
<polygon fill="#63b8ff" stroke="#63b8ff" points="192.09,-307.18 200.24,-300.41 189.64,-300.62 192.09,-307.18"/>
</a>
</g>
</g>
<!-- Node4&#45;&gt;Node2 -->
<g id="edge4_Node000004_Node000002" class="edge">
<title>Node4&#45;&gt;Node2</title>
<g id="a_edge4_Node000004_Node000002"><a xlink:title=" ">
<path fill="none" stroke="#63b8ff" d="M137.15,-111.59C119.38,-102.95 92.84,-90.04 72.89,-80.33"/>
<polygon fill="#63b8ff" stroke="#63b8ff" points="74.66,-76.81 64.13,-75.59 71.59,-83.11 74.66,-76.81"/>
</a>
</g>
</g>
<!-- Node4&#45;&gt;Node3 -->
<g id="edge8_Node000004_Node000003" class="edge">
<title>Node4&#45;&gt;Node3</title>
<g id="a_edge8_Node000004_Node000003"><a xlink:title=" ">
<path fill="none" stroke="#63b8ff" d="M156.48,-111.62C156.48,-93.92 156.48,-55.24 156.48,-31.32"/>
<polygon fill="#63b8ff" stroke="#63b8ff" points="159.98,-31.35 156.48,-21.35 152.98,-31.35 159.98,-31.35"/>
</a>
</g>
</g>
<!-- Node5 -->
<g id="Node000005" class="node">
<title>Node5</title>
<g id="a_Node000005"><a xlink:title=" ">
<polygon fill="#e0e0e0" stroke="#999999" points="297.61,-20 249.36,-20 249.36,0 297.61,0 297.61,-20"/>
<text text-anchor="middle" x="273.48" y="-6.5" font-family="Helvetica,sans-Serif" font-size="10.00">stdint.h</text>
</a>
</g>
</g>
<!-- Node4&#45;&gt;Node5 -->
<g id="edge5_Node000004_Node000005" class="edge">
<title>Node4&#45;&gt;Node5</title>
<g id="a_edge5_Node000004_Node000005"><a xlink:title=" ">
<path fill="none" stroke="#63b8ff" d="M163.67,-111.63C173.98,-98.49 193.88,-74.16 213.48,-56 225.09,-45.25 239.2,-34.56 250.81,-26.31"/>
<polygon fill="#63b8ff" stroke="#63b8ff" points="252.3,-28.84 258.5,-20.25 248.3,-23.1 252.3,-28.84"/>
</a>
</g>
</g>
<!-- Node6 -->
<g id="Node000006" class="node">
<title>Node6</title>
<g id="a_Node000006"><a xlink:title=" ">
<polygon fill="#e0e0e0" stroke="#999999" points="380.36,-20 324.61,-20 324.61,0 380.36,0 380.36,-20"/>
<text text-anchor="middle" x="352.48" y="-6.5" font-family="Helvetica,sans-Serif" font-size="10.00">stdbool.h</text>
</a>
</g>
</g>
<!-- Node4&#45;&gt;Node6 -->
<g id="edge6_Node000004_Node000006" class="edge">
<title>Node4&#45;&gt;Node6</title>
<g id="a_edge6_Node000004_Node000006"><a xlink:title=" ">
<path fill="none" stroke="#63b8ff" d="M198.59,-121.56C238.46,-119.78 297.44,-110.79 333.48,-76 345.51,-64.39 350.04,-45.63 351.69,-31.23"/>
<polygon fill="#63b8ff" stroke="#63b8ff" points="355.24,-31.66 352.5,-21.43 348.26,-31.14 355.24,-31.66"/>
</a>
</g>
</g>
<!-- Node7 -->
<g id="Node000007" class="node">
<title>Node7</title>
<g id="a_Node000007"><a xlink:title=" ">
<polygon fill="#e0e0e0" stroke="#999999" points="128.23,-76 80.73,-76 80.73,-56 128.23,-56 128.23,-76"/>
<text text-anchor="middle" x="104.48" y="-62.5" font-family="Helvetica,sans-Serif" font-size="10.00">stdlib.h</text>
</a>
</g>
</g>
<!-- Node4&#45;&gt;Node7 -->
<g id="edge7_Node000004_Node000007" class="edge">
<title>Node4&#45;&gt;Node7</title>
<g id="a_edge7_Node000004_Node000007"><a xlink:title=" ">
<path fill="none" stroke="#63b8ff" d="M147.42,-111.59C140.12,-104.01 129.65,-93.13 120.88,-84.02"/>
<polygon fill="#63b8ff" stroke="#63b8ff" points="123.89,-82.07 114.44,-77.3 118.85,-86.93 123.89,-82.07"/>
</a>
</g>
</g>
<!-- Node8 -->
<g id="Node000008" class="node">
<title>Node8</title>
<g id="a_Node000008"><a xlink:href="a00125_source.html" target="_top" xlink:title=" ">
<polygon fill="white" stroke="#666666" points="324.61,-76 222.36,-76 222.36,-56 324.61,-56 324.61,-76"/>
<text text-anchor="middle" x="273.48" y="-62.5" font-family="Helvetica,sans-Serif" font-size="10.00">pwm_hs_interface.h</text>
</a>
</g>
</g>
<!-- Node4&#45;&gt;Node8 -->
<g id="edge9_Node000004_Node000008" class="edge">
<title>Node4&#45;&gt;Node8</title>
<g id="a_edge9_Node000004_Node000008"><a xlink:title=" ">
<path fill="none" stroke="#63b8ff" d="M176.86,-111.59C195.12,-103.17 222.15,-90.69 242.99,-81.07"/>
<polygon fill="#63b8ff" stroke="#63b8ff" points="244.33,-83.85 251.94,-76.48 241.4,-77.49 244.33,-83.85"/>
</a>
</g>
</g>
<!-- Node8&#45;&gt;Node3 -->
<g id="edge12_Node000008_Node000003" class="edge">
<title>Node8&#45;&gt;Node3</title>
<g id="a_edge12_Node000008_Node000003"><a xlink:title=" ">
<path fill="none" stroke="#63b8ff" d="M253.1,-55.59C234.84,-47.17 207.81,-34.69 186.98,-25.07"/>
<polygon fill="#63b8ff" stroke="#63b8ff" points="188.57,-21.49 178.02,-20.48 185.63,-27.85 188.57,-21.49"/>
</a>
</g>
</g>
<!-- Node8&#45;&gt;Node5 -->
<g id="edge11_Node000008_Node000005" class="edge">
<title>Node8&#45;&gt;Node5</title>
<g id="a_edge11_Node000008_Node000005"><a xlink:title=" ">
<path fill="none" stroke="#63b8ff" d="M273.48,-55.59C273.48,-48.86 273.48,-39.53 273.48,-31.15"/>
<polygon fill="#63b8ff" stroke="#63b8ff" points="276.98,-31.3 273.48,-21.3 269.98,-31.3 276.98,-31.3"/>
</a>
</g>
</g>
<!-- Node8&#45;&gt;Node6 -->
<g id="edge10_Node000008_Node000006" class="edge">
<title>Node8&#45;&gt;Node6</title>
<g id="a_edge10_Node000008_Node000006"><a xlink:title=" ">
<path fill="none" stroke="#63b8ff" d="M287.24,-55.59C298.95,-47.59 316.01,-35.93 329.74,-26.54"/>
<polygon fill="#63b8ff" stroke="#63b8ff" points="331.33,-29.01 337.61,-20.48 327.38,-23.23 331.33,-29.01"/>
</a>
</g>
</g>
<!-- Node10 -->
<g id="Node000010" class="node">
<title>Node10</title>
<g id="a_Node000010"><a xlink:href="a00416_source.html" target="_top" xlink:title=" ">
<polygon fill="white" stroke="#666666" points="465.23,-188 375.73,-188 375.73,-168 465.23,-168 465.23,-188"/>
<text text-anchor="middle" x="420.48" y="-174.5" font-family="Helvetica,sans-Serif" font-size="10.00">pwrctrl_typedef.h</text>
</a>
</g>
</g>
<!-- Node9&#45;&gt;Node10 -->
<g id="edge14_Node000009_Node000010" class="edge">
<title>Node9&#45;&gt;Node10</title>
<g id="a_edge14_Node000009_Node000010"><a xlink:title=" ">
<path fill="none" stroke="#63b8ff" d="M201.79,-279.54C174.26,-267.61 135.9,-246 154.48,-224 180.81,-192.84 294.45,-183.25 364.41,-180.3"/>
<polygon fill="#63b8ff" stroke="#63b8ff" points="364.38,-183.77 374.24,-179.89 364.11,-176.77 364.38,-183.77"/>
</a>
</g>
</g>
<!-- Node13 -->
<g id="Node000013" class="node">
<title>Node13</title>
<g id="a_Node000013"><a xlink:href="a00395.html" target="_top" xlink:title="Contains public functions relevant for power control communication interface.">
<polygon fill="white" stroke="#666666" points="289.98,-244 162.98,-244 162.98,-224 289.98,-224 289.98,-244"/>
<text text-anchor="middle" x="226.48" y="-230.5" font-family="Helvetica,sans-Serif" font-size="10.00">pwrctrl_comm_interface.h</text>
</a>
</g>
</g>
<!-- Node9&#45;&gt;Node13 -->
<g id="edge19_Node000009_Node000013" class="edge">
<title>Node9&#45;&gt;Node13</title>
<g id="a_edge19_Node000009_Node000013"><a xlink:title=" ">
<path fill="none" stroke="#63b8ff" d="M226.48,-279.59C226.48,-272.86 226.48,-263.53 226.48,-255.15"/>
<polygon fill="#63b8ff" stroke="#63b8ff" points="229.98,-255.3 226.48,-245.3 222.98,-255.3 229.98,-255.3"/>
</a>
</g>
</g>
<!-- Node14 -->
<g id="Node000014" class="node">
<title>Node14</title>
<g id="a_Node000014"><a xlink:href="a00389.html" target="_top" xlink:title="Contains the power control reusable functions.">
<polygon fill="white" stroke="#666666" points="468.23,-244 372.73,-244 372.73,-224 468.23,-224 468.23,-244"/>
<text text-anchor="middle" x="420.48" y="-230.5" font-family="Helvetica,sans-Serif" font-size="10.00">pwrctrl_common.h</text>
</a>
</g>
</g>
<!-- Node9&#45;&gt;Node14 -->
<g id="edge20_Node000009_Node000014" class="edge">
<title>Node9&#45;&gt;Node14</title>
<g id="a_edge20_Node000009_Node000014"><a xlink:title=" ">
<path fill="none" stroke="#63b8ff" d="M253.05,-281.6C284.73,-272.79 338.16,-257.91 376.14,-247.34"/>
<polygon fill="#63b8ff" stroke="#63b8ff" points="376.72,-250.54 385.41,-244.48 374.84,-243.79 376.72,-250.54"/>
</a>
</g>
</g>
<!-- Node15 -->
<g id="Node000015" class="node">
<title>Node15</title>
<g id="a_Node000015"><a xlink:title=" ">
<polygon fill="#e0e0e0" stroke="#999999" points="354.48,-244 308.48,-244 308.48,-224 354.48,-224 354.48,-244"/>
<text text-anchor="middle" x="331.48" y="-230.5" font-family="Helvetica,sans-Serif" font-size="10.00">math.h</text>
</a>
</g>
</g>
<!-- Node9&#45;&gt;Node15 -->
<g id="edge22_Node000009_Node000015" class="edge">
<title>Node9&#45;&gt;Node15</title>
<g id="a_edge22_Node000009_Node000015"><a xlink:title=" ">
<path fill="none" stroke="#63b8ff" d="M244.77,-279.59C260.93,-271.28 284.76,-259.03 303.34,-249.47"/>
<polygon fill="#63b8ff" stroke="#63b8ff" points="304.76,-252.17 312.05,-244.48 301.56,-245.94 304.76,-252.17"/>
</a>
</g>
</g>
<!-- Node11 -->
<g id="Node000011" class="node">
<title>Node11</title>
<g id="a_Node000011"><a xlink:href="a00317.html" target="_top" xlink:title="Contains fault data types.">
<polygon fill="white" stroke="#666666" points="472.48,-132 372.48,-132 372.48,-112 472.48,-112 472.48,-132"/>
<text text-anchor="middle" x="422.48" y="-118.5" font-family="Helvetica,sans-Serif" font-size="10.00">fault/fault_typedef.h</text>
</a>
</g>
</g>
<!-- Node10&#45;&gt;Node11 -->
<g id="edge15_Node000010_Node000011" class="edge">
<title>Node10&#45;&gt;Node11</title>
<g id="a_edge15_Node000010_Node000011"><a xlink:title=" ">
<path fill="none" stroke="#63b8ff" d="M420.83,-167.59C421.08,-160.86 421.43,-151.53 421.74,-143.15"/>
<polygon fill="#63b8ff" stroke="#63b8ff" points="425.27,-143.42 422.14,-133.3 418.27,-143.16 425.27,-143.42"/>
</a>
</g>
</g>
<!-- Node12 -->
<g id="Node000012" class="node">
<title>Node12</title>
<g id="a_Node000012"><a xlink:href="a00308.html" target="_top" xlink:title="Contains fault generic public functions.">
<polygon fill="white" stroke="#666666" points="465.98,-76 380.98,-76 380.98,-56 465.98,-56 465.98,-76"/>
<text text-anchor="middle" x="423.48" y="-62.5" font-family="Helvetica,sans-Serif" font-size="10.00">fault_common.h</text>
</a>
</g>
</g>
<!-- Node11&#45;&gt;Node12 -->
<g id="edge16_Node000011_Node000012" class="edge">
<title>Node11&#45;&gt;Node12</title>
<g id="a_edge16_Node000011_Node000012"><a xlink:title=" ">
<path fill="none" stroke="#63b8ff" d="M422.66,-111.59C422.78,-104.86 422.95,-95.53 423.11,-87.15"/>
<polygon fill="#63b8ff" stroke="#63b8ff" points="426.62,-87.36 423.31,-77.3 419.63,-87.23 426.62,-87.36"/>
</a>
</g>
</g>
<!-- Node12&#45;&gt;Node5 -->
<g id="edge17_Node000012_Node000005" class="edge">
<title>Node12&#45;&gt;Node5</title>
<g id="a_edge17_Node000012_Node000005"><a xlink:title=" ">
<path fill="none" stroke="#63b8ff" d="M397.35,-55.59C372.6,-46.68 335.28,-33.25 308.07,-23.45"/>
<polygon fill="#63b8ff" stroke="#63b8ff" points="309.42,-19.86 298.82,-19.76 307.05,-26.44 309.42,-19.86"/>
</a>
</g>
</g>
<!-- Node12&#45;&gt;Node6 -->
<g id="edge18_Node000012_Node000006" class="edge">
<title>Node12&#45;&gt;Node6</title>
<g id="a_edge18_Node000012_Node000006"><a xlink:title=" ">
<path fill="none" stroke="#63b8ff" d="M411.11,-55.59C400.73,-47.7 385.67,-36.24 373.41,-26.92"/>
<polygon fill="#63b8ff" stroke="#63b8ff" points="375.79,-23.57 365.71,-20.3 371.55,-29.14 375.79,-23.57"/>
</a>
</g>
</g>
<!-- Node14&#45;&gt;Node10 -->
<g id="edge21_Node000014_Node000010" class="edge">
<title>Node14&#45;&gt;Node10</title>
<g id="a_edge21_Node000014_Node000010"><a xlink:title=" ">
<path fill="none" stroke="#63b8ff" d="M420.48,-223.59C420.48,-216.86 420.48,-207.53 420.48,-199.15"/>
<polygon fill="#63b8ff" stroke="#63b8ff" points="423.98,-199.3 420.48,-189.3 416.98,-199.3 423.98,-199.3"/>
</a>
</g>
</g>
</g>
</svg>
</svg>

<style type='text/css'>
<![CDATA[
[data-mouse-over-selected='false'] { opacity: 0.7; }
[data-mouse-over-selected='true']  { opacity: 1.0; }
]]>
</style>
<script type="application/ecmascript"><![CDATA[
document.addEventListener('DOMContentLoaded', (event) => {
  highlightEdges();
  highlightAdjacentNodes();
});
]]></script>
</svg>
