<?xml version="1.0" encoding="UTF-8" standalone="no"?>
<!DOCTYPE svg PUBLIC "-//W3C//DTD SVG 1.1//EN"
 "http://www.w3.org/Graphics/SVG/1.1/DTD/svg11.dtd">
<!-- Generated by graphviz version 8.1.0 (20230707.0739)
 -->
<!-- Title: psfb_droop.X/sources/pwrctrl/pwrctrl_comm_interface.h Pages: 1 -->
<!--zoomable 348 -->

<svg id="main" version="1.1" xmlns="http://www.w3.org/2000/svg" xmlns:xlink="http://www.w3.org/1999/xlink" xml:space="preserve" onload="init(evt)">

<style type="text/css"><![CDATA[
.node, .edge {opacity: 0.7;}
.node.selected, .edge.selected {opacity: 1;}
.edge:hover path { stroke: red; }
.edge:hover polygon { stroke: red; fill: red; }
]]></style>

<defs>
  <circle id="rim" cx="0" cy="0" r="7"/>
  <circle id="rim2" cx="0" cy="0" r="3.5"/>
  <g id="zoomPlus">
    <use xlink:href="#rim" fill="#404040"><set attributeName="fill" to="#808080" begin="zoomplus.mouseover" end="zoomplus.mouseout"/></use>
    <path d="M-4,0h8M0,-4v8" fill="none" stroke="white" stroke-width="1.5" pointer-events="none"/>
  </g>
  <g id="zoomMin">
    <use xlink:href="#rim" fill="#404040"><set attributeName="fill" to="#808080" begin="zoomminus.mouseover" end="zoomminus.mouseout"/></use>
    <path d="M-4,0h8" fill="none" stroke="white" stroke-width="1.5" pointer-events="none"/>
  </g>
  <g id="arrowUp" transform="translate(30 24)">
    <use xlink:href="#rim"/>
    <path pointer-events="none" fill="none" stroke="white" stroke-width="1.5" d="M0,-3.0v7 M-2.5,-0.5L0,-3.0L2.5,-0.5"/>
  </g>
  <g id="arrowRight" transform="rotate(90) translate(36 -43)">
    <use xlink:href="#rim"/>
    <path pointer-events="none" fill="none" stroke="white" stroke-width="1.5" d="M0,-3.0v7 M-2.5,-0.5L0,-3.0L2.5,-0.5"/>
  </g>
  <g id="arrowDown" transform="rotate(180) translate(-30 -48)">
    <use xlink:href="#rim"/>
    <path pointer-events="none" fill="none" stroke="white" stroke-width="1.5" d="M0,-3.0v7 M-2.5,-0.5L0,-3.0L2.5,-0.5"/>
  </g>
  <g id="arrowLeft" transform="rotate(270) translate(-36 17)">
    <use xlink:href="#rim"/>
    <path pointer-events="none" fill="none" stroke="white" stroke-width="1.5" d="M0,-3.0v7 M-2.5,-0.5L0,-3.0L2.5,-0.5"/>
  </g>
  <g id="resetDef">
    <use xlink:href="#rim2" fill="#404040"><set attributeName="fill" to="#808080" begin="reset.mouseover" end="reset.mouseout"/></use>
  </g>
</defs>
<script type="application/ecmascript">
var viewWidth = 1366;
var viewHeight = 348;
var sectionId = 'dynsection-0';
</script>
<script type="application/ecmascript" xlink:href="svg.min.js"/>
<svg id="graph" class="graph">
<g id="viewport">
<title>psfb_droop.X/sources/pwrctrl/pwrctrl_comm_interface.h</title>
<!-- Node1 -->
<g id="Node000001" class="node">
<title>Node1</title>
<g id="a_Node000001"><a xlink:title="Contains public functions relevant for power control communication interface.">
<polygon fill="#999999" stroke="#666666" points="318.5,-340 207.25,-340 207.25,-296 318.5,-296 318.5,-340"/>
<text text-anchor="start" x="215.25" y="-326.5" font-family="Helvetica,sans-Serif" font-size="10.00">psfb_droop.X/sources</text>
<text text-anchor="start" x="215.25" y="-314.5" font-family="Helvetica,sans-Serif" font-size="10.00">/pwrctrl/pwrctrl_comm</text>
<text text-anchor="middle" x="262.88" y="-302.5" font-family="Helvetica,sans-Serif" font-size="10.00">_interface.h</text>
</a>
</g>
</g>
<!-- Node2 -->
<g id="Node000002" class="node">
<title>Node2</title>
<g id="a_Node000002"><a xlink:href="a00233_source.html" target="_top" xlink:title=" ">
<polygon fill="white" stroke="#666666" points="163.75,-106 0,-106 0,-74 163.75,-74 163.75,-106"/>
<text text-anchor="start" x="8" y="-92.5" font-family="Helvetica,sans-Serif" font-size="10.00">psfb_droop.X/sources</text>
<text text-anchor="middle" x="81.88" y="-80.5" font-family="Helvetica,sans-Serif" font-size="10.00">/app/app_PBV_psfb_frame_map.c</text>
</a>
</g>
</g>
<!-- Node1&#45;&gt;Node2 -->
<g id="edge1_Node000001_Node000002" class="edge">
<title>Node1&#45;&gt;Node2</title>
<g id="a_edge1_Node000001_Node000002"><a xlink:title=" ">
<path fill="none" stroke="#63b8ff" d="M201.11,-290.77C161.01,-270.19 111.75,-237.39 86.88,-192 72.02,-164.9 75.23,-127.33 78.68,-106.49"/>
<polygon fill="#63b8ff" stroke="#63b8ff" points="199.31,-294.28 209.82,-295.61 202.43,-288.02 199.31,-294.28"/>
</a>
</g>
</g>
<!-- Node3 -->
<g id="Node000003" class="node">
<title>Node3</title>
<g id="a_Node000003"><a xlink:href="a00383_source.html" target="_top" xlink:title=" ">
<polygon fill="white" stroke="#666666" points="579.38,-260 470.38,-260 470.38,-228 579.38,-228 579.38,-260"/>
<text text-anchor="start" x="478.38" y="-246.5" font-family="Helvetica,sans-Serif" font-size="10.00">psfb_droop.X/sources</text>
<text text-anchor="middle" x="524.88" y="-234.5" font-family="Helvetica,sans-Serif" font-size="10.00">/pwrctrl/pwrctrl.h</text>
</a>
</g>
</g>
<!-- Node1&#45;&gt;Node3 -->
<g id="edge2_Node000001_Node000003" class="edge">
<title>Node1&#45;&gt;Node3</title>
<g id="a_edge2_Node000001_Node000003"><a xlink:title=" ">
<path fill="none" stroke="#63b8ff" d="M329.25,-298.76C372.77,-286.8 428.98,-271.35 469.98,-260.09"/>
<polygon fill="#63b8ff" stroke="#63b8ff" points="328.47,-295.62 319.76,-301.64 330.33,-302.37 328.47,-295.62"/>
</a>
</g>
</g>
<!-- Node3&#45;&gt;Node2 -->
<g id="edge4_Node000003_Node000002" class="edge">
<title>Node3&#45;&gt;Node2</title>
<g id="a_edge4_Node000003_Node000002"><a xlink:title=" ">
<path fill="none" stroke="#63b8ff" d="M459.39,-242.91C357.94,-241.47 169.11,-233.14 117.88,-192 91.6,-170.9 84.48,-129.15 82.57,-106.5"/>
<polygon fill="#63b8ff" stroke="#63b8ff" points="459.08,-246.42 469.13,-243.04 459.17,-239.42 459.08,-246.42"/>
</a>
</g>
</g>
<!-- Node4 -->
<g id="Node000004" class="node">
<title>Node4</title>
<g id="a_Node000004"><a xlink:href="a00056_source.html" target="_top" xlink:title=" ">
<polygon fill="white" stroke="#666666" points="230.75,-180 127,-180 127,-160 230.75,-160 230.75,-180"/>
<text text-anchor="middle" x="178.88" y="-166.5" font-family="Helvetica,sans-Serif" font-size="10.00">psfb_droop.X/main.c</text>
</a>
</g>
</g>
<!-- Node3&#45;&gt;Node4 -->
<g id="edge3_Node000003_Node000004" class="edge">
<title>Node3&#45;&gt;Node4</title>
<g id="a_edge3_Node000003_Node000004"><a xlink:title=" ">
<path fill="none" stroke="#63b8ff" d="M459.29,-233.49C402.23,-224.63 317.51,-210.09 244.88,-192 231.92,-188.77 217.8,-184.4 205.95,-180.47"/>
<polygon fill="#63b8ff" stroke="#63b8ff" points="458.56,-237.07 468.97,-235.13 459.62,-230.15 458.56,-237.07"/>
</a>
</g>
</g>
<!-- Node5 -->
<g id="Node000005" class="node">
<title>Node5</title>
<g id="a_Node000005"><a xlink:href="a00269.html" target="_top" xlink:title="measure current sensor offsets">
<polygon fill="white" stroke="#666666" points="628.25,-192 509.5,-192 509.5,-148 628.25,-148 628.25,-192"/>
<text text-anchor="start" x="517.5" y="-178.5" font-family="Helvetica,sans-Serif" font-size="10.00">psfb_droop.X/sources</text>
<text text-anchor="start" x="517.5" y="-166.5" font-family="Helvetica,sans-Serif" font-size="10.00">/device/dev_adc_sensor</text>
<text text-anchor="middle" x="568.88" y="-154.5" font-family="Helvetica,sans-Serif" font-size="10.00">_offsets.h</text>
</a>
</g>
</g>
<!-- Node3&#45;&gt;Node5 -->
<g id="edge5_Node000003_Node000005" class="edge">
<title>Node3&#45;&gt;Node5</title>
<g id="a_edge5_Node000003_Node000005"><a xlink:title=" ">
<path fill="none" stroke="#63b8ff" d="M539.78,-218.61C545.01,-210.06 550.83,-200.53 555.89,-192.26"/>
<polygon fill="#63b8ff" stroke="#63b8ff" points="536.43,-216.37 534.21,-226.73 542.41,-220.02 536.43,-216.37"/>
</a>
</g>
</g>
<!-- Node8 -->
<g id="Node000008" class="node">
<title>Node8</title>
<g id="a_Node000008"><a xlink:href="a00299.html" target="_top" xlink:title="Contains fault functions including the fault handler, fault object initialization and fault execution...">
<polygon fill="white" stroke="#666666" points="414.38,-32 305.38,-32 305.38,0 414.38,0 414.38,-32"/>
<text text-anchor="start" x="313.38" y="-18.5" font-family="Helvetica,sans-Serif" font-size="10.00">psfb_droop.X/sources</text>
<text text-anchor="middle" x="359.88" y="-6.5" font-family="Helvetica,sans-Serif" font-size="10.00">/fault/fault.c</text>
</a>
</g>
</g>
<!-- Node3&#45;&gt;Node8 -->
<g id="edge11_Node000003_Node000008" class="edge">
<title>Node3&#45;&gt;Node8</title>
<g id="a_edge11_Node000003_Node000008"><a xlink:title=" ">
<path fill="none" stroke="#63b8ff" d="M459.1,-237.91C411.24,-232.01 346.11,-219.3 294.88,-192 283.5,-185.94 215.95,-123.85 210.88,-112 203.17,-94.03 199.5,-83.91 210.88,-68 232.18,-38.19 272,-25.62 305.12,-20.4"/>
<polygon fill="#63b8ff" stroke="#63b8ff" points="458.62,-241.49 468.96,-239.17 459.43,-234.54 458.62,-241.49"/>
</a>
</g>
</g>
<!-- Node9 -->
<g id="Node000009" class="node">
<title>Node9</title>
<g id="a_Node000009"><a xlink:href="a00413.html" target="_top" xlink:title="Contains power control state machine functions that is executed every 100us.">
<polygon fill="white" stroke="#666666" points="794.38,-32 685.38,-32 685.38,0 794.38,0 794.38,-32"/>
<text text-anchor="start" x="693.38" y="-18.5" font-family="Helvetica,sans-Serif" font-size="10.00">psfb_droop.X/sources</text>
<text text-anchor="middle" x="739.88" y="-6.5" font-family="Helvetica,sans-Serif" font-size="10.00">/pwrctrl/pwrctrl_sm.c</text>
</a>
</g>
</g>
<!-- Node3&#45;&gt;Node9 -->
<g id="edge25_Node000003_Node000009" class="edge">
<title>Node3&#45;&gt;Node9</title>
<g id="a_edge25_Node000003_Node000009"><a xlink:title=" ">
<path fill="none" stroke="#63b8ff" d="M590.49,-241.26C777.88,-235.97 1303.73,-218.79 1328.88,-192 1485.1,-25.55 968.55,-15.09 794.85,-16.14"/>
<polygon fill="#63b8ff" stroke="#63b8ff" points="590.59,-237.78 580.7,-241.56 590.79,-244.78 590.59,-237.78"/>
</a>
</g>
</g>
<!-- Node10 -->
<g id="Node000010" class="node">
<title>Node10</title>
<g id="a_Node000010"><a xlink:href="a00293_source.html" target="_top" xlink:title=" ">
<polygon fill="white" stroke="#666666" points="540,-112 425.75,-112 425.75,-68 540,-68 540,-112"/>
<text text-anchor="start" x="433.75" y="-98.5" font-family="Helvetica,sans-Serif" font-size="10.00">psfb_droop.X/sources</text>
<text text-anchor="start" x="433.75" y="-86.5" font-family="Helvetica,sans-Serif" font-size="10.00">/driver/mcc_extension</text>
<text text-anchor="middle" x="482.88" y="-74.5" font-family="Helvetica,sans-Serif" font-size="10.00">/mcc_custom_config.c</text>
</a>
</g>
</g>
<!-- Node3&#45;&gt;Node10 -->
<g id="edge10_Node000003_Node000010" class="edge">
<title>Node3&#45;&gt;Node10</title>
<g id="a_edge10_Node000003_Node000010"><a xlink:title=" ">
<path fill="none" stroke="#63b8ff" d="M491,-220.92C481.75,-213.01 472.9,-203.23 467.88,-192 456.37,-166.27 464.94,-133.54 473.09,-112.43"/>
<polygon fill="#63b8ff" stroke="#63b8ff" points="488.49,-224.19 498.51,-227.65 492.84,-218.7 488.49,-224.19"/>
</a>
</g>
</g>
<!-- Node11 -->
<g id="Node000011" class="node">
<title>Node11</title>
<g id="a_Node000011"><a xlink:href="a00311.html" target="_top" xlink:title="Contains API functions for fault protection.">
<polygon fill="white" stroke="#666666" points="787.12,-186 646.62,-186 646.62,-154 787.12,-154 787.12,-186"/>
<text text-anchor="start" x="654.62" y="-172.5" font-family="Helvetica,sans-Serif" font-size="10.00">psfb_droop.X/sources</text>
<text text-anchor="middle" x="716.88" y="-160.5" font-family="Helvetica,sans-Serif" font-size="10.00">/fault/fault_comm_interface.c</text>
</a>
</g>
</g>
<!-- Node3&#45;&gt;Node11 -->
<g id="edge12_Node000003_Node000011" class="edge">
<title>Node3&#45;&gt;Node11</title>
<g id="a_edge12_Node000003_Node000011"><a xlink:title=" ">
<path fill="none" stroke="#63b8ff" d="M576.3,-223.72C607.45,-212.03 646.67,-197.33 675.75,-186.42"/>
<polygon fill="#63b8ff" stroke="#63b8ff" points="575.2,-220.77 567.06,-227.55 577.66,-227.32 575.2,-220.77"/>
</a>
</g>
</g>
<!-- Node12 -->
<g id="Node000012" class="node">
<title>Node12</title>
<g id="a_Node000012"><a xlink:href="a00380.html" target="_top" xlink:title="Contains power control initialization including control loop initialization and start&#45;up initializati...">
<polygon fill="white" stroke="#666666" points="914.38,-186 805.38,-186 805.38,-154 914.38,-154 914.38,-186"/>
<text text-anchor="start" x="813.38" y="-172.5" font-family="Helvetica,sans-Serif" font-size="10.00">psfb_droop.X/sources</text>
<text text-anchor="middle" x="859.88" y="-160.5" font-family="Helvetica,sans-Serif" font-size="10.00">/pwrctrl/pwrctrl.c</text>
</a>
</g>
</g>
<!-- Node3&#45;&gt;Node12 -->
<g id="edge13_Node000003_Node000012" class="edge">
<title>Node3&#45;&gt;Node12</title>
<g id="a_edge13_Node000003_Node000012"><a xlink:title=" ">
<path fill="none" stroke="#63b8ff" d="M590.53,-233.12C645.74,-224.22 726.54,-209.82 795.88,-192 802.22,-190.37 808.85,-188.45 815.34,-186.44"/>
<polygon fill="#63b8ff" stroke="#63b8ff" points="590.16,-229.79 580.84,-234.82 591.27,-236.71 590.16,-229.79"/>
</a>
</g>
</g>
<!-- Node13 -->
<g id="Node000013" class="node">
<title>Node13</title>
<g id="a_Node000013"><a xlink:href="a00392.html" target="_top" xlink:title="Contains power control interface with communication/gui.">
<polygon fill="white" stroke="#666666" points="1043.5,-192 932.25,-192 932.25,-148 1043.5,-148 1043.5,-192"/>
<text text-anchor="start" x="940.25" y="-178.5" font-family="Helvetica,sans-Serif" font-size="10.00">psfb_droop.X/sources</text>
<text text-anchor="start" x="940.25" y="-166.5" font-family="Helvetica,sans-Serif" font-size="10.00">/pwrctrl/pwrctrl_comm</text>
<text text-anchor="middle" x="987.88" y="-154.5" font-family="Helvetica,sans-Serif" font-size="10.00">_interface.c</text>
</a>
</g>
</g>
<!-- Node3&#45;&gt;Node13 -->
<g id="edge14_Node000003_Node000013" class="edge">
<title>Node3&#45;&gt;Node13</title>
<g id="a_edge14_Node000003_Node000013"><a xlink:title=" ">
<path fill="none" stroke="#63b8ff" d="M590.5,-238.45C670.11,-232.06 808.07,-218.15 923.88,-192 926.5,-191.41 929.17,-190.75 931.85,-190.05"/>
<polygon fill="#63b8ff" stroke="#63b8ff" points="590.35,-235.03 580.66,-239.31 590.9,-242.01 590.35,-235.03"/>
</a>
</g>
</g>
<!-- Node14 -->
<g id="Node000014" class="node">
<title>Node14</title>
<g id="a_Node000014"><a xlink:href="a00386.html" target="_top" xlink:title="Contains generic functions that handles power control ramp Up/Down and the averaging generic function...">
<polygon fill="white" stroke="#666666" points="1191.88,-186 1061.88,-186 1061.88,-154 1191.88,-154 1191.88,-186"/>
<text text-anchor="start" x="1069.88" y="-172.5" font-family="Helvetica,sans-Serif" font-size="10.00">psfb_droop.X/sources</text>
<text text-anchor="middle" x="1126.88" y="-160.5" font-family="Helvetica,sans-Serif" font-size="10.00">/pwrctrl/pwrctrl_common.c</text>
</a>
</g>
</g>
<!-- Node3&#45;&gt;Node14 -->
<g id="edge15_Node000003_Node000014" class="edge">
<title>Node3&#45;&gt;Node14</title>
<g id="a_edge15_Node000003_Node000014"><a xlink:title=" ">
<path fill="none" stroke="#63b8ff" d="M590.55,-240.46C690.94,-235.73 888.23,-223.05 1052.88,-192 1060.75,-190.52 1069,-188.57 1077.01,-186.47"/>
<polygon fill="#63b8ff" stroke="#63b8ff" points="590.51,-237 580.68,-240.96 590.83,-244 590.51,-237"/>
</a>
</g>
</g>
<!-- Node15 -->
<g id="Node000015" class="node">
<title>Node15</title>
<g id="a_Node000015"><a xlink:href="a00398.html" target="_top" xlink:title="Contains Control loop interrupt Callback that acquires the ADC raw data and process it in the control...">
<polygon fill="white" stroke="#666666" points="667.38,-106 558.38,-106 558.38,-74 667.38,-74 667.38,-106"/>
<text text-anchor="start" x="566.38" y="-92.5" font-family="Helvetica,sans-Serif" font-size="10.00">psfb_droop.X/sources</text>
<text text-anchor="middle" x="612.88" y="-80.5" font-family="Helvetica,sans-Serif" font-size="10.00">/pwrctrl/pwrctrl_isr.c</text>
</a>
</g>
</g>
<!-- Node3&#45;&gt;Node15 -->
<g id="edge16_Node000003_Node000015" class="edge">
<title>Node3&#45;&gt;Node15</title>
<g id="a_edge16_Node000003_Node000015"><a xlink:title=" ">
<path fill="none" stroke="#63b8ff" d="M508.83,-218.35C497.91,-198.19 487.64,-169.59 500.88,-148 509.09,-134.61 543.5,-118.25 572.04,-106.49"/>
<polygon fill="#63b8ff" stroke="#63b8ff" points="506.25,-219.88 514.3,-226.77 512.3,-216.37 506.25,-219.88"/>
</a>
</g>
</g>
<!-- Node16 -->
<g id="Node000016" class="node">
<title>Node16</title>
<g id="a_Node000016"><a xlink:href="a00404.html" target="_top" xlink:title="Contains some of the functions used in the interrupt service routine of control loop.">
<polygon fill="white" stroke="#666666" points="1319.38,-192 1210.38,-192 1210.38,-148 1319.38,-148 1319.38,-192"/>
<text text-anchor="start" x="1218.38" y="-178.5" font-family="Helvetica,sans-Serif" font-size="10.00">psfb_droop.X/sources</text>
<text text-anchor="start" x="1218.38" y="-166.5" font-family="Helvetica,sans-Serif" font-size="10.00">/pwrctrl/pwrctrl_isr</text>
<text text-anchor="middle" x="1264.88" y="-154.5" font-family="Helvetica,sans-Serif" font-size="10.00">_extension.c</text>
</a>
</g>
</g>
<!-- Node3&#45;&gt;Node16 -->
<g id="edge17_Node000003_Node000016" class="edge">
<title>Node3&#45;&gt;Node16</title>
<g id="a_edge17_Node000003_Node000016"><a xlink:title=" ">
<path fill="none" stroke="#63b8ff" d="M590.77,-243.28C712.51,-242.64 980.35,-235.83 1200.88,-192 1203.86,-191.41 1206.89,-190.72 1209.94,-189.96"/>
<polygon fill="#63b8ff" stroke="#63b8ff" points="590.79,-239.78 580.81,-243.32 590.82,-246.78 590.79,-239.78"/>
</a>
</g>
</g>
<!-- Node17 -->
<g id="Node000017" class="node">
<title>Node17</title>
<g id="a_Node000017"><a xlink:href="a00410.html" target="_top" xlink:title="Contains public functions for PWM.">
<polygon fill="white" stroke="#666666" points="416.25,-186 303.5,-186 303.5,-154 416.25,-154 416.25,-186"/>
<text text-anchor="start" x="311.5" y="-172.5" font-family="Helvetica,sans-Serif" font-size="10.00">psfb_droop.X/sources</text>
<text text-anchor="middle" x="359.88" y="-160.5" font-family="Helvetica,sans-Serif" font-size="10.00">/pwrctrl/pwrctrl_pwm.h</text>
</a>
</g>
</g>
<!-- Node3&#45;&gt;Node17 -->
<g id="edge18_Node000003_Node000017" class="edge">
<title>Node3&#45;&gt;Node17</title>
<g id="a_edge18_Node000003_Node000017"><a xlink:title=" ">
<path fill="none" stroke="#63b8ff" d="M479.63,-223.26C453.03,-211.65 419.89,-197.19 395.21,-186.42"/>
<polygon fill="#63b8ff" stroke="#63b8ff" points="477.91,-226.76 488.48,-227.55 480.71,-220.35 477.91,-226.76"/>
</a>
</g>
</g>
<!-- Node6 -->
<g id="Node000006" class="node">
<title>Node6</title>
<g id="a_Node000006"><a xlink:href="a00266_source.html" target="_top" xlink:title=" ">
<polygon fill="white" stroke="#666666" points="931.25,-112 812.5,-112 812.5,-68 931.25,-68 931.25,-112"/>
<text text-anchor="start" x="820.5" y="-98.5" font-family="Helvetica,sans-Serif" font-size="10.00">psfb_droop.X/sources</text>
<text text-anchor="start" x="820.5" y="-86.5" font-family="Helvetica,sans-Serif" font-size="10.00">/device/dev_adc_sensor</text>
<text text-anchor="middle" x="871.88" y="-74.5" font-family="Helvetica,sans-Serif" font-size="10.00">_offsets.c</text>
</a>
</g>
</g>
<!-- Node5&#45;&gt;Node6 -->
<g id="edge6_Node000005_Node000006" class="edge">
<title>Node5&#45;&gt;Node6</title>
<g id="a_edge6_Node000005_Node000006"><a xlink:title=" ">
<path fill="none" stroke="#63b8ff" d="M638.9,-147.84C712.75,-129.14 733.99,-130.33 803.88,-112 806.62,-111.28 809.43,-110.52 812.25,-109.73"/>
<polygon fill="#63b8ff" stroke="#63b8ff" points="638.44,-144.61 629.63,-150.49 640.19,-151.38 638.44,-144.61"/>
</a>
</g>
</g>
<!-- Node7 -->
<g id="Node000007" class="node">
<title>Node7</title>
<g id="a_Node000007"><a xlink:href="a00263.html" target="_top" xlink:title="Contains h files that are part of device layer.">
<polygon fill="white" stroke="#666666" points="794.38,-106 685.38,-106 685.38,-74 794.38,-74 794.38,-106"/>
<text text-anchor="start" x="693.38" y="-92.5" font-family="Helvetica,sans-Serif" font-size="10.00">psfb_droop.X/sources</text>
<text text-anchor="middle" x="739.88" y="-80.5" font-family="Helvetica,sans-Serif" font-size="10.00">/device/device.h</text>
</a>
</g>
</g>
<!-- Node5&#45;&gt;Node7 -->
<g id="edge7_Node000005_Node000007" class="edge">
<title>Node5&#45;&gt;Node7</title>
<g id="a_edge7_Node000005_Node000007"><a xlink:title=" ">
<path fill="none" stroke="#63b8ff" d="M625.57,-143.14C652.19,-131 683.02,-116.93 705.95,-106.47"/>
<polygon fill="#63b8ff" stroke="#63b8ff" points="624.25,-140.35 616.6,-147.69 627.15,-146.72 624.25,-140.35"/>
</a>
</g>
</g>
<!-- Node7&#45;&gt;Node8 -->
<g id="edge8_Node000007_Node000008" class="edge">
<title>Node7&#45;&gt;Node8</title>
<g id="a_edge8_Node000007_Node000008"><a xlink:title=" ">
<path fill="none" stroke="#63b8ff" d="M686.46,-70.54C683.23,-69.63 680.02,-68.77 676.88,-68 586.2,-45.75 478.47,-30.78 414.82,-23.09"/>
<polygon fill="#63b8ff" stroke="#63b8ff" points="685.18,-74.11 695.77,-73.61 687.18,-67.4 685.18,-74.11"/>
</a>
</g>
</g>
<!-- Node7&#45;&gt;Node9 -->
<g id="edge9_Node000007_Node000009" class="edge">
<title>Node7&#45;&gt;Node9</title>
<g id="a_edge9_Node000007_Node000009"><a xlink:title=" ">
<path fill="none" stroke="#63b8ff" d="M739.88,-62.82C739.88,-52.55 739.88,-41.12 739.88,-32.25"/>
<polygon fill="#63b8ff" stroke="#63b8ff" points="736.38,-62.73 739.88,-72.73 743.38,-62.73 736.38,-62.73"/>
</a>
</g>
</g>
<!-- Node17&#45;&gt;Node2 -->
<g id="edge19_Node000017_Node000002" class="edge">
<title>Node17&#45;&gt;Node2</title>
<g id="a_edge19_Node000017_Node000002"><a xlink:title=" ">
<path fill="none" stroke="#63b8ff" d="M294.66,-150.7C246.63,-137.23 182.06,-119.11 136.68,-106.38"/>
<polygon fill="#63b8ff" stroke="#63b8ff" points="293.38,-154.26 303.95,-153.59 295.27,-147.52 293.38,-154.26"/>
</a>
</g>
</g>
<!-- Node17&#45;&gt;Node8 -->
<g id="edge21_Node000017_Node000008" class="edge">
<title>Node17&#45;&gt;Node8</title>
<g id="a_edge21_Node000017_Node000008"><a xlink:title=" ">
<path fill="none" stroke="#63b8ff" d="M359.88,-142.91C359.88,-111.11 359.88,-58.43 359.88,-32.45"/>
<polygon fill="#63b8ff" stroke="#63b8ff" points="356.38,-142.59 359.88,-152.59 363.38,-142.59 356.38,-142.59"/>
</a>
</g>
</g>
<!-- Node17&#45;&gt;Node9 -->
<g id="edge24_Node000017_Node000009" class="edge">
<title>Node17&#45;&gt;Node9</title>
<g id="a_edge24_Node000017_Node000009"><a xlink:title=" ">
<path fill="none" stroke="#63b8ff" d="M367.19,-143.51C375.33,-119.98 390.89,-86.04 416.88,-68 459.31,-38.54 604.66,-25.19 685.15,-19.94"/>
<polygon fill="#63b8ff" stroke="#63b8ff" points="363.61,-142.21 363.86,-152.8 370.27,-144.36 363.61,-142.21"/>
</a>
</g>
</g>
<!-- Node17&#45;&gt;Node10 -->
<g id="edge20_Node000017_Node000010" class="edge">
<title>Node17&#45;&gt;Node10</title>
<g id="a_edge20_Node000017_Node000010"><a xlink:title=" ">
<path fill="none" stroke="#63b8ff" d="M393.39,-147.75C410.77,-136.73 431.93,-123.31 449.31,-112.28"/>
<polygon fill="#63b8ff" stroke="#63b8ff" points="391.75,-145.28 385.18,-153.59 395.5,-151.19 391.75,-145.28"/>
</a>
</g>
</g>
<!-- Node17&#45;&gt;Node15 -->
<g id="edge22_Node000017_Node000015" class="edge">
<title>Node17&#45;&gt;Node15</title>
<g id="a_edge22_Node000017_Node000015"><a xlink:title=" ">
<path fill="none" stroke="#63b8ff" d="M422.23,-150.61C459.13,-139.62 506.74,-125.26 548.88,-112 554.45,-110.24 560.29,-108.37 566.08,-106.5"/>
<polygon fill="#63b8ff" stroke="#63b8ff" points="421.71,-147.41 413.12,-153.61 423.71,-154.12 421.71,-147.41"/>
</a>
</g>
</g>
<!-- Node18 -->
<g id="Node000018" class="node">
<title>Node18</title>
<g id="a_Node000018"><a xlink:href="a00407.html" target="_top" xlink:title="Contains PSFB control phase calculation between primary and secondary, and the PWM distribution.">
<polygon fill="white" stroke="#666666" points="332.25,-106 219.5,-106 219.5,-74 332.25,-74 332.25,-106"/>
<text text-anchor="start" x="227.5" y="-92.5" font-family="Helvetica,sans-Serif" font-size="10.00">psfb_droop.X/sources</text>
<text text-anchor="middle" x="275.88" y="-80.5" font-family="Helvetica,sans-Serif" font-size="10.00">/pwrctrl/pwrctrl_pwm.c</text>
</a>
</g>
</g>
<!-- Node17&#45;&gt;Node18 -->
<g id="edge23_Node000017_Node000018" class="edge">
<title>Node17&#45;&gt;Node18</title>
<g id="a_edge23_Node000017_Node000018"><a xlink:title=" ">
<path fill="none" stroke="#63b8ff" d="M335.55,-146.41C321.71,-133.56 304.74,-117.8 292.44,-106.38"/>
<polygon fill="#63b8ff" stroke="#63b8ff" points="332.57,-148.35 342.28,-152.59 337.33,-143.22 332.57,-148.35"/>
</a>
</g>
</g>
</g>
</svg>

<g id="navigator" transform="translate(0 0)" fill="#404254">
  <rect fill="#f2f5e9" fill-opacity="0.5" stroke="#606060" stroke-width=".5" x="0" y="0" width="60" height="60"/>
  <use id="zoomplus" xlink:href="#zoomPlus" x="17" y="9" onmousedown="handleZoom(evt,'in')"/>
  <use id="zoomminus" xlink:href="#zoomMin" x="42" y="9" onmousedown="handleZoom(evt,'out')"/>
  <use id="reset" xlink:href="#resetDef" x="30" y="36" onmousedown="handleReset()"/>
   <use id="arrowup" xlink:href="#arrowUp" x="0" y="0" onmousedown="handlePan(0,-1)"/>
  <use id="arrowright" xlink:href="#arrowRight" x="0" y="0" onmousedown="handlePan(1,0)"/>
  <use id="arrowdown" xlink:href="#arrowDown" x="0" y="0" onmousedown="handlePan(0,1)"/>
  <use id="arrowleft" xlink:href="#arrowLeft" x="0" y="0" onmousedown="handlePan(-1,0)"/>
</g>
<svg viewBox="0 0 15 15" width="100%" height="30px" preserveAspectRatio="xMaxYMin meet">
 <g id="arrow_out" transform="scale(0.3 0.3)">
  <a xlink:href="a00397_org.svg" target="_base">
   <rect id="button" ry="5" rx="5" y="6" x="6" height="38" width="38"
        fill="#f2f5e9" fill-opacity="0.5" stroke="#606060" stroke-width="1.0"/>
   <path id="arrow"
     d="M 11.500037,31.436501 C 11.940474,20.09759 22.043105,11.32322 32.158766,21.979434 L 37.068811,17.246167 C 37.068811,17.246167 37.088388,32 37.088388,32 L 22.160133,31.978069 C 22.160133,31.978069 26.997745,27.140456 26.997745,27.140456 C 18.528582,18.264221 13.291696,25.230495 11.500037,31.436501 z"
     style="fill:#404040;"/>
  </a>
 </g>
</svg>

<style type='text/css'>
<![CDATA[
[data-mouse-over-selected='false'] { opacity: 0.7; }
[data-mouse-over-selected='true']  { opacity: 1.0; }
]]>
</style>
<script type="application/ecmascript"><![CDATA[
document.addEventListener('DOMContentLoaded', (event) => {
  highlightEdges();
  highlightAdjacentNodes();
});
]]></script>
</svg>
