<?xml version="1.0" encoding="UTF-8" standalone="no"?>
<!DOCTYPE svg PUBLIC "-//W3C//DTD SVG 1.1//EN"
 "http://www.w3.org/Graphics/SVG/1.1/DTD/svg11.dtd">
<!-- Generated by graphviz version 8.1.0 (20230707.0739)
 -->
<!-- Title: psfb_droop.X/sources/fault/fault.c Pages: 1 -->
<svg width="1556pt" height="500pt"
 viewBox="0.00 0.00 1555.88 500.00" xmlns="http://www.w3.org/2000/svg" xmlns:xlink="http://www.w3.org/1999/xlink">
<g id="graph0" class="graph" transform="scale(1 1) rotate(0) translate(4 496)">
<title>psfb_droop.X/sources/fault/fault.c</title>
<!-- Node1 -->
<g id="Node000001" class="node">
<title>Node1</title>
<g id="a_Node000001"><a xlink:title="Contains fault functions including the fault handler, fault object initialization and fault execution...">
<polygon fill="#999999" stroke="#666666" points="946.12,-492 837.12,-492 837.12,-460 946.12,-460 946.12,-492"/>
<text text-anchor="start" x="845.12" y="-478.5" font-family="Helvetica,sans-Serif" font-size="10.00">psfb_droop.X/sources</text>
<text text-anchor="middle" x="891.62" y="-466.5" font-family="Helvetica,sans-Serif" font-size="10.00">/fault/fault.c</text>
</a>
</g>
</g>
<!-- Node2 -->
<g id="Node000002" class="node">
<title>Node2</title>
<g id="a_Node000002"><a xlink:title=" ">
<polygon fill="#e0e0e0" stroke="#999999" points="369,-88 334.25,-88 334.25,-68 369,-68 369,-88"/>
<text text-anchor="middle" x="351.62" y="-74.5" font-family="Helvetica,sans-Serif" font-size="10.00">xc.h</text>
</a>
</g>
</g>
<!-- Node1&#45;&gt;Node2 -->
<g id="edge1_Node000001_Node000002" class="edge">
<title>Node1&#45;&gt;Node2</title>
<g id="a_edge1_Node000001_Node000002"><a xlink:title=" ">
<path fill="none" stroke="#63b8ff" d="M836.73,-475.52C692.45,-475.42 313.62,-465.06 313.62,-359 313.62,-359 313.62,-359 313.62,-189 313.62,-155.47 329.6,-119.18 340.83,-97.81"/>
<polygon fill="#63b8ff" stroke="#63b8ff" points="344.28,-99.79 346.02,-89.33 338.14,-96.42 344.28,-99.79"/>
</a>
</g>
</g>
<!-- Node3 -->
<g id="Node000003" class="node">
<title>Node3</title>
<g id="a_Node000003"><a xlink:title=" ">
<polygon fill="#e0e0e0" stroke="#999999" points="967.5,-26 911.75,-26 911.75,-6 967.5,-6 967.5,-26"/>
<text text-anchor="middle" x="939.62" y="-12.5" font-family="Helvetica,sans-Serif" font-size="10.00">stdbool.h</text>
</a>
</g>
</g>
<!-- Node1&#45;&gt;Node3 -->
<g id="edge2_Node000001_Node000003" class="edge">
<title>Node1&#45;&gt;Node3</title>
<g id="a_edge2_Node000001_Node000003"><a xlink:title=" ">
<path fill="none" stroke="#63b8ff" d="M946.42,-474.09C1078.5,-470.43 1403.62,-451.96 1403.62,-359 1403.62,-359 1403.62,-359 1403.62,-133 1403.62,-45.7 1090.57,-23.55 978.74,-18.42"/>
<polygon fill="#63b8ff" stroke="#63b8ff" points="979.09,-14.89 968.95,-17.95 978.79,-21.89 979.09,-14.89"/>
</a>
</g>
</g>
<!-- Node4 -->
<g id="Node000004" class="node">
<title>Node4</title>
<g id="a_Node000004"><a xlink:title=" ">
<polygon fill="#e0e0e0" stroke="#999999" points="1191.88,-88 1141.38,-88 1141.38,-68 1191.88,-68 1191.88,-88"/>
<text text-anchor="middle" x="1166.62" y="-74.5" font-family="Helvetica,sans-Serif" font-size="10.00">stddef.h</text>
</a>
</g>
</g>
<!-- Node1&#45;&gt;Node4 -->
<g id="edge3_Node000001_Node000004" class="edge">
<title>Node1&#45;&gt;Node4</title>
<g id="a_edge3_Node000001_Node000004"><a xlink:title=" ">
<path fill="none" stroke="#63b8ff" d="M946.58,-464.96C1031.67,-447.84 1185.62,-409.82 1185.62,-359 1185.62,-359 1185.62,-359 1185.62,-189 1185.62,-157.11 1177.78,-120.78 1172.17,-98.88"/>
<polygon fill="#63b8ff" stroke="#63b8ff" points="1175.31,-98.08 1169.35,-89.32 1168.55,-99.89 1175.31,-98.08"/>
</a>
</g>
</g>
<!-- Node5 -->
<g id="Node000005" class="node">
<title>Node5</title>
<g id="a_Node000005"><a xlink:href="a00095.html" target="_top" xlink:title="This is the generated driver header file for the CMP3 driver.">
<polygon fill="white" stroke="#666666" points="1283.62,-200 1213.62,-200 1213.62,-180 1283.62,-180 1283.62,-200"/>
<text text-anchor="middle" x="1248.62" y="-186.5" font-family="Helvetica,sans-Serif" font-size="10.00">cmp/cmp3.h</text>
</a>
</g>
</g>
<!-- Node1&#45;&gt;Node5 -->
<g id="edge4_Node000001_Node000005" class="edge">
<title>Node1&#45;&gt;Node5</title>
<g id="a_edge4_Node000001_Node000005"><a xlink:title=" ">
<path fill="none" stroke="#63b8ff" d="M946.36,-471.56C1023.59,-465.77 1159.61,-451.89 1199.62,-424 1226.9,-404.99 1236.62,-392.24 1236.62,-359 1236.62,-359 1236.62,-359 1236.62,-301 1236.62,-269.39 1241.58,-232.98 1245.12,-210.99"/>
<polygon fill="#63b8ff" stroke="#63b8ff" points="1248.7,-211.82 1246.91,-201.38 1241.8,-210.66 1248.7,-211.82"/>
</a>
</g>
</g>
<!-- Node7 -->
<g id="Node000007" class="node">
<title>Node7</title>
<g id="a_Node000007"><a xlink:href="a00119.html" target="_top" xlink:title="This is the generated driver header file for the PWM driver.">
<polygon fill="white" stroke="#666666" points="709.38,-144 625.88,-144 625.88,-124 709.38,-124 709.38,-144"/>
<text text-anchor="middle" x="667.62" y="-130.5" font-family="Helvetica,sans-Serif" font-size="10.00">pwm_hs/pwm.h</text>
</a>
</g>
</g>
<!-- Node1&#45;&gt;Node7 -->
<g id="edge10_Node000001_Node000007" class="edge">
<title>Node1&#45;&gt;Node7</title>
<g id="a_edge10_Node000001_Node000007"><a xlink:title=" ">
<path fill="none" stroke="#63b8ff" d="M836.92,-473.5C761.99,-468.21 636.62,-446.3 636.62,-359 636.62,-359 636.62,-359 636.62,-301 636.62,-247.19 652.56,-185.2 661.58,-154.43"/>
<polygon fill="#63b8ff" stroke="#63b8ff" points="665.12,-155.83 664.65,-145.25 658.41,-153.81 665.12,-155.83"/>
</a>
</g>
</g>
<!-- Node12 -->
<g id="Node000012" class="node">
<title>Node12</title>
<g id="a_Node000012"><a xlink:href="a00146_source.html" target="_top" xlink:title=" ">
<polygon fill="white" stroke="#666666" points="467.38,-312 389.88,-312 389.88,-292 467.38,-292 467.38,-312"/>
<text text-anchor="middle" x="428.62" y="-298.5" font-family="Helvetica,sans-Serif" font-size="10.00">system/pins.h</text>
</a>
</g>
</g>
<!-- Node1&#45;&gt;Node12 -->
<g id="edge20_Node000001_Node000012" class="edge">
<title>Node1&#45;&gt;Node12</title>
<g id="a_edge20_Node000001_Node000012"><a xlink:title=" ">
<path fill="none" stroke="#63b8ff" d="M836.66,-470.57C781.1,-464.72 693.57,-451.72 622.62,-424 553.68,-397.06 482.25,-345.17 448.53,-318.97"/>
<polygon fill="#63b8ff" stroke="#63b8ff" points="451.07,-315.73 441.05,-312.3 446.75,-321.23 451.07,-315.73"/>
</a>
</g>
</g>
<!-- Node13 -->
<g id="Node000013" class="node">
<title>Node13</title>
<g id="a_Node000013"><a xlink:href="a00263.html" target="_top" xlink:title="Contains h files that are part of device layer.">
<polygon fill="white" stroke="#666666" points="241.25,-424 160,-424 160,-404 241.25,-404 241.25,-424"/>
<text text-anchor="middle" x="200.62" y="-410.5" font-family="Helvetica,sans-Serif" font-size="10.00">device/device.h</text>
</a>
</g>
</g>
<!-- Node1&#45;&gt;Node13 -->
<g id="edge22_Node000001_Node000013" class="edge">
<title>Node1&#45;&gt;Node13</title>
<g id="a_edge22_Node000001_Node000013"><a xlink:title=" ">
<path fill="none" stroke="#63b8ff" d="M836.93,-470.38C732.49,-461.52 497.43,-441.51 299.62,-424 284.27,-422.64 267.58,-421.13 252.35,-419.75"/>
<polygon fill="#63b8ff" stroke="#63b8ff" points="252.84,-416.19 242.56,-418.77 252.2,-423.16 252.84,-416.19"/>
</a>
</g>
</g>
<!-- Node16 -->
<g id="Node000016" class="node">
<title>Node16</title>
<g id="a_Node000016"><a xlink:href="a00383_source.html" target="_top" xlink:title=" ">
<polygon fill="white" stroke="#666666" points="892.75,-312 808.5,-312 808.5,-292 892.75,-292 892.75,-312"/>
<text text-anchor="middle" x="850.62" y="-298.5" font-family="Helvetica,sans-Serif" font-size="10.00">pwrctrl/pwrctrl.h</text>
</a>
</g>
</g>
<!-- Node1&#45;&gt;Node16 -->
<g id="edge49_Node000001_Node000016" class="edge">
<title>Node1&#45;&gt;Node16</title>
<g id="a_edge49_Node000001_Node000016"><a xlink:title=" ">
<path fill="none" stroke="#63b8ff" d="M887.99,-459.74C880.55,-428.55 863.63,-357.56 855.36,-322.85"/>
<polygon fill="#63b8ff" stroke="#63b8ff" points="858.54,-322.13 852.82,-313.21 851.73,-323.75 858.54,-322.13"/>
</a>
</g>
</g>
<!-- Node19 -->
<g id="Node000019" class="node">
<title>Node19</title>
<g id="a_Node000019"><a xlink:href="a00308.html" target="_top" xlink:title="Contains fault generic public functions.">
<polygon fill="white" stroke="#666666" points="947.12,-88 862.12,-88 862.12,-68 947.12,-68 947.12,-88"/>
<text text-anchor="middle" x="904.62" y="-74.5" font-family="Helvetica,sans-Serif" font-size="10.00">fault_common.h</text>
</a>
</g>
</g>
<!-- Node1&#45;&gt;Node19 -->
<g id="edge50_Node000001_Node000019" class="edge">
<title>Node1&#45;&gt;Node19</title>
<g id="a_edge50_Node000001_Node000019"><a xlink:title=" ">
<path fill="none" stroke="#63b8ff" d="M836.95,-463.83C784.31,-449.51 712.62,-418.99 712.62,-359 712.62,-359 712.62,-359 712.62,-301 712.62,-219.94 700.8,-182.78 756.62,-124 769.84,-110.09 814.41,-97.69 851.22,-89.44"/>
<polygon fill="#63b8ff" stroke="#63b8ff" points="851.83,-92.67 860.86,-87.13 850.34,-85.83 851.83,-92.67"/>
</a>
</g>
</g>
<!-- Node27 -->
<g id="Node000027" class="node">
<title>Node27</title>
<g id="a_Node000027"><a xlink:href="a00302.html" target="_top" xlink:title="Contains public fault functions.">
<polygon fill="white" stroke="#666666" points="1118.75,-256 1076.5,-256 1076.5,-236 1118.75,-236 1118.75,-256"/>
<text text-anchor="middle" x="1097.62" y="-242.5" font-family="Helvetica,sans-Serif" font-size="10.00">fault.h</text>
</a>
</g>
</g>
<!-- Node1&#45;&gt;Node27 -->
<g id="edge51_Node000001_Node000027" class="edge">
<title>Node1&#45;&gt;Node27</title>
<g id="a_edge51_Node000001_Node000027"><a xlink:title=" ">
<path fill="none" stroke="#63b8ff" d="M907.52,-459.83C928.66,-439.47 966.92,-401.93 997.62,-368 1029.76,-332.51 1064.88,-288.74 1083.76,-264.78"/>
<polygon fill="#63b8ff" stroke="#63b8ff" points="1086.95,-267.37 1090.37,-257.34 1081.45,-263.05 1086.95,-267.37"/>
</a>
</g>
</g>
<!-- Node32 -->
<g id="Node000032" class="node">
<title>Node32</title>
<g id="a_Node000032"><a xlink:href="a00314.html" target="_top" xlink:title="Contains API functions for fault protection.">
<polygon fill="white" stroke="#666666" points="1547.88,-424 1431.38,-424 1431.38,-404 1547.88,-404 1547.88,-424"/>
<text text-anchor="middle" x="1489.62" y="-410.5" font-family="Helvetica,sans-Serif" font-size="10.00">fault_comm_interface.h</text>
</a>
</g>
</g>
<!-- Node1&#45;&gt;Node32 -->
<g id="edge71_Node000001_Node000032" class="edge">
<title>Node1&#45;&gt;Node32</title>
<g id="a_edge71_Node000001_Node000032"><a xlink:title=" ">
<path fill="none" stroke="#63b8ff" d="M946.58,-470.18C1042.33,-461.66 1245.96,-443.05 1417.62,-424 1418.58,-423.89 1419.55,-423.79 1420.52,-423.68"/>
<polygon fill="#63b8ff" stroke="#63b8ff" points="1420.56,-427.08 1430.09,-422.45 1419.76,-420.13 1420.56,-427.08"/>
</a>
</g>
</g>
<!-- Node33 -->
<g id="Node000033" class="node">
<title>Node33</title>
<g id="a_Node000033"><a xlink:href="a00410.html" target="_top" xlink:title="Contains public functions for PWM.">
<polygon fill="white" stroke="#666666" points="988.5,-368 878.75,-368 878.75,-348 988.5,-348 988.5,-368"/>
<text text-anchor="middle" x="933.62" y="-354.5" font-family="Helvetica,sans-Serif" font-size="10.00">pwrctrl/pwrctrl_pwm.h</text>
</a>
</g>
</g>
<!-- Node1&#45;&gt;Node33 -->
<g id="edge72_Node000001_Node000033" class="edge">
<title>Node1&#45;&gt;Node33</title>
<g id="a_edge72_Node000001_Node000033"><a xlink:title=" ">
<path fill="none" stroke="#63b8ff" d="M897.12,-459.84C904.65,-439.03 918.2,-401.61 926.5,-378.67"/>
<polygon fill="#63b8ff" stroke="#63b8ff" points="930.09,-380.03 930.21,-369.44 923.51,-377.65 930.09,-380.03"/>
</a>
</g>
</g>
<!-- Node5&#45;&gt;Node3 -->
<g id="edge6_Node000005_Node000003" class="edge">
<title>Node5&#45;&gt;Node3</title>
<g id="a_edge6_Node000005_Node000003"><a xlink:title=" ">
<path fill="none" stroke="#63b8ff" d="M1284.06,-180.94C1318.89,-171.19 1364.43,-152.48 1346.62,-124 1307.17,-60.9 1072.77,-30.47 978.68,-20.67"/>
<polygon fill="#63b8ff" stroke="#63b8ff" points="979.23,-17.11 968.92,-19.58 978.52,-24.07 979.23,-17.11"/>
</a>
</g>
</g>
<!-- Node5&#45;&gt;Node4 -->
<g id="edge5_Node000005_Node000004" class="edge">
<title>Node5&#45;&gt;Node4</title>
<g id="a_edge5_Node000005_Node000004"><a xlink:title=" ">
<path fill="none" stroke="#63b8ff" d="M1241.63,-179.62C1228.02,-161.36 1197.74,-120.73 1180.09,-97.07"/>
<polygon fill="#63b8ff" stroke="#63b8ff" points="1182.38,-95.28 1173.6,-89.35 1176.77,-99.46 1182.38,-95.28"/>
</a>
</g>
</g>
<!-- Node6 -->
<g id="Node000006" class="node">
<title>Node6</title>
<g id="a_Node000006"><a xlink:href="a00098_source.html" target="_top" xlink:title=" ">
<polygon fill="white" stroke="#666666" points="1337.12,-144 1252.12,-144 1252.12,-124 1337.12,-124 1337.12,-144"/>
<text text-anchor="middle" x="1294.62" y="-130.5" font-family="Helvetica,sans-Serif" font-size="10.00">cmp_interface.h</text>
</a>
</g>
</g>
<!-- Node5&#45;&gt;Node6 -->
<g id="edge7_Node000005_Node000006" class="edge">
<title>Node5&#45;&gt;Node6</title>
<g id="a_edge7_Node000005_Node000006"><a xlink:title=" ">
<path fill="none" stroke="#63b8ff" d="M1256.64,-179.59C1262.97,-172.16 1271.99,-161.58 1279.65,-152.58"/>
<polygon fill="#63b8ff" stroke="#63b8ff" points="1282.88,-155.18 1286.7,-145.3 1277.56,-150.64 1282.88,-155.18"/>
</a>
</g>
</g>
<!-- Node6&#45;&gt;Node3 -->
<g id="edge8_Node000006_Node000003" class="edge">
<title>Node6&#45;&gt;Node3</title>
<g id="a_edge8_Node000006_Node000003"><a xlink:title=" ">
<path fill="none" stroke="#63b8ff" d="M1284.22,-123.6C1267.74,-109.26 1234.08,-82.11 1200.62,-68 1125.91,-36.5 1030.88,-24.22 978.57,-19.61"/>
<polygon fill="#63b8ff" stroke="#63b8ff" points="979.02,-16.05 968.77,-18.72 978.44,-23.03 979.02,-16.05"/>
</a>
</g>
</g>
<!-- Node6&#45;&gt;Node4 -->
<g id="edge9_Node000006_Node000004" class="edge">
<title>Node6&#45;&gt;Node4</title>
<g id="a_edge9_Node000006_Node000004"><a xlink:title=" ">
<path fill="none" stroke="#63b8ff" d="M1272.33,-123.59C1252.08,-115.05 1221.97,-102.35 1199.05,-92.68"/>
<polygon fill="#63b8ff" stroke="#63b8ff" points="1200.67,-89.14 1190.09,-88.48 1197.95,-95.59 1200.67,-89.14"/>
</a>
</g>
</g>
<!-- Node7&#45;&gt;Node2 -->
<g id="edge11_Node000007_Node000002" class="edge">
<title>Node7&#45;&gt;Node2</title>
<g id="a_edge11_Node000007_Node000002"><a xlink:title=" ">
<path fill="none" stroke="#63b8ff" d="M625.66,-125.83C560.3,-114.66 435.9,-93.4 380.03,-83.85"/>
<polygon fill="#63b8ff" stroke="#63b8ff" points="380.64,-80.24 370.2,-82 379.46,-87.14 380.64,-80.24"/>
</a>
</g>
</g>
<!-- Node7&#45;&gt;Node3 -->
<g id="edge13_Node000007_Node000003" class="edge">
<title>Node7&#45;&gt;Node3</title>
<g id="a_edge13_Node000007_Node000003"><a xlink:title=" ">
<path fill="none" stroke="#63b8ff" d="M704.21,-123.51C733.31,-115.46 774.78,-102.87 809.62,-88 848.04,-71.6 890.05,-47.43 915.62,-31.95"/>
<polygon fill="#63b8ff" stroke="#63b8ff" points="917.18,-34.48 923.89,-26.28 913.53,-28.51 917.18,-34.48"/>
</a>
</g>
</g>
<!-- Node8 -->
<g id="Node000008" class="node">
<title>Node8</title>
<g id="a_Node000008"><a xlink:title=" ">
<polygon fill="#e0e0e0" stroke="#999999" points="481.75,-26 433.5,-26 433.5,-6 481.75,-6 481.75,-26"/>
<text text-anchor="middle" x="457.62" y="-12.5" font-family="Helvetica,sans-Serif" font-size="10.00">stdint.h</text>
</a>
</g>
</g>
<!-- Node7&#45;&gt;Node8 -->
<g id="edge12_Node000007_Node000008" class="edge">
<title>Node7&#45;&gt;Node8</title>
<g id="a_edge12_Node000007_Node000008"><a xlink:title=" ">
<path fill="none" stroke="#63b8ff" d="M625.52,-123.62C586.82,-114.46 532.8,-100.17 514.62,-88 494.4,-74.45 477.87,-51.5 467.92,-35.37"/>
<polygon fill="#63b8ff" stroke="#63b8ff" points="470.7,-34.19 462.6,-27.35 464.67,-37.74 470.7,-34.19"/>
</a>
</g>
</g>
<!-- Node9 -->
<g id="Node000009" class="node">
<title>Node9</title>
<g id="a_Node000009"><a xlink:title=" ">
<polygon fill="#e0e0e0" stroke="#999999" points="571.38,-88 523.88,-88 523.88,-68 571.38,-68 571.38,-88"/>
<text text-anchor="middle" x="547.62" y="-74.5" font-family="Helvetica,sans-Serif" font-size="10.00">stdlib.h</text>
</a>
</g>
</g>
<!-- Node7&#45;&gt;Node9 -->
<g id="edge14_Node000007_Node000009" class="edge">
<title>Node7&#45;&gt;Node9</title>
<g id="a_edge14_Node000007_Node000009"><a xlink:title=" ">
<path fill="none" stroke="#63b8ff" d="M646.72,-123.59C627.91,-115.13 600.01,-102.58 578.61,-92.94"/>
<polygon fill="#63b8ff" stroke="#63b8ff" points="580.25,-89.39 569.69,-88.48 577.37,-95.77 580.25,-89.39"/>
</a>
</g>
</g>
<!-- Node10 -->
<g id="Node000010" class="node">
<title>Node10</title>
<g id="a_Node000010"><a xlink:href="a00128.html" target="_top" xlink:title="This is the generated driver types header file for the PWM driver.">
<polygon fill="white" stroke="#666666" points="762.38,-26 672.88,-26 672.88,-6 762.38,-6 762.38,-26"/>
<text text-anchor="middle" x="717.62" y="-12.5" font-family="Helvetica,sans-Serif" font-size="10.00">pwm_hs_types.h</text>
</a>
</g>
</g>
<!-- Node7&#45;&gt;Node10 -->
<g id="edge15_Node000007_Node000010" class="edge">
<title>Node7&#45;&gt;Node10</title>
<g id="a_edge15_Node000007_Node000010"><a xlink:title=" ">
<path fill="none" stroke="#63b8ff" d="M694.57,-123.6C710.47,-116.49 729.27,-105.01 738.62,-88 747.79,-71.35 739.36,-50.24 730.6,-35.39"/>
<polygon fill="#63b8ff" stroke="#63b8ff" points="733.06,-33.74 724.7,-27.23 727.18,-37.53 733.06,-33.74"/>
</a>
</g>
</g>
<!-- Node11 -->
<g id="Node000011" class="node">
<title>Node11</title>
<g id="a_Node000011"><a xlink:href="a00125_source.html" target="_top" xlink:title=" ">
<polygon fill="white" stroke="#666666" points="729.75,-88 627.5,-88 627.5,-68 729.75,-68 729.75,-88"/>
<text text-anchor="middle" x="678.62" y="-74.5" font-family="Helvetica,sans-Serif" font-size="10.00">pwm_hs_interface.h</text>
</a>
</g>
</g>
<!-- Node7&#45;&gt;Node11 -->
<g id="edge16_Node000007_Node000011" class="edge">
<title>Node7&#45;&gt;Node11</title>
<g id="a_edge16_Node000007_Node000011"><a xlink:title=" ">
<path fill="none" stroke="#63b8ff" d="M669.54,-123.59C670.93,-116.78 672.86,-107.32 674.58,-98.86"/>
<polygon fill="#63b8ff" stroke="#63b8ff" points="678.16,-99.8 676.73,-89.3 671.31,-98.4 678.16,-99.8"/>
</a>
</g>
</g>
<!-- Node11&#45;&gt;Node3 -->
<g id="edge17_Node000011_Node000003" class="edge">
<title>Node11&#45;&gt;Node3</title>
<g id="a_edge17_Node000011_Node000003"><a xlink:title=" ">
<path fill="none" stroke="#63b8ff" d="M719.69,-67.56C769.24,-56.17 851.92,-37.16 900.55,-25.98"/>
<polygon fill="#63b8ff" stroke="#63b8ff" points="901.3,-29.17 910.26,-23.52 899.73,-22.35 901.3,-29.17"/>
</a>
</g>
</g>
<!-- Node11&#45;&gt;Node8 -->
<g id="edge18_Node000011_Node000008" class="edge">
<title>Node11&#45;&gt;Node8</title>
<g id="a_edge18_Node000011_Node000008"><a xlink:title=" ">
<path fill="none" stroke="#63b8ff" d="M644.09,-67.62C602.75,-56.4 533.9,-37.71 492.44,-26.45"/>
<polygon fill="#63b8ff" stroke="#63b8ff" points="493.58,-22.86 483.01,-23.62 491.75,-29.62 493.58,-22.86"/>
</a>
</g>
</g>
<!-- Node11&#45;&gt;Node10 -->
<g id="edge19_Node000011_Node000010" class="edge">
<title>Node11&#45;&gt;Node10</title>
<g id="a_edge19_Node000011_Node000010"><a xlink:title=" ">
<path fill="none" stroke="#63b8ff" d="M684.72,-67.62C690.36,-58.94 698.91,-45.8 705.87,-35.08"/>
<polygon fill="#63b8ff" stroke="#63b8ff" points="709.19,-37.4 711.7,-27.11 703.32,-33.59 709.19,-37.4"/>
</a>
</g>
</g>
<!-- Node12&#45;&gt;Node2 -->
<g id="edge21_Node000012_Node000002" class="edge">
<title>Node12&#45;&gt;Node2</title>
<g id="a_edge21_Node000012_Node000002"><a xlink:title=" ">
<path fill="none" stroke="#63b8ff" d="M424.86,-291.52C415.26,-267.21 389.31,-200.56 370.62,-144 365.65,-128.96 360.65,-111.74 357.03,-98.81"/>
<polygon fill="#63b8ff" stroke="#63b8ff" points="360.17,-98.03 354.13,-89.32 353.42,-99.89 360.17,-98.03"/>
</a>
</g>
</g>
<!-- Node14 -->
<g id="Node000014" class="node">
<title>Node14</title>
<g id="a_Node000014"><a xlink:href="a00275_source.html" target="_top" xlink:title=" ">
<polygon fill="white" stroke="#666666" points="247.88,-144 191.38,-144 191.38,-124 247.88,-124 247.88,-144"/>
<text text-anchor="middle" x="219.62" y="-130.5" font-family="Helvetica,sans-Serif" font-size="10.00">dev_led.h</text>
</a>
</g>
</g>
<!-- Node13&#45;&gt;Node14 -->
<g id="edge23_Node000013_Node000014" class="edge">
<title>Node13&#45;&gt;Node14</title>
<g id="a_edge23_Node000013_Node000014"><a xlink:title=" ">
<path fill="none" stroke="#63b8ff" d="M172.58,-403.63C156.31,-396.59 137.2,-385.16 127.62,-368 123.29,-360.24 125.83,-356.7 127.62,-348 143.36,-271.89 187.64,-189.5 208.5,-153.54"/>
<polygon fill="#63b8ff" stroke="#63b8ff" points="211.88,-155.7 213.94,-145.3 205.85,-152.14 211.88,-155.7"/>
</a>
</g>
</g>
<!-- Node15 -->
<g id="Node000015" class="node">
<title>Node15</title>
<g id="a_Node000015"><a xlink:href="a00269.html" target="_top" xlink:title="measure current sensor offsets">
<polygon fill="white" stroke="#666666" points="264.5,-368 136.75,-368 136.75,-348 264.5,-348 264.5,-368"/>
<text text-anchor="middle" x="200.62" y="-354.5" font-family="Helvetica,sans-Serif" font-size="10.00">dev_adc_sensor_offsets.h</text>
</a>
</g>
</g>
<!-- Node13&#45;&gt;Node15 -->
<g id="edge26_Node000013_Node000015" class="edge">
<title>Node13&#45;&gt;Node15</title>
<g id="a_edge26_Node000013_Node000015"><a xlink:title=" ">
<path fill="none" stroke="#63b8ff" d="M200.62,-403.59C200.62,-396.86 200.62,-387.53 200.62,-379.15"/>
<polygon fill="#63b8ff" stroke="#63b8ff" points="204.13,-379.3 200.62,-369.3 197.13,-379.3 204.13,-379.3"/>
</a>
</g>
</g>
<!-- Node14&#45;&gt;Node2 -->
<g id="edge24_Node000014_Node000002" class="edge">
<title>Node14&#45;&gt;Node2</title>
<g id="a_edge24_Node000014_Node000002"><a xlink:title=" ">
<path fill="none" stroke="#63b8ff" d="M242.62,-123.59C265.27,-114.33 299.88,-100.17 324.01,-90.3"/>
<polygon fill="#63b8ff" stroke="#63b8ff" points="325.03,-93.25 332.96,-86.23 322.38,-86.77 325.03,-93.25"/>
</a>
</g>
</g>
<!-- Node14&#45;&gt;Node8 -->
<g id="edge25_Node000014_Node000008" class="edge">
<title>Node14&#45;&gt;Node8</title>
<g id="a_edge25_Node000014_Node000008"><a xlink:title=" ">
<path fill="none" stroke="#63b8ff" d="M233.23,-123.55C252.97,-110.09 290.99,-85.13 325.62,-68 357.7,-52.13 396.01,-37.81 423.08,-28.41"/>
<polygon fill="#63b8ff" stroke="#63b8ff" points="423.89,-31.49 432.22,-24.94 421.62,-24.87 423.89,-31.49"/>
</a>
</g>
</g>
<!-- Node15&#45;&gt;Node2 -->
<g id="edge27_Node000015_Node000002" class="edge">
<title>Node15&#45;&gt;Node2</title>
<g id="a_edge27_Node000015_Node000002"><a xlink:title=" ">
<path fill="none" stroke="#63b8ff" d="M213.01,-347.59C234.31,-330.24 275.62,-290.92 275.62,-247 275.62,-247 275.62,-247 275.62,-189 275.62,-158.2 282.1,-149.32 299.62,-124 307.43,-112.73 318.7,-102.51 328.75,-94.67"/>
<polygon fill="#63b8ff" stroke="#63b8ff" points="330.56,-96.95 336.51,-88.18 326.39,-91.33 330.56,-96.95"/>
</a>
</g>
</g>
<!-- Node15&#45;&gt;Node8 -->
<g id="edge28_Node000015_Node000008" class="edge">
<title>Node15&#45;&gt;Node8</title>
<g id="a_edge28_Node000015_Node000008"><a xlink:title=" ">
<path fill="none" stroke="#63b8ff" d="M195.17,-347.65C184.87,-329.1 163.62,-286.09 163.62,-247 163.62,-247 163.62,-247 163.62,-189 163.62,-158.9 163.69,-147.39 182.62,-124 243.2,-49.19 362.99,-26.56 422.45,-19.81"/>
<polygon fill="#63b8ff" stroke="#63b8ff" points="422.58,-23.21 432.16,-18.69 421.85,-16.24 422.58,-23.21"/>
</a>
</g>
</g>
<!-- Node15&#45;&gt;Node16 -->
<g id="edge29_Node000015_Node000016" class="edge">
<title>Node15&#45;&gt;Node16</title>
<g id="a_edge29_Node000015_Node000016"><a xlink:title=" ">
<path fill="none" stroke="#63b8ff" d="M264.73,-351.67C392.87,-341.03 678.51,-317.3 797.26,-307.43"/>
<polygon fill="#63b8ff" stroke="#63b8ff" points="797.54,-310.84 807.22,-306.52 796.96,-303.86 797.54,-310.84"/>
</a>
</g>
</g>
<!-- Node23 -->
<g id="Node000023" class="node">
<title>Node23</title>
<g id="a_Node000023"><a xlink:href="a00062.html" target="_top" xlink:title="This is the generated driver header file for the ADC1 driver.">
<polygon fill="white" stroke="#666666" points="135.62,-144 71.62,-144 71.62,-124 135.62,-124 135.62,-144"/>
<text text-anchor="middle" x="103.62" y="-130.5" font-family="Helvetica,sans-Serif" font-size="10.00">adc/adc1.h</text>
</a>
</g>
</g>
<!-- Node15&#45;&gt;Node23 -->
<g id="edge39_Node000015_Node000023" class="edge">
<title>Node15&#45;&gt;Node23</title>
<g id="a_edge39_Node000015_Node000023"><a xlink:title=" ">
<path fill="none" stroke="#63b8ff" d="M185.94,-347.68C174.39,-339.6 158.77,-326.89 149.62,-312 118.39,-261.17 108.22,-189.59 105.03,-155.11"/>
<polygon fill="#63b8ff" stroke="#63b8ff" points="108.44,-154.88 104.14,-145.19 101.46,-155.44 108.44,-154.88"/>
</a>
</g>
</g>
<!-- Node17 -->
<g id="Node000017" class="node">
<title>Node17</title>
<g id="a_Node000017"><a xlink:href="a00416_source.html" target="_top" xlink:title=" ">
<polygon fill="white" stroke="#666666" points="932.38,-200 842.88,-200 842.88,-180 932.38,-180 932.38,-200"/>
<text text-anchor="middle" x="887.62" y="-186.5" font-family="Helvetica,sans-Serif" font-size="10.00">pwrctrl_typedef.h</text>
</a>
</g>
</g>
<!-- Node16&#45;&gt;Node17 -->
<g id="edge30_Node000016_Node000017" class="edge">
<title>Node16&#45;&gt;Node17</title>
<g id="a_edge30_Node000016_Node000017"><a xlink:title=" ">
<path fill="none" stroke="#63b8ff" d="M857.8,-291.55C864.06,-282.8 872.86,-269.2 877.62,-256 882.91,-241.37 885.4,-223.89 886.58,-210.75"/>
<polygon fill="#63b8ff" stroke="#63b8ff" points="890.12,-211.32 887.33,-201.1 883.13,-210.83 890.12,-211.32"/>
</a>
</g>
</g>
<!-- Node20 -->
<g id="Node000020" class="node">
<title>Node20</title>
<g id="a_Node000020"><a xlink:href="a00395.html" target="_top" xlink:title="Contains public functions relevant for power control communication interface.">
<polygon fill="white" stroke="#666666" points="868.12,-256 741.12,-256 741.12,-236 868.12,-236 868.12,-256"/>
<text text-anchor="middle" x="804.62" y="-242.5" font-family="Helvetica,sans-Serif" font-size="10.00">pwrctrl_comm_interface.h</text>
</a>
</g>
</g>
<!-- Node16&#45;&gt;Node20 -->
<g id="edge35_Node000016_Node000020" class="edge">
<title>Node16&#45;&gt;Node20</title>
<g id="a_edge35_Node000016_Node000020"><a xlink:title=" ">
<path fill="none" stroke="#63b8ff" d="M842.61,-291.59C836.28,-284.16 827.26,-273.58 819.6,-264.58"/>
<polygon fill="#63b8ff" stroke="#63b8ff" points="821.69,-262.64 812.55,-257.3 816.37,-267.18 821.69,-262.64"/>
</a>
</g>
</g>
<!-- Node21 -->
<g id="Node000021" class="node">
<title>Node21</title>
<g id="a_Node000021"><a xlink:href="a00389.html" target="_top" xlink:title="Contains the power control reusable functions.">
<polygon fill="white" stroke="#666666" points="1020.38,-256 924.88,-256 924.88,-236 1020.38,-236 1020.38,-256"/>
<text text-anchor="middle" x="972.62" y="-242.5" font-family="Helvetica,sans-Serif" font-size="10.00">pwrctrl_common.h</text>
</a>
</g>
</g>
<!-- Node16&#45;&gt;Node21 -->
<g id="edge36_Node000016_Node000021" class="edge">
<title>Node16&#45;&gt;Node21</title>
<g id="a_edge36_Node000016_Node000021"><a xlink:title=" ">
<path fill="none" stroke="#63b8ff" d="M871.88,-291.59C891.09,-283.09 919.62,-270.46 941.42,-260.81"/>
<polygon fill="#63b8ff" stroke="#63b8ff" points="942.48,-263.73 950.21,-256.48 939.65,-257.33 942.48,-263.73"/>
</a>
</g>
</g>
<!-- Node22 -->
<g id="Node000022" class="node">
<title>Node22</title>
<g id="a_Node000022"><a xlink:title=" ">
<polygon fill="#e0e0e0" stroke="#999999" points="425.62,-144 379.62,-144 379.62,-124 425.62,-124 425.62,-144"/>
<text text-anchor="middle" x="402.62" y="-130.5" font-family="Helvetica,sans-Serif" font-size="10.00">math.h</text>
</a>
</g>
</g>
<!-- Node16&#45;&gt;Node22 -->
<g id="edge38_Node000016_Node000022" class="edge">
<title>Node16&#45;&gt;Node22</title>
<g id="a_edge38_Node000016_Node000022"><a xlink:title=" ">
<path fill="none" stroke="#63b8ff" d="M825.25,-291.6C749.1,-263.38 522.46,-179.4 436.34,-147.49"/>
<polygon fill="#63b8ff" stroke="#63b8ff" points="437.68,-143.88 427.08,-143.69 435.24,-150.45 437.68,-143.88"/>
</a>
</g>
</g>
<!-- Node18 -->
<g id="Node000018" class="node">
<title>Node18</title>
<g id="a_Node000018"><a xlink:href="a00317.html" target="_top" xlink:title="Contains fault data types.">
<polygon fill="white" stroke="#666666" points="865.62,-144 765.62,-144 765.62,-124 865.62,-124 865.62,-144"/>
<text text-anchor="middle" x="815.62" y="-130.5" font-family="Helvetica,sans-Serif" font-size="10.00">fault/fault_typedef.h</text>
</a>
</g>
</g>
<!-- Node17&#45;&gt;Node18 -->
<g id="edge31_Node000017_Node000018" class="edge">
<title>Node17&#45;&gt;Node18</title>
<g id="a_edge31_Node000017_Node000018"><a xlink:title=" ">
<path fill="none" stroke="#63b8ff" d="M875.08,-179.59C864.45,-171.62 848.98,-160.02 836.48,-150.64"/>
<polygon fill="#63b8ff" stroke="#63b8ff" points="839.12,-147.5 829.02,-144.3 834.92,-153.1 839.12,-147.5"/>
</a>
</g>
</g>
<!-- Node18&#45;&gt;Node19 -->
<g id="edge32_Node000018_Node000019" class="edge">
<title>Node18&#45;&gt;Node19</title>
<g id="a_edge32_Node000018_Node000019"><a xlink:title=" ">
<path fill="none" stroke="#63b8ff" d="M831.13,-123.59C844.57,-115.44 864.27,-103.48 879.89,-94"/>
<polygon fill="#63b8ff" stroke="#63b8ff" points="881.27,-96.66 888,-88.48 877.64,-90.67 881.27,-96.66"/>
</a>
</g>
</g>
<!-- Node19&#45;&gt;Node3 -->
<g id="edge34_Node000019_Node000003" class="edge">
<title>Node19&#45;&gt;Node3</title>
<g id="a_edge34_Node000019_Node000003"><a xlink:title=" ">
<path fill="none" stroke="#63b8ff" d="M910.09,-67.62C915.11,-59.03 922.67,-46.07 928.89,-35.41"/>
<polygon fill="#63b8ff" stroke="#63b8ff" points="932.29,-37.51 934.31,-27.11 926.25,-33.99 932.29,-37.51"/>
</a>
</g>
</g>
<!-- Node19&#45;&gt;Node8 -->
<g id="edge33_Node000019_Node000008" class="edge">
<title>Node19&#45;&gt;Node8</title>
<g id="a_edge33_Node000019_Node000008"><a xlink:title=" ">
<path fill="none" stroke="#63b8ff" d="M861.76,-71.25C773.69,-59.43 573.85,-32.6 492.78,-21.72"/>
<polygon fill="#63b8ff" stroke="#63b8ff" points="493.53,-18.15 483.15,-20.29 492.59,-25.09 493.53,-18.15"/>
</a>
</g>
</g>
<!-- Node21&#45;&gt;Node17 -->
<g id="edge37_Node000021_Node000017" class="edge">
<title>Node21&#45;&gt;Node17</title>
<g id="a_edge37_Node000021_Node000017"><a xlink:title=" ">
<path fill="none" stroke="#63b8ff" d="M957.82,-235.59C945.1,-227.51 926.52,-215.71 911.67,-206.27"/>
<polygon fill="#63b8ff" stroke="#63b8ff" points="913.86,-202.89 903.55,-200.48 910.11,-208.8 913.86,-202.89"/>
</a>
</g>
</g>
<!-- Node23&#45;&gt;Node2 -->
<g id="edge40_Node000023_Node000002" class="edge">
<title>Node23&#45;&gt;Node2</title>
<g id="a_edge40_Node000023_Node000002"><a xlink:title=" ">
<path fill="none" stroke="#63b8ff" d="M136.05,-125.94C185.05,-115.27 277.16,-95.21 323.5,-85.12"/>
<polygon fill="#63b8ff" stroke="#63b8ff" points="323.95,-88.39 332.98,-82.84 322.46,-81.55 323.95,-88.39"/>
</a>
</g>
</g>
<!-- Node23&#45;&gt;Node3 -->
<g id="edge41_Node000023_Node000003" class="edge">
<title>Node23&#45;&gt;Node3</title>
<g id="a_edge41_Node000023_Node000003"><a xlink:title=" ">
<path fill="none" stroke="#63b8ff" d="M135.88,-128.97C150.18,-127.27 167.23,-125.37 182.62,-124 429.27,-101.98 496.04,-137.71 738.62,-88 771.22,-81.32 857.19,-49 905.47,-30.35"/>
<polygon fill="#63b8ff" stroke="#63b8ff" points="906.39,-33.36 914.45,-26.48 903.86,-26.83 906.39,-33.36"/>
</a>
</g>
</g>
<!-- Node23&#45;&gt;Node8 -->
<g id="edge42_Node000023_Node000008" class="edge">
<title>Node23&#45;&gt;Node8</title>
<g id="a_edge42_Node000023_Node000008"><a xlink:title=" ">
<path fill="none" stroke="#63b8ff" d="M113.9,-123.59C130.18,-109.25 163.44,-82.09 196.62,-68 273.08,-35.54 370.96,-23.52 422.41,-19.24"/>
<polygon fill="#63b8ff" stroke="#63b8ff" points="422.56,-22.66 432.26,-18.39 422.01,-15.68 422.56,-22.66"/>
</a>
</g>
</g>
<!-- Node24 -->
<g id="Node000024" class="node">
<title>Node24</title>
<g id="a_Node000024"><a xlink:href="a00071.html" target="_top" xlink:title="This is the generated driver types header file for the ADC driver.">
<polygon fill="white" stroke="#666666" points="69.25,-26 0,-26 0,-6 69.25,-6 69.25,-26"/>
<text text-anchor="middle" x="34.62" y="-12.5" font-family="Helvetica,sans-Serif" font-size="10.00">adc_types.h</text>
</a>
</g>
</g>
<!-- Node23&#45;&gt;Node24 -->
<g id="edge43_Node000023_Node000024" class="edge">
<title>Node23&#45;&gt;Node24</title>
<g id="a_edge43_Node000023_Node000024"><a xlink:title=" ">
<path fill="none" stroke="#63b8ff" d="M89.26,-123.6C77.96,-115.48 62.66,-102.74 53.62,-88 44.05,-72.38 39.24,-51.94 36.86,-37"/>
<polygon fill="#63b8ff" stroke="#63b8ff" points="40.24,-36.85 35.43,-27.4 33.3,-37.78 40.24,-36.85"/>
</a>
</g>
</g>
<!-- Node25 -->
<g id="Node000025" class="node">
<title>Node25</title>
<g id="a_Node000025"><a xlink:href="a00068_source.html" target="_top" xlink:title=" ">
<polygon fill="white" stroke="#666666" points="144.62,-88 62.62,-88 62.62,-68 144.62,-68 144.62,-88"/>
<text text-anchor="middle" x="103.62" y="-74.5" font-family="Helvetica,sans-Serif" font-size="10.00">adc_interface.h</text>
</a>
</g>
</g>
<!-- Node23&#45;&gt;Node25 -->
<g id="edge44_Node000023_Node000025" class="edge">
<title>Node23&#45;&gt;Node25</title>
<g id="a_edge44_Node000023_Node000025"><a xlink:title=" ">
<path fill="none" stroke="#63b8ff" d="M103.62,-123.59C103.62,-116.86 103.62,-107.53 103.62,-99.15"/>
<polygon fill="#63b8ff" stroke="#63b8ff" points="107.13,-99.3 103.62,-89.3 100.13,-99.3 107.13,-99.3"/>
</a>
</g>
</g>
<!-- Node25&#45;&gt;Node3 -->
<g id="edge46_Node000025_Node000003" class="edge">
<title>Node25&#45;&gt;Node3</title>
<g id="a_edge46_Node000025_Node000003"><a xlink:title=" ">
<path fill="none" stroke="#63b8ff" d="M145.08,-74.52C250.01,-68.18 534.65,-50.56 771.62,-32 815.82,-28.54 866.49,-23.93 900.53,-20.73"/>
<polygon fill="#63b8ff" stroke="#63b8ff" points="900.77,-24.13 910.4,-19.71 900.12,-17.16 900.77,-24.13"/>
</a>
</g>
</g>
<!-- Node25&#45;&gt;Node8 -->
<g id="edge45_Node000025_Node000008" class="edge">
<title>Node25&#45;&gt;Node8</title>
<g id="a_edge45_Node000025_Node000008"><a xlink:title=" ">
<path fill="none" stroke="#63b8ff" d="M144.93,-70C215.27,-58.08 357.08,-34.04 422.76,-22.91"/>
<polygon fill="#63b8ff" stroke="#63b8ff" points="423.1,-26.23 432.37,-21.11 421.93,-19.33 423.1,-26.23"/>
</a>
</g>
</g>
<!-- Node25&#45;&gt;Node24 -->
<g id="edge47_Node000025_Node000024" class="edge">
<title>Node25&#45;&gt;Node24</title>
<g id="a_edge47_Node000025_Node000024"><a xlink:title=" ">
<path fill="none" stroke="#63b8ff" d="M92.84,-67.62C82.25,-58.41 65.87,-44.17 53.18,-33.14"/>
<polygon fill="#63b8ff" stroke="#63b8ff" points="55.95,-30.03 46.1,-26.11 51.35,-35.32 55.95,-30.03"/>
</a>
</g>
</g>
<!-- Node26 -->
<g id="Node000026" class="node">
<title>Node26</title>
<g id="a_Node000026"><a xlink:href="a00143_source.html" target="_top" xlink:title=" ">
<polygon fill="white" stroke="#666666" points="182.38,-32 86.88,-32 86.88,0 182.38,0 182.38,-32"/>
<text text-anchor="start" x="94.88" y="-18.5" font-family="Helvetica,sans-Serif" font-size="10.00">../system/interrupt</text>
<text text-anchor="middle" x="134.62" y="-6.5" font-family="Helvetica,sans-Serif" font-size="10.00">_types.h</text>
</a>
</g>
</g>
<!-- Node25&#45;&gt;Node26 -->
<g id="edge48_Node000025_Node000026" class="edge">
<title>Node25&#45;&gt;Node26</title>
<g id="a_edge48_Node000025_Node000026"><a xlink:title=" ">
<path fill="none" stroke="#63b8ff" d="M108.47,-67.62C112.07,-60.65 117.16,-50.8 121.89,-41.64"/>
<polygon fill="#63b8ff" stroke="#63b8ff" points="125.32,-43.63 126.8,-33.14 119.1,-40.42 125.32,-43.63"/>
</a>
</g>
</g>
<!-- Node27&#45;&gt;Node4 -->
<g id="edge52_Node000027_Node000004" class="edge">
<title>Node27&#45;&gt;Node4</title>
<g id="a_edge52_Node000027_Node000004"><a xlink:title=" ">
<path fill="none" stroke="#63b8ff" d="M1101.53,-235.6C1112.49,-209.23 1143.69,-134.19 1158.55,-98.42"/>
<polygon fill="#63b8ff" stroke="#63b8ff" points="1162.15,-99.87 1162.76,-89.3 1155.69,-97.19 1162.15,-99.87"/>
</a>
</g>
</g>
<!-- Node27&#45;&gt;Node5 -->
<g id="edge53_Node000027_Node000005" class="edge">
<title>Node27&#45;&gt;Node5</title>
<g id="a_edge53_Node000027_Node000005"><a xlink:title=" ">
<path fill="none" stroke="#63b8ff" d="M1118.94,-237.38C1143.05,-228.76 1182.74,-214.56 1211.87,-204.14"/>
<polygon fill="#63b8ff" stroke="#63b8ff" points="1212.84,-207.16 1221.08,-200.49 1210.49,-200.56 1212.84,-207.16"/>
</a>
</g>
</g>
<!-- Node27&#45;&gt;Node17 -->
<g id="edge55_Node000027_Node000017" class="edge">
<title>Node27&#45;&gt;Node17</title>
<g id="a_edge55_Node000027_Node000017"><a xlink:title=" ">
<path fill="none" stroke="#63b8ff" d="M1076.33,-239.53C1043.39,-231.05 979.24,-214.56 934.95,-203.17"/>
<polygon fill="#63b8ff" stroke="#63b8ff" points="935.98,-199.56 925.43,-200.46 934.24,-206.34 935.98,-199.56"/>
</a>
</g>
</g>
<!-- Node27&#45;&gt;Node27 -->
<g id="edge54_Node000027_Node000027" class="edge">
<title>Node27&#45;&gt;Node27</title>
<g id="a_edge54_Node000027_Node000027"><a xlink:title=" ">
<path fill="none" stroke="#63b8ff" d="M1118.95,-256.34C1128.5,-257.32 1136.75,-253.88 1136.75,-246 1136.75,-241.45 1133.99,-238.38 1129.82,-236.78"/>
<polygon fill="#63b8ff" stroke="#63b8ff" points="1130.26,-233.21 1119.95,-235.66 1129.54,-240.17 1130.26,-233.21"/>
</a>
</g>
</g>
<!-- Node28 -->
<g id="Node000028" class="node">
<title>Node28</title>
<g id="a_Node000028"><a xlink:href="a00248_source.html" target="_top" xlink:title=" ">
<polygon fill="white" stroke="#666666" points="1081.75,-144 1003.5,-144 1003.5,-124 1081.75,-124 1081.75,-144"/>
<text text-anchor="middle" x="1042.62" y="-130.5" font-family="Helvetica,sans-Serif" font-size="10.00">config/config.h</text>
</a>
</g>
</g>
<!-- Node27&#45;&gt;Node28 -->
<g id="edge56_Node000027_Node000028" class="edge">
<title>Node27&#45;&gt;Node28</title>
<g id="a_edge56_Node000027_Node000028"><a xlink:title=" ">
<path fill="none" stroke="#63b8ff" d="M1092.94,-235.62C1083.92,-217.6 1064.03,-177.81 1052.14,-154.02"/>
<polygon fill="#63b8ff" stroke="#63b8ff" points="1054.91,-152.73 1047.3,-145.35 1048.64,-155.86 1054.91,-152.73"/>
</a>
</g>
</g>
<!-- Node29 -->
<g id="Node000029" class="node">
<title>Node29</title>
<g id="a_Node000029"><a xlink:href="a00254_source.html" target="_top" xlink:title=" ">
<polygon fill="white" stroke="#666666" points="1035.12,-200 950.12,-200 950.12,-180 1035.12,-180 1035.12,-200"/>
<text text-anchor="middle" x="992.62" y="-186.5" font-family="Helvetica,sans-Serif" font-size="10.00">config/macros.h</text>
</a>
</g>
</g>
<!-- Node27&#45;&gt;Node29 -->
<g id="edge61_Node000027_Node000029" class="edge">
<title>Node27&#45;&gt;Node29</title>
<g id="a_edge61_Node000027_Node000029"><a xlink:title=" ">
<path fill="none" stroke="#63b8ff" d="M1079.34,-235.59C1063.17,-227.28 1039.35,-215.03 1020.76,-205.47"/>
<polygon fill="#63b8ff" stroke="#63b8ff" points="1022.55,-201.94 1012.06,-200.48 1019.35,-208.17 1022.55,-201.94"/>
</a>
</g>
</g>
<!-- Node28&#45;&gt;Node2 -->
<g id="edge57_Node000028_Node000002" class="edge">
<title>Node28&#45;&gt;Node2</title>
<g id="a_edge57_Node000028_Node000002"><a xlink:title=" ">
<path fill="none" stroke="#63b8ff" d="M1003.26,-128.63C988.63,-127.07 971.88,-125.36 956.62,-124 734.97,-104.16 467.08,-86.42 380.26,-80.82"/>
<polygon fill="#63b8ff" stroke="#63b8ff" points="380.66,-77.28 370.46,-80.13 380.21,-84.26 380.66,-77.28"/>
</a>
</g>
</g>
<!-- Node28&#45;&gt;Node3 -->
<g id="edge59_Node000028_Node000003" class="edge">
<title>Node28&#45;&gt;Node3</title>
<g id="a_edge59_Node000028_Node000003"><a xlink:title=" ">
<path fill="none" stroke="#63b8ff" d="M1035.34,-123.52C1025.35,-110.66 1006.71,-87.1 989.62,-68 979.03,-56.16 966.52,-43.4 956.66,-33.6"/>
<polygon fill="#63b8ff" stroke="#63b8ff" points="959.68,-31.68 950.1,-27.15 954.77,-36.67 959.68,-31.68"/>
</a>
</g>
</g>
<!-- Node28&#45;&gt;Node4 -->
<g id="edge60_Node000028_Node000004" class="edge">
<title>Node28&#45;&gt;Node4</title>
<g id="a_edge60_Node000028_Node000004"><a xlink:title=" ">
<path fill="none" stroke="#63b8ff" d="M1064.22,-123.59C1083.75,-115.09 1112.75,-102.46 1134.91,-92.81"/>
<polygon fill="#63b8ff" stroke="#63b8ff" points="1136.09,-95.68 1143.86,-88.48 1133.29,-89.26 1136.09,-95.68"/>
</a>
</g>
</g>
<!-- Node28&#45;&gt;Node8 -->
<g id="edge58_Node000028_Node000008" class="edge">
<title>Node28&#45;&gt;Node8</title>
<g id="a_edge58_Node000028_Node000008"><a xlink:title=" ">
<path fill="none" stroke="#63b8ff" d="M1003.36,-128.88C898.73,-117.9 620.92,-88.7 618.62,-88 600.36,-82.45 597.9,-76.11 580.62,-68 551.14,-54.17 516.86,-40.11 491.99,-30.27"/>
<polygon fill="#63b8ff" stroke="#63b8ff" points="493.54,-26.73 482.95,-26.33 490.98,-33.24 493.54,-26.73"/>
</a>
</g>
</g>
<!-- Node29&#45;&gt;Node2 -->
<g id="edge62_Node000029_Node000002" class="edge">
<title>Node29&#45;&gt;Node2</title>
<g id="a_edge62_Node000029_Node000002"><a xlink:title=" ">
<path fill="none" stroke="#63b8ff" d="M949.82,-181.13C947.05,-180.72 944.3,-180.34 941.62,-180 734.22,-153.8 673.26,-202.73 472.62,-144 470.1,-143.26 413.5,-112.62 378.61,-93.68"/>
<polygon fill="#63b8ff" stroke="#63b8ff" points="380.45,-90.15 369.99,-88.45 377.11,-96.3 380.45,-90.15"/>
</a>
</g>
</g>
<!-- Node29&#45;&gt;Node3 -->
<g id="edge64_Node000029_Node000003" class="edge">
<title>Node29&#45;&gt;Node3</title>
<g id="a_edge64_Node000029_Node000003"><a xlink:title=" ">
<path fill="none" stroke="#63b8ff" d="M989.93,-179.55C984.07,-159.14 969.68,-109.39 956.62,-68 953.35,-57.62 949.53,-46.12 946.35,-36.67"/>
<polygon fill="#63b8ff" stroke="#63b8ff" points="949.38,-35.71 942.85,-27.37 942.75,-37.96 949.38,-35.71"/>
</a>
</g>
</g>
<!-- Node29&#45;&gt;Node4 -->
<g id="edge65_Node000029_Node000004" class="edge">
<title>Node29&#45;&gt;Node4</title>
<g id="a_edge65_Node000029_Node000004"><a xlink:title=" ">
<path fill="none" stroke="#63b8ff" d="M1018.19,-179.54C1038.57,-171.46 1067.44,-158.83 1090.62,-144 1112.63,-129.92 1135.03,-109.94 1149.75,-95.85"/>
<polygon fill="#63b8ff" stroke="#63b8ff" points="1151.75,-98.82 1156.47,-89.33 1146.86,-93.8 1151.75,-98.82"/>
</a>
</g>
</g>
<!-- Node29&#45;&gt;Node8 -->
<g id="edge63_Node000029_Node000008" class="edge">
<title>Node29&#45;&gt;Node8</title>
<g id="a_edge63_Node000029_Node000008"><a xlink:title=" ">
<path fill="none" stroke="#63b8ff" d="M949.8,-181.24C947.04,-180.8 944.29,-180.38 941.62,-180 797.77,-159.36 755.57,-186.59 616.62,-144 598.38,-138.41 595.95,-132 578.62,-124 539.51,-105.94 519.56,-117.98 488.62,-88 474.31,-74.12 466.18,-52.52 461.87,-36.78"/>
<polygon fill="#63b8ff" stroke="#63b8ff" points="465.04,-36.01 459.28,-27.12 458.24,-37.66 465.04,-36.01"/>
</a>
</g>
</g>
<!-- Node29&#45;&gt;Node22 -->
<g id="edge66_Node000029_Node000022" class="edge">
<title>Node29&#45;&gt;Node22</title>
<g id="a_edge66_Node000029_Node000022"><a xlink:title=" ">
<path fill="none" stroke="#63b8ff" d="M949.82,-181.12C947.05,-180.71 944.3,-180.33 941.62,-180 719.63,-152.53 660.62,-178.55 439.62,-144 438.65,-143.85 437.67,-143.68 436.68,-143.51"/>
<polygon fill="#63b8ff" stroke="#63b8ff" points="437.49,-139.9 426.99,-141.31 436.08,-146.75 437.49,-139.9"/>
</a>
</g>
</g>
<!-- Node29&#45;&gt;Node28 -->
<g id="edge69_Node000029_Node000028" class="edge">
<title>Node29&#45;&gt;Node28</title>
<g id="a_edge69_Node000029_Node000028"><a xlink:title=" ">
<path fill="none" stroke="#63b8ff" d="M1001.33,-179.59C1008.29,-172.08 1018.22,-161.35 1026.6,-152.3"/>
<polygon fill="#63b8ff" stroke="#63b8ff" points="1028.79,-155.01 1033.02,-145.3 1023.65,-150.26 1028.79,-155.01"/>
</a>
</g>
</g>
<!-- Node30 -->
<g id="Node000030" class="node">
<title>Node30</title>
<g id="a_Node000030"><a xlink:href="a00257_source.html" target="_top" xlink:title=" ">
<polygon fill="white" stroke="#666666" points="569.25,-144 482,-144 482,-124 569.25,-124 569.25,-144"/>
<text text-anchor="middle" x="525.62" y="-130.5" font-family="Helvetica,sans-Serif" font-size="10.00">useful_macros.h</text>
</a>
</g>
</g>
<!-- Node29&#45;&gt;Node30 -->
<g id="edge67_Node000029_Node000030" class="edge">
<title>Node29&#45;&gt;Node30</title>
<g id="a_edge67_Node000029_Node000030"><a xlink:title=" ">
<path fill="none" stroke="#63b8ff" d="M949.81,-181.21C947.04,-180.78 944.3,-180.37 941.62,-180 783.22,-158.09 742.25,-164.27 583.62,-144 582.49,-143.85 581.34,-143.7 580.18,-143.55"/>
<polygon fill="#63b8ff" stroke="#63b8ff" points="581,-139.99 570.61,-142.08 580.03,-146.92 581,-139.99"/>
</a>
</g>
</g>
<!-- Node31 -->
<g id="Node000031" class="node">
<title>Node31</title>
<g id="a_Node000031"><a xlink:href="a00251_source.html" target="_top" xlink:title=" ">
<polygon fill="white" stroke="#666666" points="947.25,-144 884,-144 884,-124 947.25,-124 947.25,-144"/>
<text text-anchor="middle" x="915.62" y="-130.5" font-family="Helvetica,sans-Serif" font-size="10.00">hardware.h</text>
</a>
</g>
</g>
<!-- Node29&#45;&gt;Node31 -->
<g id="edge70_Node000029_Node000031" class="edge">
<title>Node29&#45;&gt;Node31</title>
<g id="a_edge70_Node000029_Node000031"><a xlink:title=" ">
<path fill="none" stroke="#63b8ff" d="M979.21,-179.59C967.8,-171.59 951.18,-159.93 937.79,-150.54"/>
<polygon fill="#63b8ff" stroke="#63b8ff" points="940.34,-147.36 930.14,-144.48 936.32,-153.09 940.34,-147.36"/>
</a>
</g>
</g>
<!-- Node30&#45;&gt;Node2 -->
<g id="edge68_Node000030_Node000002" class="edge">
<title>Node30&#45;&gt;Node2</title>
<g id="a_edge68_Node000030_Node000002"><a xlink:title=" ">
<path fill="none" stroke="#63b8ff" d="M495.32,-123.59C462.74,-113.48 411.39,-97.55 379.7,-87.71"/>
<polygon fill="#63b8ff" stroke="#63b8ff" points="380.97,-84.13 370.38,-84.51 378.89,-90.82 380.97,-84.13"/>
</a>
</g>
</g>
<!-- Node33&#45;&gt;Node16 -->
<g id="edge74_Node000033_Node000016" class="edge">
<title>Node33&#45;&gt;Node16</title>
<g id="a_edge74_Node000033_Node000016"><a xlink:title=" ">
<path fill="none" stroke="#63b8ff" d="M919.17,-347.59C906.75,-339.51 888.6,-327.71 874.1,-318.27"/>
<polygon fill="#63b8ff" stroke="#63b8ff" points="876.49,-315 866.2,-312.48 872.67,-320.87 876.49,-315"/>
</a>
</g>
</g>
<!-- Node33&#45;&gt;Node17 -->
<g id="edge73_Node000033_Node000017" class="edge">
<title>Node33&#45;&gt;Node17</title>
<g id="a_edge73_Node000033_Node000017"><a xlink:title=" ">
<path fill="none" stroke="#63b8ff" d="M951.27,-347.63C986.79,-327.55 1060.91,-278.73 1029.62,-236 1019.07,-221.58 978.52,-209.62 943.45,-201.66"/>
<polygon fill="#63b8ff" stroke="#63b8ff" points="944.29,-198.04 933.78,-199.32 942.8,-204.88 944.29,-198.04"/>
</a>
</g>
</g>
</g>
</svg>
