<?xml version="1.0" encoding="UTF-8" standalone="no"?>
<!DOCTYPE svg PUBLIC "-//W3C//DTD SVG 1.1//EN"
 "http://www.w3.org/Graphics/SVG/1.1/DTD/svg11.dtd">
<!-- Generated by graphviz version 2.44.1 (20200629.0846)
 -->
<!-- Title: psfb_droop.X/sources/pwrctrl/dcdt/pwrctrl_dcdt.c Pages: 1 -->
<svg width="627pt" height="225pt"
 viewBox="0.00 0.00 626.50 225.00" xmlns="http://www.w3.org/2000/svg" xmlns:xlink="http://www.w3.org/1999/xlink">
<g id="graph0" class="graph" transform="scale(1 1) rotate(0) translate(4 221)">
<title>psfb_droop.X/sources/pwrctrl/dcdt/pwrctrl_dcdt.c</title>
<!-- Node1 -->
<g id="Node000001" class="node">
<title>Node1</title>
<g id="a_Node000001"><a xlink:title="Contains individual DCDT control loop initialization functions.">
<polygon fill="#999999" stroke="#666666" points="120.5,-217 10.5,-217 10.5,-176 120.5,-176 120.5,-217"/>
<text text-anchor="start" x="18.5" y="-205" font-family="Helvetica,sans-Serif" font-size="10.00">psfb_droop.X/sources</text>
<text text-anchor="start" x="18.5" y="-194" font-family="Helvetica,sans-Serif" font-size="10.00">/pwrctrl/dcdt/pwrctrl</text>
<text text-anchor="middle" x="65.5" y="-183" font-family="Helvetica,sans-Serif" font-size="10.00">_dcdt.c</text>
</a>
</g>
</g>
<!-- Node2 -->
<g id="Node000002" class="node">
<title>Node2</title>
<g id="a_Node000002"><a xlink:title=" ">
<polygon fill="#e0e0e0" stroke="#999999" points="35,-19 0,-19 0,0 35,0 35,-19"/>
<text text-anchor="middle" x="17.5" y="-7" font-family="Helvetica,sans-Serif" font-size="10.00">xc.h</text>
</a>
</g>
</g>
<!-- Node1&#45;&gt;Node2 -->
<g id="edge1_Node000001_Node000002" class="edge">
<title>Node1&#45;&gt;Node2</title>
<g id="a_edge1_Node000001_Node000002"><a xlink:title=" ">
<path fill="none" stroke="#63b8ff" d="M54.06,-175.96C42.22,-154.49 24.48,-118.58 17.5,-85 13.64,-66.43 14.2,-44.69 15.39,-29.51"/>
<polygon fill="#63b8ff" stroke="#63b8ff" points="18.89,-29.62 16.35,-19.33 11.92,-28.96 18.89,-29.62"/>
</a>
</g>
</g>
<!-- Node3 -->
<g id="Node000003" class="node">
<title>Node3</title>
<g id="a_Node000003"><a xlink:href="a00365.html" target="_top" xlink:title="Contains public functions and data types relevant for DCDT file interface.">
<polygon fill="white" stroke="#666666" points="225,-140 148,-140 148,-121 225,-121 225,-140"/>
<text text-anchor="middle" x="186.5" y="-128" font-family="Helvetica,sans-Serif" font-size="10.00">pwrctrl_dcdt.h</text>
</a>
</g>
</g>
<!-- Node1&#45;&gt;Node3 -->
<g id="edge2_Node000001_Node000003" class="edge">
<title>Node1&#45;&gt;Node3</title>
<g id="a_edge2_Node000001_Node000003"><a xlink:title=" ">
<path fill="none" stroke="#63b8ff" d="M102.46,-175.95C121.4,-165.93 143.99,-153.99 160.97,-145"/>
<polygon fill="#63b8ff" stroke="#63b8ff" points="163.05,-147.86 170.26,-140.09 159.78,-141.67 163.05,-147.86"/>
</a>
</g>
</g>
<!-- Node3&#45;&gt;Node2 -->
<g id="edge4_Node000003_Node000002" class="edge">
<title>Node3&#45;&gt;Node2</title>
<g id="a_edge4_Node000003_Node000002"><a xlink:title=" ">
<path fill="none" stroke="#63b8ff" d="M147.85,-128.29C113.89,-125.13 65.5,-115.15 36.5,-85 22.21,-70.15 18.25,-46.12 17.35,-29.38"/>
<polygon fill="#63b8ff" stroke="#63b8ff" points="20.85,-29.08 17.13,-19.16 13.85,-29.23 20.85,-29.08"/>
</a>
</g>
</g>
<!-- Node4 -->
<g id="Node000004" class="node">
<title>Node4</title>
<g id="a_Node000004"><a xlink:title=" ">
<polygon fill="#e0e0e0" stroke="#999999" points="91.5,-79.5 45.5,-79.5 45.5,-60.5 91.5,-60.5 91.5,-79.5"/>
<text text-anchor="middle" x="68.5" y="-67.5" font-family="Helvetica,sans-Serif" font-size="10.00">stdio.h</text>
</a>
</g>
</g>
<!-- Node3&#45;&gt;Node4 -->
<g id="edge3_Node000003_Node000004" class="edge">
<title>Node3&#45;&gt;Node4</title>
<g id="a_edge3_Node000003_Node000004"><a xlink:title=" ">
<path fill="none" stroke="#63b8ff" d="M169.34,-120.99C149.77,-111.29 117.53,-95.31 94.78,-84.03"/>
<polygon fill="#63b8ff" stroke="#63b8ff" points="96.19,-80.82 85.68,-79.52 93.08,-87.09 96.19,-80.82"/>
</a>
</g>
</g>
<!-- Node5 -->
<g id="Node000005" class="node">
<title>Node5</title>
<g id="a_Node000005"><a xlink:title=" ">
<polygon fill="#e0e0e0" stroke="#999999" points="211,-19 162,-19 162,0 211,0 211,-19"/>
<text text-anchor="middle" x="186.5" y="-7" font-family="Helvetica,sans-Serif" font-size="10.00">stdint.h</text>
</a>
</g>
</g>
<!-- Node3&#45;&gt;Node5 -->
<g id="edge5_Node000003_Node000005" class="edge">
<title>Node3&#45;&gt;Node5</title>
<g id="a_edge5_Node000003_Node000005"><a xlink:title=" ">
<path fill="none" stroke="#63b8ff" d="M190.61,-120.88C194.56,-112.09 200.24,-97.94 202.5,-85 204.79,-71.86 204.79,-68.14 202.5,-55 200.93,-46 197.7,-36.42 194.56,-28.46"/>
<polygon fill="#63b8ff" stroke="#63b8ff" points="197.73,-26.97 190.61,-19.12 191.28,-29.69 197.73,-26.97"/>
</a>
</g>
</g>
<!-- Node6 -->
<g id="Node000006" class="node">
<title>Node6</title>
<g id="a_Node000006"><a xlink:href="a00374.html" target="_top" xlink:title="Contains the DCDT generated functions and data types.">
<polygon fill="white" stroke="#666666" points="193,-79.5 110,-79.5 110,-60.5 193,-60.5 193,-79.5"/>
<text text-anchor="middle" x="151.5" y="-67.5" font-family="Helvetica,sans-Serif" font-size="10.00">smps_control.h</text>
</a>
</g>
</g>
<!-- Node3&#45;&gt;Node6 -->
<g id="edge6_Node000003_Node000006" class="edge">
<title>Node3&#45;&gt;Node6</title>
<g id="a_edge6_Node000003_Node000006"><a xlink:title=" ">
<path fill="none" stroke="#63b8ff" d="M181.34,-120.87C176.27,-112.4 168.4,-99.24 162.01,-88.57"/>
<polygon fill="#63b8ff" stroke="#63b8ff" points="164.82,-86.45 156.69,-79.67 158.82,-90.05 164.82,-86.45"/>
</a>
</g>
</g>
<!-- Node7 -->
<g id="Node000007" class="node">
<title>Node7</title>
<g id="a_Node000007"><a xlink:href="a00047.html" target="_top" xlink:title="Generated by the Microchip Digital Compensator Design Tool (DCDT), contains system summaries and digi...">
<polygon fill="white" stroke="#666666" points="357,-85 250,-85 250,-55 357,-55 357,-85"/>
<text text-anchor="start" x="258" y="-73" font-family="Helvetica,sans-Serif" font-size="10.00">iloop/dcdt_generated</text>
<text text-anchor="middle" x="303.5" y="-62" font-family="Helvetica,sans-Serif" font-size="10.00">_code/iloop_dcdt.h</text>
</a>
</g>
</g>
<!-- Node3&#45;&gt;Node7 -->
<g id="edge9_Node000003_Node000007" class="edge">
<title>Node3&#45;&gt;Node7</title>
<g id="a_edge9_Node000003_Node000007"><a xlink:title=" ">
<path fill="none" stroke="#63b8ff" d="M203.51,-120.99C219.85,-112.82 245.09,-100.2 266.13,-89.69"/>
<polygon fill="#63b8ff" stroke="#63b8ff" points="267.77,-92.78 275.14,-85.18 264.64,-86.52 267.77,-92.78"/>
</a>
</g>
</g>
<!-- Node8 -->
<g id="Node000008" class="node">
<title>Node8</title>
<g id="a_Node000008"><a xlink:href="a00050.html" target="_top" xlink:title="Generated by the Microchip Digital Compensator Design Tool (DCDT), contains system summaries and digi...">
<polygon fill="white" stroke="#666666" points="492,-85 375,-85 375,-55 492,-55 492,-85"/>
<text text-anchor="start" x="383" y="-73" font-family="Helvetica,sans-Serif" font-size="10.00">iloop33/dcdt_generated</text>
<text text-anchor="middle" x="433.5" y="-62" font-family="Helvetica,sans-Serif" font-size="10.00">_code/iloop_t_dcdt.h</text>
</a>
</g>
</g>
<!-- Node3&#45;&gt;Node8 -->
<g id="edge10_Node000003_Node000008" class="edge">
<title>Node3&#45;&gt;Node8</title>
<g id="a_edge10_Node000003_Node000008"><a xlink:title=" ">
<path fill="none" stroke="#63b8ff" d="M222.42,-120.99C259.56,-112.2 318.49,-98.24 364.65,-87.31"/>
<polygon fill="#63b8ff" stroke="#63b8ff" points="365.67,-90.66 374.59,-84.95 364.06,-83.85 365.67,-90.66"/>
</a>
</g>
</g>
<!-- Node9 -->
<g id="Node000009" class="node">
<title>Node9</title>
<g id="a_Node000009"><a xlink:href="a00053.html" target="_top" xlink:title="Generated by the Microchip Digital Compensator Design Tool (DCDT), contains system summaries and digi...">
<polygon fill="white" stroke="#666666" points="618.5,-85 510.5,-85 510.5,-55 618.5,-55 618.5,-85"/>
<text text-anchor="start" x="518.5" y="-73" font-family="Helvetica,sans-Serif" font-size="10.00">vloop/dcdt_generated</text>
<text text-anchor="middle" x="564.5" y="-62" font-family="Helvetica,sans-Serif" font-size="10.00">_code/vloop_dcdt.h</text>
</a>
</g>
</g>
<!-- Node3&#45;&gt;Node9 -->
<g id="edge11_Node000003_Node000009" class="edge">
<title>Node3&#45;&gt;Node9</title>
<g id="a_edge11_Node000003_Node000009"><a xlink:title=" ">
<path fill="none" stroke="#63b8ff" d="M225.45,-124.99C283.25,-118.09 395.31,-103.87 500.14,-85.16"/>
<polygon fill="#63b8ff" stroke="#63b8ff" points="501.04,-88.56 510.26,-83.34 499.8,-81.67 501.04,-88.56"/>
</a>
</g>
</g>
<!-- Node6&#45;&gt;Node2 -->
<g id="edge7_Node000006_Node000002" class="edge">
<title>Node6&#45;&gt;Node2</title>
<g id="a_edge7_Node000006_Node000002"><a xlink:title=" ">
<path fill="none" stroke="#63b8ff" d="M132.02,-60.49C108.97,-50.43 70.48,-33.63 44.56,-22.31"/>
<polygon fill="#63b8ff" stroke="#63b8ff" points="45.86,-19.06 35.3,-18.27 43.06,-25.48 45.86,-19.06"/>
</a>
</g>
</g>
<!-- Node6&#45;&gt;Node5 -->
<g id="edge8_Node000006_Node000005" class="edge">
<title>Node6&#45;&gt;Node5</title>
<g id="a_edge8_Node000006_Node000005"><a xlink:title=" ">
<path fill="none" stroke="#63b8ff" d="M156.66,-60.37C161.73,-51.9 169.6,-38.74 175.99,-28.07"/>
<polygon fill="#63b8ff" stroke="#63b8ff" points="179.18,-29.55 181.31,-19.17 173.18,-25.95 179.18,-29.55"/>
</a>
</g>
</g>
</g>
</svg>
