<?xml version="1.0" encoding="UTF-8" standalone="no"?>
<!DOCTYPE svg PUBLIC "-//W3C//DTD SVG 1.1//EN"
 "http://www.w3.org/Graphics/SVG/1.1/DTD/svg11.dtd">
<!-- Generated by graphviz version 8.1.0 (20230707.0739)
 -->
<!-- Title: psfb_droop.X/sources/pwrctrl/pwrctrl_comm_interface.c Pages: 1 -->
<svg width="327pt" height="388pt"
 viewBox="0.00 0.00 326.71 388.00" xmlns="http://www.w3.org/2000/svg" xmlns:xlink="http://www.w3.org/1999/xlink">
<g id="graph0" class="graph" transform="scale(1 1) rotate(0) translate(4 384)">
<title>psfb_droop.X/sources/pwrctrl/pwrctrl_comm_interface.c</title>
<!-- Node1 -->
<g id="Node000001" class="node">
<title>Node1</title>
<g id="a_Node000001"><a xlink:title="Contains power control interface with communication/gui.">
<polygon fill="#999999" stroke="#666666" points="197.34,-380 86.09,-380 86.09,-336 197.34,-336 197.34,-380"/>
<text text-anchor="start" x="94.09" y="-366.5" font-family="Helvetica,sans-Serif" font-size="10.00">psfb_droop.X/sources</text>
<text text-anchor="start" x="94.09" y="-354.5" font-family="Helvetica,sans-Serif" font-size="10.00">/pwrctrl/pwrctrl_comm</text>
<text text-anchor="middle" x="141.71" y="-342.5" font-family="Helvetica,sans-Serif" font-size="10.00">_interface.c</text>
</a>
</g>
</g>
<!-- Node2 -->
<g id="Node000002" class="node">
<title>Node2</title>
<g id="a_Node000002"><a xlink:href="a00383_source.html" target="_top" xlink:title=" ">
<polygon fill="white" stroke="#666666" points="168.09,-300 115.34,-300 115.34,-280 168.09,-280 168.09,-300"/>
<text text-anchor="middle" x="141.71" y="-286.5" font-family="Helvetica,sans-Serif" font-size="10.00">pwrctrl.h</text>
</a>
</g>
</g>
<!-- Node1&#45;&gt;Node2 -->
<g id="edge1_Node000001_Node000002" class="edge">
<title>Node1&#45;&gt;Node2</title>
<g id="a_edge1_Node000001_Node000002"><a xlink:title=" ">
<path fill="none" stroke="#63b8ff" d="M141.71,-335.75C141.71,-327.94 141.71,-319.11 141.71,-311.38"/>
<polygon fill="#63b8ff" stroke="#63b8ff" points="145.21,-311.42 141.71,-301.42 138.21,-311.42 145.21,-311.42"/>
</a>
</g>
</g>
<!-- Node3 -->
<g id="Node000003" class="node">
<title>Node3</title>
<g id="a_Node000003"><a xlink:href="a00416_source.html" target="_top" xlink:title=" ">
<polygon fill="white" stroke="#666666" points="140.46,-188 50.96,-188 50.96,-168 140.46,-168 140.46,-188"/>
<text text-anchor="middle" x="95.71" y="-174.5" font-family="Helvetica,sans-Serif" font-size="10.00">pwrctrl_typedef.h</text>
</a>
</g>
</g>
<!-- Node2&#45;&gt;Node3 -->
<g id="edge2_Node000002_Node000003" class="edge">
<title>Node2&#45;&gt;Node3</title>
<g id="a_edge2_Node000002_Node000003"><a xlink:title=" ">
<path fill="none" stroke="#63b8ff" d="M115.02,-288.89C82.82,-287.15 29.89,-278.78 4.71,-244 -11.91,-221.04 20.02,-203.13 50.54,-191.97"/>
<polygon fill="#63b8ff" stroke="#63b8ff" points="51.44,-195.02 59.76,-188.45 49.16,-188.4 51.44,-195.02"/>
</a>
</g>
</g>
<!-- Node8 -->
<g id="Node000008" class="node">
<title>Node8</title>
<g id="a_Node000008"><a xlink:href="a00395.html" target="_top" xlink:title="Contains public functions relevant for power control communication interface.">
<polygon fill="white" stroke="#666666" points="141.21,-244 14.21,-244 14.21,-224 141.21,-224 141.21,-244"/>
<text text-anchor="middle" x="77.71" y="-230.5" font-family="Helvetica,sans-Serif" font-size="10.00">pwrctrl_comm_interface.h</text>
</a>
</g>
</g>
<!-- Node2&#45;&gt;Node8 -->
<g id="edge7_Node000002_Node000008" class="edge">
<title>Node2&#45;&gt;Node8</title>
<g id="a_edge7_Node000002_Node000008"><a xlink:title=" ">
<path fill="none" stroke="#63b8ff" d="M130.57,-279.59C121.3,-271.77 107.89,-260.46 96.9,-251.19"/>
<polygon fill="#63b8ff" stroke="#63b8ff" points="99.63,-248.07 89.73,-244.3 95.12,-253.42 99.63,-248.07"/>
</a>
</g>
</g>
<!-- Node9 -->
<g id="Node000009" class="node">
<title>Node9</title>
<g id="a_Node000009"><a xlink:href="a00389.html" target="_top" xlink:title="Contains the power control reusable functions.">
<polygon fill="white" stroke="#666666" points="254.46,-244 158.96,-244 158.96,-224 254.46,-224 254.46,-244"/>
<text text-anchor="middle" x="206.71" y="-230.5" font-family="Helvetica,sans-Serif" font-size="10.00">pwrctrl_common.h</text>
</a>
</g>
</g>
<!-- Node2&#45;&gt;Node9 -->
<g id="edge8_Node000002_Node000009" class="edge">
<title>Node2&#45;&gt;Node9</title>
<g id="a_edge8_Node000002_Node000009"><a xlink:title=" ">
<path fill="none" stroke="#63b8ff" d="M153.04,-279.59C162.45,-271.77 176.06,-260.46 187.22,-251.19"/>
<polygon fill="#63b8ff" stroke="#63b8ff" points="189.07,-253.38 194.52,-244.3 184.59,-248 189.07,-253.38"/>
</a>
</g>
</g>
<!-- Node10 -->
<g id="Node000010" class="node">
<title>Node10</title>
<g id="a_Node000010"><a xlink:title=" ">
<polygon fill="#e0e0e0" stroke="#999999" points="318.71,-244 272.71,-244 272.71,-224 318.71,-224 318.71,-244"/>
<text text-anchor="middle" x="295.71" y="-230.5" font-family="Helvetica,sans-Serif" font-size="10.00">math.h</text>
</a>
</g>
</g>
<!-- Node2&#45;&gt;Node10 -->
<g id="edge10_Node000002_Node000010" class="edge">
<title>Node2&#45;&gt;Node10</title>
<g id="a_edge10_Node000002_Node000010"><a xlink:title=" ">
<path fill="none" stroke="#63b8ff" d="M168.54,-279.59C194.52,-270.48 234,-256.64 262.07,-246.8"/>
<polygon fill="#63b8ff" stroke="#63b8ff" points="262.94,-249.85 271.22,-243.24 260.62,-243.24 262.94,-249.85"/>
</a>
</g>
</g>
<!-- Node4 -->
<g id="Node000004" class="node">
<title>Node4</title>
<g id="a_Node000004"><a xlink:href="a00317.html" target="_top" xlink:title="Contains fault data types.">
<polygon fill="white" stroke="#666666" points="145.71,-132 45.71,-132 45.71,-112 145.71,-112 145.71,-132"/>
<text text-anchor="middle" x="95.71" y="-118.5" font-family="Helvetica,sans-Serif" font-size="10.00">fault/fault_typedef.h</text>
</a>
</g>
</g>
<!-- Node3&#45;&gt;Node4 -->
<g id="edge3_Node000003_Node000004" class="edge">
<title>Node3&#45;&gt;Node4</title>
<g id="a_edge3_Node000003_Node000004"><a xlink:title=" ">
<path fill="none" stroke="#63b8ff" d="M95.71,-167.59C95.71,-160.86 95.71,-151.53 95.71,-143.15"/>
<polygon fill="#63b8ff" stroke="#63b8ff" points="99.21,-143.3 95.71,-133.3 92.21,-143.3 99.21,-143.3"/>
</a>
</g>
</g>
<!-- Node5 -->
<g id="Node000005" class="node">
<title>Node5</title>
<g id="a_Node000005"><a xlink:href="a00308.html" target="_top" xlink:title="Contains fault generic public functions.">
<polygon fill="white" stroke="#666666" points="138.21,-76 53.21,-76 53.21,-56 138.21,-56 138.21,-76"/>
<text text-anchor="middle" x="95.71" y="-62.5" font-family="Helvetica,sans-Serif" font-size="10.00">fault_common.h</text>
</a>
</g>
</g>
<!-- Node4&#45;&gt;Node5 -->
<g id="edge4_Node000004_Node000005" class="edge">
<title>Node4&#45;&gt;Node5</title>
<g id="a_edge4_Node000004_Node000005"><a xlink:title=" ">
<path fill="none" stroke="#63b8ff" d="M95.71,-111.59C95.71,-104.86 95.71,-95.53 95.71,-87.15"/>
<polygon fill="#63b8ff" stroke="#63b8ff" points="99.21,-87.3 95.71,-77.3 92.21,-87.3 99.21,-87.3"/>
</a>
</g>
</g>
<!-- Node6 -->
<g id="Node000006" class="node">
<title>Node6</title>
<g id="a_Node000006"><a xlink:title=" ">
<polygon fill="#e0e0e0" stroke="#999999" points="84.84,-20 36.59,-20 36.59,0 84.84,0 84.84,-20"/>
<text text-anchor="middle" x="60.71" y="-6.5" font-family="Helvetica,sans-Serif" font-size="10.00">stdint.h</text>
</a>
</g>
</g>
<!-- Node5&#45;&gt;Node6 -->
<g id="edge5_Node000005_Node000006" class="edge">
<title>Node5&#45;&gt;Node6</title>
<g id="a_edge5_Node000005_Node000006"><a xlink:title=" ">
<path fill="none" stroke="#63b8ff" d="M89.62,-55.59C84.95,-48.39 78.37,-38.23 72.66,-29.43"/>
<polygon fill="#63b8ff" stroke="#63b8ff" points="75.12,-27.79 66.74,-21.3 69.24,-31.59 75.12,-27.79"/>
</a>
</g>
</g>
<!-- Node7 -->
<g id="Node000007" class="node">
<title>Node7</title>
<g id="a_Node000007"><a xlink:title=" ">
<polygon fill="#e0e0e0" stroke="#999999" points="158.59,-20 102.84,-20 102.84,0 158.59,0 158.59,-20"/>
<text text-anchor="middle" x="130.71" y="-6.5" font-family="Helvetica,sans-Serif" font-size="10.00">stdbool.h</text>
</a>
</g>
</g>
<!-- Node5&#45;&gt;Node7 -->
<g id="edge6_Node000005_Node000007" class="edge">
<title>Node5&#45;&gt;Node7</title>
<g id="a_edge6_Node000005_Node000007"><a xlink:title=" ">
<path fill="none" stroke="#63b8ff" d="M101.81,-55.59C106.48,-48.39 113.06,-38.23 118.77,-29.43"/>
<polygon fill="#63b8ff" stroke="#63b8ff" points="122.19,-31.59 124.69,-21.3 116.31,-27.79 122.19,-31.59"/>
</a>
</g>
</g>
<!-- Node9&#45;&gt;Node3 -->
<g id="edge9_Node000009_Node000003" class="edge">
<title>Node9&#45;&gt;Node3</title>
<g id="a_edge9_Node000009_Node000003"><a xlink:title=" ">
<path fill="none" stroke="#63b8ff" d="M187.38,-223.59C170.14,-215.21 144.64,-202.8 124.92,-193.21"/>
<polygon fill="#63b8ff" stroke="#63b8ff" points="126.72,-189.71 116.2,-188.48 123.66,-196 126.72,-189.71"/>
</a>
</g>
</g>
</g>
</svg>
