<?xml version="1.0" encoding="UTF-8" standalone="no"?>
<!DOCTYPE svg PUBLIC "-//W3C//DTD SVG 1.1//EN"
 "http://www.w3.org/Graphics/SVG/1.1/DTD/svg11.dtd">
<!-- Generated by graphviz version 8.1.0 (20230707.0739)
 -->
<!-- Title: psfb_droop.X/sources/fault/fault.h Pages: 1 -->
<svg width="619pt" height="120pt"
 viewBox="0.00 0.00 619.38 120.00" xmlns="http://www.w3.org/2000/svg" xmlns:xlink="http://www.w3.org/1999/xlink">
<g id="graph0" class="graph" transform="scale(1 1) rotate(0) translate(4 116)">
<title>psfb_droop.X/sources/fault/fault.h</title>
<!-- Node1 -->
<g id="Node000001" class="node">
<title>Node1</title>
<g id="a_Node000001"><a xlink:title="Contains public fault functions.">
<polygon fill="#999999" stroke="#666666" points="357.38,-112 248.38,-112 248.38,-80 357.38,-80 357.38,-112"/>
<text text-anchor="start" x="256.38" y="-98.5" font-family="Helvetica,sans-Serif" font-size="10.00">psfb_droop.X/sources</text>
<text text-anchor="middle" x="302.88" y="-86.5" font-family="Helvetica,sans-Serif" font-size="10.00">/fault/fault.h</text>
</a>
</g>
</g>
<!-- Node1&#45;&gt;Node1 -->
<g id="edge3_Node000001_Node000001" class="edge">
<title>Node1&#45;&gt;Node1</title>
<g id="a_edge3_Node000001_Node000001"><a xlink:title=" ">
<path fill="none" stroke="#63b8ff" d="M367.79,-106.24C372.49,-103.93 375.38,-100.52 375.38,-96 375.38,-88.77 368,-84.37 357.57,-82.79"/>
<polygon fill="#63b8ff" stroke="#63b8ff" points="367.2,-103.06 358.57,-109.21 369.15,-109.78 367.2,-103.06"/>
</a>
</g>
</g>
<!-- Node2 -->
<g id="Node000002" class="node">
<title>Node2</title>
<g id="a_Node000002"><a xlink:href="a00056_source.html" target="_top" xlink:title=" ">
<polygon fill="white" stroke="#666666" points="103.75,-32 0,-32 0,-12 103.75,-12 103.75,-32"/>
<text text-anchor="middle" x="51.88" y="-18.5" font-family="Helvetica,sans-Serif" font-size="10.00">psfb_droop.X/main.c</text>
</a>
</g>
</g>
<!-- Node1&#45;&gt;Node2 -->
<g id="edge1_Node000001_Node000002" class="edge">
<title>Node1&#45;&gt;Node2</title>
<g id="a_edge1_Node000001_Node000002"><a xlink:title=" ">
<path fill="none" stroke="#63b8ff" d="M238.04,-78.99C200.9,-69.49 153.55,-56.84 111.88,-44 100.48,-40.49 88.03,-36.21 77.43,-32.42"/>
<polygon fill="#63b8ff" stroke="#63b8ff" points="236.67,-82.51 247.23,-81.58 238.4,-75.72 236.67,-82.51"/>
</a>
</g>
</g>
<!-- Node3 -->
<g id="Node000003" class="node">
<title>Node3</title>
<g id="a_Node000003"><a xlink:href="a00299.html" target="_top" xlink:title="Contains fault functions including the fault handler, fault object initialization and fault execution...">
<polygon fill="white" stroke="#666666" points="230.38,-38 121.38,-38 121.38,-6 230.38,-6 230.38,-38"/>
<text text-anchor="start" x="129.38" y="-24.5" font-family="Helvetica,sans-Serif" font-size="10.00">psfb_droop.X/sources</text>
<text text-anchor="middle" x="175.88" y="-12.5" font-family="Helvetica,sans-Serif" font-size="10.00">/fault/fault.c</text>
</a>
</g>
</g>
<!-- Node1&#45;&gt;Node3 -->
<g id="edge2_Node000001_Node000003" class="edge">
<title>Node1&#45;&gt;Node3</title>
<g id="a_edge2_Node000001_Node000003"><a xlink:title=" ">
<path fill="none" stroke="#63b8ff" d="M266.15,-74.18C246.01,-62.76 221.48,-48.85 203.07,-38.42"/>
<polygon fill="#63b8ff" stroke="#63b8ff" points="264.2,-77.67 274.63,-79.55 267.66,-71.58 264.2,-77.67"/>
</a>
</g>
</g>
<!-- Node4 -->
<g id="Node000004" class="node">
<title>Node4</title>
<g id="a_Node000004"><a xlink:href="a00398.html" target="_top" xlink:title="Contains Control loop interrupt Callback that acquires the ADC raw data and process it in the control...">
<polygon fill="white" stroke="#666666" points="357.38,-38 248.38,-38 248.38,-6 357.38,-6 357.38,-38"/>
<text text-anchor="start" x="256.38" y="-24.5" font-family="Helvetica,sans-Serif" font-size="10.00">psfb_droop.X/sources</text>
<text text-anchor="middle" x="302.88" y="-12.5" font-family="Helvetica,sans-Serif" font-size="10.00">/pwrctrl/pwrctrl_isr.c</text>
</a>
</g>
</g>
<!-- Node1&#45;&gt;Node4 -->
<g id="edge4_Node000001_Node000004" class="edge">
<title>Node1&#45;&gt;Node4</title>
<g id="a_edge4_Node000001_Node000004"><a xlink:title=" ">
<path fill="none" stroke="#63b8ff" d="M302.88,-68.82C302.88,-58.55 302.88,-47.12 302.88,-38.25"/>
<polygon fill="#63b8ff" stroke="#63b8ff" points="299.38,-68.73 302.88,-78.73 306.38,-68.73 299.38,-68.73"/>
</a>
</g>
</g>
<!-- Node5 -->
<g id="Node000005" class="node">
<title>Node5</title>
<g id="a_Node000005"><a xlink:href="a00404.html" target="_top" xlink:title="Contains some of the functions used in the interrupt service routine of control loop.">
<polygon fill="white" stroke="#666666" points="484.38,-44 375.38,-44 375.38,0 484.38,0 484.38,-44"/>
<text text-anchor="start" x="383.38" y="-30.5" font-family="Helvetica,sans-Serif" font-size="10.00">psfb_droop.X/sources</text>
<text text-anchor="start" x="383.38" y="-18.5" font-family="Helvetica,sans-Serif" font-size="10.00">/pwrctrl/pwrctrl_isr</text>
<text text-anchor="middle" x="429.88" y="-6.5" font-family="Helvetica,sans-Serif" font-size="10.00">_extension.c</text>
</a>
</g>
</g>
<!-- Node1&#45;&gt;Node5 -->
<g id="edge5_Node000001_Node000005" class="edge">
<title>Node1&#45;&gt;Node5</title>
<g id="a_edge5_Node000001_Node000005"><a xlink:title=" ">
<path fill="none" stroke="#63b8ff" d="M339.45,-74.27C355.95,-64.91 375.43,-53.87 392.08,-44.43"/>
<polygon fill="#63b8ff" stroke="#63b8ff" points="338.09,-71.58 331.12,-79.55 341.55,-77.67 338.09,-71.58"/>
</a>
</g>
</g>
<!-- Node6 -->
<g id="Node000006" class="node">
<title>Node6</title>
<g id="a_Node000006"><a xlink:href="a00413.html" target="_top" xlink:title="Contains power control state machine functions that is executed every 100us.">
<polygon fill="white" stroke="#666666" points="611.38,-38 502.38,-38 502.38,-6 611.38,-6 611.38,-38"/>
<text text-anchor="start" x="510.38" y="-24.5" font-family="Helvetica,sans-Serif" font-size="10.00">psfb_droop.X/sources</text>
<text text-anchor="middle" x="556.88" y="-12.5" font-family="Helvetica,sans-Serif" font-size="10.00">/pwrctrl/pwrctrl_sm.c</text>
</a>
</g>
</g>
<!-- Node1&#45;&gt;Node6 -->
<g id="edge6_Node000001_Node000006" class="edge">
<title>Node1&#45;&gt;Node6</title>
<g id="a_edge6_Node000001_Node000006"><a xlink:title=" ">
<path fill="none" stroke="#63b8ff" d="M368.52,-78.52C405.49,-68.98 452.43,-56.43 493.88,-44 499.62,-42.28 505.63,-40.39 511.56,-38.47"/>
<polygon fill="#63b8ff" stroke="#63b8ff" points="367.69,-75.38 358.87,-81.26 369.43,-82.16 367.69,-75.38"/>
</a>
</g>
</g>
</g>
</svg>
