<?xml version="1.0" encoding="UTF-8" standalone="no"?>
<!DOCTYPE svg PUBLIC "-//W3C//DTD SVG 1.1//EN"
 "http://www.w3.org/Graphics/SVG/1.1/DTD/svg11.dtd">
<!-- Generated by graphviz version 8.1.0 (20230707.0739)
 -->
<!-- Title: psfb_droop.X/sources/pwrctrl/dcdt/pwrctrl_dcdt.c Pages: 1 -->
<svg width="621pt" height="232pt"
 viewBox="0.00 0.00 621.12 232.00" xmlns="http://www.w3.org/2000/svg" xmlns:xlink="http://www.w3.org/1999/xlink">
<g id="graph0" class="graph" transform="scale(1 1) rotate(0) translate(4 228)">
<title>psfb_droop.X/sources/pwrctrl/dcdt/pwrctrl_dcdt.c</title>
<!-- Node1 -->
<g id="Node000001" class="node">
<title>Node1</title>
<g id="a_Node000001"><a xlink:title="Contains individual DCDT control loop initialization functions.">
<polygon fill="#999999" stroke="#666666" points="118.88,-224 9.88,-224 9.88,-180 118.88,-180 118.88,-224"/>
<text text-anchor="start" x="17.88" y="-210.5" font-family="Helvetica,sans-Serif" font-size="10.00">psfb_droop.X/sources</text>
<text text-anchor="start" x="17.88" y="-198.5" font-family="Helvetica,sans-Serif" font-size="10.00">/pwrctrl/dcdt/pwrctrl</text>
<text text-anchor="middle" x="64.38" y="-186.5" font-family="Helvetica,sans-Serif" font-size="10.00">_dcdt.c</text>
</a>
</g>
</g>
<!-- Node2 -->
<g id="Node000002" class="node">
<title>Node2</title>
<g id="a_Node000002"><a xlink:title=" ">
<polygon fill="#e0e0e0" stroke="#999999" points="34.75,-20 0,-20 0,0 34.75,0 34.75,-20"/>
<text text-anchor="middle" x="17.38" y="-6.5" font-family="Helvetica,sans-Serif" font-size="10.00">xc.h</text>
</a>
</g>
</g>
<!-- Node1&#45;&gt;Node2 -->
<g id="edge1_Node000001_Node000002" class="edge">
<title>Node1&#45;&gt;Node2</title>
<g id="a_edge1_Node000001_Node000002"><a xlink:title=" ">
<path fill="none" stroke="#63b8ff" d="M52.53,-179.72C40.94,-157.59 24.07,-121.55 17.38,-88 13.54,-68.78 14.1,-46.32 15.27,-30.63"/>
<polygon fill="#63b8ff" stroke="#63b8ff" points="18.81,-31.4 16.23,-21.12 11.84,-30.76 18.81,-31.4"/>
</a>
</g>
</g>
<!-- Node3 -->
<g id="Node000003" class="node">
<title>Node3</title>
<g id="a_Node000003"><a xlink:href="a00365.html" target="_top" xlink:title="Contains public functions and data types relevant for DCDT file interface.">
<polygon fill="white" stroke="#666666" points="222.75,-144 146,-144 146,-124 222.75,-124 222.75,-144"/>
<text text-anchor="middle" x="184.38" y="-130.5" font-family="Helvetica,sans-Serif" font-size="10.00">pwrctrl_dcdt.h</text>
</a>
</g>
</g>
<!-- Node1&#45;&gt;Node3 -->
<g id="edge2_Node000001_Node000003" class="edge">
<title>Node1&#45;&gt;Node3</title>
<g id="a_edge2_Node000001_Node000003"><a xlink:title=" ">
<path fill="none" stroke="#63b8ff" d="M103.34,-179.57C121.24,-169.72 142.02,-158.3 158.05,-149.48"/>
<polygon fill="#63b8ff" stroke="#63b8ff" points="159.27,-152.25 166.35,-144.37 155.9,-146.12 159.27,-152.25"/>
</a>
</g>
</g>
<!-- Node3&#45;&gt;Node2 -->
<g id="edge4_Node000003_Node000002" class="edge">
<title>Node3&#45;&gt;Node2</title>
<g id="a_edge4_Node000003_Node000002"><a xlink:title=" ">
<path fill="none" stroke="#63b8ff" d="M145.51,-131.49C111.99,-128.07 64.65,-117.82 36.38,-88 21.97,-72.81 17.98,-48.51 17.1,-31.27"/>
<polygon fill="#63b8ff" stroke="#63b8ff" points="20.59,-31.37 16.91,-21.44 13.59,-31.5 20.59,-31.37"/>
</a>
</g>
</g>
<!-- Node4 -->
<g id="Node000004" class="node">
<title>Node4</title>
<g id="a_Node000004"><a xlink:title=" ">
<polygon fill="#e0e0e0" stroke="#999999" points="91,-82 45.75,-82 45.75,-62 91,-62 91,-82"/>
<text text-anchor="middle" x="68.38" y="-68.5" font-family="Helvetica,sans-Serif" font-size="10.00">stdio.h</text>
</a>
</g>
</g>
<!-- Node3&#45;&gt;Node4 -->
<g id="edge3_Node000003_Node000004" class="edge">
<title>Node3&#45;&gt;Node4</title>
<g id="a_edge3_Node000003_Node000004"><a xlink:title=" ">
<path fill="none" stroke="#63b8ff" d="M166.25,-123.62C147.44,-113.89 117.78,-98.55 96.03,-87.31"/>
<polygon fill="#63b8ff" stroke="#63b8ff" points="97.86,-83.79 87.37,-82.31 94.65,-90.01 97.86,-83.79"/>
</a>
</g>
</g>
<!-- Node5 -->
<g id="Node000005" class="node">
<title>Node5</title>
<g id="a_Node000005"><a xlink:title=" ">
<polygon fill="#e0e0e0" stroke="#999999" points="208.5,-20 160.25,-20 160.25,0 208.5,0 208.5,-20"/>
<text text-anchor="middle" x="184.38" y="-6.5" font-family="Helvetica,sans-Serif" font-size="10.00">stdint.h</text>
</a>
</g>
</g>
<!-- Node3&#45;&gt;Node5 -->
<g id="edge5_Node000003_Node000005" class="edge">
<title>Node3&#45;&gt;Node5</title>
<g id="a_edge5_Node000003_Node000005"><a xlink:title=" ">
<path fill="none" stroke="#63b8ff" d="M188.79,-123.6C192.72,-114.67 198.18,-100.75 200.38,-88 202.79,-73.98 202.79,-70.02 200.38,-56 198.88,-47.34 195.88,-38.13 192.88,-30.32"/>
<polygon fill="#63b8ff" stroke="#63b8ff" points="195.83,-29.31 188.79,-21.4 189.36,-31.98 195.83,-29.31"/>
</a>
</g>
</g>
<!-- Node6 -->
<g id="Node000006" class="node">
<title>Node6</title>
<g id="a_Node000006"><a xlink:href="a00374.html" target="_top" xlink:title="Contains the DCDT generated functions and data types.">
<polygon fill="white" stroke="#666666" points="191.75,-82 109,-82 109,-62 191.75,-62 191.75,-82"/>
<text text-anchor="middle" x="150.38" y="-68.5" font-family="Helvetica,sans-Serif" font-size="10.00">smps_control.h</text>
</a>
</g>
</g>
<!-- Node3&#45;&gt;Node6 -->
<g id="edge6_Node000003_Node000006" class="edge">
<title>Node3&#45;&gt;Node6</title>
<g id="a_edge6_Node000003_Node000006"><a xlink:title=" ">
<path fill="none" stroke="#63b8ff" d="M179.06,-123.62C174.19,-115.03 166.85,-102.07 160.81,-91.41"/>
<polygon fill="#63b8ff" stroke="#63b8ff" points="163.51,-90.09 155.54,-83.11 157.42,-93.54 163.51,-90.09"/>
</a>
</g>
</g>
<!-- Node7 -->
<g id="Node000007" class="node">
<title>Node7</title>
<g id="a_Node000007"><a xlink:href="a00047.html" target="_top" xlink:title="Generated by the Microchip Digital Compensator Design Tool (DCDT), contains system summaries and digi...">
<polygon fill="white" stroke="#666666" points="353.38,-88 247.38,-88 247.38,-56 353.38,-56 353.38,-88"/>
<text text-anchor="start" x="255.38" y="-74.5" font-family="Helvetica,sans-Serif" font-size="10.00">iloop/dcdt_generated</text>
<text text-anchor="middle" x="300.38" y="-62.5" font-family="Helvetica,sans-Serif" font-size="10.00">_code/iloop_dcdt.h</text>
</a>
</g>
</g>
<!-- Node3&#45;&gt;Node7 -->
<g id="edge9_Node000003_Node000007" class="edge">
<title>Node3&#45;&gt;Node7</title>
<g id="a_edge9_Node000003_Node000007"><a xlink:title=" ">
<path fill="none" stroke="#63b8ff" d="M202.5,-123.62C218.09,-115.56 241.13,-103.64 260.94,-93.4"/>
<polygon fill="#63b8ff" stroke="#63b8ff" points="262.38,-96.08 269.65,-88.37 259.16,-89.86 262.38,-96.08"/>
</a>
</g>
</g>
<!-- Node8 -->
<g id="Node000008" class="node">
<title>Node8</title>
<g id="a_Node000008"><a xlink:href="a00050.html" target="_top" xlink:title="Generated by the Microchip Digital Compensator Design Tool (DCDT), contains system summaries and digi...">
<polygon fill="white" stroke="#666666" points="487.62,-88 371.12,-88 371.12,-56 487.62,-56 487.62,-88"/>
<text text-anchor="start" x="379.12" y="-74.5" font-family="Helvetica,sans-Serif" font-size="10.00">iloop33/dcdt_generated</text>
<text text-anchor="middle" x="429.38" y="-62.5" font-family="Helvetica,sans-Serif" font-size="10.00">_code/iloop_t_dcdt.h</text>
</a>
</g>
</g>
<!-- Node3&#45;&gt;Node8 -->
<g id="edge10_Node000003_Node000008" class="edge">
<title>Node3&#45;&gt;Node8</title>
<g id="a_edge10_Node000003_Node000008"><a xlink:title=" ">
<path fill="none" stroke="#63b8ff" d="M222.93,-123.56C259.73,-114.55 316.01,-100.76 360.52,-89.86"/>
<polygon fill="#63b8ff" stroke="#63b8ff" points="361.1,-93.08 369.98,-87.3 359.43,-86.28 361.1,-93.08"/>
</a>
</g>
</g>
<!-- Node9 -->
<g id="Node000009" class="node">
<title>Node9</title>
<g id="a_Node000009"><a xlink:href="a00053.html" target="_top" xlink:title="Generated by the Microchip Digital Compensator Design Tool (DCDT), contains system summaries and digi...">
<polygon fill="white" stroke="#666666" points="613.12,-88 505.62,-88 505.62,-56 613.12,-56 613.12,-88"/>
<text text-anchor="start" x="513.62" y="-74.5" font-family="Helvetica,sans-Serif" font-size="10.00">vloop/dcdt_generated</text>
<text text-anchor="middle" x="559.38" y="-62.5" font-family="Helvetica,sans-Serif" font-size="10.00">_code/vloop_dcdt.h</text>
</a>
</g>
</g>
<!-- Node3&#45;&gt;Node9 -->
<g id="edge11_Node000003_Node000009" class="edge">
<title>Node3&#45;&gt;Node9</title>
<g id="a_edge11_Node000003_Node000009"><a xlink:title=" ">
<path fill="none" stroke="#63b8ff" d="M222.99,-128.57C280.15,-121.77 390.87,-107.64 494.5,-88.26"/>
<polygon fill="#63b8ff" stroke="#63b8ff" points="494.97,-91.54 504.15,-86.24 493.67,-84.66 494.97,-91.54"/>
</a>
</g>
</g>
<!-- Node6&#45;&gt;Node2 -->
<g id="edge7_Node000006_Node000002" class="edge">
<title>Node6&#45;&gt;Node2</title>
<g id="a_edge7_Node000006_Node000002"><a xlink:title=" ">
<path fill="none" stroke="#63b8ff" d="M129.59,-61.62C106.84,-51.36 70.23,-34.85 45.05,-23.49"/>
<polygon fill="#63b8ff" stroke="#63b8ff" points="46.59,-19.89 36.04,-18.97 43.71,-26.27 46.59,-19.89"/>
</a>
</g>
</g>
<!-- Node6&#45;&gt;Node5 -->
<g id="edge8_Node000006_Node000005" class="edge">
<title>Node6&#45;&gt;Node5</title>
<g id="a_edge8_Node000006_Node000005"><a xlink:title=" ">
<path fill="none" stroke="#63b8ff" d="M155.69,-61.62C160.56,-53.03 167.9,-40.07 173.94,-29.41"/>
<polygon fill="#63b8ff" stroke="#63b8ff" points="177.33,-31.54 179.21,-21.11 171.24,-28.09 177.33,-31.54"/>
</a>
</g>
</g>
</g>
</svg>
