<?xml version="1.0" encoding="UTF-8" standalone="no"?>
<!DOCTYPE svg PUBLIC "-//W3C//DTD SVG 1.1//EN"
 "http://www.w3.org/Graphics/SVG/1.1/DTD/svg11.dtd">
<!-- Generated by graphviz version 8.1.0 (20230707.0739)
 -->
<!-- Title: psfb_droop.X/sources/pwrctrl/pwrctrl_isr.c Pages: 1 -->
<svg width="1015pt" height="444pt"
 viewBox="0.00 0.00 1014.62 444.00" xmlns="http://www.w3.org/2000/svg" xmlns:xlink="http://www.w3.org/1999/xlink">
<g id="graph0" class="graph" transform="scale(1 1) rotate(0) translate(4 440)">
<title>psfb_droop.X/sources/pwrctrl/pwrctrl_isr.c</title>
<!-- Node1 -->
<g id="Node000001" class="node">
<title>Node1</title>
<g id="a_Node000001"><a xlink:title="Contains Control loop interrupt Callback that acquires the ADC raw data and process it in the control...">
<polygon fill="#999999" stroke="#666666" points="298.12,-436 189.12,-436 189.12,-404 298.12,-404 298.12,-436"/>
<text text-anchor="start" x="197.12" y="-422.5" font-family="Helvetica,sans-Serif" font-size="10.00">psfb_droop.X/sources</text>
<text text-anchor="middle" x="243.62" y="-410.5" font-family="Helvetica,sans-Serif" font-size="10.00">/pwrctrl/pwrctrl_isr.c</text>
</a>
</g>
</g>
<!-- Node2 -->
<g id="Node000002" class="node">
<title>Node2</title>
<g id="a_Node000002"><a xlink:title=" ">
<polygon fill="#e0e0e0" stroke="#999999" points="408,-88 373.25,-88 373.25,-68 408,-68 408,-88"/>
<text text-anchor="middle" x="390.62" y="-74.5" font-family="Helvetica,sans-Serif" font-size="10.00">xc.h</text>
</a>
</g>
</g>
<!-- Node1&#45;&gt;Node2 -->
<g id="edge1_Node000001_Node000002" class="edge">
<title>Node1&#45;&gt;Node2</title>
<g id="a_edge1_Node000001_Node000002"><a xlink:title=" ">
<path fill="none" stroke="#63b8ff" d="M239.91,-403.66C236.31,-389.21 230.56,-367 224.62,-348 193.43,-248.05 84.19,-204.11 151.62,-124 181.83,-88.11 313.92,-98.56 359.62,-88 360.58,-87.78 361.55,-87.55 362.53,-87.3"/>
<polygon fill="#63b8ff" stroke="#63b8ff" points="363.26,-90.46 372.01,-84.48 361.44,-83.7 363.26,-90.46"/>
</a>
</g>
</g>
<!-- Node3 -->
<g id="Node000003" class="node">
<title>Node3</title>
<g id="a_Node000003"><a xlink:title=" ">
<polygon fill="#e0e0e0" stroke="#999999" points="206.62,-144 160.62,-144 160.62,-124 206.62,-124 206.62,-144"/>
<text text-anchor="middle" x="183.62" y="-130.5" font-family="Helvetica,sans-Serif" font-size="10.00">math.h</text>
</a>
</g>
</g>
<!-- Node1&#45;&gt;Node3 -->
<g id="edge2_Node000001_Node000003" class="edge">
<title>Node1&#45;&gt;Node3</title>
<g id="a_edge2_Node000001_Node000003"><a xlink:title=" ">
<path fill="none" stroke="#63b8ff" d="M199.98,-403.57C184.04,-395.56 167.7,-384.02 158.62,-368 138.12,-331.78 166.37,-204.59 178.53,-155.01"/>
<polygon fill="#63b8ff" stroke="#63b8ff" points="182.15,-155.97 181.18,-145.42 175.36,-154.27 182.15,-155.97"/>
</a>
</g>
</g>
<!-- Node4 -->
<g id="Node000004" class="node">
<title>Node4</title>
<g id="a_Node000004"><a xlink:title=" ">
<polygon fill="#e0e0e0" stroke="#999999" points="636.5,-26 580.75,-26 580.75,-6 636.5,-6 636.5,-26"/>
<text text-anchor="middle" x="608.62" y="-12.5" font-family="Helvetica,sans-Serif" font-size="10.00">stdbool.h</text>
</a>
</g>
</g>
<!-- Node1&#45;&gt;Node4 -->
<g id="edge3_Node000001_Node000004" class="edge">
<title>Node1&#45;&gt;Node4</title>
<g id="a_edge3_Node000001_Node000004"><a xlink:title=" ">
<path fill="none" stroke="#63b8ff" d="M298.5,-416.45C473.45,-407.58 1006.62,-374.68 1006.62,-303 1006.62,-303 1006.62,-303 1006.62,-133 1006.62,-58.76 748.16,-28.84 647.8,-20.02"/>
<polygon fill="#63b8ff" stroke="#63b8ff" points="648.19,-16.46 637.93,-19.1 647.6,-23.43 648.19,-16.46"/>
</a>
</g>
</g>
<!-- Node5 -->
<g id="Node000005" class="node">
<title>Node5</title>
<g id="a_Node000005"><a xlink:title=" ">
<polygon fill="#e0e0e0" stroke="#999999" points="215.38,-368 167.88,-368 167.88,-348 215.38,-348 215.38,-368"/>
<text text-anchor="middle" x="191.62" y="-354.5" font-family="Helvetica,sans-Serif" font-size="10.00">stdlib.h</text>
</a>
</g>
</g>
<!-- Node1&#45;&gt;Node5 -->
<g id="edge4_Node000001_Node000005" class="edge">
<title>Node1&#45;&gt;Node5</title>
<g id="a_edge4_Node000001_Node000005"><a xlink:title=" ">
<path fill="none" stroke="#63b8ff" d="M230.23,-403.55C223.09,-395.3 214.26,-385.12 206.86,-376.57"/>
<polygon fill="#63b8ff" stroke="#63b8ff" points="208.97,-374.67 199.78,-369.41 203.68,-379.26 208.97,-374.67"/>
</a>
</g>
</g>
<!-- Node6 -->
<g id="Node000006" class="node">
<title>Node6</title>
<g id="a_Node000006"><a xlink:href="a00062.html" target="_top" xlink:title="This is the generated driver header file for the ADC1 driver.">
<polygon fill="white" stroke="#666666" points="66.62,-144 2.62,-144 2.62,-124 66.62,-124 66.62,-144"/>
<text text-anchor="middle" x="34.62" y="-130.5" font-family="Helvetica,sans-Serif" font-size="10.00">adc/adc1.h</text>
</a>
</g>
</g>
<!-- Node1&#45;&gt;Node6 -->
<g id="edge5_Node000001_Node000006" class="edge">
<title>Node1&#45;&gt;Node6</title>
<g id="a_edge5_Node000001_Node000006"><a xlink:title=" ">
<path fill="none" stroke="#63b8ff" d="M188.71,-412.41C126.79,-401.55 34.62,-373.55 34.62,-303 34.62,-303 34.62,-303 34.62,-245 34.62,-213.72 34.62,-177.45 34.62,-155.37"/>
<polygon fill="#63b8ff" stroke="#63b8ff" points="38.13,-155.42 34.62,-145.42 31.13,-155.42 38.13,-155.42"/>
</a>
</g>
</g>
<!-- Node11 -->
<g id="Node000011" class="node">
<title>Node11</title>
<g id="a_Node000011"><a xlink:href="a00146_source.html" target="_top" xlink:title=" ">
<polygon fill="white" stroke="#666666" points="140.38,-312 62.88,-312 62.88,-292 140.38,-292 140.38,-312"/>
<text text-anchor="middle" x="101.62" y="-298.5" font-family="Helvetica,sans-Serif" font-size="10.00">system/pins.h</text>
</a>
</g>
</g>
<!-- Node1&#45;&gt;Node11 -->
<g id="edge15_Node000001_Node000011" class="edge">
<title>Node1&#45;&gt;Node11</title>
<g id="a_edge15_Node000001_Node000011"><a xlink:title=" ">
<path fill="none" stroke="#63b8ff" d="M188.73,-405.55C166.67,-397.75 142.51,-385.82 125.62,-368 113.86,-355.58 107.76,-336.91 104.66,-322.76"/>
<polygon fill="#63b8ff" stroke="#63b8ff" points="107.97,-322.37 102.71,-313.17 101.08,-323.64 107.97,-322.37"/>
</a>
</g>
</g>
<!-- Node12 -->
<g id="Node000012" class="node">
<title>Node12</title>
<g id="a_Node000012"><a xlink:href="a00383_source.html" target="_top" xlink:title=" ">
<polygon fill="white" stroke="#666666" points="394,-312 341.25,-312 341.25,-292 394,-292 394,-312"/>
<text text-anchor="middle" x="367.62" y="-298.5" font-family="Helvetica,sans-Serif" font-size="10.00">pwrctrl.h</text>
</a>
</g>
</g>
<!-- Node1&#45;&gt;Node12 -->
<g id="edge17_Node000001_Node000012" class="edge">
<title>Node1&#45;&gt;Node12</title>
<g id="a_edge17_Node000001_Node000012"><a xlink:title=" ">
<path fill="none" stroke="#63b8ff" d="M298.4,-415.27C330.93,-409.9 369.8,-397.27 390.62,-368 400.77,-353.74 391.82,-334.56 382.28,-320.73"/>
<polygon fill="#63b8ff" stroke="#63b8ff" points="384.62,-319.02 375.81,-313.14 379.03,-323.24 384.62,-319.02"/>
</a>
</g>
</g>
<!-- Node18 -->
<g id="Node000018" class="node">
<title>Node18</title>
<g id="a_Node000018"><a xlink:href="a00302.html" target="_top" xlink:title="Contains public fault functions.">
<polygon fill="white" stroke="#666666" points="691.25,-256 628,-256 628,-236 691.25,-236 691.25,-256"/>
<text text-anchor="middle" x="659.62" y="-242.5" font-family="Helvetica,sans-Serif" font-size="10.00">fault/fault.h</text>
</a>
</g>
</g>
<!-- Node1&#45;&gt;Node18 -->
<g id="edge27_Node000001_Node000018" class="edge">
<title>Node1&#45;&gt;Node18</title>
<g id="a_edge27_Node000001_Node000018"><a xlink:title=" ">
<path fill="none" stroke="#63b8ff" d="M298.26,-404.03C330.24,-394.74 371.17,-381.94 406.62,-368 491.3,-334.7 587.16,-285.54 632.76,-261.42"/>
<polygon fill="#63b8ff" stroke="#63b8ff" points="634.03,-264.18 641.22,-256.4 630.75,-258 634.03,-264.18"/>
</a>
</g>
</g>
<!-- Node26 -->
<g id="Node000026" class="node">
<title>Node26</title>
<g id="a_Node000026"><a xlink:href="a00410.html" target="_top" xlink:title="Contains public functions for PWM.">
<polygon fill="white" stroke="#666666" points="381.5,-368 271.75,-368 271.75,-348 381.5,-348 381.5,-368"/>
<text text-anchor="middle" x="326.62" y="-354.5" font-family="Helvetica,sans-Serif" font-size="10.00">pwrctrl/pwrctrl_pwm.h</text>
</a>
</g>
</g>
<!-- Node1&#45;&gt;Node26 -->
<g id="edge52_Node000001_Node000026" class="edge">
<title>Node1&#45;&gt;Node26</title>
<g id="a_edge52_Node000001_Node000026"><a xlink:title=" ">
<path fill="none" stroke="#63b8ff" d="M265,-403.55C277.25,-394.69 292.58,-383.61 304.89,-374.71"/>
<polygon fill="#63b8ff" stroke="#63b8ff" points="306.56,-377.1 312.61,-368.41 302.46,-371.43 306.56,-377.1"/>
</a>
</g>
</g>
<!-- Node6&#45;&gt;Node2 -->
<g id="edge6_Node000006_Node000002" class="edge">
<title>Node6&#45;&gt;Node2</title>
<g id="a_edge6_Node000006_Node000002"><a xlink:title=" ">
<path fill="none" stroke="#63b8ff" d="M66.75,-126.44C71.4,-125.57 76.13,-124.73 80.62,-124 204.04,-103.99 237.23,-113.51 359.62,-88 360.59,-87.8 361.56,-87.59 362.54,-87.36"/>
<polygon fill="#63b8ff" stroke="#63b8ff" points="363.25,-90.53 372.04,-84.62 361.48,-83.76 363.25,-90.53"/>
</a>
</g>
</g>
<!-- Node6&#45;&gt;Node4 -->
<g id="edge7_Node000006_Node000004" class="edge">
<title>Node6&#45;&gt;Node4</title>
<g id="a_edge7_Node000006_Node000004"><a xlink:title=" ">
<path fill="none" stroke="#63b8ff" d="M66.76,-126.51C71.41,-125.63 76.13,-124.77 80.62,-124 189.54,-105.39 221.56,-122.22 326.62,-88 344.77,-82.09 346.67,-74.46 364.62,-68 434.71,-42.79 520.83,-28.43 569.76,-21.72"/>
<polygon fill="#63b8ff" stroke="#63b8ff" points="570.04,-25.08 579.49,-20.29 569.11,-18.14 570.04,-25.08"/>
</a>
</g>
</g>
<!-- Node7 -->
<g id="Node000007" class="node">
<title>Node7</title>
<g id="a_Node000007"><a xlink:title=" ">
<polygon fill="#e0e0e0" stroke="#999999" points="298.75,-26 250.5,-26 250.5,-6 298.75,-6 298.75,-26"/>
<text text-anchor="middle" x="274.62" y="-12.5" font-family="Helvetica,sans-Serif" font-size="10.00">stdint.h</text>
</a>
</g>
</g>
<!-- Node6&#45;&gt;Node7 -->
<g id="edge8_Node000006_Node000007" class="edge">
<title>Node6&#45;&gt;Node7</title>
<g id="a_edge8_Node000006_Node000007"><a xlink:title=" ">
<path fill="none" stroke="#63b8ff" d="M66.99,-126.98C98.31,-120.32 146.52,-107.83 184.62,-88 212.59,-73.45 240.4,-49.73 257.55,-33.75"/>
<polygon fill="#63b8ff" stroke="#63b8ff" points="259.66,-36.62 264.48,-27.19 254.83,-31.55 259.66,-36.62"/>
</a>
</g>
</g>
<!-- Node8 -->
<g id="Node000008" class="node">
<title>Node8</title>
<g id="a_Node000008"><a xlink:href="a00071.html" target="_top" xlink:title="This is the generated driver types header file for the ADC driver.">
<polygon fill="white" stroke="#666666" points="69.25,-26 0,-26 0,-6 69.25,-6 69.25,-26"/>
<text text-anchor="middle" x="34.62" y="-12.5" font-family="Helvetica,sans-Serif" font-size="10.00">adc_types.h</text>
</a>
</g>
</g>
<!-- Node6&#45;&gt;Node8 -->
<g id="edge9_Node000006_Node000008" class="edge">
<title>Node6&#45;&gt;Node8</title>
<g id="a_edge9_Node000006_Node000008"><a xlink:title=" ">
<path fill="none" stroke="#63b8ff" d="M34.62,-123.51C34.62,-104.72 34.62,-62.44 34.62,-37.16"/>
<polygon fill="#63b8ff" stroke="#63b8ff" points="38.13,-37.3 34.62,-27.3 31.13,-37.3 38.13,-37.3"/>
</a>
</g>
</g>
<!-- Node9 -->
<g id="Node000009" class="node">
<title>Node9</title>
<g id="a_Node000009"><a xlink:href="a00068_source.html" target="_top" xlink:title=" ">
<polygon fill="white" stroke="#666666" points="175.62,-88 93.62,-88 93.62,-68 175.62,-68 175.62,-88"/>
<text text-anchor="middle" x="134.62" y="-74.5" font-family="Helvetica,sans-Serif" font-size="10.00">adc_interface.h</text>
</a>
</g>
</g>
<!-- Node6&#45;&gt;Node9 -->
<g id="edge10_Node000006_Node000009" class="edge">
<title>Node6&#45;&gt;Node9</title>
<g id="a_edge10_Node000006_Node000009"><a xlink:title=" ">
<path fill="none" stroke="#63b8ff" d="M52.04,-123.59C67.44,-115.28 90.12,-103.03 107.83,-93.47"/>
<polygon fill="#63b8ff" stroke="#63b8ff" points="108.93,-96.31 116.07,-88.48 105.61,-90.15 108.93,-96.31"/>
</a>
</g>
</g>
<!-- Node9&#45;&gt;Node4 -->
<g id="edge12_Node000009_Node000004" class="edge">
<title>Node9&#45;&gt;Node4</title>
<g id="a_edge12_Node000009_Node000004"><a xlink:title=" ">
<path fill="none" stroke="#63b8ff" d="M175.86,-71.78C266.27,-60.34 480.92,-33.17 569.43,-21.96"/>
<polygon fill="#63b8ff" stroke="#63b8ff" points="569.84,-25.31 579.32,-20.58 568.96,-18.37 569.84,-25.31"/>
</a>
</g>
</g>
<!-- Node9&#45;&gt;Node7 -->
<g id="edge11_Node000009_Node000007" class="edge">
<title>Node9&#45;&gt;Node7</title>
<g id="a_edge11_Node000009_Node000007"><a xlink:title=" ">
<path fill="none" stroke="#63b8ff" d="M156.5,-67.62C179.72,-57.67 216.63,-41.85 243.01,-30.55"/>
<polygon fill="#63b8ff" stroke="#63b8ff" points="244.09,-33.47 251.9,-26.31 241.33,-27.03 244.09,-33.47"/>
</a>
</g>
</g>
<!-- Node9&#45;&gt;Node8 -->
<g id="edge13_Node000009_Node000008" class="edge">
<title>Node9&#45;&gt;Node8</title>
<g id="a_edge13_Node000009_Node000008"><a xlink:title=" ">
<path fill="none" stroke="#63b8ff" d="M119,-67.62C103.08,-58.07 78.13,-43.11 59.49,-31.92"/>
<polygon fill="#63b8ff" stroke="#63b8ff" points="61.52,-28.45 51.14,-26.31 57.91,-34.46 61.52,-28.45"/>
</a>
</g>
</g>
<!-- Node10 -->
<g id="Node000010" class="node">
<title>Node10</title>
<g id="a_Node000010"><a xlink:href="a00143_source.html" target="_top" xlink:title=" ">
<polygon fill="white" stroke="#666666" points="182.38,-32 86.88,-32 86.88,0 182.38,0 182.38,-32"/>
<text text-anchor="start" x="94.88" y="-18.5" font-family="Helvetica,sans-Serif" font-size="10.00">../system/interrupt</text>
<text text-anchor="middle" x="134.62" y="-6.5" font-family="Helvetica,sans-Serif" font-size="10.00">_types.h</text>
</a>
</g>
</g>
<!-- Node9&#45;&gt;Node10 -->
<g id="edge14_Node000009_Node000010" class="edge">
<title>Node9&#45;&gt;Node10</title>
<g id="a_edge14_Node000009_Node000010"><a xlink:title=" ">
<path fill="none" stroke="#63b8ff" d="M134.62,-67.62C134.62,-61.02 134.62,-51.84 134.62,-43.11"/>
<polygon fill="#63b8ff" stroke="#63b8ff" points="138.13,-43.14 134.62,-33.14 131.13,-43.14 138.13,-43.14"/>
</a>
</g>
</g>
<!-- Node11&#45;&gt;Node2 -->
<g id="edge16_Node000011_Node000002" class="edge">
<title>Node11&#45;&gt;Node2</title>
<g id="a_edge16_Node000011_Node000002"><a xlink:title=" ">
<path fill="none" stroke="#63b8ff" d="M99.07,-291.73C91.65,-262.56 73.37,-171.7 118.62,-124 155.9,-84.72 306.73,-99.57 359.62,-88 360.58,-87.79 361.56,-87.57 362.53,-87.33"/>
<polygon fill="#63b8ff" stroke="#63b8ff" points="363.26,-90.5 372.03,-84.55 361.46,-83.73 363.26,-90.5"/>
</a>
</g>
</g>
<!-- Node12&#45;&gt;Node3 -->
<g id="edge26_Node000012_Node000003" class="edge">
<title>Node12&#45;&gt;Node3</title>
<g id="a_edge26_Node000012_Node000003"><a xlink:title=" ">
<path fill="none" stroke="#63b8ff" d="M357.21,-291.6C327.1,-264.44 239.71,-185.6 201.67,-151.28"/>
<polygon fill="#63b8ff" stroke="#63b8ff" points="204.7,-149.4 194.93,-145.3 200.01,-154.59 204.7,-149.4"/>
</a>
</g>
</g>
<!-- Node13 -->
<g id="Node000013" class="node">
<title>Node13</title>
<g id="a_Node000013"><a xlink:href="a00416_source.html" target="_top" xlink:title=" ">
<polygon fill="white" stroke="#666666" points="417.38,-200 327.88,-200 327.88,-180 417.38,-180 417.38,-200"/>
<text text-anchor="middle" x="372.62" y="-186.5" font-family="Helvetica,sans-Serif" font-size="10.00">pwrctrl_typedef.h</text>
</a>
</g>
</g>
<!-- Node12&#45;&gt;Node13 -->
<g id="edge18_Node000012_Node000013" class="edge">
<title>Node12&#45;&gt;Node13</title>
<g id="a_edge18_Node000012_Node000013"><a xlink:title=" ">
<path fill="none" stroke="#63b8ff" d="M364.07,-291.74C359.68,-279.13 353.2,-255.85 356.62,-236 358.12,-227.34 361.12,-218.13 364.12,-210.32"/>
<polygon fill="#63b8ff" stroke="#63b8ff" points="367.64,-211.98 368.21,-201.4 361.17,-209.31 367.64,-211.98"/>
</a>
</g>
</g>
<!-- Node16 -->
<g id="Node000016" class="node">
<title>Node16</title>
<g id="a_Node000016"><a xlink:href="a00395.html" target="_top" xlink:title="Contains public functions relevant for power control communication interface.">
<polygon fill="white" stroke="#666666" points="606.12,-256 479.12,-256 479.12,-236 606.12,-236 606.12,-256"/>
<text text-anchor="middle" x="542.62" y="-242.5" font-family="Helvetica,sans-Serif" font-size="10.00">pwrctrl_comm_interface.h</text>
</a>
</g>
</g>
<!-- Node12&#45;&gt;Node16 -->
<g id="edge23_Node000012_Node000016" class="edge">
<title>Node12&#45;&gt;Node16</title>
<g id="a_edge23_Node000012_Node000016"><a xlink:title=" ">
<path fill="none" stroke="#63b8ff" d="M394.2,-292.8C422.76,-283.99 468.51,-269.87 501.67,-259.64"/>
<polygon fill="#63b8ff" stroke="#63b8ff" points="502.44,-262.76 510.96,-256.46 500.37,-256.07 502.44,-262.76"/>
</a>
</g>
</g>
<!-- Node17 -->
<g id="Node000017" class="node">
<title>Node17</title>
<g id="a_Node000017"><a xlink:href="a00389.html" target="_top" xlink:title="Contains the power control reusable functions.">
<polygon fill="white" stroke="#666666" points="461.38,-256 365.88,-256 365.88,-236 461.38,-236 461.38,-256"/>
<text text-anchor="middle" x="413.62" y="-242.5" font-family="Helvetica,sans-Serif" font-size="10.00">pwrctrl_common.h</text>
</a>
</g>
</g>
<!-- Node12&#45;&gt;Node17 -->
<g id="edge24_Node000012_Node000017" class="edge">
<title>Node12&#45;&gt;Node17</title>
<g id="a_edge24_Node000012_Node000017"><a xlink:title=" ">
<path fill="none" stroke="#63b8ff" d="M375.64,-291.59C381.97,-284.16 390.99,-273.58 398.65,-264.58"/>
<polygon fill="#63b8ff" stroke="#63b8ff" points="401.88,-267.18 405.7,-257.3 396.56,-262.64 401.88,-267.18"/>
</a>
</g>
</g>
<!-- Node14 -->
<g id="Node000014" class="node">
<title>Node14</title>
<g id="a_Node000014"><a xlink:href="a00317.html" target="_top" xlink:title="Contains fault data types.">
<polygon fill="white" stroke="#666666" points="324.62,-144 224.62,-144 224.62,-124 324.62,-124 324.62,-144"/>
<text text-anchor="middle" x="274.62" y="-130.5" font-family="Helvetica,sans-Serif" font-size="10.00">fault/fault_typedef.h</text>
</a>
</g>
</g>
<!-- Node13&#45;&gt;Node14 -->
<g id="edge19_Node000013_Node000014" class="edge">
<title>Node13&#45;&gt;Node14</title>
<g id="a_edge19_Node000013_Node000014"><a xlink:title=" ">
<path fill="none" stroke="#63b8ff" d="M355.55,-179.59C340.61,-171.36 318.65,-159.26 301.37,-149.74"/>
<polygon fill="#63b8ff" stroke="#63b8ff" points="303.28,-146.24 292.83,-144.48 299.9,-152.37 303.28,-146.24"/>
</a>
</g>
</g>
<!-- Node15 -->
<g id="Node000015" class="node">
<title>Node15</title>
<g id="a_Node000015"><a xlink:href="a00308.html" target="_top" xlink:title="Contains fault generic public functions.">
<polygon fill="white" stroke="#666666" points="317.12,-88 232.12,-88 232.12,-68 317.12,-68 317.12,-88"/>
<text text-anchor="middle" x="274.62" y="-74.5" font-family="Helvetica,sans-Serif" font-size="10.00">fault_common.h</text>
</a>
</g>
</g>
<!-- Node14&#45;&gt;Node15 -->
<g id="edge20_Node000014_Node000015" class="edge">
<title>Node14&#45;&gt;Node15</title>
<g id="a_edge20_Node000014_Node000015"><a xlink:title=" ">
<path fill="none" stroke="#63b8ff" d="M274.62,-123.59C274.62,-116.86 274.62,-107.53 274.62,-99.15"/>
<polygon fill="#63b8ff" stroke="#63b8ff" points="278.13,-99.3 274.62,-89.3 271.13,-99.3 278.13,-99.3"/>
</a>
</g>
</g>
<!-- Node15&#45;&gt;Node4 -->
<g id="edge22_Node000015_Node000004" class="edge">
<title>Node15&#45;&gt;Node4</title>
<g id="a_edge22_Node000015_Node000004"><a xlink:title=" ">
<path fill="none" stroke="#63b8ff" d="M317.61,-69.28C383.09,-57.51 506.87,-35.28 569.79,-23.98"/>
<polygon fill="#63b8ff" stroke="#63b8ff" points="570.21,-27.28 579.44,-22.06 568.98,-20.39 570.21,-27.28"/>
</a>
</g>
</g>
<!-- Node15&#45;&gt;Node7 -->
<g id="edge21_Node000015_Node000007" class="edge">
<title>Node15&#45;&gt;Node7</title>
<g id="a_edge21_Node000015_Node000007"><a xlink:title=" ">
<path fill="none" stroke="#63b8ff" d="M274.62,-67.62C274.62,-59.48 274.62,-47.39 274.62,-37.07"/>
<polygon fill="#63b8ff" stroke="#63b8ff" points="278.13,-37.11 274.62,-27.11 271.13,-37.11 278.13,-37.11"/>
</a>
</g>
</g>
<!-- Node17&#45;&gt;Node13 -->
<g id="edge25_Node000017_Node000013" class="edge">
<title>Node17&#45;&gt;Node13</title>
<g id="a_edge25_Node000017_Node000013"><a xlink:title=" ">
<path fill="none" stroke="#63b8ff" d="M406.48,-235.59C400.9,-228.24 392.97,-217.8 386.19,-208.87"/>
<polygon fill="#63b8ff" stroke="#63b8ff" points="388.52,-207.15 379.68,-201.3 382.94,-211.38 388.52,-207.15"/>
</a>
</g>
</g>
<!-- Node18&#45;&gt;Node13 -->
<g id="edge36_Node000018_Node000013" class="edge">
<title>Node18&#45;&gt;Node13</title>
<g id="a_edge36_Node000018_Node000013"><a xlink:title=" ">
<path fill="none" stroke="#63b8ff" d="M627.92,-238.44C623.78,-237.61 619.6,-236.78 615.62,-236 551.42,-223.49 477.49,-209.92 428.21,-200.99"/>
<polygon fill="#63b8ff" stroke="#63b8ff" points="428.92,-197.38 418.46,-199.04 427.68,-204.27 428.92,-197.38"/>
</a>
</g>
</g>
<!-- Node18&#45;&gt;Node18 -->
<g id="edge35_Node000018_Node000018" class="edge">
<title>Node18&#45;&gt;Node18</title>
<g id="a_edge35_Node000018_Node000018"><a xlink:title=" ">
<path fill="none" stroke="#63b8ff" d="M691.6,-256.49C701.49,-256.28 709.25,-252.78 709.25,-246 709.25,-241.97 706.51,-239.11 702.22,-237.39"/>
<polygon fill="#63b8ff" stroke="#63b8ff" points="703.06,-233.81 692.6,-235.51 701.84,-240.7 703.06,-233.81"/>
</a>
</g>
</g>
<!-- Node19 -->
<g id="Node000019" class="node">
<title>Node19</title>
<g id="a_Node000019"><a xlink:title=" ">
<polygon fill="#e0e0e0" stroke="#999999" points="813.88,-88 763.38,-88 763.38,-68 813.88,-68 813.88,-88"/>
<text text-anchor="middle" x="788.62" y="-74.5" font-family="Helvetica,sans-Serif" font-size="10.00">stddef.h</text>
</a>
</g>
</g>
<!-- Node18&#45;&gt;Node19 -->
<g id="edge28_Node000018_Node000019" class="edge">
<title>Node18&#45;&gt;Node19</title>
<g id="a_edge28_Node000018_Node000019"><a xlink:title=" ">
<path fill="none" stroke="#63b8ff" d="M670.66,-235.6C689.95,-218.75 730.25,-181.63 756.62,-144 766.66,-129.68 775.24,-111.73 780.98,-98.33"/>
<polygon fill="#63b8ff" stroke="#63b8ff" points="784.53,-99.9 785.1,-89.32 778.06,-97.23 784.53,-99.9"/>
</a>
</g>
</g>
<!-- Node20 -->
<g id="Node000020" class="node">
<title>Node20</title>
<g id="a_Node000020"><a xlink:href="a00095.html" target="_top" xlink:title="This is the generated driver header file for the CMP3 driver.">
<polygon fill="white" stroke="#666666" points="909.62,-200 839.62,-200 839.62,-180 909.62,-180 909.62,-200"/>
<text text-anchor="middle" x="874.62" y="-186.5" font-family="Helvetica,sans-Serif" font-size="10.00">cmp/cmp3.h</text>
</a>
</g>
</g>
<!-- Node18&#45;&gt;Node20 -->
<g id="edge29_Node000018_Node000020" class="edge">
<title>Node18&#45;&gt;Node20</title>
<g id="a_edge29_Node000018_Node000020"><a xlink:title=" ">
<path fill="none" stroke="#63b8ff" d="M691.35,-237.03C727.59,-227.93 787.21,-212.95 828.57,-202.57"/>
<polygon fill="#63b8ff" stroke="#63b8ff" points="829.34,-205.73 838.19,-199.9 827.64,-198.94 829.34,-205.73"/>
</a>
</g>
</g>
<!-- Node22 -->
<g id="Node000022" class="node">
<title>Node22</title>
<g id="a_Node000022"><a xlink:href="a00248_source.html" target="_top" xlink:title=" ">
<polygon fill="white" stroke="#666666" points="722.75,-144 644.5,-144 644.5,-124 722.75,-124 722.75,-144"/>
<text text-anchor="middle" x="683.62" y="-130.5" font-family="Helvetica,sans-Serif" font-size="10.00">config/config.h</text>
</a>
</g>
</g>
<!-- Node18&#45;&gt;Node22 -->
<g id="edge37_Node000018_Node000022" class="edge">
<title>Node18&#45;&gt;Node22</title>
<g id="a_edge37_Node000018_Node000022"><a xlink:title=" ">
<path fill="none" stroke="#63b8ff" d="M661.67,-235.62C665.55,-217.84 674.05,-178.88 679.26,-155"/>
<polygon fill="#63b8ff" stroke="#63b8ff" points="682.87,-155.87 681.58,-145.35 676.03,-154.38 682.87,-155.87"/>
</a>
</g>
</g>
<!-- Node23 -->
<g id="Node000023" class="node">
<title>Node23</title>
<g id="a_Node000023"><a xlink:href="a00254_source.html" target="_top" xlink:title=" ">
<polygon fill="white" stroke="#666666" points="577.12,-200 492.12,-200 492.12,-180 577.12,-180 577.12,-200"/>
<text text-anchor="middle" x="534.62" y="-186.5" font-family="Helvetica,sans-Serif" font-size="10.00">config/macros.h</text>
</a>
</g>
</g>
<!-- Node18&#45;&gt;Node23 -->
<g id="edge42_Node000018_Node000023" class="edge">
<title>Node18&#45;&gt;Node23</title>
<g id="a_edge42_Node000018_Node000023"><a xlink:title=" ">
<path fill="none" stroke="#63b8ff" d="M637.85,-235.59C618.17,-227.09 588.93,-214.46 566.6,-204.81"/>
<polygon fill="#63b8ff" stroke="#63b8ff" points="568.14,-201.23 557.57,-200.48 565.36,-207.66 568.14,-201.23"/>
</a>
</g>
</g>
<!-- Node20&#45;&gt;Node4 -->
<g id="edge31_Node000020_Node000004" class="edge">
<title>Node20&#45;&gt;Node4</title>
<g id="a_edge31_Node000020_Node000004"><a xlink:title=" ">
<path fill="none" stroke="#63b8ff" d="M901.75,-179.51C928.65,-168.46 963.95,-148.56 949.62,-124 924.16,-80.33 897.91,-85.87 850.62,-68 781.69,-41.95 696.41,-27.91 647.69,-21.48"/>
<polygon fill="#63b8ff" stroke="#63b8ff" points="648.36,-17.91 638,-20.11 647.47,-24.85 648.36,-17.91"/>
</a>
</g>
</g>
<!-- Node20&#45;&gt;Node19 -->
<g id="edge30_Node000020_Node000019" class="edge">
<title>Node20&#45;&gt;Node19</title>
<g id="a_edge30_Node000020_Node000019"><a xlink:title=" ">
<path fill="none" stroke="#63b8ff" d="M867.29,-179.62C852.95,-161.27 820.97,-120.37 802.5,-96.75"/>
<polygon fill="#63b8ff" stroke="#63b8ff" points="804.86,-95.08 795.94,-89.35 799.34,-99.39 804.86,-95.08"/>
</a>
</g>
</g>
<!-- Node21 -->
<g id="Node000021" class="node">
<title>Node21</title>
<g id="a_Node000021"><a xlink:href="a00098_source.html" target="_top" xlink:title=" ">
<polygon fill="white" stroke="#666666" points="940.12,-144 855.12,-144 855.12,-124 940.12,-124 940.12,-144"/>
<text text-anchor="middle" x="897.62" y="-130.5" font-family="Helvetica,sans-Serif" font-size="10.00">cmp_interface.h</text>
</a>
</g>
</g>
<!-- Node20&#45;&gt;Node21 -->
<g id="edge32_Node000020_Node000021" class="edge">
<title>Node20&#45;&gt;Node21</title>
<g id="a_edge32_Node000020_Node000021"><a xlink:title=" ">
<path fill="none" stroke="#63b8ff" d="M878.63,-179.59C881.6,-172.63 885.75,-162.89 889.41,-154.29"/>
<polygon fill="#63b8ff" stroke="#63b8ff" points="892.97,-155.87 893.66,-145.3 886.53,-153.13 892.97,-155.87"/>
</a>
</g>
</g>
<!-- Node21&#45;&gt;Node4 -->
<g id="edge33_Node000021_Node000004" class="edge">
<title>Node21&#45;&gt;Node4</title>
<g id="a_edge33_Node000021_Node000004"><a xlink:title=" ">
<path fill="none" stroke="#63b8ff" d="M889.86,-123.9C877.24,-109.72 850.83,-82.47 822.62,-68 765.89,-38.89 692.13,-26.06 647.69,-20.65"/>
<polygon fill="#63b8ff" stroke="#63b8ff" points="648.11,-17.06 637.78,-19.4 647.31,-24.02 648.11,-17.06"/>
</a>
</g>
</g>
<!-- Node21&#45;&gt;Node19 -->
<g id="edge34_Node000021_Node000019" class="edge">
<title>Node21&#45;&gt;Node19</title>
<g id="a_edge34_Node000021_Node000019"><a xlink:title=" ">
<path fill="none" stroke="#63b8ff" d="M878.64,-123.59C861.78,-115.24 836.9,-102.92 817.57,-93.34"/>
<polygon fill="#63b8ff" stroke="#63b8ff" points="819.27,-89.78 808.76,-88.48 816.17,-96.05 819.27,-89.78"/>
</a>
</g>
</g>
<!-- Node22&#45;&gt;Node2 -->
<g id="edge38_Node000022_Node000002" class="edge">
<title>Node22&#45;&gt;Node2</title>
<g id="a_edge38_Node000022_Node000002"><a xlink:title=" ">
<path fill="none" stroke="#63b8ff" d="M644.07,-125.57C641.22,-125.04 638.38,-124.51 635.62,-124 557.23,-109.45 464.67,-92.52 419.02,-84.18"/>
<polygon fill="#63b8ff" stroke="#63b8ff" points="419.92,-80.61 409.46,-82.25 418.67,-87.49 419.92,-80.61"/>
</a>
</g>
</g>
<!-- Node22&#45;&gt;Node4 -->
<g id="edge40_Node000022_Node000004" class="edge">
<title>Node22&#45;&gt;Node4</title>
<g id="a_edge40_Node000022_Node000004"><a xlink:title=" ">
<path fill="none" stroke="#63b8ff" d="M677.49,-123.51C665.07,-104.29 636.75,-60.5 620.57,-35.47"/>
<polygon fill="#63b8ff" stroke="#63b8ff" points="623.01,-33.8 614.64,-27.3 617.13,-37.6 623.01,-33.8"/>
</a>
</g>
</g>
<!-- Node22&#45;&gt;Node7 -->
<g id="edge39_Node000022_Node000007" class="edge">
<title>Node22&#45;&gt;Node7</title>
<g id="a_edge39_Node000022_Node000007"><a xlink:title=" ">
<path fill="none" stroke="#63b8ff" d="M661.59,-123.52C629.05,-109.81 566.03,-84.3 510.62,-68 440.41,-47.34 356.19,-31.14 309.73,-22.92"/>
<polygon fill="#63b8ff" stroke="#63b8ff" points="310.49,-19.33 300.04,-21.06 309.29,-26.23 310.49,-19.33"/>
</a>
</g>
</g>
<!-- Node22&#45;&gt;Node19 -->
<g id="edge41_Node000022_Node000019" class="edge">
<title>Node22&#45;&gt;Node19</title>
<g id="a_edge41_Node000022_Node000019"><a xlink:title=" ">
<path fill="none" stroke="#63b8ff" d="M701.91,-123.59C718.08,-115.28 741.9,-103.03 760.49,-93.47"/>
<polygon fill="#63b8ff" stroke="#63b8ff" points="761.9,-96.17 769.19,-88.48 758.7,-89.94 761.9,-96.17"/>
</a>
</g>
</g>
<!-- Node23&#45;&gt;Node2 -->
<g id="edge43_Node000023_Node000002" class="edge">
<title>Node23&#45;&gt;Node2</title>
<g id="a_edge43_Node000023_Node000002"><a xlink:title=" ">
<path fill="none" stroke="#63b8ff" d="M522.35,-179.62C497.69,-160.79 441.92,-118.18 411.45,-94.91"/>
<polygon fill="#63b8ff" stroke="#63b8ff" points="413.94,-91.64 403.87,-88.35 409.69,-97.21 413.94,-91.64"/>
</a>
</g>
</g>
<!-- Node23&#45;&gt;Node3 -->
<g id="edge47_Node000023_Node000003" class="edge">
<title>Node23&#45;&gt;Node3</title>
<g id="a_edge47_Node000023_Node000003"><a xlink:title=" ">
<path fill="none" stroke="#63b8ff" d="M491.74,-184.8C432.24,-178.56 321.15,-165.47 217.59,-144.17"/>
<polygon fill="#63b8ff" stroke="#63b8ff" points="218.46,-140.57 207.95,-141.95 217.03,-147.42 218.46,-140.57"/>
</a>
</g>
</g>
<!-- Node23&#45;&gt;Node4 -->
<g id="edge45_Node000023_Node000004" class="edge">
<title>Node23&#45;&gt;Node4</title>
<g id="a_edge45_Node000023_Node000004"><a xlink:title=" ">
<path fill="none" stroke="#63b8ff" d="M536.79,-179.55C539.85,-166.73 545.96,-143.22 553.62,-124 566.4,-91.97 585.58,-56.75 597.58,-35.77"/>
<polygon fill="#63b8ff" stroke="#63b8ff" points="601,-37.86 602.99,-27.45 594.94,-34.35 601,-37.86"/>
</a>
</g>
</g>
<!-- Node23&#45;&gt;Node7 -->
<g id="edge44_Node000023_Node000007" class="edge">
<title>Node23&#45;&gt;Node7</title>
<g id="a_edge44_Node000023_Node000007"><a xlink:title=" ">
<path fill="none" stroke="#63b8ff" d="M528.08,-179.58C511.88,-156.93 467.47,-99.03 416.62,-68 382.77,-47.34 339.29,-33.28 309.41,-25.24"/>
<polygon fill="#63b8ff" stroke="#63b8ff" points="310.62,-21.68 300.06,-22.55 308.86,-28.45 310.62,-21.68"/>
</a>
</g>
</g>
<!-- Node23&#45;&gt;Node19 -->
<g id="edge46_Node000023_Node000019" class="edge">
<title>Node23&#45;&gt;Node19</title>
<g id="a_edge46_Node000023_Node000019"><a xlink:title=" ">
<path fill="none" stroke="#63b8ff" d="M577.41,-186.82C619.32,-183.01 683.72,-172.57 731.62,-144 751.08,-132.4 767.41,-111.88 777.54,-96.99"/>
<polygon fill="#63b8ff" stroke="#63b8ff" points="780.75,-99.47 783.26,-89.18 774.88,-95.66 780.75,-99.47"/>
</a>
</g>
</g>
<!-- Node23&#45;&gt;Node22 -->
<g id="edge50_Node000023_Node000022" class="edge">
<title>Node23&#45;&gt;Node22</title>
<g id="a_edge50_Node000023_Node000022"><a xlink:title=" ">
<path fill="none" stroke="#63b8ff" d="M560.58,-179.59C584.57,-170.9 620.47,-157.89 647.31,-148.16"/>
<polygon fill="#63b8ff" stroke="#63b8ff" points="648.26,-151.18 656.47,-144.48 645.87,-144.6 648.26,-151.18"/>
</a>
</g>
</g>
<!-- Node24 -->
<g id="Node000024" class="node">
<title>Node24</title>
<g id="a_Node000024"><a xlink:href="a00257_source.html" target="_top" xlink:title=" ">
<polygon fill="white" stroke="#666666" points="430.25,-144 343,-144 343,-124 430.25,-124 430.25,-144"/>
<text text-anchor="middle" x="386.62" y="-130.5" font-family="Helvetica,sans-Serif" font-size="10.00">useful_macros.h</text>
</a>
</g>
</g>
<!-- Node23&#45;&gt;Node24 -->
<g id="edge48_Node000023_Node000024" class="edge">
<title>Node23&#45;&gt;Node24</title>
<g id="a_edge48_Node000023_Node000024"><a xlink:title=" ">
<path fill="none" stroke="#63b8ff" d="M508.85,-179.59C485.01,-170.9 449.35,-157.89 422.7,-148.16"/>
<polygon fill="#63b8ff" stroke="#63b8ff" points="424.2,-144.62 413.61,-144.48 421.8,-151.2 424.2,-144.62"/>
</a>
</g>
</g>
<!-- Node25 -->
<g id="Node000025" class="node">
<title>Node25</title>
<g id="a_Node000025"><a xlink:href="a00251_source.html" target="_top" xlink:title=" ">
<polygon fill="white" stroke="#666666" points="626.25,-144 563,-144 563,-124 626.25,-124 626.25,-144"/>
<text text-anchor="middle" x="594.62" y="-130.5" font-family="Helvetica,sans-Serif" font-size="10.00">hardware.h</text>
</a>
</g>
</g>
<!-- Node23&#45;&gt;Node25 -->
<g id="edge51_Node000023_Node000025" class="edge">
<title>Node23&#45;&gt;Node25</title>
<g id="a_edge51_Node000023_Node000025"><a xlink:title=" ">
<path fill="none" stroke="#63b8ff" d="M545.08,-179.59C553.68,-171.85 566.08,-160.69 576.33,-151.47"/>
<polygon fill="#63b8ff" stroke="#63b8ff" points="578.2,-154.59 583.29,-145.3 573.52,-149.39 578.2,-154.59"/>
</a>
</g>
</g>
<!-- Node24&#45;&gt;Node2 -->
<g id="edge49_Node000024_Node000002" class="edge">
<title>Node24&#45;&gt;Node2</title>
<g id="a_edge49_Node000024_Node000002"><a xlink:title=" ">
<path fill="none" stroke="#63b8ff" d="M387.32,-123.59C387.82,-116.86 388.51,-107.53 389.13,-99.15"/>
<polygon fill="#63b8ff" stroke="#63b8ff" points="392.69,-99.53 389.94,-89.3 385.71,-99.01 392.69,-99.53"/>
</a>
</g>
</g>
<!-- Node26&#45;&gt;Node12 -->
<g id="edge54_Node000026_Node000012" class="edge">
<title>Node26&#45;&gt;Node12</title>
<g id="a_edge54_Node000026_Node000012"><a xlink:title=" ">
<path fill="none" stroke="#63b8ff" d="M333.77,-347.59C339.35,-340.24 347.28,-329.8 354.06,-320.87"/>
<polygon fill="#63b8ff" stroke="#63b8ff" points="357.31,-323.38 360.57,-313.3 351.73,-319.15 357.31,-323.38"/>
</a>
</g>
</g>
<!-- Node26&#45;&gt;Node13 -->
<g id="edge53_Node000026_Node000013" class="edge">
<title>Node26&#45;&gt;Node13</title>
<g id="a_edge53_Node000026_Node000013"><a xlink:title=" ">
<path fill="none" stroke="#63b8ff" d="M326.8,-347.64C327.2,-334.92 328.48,-311.51 332.62,-292 338.09,-266.29 341.83,-260.39 351.62,-236 355.11,-227.31 359.42,-217.89 363.23,-209.93"/>
<polygon fill="#63b8ff" stroke="#63b8ff" points="366.75,-211.7 367.98,-201.18 360.45,-208.63 366.75,-211.7"/>
</a>
</g>
</g>
</g>
</svg>
