<?xml version="1.0" encoding="UTF-8" standalone="no"?>
<!DOCTYPE svg PUBLIC "-//W3C//DTD SVG 1.1//EN"
 "http://www.w3.org/Graphics/SVG/1.1/DTD/svg11.dtd">
<!-- Generated by graphviz version 8.1.0 (20230707.0739)
 -->
<!-- Title: SMPS_Controller3P3ZUpdate Pages: 1 -->
<svg width="581pt" height="40pt"
 viewBox="0.00 0.00 581.25 40.00" xmlns="http://www.w3.org/2000/svg" xmlns:xlink="http://www.w3.org/1999/xlink">
<g id="graph0" class="graph" transform="scale(1 1) rotate(0) translate(4 36)">
<title>SMPS_Controller3P3ZUpdate</title>
<!-- Node1 -->
<g id="Node000001" class="node">
<title>Node1</title>
<g id="a_Node000001"><a xlink:title=" ">
<polygon fill="#999999" stroke="#666666" points="573.25,-26 429,-26 429,-6 573.25,-6 573.25,-26"/>
<text text-anchor="middle" x="501.12" y="-12.5" font-family="Helvetica,sans-Serif" font-size="10.00">SMPS_Controller3P3ZUpdate</text>
</a>
</g>
</g>
<!-- Node2 -->
<g id="Node000002" class="node">
<title>Node2</title>
<g id="a_Node000002"><a xlink:href="a00435.html#ga2eeebdb0cef4bbfeed446752525dd879" target="_top" xlink:title="Executes the power converter control loop.">
<polygon fill="white" stroke="#666666" points="393,-26 252.5,-26 252.5,-6 393,-6 393,-26"/>
<text text-anchor="middle" x="322.75" y="-12.5" font-family="Helvetica,sans-Serif" font-size="10.00">PwrCtrl_ControlLoopExecute</text>
</a>
</g>
</g>
<!-- Node1&#45;&gt;Node2 -->
<g id="edge1_Node000001_Node000002" class="edge">
<title>Node1&#45;&gt;Node2</title>
<g id="a_edge1_Node000001_Node000002"><a xlink:title=" ">
<path fill="none" stroke="#63b8ff" d="M417.9,-16C409.69,-16 401.4,-16 393.33,-16"/>
<polygon fill="#63b8ff" stroke="#63b8ff" points="417.64,-19.5 427.64,-16 417.64,-12.5 417.64,-19.5"/>
</a>
</g>
</g>
<!-- Node3 -->
<g id="Node000003" class="node">
<title>Node3</title>
<g id="a_Node000003"><a xlink:href="a00435.html#gae32c9e5ed4d1fb98fc13b26601782c10" target="_top" xlink:title="Executes the power converter control loop.">
<polygon fill="white" stroke="#666666" points="216.5,-32 108.25,-32 108.25,0 216.5,0 216.5,-32"/>
<text text-anchor="start" x="116.25" y="-18.5" font-family="Helvetica,sans-Serif" font-size="10.00">ControlLoop_Interrupt</text>
<text text-anchor="middle" x="162.38" y="-6.5" font-family="Helvetica,sans-Serif" font-size="10.00">_CallBack</text>
</a>
</g>
</g>
<!-- Node2&#45;&gt;Node3 -->
<g id="edge2_Node000002_Node000003" class="edge">
<title>Node2&#45;&gt;Node3</title>
<g id="a_edge2_Node000002_Node000003"><a xlink:title=" ">
<path fill="none" stroke="#63b8ff" d="M241.29,-16C232.92,-16 224.56,-16 216.59,-16"/>
<polygon fill="#63b8ff" stroke="#63b8ff" points="241.28,-19.5 251.28,-16 241.28,-12.5 241.28,-19.5"/>
</a>
</g>
</g>
<!-- Node4 -->
<g id="Node000004" class="node">
<title>Node4</title>
<g id="a_Node000004"><a xlink:href="a00435.html#ga2068c3c2584547dbc1c8b9bca2d55b18" target="_top" xlink:title="Executes the power converter control loop.">
<polygon fill="white" stroke="#666666" points="72.25,-26 0,-26 0,-6 72.25,-6 72.25,-26"/>
<text text-anchor="middle" x="36.12" y="-12.5" font-family="Helvetica,sans-Serif" font-size="10.00">__attribute__</text>
</a>
</g>
</g>
<!-- Node3&#45;&gt;Node4 -->
<g id="edge3_Node000003_Node000004" class="edge">
<title>Node3&#45;&gt;Node4</title>
<g id="a_edge3_Node000003_Node000004"><a xlink:title=" ">
<path fill="none" stroke="#63b8ff" d="M97.23,-16C88.74,-16 80.31,-16 72.55,-16"/>
<polygon fill="#63b8ff" stroke="#63b8ff" points="96.96,-19.5 106.96,-16 96.96,-12.5 96.96,-19.5"/>
</a>
</g>
</g>
</g>
</svg>
