<?xml version="1.0" encoding="UTF-8" standalone="no"?>
<!DOCTYPE svg PUBLIC "-//W3C//DTD SVG 1.1//EN"
 "http://www.w3.org/Graphics/SVG/1.1/DTD/svg11.dtd">
<!-- Generated by graphviz version 8.1.0 (20230707.0739)
 -->
<!-- Title: psfb_droop.X/sources/fault/fault_typedef.h Pages: 1 -->
<svg width="1480pt" height="484pt"
 viewBox="0.00 0.00 1480.07 484.00" xmlns="http://www.w3.org/2000/svg" xmlns:xlink="http://www.w3.org/1999/xlink">
<g id="graph0" class="graph" transform="scale(1 1) rotate(0) translate(4 480)">
<title>psfb_droop.X/sources/fault/fault_typedef.h</title>
<!-- Node1 -->
<g id="Node000001" class="node">
<title>Node1</title>
<g id="a_Node000001"><a xlink:title="Contains fault data types.">
<polygon fill="#999999" stroke="#666666" points="818.19,-476 709.19,-476 709.19,-444 818.19,-444 818.19,-476"/>
<text text-anchor="start" x="717.19" y="-462.5" font-family="Helvetica,sans-Serif" font-size="10.00">psfb_droop.X/sources</text>
<text text-anchor="middle" x="763.69" y="-450.5" font-family="Helvetica,sans-Serif" font-size="10.00">/fault/fault_typedef.h</text>
</a>
</g>
</g>
<!-- Node2 -->
<g id="Node000002" class="node">
<title>Node2</title>
<g id="a_Node000002"><a xlink:href="a00416_source.html" target="_top" xlink:title=" ">
<polygon fill="white" stroke="#666666" points="825.69,-408 701.69,-408 701.69,-376 825.69,-376 825.69,-408"/>
<text text-anchor="start" x="709.69" y="-394.5" font-family="Helvetica,sans-Serif" font-size="10.00">psfb_droop.X/sources</text>
<text text-anchor="middle" x="763.69" y="-382.5" font-family="Helvetica,sans-Serif" font-size="10.00">/pwrctrl/pwrctrl_typedef.h</text>
</a>
</g>
</g>
<!-- Node1&#45;&gt;Node2 -->
<g id="edge1_Node000001_Node000002" class="edge">
<title>Node1&#45;&gt;Node2</title>
<g id="a_edge1_Node000001_Node000002"><a xlink:title=" ">
<path fill="none" stroke="#63b8ff" d="M763.69,-432.89C763.69,-424.52 763.69,-415.54 763.69,-408.22"/>
<polygon fill="#63b8ff" stroke="#63b8ff" points="760.19,-432.69 763.69,-442.69 767.19,-432.69 760.19,-432.69"/>
</a>
</g>
</g>
<!-- Node3 -->
<g id="Node000003" class="node">
<title>Node3</title>
<g id="a_Node000003"><a xlink:href="a00281.html" target="_top" xlink:title="Contains PWM initialization that was not supported by MCC generated code.">
<polygon fill="white" stroke="#666666" points="651.19,-340 518.19,-340 518.19,-296 651.19,-296 651.19,-340"/>
<text text-anchor="start" x="526.19" y="-326.5" font-family="Helvetica,sans-Serif" font-size="10.00">psfb_droop.X/sources</text>
<text text-anchor="start" x="526.19" y="-314.5" font-family="Helvetica,sans-Serif" font-size="10.00">/driver/mcc_extension</text>
<text text-anchor="middle" x="584.69" y="-302.5" font-family="Helvetica,sans-Serif" font-size="10.00">/drv_custom_config_pwm.h</text>
</a>
</g>
</g>
<!-- Node2&#45;&gt;Node3 -->
<g id="edge2_Node000002_Node000003" class="edge">
<title>Node2&#45;&gt;Node3</title>
<g id="a_edge2_Node000002_Node000003"><a xlink:title=" ">
<path fill="none" stroke="#63b8ff" d="M715.38,-371.57C691.46,-361.95 662.53,-350.31 637.97,-340.43"/>
<polygon fill="#63b8ff" stroke="#63b8ff" points="713.71,-375.07 724.29,-375.55 716.32,-368.58 713.71,-375.07"/>
</a>
</g>
</g>
<!-- Node4 -->
<g id="Node000004" class="node">
<title>Node4</title>
<g id="a_Node000004"><a xlink:href="a00302.html" target="_top" xlink:title="Contains public fault functions.">
<polygon fill="white" stroke="#666666" points="171.19,-260 62.19,-260 62.19,-228 171.19,-228 171.19,-260"/>
<text text-anchor="start" x="70.19" y="-246.5" font-family="Helvetica,sans-Serif" font-size="10.00">psfb_droop.X/sources</text>
<text text-anchor="middle" x="116.69" y="-234.5" font-family="Helvetica,sans-Serif" font-size="10.00">/fault/fault.h</text>
</a>
</g>
</g>
<!-- Node2&#45;&gt;Node4 -->
<g id="edge3_Node000002_Node000004" class="edge">
<title>Node2&#45;&gt;Node4</title>
<g id="a_edge3_Node000002_Node000004"><a xlink:title=" ">
<path fill="none" stroke="#63b8ff" d="M742.09,-367.92C717.81,-342.56 679.34,-304.31 660.69,-296 574.16,-257.43 291.46,-248 171.41,-245.72"/>
<polygon fill="#63b8ff" stroke="#63b8ff" points="739.01,-369.8 748.44,-374.64 744.08,-364.98 739.01,-369.8"/>
</a>
</g>
</g>
<!-- Node10 -->
<g id="Node000010" class="node">
<title>Node10</title>
<g id="a_Node000010"><a xlink:href="a00383_source.html" target="_top" xlink:title=" ">
<polygon fill="white" stroke="#666666" points="772.19,-260 663.19,-260 663.19,-228 772.19,-228 772.19,-260"/>
<text text-anchor="start" x="671.19" y="-246.5" font-family="Helvetica,sans-Serif" font-size="10.00">psfb_droop.X/sources</text>
<text text-anchor="middle" x="717.69" y="-234.5" font-family="Helvetica,sans-Serif" font-size="10.00">/pwrctrl/pwrctrl.h</text>
</a>
</g>
</g>
<!-- Node2&#45;&gt;Node10 -->
<g id="edge10_Node000002_Node000010" class="edge">
<title>Node2&#45;&gt;Node10</title>
<g id="a_edge10_Node000002_Node000010"><a xlink:title=" ">
<path fill="none" stroke="#63b8ff" d="M748.91,-366.56C744.45,-358.35 739.9,-348.99 736.69,-340 726.99,-312.75 721.75,-279.23 719.35,-260.17"/>
<polygon fill="#63b8ff" stroke="#63b8ff" points="746.23,-367.93 754.21,-374.91 752.32,-364.48 746.23,-367.93"/>
</a>
</g>
</g>
<!-- Node20 -->
<g id="Node000020" class="node">
<title>Node20</title>
<g id="a_Node000020"><a xlink:href="a00410.html" target="_top" xlink:title="Contains public functions for PWM.">
<polygon fill="white" stroke="#666666" points="1355.07,-186 1242.32,-186 1242.32,-154 1355.07,-154 1355.07,-186"/>
<text text-anchor="start" x="1250.32" y="-172.5" font-family="Helvetica,sans-Serif" font-size="10.00">psfb_droop.X/sources</text>
<text text-anchor="middle" x="1298.69" y="-160.5" font-family="Helvetica,sans-Serif" font-size="10.00">/pwrctrl/pwrctrl_pwm.h</text>
</a>
</g>
</g>
<!-- Node2&#45;&gt;Node20 -->
<g id="edge37_Node000002_Node000020" class="edge">
<title>Node2&#45;&gt;Node20</title>
<g id="a_edge37_Node000002_Node000020"><a xlink:title=" ">
<path fill="none" stroke="#63b8ff" d="M811.31,-371.42C916.35,-328.23 1166.09,-225.53 1261.11,-186.45"/>
<polygon fill="#63b8ff" stroke="#63b8ff" points="810.23,-368.49 802.31,-375.53 812.89,-374.96 810.23,-368.49"/>
</a>
</g>
</g>
<!-- Node21 -->
<g id="Node000021" class="node">
<title>Node21</title>
<g id="a_Node000021"><a xlink:href="a00407.html" target="_top" xlink:title="Contains PSFB control phase calculation between primary and secondary, and the PWM distribution.">
<polygon fill="white" stroke="#666666" points="1472.07,-106 1359.32,-106 1359.32,-74 1472.07,-74 1472.07,-106"/>
<text text-anchor="start" x="1367.32" y="-92.5" font-family="Helvetica,sans-Serif" font-size="10.00">psfb_droop.X/sources</text>
<text text-anchor="middle" x="1415.69" y="-80.5" font-family="Helvetica,sans-Serif" font-size="10.00">/pwrctrl/pwrctrl_pwm.c</text>
</a>
</g>
</g>
<!-- Node2&#45;&gt;Node21 -->
<g id="edge36_Node000002_Node000021" class="edge">
<title>Node2&#45;&gt;Node21</title>
<g id="a_edge36_Node000002_Node000021"><a xlink:title=" ">
<path fill="none" stroke="#63b8ff" d="M836.65,-384.98C959.43,-371.27 1209.08,-327.53 1363.69,-192 1390.39,-168.6 1405.25,-128.17 1411.72,-106.23"/>
<polygon fill="#63b8ff" stroke="#63b8ff" points="836.45,-381.59 826.88,-386.14 837.2,-388.55 836.45,-381.59"/>
</a>
</g>
</g>
<!-- Node22 -->
<g id="Node000022" class="node">
<title>Node22</title>
<g id="a_Node000022"><a xlink:href="a00389.html" target="_top" xlink:title="Contains the power control reusable functions.">
<polygon fill="white" stroke="#666666" points="875.69,-334 745.69,-334 745.69,-302 875.69,-302 875.69,-334"/>
<text text-anchor="start" x="753.69" y="-320.5" font-family="Helvetica,sans-Serif" font-size="10.00">psfb_droop.X/sources</text>
<text text-anchor="middle" x="810.69" y="-308.5" font-family="Helvetica,sans-Serif" font-size="10.00">/pwrctrl/pwrctrl_common.h</text>
</a>
</g>
</g>
<!-- Node2&#45;&gt;Node22 -->
<g id="edge34_Node000002_Node000022" class="edge">
<title>Node2&#45;&gt;Node22</title>
<g id="a_edge34_Node000002_Node000022"><a xlink:title=" ">
<path fill="none" stroke="#63b8ff" d="M779.49,-366.79C786.52,-356.03 794.57,-343.69 800.74,-334.25"/>
<polygon fill="#63b8ff" stroke="#63b8ff" points="776.2,-364.44 773.66,-374.73 782.06,-368.27 776.2,-364.44"/>
</a>
</g>
</g>
<!-- Node4&#45;&gt;Node4 -->
<g id="edge6_Node000004_Node000004" class="edge">
<title>Node4&#45;&gt;Node4</title>
<g id="a_edge6_Node000004_Node000004"><a xlink:title=" ">
<path fill="none" stroke="#63b8ff" d="M181.61,-254.24C186.31,-251.93 189.19,-248.52 189.19,-244 189.19,-236.77 181.82,-232.37 171.39,-230.79"/>
<polygon fill="#63b8ff" stroke="#63b8ff" points="181.02,-251.06 172.39,-257.21 182.97,-257.78 181.02,-251.06"/>
</a>
</g>
</g>
<!-- Node5 -->
<g id="Node000005" class="node">
<title>Node5</title>
<g id="a_Node000005"><a xlink:href="a00056_source.html" target="_top" xlink:title=" ">
<polygon fill="white" stroke="#666666" points="208.57,-180 104.82,-180 104.82,-160 208.57,-160 208.57,-180"/>
<text text-anchor="middle" x="156.69" y="-166.5" font-family="Helvetica,sans-Serif" font-size="10.00">psfb_droop.X/main.c</text>
</a>
</g>
</g>
<!-- Node4&#45;&gt;Node5 -->
<g id="edge4_Node000004_Node000005" class="edge">
<title>Node4&#45;&gt;Node5</title>
<g id="a_edge4_Node000004_Node000005"><a xlink:title=" ">
<path fill="none" stroke="#63b8ff" d="M130.43,-218.28C137.7,-205.19 146.2,-189.88 151.52,-180.31"/>
<polygon fill="#63b8ff" stroke="#63b8ff" points="126.97,-216.29 125.18,-226.73 133.09,-219.69 126.97,-216.29"/>
</a>
</g>
</g>
<!-- Node6 -->
<g id="Node000006" class="node">
<title>Node6</title>
<g id="a_Node000006"><a xlink:href="a00299.html" target="_top" xlink:title="Contains fault functions including the fault handler, fault object initialization and fault execution...">
<polygon fill="white" stroke="#666666" points="626.19,-32 517.19,-32 517.19,0 626.19,0 626.19,-32"/>
<text text-anchor="start" x="525.19" y="-18.5" font-family="Helvetica,sans-Serif" font-size="10.00">psfb_droop.X/sources</text>
<text text-anchor="middle" x="571.69" y="-6.5" font-family="Helvetica,sans-Serif" font-size="10.00">/fault/fault.c</text>
</a>
</g>
</g>
<!-- Node4&#45;&gt;Node6 -->
<g id="edge5_Node000004_Node000006" class="edge">
<title>Node4&#45;&gt;Node6</title>
<g id="a_edge5_Node000004_Node000006"><a xlink:title=" ">
<path fill="none" stroke="#63b8ff" d="M58.69,-222.9C45.21,-215.37 32.53,-205.3 24.69,-192 -3.28,-144.51 -12.42,-108.74 24.69,-68 57.41,-32.09 384.55,-21.03 516.72,-18.02"/>
<polygon fill="#63b8ff" stroke="#63b8ff" points="56.61,-226.28 67.1,-227.72 59.79,-220.05 56.61,-226.28"/>
</a>
</g>
</g>
<!-- Node7 -->
<g id="Node000007" class="node">
<title>Node7</title>
<g id="a_Node000007"><a xlink:href="a00398.html" target="_top" xlink:title="Contains Control loop interrupt Callback that acquires the ADC raw data and process it in the control...">
<polygon fill="white" stroke="#666666" points="687.19,-106 578.19,-106 578.19,-74 687.19,-74 687.19,-106"/>
<text text-anchor="start" x="586.19" y="-92.5" font-family="Helvetica,sans-Serif" font-size="10.00">psfb_droop.X/sources</text>
<text text-anchor="middle" x="632.69" y="-80.5" font-family="Helvetica,sans-Serif" font-size="10.00">/pwrctrl/pwrctrl_isr.c</text>
</a>
</g>
</g>
<!-- Node4&#45;&gt;Node7 -->
<g id="edge7_Node000004_Node000007" class="edge">
<title>Node4&#45;&gt;Node7</title>
<g id="a_edge7_Node000004_Node000007"><a xlink:title=" ">
<path fill="none" stroke="#63b8ff" d="M100.79,-218.49C89.26,-197.32 78.43,-167.19 95.69,-148 127.55,-112.58 447.32,-97.47 577.75,-92.75"/>
<polygon fill="#63b8ff" stroke="#63b8ff" points="98.16,-219.92 106.22,-226.79 104.2,-216.39 98.16,-219.92"/>
</a>
</g>
</g>
<!-- Node8 -->
<g id="Node000008" class="node">
<title>Node8</title>
<g id="a_Node000008"><a xlink:href="a00404.html" target="_top" xlink:title="Contains some of the functions used in the interrupt service routine of control loop.">
<polygon fill="white" stroke="#666666" points="335.19,-192 226.19,-192 226.19,-148 335.19,-148 335.19,-192"/>
<text text-anchor="start" x="234.19" y="-178.5" font-family="Helvetica,sans-Serif" font-size="10.00">psfb_droop.X/sources</text>
<text text-anchor="start" x="234.19" y="-166.5" font-family="Helvetica,sans-Serif" font-size="10.00">/pwrctrl/pwrctrl_isr</text>
<text text-anchor="middle" x="280.69" y="-154.5" font-family="Helvetica,sans-Serif" font-size="10.00">_extension.c</text>
</a>
</g>
</g>
<!-- Node4&#45;&gt;Node8 -->
<g id="edge8_Node000004_Node000008" class="edge">
<title>Node4&#45;&gt;Node8</title>
<g id="a_edge8_Node000004_Node000008"><a xlink:title=" ">
<path fill="none" stroke="#63b8ff" d="M161.84,-223.18C183.58,-213.63 209.69,-202.17 231.88,-192.43"/>
<polygon fill="#63b8ff" stroke="#63b8ff" points="160.62,-220.33 152.88,-227.55 163.44,-226.74 160.62,-220.33"/>
</a>
</g>
</g>
<!-- Node9 -->
<g id="Node000009" class="node">
<title>Node9</title>
<g id="a_Node000009"><a xlink:href="a00413.html" target="_top" xlink:title="Contains power control state machine functions that is executed every 100us.">
<polygon fill="white" stroke="#666666" points="783.19,-32 674.19,-32 674.19,0 783.19,0 783.19,-32"/>
<text text-anchor="start" x="682.19" y="-18.5" font-family="Helvetica,sans-Serif" font-size="10.00">psfb_droop.X/sources</text>
<text text-anchor="middle" x="728.69" y="-6.5" font-family="Helvetica,sans-Serif" font-size="10.00">/pwrctrl/pwrctrl_sm.c</text>
</a>
</g>
</g>
<!-- Node4&#45;&gt;Node9 -->
<g id="edge9_Node000004_Node000009" class="edge">
<title>Node4&#45;&gt;Node9</title>
<g id="a_edge9_Node000004_Node000009"><a xlink:title=" ">
<path fill="none" stroke="#63b8ff" d="M96.21,-219.09C81.07,-198.41 65.79,-168.67 82.69,-148 101.64,-124.83 521.22,-52.01 673.83,-26.19"/>
<polygon fill="#63b8ff" stroke="#63b8ff" points="93.92,-220.85 102.81,-226.61 99.45,-216.57 93.92,-220.85"/>
</a>
</g>
</g>
<!-- Node10&#45;&gt;Node5 -->
<g id="edge11_Node000010_Node000005" class="edge">
<title>Node10&#45;&gt;Node5</title>
<g id="a_edge11_Node000010_Node000005"><a xlink:title=" ">
<path fill="none" stroke="#63b8ff" d="M652.16,-241.23C555.71,-237.53 370.36,-226.21 216.69,-192 204.2,-189.22 190.71,-184.65 179.69,-180.48"/>
<polygon fill="#63b8ff" stroke="#63b8ff" points="651.78,-244.76 661.9,-241.63 652.04,-237.76 651.78,-244.76"/>
</a>
</g>
</g>
<!-- Node10&#45;&gt;Node6 -->
<g id="edge19_Node000010_Node000006" class="edge">
<title>Node10&#45;&gt;Node6</title>
<g id="a_edge19_Node000010_Node000006"><a xlink:title=" ">
<path fill="none" stroke="#63b8ff" d="M652.64,-238.03C619.94,-232.04 582.5,-219.21 559.69,-192 524.15,-149.6 537.06,-122.09 548.69,-68 551.39,-55.47 557.42,-42.3 562.63,-32.48"/>
<polygon fill="#63b8ff" stroke="#63b8ff" points="651.64,-241.58 662.07,-239.75 652.77,-234.67 651.64,-241.58"/>
</a>
</g>
</g>
<!-- Node10&#45;&gt;Node7 -->
<g id="edge24_Node000010_Node000007" class="edge">
<title>Node10&#45;&gt;Node7</title>
<g id="a_edge24_Node000010_Node000007"><a xlink:title=" ">
<path fill="none" stroke="#63b8ff" d="M652.83,-227.45C634.83,-219.83 617.32,-208.57 606.69,-192 589.4,-165.02 608.45,-127.07 621.85,-106.21"/>
<polygon fill="#63b8ff" stroke="#63b8ff" points="651.26,-230.98 661.85,-231.32 653.78,-224.45 651.26,-230.98"/>
</a>
</g>
</g>
<!-- Node10&#45;&gt;Node8 -->
<g id="edge25_Node000010_Node000008" class="edge">
<title>Node10&#45;&gt;Node8</title>
<g id="a_edge25_Node000010_Node000008"><a xlink:title=" ">
<path fill="none" stroke="#63b8ff" d="M652.08,-237.66C577.07,-230.71 450.93,-216.48 344.69,-192 341.73,-191.32 338.71,-190.56 335.67,-189.74"/>
<polygon fill="#63b8ff" stroke="#63b8ff" points="651.5,-241.21 661.77,-238.63 652.13,-234.24 651.5,-241.21"/>
</a>
</g>
</g>
<!-- Node10&#45;&gt;Node9 -->
<g id="edge33_Node000010_Node000009" class="edge">
<title>Node10&#45;&gt;Node9</title>
<g id="a_edge33_Node000010_Node000009"><a xlink:title=" ">
<path fill="none" stroke="#63b8ff" d="M652.69,-226.88C632.55,-219.16 611.72,-207.99 596.69,-192 558,-150.83 535.36,-113.62 568.69,-68 581.42,-50.58 632.91,-36.26 674.09,-27.27"/>
<polygon fill="#63b8ff" stroke="#63b8ff" points="651.22,-230.43 661.81,-230.51 653.58,-223.84 651.22,-230.43"/>
</a>
</g>
</g>
<!-- Node11 -->
<g id="Node000011" class="node">
<title>Node11</title>
<g id="a_Node000011"><a xlink:href="a00233_source.html" target="_top" xlink:title=" ">
<polygon fill="white" stroke="#666666" points="1265.57,-106 1101.82,-106 1101.82,-74 1265.57,-74 1265.57,-106"/>
<text text-anchor="start" x="1109.82" y="-92.5" font-family="Helvetica,sans-Serif" font-size="10.00">psfb_droop.X/sources</text>
<text text-anchor="middle" x="1183.69" y="-80.5" font-family="Helvetica,sans-Serif" font-size="10.00">/app/app_PBV_psfb_frame_map.c</text>
</a>
</g>
</g>
<!-- Node10&#45;&gt;Node11 -->
<g id="edge12_Node000010_Node000011" class="edge">
<title>Node10&#45;&gt;Node11</title>
<g id="a_edge12_Node000010_Node000011"><a xlink:title=" ">
<path fill="none" stroke="#63b8ff" d="M745.98,-220.7C756.53,-212.05 768.42,-201.86 778.69,-192 797.76,-173.7 795.27,-160.25 818.69,-148 927.54,-91.09 971.83,-133.83 1092.69,-112 1101.63,-110.39 1111.01,-108.47 1120.21,-106.47"/>
<polygon fill="#63b8ff" stroke="#63b8ff" points="744.07,-218.56 738.51,-227.57 748.48,-223.99 744.07,-218.56"/>
</a>
</g>
</g>
<!-- Node12 -->
<g id="Node000012" class="node">
<title>Node12</title>
<g id="a_Node000012"><a xlink:href="a00269.html" target="_top" xlink:title="measure current sensor offsets">
<polygon fill="white" stroke="#666666" points="734.07,-192 615.32,-192 615.32,-148 734.07,-148 734.07,-192"/>
<text text-anchor="start" x="623.32" y="-178.5" font-family="Helvetica,sans-Serif" font-size="10.00">psfb_droop.X/sources</text>
<text text-anchor="start" x="623.32" y="-166.5" font-family="Helvetica,sans-Serif" font-size="10.00">/device/dev_adc_sensor</text>
<text text-anchor="middle" x="674.69" y="-154.5" font-family="Helvetica,sans-Serif" font-size="10.00">_offsets.h</text>
</a>
</g>
</g>
<!-- Node10&#45;&gt;Node12 -->
<g id="edge13_Node000010_Node000012" class="edge">
<title>Node10&#45;&gt;Node12</title>
<g id="a_edge13_Node000010_Node000012"><a xlink:title=" ">
<path fill="none" stroke="#63b8ff" d="M702.96,-218.33C697.9,-209.85 692.28,-200.44 687.39,-192.26"/>
<polygon fill="#63b8ff" stroke="#63b8ff" points="700.44,-219.94 708.57,-226.73 706.45,-216.35 700.44,-219.94"/>
</a>
</g>
</g>
<!-- Node15 -->
<g id="Node000015" class="node">
<title>Node15</title>
<g id="a_Node000015"><a xlink:href="a00293_source.html" target="_top" xlink:title=" ">
<polygon fill="white" stroke="#666666" points="1083.82,-112 969.57,-112 969.57,-68 1083.82,-68 1083.82,-112"/>
<text text-anchor="start" x="977.57" y="-98.5" font-family="Helvetica,sans-Serif" font-size="10.00">psfb_droop.X/sources</text>
<text text-anchor="start" x="977.57" y="-86.5" font-family="Helvetica,sans-Serif" font-size="10.00">/driver/mcc_extension</text>
<text text-anchor="middle" x="1026.69" y="-74.5" font-family="Helvetica,sans-Serif" font-size="10.00">/mcc_custom_config.c</text>
</a>
</g>
</g>
<!-- Node10&#45;&gt;Node15 -->
<g id="edge18_Node000010_Node000015" class="edge">
<title>Node10&#45;&gt;Node15</title>
<g id="a_edge18_Node000010_Node000015"><a xlink:title=" ">
<path fill="none" stroke="#63b8ff" d="M728.89,-218.11C740.09,-196.16 759.42,-165.09 785.69,-148 851.89,-104.93 883.25,-131.83 959.69,-112 962.88,-111.17 966.14,-110.29 969.42,-109.36"/>
<polygon fill="#63b8ff" stroke="#63b8ff" points="725.42,-216.24 724.19,-226.76 731.72,-219.3 725.42,-216.24"/>
</a>
</g>
</g>
<!-- Node16 -->
<g id="Node000016" class="node">
<title>Node16</title>
<g id="a_Node000016"><a xlink:href="a00311.html" target="_top" xlink:title="Contains API functions for fault protection.">
<polygon fill="white" stroke="#666666" points="967.94,-186 827.44,-186 827.44,-154 967.94,-154 967.94,-186"/>
<text text-anchor="start" x="835.44" y="-172.5" font-family="Helvetica,sans-Serif" font-size="10.00">psfb_droop.X/sources</text>
<text text-anchor="middle" x="897.69" y="-160.5" font-family="Helvetica,sans-Serif" font-size="10.00">/fault/fault_comm_interface.c</text>
</a>
</g>
</g>
<!-- Node10&#45;&gt;Node16 -->
<g id="edge20_Node000010_Node000016" class="edge">
<title>Node10&#45;&gt;Node16</title>
<g id="a_edge20_Node000010_Node000016"><a xlink:title=" ">
<path fill="none" stroke="#63b8ff" d="M766.28,-223.56C795.43,-211.91 831.99,-197.28 859.14,-186.42"/>
<polygon fill="#63b8ff" stroke="#63b8ff" points="765.29,-220.59 757.31,-227.55 767.89,-227.09 765.29,-220.59"/>
</a>
</g>
</g>
<!-- Node17 -->
<g id="Node000017" class="node">
<title>Node17</title>
<g id="a_Node000017"><a xlink:href="a00380.html" target="_top" xlink:title="Contains power control initialization including control loop initialization and start&#45;up initializati...">
<polygon fill="white" stroke="#666666" points="1095.19,-186 986.19,-186 986.19,-154 1095.19,-154 1095.19,-186"/>
<text text-anchor="start" x="994.19" y="-172.5" font-family="Helvetica,sans-Serif" font-size="10.00">psfb_droop.X/sources</text>
<text text-anchor="middle" x="1040.69" y="-160.5" font-family="Helvetica,sans-Serif" font-size="10.00">/pwrctrl/pwrctrl.c</text>
</a>
</g>
</g>
<!-- Node10&#45;&gt;Node17 -->
<g id="edge21_Node000010_Node000017" class="edge">
<title>Node10&#45;&gt;Node17</title>
<g id="a_edge21_Node000010_Node000017"><a xlink:title=" ">
<path fill="none" stroke="#63b8ff" d="M783,-232.43C835.67,-223.35 911.47,-209.05 976.69,-192 982.92,-190.37 989.42,-188.48 995.79,-186.5"/>
<polygon fill="#63b8ff" stroke="#63b8ff" points="782.72,-229.09 773.45,-234.23 783.9,-235.99 782.72,-229.09"/>
</a>
</g>
</g>
<!-- Node18 -->
<g id="Node000018" class="node">
<title>Node18</title>
<g id="a_Node000018"><a xlink:href="a00392.html" target="_top" xlink:title="Contains power control interface with communication/gui.">
<polygon fill="white" stroke="#666666" points="1224.32,-192 1113.07,-192 1113.07,-148 1224.32,-148 1224.32,-192"/>
<text text-anchor="start" x="1121.07" y="-178.5" font-family="Helvetica,sans-Serif" font-size="10.00">psfb_droop.X/sources</text>
<text text-anchor="start" x="1121.07" y="-166.5" font-family="Helvetica,sans-Serif" font-size="10.00">/pwrctrl/pwrctrl_comm</text>
<text text-anchor="middle" x="1168.69" y="-154.5" font-family="Helvetica,sans-Serif" font-size="10.00">_interface.c</text>
</a>
</g>
</g>
<!-- Node10&#45;&gt;Node18 -->
<g id="edge22_Node000010_Node000018" class="edge">
<title>Node10&#45;&gt;Node18</title>
<g id="a_edge22_Node000010_Node000018"><a xlink:title=" ">
<path fill="none" stroke="#63b8ff" d="M782.97,-238.13C860.44,-231.49 993.15,-217.42 1104.69,-192 1107.32,-191.4 1109.98,-190.74 1112.67,-190.04"/>
<polygon fill="#63b8ff" stroke="#63b8ff" points="783.09,-234.69 773.42,-239.01 783.68,-241.66 783.09,-234.69"/>
</a>
</g>
</g>
<!-- Node19 -->
<g id="Node000019" class="node">
<title>Node19</title>
<g id="a_Node000019"><a xlink:href="a00386.html" target="_top" xlink:title="Contains generic functions that handles power control ramp Up/Down and the averaging generic function...">
<polygon fill="white" stroke="#666666" points="483.69,-186 353.69,-186 353.69,-154 483.69,-154 483.69,-186"/>
<text text-anchor="start" x="361.69" y="-172.5" font-family="Helvetica,sans-Serif" font-size="10.00">psfb_droop.X/sources</text>
<text text-anchor="middle" x="418.69" y="-160.5" font-family="Helvetica,sans-Serif" font-size="10.00">/pwrctrl/pwrctrl_common.c</text>
</a>
</g>
</g>
<!-- Node10&#45;&gt;Node19 -->
<g id="edge23_Node000010_Node000019" class="edge">
<title>Node10&#45;&gt;Node19</title>
<g id="a_edge23_Node000010_Node000019"><a xlink:title=" ">
<path fill="none" stroke="#63b8ff" d="M652.36,-228.43C608.52,-218.51 549.54,-204.9 497.69,-192 490.67,-190.25 483.31,-188.37 476.02,-186.47"/>
<polygon fill="#63b8ff" stroke="#63b8ff" points="651.35,-232.02 661.88,-230.81 652.89,-225.19 651.35,-232.02"/>
</a>
</g>
</g>
<!-- Node10&#45;&gt;Node20 -->
<g id="edge26_Node000010_Node000020" class="edge">
<title>Node10&#45;&gt;Node20</title>
<g id="a_edge26_Node000010_Node000020"><a xlink:title=" ">
<path fill="none" stroke="#63b8ff" d="M783.2,-241.01C881.85,-237 1074,-225.29 1233.69,-192 1240.78,-190.52 1248.17,-188.56 1255.33,-186.42"/>
<polygon fill="#63b8ff" stroke="#63b8ff" points="783.36,-237.54 773.51,-241.43 783.63,-244.53 783.36,-237.54"/>
</a>
</g>
</g>
<!-- Node13 -->
<g id="Node000013" class="node">
<title>Node13</title>
<g id="a_Node000013"><a xlink:href="a00266_source.html" target="_top" xlink:title=" ">
<polygon fill="white" stroke="#666666" points="951.07,-112 832.32,-112 832.32,-68 951.07,-68 951.07,-112"/>
<text text-anchor="start" x="840.32" y="-98.5" font-family="Helvetica,sans-Serif" font-size="10.00">psfb_droop.X/sources</text>
<text text-anchor="start" x="840.32" y="-86.5" font-family="Helvetica,sans-Serif" font-size="10.00">/device/dev_adc_sensor</text>
<text text-anchor="middle" x="891.69" y="-74.5" font-family="Helvetica,sans-Serif" font-size="10.00">_offsets.c</text>
</a>
</g>
</g>
<!-- Node12&#45;&gt;Node13 -->
<g id="edge14_Node000012_Node000013" class="edge">
<title>Node12&#45;&gt;Node13</title>
<g id="a_edge14_Node000012_Node000013"><a xlink:title=" ">
<path fill="none" stroke="#63b8ff" d="M744.5,-143.91C772.78,-133.74 805.11,-122.12 832.24,-112.37"/>
<polygon fill="#63b8ff" stroke="#63b8ff" points="743.5,-140.91 735.28,-147.58 745.87,-147.49 743.5,-140.91"/>
</a>
</g>
</g>
<!-- Node14 -->
<g id="Node000014" class="node">
<title>Node14</title>
<g id="a_Node000014"><a xlink:href="a00263.html" target="_top" xlink:title="Contains h files that are part of device layer.">
<polygon fill="white" stroke="#666666" points="814.19,-106 705.19,-106 705.19,-74 814.19,-74 814.19,-106"/>
<text text-anchor="start" x="713.19" y="-92.5" font-family="Helvetica,sans-Serif" font-size="10.00">psfb_droop.X/sources</text>
<text text-anchor="middle" x="759.69" y="-80.5" font-family="Helvetica,sans-Serif" font-size="10.00">/device/device.h</text>
</a>
</g>
</g>
<!-- Node12&#45;&gt;Node14 -->
<g id="edge15_Node000012_Node000014" class="edge">
<title>Node12&#45;&gt;Node14</title>
<g id="a_edge15_Node000012_Node000014"><a xlink:title=" ">
<path fill="none" stroke="#63b8ff" d="M705.91,-140.36C718.45,-128.84 732.41,-116.04 742.96,-106.35"/>
<polygon fill="#63b8ff" stroke="#63b8ff" points="703.92,-137.35 698.92,-146.69 708.65,-142.5 703.92,-137.35"/>
</a>
</g>
</g>
<!-- Node14&#45;&gt;Node6 -->
<g id="edge16_Node000014_Node000006" class="edge">
<title>Node14&#45;&gt;Node6</title>
<g id="a_edge16_Node000014_Node000006"><a xlink:title=" ">
<path fill="none" stroke="#63b8ff" d="M709.34,-69.72C678.84,-58.03 640.44,-43.33 611.96,-32.42"/>
<polygon fill="#63b8ff" stroke="#63b8ff" points="707.77,-73.25 718.36,-73.55 710.28,-66.71 707.77,-73.25"/>
</a>
</g>
</g>
<!-- Node14&#45;&gt;Node9 -->
<g id="edge17_Node000014_Node000009" class="edge">
<title>Node14&#45;&gt;Node9</title>
<g id="a_edge17_Node000014_Node000009"><a xlink:title=" ">
<path fill="none" stroke="#63b8ff" d="M748.85,-63.81C744.32,-53.29 739.2,-41.41 735.26,-32.25"/>
<polygon fill="#63b8ff" stroke="#63b8ff" points="745.95,-64.93 753.12,-72.73 752.38,-62.16 745.95,-64.93"/>
</a>
</g>
</g>
<!-- Node20&#45;&gt;Node6 -->
<g id="edge29_Node000020_Node000006" class="edge">
<title>Node20&#45;&gt;Node6</title>
<g id="a_edge29_Node000020_Node000006"><a xlink:title=" ">
<path fill="none" stroke="#63b8ff" d="M1300.43,-142.94C1300.41,-119.5 1296.19,-86.04 1274.69,-68 1222.77,-24.42 733.08,-39.35 665.69,-32 652.88,-30.6 639.15,-28.66 626.25,-26.64"/>
<polygon fill="#63b8ff" stroke="#63b8ff" points="1296.9,-142.76 1300.13,-152.85 1303.9,-142.94 1296.9,-142.76"/>
</a>
</g>
</g>
<!-- Node20&#45;&gt;Node7 -->
<g id="edge30_Node000020_Node000007" class="edge">
<title>Node20&#45;&gt;Node7</title>
<g id="a_edge30_Node000020_Node000007"><a xlink:title=" ">
<path fill="none" stroke="#63b8ff" d="M1245.57,-150.68C1241.58,-149.66 1237.59,-148.75 1233.69,-148 998.78,-102.89 931.5,-157.64 696.69,-112 689.46,-110.59 681.91,-108.61 674.64,-106.41"/>
<polygon fill="#63b8ff" stroke="#63b8ff" points="1244.5,-154.29 1255.08,-153.59 1246.37,-147.55 1244.5,-154.29"/>
</a>
</g>
</g>
<!-- Node20&#45;&gt;Node9 -->
<g id="edge32_Node000020_Node000009" class="edge">
<title>Node20&#45;&gt;Node9</title>
<g id="a_edge32_Node000020_Node000009"><a xlink:title=" ">
<path fill="none" stroke="#63b8ff" d="M1310.33,-143.81C1318.9,-121.07 1326.17,-88.17 1307.69,-68 1272.7,-29.79 921.21,-20.06 783.56,-17.71"/>
<polygon fill="#63b8ff" stroke="#63b8ff" points="1306.81,-142.18 1306.26,-152.76 1313.29,-144.83 1306.81,-142.18"/>
</a>
</g>
</g>
<!-- Node20&#45;&gt;Node11 -->
<g id="edge27_Node000020_Node000011" class="edge">
<title>Node20&#45;&gt;Node11</title>
<g id="a_edge27_Node000020_Node000011"><a xlink:title=" ">
<path fill="none" stroke="#63b8ff" d="M1266.98,-147.49C1247.75,-134.45 1223.68,-118.12 1206.37,-106.38"/>
<polygon fill="#63b8ff" stroke="#63b8ff" points="1264.73,-150.87 1274.97,-153.59 1268.66,-145.08 1264.73,-150.87"/>
</a>
</g>
</g>
<!-- Node20&#45;&gt;Node15 -->
<g id="edge28_Node000020_Node000015" class="edge">
<title>Node20&#45;&gt;Node15</title>
<g id="a_edge28_Node000020_Node000015"><a xlink:title=" ">
<path fill="none" stroke="#63b8ff" d="M1241.6,-150.33C1238.93,-149.53 1236.29,-148.75 1233.69,-148 1171.56,-130.05 1154.87,-129.81 1092.69,-112 1089.92,-111.21 1087.08,-110.37 1084.23,-109.52"/>
<polygon fill="#63b8ff" stroke="#63b8ff" points="1240.35,-153.92 1250.94,-153.51 1242.4,-147.23 1240.35,-153.92"/>
</a>
</g>
</g>
<!-- Node20&#45;&gt;Node21 -->
<g id="edge31_Node000020_Node000021" class="edge">
<title>Node20&#45;&gt;Node21</title>
<g id="a_edge31_Node000020_Node000021"><a xlink:title=" ">
<path fill="none" stroke="#63b8ff" d="M1330.7,-147.67C1350.3,-134.6 1374.93,-118.17 1392.63,-106.38"/>
<polygon fill="#63b8ff" stroke="#63b8ff" points="1329.19,-145.13 1322.81,-153.59 1333.07,-150.95 1329.19,-145.13"/>
</a>
</g>
</g>
<!-- Node22&#45;&gt;Node10 -->
<g id="edge35_Node000022_Node000010" class="edge">
<title>Node22&#45;&gt;Node10</title>
<g id="a_edge35_Node000022_Node000010"><a xlink:title=" ">
<path fill="none" stroke="#63b8ff" d="M782.4,-295.1C767.97,-283.92 750.75,-270.59 737.71,-260.5"/>
<polygon fill="#63b8ff" stroke="#63b8ff" points="779.92,-298.38 789.97,-301.73 784.21,-292.84 779.92,-298.38"/>
</a>
</g>
</g>
</g>
</svg>
