<?xml version="1.0" encoding="UTF-8" standalone="no"?>
<!DOCTYPE svg PUBLIC "-//W3C//DTD SVG 1.1//EN"
 "http://www.w3.org/Graphics/SVG/1.1/DTD/svg11.dtd">
<!-- Generated by graphviz version 8.1.0 (20230707.0739)
 -->
<!-- Title: psfb_droop.X/sources/fault/fault_comm_interface.c Pages: 1 -->
<svg width="399pt" height="376pt"
 viewBox="0.00 0.00 399.12 376.00" xmlns="http://www.w3.org/2000/svg" xmlns:xlink="http://www.w3.org/1999/xlink">
<g id="graph0" class="graph" transform="scale(1 1) rotate(0) translate(4 372)">
<title>psfb_droop.X/sources/fault/fault_comm_interface.c</title>
<!-- Node1 -->
<g id="Node000001" class="node">
<title>Node1</title>
<g id="a_Node000001"><a xlink:title="Contains API functions for fault protection.">
<polygon fill="#999999" stroke="#666666" points="155.38,-368 14.88,-368 14.88,-336 155.38,-336 155.38,-368"/>
<text text-anchor="start" x="22.88" y="-354.5" font-family="Helvetica,sans-Serif" font-size="10.00">psfb_droop.X/sources</text>
<text text-anchor="middle" x="85.12" y="-342.5" font-family="Helvetica,sans-Serif" font-size="10.00">/fault/fault_comm_interface.c</text>
</a>
</g>
</g>
<!-- Node2 -->
<g id="Node000002" class="node">
<title>Node2</title>
<g id="a_Node000002"><a xlink:href="a00308.html" target="_top" xlink:title="Contains fault generic public functions.">
<polygon fill="white" stroke="#666666" points="101.62,-76 16.62,-76 16.62,-56 101.62,-56 101.62,-76"/>
<text text-anchor="middle" x="59.12" y="-62.5" font-family="Helvetica,sans-Serif" font-size="10.00">fault_common.h</text>
</a>
</g>
</g>
<!-- Node1&#45;&gt;Node2 -->
<g id="edge1_Node000001_Node000002" class="edge">
<title>Node1&#45;&gt;Node2</title>
<g id="a_edge1_Node000001_Node000002"><a xlink:title=" ">
<path fill="none" stroke="#63b8ff" d="M69.72,-335.64C50.5,-314.77 20.12,-275.4 20.12,-235 20.12,-235 20.12,-235 20.12,-177 20.12,-143.37 36.52,-107.12 48.05,-85.77"/>
<polygon fill="#63b8ff" stroke="#63b8ff" points="51.51,-87.74 53.37,-77.31 45.41,-84.31 51.51,-87.74"/>
</a>
</g>
</g>
<!-- Node5 -->
<g id="Node000005" class="node">
<title>Node5</title>
<g id="a_Node000005"><a xlink:href="a00383_source.html" target="_top" xlink:title=" ">
<polygon fill="white" stroke="#666666" points="192.25,-300 108,-300 108,-280 192.25,-280 192.25,-300"/>
<text text-anchor="middle" x="150.12" y="-286.5" font-family="Helvetica,sans-Serif" font-size="10.00">pwrctrl/pwrctrl.h</text>
</a>
</g>
</g>
<!-- Node1&#45;&gt;Node5 -->
<g id="edge4_Node000001_Node000005" class="edge">
<title>Node1&#45;&gt;Node5</title>
<g id="a_edge4_Node000001_Node000005"><a xlink:title=" ">
<path fill="none" stroke="#63b8ff" d="M101.86,-335.55C111.08,-327.04 122.53,-316.48 131.96,-307.77"/>
<polygon fill="#63b8ff" stroke="#63b8ff" points="133.96,-310.76 138.93,-301.41 129.21,-305.62 133.96,-310.76"/>
</a>
</g>
</g>
<!-- Node3 -->
<g id="Node000003" class="node">
<title>Node3</title>
<g id="a_Node000003"><a xlink:title=" ">
<polygon fill="#e0e0e0" stroke="#999999" points="48.25,-20 0,-20 0,0 48.25,0 48.25,-20"/>
<text text-anchor="middle" x="24.12" y="-6.5" font-family="Helvetica,sans-Serif" font-size="10.00">stdint.h</text>
</a>
</g>
</g>
<!-- Node2&#45;&gt;Node3 -->
<g id="edge2_Node000002_Node000003" class="edge">
<title>Node2&#45;&gt;Node3</title>
<g id="a_edge2_Node000002_Node000003"><a xlink:title=" ">
<path fill="none" stroke="#63b8ff" d="M53.03,-55.59C48.36,-48.39 41.78,-38.23 36.07,-29.43"/>
<polygon fill="#63b8ff" stroke="#63b8ff" points="38.53,-27.79 30.15,-21.3 32.65,-31.59 38.53,-27.79"/>
</a>
</g>
</g>
<!-- Node4 -->
<g id="Node000004" class="node">
<title>Node4</title>
<g id="a_Node000004"><a xlink:title=" ">
<polygon fill="#e0e0e0" stroke="#999999" points="122,-20 66.25,-20 66.25,0 122,0 122,-20"/>
<text text-anchor="middle" x="94.12" y="-6.5" font-family="Helvetica,sans-Serif" font-size="10.00">stdbool.h</text>
</a>
</g>
</g>
<!-- Node2&#45;&gt;Node4 -->
<g id="edge3_Node000002_Node000004" class="edge">
<title>Node2&#45;&gt;Node4</title>
<g id="a_edge3_Node000002_Node000004"><a xlink:title=" ">
<path fill="none" stroke="#63b8ff" d="M65.22,-55.59C69.89,-48.39 76.47,-38.23 82.18,-29.43"/>
<polygon fill="#63b8ff" stroke="#63b8ff" points="85.6,-31.59 88.1,-21.3 79.72,-27.79 85.6,-31.59"/>
</a>
</g>
</g>
<!-- Node6 -->
<g id="Node000006" class="node">
<title>Node6</title>
<g id="a_Node000006"><a xlink:href="a00416_source.html" target="_top" xlink:title=" ">
<polygon fill="white" stroke="#666666" points="142.88,-188 53.38,-188 53.38,-168 142.88,-168 142.88,-188"/>
<text text-anchor="middle" x="98.12" y="-174.5" font-family="Helvetica,sans-Serif" font-size="10.00">pwrctrl_typedef.h</text>
</a>
</g>
</g>
<!-- Node5&#45;&gt;Node6 -->
<g id="edge5_Node000005_Node000006" class="edge">
<title>Node5&#45;&gt;Node6</title>
<g id="a_edge5_Node000005_Node000006"><a xlink:title=" ">
<path fill="none" stroke="#63b8ff" d="M122.08,-279.63C105.81,-272.59 86.7,-261.16 77.12,-244 68.84,-229.17 76.4,-210.59 84.67,-197.09"/>
<polygon fill="#63b8ff" stroke="#63b8ff" points="87.91,-199.54 90.6,-189.29 82.11,-195.63 87.91,-199.54"/>
</a>
</g>
</g>
<!-- Node8 -->
<g id="Node000008" class="node">
<title>Node8</title>
<g id="a_Node000008"><a xlink:href="a00395.html" target="_top" xlink:title="Contains public functions relevant for power control communication interface.">
<polygon fill="white" stroke="#666666" points="213.62,-244 86.62,-244 86.62,-224 213.62,-224 213.62,-244"/>
<text text-anchor="middle" x="150.12" y="-230.5" font-family="Helvetica,sans-Serif" font-size="10.00">pwrctrl_comm_interface.h</text>
</a>
</g>
</g>
<!-- Node5&#45;&gt;Node8 -->
<g id="edge8_Node000005_Node000008" class="edge">
<title>Node5&#45;&gt;Node8</title>
<g id="a_edge8_Node000005_Node000008"><a xlink:title=" ">
<path fill="none" stroke="#63b8ff" d="M150.12,-279.59C150.12,-272.86 150.12,-263.53 150.12,-255.15"/>
<polygon fill="#63b8ff" stroke="#63b8ff" points="153.63,-255.3 150.12,-245.3 146.63,-255.3 153.63,-255.3"/>
</a>
</g>
</g>
<!-- Node9 -->
<g id="Node000009" class="node">
<title>Node9</title>
<g id="a_Node000009"><a xlink:href="a00389.html" target="_top" xlink:title="Contains the power control reusable functions.">
<polygon fill="white" stroke="#666666" points="326.88,-244 231.38,-244 231.38,-224 326.88,-224 326.88,-244"/>
<text text-anchor="middle" x="279.12" y="-230.5" font-family="Helvetica,sans-Serif" font-size="10.00">pwrctrl_common.h</text>
</a>
</g>
</g>
<!-- Node5&#45;&gt;Node9 -->
<g id="edge9_Node000005_Node000009" class="edge">
<title>Node5&#45;&gt;Node9</title>
<g id="a_edge9_Node000005_Node000009"><a xlink:title=" ">
<path fill="none" stroke="#63b8ff" d="M172.6,-279.59C193,-271.05 223.35,-258.35 246.44,-248.68"/>
<polygon fill="#63b8ff" stroke="#63b8ff" points="247.61,-251.57 255.48,-244.48 244.9,-245.11 247.61,-251.57"/>
</a>
</g>
</g>
<!-- Node10 -->
<g id="Node000010" class="node">
<title>Node10</title>
<g id="a_Node000010"><a xlink:title=" ">
<polygon fill="#e0e0e0" stroke="#999999" points="391.12,-244 345.12,-244 345.12,-224 391.12,-224 391.12,-244"/>
<text text-anchor="middle" x="368.12" y="-230.5" font-family="Helvetica,sans-Serif" font-size="10.00">math.h</text>
</a>
</g>
</g>
<!-- Node5&#45;&gt;Node10 -->
<g id="edge11_Node000005_Node000010" class="edge">
<title>Node5&#45;&gt;Node10</title>
<g id="a_edge11_Node000005_Node000010"><a xlink:title=" ">
<path fill="none" stroke="#63b8ff" d="M191.24,-279.51C226.71,-271.22 279.58,-258.63 334.16,-244.45"/>
<polygon fill="#63b8ff" stroke="#63b8ff" points="334.94,-247.6 343.73,-241.69 333.17,-240.83 334.94,-247.6"/>
</a>
</g>
</g>
<!-- Node7 -->
<g id="Node000007" class="node">
<title>Node7</title>
<g id="a_Node000007"><a xlink:href="a00317.html" target="_top" xlink:title="Contains fault data types.">
<polygon fill="white" stroke="#666666" points="148.12,-132 48.12,-132 48.12,-112 148.12,-112 148.12,-132"/>
<text text-anchor="middle" x="98.12" y="-118.5" font-family="Helvetica,sans-Serif" font-size="10.00">fault/fault_typedef.h</text>
</a>
</g>
</g>
<!-- Node6&#45;&gt;Node7 -->
<g id="edge6_Node000006_Node000007" class="edge">
<title>Node6&#45;&gt;Node7</title>
<g id="a_edge6_Node000006_Node000007"><a xlink:title=" ">
<path fill="none" stroke="#63b8ff" d="M98.12,-167.59C98.12,-160.86 98.12,-151.53 98.12,-143.15"/>
<polygon fill="#63b8ff" stroke="#63b8ff" points="101.63,-143.3 98.12,-133.3 94.63,-143.3 101.63,-143.3"/>
</a>
</g>
</g>
<!-- Node7&#45;&gt;Node2 -->
<g id="edge7_Node000007_Node000002" class="edge">
<title>Node7&#45;&gt;Node2</title>
<g id="a_edge7_Node000007_Node000002"><a xlink:title=" ">
<path fill="none" stroke="#63b8ff" d="M91.33,-111.59C86.07,-104.32 78.64,-94.02 72.23,-85.15"/>
<polygon fill="#63b8ff" stroke="#63b8ff" points="74.53,-83.36 65.84,-77.3 68.86,-87.45 74.53,-83.36"/>
</a>
</g>
</g>
<!-- Node9&#45;&gt;Node6 -->
<g id="edge10_Node000009_Node000006" class="edge">
<title>Node9&#45;&gt;Node6</title>
<g id="a_edge10_Node000009_Node000006"><a xlink:title=" ">
<path fill="none" stroke="#63b8ff" d="M247.6,-223.59C217.8,-214.71 172.9,-201.31 140.09,-191.52"/>
<polygon fill="#63b8ff" stroke="#63b8ff" points="141.48,-187.98 130.9,-188.48 139.48,-194.69 141.48,-187.98"/>
</a>
</g>
</g>
</g>
</svg>
