<?xml version="1.0" encoding="UTF-8" standalone="no"?>
<!DOCTYPE svg PUBLIC "-//W3C//DTD SVG 1.1//EN"
 "http://www.w3.org/Graphics/SVG/1.1/DTD/svg11.dtd">
<!-- Generated by graphviz version 8.1.0 (20230707.0739)
 -->
<!-- Title: Fault_Reset Pages: 1 -->
<svg width="526pt" height="66pt"
 viewBox="0.00 0.00 525.75 66.00" xmlns="http://www.w3.org/2000/svg" xmlns:xlink="http://www.w3.org/1999/xlink">
<g id="graph0" class="graph" transform="scale(1 1) rotate(0) translate(4 62)">
<title>Fault_Reset</title>
<!-- Node1 -->
<g id="Node000001" class="node">
<title>Node1</title>
<g id="a_Node000001"><a xlink:title="Clears the fault object flag bits.">
<polygon fill="#999999" stroke="#666666" points="517.75,-39 449.25,-39 449.25,-19 517.75,-19 517.75,-39"/>
<text text-anchor="middle" x="483.5" y="-25.5" font-family="Helvetica,sans-Serif" font-size="10.00">Fault_Reset</text>
</a>
</g>
</g>
<!-- Node2 -->
<g id="Node000002" class="node">
<title>Node2</title>
<g id="a_Node000002"><a xlink:href="a00437.html#ga8307344d190a5459682d315fc7bfe198" target="_top" xlink:title="Executes function for initialze state machine.">
<polygon fill="white" stroke="#666666" points="390.75,-58 296,-58 296,-38 390.75,-38 390.75,-58"/>
<text text-anchor="middle" x="343.38" y="-44.5" font-family="Helvetica,sans-Serif" font-size="10.00">PCS_INIT_handler</text>
</a>
</g>
</g>
<!-- Node1&#45;&gt;Node2 -->
<g id="edge1_Node000001_Node000002" class="edge">
<title>Node1&#45;&gt;Node2</title>
<g id="a_edge1_Node000001_Node000002"><a xlink:title=" ">
<path fill="none" stroke="#63b8ff" d="M438.44,-35.06C423.33,-37.14 406.38,-39.47 391.07,-41.58"/>
<polygon fill="#63b8ff" stroke="#63b8ff" points="438.63,-38.43 448.06,-33.6 437.68,-31.49 438.63,-38.43"/>
</a>
</g>
</g>
<!-- Node5 -->
<g id="Node000005" class="node">
<title>Node5</title>
<g id="a_Node000005"><a xlink:href="a00437.html#ga175dce657b908bab1509d14d90b547de" target="_top" xlink:title="Executes Standby State machine.">
<polygon fill="white" stroke="#666666" points="413.25,-20 273.5,-20 273.5,0 413.25,0 413.25,-20"/>
<text text-anchor="middle" x="343.38" y="-6.5" font-family="Helvetica,sans-Serif" font-size="10.00">PCS_PRECHARGE_handler</text>
</a>
</g>
</g>
<!-- Node1&#45;&gt;Node5 -->
<g id="edge4_Node000001_Node000005" class="edge">
<title>Node1&#45;&gt;Node5</title>
<g id="a_edge4_Node000001_Node000005"><a xlink:title=" ">
<path fill="none" stroke="#63b8ff" d="M438.27,-22.92C430.36,-21.83 421.95,-20.67 413.54,-19.51"/>
<polygon fill="#63b8ff" stroke="#63b8ff" points="437.68,-26.51 448.06,-24.4 438.63,-19.57 437.68,-26.51"/>
</a>
</g>
</g>
<!-- Node3 -->
<g id="Node000003" class="node">
<title>Node3</title>
<g id="a_Node000003"><a xlink:href="a00437.html#ga2408c0b52cd2c2487f43716f261434e6" target="_top" xlink:title="Manages the power control state machine.">
<polygon fill="white" stroke="#666666" points="237.5,-39 124.75,-39 124.75,-19 237.5,-19 237.5,-39"/>
<text text-anchor="middle" x="181.12" y="-25.5" font-family="Helvetica,sans-Serif" font-size="10.00">PwrCtrl_StateMachine</text>
</a>
</g>
</g>
<!-- Node2&#45;&gt;Node3 -->
<g id="edge2_Node000002_Node000003" class="edge">
<title>Node2&#45;&gt;Node3</title>
<g id="a_edge2_Node000002_Node000003"><a xlink:title=" ">
<path fill="none" stroke="#63b8ff" d="M284.7,-41.16C269.41,-39.35 252.93,-37.39 237.75,-35.59"/>
<polygon fill="#63b8ff" stroke="#63b8ff" points="284.25,-44.75 294.59,-42.45 285.07,-37.8 284.25,-44.75"/>
</a>
</g>
</g>
<!-- Node4 -->
<g id="Node000004" class="node">
<title>Node4</title>
<g id="a_Node000004"><a xlink:href="a00434.html#ga48dcb018afa53b60b6112cde00561c4b" target="_top" xlink:title="Executes the power control state machine.">
<polygon fill="white" stroke="#666666" points="88.75,-39 0,-39 0,-19 88.75,-19 88.75,-39"/>
<text text-anchor="middle" x="44.38" y="-25.5" font-family="Helvetica,sans-Serif" font-size="10.00">PwrCtrl_Execute</text>
</a>
</g>
</g>
<!-- Node3&#45;&gt;Node4 -->
<g id="edge3_Node000003_Node000004" class="edge">
<title>Node3&#45;&gt;Node4</title>
<g id="a_edge3_Node000003_Node000004"><a xlink:title=" ">
<path fill="none" stroke="#63b8ff" d="M113.57,-29C105.19,-29 96.79,-29 88.9,-29"/>
<polygon fill="#63b8ff" stroke="#63b8ff" points="113.54,-32.5 123.54,-29 113.54,-25.5 113.54,-32.5"/>
</a>
</g>
</g>
<!-- Node5&#45;&gt;Node3 -->
<g id="edge5_Node000005_Node000003" class="edge">
<title>Node5&#45;&gt;Node3</title>
<g id="a_edge5_Node000005_Node000003"><a xlink:title=" ">
<path fill="none" stroke="#63b8ff" d="M262.14,-19.51C253.83,-20.5 245.53,-21.48 237.59,-22.42"/>
<polygon fill="#63b8ff" stroke="#63b8ff" points="262.5,-22.88 272.02,-18.22 261.68,-15.92 262.5,-22.88"/>
</a>
</g>
</g>
</g>
</svg>
