<?xml version="1.0" encoding="UTF-8" standalone="no"?>
<!DOCTYPE svg PUBLIC "-//W3C//DTD SVG 1.1//EN"
 "http://www.w3.org/Graphics/SVG/1.1/DTD/svg11.dtd">
<!-- Generated by graphviz version 8.1.0 (20230707.0739)
 -->
<!-- Title: PCS_SOFT_START_handler Pages: 1 -->
<svg width="334pt" height="66pt"
 viewBox="0.00 0.00 334.00 66.00" xmlns="http://www.w3.org/2000/svg" xmlns:xlink="http://www.w3.org/1999/xlink">
<g id="graph0" class="graph" transform="scale(1 1) rotate(0) translate(4 62)">
<title>PCS_SOFT_START_handler</title>
<!-- Node1 -->
<g id="Node000001" class="node">
<title>Node1</title>
<g id="a_Node000001"><a xlink:title="Executes the power control soft start state machine.">
<polygon fill="#999999" stroke="#666666" points="139.75,-39 0,-39 0,-19 139.75,-19 139.75,-39"/>
<text text-anchor="middle" x="69.88" y="-25.5" font-family="Helvetica,sans-Serif" font-size="10.00">PCS_SOFT_START_handler</text>
</a>
</g>
</g>
<!-- Node2 -->
<g id="Node000002" class="node">
<title>Node2</title>
<g id="a_Node000002"><a xlink:href="a00436.html#gae13a0db6addfe827e4c48e0f2250e3f2" target="_top" xlink:title="Disable the PWM output.">
<polygon fill="white" stroke="#666666" points="326,-58 175.75,-58 175.75,-38 326,-38 326,-58"/>
<text text-anchor="middle" x="250.88" y="-44.5" font-family="Helvetica,sans-Serif" font-size="10.00">PwrCtrl_PWM_Stop_Switching</text>
</a>
</g>
</g>
<!-- Node1&#45;&gt;Node2 -->
<g id="edge1_Node000001_Node000002" class="edge">
<title>Node1&#45;&gt;Node2</title>
<g id="a_edge1_Node000001_Node000002"><a xlink:title=" ">
<path fill="none" stroke="#63b8ff" d="M140.08,-36.35C148.15,-37.2 156.46,-38.08 164.71,-38.96"/>
<polygon fill="#63b8ff" stroke="#63b8ff" points="164.2,-42.53 174.51,-40.11 164.94,-35.57 164.2,-42.53"/>
</a>
</g>
</g>
<!-- Node3 -->
<g id="Node000003" class="node">
<title>Node3</title>
<g id="a_Node000003"><a xlink:href="a00440.html#ga59bb2fab32dc783d76f800283b4c7e2b" target="_top" xlink:title="Softly increment / decrement to the set reference target.">
<polygon fill="white" stroke="#666666" points="311.75,-20 190,-20 190,0 311.75,0 311.75,-20"/>
<text text-anchor="middle" x="250.88" y="-6.5" font-family="Helvetica,sans-Serif" font-size="10.00">PwrCtrl_RampReference</text>
</a>
</g>
</g>
<!-- Node1&#45;&gt;Node3 -->
<g id="edge2_Node000001_Node000003" class="edge">
<title>Node1&#45;&gt;Node3</title>
<g id="a_edge2_Node000001_Node000003"><a xlink:title=" ">
<path fill="none" stroke="#63b8ff" d="M140.08,-21.65C152.84,-20.3 166.18,-18.88 178.99,-17.52"/>
<polygon fill="#63b8ff" stroke="#63b8ff" points="179.02,-20.93 188.6,-16.4 178.28,-13.97 179.02,-20.93"/>
</a>
</g>
</g>
</g>
</svg>
