<?xml version="1.0" encoding="UTF-8" standalone="no"?>
<!DOCTYPE svg PUBLIC "-//W3C//DTD SVG 1.1//EN"
 "http://www.w3.org/Graphics/SVG/1.1/DTD/svg11.dtd">
<!-- Generated by graphviz version 8.1.0 (20230707.0739)
 -->
<!-- Title: app_PBV_Task Pages: 1 -->
<svg width="243pt" height="66pt"
 viewBox="0.00 0.00 242.50 66.00" xmlns="http://www.w3.org/2000/svg" xmlns:xlink="http://www.w3.org/1999/xlink">
<g id="graph0" class="graph" transform="scale(1 1) rotate(0) translate(4 62)">
<title>app_PBV_Task</title>
<!-- Node1 -->
<g id="Node000001" class="node">
<title>Node1</title>
<g id="a_Node000001"><a xlink:title=" ">
<polygon fill="#999999" stroke="#666666" points="234.5,-39 151,-39 151,-19 234.5,-19 234.5,-39"/>
<text text-anchor="middle" x="192.75" y="-25.5" font-family="Helvetica,sans-Serif" font-size="10.00">app_PBV_Task</text>
</a>
</g>
</g>
<!-- Node2 -->
<g id="Node000002" class="node">
<title>Node2</title>
<g id="a_Node000002"><a xlink:href="a00424.html#ga4d73d7500b1e1be4dad85b7817390f64" target="_top" xlink:title="Task to be executed every 100 us.">
<polygon fill="white" stroke="#666666" points="115,-58 0,-58 0,-38 115,-38 115,-58"/>
<text text-anchor="middle" x="57.5" y="-44.5" font-family="Helvetica,sans-Serif" font-size="10.00">app_PBV_Task_100us</text>
</a>
</g>
</g>
<!-- Node1&#45;&gt;Node2 -->
<g id="edge1_Node000001_Node000002" class="edge">
<title>Node1&#45;&gt;Node2</title>
<g id="a_edge1_Node000001_Node000002"><a xlink:title=" ">
<path fill="none" stroke="#63b8ff" d="M139.93,-36.39C131.88,-37.54 123.52,-38.73 115.36,-39.89"/>
<polygon fill="#63b8ff" stroke="#63b8ff" points="140.28,-39.73 149.68,-34.86 139.29,-32.8 140.28,-39.73"/>
</a>
</g>
</g>
<!-- Node3 -->
<g id="Node000003" class="node">
<title>Node3</title>
<g id="a_Node000003"><a xlink:href="a00424.html#ga0d81d19c9a5d1d3511a562b5a45ccb57" target="_top" xlink:title="task to be executed every 10ms">
<polygon fill="white" stroke="#666666" points="113.88,-20 1.12,-20 1.12,0 113.88,0 113.88,-20"/>
<text text-anchor="middle" x="57.5" y="-6.5" font-family="Helvetica,sans-Serif" font-size="10.00">app_PBV_Task_10ms</text>
</a>
</g>
</g>
<!-- Node1&#45;&gt;Node3 -->
<g id="edge2_Node000001_Node000003" class="edge">
<title>Node1&#45;&gt;Node3</title>
<g id="a_edge2_Node000001_Node000003"><a xlink:title=" ">
<path fill="none" stroke="#63b8ff" d="M140.05,-21.63C131.48,-20.41 122.56,-19.13 113.89,-17.9"/>
<polygon fill="#63b8ff" stroke="#63b8ff" points="139.29,-25.2 149.68,-23.14 140.28,-18.27 139.29,-25.2"/>
</a>
</g>
</g>
</g>
</svg>
