<?xml version="1.0" encoding="UTF-8" standalone="no"?>
<!DOCTYPE svg PUBLIC "-//W3C//DTD SVG 1.1//EN"
 "http://www.w3.org/Graphics/SVG/1.1/DTD/svg11.dtd">
<!-- Generated by graphviz version 2.44.1 (20200629.0846)
 -->
<!-- Title: PCS_SOFT_START_handler Pages: 1 -->
<svg width="335pt" height="64pt"
 viewBox="0.00 0.00 335.00 64.00" xmlns="http://www.w3.org/2000/svg" xmlns:xlink="http://www.w3.org/1999/xlink">
<g id="graph0" class="graph" transform="scale(1 1) rotate(0) translate(4 60)">
<title>PCS_SOFT_START_handler</title>
<!-- Node1 -->
<g id="Node000001" class="node">
<title>Node1</title>
<g id="a_Node000001"><a xlink:title="Executes the power control soft start state machine.">
<polygon fill="#999999" stroke="#666666" points="140,-37 0,-37 0,-18 140,-18 140,-37"/>
<text text-anchor="middle" x="70" y="-25" font-family="Helvetica,sans-Serif" font-size="10.00">PCS_SOFT_START_handler</text>
</a>
</g>
</g>
<!-- Node2 -->
<g id="Node000002" class="node">
<title>Node2</title>
<g id="a_Node000002"><a xlink:href="a00436.html#gae13a0db6addfe827e4c48e0f2250e3f2" target="_top" xlink:title="Disable the PWM output.">
<polygon fill="white" stroke="#666666" points="327,-56 176,-56 176,-37 327,-37 327,-56"/>
<text text-anchor="middle" x="251.5" y="-44" font-family="Helvetica,sans-Serif" font-size="10.00">PwrCtrl_PWM_Stop_Switching</text>
</a>
</g>
</g>
<!-- Node1&#45;&gt;Node2 -->
<g id="edge1_Node000001_Node000002" class="edge">
<title>Node1&#45;&gt;Node2</title>
<g id="a_edge1_Node000001_Node000002"><a xlink:title=" ">
<path fill="none" stroke="#63b8ff" d="M140.14,-34.82C148.52,-35.71 157.15,-36.62 165.72,-37.53"/>
<polygon fill="#63b8ff" stroke="#63b8ff" points="165.42,-41.01 175.73,-38.59 166.15,-34.05 165.42,-41.01"/>
</a>
</g>
</g>
<!-- Node3 -->
<g id="Node000003" class="node">
<title>Node3</title>
<g id="a_Node000003"><a xlink:href="a00440.html#ga59bb2fab32dc783d76f800283b4c7e2b" target="_top" xlink:title="Softly increment / decrement to the set reference target.">
<polygon fill="white" stroke="#666666" points="312.5,-19 190.5,-19 190.5,0 312.5,0 312.5,-19"/>
<text text-anchor="middle" x="251.5" y="-7" font-family="Helvetica,sans-Serif" font-size="10.00">PwrCtrl_RampReference</text>
</a>
</g>
</g>
<!-- Node1&#45;&gt;Node3 -->
<g id="edge2_Node000001_Node000003" class="edge">
<title>Node1&#45;&gt;Node3</title>
<g id="a_edge2_Node000001_Node000003"><a xlink:title=" ">
<path fill="none" stroke="#63b8ff" d="M140.14,-20.57C153.36,-19.24 167.22,-17.85 180.47,-16.52"/>
<polygon fill="#63b8ff" stroke="#63b8ff" points="180.86,-20 190.46,-15.52 180.16,-13.04 180.86,-20"/>
</a>
</g>
</g>
</g>
</svg>
