<?xml version="1.0" encoding="UTF-8" standalone="no"?>
<!DOCTYPE svg PUBLIC "-//W3C//DTD SVG 1.1//EN"
 "http://www.w3.org/Graphics/SVG/1.1/DTD/svg11.dtd">
<!-- Generated by graphviz version 8.1.0 (20230707.0739)
 -->
<!-- Title: PwrCtrl_GetAdc_Ipri_ct Pages: 1 -->
<svg width="571pt" height="116pt"
 viewBox="0.00 0.00 570.75 116.00" xmlns="http://www.w3.org/2000/svg" xmlns:xlink="http://www.w3.org/1999/xlink">
<g id="graph0" class="graph" transform="scale(1 1) rotate(0) translate(4 112)">
<title>PwrCtrl_GetAdc_Ipri_ct</title>
<!-- Node1 -->
<g id="Node000001" class="node">
<title>Node1</title>
<g id="a_Node000001"><a xlink:title="API function to get the raw ADC value for primary current transformer current.">
<polygon fill="#999999" stroke="#666666" points="562.75,-58 445.5,-58 445.5,-38 562.75,-38 562.75,-58"/>
<text text-anchor="middle" x="504.12" y="-44.5" font-family="Helvetica,sans-Serif" font-size="10.00">PwrCtrl_GetAdc_Ipri_ct</text>
</a>
</g>
</g>
<!-- Node2 -->
<g id="Node000002" class="node">
<title>Node2</title>
<g id="a_Node000002"><a xlink:href="a00426.html#ga96b58cf519f2a436993861504db6b3e1" target="_top" xlink:title="this builds frame">
<polygon fill="white" stroke="#666666" points="408.38,-108 299.38,-108 299.38,-76 408.38,-76 408.38,-108"/>
<text text-anchor="start" x="307.38" y="-94.5" font-family="Helvetica,sans-Serif" font-size="10.00">App_PBV_psfb_Build</text>
<text text-anchor="middle" x="353.88" y="-82.5" font-family="Helvetica,sans-Serif" font-size="10.00">_Frame</text>
</a>
</g>
</g>
<!-- Node1&#45;&gt;Node2 -->
<g id="edge1_Node000001_Node000002" class="edge">
<title>Node1&#45;&gt;Node2</title>
<g id="a_edge1_Node000001_Node000002"><a xlink:title=" ">
<path fill="none" stroke="#63b8ff" d="M457.62,-61.5C442.14,-66.1 424.68,-71.28 408.6,-76.05"/>
<polygon fill="#63b8ff" stroke="#63b8ff" points="458.4,-64.63 466.99,-58.43 456.41,-57.92 458.4,-64.63"/>
</a>
</g>
</g>
<!-- Node4 -->
<g id="Node000004" class="node">
<title>Node4</title>
<g id="a_Node000004"><a xlink:href="a00428.html#ga96b0fadd9410b8b69eb6cd3962175834" target="_top" xlink:title=" ">
<polygon fill="white" stroke="#666666" points="409.5,-58 298.25,-58 298.25,-38 409.5,-38 409.5,-58"/>
<text text-anchor="middle" x="353.88" y="-44.5" font-family="Helvetica,sans-Serif" font-size="10.00">dev_ReadADCSample</text>
</a>
</g>
</g>
<!-- Node1&#45;&gt;Node4 -->
<g id="edge3_Node000001_Node000004" class="edge">
<title>Node1&#45;&gt;Node4</title>
<g id="a_edge3_Node000001_Node000004"><a xlink:title=" ">
<path fill="none" stroke="#63b8ff" d="M434.56,-48C426.25,-48 417.86,-48 409.79,-48"/>
<polygon fill="#63b8ff" stroke="#63b8ff" points="434.38,-51.5 444.38,-48 434.38,-44.5 434.38,-51.5"/>
</a>
</g>
</g>
<!-- Node6 -->
<g id="Node000006" class="node">
<title>Node6</title>
<g id="a_Node000006"><a xlink:href="a00437.html#ga8307344d190a5459682d315fc7bfe198" target="_top" xlink:title="Executes function for initialze state machine.">
<polygon fill="white" stroke="#666666" points="401.25,-20 306.5,-20 306.5,0 401.25,0 401.25,-20"/>
<text text-anchor="middle" x="353.88" y="-6.5" font-family="Helvetica,sans-Serif" font-size="10.00">PCS_INIT_handler</text>
</a>
</g>
</g>
<!-- Node1&#45;&gt;Node6 -->
<g id="edge5_Node000001_Node000006" class="edge">
<title>Node1&#45;&gt;Node6</title>
<g id="a_edge5_Node000001_Node000006"><a xlink:title=" ">
<path fill="none" stroke="#63b8ff" d="M451.7,-34.82C433.36,-30.12 412.97,-24.89 395.64,-20.45"/>
<polygon fill="#63b8ff" stroke="#63b8ff" points="450.67,-38.42 461.22,-37.52 452.4,-31.64 450.67,-38.42"/>
</a>
</g>
</g>
<!-- Node3 -->
<g id="Node000003" class="node">
<title>Node3</title>
<g id="a_Node000003"><a xlink:href="a00426.html#ga34ef08c06d636819aa039ff4a8f85c50" target="_top" xlink:title="this is high frequency task to simulate sending of high frequency numeric data. Also to check if ther...">
<polygon fill="white" stroke="#666666" points="262.25,-102 124.75,-102 124.75,-82 262.25,-82 262.25,-102"/>
<text text-anchor="middle" x="193.5" y="-88.5" font-family="Helvetica,sans-Serif" font-size="10.00">App_PBV_psfb_Task_10ms</text>
</a>
</g>
</g>
<!-- Node2&#45;&gt;Node3 -->
<g id="edge2_Node000002_Node000003" class="edge">
<title>Node2&#45;&gt;Node3</title>
<g id="a_edge2_Node000002_Node000003"><a xlink:title=" ">
<path fill="none" stroke="#63b8ff" d="M288.31,-92C279.86,-92 271.17,-92 262.66,-92"/>
<polygon fill="#63b8ff" stroke="#63b8ff" points="288.26,-95.5 298.26,-92 288.26,-88.5 288.26,-95.5"/>
</a>
</g>
</g>
<!-- Node5 -->
<g id="Node000005" class="node">
<title>Node5</title>
<g id="a_Node000005"><a xlink:href="a00428.html#gaaf49fa4fa4fb5b695ec987eb8cb5bd31" target="_top" xlink:title=" ">
<polygon fill="white" stroke="#666666" points="245.38,-58 141.62,-58 141.62,-38 245.38,-38 245.38,-58"/>
<text text-anchor="middle" x="193.5" y="-44.5" font-family="Helvetica,sans-Serif" font-size="10.00">dev_MeasureOffsets</text>
</a>
</g>
</g>
<!-- Node4&#45;&gt;Node5 -->
<g id="edge4_Node000004_Node000005" class="edge">
<title>Node4&#45;&gt;Node5</title>
<g id="a_edge4_Node000004_Node000005"><a xlink:title=" ">
<path fill="none" stroke="#63b8ff" d="M287,-48C273.18,-48 258.81,-48 245.63,-48"/>
<polygon fill="#63b8ff" stroke="#63b8ff" points="286.93,-51.5 296.93,-48 286.93,-44.5 286.93,-51.5"/>
</a>
</g>
</g>
<!-- Node7 -->
<g id="Node000007" class="node">
<title>Node7</title>
<g id="a_Node000007"><a xlink:href="a00437.html#ga2408c0b52cd2c2487f43716f261434e6" target="_top" xlink:title="Manages the power control state machine.">
<polygon fill="white" stroke="#666666" points="249.88,-20 137.12,-20 137.12,0 249.88,0 249.88,-20"/>
<text text-anchor="middle" x="193.5" y="-6.5" font-family="Helvetica,sans-Serif" font-size="10.00">PwrCtrl_StateMachine</text>
</a>
</g>
</g>
<!-- Node6&#45;&gt;Node7 -->
<g id="edge6_Node000006_Node000007" class="edge">
<title>Node6&#45;&gt;Node7</title>
<g id="a_edge6_Node000006_Node000007"><a xlink:title=" ">
<path fill="none" stroke="#63b8ff" d="M295.26,-10C280.61,-10 264.89,-10 250.34,-10"/>
<polygon fill="#63b8ff" stroke="#63b8ff" points="295.21,-13.5 305.21,-10 295.21,-6.5 295.21,-13.5"/>
</a>
</g>
</g>
<!-- Node8 -->
<g id="Node000008" class="node">
<title>Node8</title>
<g id="a_Node000008"><a xlink:href="a00434.html#ga48dcb018afa53b60b6112cde00561c4b" target="_top" xlink:title="Executes the power control state machine.">
<polygon fill="white" stroke="#666666" points="88.75,-20 0,-20 0,0 88.75,0 88.75,-20"/>
<text text-anchor="middle" x="44.38" y="-6.5" font-family="Helvetica,sans-Serif" font-size="10.00">PwrCtrl_Execute</text>
</a>
</g>
</g>
<!-- Node7&#45;&gt;Node8 -->
<g id="edge7_Node000007_Node000008" class="edge">
<title>Node7&#45;&gt;Node8</title>
<g id="a_edge7_Node000007_Node000008"><a xlink:title=" ">
<path fill="none" stroke="#63b8ff" d="M126,-10C113.51,-10 100.74,-10 89.15,-10"/>
<polygon fill="#63b8ff" stroke="#63b8ff" points="125.88,-13.5 135.88,-10 125.88,-6.5 125.88,-13.5"/>
</a>
</g>
</g>
</g>
</svg>
