<?xml version="1.0" encoding="UTF-8" standalone="no"?>
<!DOCTYPE svg PUBLIC "-//W3C//DTD SVG 1.1//EN"
 "http://www.w3.org/Graphics/SVG/1.1/DTD/svg11.dtd">
<!-- Generated by graphviz version 8.1.0 (20230707.0739)
 -->
<!-- Title: psfb_droop.X/sources/pwrctrl/pwrctrl_sm.c Pages: 1 -->
<svg width="1309pt" height="500pt"
 viewBox="0.00 0.00 1309.38 500.00" xmlns="http://www.w3.org/2000/svg" xmlns:xlink="http://www.w3.org/1999/xlink">
<g id="graph0" class="graph" transform="scale(1 1) rotate(0) translate(4 496)">
<title>psfb_droop.X/sources/pwrctrl/pwrctrl_sm.c</title>
<!-- Node1 -->
<g id="Node000001" class="node">
<title>Node1</title>
<g id="a_Node000001"><a xlink:title="Contains power control state machine functions that is executed every 100us.">
<polygon fill="#999999" stroke="#666666" points="596.12,-492 487.12,-492 487.12,-460 596.12,-460 596.12,-492"/>
<text text-anchor="start" x="495.12" y="-478.5" font-family="Helvetica,sans-Serif" font-size="10.00">psfb_droop.X/sources</text>
<text text-anchor="middle" x="541.62" y="-466.5" font-family="Helvetica,sans-Serif" font-size="10.00">/pwrctrl/pwrctrl_sm.c</text>
</a>
</g>
</g>
<!-- Node2 -->
<g id="Node000002" class="node">
<title>Node2</title>
<g id="a_Node000002"><a xlink:title=" ">
<polygon fill="#e0e0e0" stroke="#999999" points="360,-88 325.25,-88 325.25,-68 360,-68 360,-88"/>
<text text-anchor="middle" x="342.62" y="-74.5" font-family="Helvetica,sans-Serif" font-size="10.00">xc.h</text>
</a>
</g>
</g>
<!-- Node1&#45;&gt;Node2 -->
<g id="edge1_Node000001_Node000002" class="edge">
<title>Node1&#45;&gt;Node2</title>
<g id="a_edge1_Node000001_Node000002"><a xlink:title=" ">
<path fill="none" stroke="#63b8ff" d="M486.95,-469.48C455.86,-463.4 418.81,-450.67 396.62,-424 355.01,-373.98 345.22,-165.26 343.14,-99.17"/>
<polygon fill="#63b8ff" stroke="#63b8ff" points="346.61,-99.14 342.83,-89.24 339.61,-99.34 346.61,-99.14"/>
</a>
</g>
</g>
<!-- Node3 -->
<g id="Node000003" class="node">
<title>Node3</title>
<g id="a_Node000003"><a xlink:title=" ">
<polygon fill="#e0e0e0" stroke="#999999" points="366.75,-26 318.5,-26 318.5,-6 366.75,-6 366.75,-26"/>
<text text-anchor="middle" x="342.62" y="-12.5" font-family="Helvetica,sans-Serif" font-size="10.00">stdint.h</text>
</a>
</g>
</g>
<!-- Node1&#45;&gt;Node3 -->
<g id="edge2_Node000001_Node000003" class="edge">
<title>Node1&#45;&gt;Node3</title>
<g id="a_edge2_Node000001_Node000003"><a xlink:title=" ">
<path fill="none" stroke="#63b8ff" d="M523.4,-459.5C501.88,-440.22 466.51,-405.26 446.62,-368 381.76,-246.46 417.53,-196.79 368.62,-68 364.47,-57.06 358.64,-45.4 353.55,-36"/>
<polygon fill="#63b8ff" stroke="#63b8ff" points="356.18,-34.52 348.26,-27.49 350.07,-37.93 356.18,-34.52"/>
</a>
</g>
</g>
<!-- Node4 -->
<g id="Node000004" class="node">
<title>Node4</title>
<g id="a_Node000004"><a xlink:title=" ">
<polygon fill="#e0e0e0" stroke="#999999" points="927.5,-26 871.75,-26 871.75,-6 927.5,-6 927.5,-26"/>
<text text-anchor="middle" x="899.62" y="-12.5" font-family="Helvetica,sans-Serif" font-size="10.00">stdbool.h</text>
</a>
</g>
</g>
<!-- Node1&#45;&gt;Node4 -->
<g id="edge3_Node000001_Node000004" class="edge">
<title>Node1&#45;&gt;Node4</title>
<g id="a_edge3_Node000001_Node000004"><a xlink:title=" ">
<path fill="none" stroke="#63b8ff" d="M596.42,-470.93C752.41,-458.6 1187.62,-418.86 1187.62,-359 1187.62,-359 1187.62,-359 1187.62,-301 1187.62,-220.9 1253.55,-197.47 1221.62,-124 1207.09,-90.55 1194.12,-84.57 1161.62,-68 1088.74,-30.83 991.78,-20.67 938.61,-17.95"/>
<polygon fill="#63b8ff" stroke="#63b8ff" points="938.79,-14.41 928.64,-17.46 938.48,-21.4 938.79,-14.41"/>
</a>
</g>
</g>
<!-- Node5 -->
<g id="Node000005" class="node">
<title>Node5</title>
<g id="a_Node000005"><a xlink:title=" ">
<polygon fill="#e0e0e0" stroke="#999999" points="1089.88,-88 1039.38,-88 1039.38,-68 1089.88,-68 1089.88,-88"/>
<text text-anchor="middle" x="1064.62" y="-74.5" font-family="Helvetica,sans-Serif" font-size="10.00">stddef.h</text>
</a>
</g>
</g>
<!-- Node1&#45;&gt;Node5 -->
<g id="edge4_Node000001_Node000005" class="edge">
<title>Node1&#45;&gt;Node5</title>
<g id="a_edge4_Node000001_Node000005"><a xlink:title=" ">
<path fill="none" stroke="#63b8ff" d="M596.42,-474.11C746.09,-471.23 1153.83,-460.12 1201.62,-424 1226.19,-405.43 1225.62,-389.8 1225.62,-359 1225.62,-359 1225.62,-359 1225.62,-189 1225.62,-158.9 1227.67,-145.52 1206.62,-124 1178.73,-95.47 1132.87,-84.98 1100.84,-81.15"/>
<polygon fill="#63b8ff" stroke="#63b8ff" points="1101.44,-77.6 1091.14,-80.06 1100.73,-84.56 1101.44,-77.6"/>
</a>
</g>
</g>
<!-- Node6 -->
<g id="Node000006" class="node">
<title>Node6</title>
<g id="a_Node000006"><a xlink:title=" ">
<polygon fill="#e0e0e0" stroke="#999999" points="1301.38,-424 1253.88,-424 1253.88,-404 1301.38,-404 1301.38,-424"/>
<text text-anchor="middle" x="1277.62" y="-410.5" font-family="Helvetica,sans-Serif" font-size="10.00">stdlib.h</text>
</a>
</g>
</g>
<!-- Node1&#45;&gt;Node6 -->
<g id="edge5_Node000001_Node000006" class="edge">
<title>Node1&#45;&gt;Node6</title>
<g id="a_edge5_Node000001_Node000006"><a xlink:title=" ">
<path fill="none" stroke="#63b8ff" d="M596.26,-473.97C714.34,-471.09 1001.85,-460.6 1239.62,-424 1240.76,-423.82 1241.92,-423.63 1243.08,-423.43"/>
<polygon fill="#63b8ff" stroke="#63b8ff" points="1243.51,-426.71 1252.62,-421.3 1242.12,-419.85 1243.51,-426.71"/>
</a>
</g>
</g>
<!-- Node7 -->
<g id="Node000007" class="node">
<title>Node7</title>
<g id="a_Node000007"><a xlink:href="a00383_source.html" target="_top" xlink:title=" ">
<polygon fill="white" stroke="#666666" points="588,-312 535.25,-312 535.25,-292 588,-292 588,-312"/>
<text text-anchor="middle" x="561.62" y="-298.5" font-family="Helvetica,sans-Serif" font-size="10.00">pwrctrl.h</text>
</a>
</g>
</g>
<!-- Node1&#45;&gt;Node7 -->
<g id="edge6_Node000001_Node000007" class="edge">
<title>Node1&#45;&gt;Node7</title>
<g id="a_edge6_Node000001_Node000007"><a xlink:title=" ">
<path fill="none" stroke="#63b8ff" d="M543.4,-459.74C547.03,-428.55 555.28,-357.56 559.32,-322.85"/>
<polygon fill="#63b8ff" stroke="#63b8ff" points="562.88,-323.55 560.55,-313.21 555.92,-322.74 562.88,-323.55"/>
</a>
</g>
</g>
<!-- Node14 -->
<g id="Node000014" class="node">
<title>Node14</title>
<g id="a_Node000014"><a xlink:href="a00263.html" target="_top" xlink:title="Contains h files that are part of device layer.">
<polygon fill="white" stroke="#666666" points="279.25,-424 198,-424 198,-404 279.25,-404 279.25,-424"/>
<text text-anchor="middle" x="238.62" y="-410.5" font-family="Helvetica,sans-Serif" font-size="10.00">device/device.h</text>
</a>
</g>
</g>
<!-- Node1&#45;&gt;Node14 -->
<g id="edge16_Node000001_Node000014" class="edge">
<title>Node1&#45;&gt;Node14</title>
<g id="a_edge16_Node000001_Node000014"><a xlink:title=" ">
<path fill="none" stroke="#63b8ff" d="M486.75,-464.13C430.8,-453.05 344.65,-436 289.99,-425.17"/>
<polygon fill="#63b8ff" stroke="#63b8ff" points="290.99,-421.6 280.5,-423.09 289.63,-428.47 290.99,-421.6"/>
</a>
</g>
</g>
<!-- Node21 -->
<g id="Node000021" class="node">
<title>Node21</title>
<g id="a_Node000021"><a xlink:href="a00302.html" target="_top" xlink:title="Contains public fault functions.">
<polygon fill="white" stroke="#666666" points="911.25,-256 848,-256 848,-236 911.25,-236 911.25,-256"/>
<text text-anchor="middle" x="879.62" y="-242.5" font-family="Helvetica,sans-Serif" font-size="10.00">fault/fault.h</text>
</a>
</g>
</g>
<!-- Node1&#45;&gt;Node21 -->
<g id="edge34_Node000001_Node000021" class="edge">
<title>Node1&#45;&gt;Node21</title>
<g id="a_edge34_Node000001_Node000021"><a xlink:title=" ">
<path fill="none" stroke="#63b8ff" d="M564.59,-459.51C626.37,-417.84 795.54,-303.72 856.96,-262.29"/>
<polygon fill="#63b8ff" stroke="#63b8ff" points="858.53,-264.78 864.86,-256.28 854.62,-258.97 858.53,-264.78"/>
</a>
</g>
</g>
<!-- Node28 -->
<g id="Node000028" class="node">
<title>Node28</title>
<g id="a_Node000028"><a xlink:href="a00410.html" target="_top" xlink:title="Contains public functions for PWM.">
<polygon fill="white" stroke="#666666" points="533.75,-368 455.5,-368 455.5,-348 533.75,-348 533.75,-368"/>
<text text-anchor="middle" x="494.62" y="-354.5" font-family="Helvetica,sans-Serif" font-size="10.00">pwrctrl_pwm.h</text>
</a>
</g>
</g>
<!-- Node1&#45;&gt;Node28 -->
<g id="edge59_Node000001_Node000028" class="edge">
<title>Node1&#45;&gt;Node28</title>
<g id="a_edge59_Node000001_Node000028"><a xlink:title=" ">
<path fill="none" stroke="#63b8ff" d="M535.48,-459.84C527.01,-438.94 511.75,-401.27 502.47,-378.36"/>
<polygon fill="#63b8ff" stroke="#63b8ff" points="505.45,-377.39 498.45,-369.44 498.96,-380.02 505.45,-377.39"/>
</a>
</g>
</g>
<!-- Node29 -->
<g id="Node000029" class="node">
<title>Node29</title>
<g id="a_Node000029"><a xlink:href="a00146_source.html" target="_top" xlink:title=" ">
<polygon fill="white" stroke="#666666" points="344.38,-312 266.88,-312 266.88,-292 344.38,-292 344.38,-312"/>
<text text-anchor="middle" x="305.62" y="-298.5" font-family="Helvetica,sans-Serif" font-size="10.00">system/pins.h</text>
</a>
</g>
</g>
<!-- Node1&#45;&gt;Node29 -->
<g id="edge62_Node000001_Node000029" class="edge">
<title>Node1&#45;&gt;Node29</title>
<g id="a_edge62_Node000001_Node000029"><a xlink:title=" ">
<path fill="none" stroke="#63b8ff" d="M486.95,-472.03C447.17,-467.21 394.24,-454.92 358.62,-424 328.14,-397.54 314.52,-350.25 308.98,-323.29"/>
<polygon fill="#63b8ff" stroke="#63b8ff" points="312.24,-322.68 306.98,-313.49 305.36,-323.96 312.24,-322.68"/>
</a>
</g>
</g>
<!-- Node8 -->
<g id="Node000008" class="node">
<title>Node8</title>
<g id="a_Node000008"><a xlink:href="a00416_source.html" target="_top" xlink:title=" ">
<polygon fill="white" stroke="#666666" points="756.38,-200 666.88,-200 666.88,-180 756.38,-180 756.38,-200"/>
<text text-anchor="middle" x="711.62" y="-186.5" font-family="Helvetica,sans-Serif" font-size="10.00">pwrctrl_typedef.h</text>
</a>
</g>
</g>
<!-- Node7&#45;&gt;Node8 -->
<g id="edge7_Node000007_Node000008" class="edge">
<title>Node7&#45;&gt;Node8</title>
<g id="a_edge7_Node000007_Node000008"><a xlink:title=" ">
<path fill="none" stroke="#63b8ff" d="M586.29,-291.54C605.19,-283.63 631.38,-271.22 651.62,-256 669.75,-242.38 686.93,-222.84 698.22,-208.75"/>
<polygon fill="#63b8ff" stroke="#63b8ff" points="701.35,-211.43 704.74,-201.39 695.83,-207.12 701.35,-211.43"/>
</a>
</g>
</g>
<!-- Node11 -->
<g id="Node000011" class="node">
<title>Node11</title>
<g id="a_Node000011"><a xlink:href="a00395.html" target="_top" xlink:title="Contains public functions relevant for power control communication interface.">
<polygon fill="white" stroke="#666666" points="642.12,-256 515.12,-256 515.12,-236 642.12,-236 642.12,-256"/>
<text text-anchor="middle" x="578.62" y="-242.5" font-family="Helvetica,sans-Serif" font-size="10.00">pwrctrl_comm_interface.h</text>
</a>
</g>
</g>
<!-- Node7&#45;&gt;Node11 -->
<g id="edge12_Node000007_Node000011" class="edge">
<title>Node7&#45;&gt;Node11</title>
<g id="a_edge12_Node000007_Node000011"><a xlink:title=" ">
<path fill="none" stroke="#63b8ff" d="M564.59,-291.59C566.76,-284.7 569.78,-275.1 572.46,-266.57"/>
<polygon fill="#63b8ff" stroke="#63b8ff" points="576.03,-267.89 575.7,-257.3 569.36,-265.79 576.03,-267.89"/>
</a>
</g>
</g>
<!-- Node12 -->
<g id="Node000012" class="node">
<title>Node12</title>
<g id="a_Node000012"><a xlink:href="a00389.html" target="_top" xlink:title="Contains the power control reusable functions.">
<polygon fill="white" stroke="#666666" points="794.38,-256 698.88,-256 698.88,-236 794.38,-236 794.38,-256"/>
<text text-anchor="middle" x="746.62" y="-242.5" font-family="Helvetica,sans-Serif" font-size="10.00">pwrctrl_common.h</text>
</a>
</g>
</g>
<!-- Node7&#45;&gt;Node12 -->
<g id="edge13_Node000007_Node000012" class="edge">
<title>Node7&#45;&gt;Node12</title>
<g id="a_edge13_Node000007_Node000012"><a xlink:title=" ">
<path fill="none" stroke="#63b8ff" d="M588.13,-293.26C618.41,-284.42 668.38,-269.84 704.12,-259.41"/>
<polygon fill="#63b8ff" stroke="#63b8ff" points="704.63,-262.61 713.25,-256.45 702.67,-255.89 704.63,-262.61"/>
</a>
</g>
</g>
<!-- Node13 -->
<g id="Node000013" class="node">
<title>Node13</title>
<g id="a_Node000013"><a xlink:title=" ">
<polygon fill="#e0e0e0" stroke="#999999" points="463.62,-144 417.62,-144 417.62,-124 463.62,-124 463.62,-144"/>
<text text-anchor="middle" x="440.62" y="-130.5" font-family="Helvetica,sans-Serif" font-size="10.00">math.h</text>
</a>
</g>
</g>
<!-- Node7&#45;&gt;Node13 -->
<g id="edge15_Node000007_Node000013" class="edge">
<title>Node7&#45;&gt;Node13</title>
<g id="a_edge15_Node000007_Node000013"><a xlink:title=" ">
<path fill="none" stroke="#63b8ff" d="M547.22,-291.57C535.29,-283.25 518.44,-270.25 506.62,-256 480,-223.89 459.04,-179.41 448.37,-154.29"/>
<polygon fill="#63b8ff" stroke="#63b8ff" points="451.26,-153.13 444.2,-145.23 444.79,-155.81 451.26,-153.13"/>
</a>
</g>
</g>
<!-- Node9 -->
<g id="Node000009" class="node">
<title>Node9</title>
<g id="a_Node000009"><a xlink:href="a00317.html" target="_top" xlink:title="Contains fault data types.">
<polygon fill="white" stroke="#666666" points="763.62,-144 663.62,-144 663.62,-124 763.62,-124 763.62,-144"/>
<text text-anchor="middle" x="713.62" y="-130.5" font-family="Helvetica,sans-Serif" font-size="10.00">fault/fault_typedef.h</text>
</a>
</g>
</g>
<!-- Node8&#45;&gt;Node9 -->
<g id="edge8_Node000008_Node000009" class="edge">
<title>Node8&#45;&gt;Node9</title>
<g id="a_edge8_Node000008_Node000009"><a xlink:title=" ">
<path fill="none" stroke="#63b8ff" d="M711.97,-179.59C712.22,-172.86 712.57,-163.53 712.88,-155.15"/>
<polygon fill="#63b8ff" stroke="#63b8ff" points="716.41,-155.42 713.28,-145.3 709.41,-155.16 716.41,-155.42"/>
</a>
</g>
</g>
<!-- Node10 -->
<g id="Node000010" class="node">
<title>Node10</title>
<g id="a_Node000010"><a xlink:href="a00308.html" target="_top" xlink:title="Contains fault generic public functions.">
<polygon fill="white" stroke="#666666" points="787.12,-88 702.12,-88 702.12,-68 787.12,-68 787.12,-88"/>
<text text-anchor="middle" x="744.62" y="-74.5" font-family="Helvetica,sans-Serif" font-size="10.00">fault_common.h</text>
</a>
</g>
</g>
<!-- Node9&#45;&gt;Node10 -->
<g id="edge9_Node000009_Node000010" class="edge">
<title>Node9&#45;&gt;Node10</title>
<g id="a_edge9_Node000009_Node000010"><a xlink:title=" ">
<path fill="none" stroke="#63b8ff" d="M719.02,-123.59C723.11,-116.47 728.87,-106.45 733.88,-97.72"/>
<polygon fill="#63b8ff" stroke="#63b8ff" points="737.34,-99.71 739.29,-89.3 731.27,-96.23 737.34,-99.71"/>
</a>
</g>
</g>
<!-- Node10&#45;&gt;Node3 -->
<g id="edge10_Node000010_Node000003" class="edge">
<title>Node10&#45;&gt;Node3</title>
<g id="a_edge10_Node000010_Node000003"><a xlink:title=" ">
<path fill="none" stroke="#63b8ff" d="M701.68,-70.17C696.94,-69.43 692.18,-68.7 687.62,-68 574.37,-50.69 440.05,-31.11 377.68,-22.07"/>
<polygon fill="#63b8ff" stroke="#63b8ff" points="378.3,-18.47 367.9,-20.5 377.29,-25.4 378.3,-18.47"/>
</a>
</g>
</g>
<!-- Node10&#45;&gt;Node4 -->
<g id="edge11_Node000010_Node000004" class="edge">
<title>Node10&#45;&gt;Node4</title>
<g id="a_edge11_Node000010_Node000004"><a xlink:title=" ">
<path fill="none" stroke="#63b8ff" d="M768.84,-67.62C794.7,-57.62 835.9,-41.67 865.14,-30.35"/>
<polygon fill="#63b8ff" stroke="#63b8ff" points="866.26,-33.28 874.32,-26.41 863.73,-26.75 866.26,-33.28"/>
</a>
</g>
</g>
<!-- Node12&#45;&gt;Node8 -->
<g id="edge14_Node000012_Node000008" class="edge">
<title>Node12&#45;&gt;Node8</title>
<g id="a_edge14_Node000012_Node000008"><a xlink:title=" ">
<path fill="none" stroke="#63b8ff" d="M740.53,-235.59C735.86,-228.39 729.28,-218.23 723.57,-209.43"/>
<polygon fill="#63b8ff" stroke="#63b8ff" points="726.03,-207.79 717.65,-201.3 720.15,-211.59 726.03,-207.79"/>
</a>
</g>
</g>
<!-- Node15 -->
<g id="Node000015" class="node">
<title>Node15</title>
<g id="a_Node000015"><a xlink:href="a00275_source.html" target="_top" xlink:title=" ">
<polygon fill="white" stroke="#666666" points="247.88,-144 191.38,-144 191.38,-124 247.88,-124 247.88,-144"/>
<text text-anchor="middle" x="219.62" y="-130.5" font-family="Helvetica,sans-Serif" font-size="10.00">dev_led.h</text>
</a>
</g>
</g>
<!-- Node14&#45;&gt;Node15 -->
<g id="edge17_Node000014_Node000015" class="edge">
<title>Node14&#45;&gt;Node15</title>
<g id="a_edge17_Node000014_Node000015"><a xlink:title=" ">
<path fill="none" stroke="#63b8ff" d="M237.99,-403.75C235.3,-364.42 224.79,-210.58 221,-155.09"/>
<polygon fill="#63b8ff" stroke="#63b8ff" points="224.43,-155.02 220.26,-145.28 217.45,-155.5 224.43,-155.02"/>
</a>
</g>
</g>
<!-- Node16 -->
<g id="Node000016" class="node">
<title>Node16</title>
<g id="a_Node000016"><a xlink:href="a00269.html" target="_top" xlink:title="measure current sensor offsets">
<polygon fill="white" stroke="#666666" points="210.5,-368 82.75,-368 82.75,-348 210.5,-348 210.5,-368"/>
<text text-anchor="middle" x="146.62" y="-354.5" font-family="Helvetica,sans-Serif" font-size="10.00">dev_adc_sensor_offsets.h</text>
</a>
</g>
</g>
<!-- Node14&#45;&gt;Node16 -->
<g id="edge20_Node000014_Node000016" class="edge">
<title>Node14&#45;&gt;Node16</title>
<g id="a_edge20_Node000014_Node000016"><a xlink:title=" ">
<path fill="none" stroke="#63b8ff" d="M222.6,-403.59C208.7,-395.44 188.34,-383.48 172.19,-374"/>
<polygon fill="#63b8ff" stroke="#63b8ff" points="174.17,-370.52 163.78,-368.48 170.63,-376.56 174.17,-370.52"/>
</a>
</g>
</g>
<!-- Node15&#45;&gt;Node2 -->
<g id="edge18_Node000015_Node000002" class="edge">
<title>Node15&#45;&gt;Node2</title>
<g id="a_edge18_Node000015_Node000002"><a xlink:title=" ">
<path fill="none" stroke="#63b8ff" d="M241.05,-123.59C261.61,-114.57 292.75,-100.9 315.13,-91.07"/>
<polygon fill="#63b8ff" stroke="#63b8ff" points="316.28,-93.95 324.03,-86.73 313.46,-87.54 316.28,-93.95"/>
</a>
</g>
</g>
<!-- Node15&#45;&gt;Node3 -->
<g id="edge19_Node000015_Node000003" class="edge">
<title>Node15&#45;&gt;Node3</title>
<g id="a_edge19_Node000015_Node000003"><a xlink:title=" ">
<path fill="none" stroke="#63b8ff" d="M229.69,-123.51C250.52,-103.87 298.57,-58.55 324.78,-33.83"/>
<polygon fill="#63b8ff" stroke="#63b8ff" points="326.89,-36.71 331.76,-27.3 322.09,-31.61 326.89,-36.71"/>
</a>
</g>
</g>
<!-- Node16&#45;&gt;Node2 -->
<g id="edge21_Node000016_Node000002" class="edge">
<title>Node16&#45;&gt;Node2</title>
<g id="a_edge21_Node000016_Node000002"><a xlink:title=" ">
<path fill="none" stroke="#63b8ff" d="M153.15,-347.75C181.22,-307.93 292.08,-150.69 329.9,-97.04"/>
<polygon fill="#63b8ff" stroke="#63b8ff" points="333.18,-99.47 336.08,-89.28 327.46,-95.44 333.18,-99.47"/>
</a>
</g>
</g>
<!-- Node16&#45;&gt;Node3 -->
<g id="edge22_Node000016_Node000003" class="edge">
<title>Node16&#45;&gt;Node3</title>
<g id="a_edge22_Node000016_Node000003"><a xlink:title=" ">
<path fill="none" stroke="#63b8ff" d="M147.08,-347.53C149.11,-308.74 158.26,-162.23 182.62,-124 212.42,-77.25 270.79,-46.15 308.19,-30.06"/>
<polygon fill="#63b8ff" stroke="#63b8ff" points="309.25,-32.99 317.14,-25.92 306.56,-26.53 309.25,-32.99"/>
</a>
</g>
</g>
<!-- Node16&#45;&gt;Node7 -->
<g id="edge23_Node000016_Node000007" class="edge">
<title>Node16&#45;&gt;Node7</title>
<g id="a_edge23_Node000016_Node000007"><a xlink:title=" ">
<path fill="none" stroke="#63b8ff" d="M210.56,-348.68C298.4,-337.25 453.56,-317.06 524.43,-307.84"/>
<polygon fill="#63b8ff" stroke="#63b8ff" points="524.6,-311.22 534.06,-306.46 523.69,-304.28 524.6,-311.22"/>
</a>
</g>
</g>
<!-- Node17 -->
<g id="Node000017" class="node">
<title>Node17</title>
<g id="a_Node000017"><a xlink:href="a00062.html" target="_top" xlink:title="This is the generated driver header file for the ADC1 driver.">
<polygon fill="white" stroke="#666666" points="135.62,-144 71.62,-144 71.62,-124 135.62,-124 135.62,-144"/>
<text text-anchor="middle" x="103.62" y="-130.5" font-family="Helvetica,sans-Serif" font-size="10.00">adc/adc1.h</text>
</a>
</g>
</g>
<!-- Node16&#45;&gt;Node17 -->
<g id="edge24_Node000016_Node000017" class="edge">
<title>Node16&#45;&gt;Node17</title>
<g id="a_edge24_Node000016_Node000017"><a xlink:title=" ">
<path fill="none" stroke="#63b8ff" d="M144.83,-347.74C138.41,-314.6 116.48,-201.35 107.5,-155.01"/>
<polygon fill="#63b8ff" stroke="#63b8ff" points="110.76,-154.45 105.43,-145.3 103.89,-155.78 110.76,-154.45"/>
</a>
</g>
</g>
<!-- Node17&#45;&gt;Node2 -->
<g id="edge25_Node000017_Node000002" class="edge">
<title>Node17&#45;&gt;Node2</title>
<g id="a_edge25_Node000017_Node000002"><a xlink:title=" ">
<path fill="none" stroke="#63b8ff" d="M135.86,-125.72C182.86,-115.1 269.47,-95.53 314.21,-85.42"/>
<polygon fill="#63b8ff" stroke="#63b8ff" points="314.91,-88.63 323.89,-83.01 313.36,-81.8 314.91,-88.63"/>
</a>
</g>
</g>
<!-- Node17&#45;&gt;Node3 -->
<g id="edge27_Node000017_Node000003" class="edge">
<title>Node17&#45;&gt;Node3</title>
<g id="a_edge27_Node000017_Node000003"><a xlink:title=" ">
<path fill="none" stroke="#63b8ff" d="M114.72,-123.71C131.54,-110.01 164.89,-84.24 196.62,-68 232.81,-49.48 277.26,-35.03 307.55,-26.31"/>
<polygon fill="#63b8ff" stroke="#63b8ff" points="308.34,-29.44 317.02,-23.36 306.45,-22.7 308.34,-29.44"/>
</a>
</g>
</g>
<!-- Node17&#45;&gt;Node4 -->
<g id="edge26_Node000017_Node000004" class="edge">
<title>Node17&#45;&gt;Node4</title>
<g id="a_edge26_Node000017_Node000004"><a xlink:title=" ">
<path fill="none" stroke="#63b8ff" d="M128.44,-123.57C167.74,-109.05 246.98,-81.52 316.62,-68 518.86,-28.75 766.46,-19.68 860.7,-17.61"/>
<polygon fill="#63b8ff" stroke="#63b8ff" points="860.5,-21.09 870.42,-17.39 860.35,-14.09 860.5,-21.09"/>
</a>
</g>
</g>
<!-- Node18 -->
<g id="Node000018" class="node">
<title>Node18</title>
<g id="a_Node000018"><a xlink:href="a00071.html" target="_top" xlink:title="This is the generated driver types header file for the ADC driver.">
<polygon fill="white" stroke="#666666" points="69.25,-26 0,-26 0,-6 69.25,-6 69.25,-26"/>
<text text-anchor="middle" x="34.62" y="-12.5" font-family="Helvetica,sans-Serif" font-size="10.00">adc_types.h</text>
</a>
</g>
</g>
<!-- Node17&#45;&gt;Node18 -->
<g id="edge28_Node000017_Node000018" class="edge">
<title>Node17&#45;&gt;Node18</title>
<g id="a_edge28_Node000017_Node000018"><a xlink:title=" ">
<path fill="none" stroke="#63b8ff" d="M89.26,-123.6C77.96,-115.48 62.66,-102.74 53.62,-88 44.05,-72.38 39.24,-51.94 36.86,-37"/>
<polygon fill="#63b8ff" stroke="#63b8ff" points="40.24,-36.85 35.43,-27.4 33.3,-37.78 40.24,-36.85"/>
</a>
</g>
</g>
<!-- Node19 -->
<g id="Node000019" class="node">
<title>Node19</title>
<g id="a_Node000019"><a xlink:href="a00068_source.html" target="_top" xlink:title=" ">
<polygon fill="white" stroke="#666666" points="144.62,-88 62.62,-88 62.62,-68 144.62,-68 144.62,-88"/>
<text text-anchor="middle" x="103.62" y="-74.5" font-family="Helvetica,sans-Serif" font-size="10.00">adc_interface.h</text>
</a>
</g>
</g>
<!-- Node17&#45;&gt;Node19 -->
<g id="edge29_Node000017_Node000019" class="edge">
<title>Node17&#45;&gt;Node19</title>
<g id="a_edge29_Node000017_Node000019"><a xlink:title=" ">
<path fill="none" stroke="#63b8ff" d="M103.62,-123.59C103.62,-116.86 103.62,-107.53 103.62,-99.15"/>
<polygon fill="#63b8ff" stroke="#63b8ff" points="107.13,-99.3 103.62,-89.3 100.13,-99.3 107.13,-99.3"/>
</a>
</g>
</g>
<!-- Node19&#45;&gt;Node3 -->
<g id="edge30_Node000019_Node000003" class="edge">
<title>Node19&#45;&gt;Node3</title>
<g id="a_edge30_Node000019_Node000003"><a xlink:title=" ">
<path fill="none" stroke="#63b8ff" d="M141.23,-67.56C186.8,-56.12 262.97,-37 307.43,-25.84"/>
<polygon fill="#63b8ff" stroke="#63b8ff" points="308.16,-29.01 317.01,-23.18 306.46,-22.22 308.16,-29.01"/>
</a>
</g>
</g>
<!-- Node19&#45;&gt;Node4 -->
<g id="edge31_Node000019_Node000004" class="edge">
<title>Node19&#45;&gt;Node4</title>
<g id="a_edge31_Node000019_Node000004"><a xlink:title=" ">
<path fill="none" stroke="#63b8ff" d="M145.02,-73.88C283.01,-63.48 726.13,-30.08 860.58,-19.94"/>
<polygon fill="#63b8ff" stroke="#63b8ff" points="860.83,-23.36 870.54,-19.12 860.3,-16.38 860.83,-23.36"/>
</a>
</g>
</g>
<!-- Node19&#45;&gt;Node18 -->
<g id="edge32_Node000019_Node000018" class="edge">
<title>Node19&#45;&gt;Node18</title>
<g id="a_edge32_Node000019_Node000018"><a xlink:title=" ">
<path fill="none" stroke="#63b8ff" d="M92.84,-67.62C82.25,-58.41 65.87,-44.17 53.18,-33.14"/>
<polygon fill="#63b8ff" stroke="#63b8ff" points="55.95,-30.03 46.1,-26.11 51.35,-35.32 55.95,-30.03"/>
</a>
</g>
</g>
<!-- Node20 -->
<g id="Node000020" class="node">
<title>Node20</title>
<g id="a_Node000020"><a xlink:href="a00143_source.html" target="_top" xlink:title=" ">
<polygon fill="white" stroke="#666666" points="182.38,-32 86.88,-32 86.88,0 182.38,0 182.38,-32"/>
<text text-anchor="start" x="94.88" y="-18.5" font-family="Helvetica,sans-Serif" font-size="10.00">../system/interrupt</text>
<text text-anchor="middle" x="134.62" y="-6.5" font-family="Helvetica,sans-Serif" font-size="10.00">_types.h</text>
</a>
</g>
</g>
<!-- Node19&#45;&gt;Node20 -->
<g id="edge33_Node000019_Node000020" class="edge">
<title>Node19&#45;&gt;Node20</title>
<g id="a_edge33_Node000019_Node000020"><a xlink:title=" ">
<path fill="none" stroke="#63b8ff" d="M108.47,-67.62C112.07,-60.65 117.16,-50.8 121.89,-41.64"/>
<polygon fill="#63b8ff" stroke="#63b8ff" points="125.32,-43.63 126.8,-33.14 119.1,-40.42 125.32,-43.63"/>
</a>
</g>
</g>
<!-- Node21&#45;&gt;Node5 -->
<g id="edge35_Node000021_Node000005" class="edge">
<title>Node21&#45;&gt;Node5</title>
<g id="a_edge35_Node000021_Node000005"><a xlink:title=" ">
<path fill="none" stroke="#63b8ff" d="M895.17,-235.72C921.86,-219.33 977.33,-183.27 1016.62,-144 1031,-129.64 1044.47,-110.72 1053.46,-97"/>
<polygon fill="#63b8ff" stroke="#63b8ff" points="1056.74,-99.38 1059.17,-89.07 1050.84,-95.61 1056.74,-99.38"/>
</a>
</g>
</g>
<!-- Node21&#45;&gt;Node8 -->
<g id="edge43_Node000021_Node000008" class="edge">
<title>Node21&#45;&gt;Node8</title>
<g id="a_edge43_Node000021_Node000008"><a xlink:title=" ">
<path fill="none" stroke="#63b8ff" d="M850.36,-235.59C822.95,-226.78 781.75,-213.54 751.37,-203.78"/>
<polygon fill="#63b8ff" stroke="#63b8ff" points="752.71,-200.21 742.12,-200.48 750.57,-206.87 752.71,-200.21"/>
</a>
</g>
</g>
<!-- Node21&#45;&gt;Node21 -->
<g id="edge42_Node000021_Node000021" class="edge">
<title>Node21&#45;&gt;Node21</title>
<g id="a_edge42_Node000021_Node000021"><a xlink:title=" ">
<path fill="none" stroke="#63b8ff" d="M911.6,-256.49C921.49,-256.28 929.25,-252.78 929.25,-246 929.25,-241.97 926.51,-239.11 922.22,-237.39"/>
<polygon fill="#63b8ff" stroke="#63b8ff" points="923.06,-233.81 912.6,-235.51 921.84,-240.7 923.06,-233.81"/>
</a>
</g>
</g>
<!-- Node22 -->
<g id="Node000022" class="node">
<title>Node22</title>
<g id="a_Node000022"><a xlink:href="a00095.html" target="_top" xlink:title="This is the generated driver header file for the CMP3 driver.">
<polygon fill="white" stroke="#666666" points="1166.62,-200 1096.62,-200 1096.62,-180 1166.62,-180 1166.62,-200"/>
<text text-anchor="middle" x="1131.62" y="-186.5" font-family="Helvetica,sans-Serif" font-size="10.00">cmp/cmp3.h</text>
</a>
</g>
</g>
<!-- Node21&#45;&gt;Node22 -->
<g id="edge36_Node000021_Node000022" class="edge">
<title>Node21&#45;&gt;Node22</title>
<g id="a_edge36_Node000021_Node000022"><a xlink:title=" ">
<path fill="none" stroke="#63b8ff" d="M911.54,-238.16C955.59,-228.72 1035.28,-211.64 1085.72,-200.84"/>
<polygon fill="#63b8ff" stroke="#63b8ff" points="1086.28,-204.08 1095.33,-198.56 1084.81,-197.24 1086.28,-204.08"/>
</a>
</g>
</g>
<!-- Node24 -->
<g id="Node000024" class="node">
<title>Node24</title>
<g id="a_Node000024"><a xlink:href="a00248_source.html" target="_top" xlink:title=" ">
<polygon fill="white" stroke="#666666" points="979.75,-144 901.5,-144 901.5,-124 979.75,-124 979.75,-144"/>
<text text-anchor="middle" x="940.62" y="-130.5" font-family="Helvetica,sans-Serif" font-size="10.00">config/config.h</text>
</a>
</g>
</g>
<!-- Node21&#45;&gt;Node24 -->
<g id="edge44_Node000021_Node000024" class="edge">
<title>Node21&#45;&gt;Node24</title>
<g id="a_edge44_Node000021_Node000024"><a xlink:title=" ">
<path fill="none" stroke="#63b8ff" d="M884.83,-235.62C894.86,-217.52 917.08,-177.45 930.25,-153.7"/>
<polygon fill="#63b8ff" stroke="#63b8ff" points="933.65,-155.8 935.44,-145.35 927.53,-152.4 933.65,-155.8"/>
</a>
</g>
</g>
<!-- Node25 -->
<g id="Node000025" class="node">
<title>Node25</title>
<g id="a_Node000025"><a xlink:href="a00254_source.html" target="_top" xlink:title=" ">
<polygon fill="white" stroke="#666666" points="859.12,-200 774.12,-200 774.12,-180 859.12,-180 859.12,-200"/>
<text text-anchor="middle" x="816.62" y="-186.5" font-family="Helvetica,sans-Serif" font-size="10.00">config/macros.h</text>
</a>
</g>
</g>
<!-- Node21&#45;&gt;Node25 -->
<g id="edge49_Node000021_Node000025" class="edge">
<title>Node21&#45;&gt;Node25</title>
<g id="a_edge49_Node000021_Node000025"><a xlink:title=" ">
<path fill="none" stroke="#63b8ff" d="M868.65,-235.59C859.53,-227.77 846.33,-216.46 835.52,-207.19"/>
<polygon fill="#63b8ff" stroke="#63b8ff" points="838.34,-204.15 828.47,-200.3 833.79,-209.46 838.34,-204.15"/>
</a>
</g>
</g>
<!-- Node22&#45;&gt;Node4 -->
<g id="edge38_Node000022_Node000004" class="edge">
<title>Node22&#45;&gt;Node4</title>
<g id="a_edge38_Node000022_Node000004"><a xlink:title=" ">
<path fill="none" stroke="#63b8ff" d="M1158.86,-179.52C1185.38,-168.61 1219.89,-148.95 1206.62,-124 1185.74,-84.71 1164.46,-85.69 1123.62,-68 1061.92,-41.28 984.33,-27.63 938.55,-21.43"/>
<polygon fill="#63b8ff" stroke="#63b8ff" points="939.27,-17.86 928.9,-20.04 938.36,-24.81 939.27,-17.86"/>
</a>
</g>
</g>
<!-- Node22&#45;&gt;Node5 -->
<g id="edge37_Node000022_Node000005" class="edge">
<title>Node22&#45;&gt;Node5</title>
<g id="a_edge37_Node000022_Node000005"><a xlink:title=" ">
<path fill="none" stroke="#63b8ff" d="M1125.79,-179.72C1120.09,-170.64 1111.21,-156.41 1103.62,-144 1094.1,-128.4 1083.43,-110.6 1075.66,-97.57"/>
<polygon fill="#63b8ff" stroke="#63b8ff" points="1078.25,-96.09 1070.13,-89.29 1072.24,-99.67 1078.25,-96.09"/>
</a>
</g>
</g>
<!-- Node23 -->
<g id="Node000023" class="node">
<title>Node23</title>
<g id="a_Node000023"><a xlink:href="a00098_source.html" target="_top" xlink:title=" ">
<polygon fill="white" stroke="#666666" points="1197.12,-144 1112.12,-144 1112.12,-124 1197.12,-124 1197.12,-144"/>
<text text-anchor="middle" x="1154.62" y="-130.5" font-family="Helvetica,sans-Serif" font-size="10.00">cmp_interface.h</text>
</a>
</g>
</g>
<!-- Node22&#45;&gt;Node23 -->
<g id="edge39_Node000022_Node000023" class="edge">
<title>Node22&#45;&gt;Node23</title>
<g id="a_edge39_Node000022_Node000023"><a xlink:title=" ">
<path fill="none" stroke="#63b8ff" d="M1135.63,-179.59C1138.6,-172.63 1142.75,-162.89 1146.41,-154.29"/>
<polygon fill="#63b8ff" stroke="#63b8ff" points="1149.97,-155.87 1150.66,-145.3 1143.53,-153.13 1149.97,-155.87"/>
</a>
</g>
</g>
<!-- Node23&#45;&gt;Node4 -->
<g id="edge40_Node000023_Node000004" class="edge">
<title>Node23&#45;&gt;Node4</title>
<g id="a_edge40_Node000023_Node000004"><a xlink:title=" ">
<path fill="none" stroke="#63b8ff" d="M1149.35,-123.9C1140.66,-109.71 1121.91,-82.45 1098.62,-68 1048.79,-37.09 980.88,-24.84 938.67,-20.04"/>
<polygon fill="#63b8ff" stroke="#63b8ff" points="939.05,-16.46 928.74,-18.9 938.32,-23.42 939.05,-16.46"/>
</a>
</g>
</g>
<!-- Node23&#45;&gt;Node5 -->
<g id="edge41_Node000023_Node000005" class="edge">
<title>Node23&#45;&gt;Node5</title>
<g id="a_edge41_Node000023_Node000005"><a xlink:title=" ">
<path fill="none" stroke="#63b8ff" d="M1138.95,-123.59C1125.35,-115.44 1105.43,-103.48 1089.63,-94"/>
<polygon fill="#63b8ff" stroke="#63b8ff" points="1091.8,-90.62 1081.42,-88.48 1088.2,-96.63 1091.8,-90.62"/>
</a>
</g>
</g>
<!-- Node24&#45;&gt;Node2 -->
<g id="edge45_Node000024_Node000002" class="edge">
<title>Node24&#45;&gt;Node2</title>
<g id="a_edge45_Node000024_Node000002"><a xlink:title=" ">
<path fill="none" stroke="#63b8ff" d="M901.25,-128.74C886.62,-127.19 869.87,-125.47 854.62,-124 670.45,-106.27 448.72,-87.74 371.11,-81.34"/>
<polygon fill="#63b8ff" stroke="#63b8ff" points="371.57,-77.78 361.32,-80.45 371,-84.76 371.57,-77.78"/>
</a>
</g>
</g>
<!-- Node24&#45;&gt;Node3 -->
<g id="edge46_Node000024_Node000003" class="edge">
<title>Node24&#45;&gt;Node3</title>
<g id="a_edge46_Node000024_Node000003"><a xlink:title=" ">
<path fill="none" stroke="#63b8ff" d="M901.41,-128.88C852.08,-123.01 765.17,-110.4 693.62,-88 673.13,-81.58 670.17,-74.26 649.62,-68 553.68,-38.78 435.47,-25.12 377.72,-19.82"/>
<polygon fill="#63b8ff" stroke="#63b8ff" points="378.27,-16.27 368,-18.87 377.65,-23.24 378.27,-16.27"/>
</a>
</g>
</g>
<!-- Node24&#45;&gt;Node4 -->
<g id="edge47_Node000024_Node000004" class="edge">
<title>Node24&#45;&gt;Node4</title>
<g id="a_edge47_Node000024_Node000004"><a xlink:title=" ">
<path fill="none" stroke="#63b8ff" d="M937.27,-123.51C930.57,-104.55 915.41,-61.67 906.51,-36.48"/>
<polygon fill="#63b8ff" stroke="#63b8ff" points="909.54,-35.56 902.91,-27.3 902.94,-37.89 909.54,-35.56"/>
</a>
</g>
</g>
<!-- Node24&#45;&gt;Node5 -->
<g id="edge48_Node000024_Node000005" class="edge">
<title>Node24&#45;&gt;Node5</title>
<g id="a_edge48_Node000024_Node000005"><a xlink:title=" ">
<path fill="none" stroke="#63b8ff" d="M962.22,-123.59C981.75,-115.09 1010.75,-102.46 1032.91,-92.81"/>
<polygon fill="#63b8ff" stroke="#63b8ff" points="1034.09,-95.68 1041.86,-88.48 1031.29,-89.26 1034.09,-95.68"/>
</a>
</g>
</g>
<!-- Node25&#45;&gt;Node2 -->
<g id="edge50_Node000025_Node000002" class="edge">
<title>Node25&#45;&gt;Node2</title>
<g id="a_edge50_Node000025_Node000002"><a xlink:title=" ">
<path fill="none" stroke="#63b8ff" d="M773.99,-180.25C725.48,-170.1 649.39,-153.54 621.62,-144 601.69,-137.15 598.69,-130.47 578.62,-124 505.77,-100.51 416.08,-87.57 371.14,-82.13"/>
<polygon fill="#63b8ff" stroke="#63b8ff" points="371.8,-78.57 361.46,-80.88 370.99,-85.52 371.8,-78.57"/>
</a>
</g>
</g>
<!-- Node25&#45;&gt;Node3 -->
<g id="edge51_Node000025_Node000003" class="edge">
<title>Node25&#45;&gt;Node3</title>
<g id="a_edge51_Node000025_Node000003"><a xlink:title=" ">
<path fill="none" stroke="#63b8ff" d="M774.33,-179.5C741.24,-171.53 694.34,-159.06 654.62,-144 635.67,-136.81 632.18,-132.17 613.62,-124 529.83,-87.08 429.03,-48.87 377.18,-29.66"/>
<polygon fill="#63b8ff" stroke="#63b8ff" points="378.77,-26.15 368.18,-25.96 376.35,-32.71 378.77,-26.15"/>
</a>
</g>
</g>
<!-- Node25&#45;&gt;Node4 -->
<g id="edge52_Node000025_Node000004" class="edge">
<title>Node25&#45;&gt;Node4</title>
<g id="a_edge52_Node000025_Node000004"><a xlink:title=" ">
<path fill="none" stroke="#63b8ff" d="M826.18,-179.77C834.63,-171.17 846.79,-157.66 854.62,-144 874.82,-108.79 888.32,-62.97 894.91,-37.09"/>
<polygon fill="#63b8ff" stroke="#63b8ff" points="898.55,-37.97 897.53,-27.42 891.75,-36.3 898.55,-37.97"/>
</a>
</g>
</g>
<!-- Node25&#45;&gt;Node5 -->
<g id="edge53_Node000025_Node000005" class="edge">
<title>Node25&#45;&gt;Node5</title>
<g id="a_edge53_Node000025_Node000005"><a xlink:title=" ">
<path fill="none" stroke="#63b8ff" d="M859.57,-183.28C895.6,-177.21 947.59,-165.45 988.62,-144 1012.03,-131.76 1034.46,-111.11 1048.81,-96.37"/>
<polygon fill="#63b8ff" stroke="#63b8ff" points="1050.94,-99.15 1055.26,-89.48 1045.85,-94.35 1050.94,-99.15"/>
</a>
</g>
</g>
<!-- Node25&#45;&gt;Node13 -->
<g id="edge54_Node000025_Node000013" class="edge">
<title>Node25&#45;&gt;Node13</title>
<g id="a_edge54_Node000025_Node000013"><a xlink:title=" ">
<path fill="none" stroke="#63b8ff" d="M773.8,-181.27C771.04,-180.83 768.29,-180.4 765.62,-180 639.29,-161.1 603.15,-169.37 474.6,-144.13"/>
<polygon fill="#63b8ff" stroke="#63b8ff" points="475.44,-140.53 464.94,-142 474.07,-147.39 475.44,-140.53"/>
</a>
</g>
</g>
<!-- Node25&#45;&gt;Node24 -->
<g id="edge57_Node000025_Node000024" class="edge">
<title>Node25&#45;&gt;Node24</title>
<g id="a_edge57_Node000025_Node000024"><a xlink:title=" ">
<path fill="none" stroke="#63b8ff" d="M838.22,-179.59C857.75,-171.09 886.75,-158.46 908.91,-148.81"/>
<polygon fill="#63b8ff" stroke="#63b8ff" points="910.09,-151.68 917.86,-144.48 907.29,-145.26 910.09,-151.68"/>
</a>
</g>
</g>
<!-- Node26 -->
<g id="Node000026" class="node">
<title>Node26</title>
<g id="a_Node000026"><a xlink:href="a00257_source.html" target="_top" xlink:title=" ">
<polygon fill="white" stroke="#666666" points="569.25,-144 482,-144 482,-124 569.25,-124 569.25,-144"/>
<text text-anchor="middle" x="525.62" y="-130.5" font-family="Helvetica,sans-Serif" font-size="10.00">useful_macros.h</text>
</a>
</g>
</g>
<!-- Node25&#45;&gt;Node26 -->
<g id="edge55_Node000025_Node000026" class="edge">
<title>Node25&#45;&gt;Node26</title>
<g id="a_edge55_Node000025_Node000026"><a xlink:title=" ">
<path fill="none" stroke="#63b8ff" d="M773.69,-181.03C722.4,-171.52 636.53,-155.58 580.49,-145.18"/>
<polygon fill="#63b8ff" stroke="#63b8ff" points="581.16,-141.56 570.69,-143.18 579.89,-148.44 581.16,-141.56"/>
</a>
</g>
</g>
<!-- Node27 -->
<g id="Node000027" class="node">
<title>Node27</title>
<g id="a_Node000027"><a xlink:href="a00251_source.html" target="_top" xlink:title=" ">
<polygon fill="white" stroke="#666666" points="845.25,-144 782,-144 782,-124 845.25,-124 845.25,-144"/>
<text text-anchor="middle" x="813.62" y="-130.5" font-family="Helvetica,sans-Serif" font-size="10.00">hardware.h</text>
</a>
</g>
</g>
<!-- Node25&#45;&gt;Node27 -->
<g id="edge58_Node000025_Node000027" class="edge">
<title>Node25&#45;&gt;Node27</title>
<g id="a_edge58_Node000025_Node000027"><a xlink:title=" ">
<path fill="none" stroke="#63b8ff" d="M816.1,-179.59C815.73,-172.86 815.21,-163.53 814.74,-155.15"/>
<polygon fill="#63b8ff" stroke="#63b8ff" points="818.19,-155.09 814.14,-145.3 811.2,-155.48 818.19,-155.09"/>
</a>
</g>
</g>
<!-- Node26&#45;&gt;Node2 -->
<g id="edge56_Node000026_Node000002" class="edge">
<title>Node26&#45;&gt;Node2</title>
<g id="a_edge56_Node000026_Node000002"><a xlink:title=" ">
<path fill="none" stroke="#63b8ff" d="M493.75,-123.59C458.97,-113.33 403.84,-97.06 370.66,-87.27"/>
<polygon fill="#63b8ff" stroke="#63b8ff" points="371.89,-83.69 361.31,-84.22 369.91,-90.4 371.89,-83.69"/>
</a>
</g>
</g>
<!-- Node28&#45;&gt;Node7 -->
<g id="edge61_Node000028_Node000007" class="edge">
<title>Node28&#45;&gt;Node7</title>
<g id="a_edge61_Node000028_Node000007"><a xlink:title=" ">
<path fill="none" stroke="#63b8ff" d="M506.3,-347.59C516,-339.77 530.03,-328.46 541.53,-319.19"/>
<polygon fill="#63b8ff" stroke="#63b8ff" points="543.5,-321.3 549.09,-312.3 539.11,-315.85 543.5,-321.3"/>
</a>
</g>
</g>
<!-- Node28&#45;&gt;Node8 -->
<g id="edge60_Node000028_Node000008" class="edge">
<title>Node28&#45;&gt;Node8</title>
<g id="a_edge60_Node000028_Node000008"><a xlink:title=" ">
<path fill="none" stroke="#63b8ff" d="M492.29,-347.71C487.29,-325.35 478.15,-268.03 506.62,-236 526.1,-214.09 602.09,-201.95 655.85,-195.95"/>
<polygon fill="#63b8ff" stroke="#63b8ff" points="656.05,-199.34 665.62,-194.79 655.3,-192.38 656.05,-199.34"/>
</a>
</g>
</g>
<!-- Node29&#45;&gt;Node2 -->
<g id="edge63_Node000029_Node000002" class="edge">
<title>Node29&#45;&gt;Node2</title>
<g id="a_edge63_Node000029_Node000002"><a xlink:title=" ">
<path fill="none" stroke="#63b8ff" d="M307.17,-291.74C312.69,-258.6 331.57,-145.35 339.29,-99.01"/>
<polygon fill="#63b8ff" stroke="#63b8ff" points="342.88,-99.74 341.08,-89.3 335.98,-98.58 342.88,-99.74"/>
</a>
</g>
</g>
</g>
</svg>
