<?xml version="1.0" encoding="UTF-8" standalone="no"?>
<!DOCTYPE svg PUBLIC "-//W3C//DTD SVG 1.1//EN"
 "http://www.w3.org/Graphics/SVG/1.1/DTD/svg11.dtd">
<!-- Generated by graphviz version 8.1.0 (20230707.0739)
 -->
<!-- Title: Fault_Initialize Pages: 1 -->
<svg width="454pt" height="116pt"
 viewBox="0.00 0.00 454.25 116.00" xmlns="http://www.w3.org/2000/svg" xmlns:xlink="http://www.w3.org/1999/xlink">

<svg id="main" version="1.1" xmlns="http://www.w3.org/2000/svg" xmlns:xlink="http://www.w3.org/1999/xlink" xml:space="preserve">

<style type="text/css"><![CDATA[
.node, .edge {opacity: 0.7;}
.node.selected, .edge.selected {opacity: 1;}
.edge:hover path { stroke: red; }
.edge:hover polygon { stroke: red; fill: red; }
]]></style>
<script type="application/ecmascript" xlink:href="svg.min.js"/>
<svg id="graph" class="graph">
<g id="graph0" class="graph" transform="scale(1 1) rotate(0) translate(4 112)">
<title>Fault_Initialize</title>
<!-- Node1 -->
<g id="Node000001" class="node">
<title>Node1</title>
<g id="a_Node000001"><a xlink:title="Initialize the fault objects.">
<polygon fill="#999999" stroke="#666666" points="78.25,-70 0,-70 0,-50 78.25,-50 78.25,-70"/>
<text text-anchor="middle" x="39.12" y="-56.5" font-family="Helvetica,sans-Serif" font-size="10.00">Fault_Initialize</text>
</a>
</g>
</g>
<!-- Node2 -->
<g id="Node000002" class="node">
<title>Node2</title>
<g id="a_Node000002"><a xlink:href="a00451.html#ga0d7c1a0ccd35767078e0a677eff7e5d9" target="_top" xlink:title="This function can be used to override default callback and to define custom callback for CMP3 Event e...">
<polygon fill="white" stroke="#666666" points="260,-108 114.25,-108 114.25,-88 260,-88 260,-108"/>
<text text-anchor="middle" x="187.12" y="-94.5" font-family="Helvetica,sans-Serif" font-size="10.00">CMP3_EventCallbackRegister</text>
</a>
</g>
</g>
<!-- Node1&#45;&gt;Node2 -->
<g id="edge1_Node000001_Node000002" class="edge">
<title>Node1&#45;&gt;Node2</title>
<g id="a_edge1_Node000001_Node000002"><a xlink:title=" ">
<path fill="none" stroke="#63b8ff" d="M78.48,-69.98C95.94,-74.53 116.83,-79.97 135.55,-84.84"/>
<polygon fill="#63b8ff" stroke="#63b8ff" points="134.42,-88.42 144.98,-87.55 136.19,-81.65 134.42,-88.42"/>
</a>
</g>
</g>
<!-- Node3 -->
<g id="Node000003" class="node">
<title>Node3</title>
<g id="a_Node000003"><a xlink:href="a00444.html#gae9aa4b1a3733fa6ee5fb7778bdf74103" target="_top" xlink:title="This function initializes the fault object data structure with the values that required to detect a f...">
<polygon fill="white" stroke="#666666" points="219.12,-70 155.12,-70 155.12,-50 219.12,-50 219.12,-70"/>
<text text-anchor="middle" x="187.12" y="-56.5" font-family="Helvetica,sans-Serif" font-size="10.00">FAULT_Init</text>
</a>
</g>
</g>
<!-- Node1&#45;&gt;Node3 -->
<g id="edge2_Node000001_Node000003" class="edge">
<title>Node1&#45;&gt;Node3</title>
<g id="a_edge2_Node000001_Node000003"><a xlink:title=" ">
<path fill="none" stroke="#63b8ff" d="M78.48,-60C98.68,-60 123.48,-60 144.18,-60"/>
<polygon fill="#63b8ff" stroke="#63b8ff" points="143.9,-63.5 153.9,-60 143.9,-56.5 143.9,-63.5"/>
</a>
</g>
</g>
<!-- Node4 -->
<g id="Node000004" class="node">
<title>Node4</title>
<g id="a_Node000004"><a xlink:href="a00443.html#ga5ea57fbbe8d131a4f801a04c9c3dfb45" target="_top" xlink:title="callback for primary OC">
<polygon fill="white" stroke="#666666" points="251,-32 123.25,-32 123.25,0 251,0 251,-32"/>
<text text-anchor="start" x="131.25" y="-18.5" font-family="Helvetica,sans-Serif" font-size="10.00">Fault_PrimaryOverCurrent</text>
<text text-anchor="middle" x="187.12" y="-6.5" font-family="Helvetica,sans-Serif" font-size="10.00">_EventHandler</text>
</a>
</g>
</g>
<!-- Node1&#45;&gt;Node4 -->
<g id="edge3_Node000001_Node000004" class="edge">
<title>Node1&#45;&gt;Node4</title>
<g id="a_edge3_Node000001_Node000004"><a xlink:title=" ">
<path fill="none" stroke="#63b8ff" d="M74.72,-49.57C88.63,-45.38 105.13,-40.41 121.11,-35.59"/>
<polygon fill="#63b8ff" stroke="#63b8ff" points="121.95,-38.7 130.51,-32.46 119.93,-31.99 121.95,-38.7"/>
</a>
</g>
</g>
<!-- Node5 -->
<g id="Node000005" class="node">
<title>Node5</title>
<g id="a_Node000005"><a xlink:href="a00436.html#gae13a0db6addfe827e4c48e0f2250e3f2" target="_top" xlink:title="Disable the PWM output.">
<polygon fill="white" stroke="#666666" points="446.25,-26 296,-26 296,-6 446.25,-6 446.25,-26"/>
<text text-anchor="middle" x="371.12" y="-12.5" font-family="Helvetica,sans-Serif" font-size="10.00">PwrCtrl_PWM_Stop_Switching</text>
</a>
</g>
</g>
<!-- Node4&#45;&gt;Node5 -->
<g id="edge4_Node000004_Node000005" class="edge">
<title>Node4&#45;&gt;Node5</title>
<g id="a_edge4_Node000004_Node000005"><a xlink:title=" ">
<path fill="none" stroke="#63b8ff" d="M251.27,-16C262.08,-16 273.48,-16 284.76,-16"/>
<polygon fill="#63b8ff" stroke="#63b8ff" points="284.52,-19.5 294.52,-16 284.51,-12.5 284.52,-19.5"/>
</a>
</g>
</g>
</g>
</svg>
</svg>

<style type='text/css'>
<![CDATA[
[data-mouse-over-selected='false'] { opacity: 0.7; }
[data-mouse-over-selected='true']  { opacity: 1.0; }
]]>
</style>
<script type="application/ecmascript"><![CDATA[
document.addEventListener('DOMContentLoaded', (event) => {
  highlightEdges();
  highlightAdjacentNodes();
});
]]></script>
</svg>
