<?xml version="1.0" encoding="UTF-8" standalone="no"?>
<!DOCTYPE svg PUBLIC "-//W3C//DTD SVG 1.1//EN"
 "http://www.w3.org/Graphics/SVG/1.1/DTD/svg11.dtd">
<!-- Generated by graphviz version 8.1.0 (20230707.0739)
 -->
<!-- Title: dev_ReadADCSample Pages: 1 -->
<svg width="273pt" height="78pt"
 viewBox="0.00 0.00 272.50 78.00" xmlns="http://www.w3.org/2000/svg" xmlns:xlink="http://www.w3.org/1999/xlink">
<g id="graph0" class="graph" transform="scale(1 1) rotate(0) translate(4 74)">
<title>dev_ReadADCSample</title>
<!-- Node1 -->
<g id="Node000001" class="node">
<title>Node1</title>
<g id="a_Node000001"><a xlink:title=" ">
<polygon fill="#999999" stroke="#666666" points="111.25,-48 0,-48 0,-28 111.25,-28 111.25,-48"/>
<text text-anchor="middle" x="55.62" y="-34.5" font-family="Helvetica,sans-Serif" font-size="10.00">dev_ReadADCSample</text>
</a>
</g>
</g>
<!-- Node2 -->
<g id="Node000002" class="node">
<title>Node2</title>
<g id="a_Node000002"><a xlink:href="a00439.html#ga6450795c316e2284ae94eb16f0da1fe8" target="_top" xlink:title="API function to get the raw ADC value for primary current transformer current.">
<polygon fill="white" stroke="#666666" points="264.5,-70 147.25,-70 147.25,-50 264.5,-50 264.5,-70"/>
<text text-anchor="middle" x="205.88" y="-56.5" font-family="Helvetica,sans-Serif" font-size="10.00">PwrCtrl_GetAdc_Ipri_ct</text>
</a>
</g>
</g>
<!-- Node1&#45;&gt;Node2 -->
<g id="edge1_Node000001_Node000002" class="edge">
<title>Node1&#45;&gt;Node2</title>
<g id="a_edge1_Node000001_Node000002"><a xlink:title=" ">
<path fill="none" stroke="#63b8ff" d="M111.41,-46.13C119.44,-47.32 127.79,-48.56 136.06,-49.79"/>
<polygon fill="#63b8ff" stroke="#63b8ff" points="135.43,-53.38 145.84,-51.39 136.46,-46.46 135.43,-53.38"/>
</a>
</g>
</g>
<!-- Node3 -->
<g id="Node000003" class="node">
<title>Node3</title>
<g id="a_Node000003"><a xlink:href="a00439.html#ga73e4778085abb276456fb9611ae26feb" target="_top" xlink:title="API function to get the raw ADC value for secondary current transformer current.">
<polygon fill="white" stroke="#666666" points="260.38,-32 151.38,-32 151.38,0 260.38,0 260.38,-32"/>
<text text-anchor="start" x="159.38" y="-18.5" font-family="Helvetica,sans-Serif" font-size="10.00">PwrCtrl_GetAdc_Isec</text>
<text text-anchor="middle" x="205.88" y="-6.5" font-family="Helvetica,sans-Serif" font-size="10.00">_shunt</text>
</a>
</g>
</g>
<!-- Node1&#45;&gt;Node3 -->
<g id="edge2_Node000001_Node000003" class="edge">
<title>Node1&#45;&gt;Node3</title>
<g id="a_edge2_Node000001_Node000003"><a xlink:title=" ">
<path fill="none" stroke="#63b8ff" d="M111.41,-29.87C120.88,-28.47 130.8,-26.99 140.49,-25.55"/>
<polygon fill="#63b8ff" stroke="#63b8ff" points="140.93,-28.88 150.31,-23.95 139.9,-21.96 140.93,-28.88"/>
</a>
</g>
</g>
</g>
</svg>
