<?xml version="1.0" encoding="UTF-8" standalone="no"?>
<!DOCTYPE svg PUBLIC "-//W3C//DTD SVG 1.1//EN"
 "http://www.w3.org/Graphics/SVG/1.1/DTD/svg11.dtd">
<!-- Generated by graphviz version 8.1.0 (20230707.0739)
 -->
<!-- Title: ControlLoop_Interrupt_CallBack Pages: 1 -->
<!--zoomable 199 -->

<svg id="main" version="1.1" xmlns="http://www.w3.org/2000/svg" xmlns:xlink="http://www.w3.org/1999/xlink" xml:space="preserve" onload="init(evt)">

<style type="text/css"><![CDATA[
.node, .edge {opacity: 0.7;}
.node.selected, .edge.selected {opacity: 1;}
.edge:hover path { stroke: red; }
.edge:hover polygon { stroke: red; fill: red; }
]]></style>

<defs>
  <circle id="rim" cx="0" cy="0" r="7"/>
  <circle id="rim2" cx="0" cy="0" r="3.5"/>
  <g id="zoomPlus">
    <use xlink:href="#rim" fill="#404040"><set attributeName="fill" to="#808080" begin="zoomplus.mouseover" end="zoomplus.mouseout"/></use>
    <path d="M-4,0h8M0,-4v8" fill="none" stroke="white" stroke-width="1.5" pointer-events="none"/>
  </g>
  <g id="zoomMin">
    <use xlink:href="#rim" fill="#404040"><set attributeName="fill" to="#808080" begin="zoomminus.mouseover" end="zoomminus.mouseout"/></use>
    <path d="M-4,0h8" fill="none" stroke="white" stroke-width="1.5" pointer-events="none"/>
  </g>
  <g id="arrowUp" transform="translate(30 24)">
    <use xlink:href="#rim"/>
    <path pointer-events="none" fill="none" stroke="white" stroke-width="1.5" d="M0,-3.0v7 M-2.5,-0.5L0,-3.0L2.5,-0.5"/>
  </g>
  <g id="arrowRight" transform="rotate(90) translate(36 -43)">
    <use xlink:href="#rim"/>
    <path pointer-events="none" fill="none" stroke="white" stroke-width="1.5" d="M0,-3.0v7 M-2.5,-0.5L0,-3.0L2.5,-0.5"/>
  </g>
  <g id="arrowDown" transform="rotate(180) translate(-30 -48)">
    <use xlink:href="#rim"/>
    <path pointer-events="none" fill="none" stroke="white" stroke-width="1.5" d="M0,-3.0v7 M-2.5,-0.5L0,-3.0L2.5,-0.5"/>
  </g>
  <g id="arrowLeft" transform="rotate(270) translate(-36 17)">
    <use xlink:href="#rim"/>
    <path pointer-events="none" fill="none" stroke="white" stroke-width="1.5" d="M0,-3.0v7 M-2.5,-0.5L0,-3.0L2.5,-0.5"/>
  </g>
  <g id="resetDef">
    <use xlink:href="#rim2" fill="#404040"><set attributeName="fill" to="#808080" begin="reset.mouseover" end="reset.mouseout"/></use>
  </g>
</defs>
<script type="application/ecmascript">
var viewWidth = 670;
var viewHeight = 199;
var sectionId = 'dynsection-2';
</script>
<script type="application/ecmascript" xlink:href="svg.min.js"/>
<svg id="graph" class="graph">
<g id="viewport">
<title>ControlLoop_Interrupt_CallBack</title>
<!-- Node1 -->
<g id="Node000001" class="node">
<title>Node1</title>
<g id="a_Node000001"><a xlink:title="Executes the power converter control loop.">
<polygon fill="#999999" stroke="#666666" points="108.25,-83 0,-83 0,-51 108.25,-51 108.25,-83"/>
<text text-anchor="start" x="8" y="-69.5" font-family="Helvetica,sans-Serif" font-size="10.00">ControlLoop_Interrupt</text>
<text text-anchor="middle" x="54.12" y="-57.5" font-family="Helvetica,sans-Serif" font-size="10.00">_CallBack</text>
</a>
</g>
</g>
<!-- Node2 -->
<g id="Node000002" class="node">
<title>Node2</title>
<g id="a_Node000002"><a xlink:href="a00435.html#ga2eeebdb0cef4bbfeed446752525dd879" target="_top" xlink:title="Executes the power converter control loop.">
<polygon fill="white" stroke="#666666" points="284.75,-77 144.25,-77 144.25,-57 284.75,-57 284.75,-77"/>
<text text-anchor="middle" x="214.5" y="-63.5" font-family="Helvetica,sans-Serif" font-size="10.00">PwrCtrl_ControlLoopExecute</text>
</a>
</g>
</g>
<!-- Node1&#45;&gt;Node2 -->
<g id="edge1_Node000001_Node000002" class="edge">
<title>Node1&#45;&gt;Node2</title>
<g id="a_edge1_Node000001_Node000002"><a xlink:title=" ">
<path fill="none" stroke="#63b8ff" d="M108.74,-67C116.61,-67 124.84,-67 133.1,-67"/>
<polygon fill="#63b8ff" stroke="#63b8ff" points="132.93,-70.5 142.93,-67 132.93,-63.5 132.93,-70.5"/>
</a>
</g>
</g>
<!-- Node3 -->
<g id="Node000003" class="node">
<title>Node3</title>
<g id="a_Node000003"><a xlink:href="a00436.html#ga054f3de472c33a84cb37459b27a0d3b3" target="_top" xlink:title="PWM distribution for PSFB converter.">
<polygon fill="white" stroke="#666666" points="449.62,-134 336.12,-134 336.12,-114 449.62,-114 449.62,-134"/>
<text text-anchor="middle" x="392.88" y="-120.5" font-family="Helvetica,sans-Serif" font-size="10.00">PwrCtrl_PWM_Update</text>
</a>
</g>
</g>
<!-- Node2&#45;&gt;Node3 -->
<g id="edge2_Node000002_Node000003" class="edge">
<title>Node2&#45;&gt;Node3</title>
<g id="a_edge2_Node000002_Node000003"><a xlink:title=" ">
<path fill="none" stroke="#63b8ff" d="M242.54,-77.48C263.67,-85.5 293.87,-96.57 320.75,-105 326.99,-106.96 333.58,-108.89 340.13,-110.73"/>
<polygon fill="#63b8ff" stroke="#63b8ff" points="338.76,-114.26 349.33,-113.54 340.62,-107.51 338.76,-114.26"/>
</a>
</g>
</g>
<!-- Node8 -->
<g id="Node000008" class="node">
<title>Node8</title>
<g id="a_Node000008"><a xlink:href="a00439.html#gae62d241af8152bb7989d448f30adc55e" target="_top" xlink:title="API function to set the target PWM phase.">
<polygon fill="white" stroke="#666666" points="454.12,-96 331.62,-96 331.62,-76 454.12,-76 454.12,-96"/>
<text text-anchor="middle" x="392.88" y="-82.5" font-family="Helvetica,sans-Serif" font-size="10.00">PwrCtrl_SetPhaseTarget</text>
</a>
</g>
</g>
<!-- Node2&#45;&gt;Node8 -->
<g id="edge7_Node000002_Node000008" class="edge">
<title>Node2&#45;&gt;Node8</title>
<g id="a_edge7_Node000002_Node000008"><a xlink:title=" ">
<path fill="none" stroke="#63b8ff" d="M285.21,-74.51C296.86,-75.76 308.95,-77.07 320.64,-78.33"/>
<polygon fill="#63b8ff" stroke="#63b8ff" points="319.91,-81.88 330.23,-79.47 320.66,-74.92 319.91,-81.88"/>
</a>
</g>
</g>
<!-- Node9 -->
<g id="Node000009" class="node">
<title>Node9</title>
<g id="a_Node000009"><a xlink:href="a00374.html#ac4c8852561395f2969c08ff062325e03" target="_top" xlink:title=" ">
<polygon fill="white" stroke="#666666" points="465,-58 320.75,-58 320.75,-38 465,-38 465,-58"/>
<text text-anchor="middle" x="392.88" y="-44.5" font-family="Helvetica,sans-Serif" font-size="10.00">SMPS_Controller2P2ZUpdate</text>
</a>
</g>
</g>
<!-- Node2&#45;&gt;Node9 -->
<g id="edge8_Node000002_Node000009" class="edge">
<title>Node2&#45;&gt;Node9</title>
<g id="a_edge8_Node000002_Node000009"><a xlink:title=" ">
<path fill="none" stroke="#63b8ff" d="M285.21,-59.49C293.24,-58.63 301.49,-57.74 309.67,-56.86"/>
<polygon fill="#63b8ff" stroke="#63b8ff" points="309.79,-60.26 319.36,-55.7 309.04,-53.3 309.79,-60.26"/>
</a>
</g>
</g>
<!-- Node10 -->
<g id="Node000010" class="node">
<title>Node10</title>
<g id="a_Node000010"><a xlink:href="a00374.html#a8ba04b5d00e0c881d269a9429b3ed34b" target="_top" xlink:title=" ">
<polygon fill="white" stroke="#666666" points="465,-20 320.75,-20 320.75,0 465,0 465,-20"/>
<text text-anchor="middle" x="392.88" y="-6.5" font-family="Helvetica,sans-Serif" font-size="10.00">SMPS_Controller3P3ZUpdate</text>
</a>
</g>
</g>
<!-- Node2&#45;&gt;Node10 -->
<g id="edge9_Node000002_Node000010" class="edge">
<title>Node2&#45;&gt;Node10</title>
<g id="a_edge9_Node000002_Node000010"><a xlink:title=" ">
<path fill="none" stroke="#63b8ff" d="M242.54,-56.52C263.67,-48.5 293.87,-37.43 320.75,-29 326.99,-27.04 333.58,-25.11 340.13,-23.27"/>
<polygon fill="#63b8ff" stroke="#63b8ff" points="340.62,-26.49 349.33,-20.46 338.76,-19.74 340.62,-26.49"/>
</a>
</g>
</g>
<!-- Node4 -->
<g id="Node000004" class="node">
<title>Node4</title>
<g id="a_Node000004"><a xlink:href="a00454.html#ga37968a783e44cd80643478d2b559dbf4" target="_top" xlink:title="This inline function sets the PWM generator specific duty cycle register.">
<polygon fill="white" stroke="#666666" points="634.38,-191 528.38,-191 528.38,-171 634.38,-171 634.38,-191"/>
<text text-anchor="middle" x="581.38" y="-177.5" font-family="Helvetica,sans-Serif" font-size="10.00">PWM_DutyCycleSet</text>
</a>
</g>
</g>
<!-- Node3&#45;&gt;Node4 -->
<g id="edge3_Node000003_Node000004" class="edge">
<title>Node3&#45;&gt;Node4</title>
<g id="a_edge3_Node000003_Node000004"><a xlink:title=" ">
<path fill="none" stroke="#63b8ff" d="M420.91,-134.49C442.42,-142.61 473.37,-153.82 501,-162 507.94,-164.05 515.27,-166.05 522.55,-167.92"/>
<polygon fill="#63b8ff" stroke="#63b8ff" points="521.6,-171.54 532.15,-170.56 523.3,-164.74 521.6,-171.54"/>
</a>
</g>
</g>
<!-- Node5 -->
<g id="Node000005" class="node">
<title>Node5</title>
<g id="a_Node000005"><a xlink:href="a00454.html#ga83e780358618114f0d424ca7467cf751" target="_top" xlink:title="This inline function requests to update the data registers for specific PWM generator selected by the...">
<polygon fill="white" stroke="#666666" points="656.5,-153 506.25,-153 506.25,-133 656.5,-133 656.5,-153"/>
<text text-anchor="middle" x="581.38" y="-139.5" font-family="Helvetica,sans-Serif" font-size="10.00">PWM_SoftwareUpdateRequest</text>
</a>
</g>
</g>
<!-- Node3&#45;&gt;Node5 -->
<g id="edge4_Node000003_Node000005" class="edge">
<title>Node3&#45;&gt;Node5</title>
<g id="a_edge4_Node000003_Node000005"><a xlink:title=" ">
<path fill="none" stroke="#63b8ff" d="M450.08,-129.73C464.38,-131.18 480.05,-132.78 495.43,-134.35"/>
<polygon fill="#63b8ff" stroke="#63b8ff" points="494.7,-137.89 505,-135.42 495.41,-130.93 494.7,-137.89"/>
</a>
</g>
</g>
<!-- Node6 -->
<g id="Node000006" class="node">
<title>Node6</title>
<g id="a_Node000006"><a xlink:href="a00454.html#ga3453a907bf8e14bb9bb434ddd0e82500" target="_top" xlink:title="This inline function sets the Trigger B compare value in count for a specific PWM generator selected ...">
<polygon fill="white" stroke="#666666" points="661.75,-115 501,-115 501,-95 661.75,-95 661.75,-115"/>
<text text-anchor="middle" x="581.38" y="-101.5" font-family="Helvetica,sans-Serif" font-size="10.00">PWM_TriggerBCompareValueSet</text>
</a>
</g>
</g>
<!-- Node3&#45;&gt;Node6 -->
<g id="edge5_Node000003_Node000006" class="edge">
<title>Node3&#45;&gt;Node6</title>
<g id="a_edge5_Node000003_Node000006"><a xlink:title=" ">
<path fill="none" stroke="#63b8ff" d="M450.08,-118.27C462.61,-117 476.2,-115.61 489.72,-114.24"/>
<polygon fill="#63b8ff" stroke="#63b8ff" points="489.93,-117.63 499.52,-113.14 489.22,-110.67 489.93,-117.63"/>
</a>
</g>
</g>
<!-- Node7 -->
<g id="Node000007" class="node">
<title>Node7</title>
<g id="a_Node000007"><a xlink:href="a00454.html#gacc5575148a6e8da6577d9be9e20541ce" target="_top" xlink:title="This inline function sets the Trigger C compare value in count for a specific PWM generator selected ...">
<polygon fill="white" stroke="#666666" points="661.75,-77 501,-77 501,-57 661.75,-57 661.75,-77"/>
<text text-anchor="middle" x="581.38" y="-63.5" font-family="Helvetica,sans-Serif" font-size="10.00">PWM_TriggerCCompareValueSet</text>
</a>
</g>
</g>
<!-- Node3&#45;&gt;Node7 -->
<g id="edge6_Node000003_Node000007" class="edge">
<title>Node3&#45;&gt;Node7</title>
<g id="a_edge6_Node000003_Node000007"><a xlink:title=" ">
<path fill="none" stroke="#63b8ff" d="M439.14,-113.55C447.84,-111.08 456.79,-108.22 465,-105 481.85,-98.4 484.07,-92.38 501,-86 506.47,-83.94 512.24,-82.05 518.07,-80.33"/>
<polygon fill="#63b8ff" stroke="#63b8ff" points="518.87,-83.46 527.57,-77.41 517,-76.72 518.87,-83.46"/>
</a>
</g>
</g>
</g>
</svg>

<g id="navigator" transform="translate(0 0)" fill="#404254">
  <rect fill="#f2f5e9" fill-opacity="0.5" stroke="#606060" stroke-width=".5" x="0" y="0" width="60" height="60"/>
  <use id="zoomplus" xlink:href="#zoomPlus" x="17" y="9" onmousedown="handleZoom(evt,'in')"/>
  <use id="zoomminus" xlink:href="#zoomMin" x="42" y="9" onmousedown="handleZoom(evt,'out')"/>
  <use id="reset" xlink:href="#resetDef" x="30" y="36" onmousedown="handleReset()"/>
   <use id="arrowup" xlink:href="#arrowUp" x="0" y="0" onmousedown="handlePan(0,-1)"/>
  <use id="arrowright" xlink:href="#arrowRight" x="0" y="0" onmousedown="handlePan(1,0)"/>
  <use id="arrowdown" xlink:href="#arrowDown" x="0" y="0" onmousedown="handlePan(0,1)"/>
  <use id="arrowleft" xlink:href="#arrowLeft" x="0" y="0" onmousedown="handlePan(-1,0)"/>
</g>
<svg viewBox="0 0 15 15" width="100%" height="30px" preserveAspectRatio="xMaxYMin meet">
 <g id="arrow_out" transform="scale(0.3 0.3)">
  <a xlink:href="a00435_gae32c9e5ed4d1fb98fc13b26601782c10_cgraph_org.svg" target="_base">
   <rect id="button" ry="5" rx="5" y="6" x="6" height="38" width="38"
        fill="#f2f5e9" fill-opacity="0.5" stroke="#606060" stroke-width="1.0"/>
   <path id="arrow"
     d="M 11.500037,31.436501 C 11.940474,20.09759 22.043105,11.32322 32.158766,21.979434 L 37.068811,17.246167 C 37.068811,17.246167 37.088388,32 37.088388,32 L 22.160133,31.978069 C 22.160133,31.978069 26.997745,27.140456 26.997745,27.140456 C 18.528582,18.264221 13.291696,25.230495 11.500037,31.436501 z"
     style="fill:#404040;"/>
  </a>
 </g>
</svg>

<style type='text/css'>
<![CDATA[
[data-mouse-over-selected='false'] { opacity: 0.7; }
[data-mouse-over-selected='true']  { opacity: 1.0; }
]]>
</style>
<script type="application/ecmascript"><![CDATA[
document.addEventListener('DOMContentLoaded', (event) => {
  highlightEdges();
  highlightAdjacentNodes();
});
]]></script>
</svg>
