<?xml version="1.0" encoding="UTF-8" standalone="no"?>
<!DOCTYPE svg PUBLIC "-//W3C//DTD SVG 1.1//EN"
 "http://www.w3.org/Graphics/SVG/1.1/DTD/svg11.dtd">
<!-- Generated by graphviz version 8.1.0 (20230707.0739)
 -->
<!-- Title: PwrCtrl_IComp_3p3z_Initialize Pages: 1 -->
<svg width="415pt" height="40pt"
 viewBox="0.00 0.00 414.50 40.00" xmlns="http://www.w3.org/2000/svg" xmlns:xlink="http://www.w3.org/1999/xlink">
<g id="graph0" class="graph" transform="scale(1 1) rotate(0) translate(4 36)">
<title>PwrCtrl_IComp_3p3z_Initialize</title>
<!-- Node1 -->
<g id="Node000001" class="node">
<title>Node1</title>
<g id="a_Node000001"><a xlink:title="Initialize the Current Loop Control.">
<polygon fill="#999999" stroke="#666666" points="406.5,-32 299.75,-32 299.75,0 406.5,0 406.5,-32"/>
<text text-anchor="start" x="307.75" y="-18.5" font-family="Helvetica,sans-Serif" font-size="10.00">PwrCtrl_IComp_3p3z</text>
<text text-anchor="middle" x="353.12" y="-6.5" font-family="Helvetica,sans-Serif" font-size="10.00">_Initialize</text>
</a>
</g>
</g>
<!-- Node2 -->
<g id="Node000002" class="node">
<title>Node2</title>
<g id="a_Node000002"><a xlink:href="a00434.html#gae58162e874535adf2003e9ed8a13b656" target="_top" xlink:title="Initializes the control loop.">
<polygon fill="white" stroke="#666666" points="263.75,-26 124,-26 124,-6 263.75,-6 263.75,-26"/>
<text text-anchor="middle" x="193.88" y="-12.5" font-family="Helvetica,sans-Serif" font-size="10.00">PwrCtrl_ControlLoopInitialize</text>
</a>
</g>
</g>
<!-- Node1&#45;&gt;Node2 -->
<g id="edge1_Node000001_Node000002" class="edge">
<title>Node1&#45;&gt;Node2</title>
<g id="a_edge1_Node000001_Node000002"><a xlink:title=" ">
<path fill="none" stroke="#63b8ff" d="M288.5,-16C280.44,-16 272.16,-16 264.01,-16"/>
<polygon fill="#63b8ff" stroke="#63b8ff" points="288.33,-19.5 298.33,-16 288.33,-12.5 288.33,-19.5"/>
</a>
</g>
</g>
<!-- Node3 -->
<g id="Node000003" class="node">
<title>Node3</title>
<g id="a_Node000003"><a xlink:href="a00434.html#ga2c39b57545ef7b5c79bac36ab30da7d8" target="_top" xlink:title="Initialize the power control parameters.">
<polygon fill="white" stroke="#666666" points="88,-26 0,-26 0,-6 88,-6 88,-26"/>
<text text-anchor="middle" x="44" y="-12.5" font-family="Helvetica,sans-Serif" font-size="10.00">PwrCtrl_Initialize</text>
</a>
</g>
</g>
<!-- Node2&#45;&gt;Node3 -->
<g id="edge2_Node000002_Node000003" class="edge">
<title>Node2&#45;&gt;Node3</title>
<g id="a_edge2_Node000002_Node000003"><a xlink:title=" ">
<path fill="none" stroke="#63b8ff" d="M112.98,-16C104.53,-16 96.19,-16 88.39,-16"/>
<polygon fill="#63b8ff" stroke="#63b8ff" points="112.7,-19.5 122.7,-16 112.7,-12.5 112.7,-19.5"/>
</a>
</g>
</g>
</g>
</svg>
