<?xml version="1.0" encoding="UTF-8" standalone="no"?>
<!DOCTYPE svg PUBLIC "-//W3C//DTD SVG 1.1//EN"
 "http://www.w3.org/Graphics/SVG/1.1/DTD/svg11.dtd">
<!-- Generated by graphviz version 8.1.0 (20230707.0739)
 -->
<!-- Title: psfb_droop.X/sources/pwrctrl/pwrctrl_isr_extension.c Pages: 1 -->
<!--zoomable 412 -->

<svg id="main" version="1.1" xmlns="http://www.w3.org/2000/svg" xmlns:xlink="http://www.w3.org/1999/xlink" xml:space="preserve" onload="init(evt)">

<style type="text/css"><![CDATA[
.node, .edge {opacity: 0.7;}
.node.selected, .edge.selected {opacity: 1;}
.edge:hover path { stroke: red; }
.edge:hover polygon { stroke: red; fill: red; }
]]></style>

<defs>
  <circle id="rim" cx="0" cy="0" r="7"/>
  <circle id="rim2" cx="0" cy="0" r="3.5"/>
  <g id="zoomPlus">
    <use xlink:href="#rim" fill="#404040"><set attributeName="fill" to="#808080" begin="zoomplus.mouseover" end="zoomplus.mouseout"/></use>
    <path d="M-4,0h8M0,-4v8" fill="none" stroke="white" stroke-width="1.5" pointer-events="none"/>
  </g>
  <g id="zoomMin">
    <use xlink:href="#rim" fill="#404040"><set attributeName="fill" to="#808080" begin="zoomminus.mouseover" end="zoomminus.mouseout"/></use>
    <path d="M-4,0h8" fill="none" stroke="white" stroke-width="1.5" pointer-events="none"/>
  </g>
  <g id="arrowUp" transform="translate(30 24)">
    <use xlink:href="#rim"/>
    <path pointer-events="none" fill="none" stroke="white" stroke-width="1.5" d="M0,-3.0v7 M-2.5,-0.5L0,-3.0L2.5,-0.5"/>
  </g>
  <g id="arrowRight" transform="rotate(90) translate(36 -43)">
    <use xlink:href="#rim"/>
    <path pointer-events="none" fill="none" stroke="white" stroke-width="1.5" d="M0,-3.0v7 M-2.5,-0.5L0,-3.0L2.5,-0.5"/>
  </g>
  <g id="arrowDown" transform="rotate(180) translate(-30 -48)">
    <use xlink:href="#rim"/>
    <path pointer-events="none" fill="none" stroke="white" stroke-width="1.5" d="M0,-3.0v7 M-2.5,-0.5L0,-3.0L2.5,-0.5"/>
  </g>
  <g id="arrowLeft" transform="rotate(270) translate(-36 17)">
    <use xlink:href="#rim"/>
    <path pointer-events="none" fill="none" stroke="white" stroke-width="1.5" d="M0,-3.0v7 M-2.5,-0.5L0,-3.0L2.5,-0.5"/>
  </g>
  <g id="resetDef">
    <use xlink:href="#rim2" fill="#404040"><set attributeName="fill" to="#808080" begin="reset.mouseover" end="reset.mouseout"/></use>
  </g>
</defs>
<script type="application/ecmascript">
var viewWidth = 1701;
var viewHeight = 412;
var sectionId = 'dynsection-0';
</script>
<script type="application/ecmascript" xlink:href="svg.min.js"/>
<svg id="graph" class="graph">
<g id="viewport">
<title>psfb_droop.X/sources/pwrctrl/pwrctrl_isr_extension.c</title>
<!-- Node1 -->
<g id="Node000001" class="node">
<title>Node1</title>
<g id="a_Node000001"><a xlink:title="Contains some of the functions used in the interrupt service routine of control loop.">
<polygon fill="#999999" stroke="#666666" points="820.5,-404 711.5,-404 711.5,-360 820.5,-360 820.5,-404"/>
<text text-anchor="start" x="719.5" y="-390.5" font-family="Helvetica,sans-Serif" font-size="10.00">psfb_droop.X/sources</text>
<text text-anchor="start" x="719.5" y="-378.5" font-family="Helvetica,sans-Serif" font-size="10.00">/pwrctrl/pwrctrl_isr</text>
<text text-anchor="middle" x="766" y="-366.5" font-family="Helvetica,sans-Serif" font-size="10.00">_extension.c</text>
</a>
</g>
</g>
<!-- Node2 -->
<g id="Node000002" class="node">
<title>Node2</title>
<g id="a_Node000002"><a xlink:title=" ">
<polygon fill="#e0e0e0" stroke="#999999" points="946.38,-88 911.62,-88 911.62,-68 946.38,-68 946.38,-88"/>
<text text-anchor="middle" x="929" y="-74.5" font-family="Helvetica,sans-Serif" font-size="10.00">xc.h</text>
</a>
</g>
</g>
<!-- Node1&#45;&gt;Node2 -->
<g id="edge1_Node000001_Node000002" class="edge">
<title>Node1&#45;&gt;Node2</title>
<g id="a_edge1_Node000001_Node000002"><a xlink:title=" ">
<path fill="none" stroke="#63b8ff" d="M820.92,-380.01C900.64,-375.34 1039,-353.61 1039,-259 1039,-259 1039,-259 1039,-201 1039,-165.75 1042.07,-151.48 1020,-124 1004.09,-104.2 977.26,-92.43 956.84,-85.93"/>
<polygon fill="#63b8ff" stroke="#63b8ff" points="958.14,-82.37 947.56,-82.91 956.17,-89.08 958.14,-82.37"/>
</a>
</g>
</g>
<!-- Node3 -->
<g id="Node000003" class="node">
<title>Node3</title>
<g id="a_Node000003"><a xlink:title=" ">
<polygon fill="#e0e0e0" stroke="#999999" points="1011,-150 965,-150 965,-130 1011,-130 1011,-150"/>
<text text-anchor="middle" x="988" y="-136.5" font-family="Helvetica,sans-Serif" font-size="10.00">math.h</text>
</a>
</g>
</g>
<!-- Node1&#45;&gt;Node3 -->
<g id="edge2_Node000001_Node000003" class="edge">
<title>Node1&#45;&gt;Node3</title>
<g id="a_edge2_Node000001_Node000003"><a xlink:title=" ">
<path fill="none" stroke="#63b8ff" d="M818.95,-359.69C859.81,-340.9 915.22,-309.95 951,-268 977.36,-237.09 984.96,-188.25 987.14,-161.03"/>
<polygon fill="#63b8ff" stroke="#63b8ff" points="990.68,-161.37 987.8,-151.18 983.7,-160.94 990.68,-161.37"/>
</a>
</g>
</g>
<!-- Node4 -->
<g id="Node000004" class="node">
<title>Node4</title>
<g id="a_Node000004"><a xlink:title=" ">
<polygon fill="#e0e0e0" stroke="#999999" points="336.88,-26 281.12,-26 281.12,-6 336.88,-6 336.88,-26"/>
<text text-anchor="middle" x="309" y="-12.5" font-family="Helvetica,sans-Serif" font-size="10.00">stdbool.h</text>
</a>
</g>
</g>
<!-- Node1&#45;&gt;Node4 -->
<g id="edge3_Node000001_Node000004" class="edge">
<title>Node1&#45;&gt;Node4</title>
<g id="a_edge3_Node000001_Node000004"><a xlink:title=" ">
<path fill="none" stroke="#63b8ff" d="M711.28,-377.61C541.98,-366.38 38,-327.24 38,-259 38,-259 38,-259 38,-139 38,-98.53 60.8,-89.64 95,-68 109.78,-58.65 212.99,-36.56 270.5,-24.76"/>
<polygon fill="#63b8ff" stroke="#63b8ff" points="270.92,-28.04 280.02,-22.61 269.52,-21.18 270.92,-28.04"/>
</a>
</g>
</g>
<!-- Node5 -->
<g id="Node000005" class="node">
<title>Node5</title>
<g id="a_Node000005"><a xlink:title=" ">
<polygon fill="#e0e0e0" stroke="#999999" points="710.75,-324 663.25,-324 663.25,-304 710.75,-304 710.75,-324"/>
<text text-anchor="middle" x="687" y="-310.5" font-family="Helvetica,sans-Serif" font-size="10.00">stdlib.h</text>
</a>
</g>
</g>
<!-- Node1&#45;&gt;Node5 -->
<g id="edge4_Node000001_Node000005" class="edge">
<title>Node1&#45;&gt;Node5</title>
<g id="a_edge4_Node000001_Node000005"><a xlink:title=" ">
<path fill="none" stroke="#63b8ff" d="M740.57,-359.75C729.54,-350.54 716.84,-339.93 706.57,-331.35"/>
<polygon fill="#63b8ff" stroke="#63b8ff" points="709.19,-328.14 699.27,-324.42 704.7,-333.52 709.19,-328.14"/>
</a>
</g>
</g>
<!-- Node6 -->
<g id="Node000006" class="node">
<title>Node6</title>
<g id="a_Node000006"><a xlink:href="a00071.html" target="_top" xlink:title="This is the generated driver types header file for the ADC driver.">
<polygon fill="white" stroke="#666666" points="99,-26 11,-26 11,-6 99,-6 99,-26"/>
<text text-anchor="middle" x="55" y="-12.5" font-family="Helvetica,sans-Serif" font-size="10.00">adc/adc_types.h</text>
</a>
</g>
</g>
<!-- Node1&#45;&gt;Node6 -->
<g id="edge5_Node000001_Node000006" class="edge">
<title>Node1&#45;&gt;Node6</title>
<g id="a_edge5_Node000001_Node000006"><a xlink:title=" ">
<path fill="none" stroke="#63b8ff" d="M711.44,-378.87C577.32,-373.21 234.52,-355.98 125,-324 64.89,-306.45 0,-321.62 0,-259 0,-259 0,-259 0,-139 0,-99.15 24.68,-57.94 40.98,-35.08"/>
<polygon fill="#63b8ff" stroke="#63b8ff" points="44.22,-37.58 47.35,-27.46 38.59,-33.42 44.22,-37.58"/>
</a>
</g>
</g>
<!-- Node7 -->
<g id="Node000007" class="node">
<title>Node7</title>
<g id="a_Node000007"><a xlink:href="a00062.html" target="_top" xlink:title="This is the generated driver header file for the ADC1 driver.">
<polygon fill="white" stroke="#666666" points="175,-150 111,-150 111,-130 175,-130 175,-150"/>
<text text-anchor="middle" x="143" y="-136.5" font-family="Helvetica,sans-Serif" font-size="10.00">adc/adc1.h</text>
</a>
</g>
</g>
<!-- Node1&#45;&gt;Node7 -->
<g id="edge6_Node000001_Node000007" class="edge">
<title>Node1&#45;&gt;Node7</title>
<g id="a_edge6_Node000001_Node000007"><a xlink:title=" ">
<path fill="none" stroke="#63b8ff" d="M711.08,-367.84C615.24,-343.81 412.49,-288.2 253,-212 220.13,-196.29 185.3,-172.42 163.85,-156.77"/>
<polygon fill="#63b8ff" stroke="#63b8ff" points="166.37,-153.54 156.25,-150.41 162.21,-159.17 166.37,-153.54"/>
</a>
</g>
</g>
<!-- Node11 -->
<g id="Node000011" class="node">
<title>Node11</title>
<g id="a_Node000011"><a xlink:href="a00146_source.html" target="_top" xlink:title=" ">
<polygon fill="white" stroke="#666666" points="1144.75,-324 1067.25,-324 1067.25,-304 1144.75,-304 1144.75,-324"/>
<text text-anchor="middle" x="1106" y="-310.5" font-family="Helvetica,sans-Serif" font-size="10.00">system/pins.h</text>
</a>
</g>
</g>
<!-- Node1&#45;&gt;Node11 -->
<g id="edge16_Node000001_Node000011" class="edge">
<title>Node1&#45;&gt;Node11</title>
<g id="a_edge16_Node000001_Node000011"><a xlink:title=" ">
<path fill="none" stroke="#63b8ff" d="M820.63,-370.4C885.75,-357.75 993.64,-336.81 1056.45,-324.62"/>
<polygon fill="#63b8ff" stroke="#63b8ff" points="1056.73,-327.94 1065.88,-322.59 1055.39,-321.06 1056.73,-327.94"/>
</a>
</g>
</g>
<!-- Node12 -->
<g id="Node000012" class="node">
<title>Node12</title>
<g id="a_Node000012"><a xlink:href="a00383_source.html" target="_top" xlink:title=" ">
<polygon fill="white" stroke="#666666" points="819.38,-324 766.62,-324 766.62,-304 819.38,-304 819.38,-324"/>
<text text-anchor="middle" x="793" y="-310.5" font-family="Helvetica,sans-Serif" font-size="10.00">pwrctrl.h</text>
</a>
</g>
</g>
<!-- Node1&#45;&gt;Node12 -->
<g id="edge18_Node000001_Node000012" class="edge">
<title>Node1&#45;&gt;Node12</title>
<g id="a_edge18_Node000001_Node000012"><a xlink:title=" ">
<path fill="none" stroke="#63b8ff" d="M774.69,-359.75C778,-351.66 781.76,-342.48 785,-334.55"/>
<polygon fill="#63b8ff" stroke="#63b8ff" points="788.6,-336 789.15,-325.42 782.12,-333.35 788.6,-336"/>
</a>
</g>
</g>
<!-- Node18 -->
<g id="Node000018" class="node">
<title>Node18</title>
<g id="a_Node000018"><a xlink:href="a00302.html" target="_top" xlink:title="Contains public fault functions.">
<polygon fill="white" stroke="#666666" points="584.62,-268 521.38,-268 521.38,-248 584.62,-248 584.62,-268"/>
<text text-anchor="middle" x="553" y="-254.5" font-family="Helvetica,sans-Serif" font-size="10.00">fault/fault.h</text>
</a>
</g>
</g>
<!-- Node1&#45;&gt;Node18 -->
<g id="edge28_Node000001_Node000018" class="edge">
<title>Node1&#45;&gt;Node18</title>
<g id="a_edge28_Node000001_Node000018"><a xlink:title=" ">
<path fill="none" stroke="#63b8ff" d="M758.45,-359.58C751.22,-342.11 738.63,-318.09 720,-304 683.76,-276.58 632,-265.85 595.74,-261.66"/>
<polygon fill="#63b8ff" stroke="#63b8ff" points="596.32,-258.1 586.02,-260.56 595.61,-265.07 596.32,-258.1"/>
</a>
</g>
</g>
<!-- Node26 -->
<g id="Node000026" class="node">
<title>Node26</title>
<g id="a_Node000026"><a xlink:href="a00365.html" target="_top" xlink:title="Contains public functions and data types relevant for DCDT file interface.">
<polygon fill="white" stroke="#666666" points="1507.25,-212 1408.75,-212 1408.75,-192 1507.25,-192 1507.25,-212"/>
<text text-anchor="middle" x="1458" y="-198.5" font-family="Helvetica,sans-Serif" font-size="10.00">dcdt/pwrctrl_dcdt.h</text>
</a>
</g>
</g>
<!-- Node1&#45;&gt;Node26 -->
<g id="edge53_Node000001_Node000026" class="edge">
<title>Node1&#45;&gt;Node26</title>
<g id="a_edge53_Node000001_Node000026"><a xlink:title=" ">
<path fill="none" stroke="#63b8ff" d="M820.79,-376.99C896.69,-370.54 1037.61,-355.25 1154,-324 1258.67,-295.9 1376.17,-242.48 1429.24,-217.09"/>
<polygon fill="#63b8ff" stroke="#63b8ff" points="1430.48,-219.89 1437.97,-212.4 1427.45,-213.58 1430.48,-219.89"/>
</a>
</g>
</g>
<!-- Node7&#45;&gt;Node2 -->
<g id="edge7_Node000007_Node000002" class="edge">
<title>Node7&#45;&gt;Node2</title>
<g id="a_edge7_Node000007_Node000002"><a xlink:title=" ">
<path fill="none" stroke="#63b8ff" d="M175.14,-131.96C189.43,-129.07 206.49,-125.96 222,-124 484.09,-90.91 804.09,-81.67 900.31,-79.55"/>
<polygon fill="#63b8ff" stroke="#63b8ff" points="900.24,-83.03 910.17,-79.32 900.09,-76.03 900.24,-83.03"/>
</a>
</g>
</g>
<!-- Node7&#45;&gt;Node4 -->
<g id="edge8_Node000007_Node000004" class="edge">
<title>Node7&#45;&gt;Node4</title>
<g id="a_edge8_Node000007_Node000004"><a xlink:title=" ">
<path fill="none" stroke="#63b8ff" d="M155.54,-129.51C173.67,-115.82 208.27,-89.78 238,-68 254.31,-56.05 272.88,-42.72 286.93,-32.69"/>
<polygon fill="#63b8ff" stroke="#63b8ff" points="288.75,-34.98 294.86,-26.33 284.69,-29.28 288.75,-34.98"/>
</a>
</g>
</g>
<!-- Node7&#45;&gt;Node6 -->
<g id="edge10_Node000007_Node000006" class="edge">
<title>Node7&#45;&gt;Node6</title>
<g id="a_edge10_Node000007_Node000006"><a xlink:title=" ">
<path fill="none" stroke="#63b8ff" d="M133.06,-129.84C122.79,-120.08 106.67,-103.87 95,-88 82.72,-71.31 71.4,-50.48 63.96,-35.71"/>
<polygon fill="#63b8ff" stroke="#63b8ff" points="66.82,-34.6 59.27,-27.17 60.54,-37.69 66.82,-34.6"/>
</a>
</g>
</g>
<!-- Node8 -->
<g id="Node000008" class="node">
<title>Node8</title>
<g id="a_Node000008"><a xlink:title=" ">
<polygon fill="#e0e0e0" stroke="#999999" points="628.12,-26 579.88,-26 579.88,-6 628.12,-6 628.12,-26"/>
<text text-anchor="middle" x="604" y="-12.5" font-family="Helvetica,sans-Serif" font-size="10.00">stdint.h</text>
</a>
</g>
</g>
<!-- Node7&#45;&gt;Node8 -->
<g id="edge9_Node000007_Node000008" class="edge">
<title>Node7&#45;&gt;Node8</title>
<g id="a_edge9_Node000007_Node000008"><a xlink:title=" ">
<path fill="none" stroke="#63b8ff" d="M167.09,-129.51C205.21,-114.76 282,-86.16 349,-68 426.42,-47.02 519.19,-30.6 568.73,-22.51"/>
<polygon fill="#63b8ff" stroke="#63b8ff" points="569.17,-25.82 578.49,-20.77 568.06,-18.91 569.17,-25.82"/>
</a>
</g>
</g>
<!-- Node9 -->
<g id="Node000009" class="node">
<title>Node9</title>
<g id="a_Node000009"><a xlink:href="a00068_source.html" target="_top" xlink:title=" ">
<polygon fill="white" stroke="#666666" points="186,-88 104,-88 104,-68 186,-68 186,-88"/>
<text text-anchor="middle" x="145" y="-74.5" font-family="Helvetica,sans-Serif" font-size="10.00">adc_interface.h</text>
</a>
</g>
</g>
<!-- Node7&#45;&gt;Node9 -->
<g id="edge11_Node000007_Node000009" class="edge">
<title>Node7&#45;&gt;Node9</title>
<g id="a_edge11_Node000007_Node000009"><a xlink:title=" ">
<path fill="none" stroke="#63b8ff" d="M143.31,-129.62C143.58,-121.48 143.99,-109.39 144.33,-99.07"/>
<polygon fill="#63b8ff" stroke="#63b8ff" points="147.86,-99.22 144.7,-89.11 140.86,-98.99 147.86,-99.22"/>
</a>
</g>
</g>
<!-- Node9&#45;&gt;Node4 -->
<g id="edge13_Node000009_Node000004" class="edge">
<title>Node9&#45;&gt;Node4</title>
<g id="a_edge13_Node000009_Node000004"><a xlink:title=" ">
<path fill="none" stroke="#63b8ff" d="M170.62,-67.62C198.22,-57.53 242.34,-41.39 273.32,-30.05"/>
<polygon fill="#63b8ff" stroke="#63b8ff" points="274.1,-33.13 282.28,-26.41 271.69,-26.56 274.1,-33.13"/>
</a>
</g>
</g>
<!-- Node9&#45;&gt;Node6 -->
<g id="edge14_Node000009_Node000006" class="edge">
<title>Node9&#45;&gt;Node6</title>
<g id="a_edge14_Node000009_Node000006"><a xlink:title=" ">
<path fill="none" stroke="#63b8ff" d="M130.94,-67.62C116.8,-58.2 94.78,-43.52 78.08,-32.39"/>
<polygon fill="#63b8ff" stroke="#63b8ff" points="80.23,-28.94 69.96,-26.31 76.34,-34.77 80.23,-28.94"/>
</a>
</g>
</g>
<!-- Node9&#45;&gt;Node8 -->
<g id="edge12_Node000009_Node000008" class="edge">
<title>Node9&#45;&gt;Node8</title>
<g id="a_edge12_Node000009_Node000008"><a xlink:title=" ">
<path fill="none" stroke="#63b8ff" d="M186.14,-71.62C275.34,-59.96 485.22,-32.53 568.78,-21.6"/>
<polygon fill="#63b8ff" stroke="#63b8ff" points="569.02,-24.97 578.48,-20.21 568.11,-18.03 569.02,-24.97"/>
</a>
</g>
</g>
<!-- Node10 -->
<g id="Node000010" class="node">
<title>Node10</title>
<g id="a_Node000010"><a xlink:href="a00143_source.html" target="_top" xlink:title=" ">
<polygon fill="white" stroke="#666666" points="212.75,-32 117.25,-32 117.25,0 212.75,0 212.75,-32"/>
<text text-anchor="start" x="125.25" y="-18.5" font-family="Helvetica,sans-Serif" font-size="10.00">../system/interrupt</text>
<text text-anchor="middle" x="165" y="-6.5" font-family="Helvetica,sans-Serif" font-size="10.00">_types.h</text>
</a>
</g>
</g>
<!-- Node9&#45;&gt;Node10 -->
<g id="edge15_Node000009_Node000010" class="edge">
<title>Node9&#45;&gt;Node10</title>
<g id="a_edge15_Node000009_Node000010"><a xlink:title=" ">
<path fill="none" stroke="#63b8ff" d="M148.12,-67.62C150.37,-60.88 153.52,-51.43 156.49,-42.52"/>
<polygon fill="#63b8ff" stroke="#63b8ff" points="160.11,-43.73 159.95,-33.14 153.47,-41.52 160.11,-43.73"/>
</a>
</g>
</g>
<!-- Node11&#45;&gt;Node2 -->
<g id="edge17_Node000011_Node000002" class="edge">
<title>Node11&#45;&gt;Node2</title>
<g id="a_edge17_Node000011_Node000002"><a xlink:title=" ">
<path fill="none" stroke="#63b8ff" d="M1106.19,-303.72C1106.31,-273.61 1102.61,-177.46 1053,-124 1027.94,-97 985.43,-86.16 957.28,-81.84"/>
<polygon fill="#63b8ff" stroke="#63b8ff" points="957.92,-78.26 947.54,-80.4 956.99,-85.2 957.92,-78.26"/>
</a>
</g>
</g>
<!-- Node12&#45;&gt;Node3 -->
<g id="edge27_Node000012_Node000003" class="edge">
<title>Node12&#45;&gt;Node3</title>
<g id="a_edge27_Node000012_Node000003"><a xlink:title=" ">
<path fill="none" stroke="#63b8ff" d="M819.86,-310.57C850.03,-306.53 898.84,-295.88 930,-268 946.89,-252.89 970.06,-192.07 981.32,-160.4"/>
<polygon fill="#63b8ff" stroke="#63b8ff" points="984.89,-161.78 984.89,-151.18 978.28,-159.47 984.89,-161.78"/>
</a>
</g>
</g>
<!-- Node13 -->
<g id="Node000013" class="node">
<title>Node13</title>
<g id="a_Node000013"><a xlink:href="a00416_source.html" target="_top" xlink:title=" ">
<polygon fill="white" stroke="#666666" points="769.75,-212 680.25,-212 680.25,-192 769.75,-192 769.75,-212"/>
<text text-anchor="middle" x="725" y="-198.5" font-family="Helvetica,sans-Serif" font-size="10.00">pwrctrl_typedef.h</text>
</a>
</g>
</g>
<!-- Node12&#45;&gt;Node13 -->
<g id="edge19_Node000012_Node000013" class="edge">
<title>Node12&#45;&gt;Node13</title>
<g id="a_edge19_Node000012_Node000013"><a xlink:title=" ">
<path fill="none" stroke="#63b8ff" d="M766.3,-306.83C734.14,-298.79 683.03,-283.87 672,-268 659.57,-250.12 679.75,-230.95 698.68,-218.1"/>
<polygon fill="#63b8ff" stroke="#63b8ff" points="700.17,-220.66 706.72,-212.33 696.41,-214.76 700.17,-220.66"/>
</a>
</g>
</g>
<!-- Node16 -->
<g id="Node000016" class="node">
<title>Node16</title>
<g id="a_Node000016"><a xlink:href="a00395.html" target="_top" xlink:title="Contains public functions relevant for power control communication interface.">
<polygon fill="white" stroke="#666666" points="921.5,-268 794.5,-268 794.5,-248 921.5,-248 921.5,-268"/>
<text text-anchor="middle" x="858" y="-254.5" font-family="Helvetica,sans-Serif" font-size="10.00">pwrctrl_comm_interface.h</text>
</a>
</g>
</g>
<!-- Node12&#45;&gt;Node16 -->
<g id="edge24_Node000012_Node000016" class="edge">
<title>Node12&#45;&gt;Node16</title>
<g id="a_edge24_Node000012_Node000016"><a xlink:title=" ">
<path fill="none" stroke="#63b8ff" d="M804.32,-303.59C813.74,-295.77 827.35,-284.46 838.51,-275.19"/>
<polygon fill="#63b8ff" stroke="#63b8ff" points="840.35,-277.38 845.81,-268.3 835.88,-272 840.35,-277.38"/>
</a>
</g>
</g>
<!-- Node17 -->
<g id="Node000017" class="node">
<title>Node17</title>
<g id="a_Node000017"><a xlink:href="a00389.html" target="_top" xlink:title="Contains the power control reusable functions.">
<polygon fill="white" stroke="#666666" points="776.75,-268 681.25,-268 681.25,-248 776.75,-248 776.75,-268"/>
<text text-anchor="middle" x="729" y="-254.5" font-family="Helvetica,sans-Serif" font-size="10.00">pwrctrl_common.h</text>
</a>
</g>
</g>
<!-- Node12&#45;&gt;Node17 -->
<g id="edge25_Node000012_Node000017" class="edge">
<title>Node12&#45;&gt;Node17</title>
<g id="a_edge25_Node000012_Node000017"><a xlink:title=" ">
<path fill="none" stroke="#63b8ff" d="M781.85,-303.59C772.58,-295.77 759.18,-284.46 748.19,-275.19"/>
<polygon fill="#63b8ff" stroke="#63b8ff" points="750.92,-272.07 741.02,-268.3 746.41,-277.42 750.92,-272.07"/>
</a>
</g>
</g>
<!-- Node14 -->
<g id="Node000014" class="node">
<title>Node14</title>
<g id="a_Node000014"><a xlink:href="a00317.html" target="_top" xlink:title="Contains fault data types.">
<polygon fill="white" stroke="#666666" points="947,-150 847,-150 847,-130 947,-130 947,-150"/>
<text text-anchor="middle" x="897" y="-136.5" font-family="Helvetica,sans-Serif" font-size="10.00">fault/fault_typedef.h</text>
</a>
</g>
</g>
<!-- Node13&#45;&gt;Node14 -->
<g id="edge20_Node000013_Node000014" class="edge">
<title>Node13&#45;&gt;Node14</title>
<g id="a_edge20_Node000013_Node000014"><a xlink:title=" ">
<path fill="none" stroke="#63b8ff" d="M751.88,-191.62C780.95,-181.48 827.49,-165.25 860.01,-153.9"/>
<polygon fill="#63b8ff" stroke="#63b8ff" points="860.74,-157.01 869.03,-150.41 858.44,-150.4 860.74,-157.01"/>
</a>
</g>
</g>
<!-- Node15 -->
<g id="Node000015" class="node">
<title>Node15</title>
<g id="a_Node000015"><a xlink:href="a00308.html" target="_top" xlink:title="Contains fault generic public functions.">
<polygon fill="white" stroke="#666666" points="646.5,-88 561.5,-88 561.5,-68 646.5,-68 646.5,-88"/>
<text text-anchor="middle" x="604" y="-74.5" font-family="Helvetica,sans-Serif" font-size="10.00">fault_common.h</text>
</a>
</g>
</g>
<!-- Node14&#45;&gt;Node15 -->
<g id="edge21_Node000014_Node000015" class="edge">
<title>Node14&#45;&gt;Node15</title>
<g id="a_edge21_Node000014_Node000015"><a xlink:title=" ">
<path fill="none" stroke="#63b8ff" d="M850.9,-129.56C798.47,-118.82 712.99,-101.32 657.63,-89.98"/>
<polygon fill="#63b8ff" stroke="#63b8ff" points="658.47,-86.38 647.97,-87.8 657.07,-93.24 658.47,-86.38"/>
</a>
</g>
</g>
<!-- Node15&#45;&gt;Node4 -->
<g id="edge23_Node000015_Node000004" class="edge">
<title>Node15&#45;&gt;Node4</title>
<g id="a_edge23_Node000015_Node000004"><a xlink:title=" ">
<path fill="none" stroke="#63b8ff" d="M561.1,-68.28C503.85,-56.63 403.26,-36.17 348.03,-24.94"/>
<polygon fill="#63b8ff" stroke="#63b8ff" points="348.79,-21.32 338.29,-22.75 347.39,-28.18 348.79,-21.32"/>
</a>
</g>
</g>
<!-- Node15&#45;&gt;Node8 -->
<g id="edge22_Node000015_Node000008" class="edge">
<title>Node15&#45;&gt;Node8</title>
<g id="a_edge22_Node000015_Node000008"><a xlink:title=" ">
<path fill="none" stroke="#63b8ff" d="M604,-67.62C604,-59.48 604,-47.39 604,-37.07"/>
<polygon fill="#63b8ff" stroke="#63b8ff" points="607.5,-37.11 604,-27.11 600.5,-37.11 607.5,-37.11"/>
</a>
</g>
</g>
<!-- Node17&#45;&gt;Node13 -->
<g id="edge26_Node000017_Node000013" class="edge">
<title>Node17&#45;&gt;Node13</title>
<g id="a_edge26_Node000017_Node000013"><a xlink:title=" ">
<path fill="none" stroke="#63b8ff" d="M728.3,-247.59C727.8,-240.86 727.11,-231.53 726.49,-223.15"/>
<polygon fill="#63b8ff" stroke="#63b8ff" points="729.92,-223.01 725.69,-213.3 722.94,-223.53 729.92,-223.01"/>
</a>
</g>
</g>
<!-- Node18&#45;&gt;Node13 -->
<g id="edge37_Node000018_Node000013" class="edge">
<title>Node18&#45;&gt;Node13</title>
<g id="a_edge37_Node000018_Node000013"><a xlink:title=" ">
<path fill="none" stroke="#63b8ff" d="M582.96,-247.59C611.15,-238.74 653.57,-225.43 684.71,-215.65"/>
<polygon fill="#63b8ff" stroke="#63b8ff" points="685.31,-218.81 693.81,-212.48 683.22,-212.14 685.31,-218.81"/>
</a>
</g>
</g>
<!-- Node18&#45;&gt;Node18 -->
<g id="edge36_Node000018_Node000018" class="edge">
<title>Node18&#45;&gt;Node18</title>
<g id="a_edge36_Node000018_Node000018"><a xlink:title=" ">
<path fill="none" stroke="#63b8ff" d="M584.98,-268.49C594.86,-268.28 602.62,-264.78 602.62,-258 602.62,-253.97 599.89,-251.11 595.6,-249.39"/>
<polygon fill="#63b8ff" stroke="#63b8ff" points="596.44,-245.81 585.98,-247.51 595.21,-252.7 596.44,-245.81"/>
</a>
</g>
</g>
<!-- Node19 -->
<g id="Node000019" class="node">
<title>Node19</title>
<g id="a_Node000019"><a xlink:title=" ">
<polygon fill="#e0e0e0" stroke="#999999" points="408.25,-88 357.75,-88 357.75,-68 408.25,-68 408.25,-88"/>
<text text-anchor="middle" x="383" y="-74.5" font-family="Helvetica,sans-Serif" font-size="10.00">stddef.h</text>
</a>
</g>
</g>
<!-- Node18&#45;&gt;Node19 -->
<g id="edge29_Node000018_Node000019" class="edge">
<title>Node18&#45;&gt;Node19</title>
<g id="a_edge29_Node000018_Node000019"><a xlink:title=" ">
<path fill="none" stroke="#63b8ff" d="M530.77,-247.62C498.49,-232.86 438.91,-201.18 406,-156 393.71,-139.12 387.93,-115.66 385.24,-99.08"/>
<polygon fill="#63b8ff" stroke="#63b8ff" points="388.61,-98.85 383.79,-89.42 381.67,-99.8 388.61,-98.85"/>
</a>
</g>
</g>
<!-- Node20 -->
<g id="Node000020" class="node">
<title>Node20</title>
<g id="a_Node000020"><a xlink:href="a00095.html" target="_top" xlink:title="This is the generated driver header file for the CMP3 driver.">
<polygon fill="white" stroke="#666666" points="332,-212 262,-212 262,-192 332,-192 332,-212"/>
<text text-anchor="middle" x="297" y="-198.5" font-family="Helvetica,sans-Serif" font-size="10.00">cmp/cmp3.h</text>
</a>
</g>
</g>
<!-- Node18&#45;&gt;Node20 -->
<g id="edge30_Node000018_Node000020" class="edge">
<title>Node18&#45;&gt;Node20</title>
<g id="a_edge30_Node000018_Node000020"><a xlink:title=" ">
<path fill="none" stroke="#63b8ff" d="M521.1,-250.27C476.17,-240.79 394.04,-223.47 342.66,-212.63"/>
<polygon fill="#63b8ff" stroke="#63b8ff" points="343.69,-209.06 333.18,-210.42 342.25,-215.91 343.69,-209.06"/>
</a>
</g>
</g>
<!-- Node22 -->
<g id="Node000022" class="node">
<title>Node22</title>
<g id="a_Node000022"><a xlink:href="a00248_source.html" target="_top" xlink:title=" ">
<polygon fill="white" stroke="#666666" points="527.12,-150 448.88,-150 448.88,-130 527.12,-130 527.12,-150"/>
<text text-anchor="middle" x="488" y="-136.5" font-family="Helvetica,sans-Serif" font-size="10.00">config/config.h</text>
</a>
</g>
</g>
<!-- Node18&#45;&gt;Node22 -->
<g id="edge38_Node000018_Node000022" class="edge">
<title>Node18&#45;&gt;Node22</title>
<g id="a_edge38_Node000018_Node000022"><a xlink:title=" ">
<path fill="none" stroke="#63b8ff" d="M547.68,-247.51C536.96,-228.38 512.6,-184.89 498.54,-159.8"/>
<polygon fill="#63b8ff" stroke="#63b8ff" points="501.15,-158.31 493.21,-151.3 495.05,-161.73 501.15,-158.31"/>
</a>
</g>
</g>
<!-- Node23 -->
<g id="Node000023" class="node">
<title>Node23</title>
<g id="a_Node000023"><a xlink:href="a00254_source.html" target="_top" xlink:title=" ">
<polygon fill="white" stroke="#666666" points="657.5,-212 572.5,-212 572.5,-192 657.5,-192 657.5,-212"/>
<text text-anchor="middle" x="615" y="-198.5" font-family="Helvetica,sans-Serif" font-size="10.00">config/macros.h</text>
</a>
</g>
</g>
<!-- Node18&#45;&gt;Node23 -->
<g id="edge43_Node000018_Node000023" class="edge">
<title>Node18&#45;&gt;Node23</title>
<g id="a_edge43_Node000018_Node000023"><a xlink:title=" ">
<path fill="none" stroke="#63b8ff" d="M563.8,-247.59C572.69,-239.85 585.51,-228.69 596.09,-219.47"/>
<polygon fill="#63b8ff" stroke="#63b8ff" points="598.08,-221.51 603.32,-212.3 593.48,-216.23 598.08,-221.51"/>
</a>
</g>
</g>
<!-- Node20&#45;&gt;Node4 -->
<g id="edge32_Node000020_Node000004" class="edge">
<title>Node20&#45;&gt;Node4</title>
<g id="a_edge32_Node000020_Node000004"><a xlink:title=" ">
<path fill="none" stroke="#63b8ff" d="M267.45,-191.51C250.91,-184.51 231.73,-173.18 222,-156 214.99,-143.62 217.24,-137.4 222,-124 235.31,-86.52 267.98,-52.63 289.28,-33.45"/>
<polygon fill="#63b8ff" stroke="#63b8ff" points="291.13,-35.61 296.35,-26.39 286.52,-30.34 291.13,-35.61"/>
</a>
</g>
</g>
<!-- Node20&#45;&gt;Node19 -->
<g id="edge31_Node000020_Node000019" class="edge">
<title>Node20&#45;&gt;Node19</title>
<g id="a_edge31_Node000020_Node000019"><a xlink:title=" ">
<path fill="none" stroke="#63b8ff" d="M303.46,-191.83C317.6,-171.78 351.47,-123.73 370.13,-97.26"/>
<polygon fill="#63b8ff" stroke="#63b8ff" points="373.56,-99.47 376.46,-89.28 367.84,-95.43 373.56,-99.47"/>
</a>
</g>
</g>
<!-- Node21 -->
<g id="Node000021" class="node">
<title>Node21</title>
<g id="a_Node000021"><a xlink:href="a00098_source.html" target="_top" xlink:title=" ">
<polygon fill="white" stroke="#666666" points="316.5,-150 231.5,-150 231.5,-130 316.5,-130 316.5,-150"/>
<text text-anchor="middle" x="274" y="-136.5" font-family="Helvetica,sans-Serif" font-size="10.00">cmp_interface.h</text>
</a>
</g>
</g>
<!-- Node20&#45;&gt;Node21 -->
<g id="edge33_Node000020_Node000021" class="edge">
<title>Node20&#45;&gt;Node21</title>
<g id="a_edge33_Node000020_Node000021"><a xlink:title=" ">
<path fill="none" stroke="#63b8ff" d="M293.41,-191.62C290.18,-183.21 285.35,-170.6 281.31,-160.07"/>
<polygon fill="#63b8ff" stroke="#63b8ff" points="284.34,-159.2 277.49,-151.11 277.8,-161.7 284.34,-159.2"/>
</a>
</g>
</g>
<!-- Node21&#45;&gt;Node4 -->
<g id="edge34_Node000021_Node000004" class="edge">
<title>Node21&#45;&gt;Node4</title>
<g id="a_edge34_Node000021_Node000004"><a xlink:title=" ">
<path fill="none" stroke="#63b8ff" d="M281.17,-129.85C288.36,-120.09 299.07,-103.89 304,-88 309.15,-71.4 310.15,-51.62 310.01,-37.15"/>
<polygon fill="#63b8ff" stroke="#63b8ff" points="313.48,-37.33 309.68,-27.44 306.49,-37.54 313.48,-37.33"/>
</a>
</g>
</g>
<!-- Node21&#45;&gt;Node19 -->
<g id="edge35_Node000021_Node000019" class="edge">
<title>Node21&#45;&gt;Node19</title>
<g id="a_edge35_Node000021_Node000019"><a xlink:title=" ">
<path fill="none" stroke="#63b8ff" d="M291.03,-129.62C308.55,-119.98 336.08,-104.83 356.45,-93.61"/>
<polygon fill="#63b8ff" stroke="#63b8ff" points="358.02,-96.2 365.09,-88.31 354.64,-90.07 358.02,-96.2"/>
</a>
</g>
</g>
<!-- Node22&#45;&gt;Node2 -->
<g id="edge39_Node000022_Node000002" class="edge">
<title>Node22&#45;&gt;Node2</title>
<g id="a_edge39_Node000022_Node000002"><a xlink:title=" ">
<path fill="none" stroke="#63b8ff" d="M527.33,-131.74C541.96,-129.15 558.71,-126.3 574,-124 695.2,-105.76 840.43,-88.91 900.67,-82.14"/>
<polygon fill="#63b8ff" stroke="#63b8ff" points="900.68,-85.55 910.23,-80.96 899.9,-78.59 900.68,-85.55"/>
</a>
</g>
</g>
<!-- Node22&#45;&gt;Node4 -->
<g id="edge41_Node000022_Node000004" class="edge">
<title>Node22&#45;&gt;Node4</title>
<g id="a_edge41_Node000022_Node000004"><a xlink:title=" ">
<path fill="none" stroke="#63b8ff" d="M480.53,-129.69C468.43,-115.06 443.23,-86.46 417,-68 394.85,-52.41 367.19,-39.45 345.4,-30.5"/>
<polygon fill="#63b8ff" stroke="#63b8ff" points="346.81,-26.89 336.23,-26.43 344.21,-33.39 346.81,-26.89"/>
</a>
</g>
</g>
<!-- Node22&#45;&gt;Node8 -->
<g id="edge40_Node000022_Node000008" class="edge">
<title>Node22&#45;&gt;Node8</title>
<g id="a_edge40_Node000022_Node000008"><a xlink:title=" ">
<path fill="none" stroke="#63b8ff" d="M496.11,-129.64C508.08,-115.9 531.33,-89.56 552,-68 563.21,-56.31 576.23,-43.54 586.43,-33.71"/>
<polygon fill="#63b8ff" stroke="#63b8ff" points="588.44,-36.67 593.24,-27.23 583.6,-31.62 588.44,-36.67"/>
</a>
</g>
</g>
<!-- Node22&#45;&gt;Node19 -->
<g id="edge42_Node000022_Node000019" class="edge">
<title>Node22&#45;&gt;Node19</title>
<g id="a_edge42_Node000022_Node000019"><a xlink:title=" ">
<path fill="none" stroke="#63b8ff" d="M471.59,-129.62C454.8,-120.03 428.44,-104.97 408.84,-93.77"/>
<polygon fill="#63b8ff" stroke="#63b8ff" points="410.71,-90.23 400.29,-88.31 407.24,-96.31 410.71,-90.23"/>
</a>
</g>
</g>
<!-- Node23&#45;&gt;Node2 -->
<g id="edge44_Node000023_Node000002" class="edge">
<title>Node23&#45;&gt;Node2</title>
<g id="a_edge44_Node000023_Node000002"><a xlink:title=" ">
<path fill="none" stroke="#63b8ff" d="M657.61,-192.99C704.16,-183.83 775.38,-168.48 800,-156 819.69,-146.02 819.53,-136.09 838,-124 858.19,-110.79 882.81,-98.84 901.34,-90.58"/>
<polygon fill="#63b8ff" stroke="#63b8ff" points="902.45,-93.48 910.21,-86.27 899.65,-87.06 902.45,-93.48"/>
</a>
</g>
</g>
<!-- Node23&#45;&gt;Node3 -->
<g id="edge48_Node000023_Node000003" class="edge">
<title>Node23&#45;&gt;Node3</title>
<g id="a_edge48_Node000023_Node000003"><a xlink:title=" ">
<path fill="none" stroke="#63b8ff" d="M657.78,-193.97C662.24,-193.28 666.71,-192.62 671,-192 797.38,-173.87 833.37,-191.53 956,-156 957.51,-155.56 959.04,-155.06 960.57,-154.52"/>
<polygon fill="#63b8ff" stroke="#63b8ff" points="961.54,-157.49 969.44,-150.43 958.87,-151.02 961.54,-157.49"/>
</a>
</g>
</g>
<!-- Node23&#45;&gt;Node4 -->
<g id="edge46_Node000023_Node000004" class="edge">
<title>Node23&#45;&gt;Node4</title>
<g id="a_edge46_Node000023_Node000004"><a xlink:title=" ">
<path fill="none" stroke="#63b8ff" d="M606.84,-191.76C593.13,-176.55 564.2,-145.76 536,-124 497.8,-94.52 486.39,-89.11 443,-68 411.78,-52.81 374.8,-39.03 347.6,-29.64"/>
<polygon fill="#63b8ff" stroke="#63b8ff" points="348.92,-26.05 338.33,-26.13 346.66,-32.67 348.92,-26.05"/>
</a>
</g>
</g>
<!-- Node23&#45;&gt;Node8 -->
<g id="edge45_Node000023_Node000008" class="edge">
<title>Node23&#45;&gt;Node8</title>
<g id="a_edge45_Node000023_Node000008"><a xlink:title=" ">
<path fill="none" stroke="#63b8ff" d="M627.72,-191.52C637.53,-183.35 650.35,-170.59 656,-156 659.83,-146.11 660.12,-80.05 655,-68 649.11,-54.13 637.49,-42.04 626.83,-33.11"/>
<polygon fill="#63b8ff" stroke="#63b8ff" points="629.28,-29.8 619.25,-26.38 624.96,-35.31 629.28,-29.8"/>
</a>
</g>
</g>
<!-- Node23&#45;&gt;Node19 -->
<g id="edge47_Node000023_Node000019" class="edge">
<title>Node23&#45;&gt;Node19</title>
<g id="a_edge47_Node000023_Node000019"><a xlink:title=" ">
<path fill="none" stroke="#63b8ff" d="M572.14,-198.03C534.55,-193.65 479.81,-182.81 440,-156 418.2,-141.32 401.6,-115.43 392.08,-97.76"/>
<polygon fill="#63b8ff" stroke="#63b8ff" points="394.99,-96.76 387.31,-89.45 388.76,-99.95 394.99,-96.76"/>
</a>
</g>
</g>
<!-- Node23&#45;&gt;Node22 -->
<g id="edge51_Node000023_Node000022" class="edge">
<title>Node23&#45;&gt;Node22</title>
<g id="a_edge51_Node000023_Node000022"><a xlink:title=" ">
<path fill="none" stroke="#63b8ff" d="M595.16,-191.62C574.37,-181.81 541.5,-166.27 517.64,-155"/>
<polygon fill="#63b8ff" stroke="#63b8ff" points="519.24,-151.42 508.7,-150.31 516.25,-157.75 519.24,-151.42"/>
</a>
</g>
</g>
<!-- Node24 -->
<g id="Node000024" class="node">
<title>Node24</title>
<g id="a_Node000024"><a xlink:href="a00257_source.html" target="_top" xlink:title=" ">
<polygon fill="white" stroke="#666666" points="790.62,-150 703.38,-150 703.38,-130 790.62,-130 790.62,-150"/>
<text text-anchor="middle" x="747" y="-136.5" font-family="Helvetica,sans-Serif" font-size="10.00">useful_macros.h</text>
</a>
</g>
</g>
<!-- Node23&#45;&gt;Node24 -->
<g id="edge49_Node000023_Node000024" class="edge">
<title>Node23&#45;&gt;Node24</title>
<g id="a_edge49_Node000023_Node000024"><a xlink:title=" ">
<path fill="none" stroke="#63b8ff" d="M635.62,-191.62C657.32,-181.76 691.7,-166.13 716.53,-154.85"/>
<polygon fill="#63b8ff" stroke="#63b8ff" points="717.86,-157.63 725.52,-150.31 714.97,-151.26 717.86,-157.63"/>
</a>
</g>
</g>
<!-- Node25 -->
<g id="Node000025" class="node">
<title>Node25</title>
<g id="a_Node000025"><a xlink:href="a00251_source.html" target="_top" xlink:title=" ">
<polygon fill="white" stroke="#666666" points="646.62,-150 583.38,-150 583.38,-130 646.62,-130 646.62,-150"/>
<text text-anchor="middle" x="615" y="-136.5" font-family="Helvetica,sans-Serif" font-size="10.00">hardware.h</text>
</a>
</g>
</g>
<!-- Node23&#45;&gt;Node25 -->
<g id="edge52_Node000023_Node000025" class="edge">
<title>Node23&#45;&gt;Node25</title>
<g id="a_edge52_Node000023_Node000025"><a xlink:title=" ">
<path fill="none" stroke="#63b8ff" d="M615,-191.62C615,-183.48 615,-171.39 615,-161.07"/>
<polygon fill="#63b8ff" stroke="#63b8ff" points="618.5,-161.11 615,-151.11 611.5,-161.11 618.5,-161.11"/>
</a>
</g>
</g>
<!-- Node24&#45;&gt;Node2 -->
<g id="edge50_Node000024_Node000002" class="edge">
<title>Node24&#45;&gt;Node2</title>
<g id="a_edge50_Node000024_Node000002"><a xlink:title=" ">
<path fill="none" stroke="#63b8ff" d="M775.44,-129.62C809.72,-118.32 866.96,-99.45 901.03,-88.22"/>
<polygon fill="#63b8ff" stroke="#63b8ff" points="901.82,-91.32 910.22,-84.86 899.62,-84.67 901.82,-91.32"/>
</a>
</g>
</g>
<!-- Node26&#45;&gt;Node2 -->
<g id="edge55_Node000026_Node000002" class="edge">
<title>Node26&#45;&gt;Node2</title>
<g id="a_edge55_Node000026_Node000002"><a xlink:title=" ">
<path fill="none" stroke="#63b8ff" d="M1465.58,-191.66C1477.55,-175.74 1497.71,-143.22 1480,-124 1462.11,-104.59 1068.1,-85.31 957.59,-80.27"/>
<polygon fill="#63b8ff" stroke="#63b8ff" points="957.82,-76.73 947.67,-79.78 957.5,-83.72 957.82,-76.73"/>
</a>
</g>
</g>
<!-- Node26&#45;&gt;Node8 -->
<g id="edge56_Node000026_Node000008" class="edge">
<title>Node26&#45;&gt;Node8</title>
<g id="a_edge56_Node000026_Node000008"><a xlink:title=" ">
<path fill="none" stroke="#63b8ff" d="M1507.59,-199.82C1588.15,-196.22 1733.52,-181.78 1682,-124 1610.88,-44.25 816.49,-21.77 639.02,-17.73"/>
<polygon fill="#63b8ff" stroke="#63b8ff" points="639.31,-14.21 629.24,-17.49 639.16,-21.21 639.31,-14.21"/>
</a>
</g>
</g>
<!-- Node27 -->
<g id="Node000027" class="node">
<title>Node27</title>
<g id="a_Node000027"><a xlink:title=" ">
<polygon fill="#e0e0e0" stroke="#999999" points="1672.62,-150 1627.38,-150 1627.38,-130 1672.62,-130 1672.62,-150"/>
<text text-anchor="middle" x="1650" y="-136.5" font-family="Helvetica,sans-Serif" font-size="10.00">stdio.h</text>
</a>
</g>
</g>
<!-- Node26&#45;&gt;Node27 -->
<g id="edge54_Node000026_Node000027" class="edge">
<title>Node26&#45;&gt;Node27</title>
<g id="a_edge54_Node000026_Node000027"><a xlink:title=" ">
<path fill="none" stroke="#63b8ff" d="M1498.7,-191.52C1531.39,-183.44 1578.25,-170.79 1618,-156 1619.09,-155.59 1620.2,-155.16 1621.31,-154.72"/>
<polygon fill="#63b8ff" stroke="#63b8ff" points="1622.48,-157.59 1630.27,-150.41 1619.7,-151.17 1622.48,-157.59"/>
</a>
</g>
</g>
<!-- Node28 -->
<g id="Node000028" class="node">
<title>Node28</title>
<g id="a_Node000028"><a xlink:href="a00374.html" target="_top" xlink:title="Contains the DCDT generated functions and data types.">
<polygon fill="white" stroke="#666666" points="1609.38,-150 1526.62,-150 1526.62,-130 1609.38,-130 1609.38,-150"/>
<text text-anchor="middle" x="1568" y="-136.5" font-family="Helvetica,sans-Serif" font-size="10.00">smps_control.h</text>
</a>
</g>
</g>
<!-- Node26&#45;&gt;Node28 -->
<g id="edge57_Node000026_Node000028" class="edge">
<title>Node26&#45;&gt;Node28</title>
<g id="a_edge57_Node000026_Node000028"><a xlink:title=" ">
<path fill="none" stroke="#63b8ff" d="M1475.19,-191.62C1492.95,-181.94 1520.9,-166.69 1541.49,-155.46"/>
<polygon fill="#63b8ff" stroke="#63b8ff" points="1542.83,-158.17 1549.93,-150.31 1539.48,-152.03 1542.83,-158.17"/>
</a>
</g>
</g>
<!-- Node29 -->
<g id="Node000029" class="node">
<title>Node29</title>
<g id="a_Node000029"><a xlink:href="a00047.html" target="_top" xlink:title="Generated by the Microchip Digital Compensator Design Tool (DCDT), contains system summaries and digi...">
<polygon fill="white" stroke="#666666" points="1211,-156 1105,-156 1105,-124 1211,-124 1211,-156"/>
<text text-anchor="start" x="1113" y="-142.5" font-family="Helvetica,sans-Serif" font-size="10.00">iloop/dcdt_generated</text>
<text text-anchor="middle" x="1158" y="-130.5" font-family="Helvetica,sans-Serif" font-size="10.00">_code/iloop_dcdt.h</text>
</a>
</g>
</g>
<!-- Node26&#45;&gt;Node29 -->
<g id="edge60_Node000026_Node000029" class="edge">
<title>Node26&#45;&gt;Node29</title>
<g id="a_edge60_Node000026_Node000029"><a xlink:title=" ">
<path fill="none" stroke="#63b8ff" d="M1408.63,-192.42C1362.65,-184.25 1291.96,-171.28 1221.75,-156.32"/>
<polygon fill="#63b8ff" stroke="#63b8ff" points="1222.91,-152.77 1212.4,-154.1 1221.44,-159.62 1222.91,-152.77"/>
</a>
</g>
</g>
<!-- Node30 -->
<g id="Node000030" class="node">
<title>Node30</title>
<g id="a_Node000030"><a xlink:href="a00050.html" target="_top" xlink:title="Generated by the Microchip Digital Compensator Design Tool (DCDT), contains system summaries and digi...">
<polygon fill="white" stroke="#666666" points="1345.25,-156 1228.75,-156 1228.75,-124 1345.25,-124 1345.25,-156"/>
<text text-anchor="start" x="1236.75" y="-142.5" font-family="Helvetica,sans-Serif" font-size="10.00">iloop33/dcdt_generated</text>
<text text-anchor="middle" x="1287" y="-130.5" font-family="Helvetica,sans-Serif" font-size="10.00">_code/iloop_t_dcdt.h</text>
</a>
</g>
</g>
<!-- Node26&#45;&gt;Node30 -->
<g id="edge61_Node000026_Node000030" class="edge">
<title>Node26&#45;&gt;Node30</title>
<g id="a_edge61_Node000026_Node000030"><a xlink:title=" ">
<path fill="none" stroke="#63b8ff" d="M1431.28,-191.62C1407.33,-183.22 1371.46,-170.64 1341.48,-160.12"/>
<polygon fill="#63b8ff" stroke="#63b8ff" points="1342.74,-156.5 1332.15,-156.49 1340.43,-163.1 1342.74,-156.5"/>
</a>
</g>
</g>
<!-- Node31 -->
<g id="Node000031" class="node">
<title>Node31</title>
<g id="a_Node000031"><a xlink:href="a00053.html" target="_top" xlink:title="Generated by the Microchip Digital Compensator Design Tool (DCDT), contains system summaries and digi...">
<polygon fill="white" stroke="#666666" points="1470.75,-156 1363.25,-156 1363.25,-124 1470.75,-124 1470.75,-156"/>
<text text-anchor="start" x="1371.25" y="-142.5" font-family="Helvetica,sans-Serif" font-size="10.00">vloop/dcdt_generated</text>
<text text-anchor="middle" x="1417" y="-130.5" font-family="Helvetica,sans-Serif" font-size="10.00">_code/vloop_dcdt.h</text>
</a>
</g>
</g>
<!-- Node26&#45;&gt;Node31 -->
<g id="edge62_Node000026_Node000031" class="edge">
<title>Node26&#45;&gt;Node31</title>
<g id="a_edge62_Node000026_Node000031"><a xlink:title=" ">
<path fill="none" stroke="#63b8ff" d="M1451.59,-191.62C1446.73,-184.51 1439.81,-174.38 1433.44,-165.06"/>
<polygon fill="#63b8ff" stroke="#63b8ff" points="1435.88,-163.42 1427.35,-157.14 1430.1,-167.37 1435.88,-163.42"/>
</a>
</g>
</g>
<!-- Node28&#45;&gt;Node2 -->
<g id="edge58_Node000028_Node000002" class="edge">
<title>Node28&#45;&gt;Node2</title>
<g id="a_edge58_Node000028_Node000002"><a xlink:title=" ">
<path fill="none" stroke="#63b8ff" d="M1537.4,-129.55C1529.51,-127.42 1521,-125.39 1513,-124 1301.99,-87.44 1042.94,-80.58 957.68,-79.29"/>
<polygon fill="#63b8ff" stroke="#63b8ff" points="957.88,-75.78 947.83,-79.15 957.78,-82.78 957.88,-75.78"/>
</a>
</g>
</g>
<!-- Node28&#45;&gt;Node8 -->
<g id="edge59_Node000028_Node000008" class="edge">
<title>Node28&#45;&gt;Node8</title>
<g id="a_edge59_Node000028_Node000008"><a xlink:title=" ">
<path fill="none" stroke="#63b8ff" d="M1526.44,-129.57C1516.81,-127.57 1506.57,-125.58 1497,-124 1165.31,-69.2 759.89,-30.89 639.38,-20.1"/>
<polygon fill="#63b8ff" stroke="#63b8ff" points="639.89,-16.54 629.62,-19.14 639.27,-23.51 639.89,-16.54"/>
</a>
</g>
</g>
</g>
</svg>

<g id="navigator" transform="translate(0 0)" fill="#404254">
  <rect fill="#f2f5e9" fill-opacity="0.5" stroke="#606060" stroke-width=".5" x="0" y="0" width="60" height="60"/>
  <use id="zoomplus" xlink:href="#zoomPlus" x="17" y="9" onmousedown="handleZoom(evt,'in')"/>
  <use id="zoomminus" xlink:href="#zoomMin" x="42" y="9" onmousedown="handleZoom(evt,'out')"/>
  <use id="reset" xlink:href="#resetDef" x="30" y="36" onmousedown="handleReset()"/>
   <use id="arrowup" xlink:href="#arrowUp" x="0" y="0" onmousedown="handlePan(0,-1)"/>
  <use id="arrowright" xlink:href="#arrowRight" x="0" y="0" onmousedown="handlePan(1,0)"/>
  <use id="arrowdown" xlink:href="#arrowDown" x="0" y="0" onmousedown="handlePan(0,1)"/>
  <use id="arrowleft" xlink:href="#arrowLeft" x="0" y="0" onmousedown="handlePan(-1,0)"/>
</g>
<svg viewBox="0 0 15 15" width="100%" height="30px" preserveAspectRatio="xMaxYMin meet">
 <g id="arrow_out" transform="scale(0.3 0.3)">
  <a xlink:href="a00405_org.svg" target="_base">
   <rect id="button" ry="5" rx="5" y="6" x="6" height="38" width="38"
        fill="#f2f5e9" fill-opacity="0.5" stroke="#606060" stroke-width="1.0"/>
   <path id="arrow"
     d="M 11.500037,31.436501 C 11.940474,20.09759 22.043105,11.32322 32.158766,21.979434 L 37.068811,17.246167 C 37.068811,17.246167 37.088388,32 37.088388,32 L 22.160133,31.978069 C 22.160133,31.978069 26.997745,27.140456 26.997745,27.140456 C 18.528582,18.264221 13.291696,25.230495 11.500037,31.436501 z"
     style="fill:#404040;"/>
  </a>
 </g>
</svg>

<style type='text/css'>
<![CDATA[
[data-mouse-over-selected='false'] { opacity: 0.7; }
[data-mouse-over-selected='true']  { opacity: 1.0; }
]]>
</style>
<script type="application/ecmascript"><![CDATA[
document.addEventListener('DOMContentLoaded', (event) => {
  highlightEdges();
  highlightAdjacentNodes();
});
]]></script>
</svg>
