<?xml version="1.0" encoding="UTF-8" standalone="no"?>
<!DOCTYPE svg PUBLIC "-//W3C//DTD SVG 1.1//EN"
 "http://www.w3.org/Graphics/SVG/1.1/DTD/svg11.dtd">
<!-- Generated by graphviz version 8.1.0 (20230707.0739)
 -->
<!-- Title: PwrCtrl_Execute Pages: 1 -->
<svg width="804pt" height="412pt"
 viewBox="0.00 0.00 804.25 412.00" xmlns="http://www.w3.org/2000/svg" xmlns:xlink="http://www.w3.org/1999/xlink">
<g id="graph0" class="graph" transform="scale(1 1) rotate(0) translate(4 408)">
<title>PwrCtrl_Execute</title>
<!-- Node1 -->
<g id="Node000001" class="node">
<title>Node1</title>
<g id="a_Node000001"><a xlink:title="Executes the power control state machine.">
<polygon fill="#999999" stroke="#666666" points="88.75,-139 0,-139 0,-119 88.75,-119 88.75,-139"/>
<text text-anchor="middle" x="44.38" y="-125.5" font-family="Helvetica,sans-Serif" font-size="10.00">PwrCtrl_Execute</text>
</a>
</g>
</g>
<!-- Node2 -->
<g id="Node000002" class="node">
<title>Node2</title>
<g id="a_Node000002"><a xlink:href="a00437.html#ga2408c0b52cd2c2487f43716f261434e6" target="_top" xlink:title="Manages the power control state machine.">
<polygon fill="white" stroke="#666666" points="237.5,-139 124.75,-139 124.75,-119 237.5,-119 237.5,-139"/>
<text text-anchor="middle" x="181.12" y="-125.5" font-family="Helvetica,sans-Serif" font-size="10.00">PwrCtrl_StateMachine</text>
</a>
</g>
</g>
<!-- Node1&#45;&gt;Node2 -->
<g id="edge1_Node000001_Node000002" class="edge">
<title>Node1&#45;&gt;Node2</title>
<g id="a_edge1_Node000001_Node000002"><a xlink:title=" ">
<path fill="none" stroke="#63b8ff" d="M89.12,-129C96.93,-129 105.21,-129 113.48,-129"/>
<polygon fill="#63b8ff" stroke="#63b8ff" points="113.3,-132.5 123.3,-129 113.3,-125.5 113.3,-132.5"/>
</a>
</g>
</g>
<!-- Node3 -->
<g id="Node000003" class="node">
<title>Node3</title>
<g id="a_Node000003"><a xlink:href="a00437.html#ga8307344d190a5459682d315fc7bfe198" target="_top" xlink:title="Executes function for initialze state machine.">
<polygon fill="white" stroke="#666666" points="390.75,-297 296,-297 296,-277 390.75,-277 390.75,-297"/>
<text text-anchor="middle" x="343.38" y="-283.5" font-family="Helvetica,sans-Serif" font-size="10.00">PCS_INIT_handler</text>
</a>
</g>
</g>
<!-- Node2&#45;&gt;Node3 -->
<g id="edge2_Node000002_Node000003" class="edge">
<title>Node2&#45;&gt;Node3</title>
<g id="a_edge2_Node000002_Node000003"><a xlink:title=" ">
<path fill="none" stroke="#63b8ff" d="M192.64,-139.37C219.47,-165.82 290.73,-236.08 324.35,-269.22"/>
<polygon fill="#63b8ff" stroke="#63b8ff" points="321.45,-271.27 331.03,-275.8 326.37,-266.29 321.45,-271.27"/>
</a>
</g>
</g>
<!-- Node10 -->
<g id="Node000010" class="node">
<title>Node10</title>
<g id="a_Node000010"><a xlink:href="a00437.html#ga175dce657b908bab1509d14d90b547de" target="_top" xlink:title="Executes Standby State machine.">
<polygon fill="white" stroke="#666666" points="413.25,-196 273.5,-196 273.5,-176 413.25,-176 413.25,-196"/>
<text text-anchor="middle" x="343.38" y="-182.5" font-family="Helvetica,sans-Serif" font-size="10.00">PCS_PRECHARGE_handler</text>
</a>
</g>
</g>
<!-- Node2&#45;&gt;Node10 -->
<g id="edge9_Node000002_Node000010" class="edge">
<title>Node2&#45;&gt;Node10</title>
<g id="a_edge9_Node000002_Node000010"><a xlink:title=" ">
<path fill="none" stroke="#63b8ff" d="M205.1,-139.49C223.4,-147.62 249.78,-158.83 273.5,-167 279.07,-168.92 284.95,-170.78 290.82,-172.54"/>
<polygon fill="#63b8ff" stroke="#63b8ff" points="289.75,-176.16 300.33,-175.58 291.7,-169.44 289.75,-176.16"/>
</a>
</g>
</g>
<!-- Node16 -->
<g id="Node000016" class="node">
<title>Node16</title>
<g id="a_Node000016"><a xlink:href="a00437.html#gabda6b853bb6547821acd0ec87e0a4842" target="_top" xlink:title="Executes the power control soft start state machine.">
<polygon fill="white" stroke="#666666" points="413.25,-158 273.5,-158 273.5,-138 413.25,-138 413.25,-158"/>
<text text-anchor="middle" x="343.38" y="-144.5" font-family="Helvetica,sans-Serif" font-size="10.00">PCS_SOFT_START_handler</text>
</a>
</g>
</g>
<!-- Node2&#45;&gt;Node16 -->
<g id="edge17_Node000002_Node000016" class="edge">
<title>Node2&#45;&gt;Node16</title>
<g id="a_edge17_Node000002_Node000016"><a xlink:title=" ">
<path fill="none" stroke="#63b8ff" d="M237.72,-135.59C245.64,-136.53 253.92,-137.51 262.19,-138.49"/>
<polygon fill="#63b8ff" stroke="#63b8ff" points="261.7,-142.08 272.04,-139.78 262.52,-135.13 261.7,-142.08"/>
</a>
</g>
</g>
<!-- Node18 -->
<g id="Node000018" class="node">
<title>Node18</title>
<g id="a_Node000018"><a xlink:href="a00437.html#ga42f7c8f65745b2f81bb6dbd381ea8121" target="_top" xlink:title="Executes Standby State machine.">
<polygon fill="white" stroke="#666666" points="405.38,-120 281.38,-120 281.38,-100 405.38,-100 405.38,-120"/>
<text text-anchor="middle" x="343.38" y="-106.5" font-family="Helvetica,sans-Serif" font-size="10.00">PCS_STANDBY_handler</text>
</a>
</g>
</g>
<!-- Node2&#45;&gt;Node18 -->
<g id="edge20_Node000002_Node000018" class="edge">
<title>Node2&#45;&gt;Node18</title>
<g id="a_edge20_Node000002_Node000018"><a xlink:title=" ">
<path fill="none" stroke="#63b8ff" d="M237.72,-122.41C248.23,-121.16 259.36,-119.84 270.29,-118.55"/>
<polygon fill="#63b8ff" stroke="#63b8ff" points="270.61,-121.92 280.13,-117.26 269.78,-114.96 270.61,-121.92"/>
</a>
</g>
</g>
<!-- Node19 -->
<g id="Node000019" class="node">
<title>Node19</title>
<g id="a_Node000019"><a xlink:href="a00437.html#ga8752fbb48416e60141e205f1cbda0f98" target="_top" xlink:title="Executes the Online state.">
<polygon fill="white" stroke="#666666" points="408,-82 278.75,-82 278.75,-50 408,-50 408,-82"/>
<text text-anchor="start" x="286.75" y="-68.5" font-family="Helvetica,sans-Serif" font-size="10.00">PCS_UP_AND_RUNNING</text>
<text text-anchor="middle" x="343.38" y="-56.5" font-family="Helvetica,sans-Serif" font-size="10.00">_handler</text>
</a>
</g>
</g>
<!-- Node2&#45;&gt;Node19 -->
<g id="edge21_Node000002_Node000019" class="edge">
<title>Node2&#45;&gt;Node19</title>
<g id="a_edge21_Node000002_Node000019"><a xlink:title=" ">
<path fill="none" stroke="#63b8ff" d="M206.44,-118.53C224.78,-110.72 250.6,-99.91 273.5,-91 277.63,-89.39 281.92,-87.76 286.24,-86.13"/>
<polygon fill="#63b8ff" stroke="#63b8ff" points="287.17,-89.15 295.33,-82.38 284.73,-82.59 287.17,-89.15"/>
</a>
</g>
</g>
<!-- Node21 -->
<g id="Node000021" class="node">
<title>Node21</title>
<g id="a_Node000021"><a xlink:href="a00437.html#gaad6ef2378120876a621b349c1380aef7" target="_top" xlink:title="Executes the fault handler state machine.">
<polygon fill="white" stroke="#666666" points="400.5,-32 286.25,-32 286.25,0 400.5,0 400.5,-32"/>
<text text-anchor="start" x="294.25" y="-18.5" font-family="Helvetica,sans-Serif" font-size="10.00">PCS_WAIT_IF_FAULT</text>
<text text-anchor="middle" x="343.38" y="-6.5" font-family="Helvetica,sans-Serif" font-size="10.00">_ACTIVE_handler</text>
</a>
</g>
</g>
<!-- Node2&#45;&gt;Node21 -->
<g id="edge24_Node000002_Node000021" class="edge">
<title>Node2&#45;&gt;Node21</title>
<g id="a_edge24_Node000002_Node000021"><a xlink:title=" ">
<path fill="none" stroke="#63b8ff" d="M190.37,-118.6C205.2,-100.49 238.17,-63.02 273.5,-41 275.56,-39.72 277.7,-38.48 279.89,-37.3"/>
<polygon fill="#63b8ff" stroke="#63b8ff" points="281.32,-40.01 288.76,-32.46 278.24,-33.72 281.32,-40.01"/>
</a>
</g>
</g>
<!-- Node4 -->
<g id="Node000004" class="node">
<title>Node4</title>
<g id="a_Node000004"><a xlink:href="a00443.html#ga8ed0fee0d3aff71d49470aab1728a6ae" target="_top" xlink:title="Clears the fault object flag bits.">
<polygon fill="white" stroke="#666666" points="558.62,-278 490.12,-278 490.12,-258 558.62,-258 558.62,-278"/>
<text text-anchor="middle" x="524.38" y="-264.5" font-family="Helvetica,sans-Serif" font-size="10.00">Fault_Reset</text>
</a>
</g>
</g>
<!-- Node3&#45;&gt;Node4 -->
<g id="edge3_Node000003_Node000004" class="edge">
<title>Node3&#45;&gt;Node4</title>
<g id="a_edge3_Node000003_Node000004"><a xlink:title=" ">
<path fill="none" stroke="#63b8ff" d="M390.94,-282.06C418.16,-279.17 452.33,-275.54 479.14,-272.7"/>
<polygon fill="#63b8ff" stroke="#63b8ff" points="479.19,-276.1 488.76,-271.57 478.45,-269.14 479.19,-276.1"/>
</a>
</g>
</g>
<!-- Node5 -->
<g id="Node000005" class="node">
<title>Node5</title>
<g id="a_Node000005"><a xlink:href="a00439.html#ga6450795c316e2284ae94eb16f0da1fe8" target="_top" xlink:title="API function to get the raw ADC value for primary current transformer current.">
<polygon fill="white" stroke="#666666" points="583,-404 465.75,-404 465.75,-384 583,-384 583,-404"/>
<text text-anchor="middle" x="524.38" y="-390.5" font-family="Helvetica,sans-Serif" font-size="10.00">PwrCtrl_GetAdc_Ipri_ct</text>
</a>
</g>
</g>
<!-- Node3&#45;&gt;Node5 -->
<g id="edge4_Node000003_Node000005" class="edge">
<title>Node3&#45;&gt;Node5</title>
<g id="a_edge4_Node000003_Node000005"><a xlink:title=" ">
<path fill="none" stroke="#63b8ff" d="M353.68,-297.42C370.77,-315.89 409.08,-354.37 449.25,-375 452.77,-376.81 456.47,-378.45 460.26,-379.94"/>
<polygon fill="#63b8ff" stroke="#63b8ff" points="458.86,-383.51 469.46,-383.55 461.2,-376.92 458.86,-383.51"/>
</a>
</g>
</g>
<!-- Node6 -->
<g id="Node000006" class="node">
<title>Node6</title>
<g id="a_Node000006"><a xlink:href="a00439.html#ga73e4778085abb276456fb9611ae26feb" target="_top" xlink:title="API function to get the raw ADC value for secondary current transformer current.">
<polygon fill="white" stroke="#666666" points="578.88,-366 469.88,-366 469.88,-334 578.88,-334 578.88,-366"/>
<text text-anchor="start" x="477.88" y="-352.5" font-family="Helvetica,sans-Serif" font-size="10.00">PwrCtrl_GetAdc_Isec</text>
<text text-anchor="middle" x="524.38" y="-340.5" font-family="Helvetica,sans-Serif" font-size="10.00">_shunt</text>
</a>
</g>
</g>
<!-- Node3&#45;&gt;Node6 -->
<g id="edge5_Node000003_Node000006" class="edge">
<title>Node3&#45;&gt;Node6</title>
<g id="a_edge5_Node000003_Node000006"><a xlink:title=" ">
<path fill="none" stroke="#63b8ff" d="M372.8,-297.49C393.86,-305.22 423.29,-315.92 449.25,-325 454.05,-326.68 459.02,-328.4 464.02,-330.11"/>
<polygon fill="#63b8ff" stroke="#63b8ff" points="462.68,-333.7 473.28,-333.61 464.95,-327.07 462.68,-333.7"/>
</a>
</g>
</g>
<!-- Node7 -->
<g id="Node000007" class="node">
<title>Node7</title>
<g id="a_Node000007"><a xlink:href="a00434.html#ga8c07187b0c96b5916e4b46daa47500c5" target="_top" xlink:title="Resets the power control properties.">
<polygon fill="white" stroke="#666666" points="563.5,-240 485.25,-240 485.25,-220 563.5,-220 563.5,-240"/>
<text text-anchor="middle" x="524.38" y="-226.5" font-family="Helvetica,sans-Serif" font-size="10.00">PwrCtrl_Reset</text>
</a>
</g>
</g>
<!-- Node3&#45;&gt;Node7 -->
<g id="edge6_Node000003_Node000007" class="edge">
<title>Node3&#45;&gt;Node7</title>
<g id="a_edge6_Node000003_Node000007"><a xlink:title=" ">
<path fill="none" stroke="#63b8ff" d="M370.86,-276.6C391.92,-268.52 422.23,-257.34 449.25,-249 457.37,-246.49 466.07,-244.05 474.54,-241.8"/>
<polygon fill="#63b8ff" stroke="#63b8ff" points="475.29,-244.96 484.09,-239.06 473.53,-238.19 475.29,-244.96"/>
</a>
</g>
</g>
<!-- Node9 -->
<g id="Node000009" class="node">
<title>Node9</title>
<g id="a_Node000009"><a xlink:href="a00440.html#gad68ead20ade98451df7ea1e4e923cbaa" target="_top" xlink:title="Average the raw data over number of samples.">
<polygon fill="white" stroke="#666666" points="583.38,-316 465.38,-316 465.38,-296 583.38,-296 583.38,-316"/>
<text text-anchor="middle" x="524.38" y="-302.5" font-family="Helvetica,sans-Serif" font-size="10.00">PwrCtrl_UpdateAverage</text>
</a>
</g>
</g>
<!-- Node3&#45;&gt;Node9 -->
<g id="edge8_Node000003_Node000009" class="edge">
<title>Node3&#45;&gt;Node9</title>
<g id="a_edge8_Node000003_Node000009"><a xlink:title=" ">
<path fill="none" stroke="#63b8ff" d="M390.94,-291.94C410.26,-293.99 433.07,-296.41 454.27,-298.67"/>
<polygon fill="#63b8ff" stroke="#63b8ff" points="453.87,-302.25 464.19,-299.82 454.61,-295.29 453.87,-302.25"/>
</a>
</g>
</g>
<!-- Node8 -->
<g id="Node000008" class="node">
<title>Node8</title>
<g id="a_Node000008"><a xlink:href="a00438.html#gae5d978249e235e284da922df5ec4363a" target="_top" xlink:title="Clear the control and error histories of the control loops.">
<polygon fill="white" stroke="#666666" points="780.88,-265 650.88,-265 650.88,-233 780.88,-233 780.88,-265"/>
<text text-anchor="start" x="658.88" y="-251.5" font-family="Helvetica,sans-Serif" font-size="10.00">PwrCtrl_ResetControlLoop</text>
<text text-anchor="middle" x="715.88" y="-239.5" font-family="Helvetica,sans-Serif" font-size="10.00">Histories</text>
</a>
</g>
</g>
<!-- Node7&#45;&gt;Node8 -->
<g id="edge7_Node000007_Node000008" class="edge">
<title>Node7&#45;&gt;Node8</title>
<g id="a_edge7_Node000007_Node000008"><a xlink:title=" ">
<path fill="none" stroke="#63b8ff" d="M563.72,-233.84C585.59,-236.04 613.75,-238.86 639.82,-241.48"/>
<polygon fill="#63b8ff" stroke="#63b8ff" points="639.16,-245.03 649.46,-242.54 639.86,-238.06 639.16,-245.03"/>
</a>
</g>
</g>
<!-- Node10&#45;&gt;Node4 -->
<g id="edge10_Node000010_Node000004" class="edge">
<title>Node10&#45;&gt;Node4</title>
<g id="a_edge10_Node000010_Node000004"><a xlink:title=" ">
<path fill="none" stroke="#63b8ff" d="M358.59,-196.39C378.12,-210.21 414.76,-234.58 449.25,-249 458.7,-252.95 469.18,-256.25 479.22,-258.92"/>
<polygon fill="#63b8ff" stroke="#63b8ff" points="478.31,-262.55 488.86,-261.58 480.01,-255.76 478.31,-262.55"/>
</a>
</g>
</g>
<!-- Node10&#45;&gt;Node7 -->
<g id="edge16_Node000010_Node000007" class="edge">
<title>Node10&#45;&gt;Node7</title>
<g id="a_edge16_Node000010_Node000007"><a xlink:title=" ">
<path fill="none" stroke="#63b8ff" d="M386.8,-196.43C413.08,-202.89 446.94,-211.21 474.37,-217.95"/>
<polygon fill="#63b8ff" stroke="#63b8ff" points="473.37,-221.56 483.92,-220.55 475.04,-214.76 473.37,-221.56"/>
</a>
</g>
</g>
<!-- Node11 -->
<g id="Node000011" class="node">
<title>Node11</title>
<g id="a_Node000011"><a xlink:href="a00436.html#gadd5e4ddb9642de13028547e4a4316f0c" target="_top" xlink:title="set the PWM output to particular duty cycle.">
<polygon fill="white" stroke="#666666" points="595.75,-202 453,-202 453,-170 595.75,-170 595.75,-202"/>
<text text-anchor="start" x="461" y="-188.5" font-family="Helvetica,sans-Serif" font-size="10.00">PwrCtrl_PWM_SetDutyCycle</text>
<text text-anchor="middle" x="524.38" y="-176.5" font-family="Helvetica,sans-Serif" font-size="10.00">Primary</text>
</a>
</g>
</g>
<!-- Node10&#45;&gt;Node11 -->
<g id="edge11_Node000010_Node000011" class="edge">
<title>Node10&#45;&gt;Node11</title>
<g id="a_edge11_Node000010_Node000011"><a xlink:title=" ">
<path fill="none" stroke="#63b8ff" d="M413.58,-186C422.77,-186 432.27,-186 441.65,-186"/>
<polygon fill="#63b8ff" stroke="#63b8ff" points="441.58,-189.5 451.58,-186 441.58,-182.5 441.58,-189.5"/>
</a>
</g>
</g>
<!-- Node15 -->
<g id="Node000015" class="node">
<title>Node15</title>
<g id="a_Node000015"><a xlink:href="a00436.html#gae13a0db6addfe827e4c48e0f2250e3f2" target="_top" xlink:title="Disable the PWM output.">
<polygon fill="white" stroke="#666666" points="599.5,-152 449.25,-152 449.25,-132 599.5,-132 599.5,-152"/>
<text text-anchor="middle" x="524.38" y="-138.5" font-family="Helvetica,sans-Serif" font-size="10.00">PwrCtrl_PWM_Stop_Switching</text>
</a>
</g>
</g>
<!-- Node10&#45;&gt;Node15 -->
<g id="edge15_Node000010_Node000015" class="edge">
<title>Node10&#45;&gt;Node15</title>
<g id="a_edge15_Node000010_Node000015"><a xlink:title=" ">
<path fill="none" stroke="#63b8ff" d="M386.8,-175.57C411.89,-169.4 443.9,-161.54 470.62,-154.97"/>
<polygon fill="#63b8ff" stroke="#63b8ff" points="471.07,-158.21 479.95,-152.43 469.4,-151.42 471.07,-158.21"/>
</a>
</g>
</g>
<!-- Node12 -->
<g id="Node000012" class="node">
<title>Node12</title>
<g id="a_Node000012"><a xlink:href="a00454.html#ga83e780358618114f0d424ca7467cf751" target="_top" xlink:title="This inline function requests to update the data registers for specific PWM generator selected by the...">
<polygon fill="white" stroke="#666666" points="791,-215 640.75,-215 640.75,-195 791,-195 791,-215"/>
<text text-anchor="middle" x="715.88" y="-201.5" font-family="Helvetica,sans-Serif" font-size="10.00">PWM_SoftwareUpdateRequest</text>
</a>
</g>
</g>
<!-- Node11&#45;&gt;Node12 -->
<g id="edge12_Node000011_Node000012" class="edge">
<title>Node11&#45;&gt;Node12</title>
<g id="a_edge12_Node000011_Node000012"><a xlink:title=" ">
<path fill="none" stroke="#63b8ff" d="M596.21,-193.1C607.12,-194.2 618.49,-195.34 629.68,-196.46"/>
<polygon fill="#63b8ff" stroke="#63b8ff" points="629.03,-200.01 639.33,-197.53 629.73,-193.05 629.03,-200.01"/>
</a>
</g>
</g>
<!-- Node13 -->
<g id="Node000013" class="node">
<title>Node13</title>
<g id="a_Node000013"><a xlink:href="a00454.html#ga3453a907bf8e14bb9bb434ddd0e82500" target="_top" xlink:title="This inline function sets the Trigger B compare value in count for a specific PWM generator selected ...">
<polygon fill="white" stroke="#666666" points="796.25,-177 635.5,-177 635.5,-157 796.25,-157 796.25,-177"/>
<text text-anchor="middle" x="715.88" y="-163.5" font-family="Helvetica,sans-Serif" font-size="10.00">PWM_TriggerBCompareValueSet</text>
</a>
</g>
</g>
<!-- Node11&#45;&gt;Node13 -->
<g id="edge13_Node000011_Node000013" class="edge">
<title>Node11&#45;&gt;Node13</title>
<g id="a_edge13_Node000011_Node000013"><a xlink:title=" ">
<path fill="none" stroke="#63b8ff" d="M596.21,-178.9C605.45,-177.97 615.02,-177.01 624.52,-176.06"/>
<polygon fill="#63b8ff" stroke="#63b8ff" points="624.61,-179.47 634.21,-174.99 623.91,-172.5 624.61,-179.47"/>
</a>
</g>
</g>
<!-- Node14 -->
<g id="Node000014" class="node">
<title>Node14</title>
<g id="a_Node000014"><a xlink:href="a00454.html#gacc5575148a6e8da6577d9be9e20541ce" target="_top" xlink:title="This inline function sets the Trigger C compare value in count for a specific PWM generator selected ...">
<polygon fill="white" stroke="#666666" points="796.25,-139 635.5,-139 635.5,-119 796.25,-119 796.25,-139"/>
<text text-anchor="middle" x="715.88" y="-125.5" font-family="Helvetica,sans-Serif" font-size="10.00">PWM_TriggerCCompareValueSet</text>
</a>
</g>
</g>
<!-- Node11&#45;&gt;Node14 -->
<g id="edge14_Node000011_Node000014" class="edge">
<title>Node11&#45;&gt;Node14</title>
<g id="a_edge14_Node000011_Node000014"><a xlink:title=" ">
<path fill="none" stroke="#63b8ff" d="M574.47,-169.61C582.83,-166.77 591.42,-163.82 599.5,-161 615.56,-155.39 619.2,-152.88 635.5,-148 642.34,-145.95 649.56,-143.98 656.75,-142.12"/>
<polygon fill="#63b8ff" stroke="#63b8ff" points="657.37,-145.32 666.22,-139.49 655.66,-138.53 657.37,-145.32"/>
</a>
</g>
</g>
<!-- Node16&#45;&gt;Node15 -->
<g id="edge18_Node000016_Node000015" class="edge">
<title>Node16&#45;&gt;Node15</title>
<g id="a_edge18_Node000016_Node000015"><a xlink:title=" ">
<path fill="none" stroke="#63b8ff" d="M413.58,-145.68C421.65,-145.41 429.96,-145.13 438.21,-144.85"/>
<polygon fill="#63b8ff" stroke="#63b8ff" points="438.13,-148.33 448.01,-144.49 437.9,-141.33 438.13,-148.33"/>
</a>
</g>
</g>
<!-- Node17 -->
<g id="Node000017" class="node">
<title>Node17</title>
<g id="a_Node000017"><a xlink:href="a00440.html#ga59bb2fab32dc783d76f800283b4c7e2b" target="_top" xlink:title="Softly increment / decrement to the set reference target.">
<polygon fill="white" stroke="#666666" points="585.25,-114 463.5,-114 463.5,-94 585.25,-94 585.25,-114"/>
<text text-anchor="middle" x="524.38" y="-100.5" font-family="Helvetica,sans-Serif" font-size="10.00">PwrCtrl_RampReference</text>
</a>
</g>
</g>
<!-- Node16&#45;&gt;Node17 -->
<g id="edge19_Node000016_Node000017" class="edge">
<title>Node16&#45;&gt;Node17</title>
<g id="a_edge19_Node000016_Node000017"><a xlink:title=" ">
<path fill="none" stroke="#63b8ff" d="M386.8,-137.57C411.89,-131.4 443.9,-123.54 470.62,-116.97"/>
<polygon fill="#63b8ff" stroke="#63b8ff" points="471.07,-120.21 479.95,-114.43 469.4,-113.42 471.07,-120.21"/>
</a>
</g>
</g>
<!-- Node19&#45;&gt;Node15 -->
<g id="edge23_Node000019_Node000015" class="edge">
<title>Node19&#45;&gt;Node15</title>
<g id="a_edge23_Node000019_Node000015"><a xlink:title=" ">
<path fill="none" stroke="#63b8ff" d="M396.14,-82.34C402.07,-84.92 407.9,-87.81 413.25,-91 431.64,-101.96 430.35,-112.95 449.25,-123 452.58,-124.77 456.08,-126.38 459.67,-127.84"/>
<polygon fill="#63b8ff" stroke="#63b8ff" points="458.38,-131.46 468.98,-131.6 460.78,-124.89 458.38,-131.46"/>
</a>
</g>
</g>
<!-- Node20 -->
<g id="Node000020" class="node">
<title>Node20</title>
<g id="a_Node000020"><a xlink:href="a00435.html#gaec6f57d582c3eec519e92a391975b47d" target="_top" xlink:title="Averages secondary current for droop.">
<polygon fill="white" stroke="#666666" points="580.75,-76 468,-76 468,-56 580.75,-56 580.75,-76"/>
<text text-anchor="middle" x="524.38" y="-62.5" font-family="Helvetica,sans-Serif" font-size="10.00">PwrCtrl_DroopAverage</text>
</a>
</g>
</g>
<!-- Node19&#45;&gt;Node20 -->
<g id="edge22_Node000019_Node000020" class="edge">
<title>Node19&#45;&gt;Node20</title>
<g id="a_edge22_Node000019_Node000020"><a xlink:title=" ">
<path fill="none" stroke="#63b8ff" d="M408.49,-66C424.22,-66 441.09,-66 456.93,-66"/>
<polygon fill="#63b8ff" stroke="#63b8ff" points="456.71,-69.5 466.71,-66 456.71,-62.5 456.71,-69.5"/>
</a>
</g>
</g>
<!-- Node22 -->
<g id="Node000022" class="node">
<title>Node22</title>
<g id="a_Node000022"><a xlink:href="a00428.html#ga7a0c2b9310bac913f834943e1d21316e" target="_top" xlink:title=" ">
<polygon fill="white" stroke="#666666" points="576.25,-32 472.5,-32 472.5,0 576.25,0 576.25,-32"/>
<text text-anchor="start" x="480.5" y="-18.5" font-family="Helvetica,sans-Serif" font-size="10.00">dev_MeasureOffsets</text>
<text text-anchor="middle" x="524.38" y="-6.5" font-family="Helvetica,sans-Serif" font-size="10.00">_Initialize</text>
</a>
</g>
</g>
<!-- Node21&#45;&gt;Node22 -->
<g id="edge25_Node000021_Node000022" class="edge">
<title>Node21&#45;&gt;Node22</title>
<g id="a_edge25_Node000021_Node000022"><a xlink:title=" ">
<path fill="none" stroke="#63b8ff" d="M400.52,-16C419.9,-16 441.71,-16 461.52,-16"/>
<polygon fill="#63b8ff" stroke="#63b8ff" points="461.29,-19.5 471.29,-16 461.29,-12.5 461.29,-19.5"/>
</a>
</g>
</g>
</g>
</svg>
