<?xml version="1.0" encoding="UTF-8" standalone="no"?>
<!DOCTYPE svg PUBLIC "-//W3C//DTD SVG 1.1//EN"
 "http://www.w3.org/Graphics/SVG/1.1/DTD/svg11.dtd">
<!-- Generated by graphviz version 8.1.0 (20230707.0739)
 -->
<!-- Title: Fault_Execute Pages: 1 -->
<svg width="407pt" height="142pt"
 viewBox="0.00 0.00 407.00 142.00" xmlns="http://www.w3.org/2000/svg" xmlns:xlink="http://www.w3.org/1999/xlink">
<g id="graph0" class="graph" transform="scale(1 1) rotate(0) translate(4 138)">
<title>Fault_Execute</title>
<!-- Node1 -->
<g id="Node000001" class="node">
<title>Node1</title>
<g id="a_Node000001"><a xlink:title="Executes the fault handlers.">
<polygon fill="#999999" stroke="#666666" points="79,-77 0,-77 0,-57 79,-57 79,-77"/>
<text text-anchor="middle" x="39.5" y="-63.5" font-family="Helvetica,sans-Serif" font-size="10.00">Fault_Execute</text>
</a>
</g>
</g>
<!-- Node2 -->
<g id="Node000002" class="node">
<title>Node2</title>
<g id="a_Node000002"><a xlink:href="a00444.html#ga1a12d5b7c5b1f234c50ea2214e91fcfc" target="_top" xlink:title="This function compares the fault source value with the threshold limits and sets (or) resets the faul...">
<polygon fill="white" stroke="#666666" points="212.75,-134 115,-134 115,-114 212.75,-114 212.75,-134"/>
<text text-anchor="middle" x="163.88" y="-120.5" font-family="Helvetica,sans-Serif" font-size="10.00">FAULT_CheckMax</text>
</a>
</g>
</g>
<!-- Node1&#45;&gt;Node2 -->
<g id="edge1_Node000001_Node000002" class="edge">
<title>Node1&#45;&gt;Node2</title>
<g id="a_edge1_Node000001_Node000002"><a xlink:title=" ">
<path fill="none" stroke="#63b8ff" d="M59.55,-77.34C74.46,-85.29 95.82,-96.32 115,-105 118.36,-106.52 121.88,-108.04 125.42,-109.53"/>
<polygon fill="#63b8ff" stroke="#63b8ff" points="123.77,-113.04 134.35,-113.59 126.41,-106.56 123.77,-113.04"/>
</a>
</g>
</g>
<!-- Node3 -->
<g id="Node000003" class="node">
<title>Node3</title>
<g id="a_Node000003"><a xlink:href="a00444.html#gabe4788eb1b8be3ad755eb7daf6bba295" target="_top" xlink:title="This function compares the fault source value with the threshold limits and sets (or) resets the faul...">
<polygon fill="white" stroke="#666666" points="211.25,-96 116.5,-96 116.5,-76 211.25,-76 211.25,-96"/>
<text text-anchor="middle" x="163.88" y="-82.5" font-family="Helvetica,sans-Serif" font-size="10.00">FAULT_CheckMin</text>
</a>
</g>
</g>
<!-- Node1&#45;&gt;Node3 -->
<g id="edge2_Node000001_Node000003" class="edge">
<title>Node1&#45;&gt;Node3</title>
<g id="a_edge2_Node000001_Node000003"><a xlink:title=" ">
<path fill="none" stroke="#63b8ff" d="M79.22,-73.01C87.58,-74.31 96.6,-75.71 105.5,-77.09"/>
<polygon fill="#63b8ff" stroke="#63b8ff" points="104.84,-80.69 115.26,-78.76 105.92,-73.77 104.84,-80.69"/>
</a>
</g>
</g>
<!-- Node4 -->
<g id="Node000004" class="node">
<title>Node4</title>
<g id="a_Node000004"><a xlink:href="a00311.html#a525a7d54ffe10a34fc0de37c1d43aa6a" target="_top" xlink:title=" ">
<polygon fill="white" stroke="#666666" points="205.25,-58 122.5,-58 122.5,-38 205.25,-38 205.25,-58"/>
<text text-anchor="middle" x="163.88" y="-44.5" font-family="Helvetica,sans-Serif" font-size="10.00">Fault_GetFlags</text>
</a>
</g>
</g>
<!-- Node1&#45;&gt;Node4 -->
<g id="edge3_Node000001_Node000004" class="edge">
<title>Node1&#45;&gt;Node4</title>
<g id="a_edge3_Node000001_Node000004"><a xlink:title=" ">
<path fill="none" stroke="#63b8ff" d="M79.22,-60.99C89.51,-59.39 100.79,-57.64 111.64,-55.95"/>
<polygon fill="#63b8ff" stroke="#63b8ff" points="111.95,-59.29 121.3,-54.3 110.88,-52.38 111.95,-59.29"/>
</a>
</g>
</g>
<!-- Node5 -->
<g id="Node000005" class="node">
<title>Node5</title>
<g id="a_Node000005"><a xlink:href="a00443.html#gaf27f2f24932cec222273df148f8765cb" target="_top" xlink:title="Handles the fault trip by turning off the power control switching.">
<polygon fill="white" stroke="#666666" points="201.88,-20 125.88,-20 125.88,0 201.88,0 201.88,-20"/>
<text text-anchor="middle" x="163.88" y="-6.5" font-family="Helvetica,sans-Serif" font-size="10.00">Fault_Handler</text>
</a>
</g>
</g>
<!-- Node1&#45;&gt;Node5 -->
<g id="edge4_Node000001_Node000005" class="edge">
<title>Node1&#45;&gt;Node5</title>
<g id="a_edge4_Node000001_Node000005"><a xlink:title=" ">
<path fill="none" stroke="#63b8ff" d="M59.55,-56.66C74.46,-48.71 95.82,-37.68 115,-29 118.36,-27.48 121.88,-25.96 125.42,-24.47"/>
<polygon fill="#63b8ff" stroke="#63b8ff" points="126.41,-27.44 134.35,-20.41 123.77,-20.96 126.41,-27.44"/>
</a>
</g>
</g>
<!-- Node6 -->
<g id="Node000006" class="node">
<title>Node6</title>
<g id="a_Node000006"><a xlink:href="a00436.html#gae13a0db6addfe827e4c48e0f2250e3f2" target="_top" xlink:title="Disable the PWM output.">
<polygon fill="white" stroke="#666666" points="399,-20 248.75,-20 248.75,0 399,0 399,-20"/>
<text text-anchor="middle" x="323.88" y="-6.5" font-family="Helvetica,sans-Serif" font-size="10.00">PwrCtrl_PWM_Stop_Switching</text>
</a>
</g>
</g>
<!-- Node5&#45;&gt;Node6 -->
<g id="edge5_Node000005_Node000006" class="edge">
<title>Node5&#45;&gt;Node6</title>
<g id="a_edge5_Node000005_Node000006"><a xlink:title=" ">
<path fill="none" stroke="#63b8ff" d="M202.32,-10C213.05,-10 225.2,-10 237.57,-10"/>
<polygon fill="#63b8ff" stroke="#63b8ff" points="237.46,-13.5 247.46,-10 237.46,-6.5 237.46,-13.5"/>
</a>
</g>
</g>
</g>
</svg>
