<?xml version="1.0" encoding="UTF-8" standalone="no"?>
<!DOCTYPE svg PUBLIC "-//W3C//DTD SVG 1.1//EN"
 "http://www.w3.org/Graphics/SVG/1.1/DTD/svg11.dtd">
<!-- Generated by graphviz version 8.1.0 (20230707.0739)
 -->
<!-- Title: __attribute__ Pages: 1 -->
<svg width="838pt" height="370pt"
 viewBox="0.00 0.00 838.00 370.00" xmlns="http://www.w3.org/2000/svg" xmlns:xlink="http://www.w3.org/1999/xlink">
<g id="graph0" class="graph" transform="scale(1 1) rotate(0) translate(4 366)">
<title>__attribute__</title>
<!-- Node1 -->
<g id="Node000001" class="node">
<title>Node1</title>
<g id="a_Node000001"><a xlink:title="Executes the power converter control loop.">
<polygon fill="#999999" stroke="#666666" points="72.25,-159 0,-159 0,-139 72.25,-139 72.25,-159"/>
<text text-anchor="middle" x="36.12" y="-145.5" font-family="Helvetica,sans-Serif" font-size="10.00">__attribute__</text>
</a>
</g>
</g>
<!-- Node2 -->
<g id="Node000002" class="node">
<title>Node2</title>
<g id="a_Node000002"><a xlink:href="a00448.html#gaebc385db92ab49c593f635282b8491db" target="_top" xlink:title="This inline function sets software common trigger.">
<polygon fill="white" stroke="#666666" points="260,-247 116.5,-247 116.5,-227 260,-227 260,-247"/>
<text text-anchor="middle" x="188.25" y="-233.5" font-family="Helvetica,sans-Serif" font-size="10.00">ADC1_SoftwareTriggerEnable</text>
</a>
</g>
</g>
<!-- Node1&#45;&gt;Node2 -->
<g id="edge1_Node000001_Node000002" class="edge">
<title>Node1&#45;&gt;Node2</title>
<g id="a_edge1_Node000001_Node000002"><a xlink:title=" ">
<path fill="none" stroke="#63b8ff" d="M44.84,-159.43C56.71,-174.71 80.97,-202.99 108.25,-218 111.5,-219.79 114.92,-221.41 118.43,-222.88"/>
<polygon fill="#63b8ff" stroke="#63b8ff" points="116.94,-226.43 127.53,-226.63 119.38,-219.87 116.94,-226.43"/>
</a>
</g>
</g>
<!-- Node3 -->
<g id="Node000003" class="node">
<title>Node3</title>
<g id="a_Node000003"><a xlink:href="a00435.html#gae32c9e5ed4d1fb98fc13b26601782c10" target="_top" xlink:title="Executes the power converter control loop.">
<polygon fill="white" stroke="#666666" points="242.38,-209 134.12,-209 134.12,-177 242.38,-177 242.38,-209"/>
<text text-anchor="start" x="142.12" y="-195.5" font-family="Helvetica,sans-Serif" font-size="10.00">ControlLoop_Interrupt</text>
<text text-anchor="middle" x="188.25" y="-183.5" font-family="Helvetica,sans-Serif" font-size="10.00">_CallBack</text>
</a>
</g>
</g>
<!-- Node1&#45;&gt;Node3 -->
<g id="edge2_Node000001_Node000003" class="edge">
<title>Node1&#45;&gt;Node3</title>
<g id="a_edge2_Node000001_Node000003"><a xlink:title=" ">
<path fill="none" stroke="#63b8ff" d="M72.7,-159.43C87.92,-163.89 106.17,-169.24 123.58,-174.34"/>
<polygon fill="#63b8ff" stroke="#63b8ff" points="122.13,-177.85 132.71,-177.31 124.1,-171.14 122.13,-177.85"/>
</a>
</g>
</g>
<!-- Node13 -->
<g id="Node000013" class="node">
<title>Node13</title>
<g id="a_Node000013"><a xlink:href="a00443.html#gacd1ca209275dae0bc2388ac954858d83" target="_top" xlink:title="Executes the fault handlers.">
<polygon fill="white" stroke="#666666" points="227.75,-159 148.75,-159 148.75,-139 227.75,-139 227.75,-159"/>
<text text-anchor="middle" x="188.25" y="-145.5" font-family="Helvetica,sans-Serif" font-size="10.00">Fault_Execute</text>
</a>
</g>
</g>
<!-- Node1&#45;&gt;Node13 -->
<g id="edge12_Node000001_Node000013" class="edge">
<title>Node1&#45;&gt;Node13</title>
<g id="a_edge12_Node000001_Node000013"><a xlink:title=" ">
<path fill="none" stroke="#63b8ff" d="M72.7,-149C92.12,-149 116.47,-149 137.72,-149"/>
<polygon fill="#63b8ff" stroke="#63b8ff" points="137.51,-152.5 147.51,-149 137.51,-145.5 137.51,-152.5"/>
</a>
</g>
</g>
<!-- Node19 -->
<g id="Node000019" class="node">
<title>Node19</title>
<g id="a_Node000019"><a xlink:href="a00436.html#gaecab4a1d6e1433ba817a0726c4217e3f" target="_top" xlink:title="set the PWM output to particular duty cycle.">
<polygon fill="white" stroke="#666666" points="268.25,-121 108.25,-121 108.25,-89 268.25,-89 268.25,-121"/>
<text text-anchor="start" x="116.25" y="-107.5" font-family="Helvetica,sans-Serif" font-size="10.00">PwrCtrl_PWM_UpdateSecondary</text>
<text text-anchor="middle" x="188.25" y="-95.5" font-family="Helvetica,sans-Serif" font-size="10.00">Rectifiers</text>
</a>
</g>
</g>
<!-- Node1&#45;&gt;Node19 -->
<g id="edge18_Node000001_Node000019" class="edge">
<title>Node1&#45;&gt;Node19</title>
<g id="a_edge18_Node000001_Node000019"><a xlink:title=" ">
<path fill="none" stroke="#63b8ff" d="M72.7,-138.57C87.14,-134.34 104.29,-129.31 120.87,-124.45"/>
<polygon fill="#63b8ff" stroke="#63b8ff" points="121.48,-127.63 130.09,-121.46 119.51,-120.91 121.48,-127.63"/>
</a>
</g>
</g>
<!-- Node20 -->
<g id="Node000020" class="node">
<title>Node20</title>
<g id="a_Node000020"><a xlink:href="a00435.html#gaa34c5b66d8f20f01daef50d0e88cf20e" target="_top" xlink:title="This function updates the PSFB data members with ADC raw values.">
<polygon fill="white" stroke="#666666" points="267.12,-58 109.38,-58 109.38,-38 267.12,-38 267.12,-58"/>
<text text-anchor="middle" x="188.25" y="-44.5" font-family="Helvetica,sans-Serif" font-size="10.00">PwrCtrl_UpdateADConverterData</text>
</a>
</g>
</g>
<!-- Node1&#45;&gt;Node20 -->
<g id="edge19_Node000001_Node000020" class="edge">
<title>Node1&#45;&gt;Node20</title>
<g id="a_edge19_Node000001_Node000020"><a xlink:title=" ">
<path fill="none" stroke="#63b8ff" d="M45.35,-138.84C57.68,-124.15 82.31,-96.91 108.25,-80 118.99,-73 131.51,-67.08 143.37,-62.3"/>
<polygon fill="#63b8ff" stroke="#63b8ff" points="144.47,-65.24 152.56,-58.4 141.97,-58.7 144.47,-65.24"/>
</a>
</g>
</g>
<!-- Node4 -->
<g id="Node000004" class="node">
<title>Node4</title>
<g id="a_Node000004"><a xlink:href="a00435.html#ga2eeebdb0cef4bbfeed446752525dd879" target="_top" xlink:title="Executes the power converter control loop.">
<polygon fill="white" stroke="#666666" points="445.88,-248 305.38,-248 305.38,-228 445.88,-228 445.88,-248"/>
<text text-anchor="middle" x="375.62" y="-234.5" font-family="Helvetica,sans-Serif" font-size="10.00">PwrCtrl_ControlLoopExecute</text>
</a>
</g>
</g>
<!-- Node3&#45;&gt;Node4 -->
<g id="edge3_Node000003_Node000004" class="edge">
<title>Node3&#45;&gt;Node4</title>
<g id="a_edge3_Node000003_Node000004"><a xlink:title=" ">
<path fill="none" stroke="#63b8ff" d="M242.87,-206.02C267.37,-211.96 296.32,-218.99 320.84,-224.94"/>
<polygon fill="#63b8ff" stroke="#63b8ff" points="319.86,-228.55 330.4,-227.51 321.51,-221.75 319.86,-228.55"/>
</a>
</g>
</g>
<!-- Node5 -->
<g id="Node000005" class="node">
<title>Node5</title>
<g id="a_Node000005"><a xlink:href="a00436.html#ga054f3de472c33a84cb37459b27a0d3b3" target="_top" xlink:title="PWM distribution for PSFB converter.">
<polygon fill="white" stroke="#666666" points="614.88,-305 501.38,-305 501.38,-285 614.88,-285 614.88,-305"/>
<text text-anchor="middle" x="558.12" y="-291.5" font-family="Helvetica,sans-Serif" font-size="10.00">PwrCtrl_PWM_Update</text>
</a>
</g>
</g>
<!-- Node4&#45;&gt;Node5 -->
<g id="edge4_Node000004_Node000005" class="edge">
<title>Node4&#45;&gt;Node5</title>
<g id="a_edge4_Node000004_Node000005"><a xlink:title=" ">
<path fill="none" stroke="#63b8ff" d="M403.5,-248.38C424.87,-256.44 455.62,-267.62 483,-276 489.42,-277.96 496.19,-279.89 502.93,-281.73"/>
<polygon fill="#63b8ff" stroke="#63b8ff" points="501.87,-285.33 512.43,-284.51 503.66,-278.56 501.87,-285.33"/>
</a>
</g>
</g>
<!-- Node10 -->
<g id="Node000010" class="node">
<title>Node10</title>
<g id="a_Node000010"><a xlink:href="a00439.html#gae62d241af8152bb7989d448f30adc55e" target="_top" xlink:title="API function to set the target PWM phase.">
<polygon fill="white" stroke="#666666" points="619.38,-267 496.88,-267 496.88,-247 619.38,-247 619.38,-267"/>
<text text-anchor="middle" x="558.12" y="-253.5" font-family="Helvetica,sans-Serif" font-size="10.00">PwrCtrl_SetPhaseTarget</text>
</a>
</g>
</g>
<!-- Node4&#45;&gt;Node10 -->
<g id="edge9_Node000004_Node000010" class="edge">
<title>Node4&#45;&gt;Node10</title>
<g id="a_edge9_Node000004_Node000010"><a xlink:title=" ">
<path fill="none" stroke="#63b8ff" d="M446.15,-245.32C459.11,-246.68 472.67,-248.11 485.68,-249.48"/>
<polygon fill="#63b8ff" stroke="#63b8ff" points="485.15,-253.05 495.46,-250.61 485.88,-246.09 485.15,-253.05"/>
</a>
</g>
</g>
<!-- Node11 -->
<g id="Node000011" class="node">
<title>Node11</title>
<g id="a_Node000011"><a xlink:href="a00374.html#ac4c8852561395f2969c08ff062325e03" target="_top" xlink:title=" ">
<polygon fill="white" stroke="#666666" points="630.25,-229 486,-229 486,-209 630.25,-209 630.25,-229"/>
<text text-anchor="middle" x="558.12" y="-215.5" font-family="Helvetica,sans-Serif" font-size="10.00">SMPS_Controller2P2ZUpdate</text>
</a>
</g>
</g>
<!-- Node4&#45;&gt;Node11 -->
<g id="edge10_Node000004_Node000011" class="edge">
<title>Node4&#45;&gt;Node11</title>
<g id="a_edge10_Node000004_Node000011"><a xlink:title=" ">
<path fill="none" stroke="#63b8ff" d="M446.15,-230.68C455.53,-229.69 465.23,-228.67 474.81,-227.67"/>
<polygon fill="#63b8ff" stroke="#63b8ff" points="474.96,-231.06 484.54,-226.53 474.23,-224.1 474.96,-231.06"/>
</a>
</g>
</g>
<!-- Node12 -->
<g id="Node000012" class="node">
<title>Node12</title>
<g id="a_Node000012"><a xlink:href="a00374.html#a8ba04b5d00e0c881d269a9429b3ed34b" target="_top" xlink:title=" ">
<polygon fill="white" stroke="#666666" points="630.25,-191 486,-191 486,-171 630.25,-171 630.25,-191"/>
<text text-anchor="middle" x="558.12" y="-177.5" font-family="Helvetica,sans-Serif" font-size="10.00">SMPS_Controller3P3ZUpdate</text>
</a>
</g>
</g>
<!-- Node4&#45;&gt;Node12 -->
<g id="edge11_Node000004_Node000012" class="edge">
<title>Node4&#45;&gt;Node12</title>
<g id="a_edge11_Node000004_Node000012"><a xlink:title=" ">
<path fill="none" stroke="#63b8ff" d="M421.41,-227.51C430.02,-225.05 438.87,-222.2 447,-219 463.84,-212.38 466.12,-206.51 483,-200 488.14,-198.02 493.55,-196.18 499.02,-194.49"/>
<polygon fill="#63b8ff" stroke="#63b8ff" points="499.92,-197.58 508.55,-191.43 497.97,-190.86 499.92,-197.58"/>
</a>
</g>
</g>
<!-- Node6 -->
<g id="Node000006" class="node">
<title>Node6</title>
<g id="a_Node000006"><a xlink:href="a00454.html#ga37968a783e44cd80643478d2b559dbf4" target="_top" xlink:title="This inline function sets the PWM generator specific duty cycle register.">
<polygon fill="white" stroke="#666666" points="802.62,-362 696.62,-362 696.62,-342 802.62,-342 802.62,-362"/>
<text text-anchor="middle" x="749.62" y="-348.5" font-family="Helvetica,sans-Serif" font-size="10.00">PWM_DutyCycleSet</text>
</a>
</g>
</g>
<!-- Node5&#45;&gt;Node6 -->
<g id="edge5_Node000005_Node000006" class="edge">
<title>Node5&#45;&gt;Node6</title>
<g id="a_edge5_Node000005_Node000006"><a xlink:title=" ">
<path fill="none" stroke="#63b8ff" d="M586.95,-305.44C609.07,-313.54 640.9,-324.74 669.25,-333 676.37,-335.08 683.9,-337.1 691.36,-339"/>
<polygon fill="#63b8ff" stroke="#63b8ff" points="690.29,-342.59 700.84,-341.6 691.98,-335.79 690.29,-342.59"/>
</a>
</g>
</g>
<!-- Node7 -->
<g id="Node000007" class="node">
<title>Node7</title>
<g id="a_Node000007"><a xlink:href="a00454.html#ga83e780358618114f0d424ca7467cf751" target="_top" xlink:title="This inline function requests to update the data registers for specific PWM generator selected by the...">
<polygon fill="white" stroke="#666666" points="824.75,-324 674.5,-324 674.5,-304 824.75,-304 824.75,-324"/>
<text text-anchor="middle" x="749.62" y="-310.5" font-family="Helvetica,sans-Serif" font-size="10.00">PWM_SoftwareUpdateRequest</text>
</a>
</g>
</g>
<!-- Node5&#45;&gt;Node7 -->
<g id="edge6_Node000005_Node000007" class="edge">
<title>Node5&#45;&gt;Node7</title>
<g id="a_edge6_Node000005_Node000007"><a xlink:title=" ">
<path fill="none" stroke="#63b8ff" d="M615.21,-300.62C630.34,-302.14 647.06,-303.82 663.4,-305.45"/>
<polygon fill="#63b8ff" stroke="#63b8ff" points="662.76,-309.01 673.06,-306.52 663.46,-302.04 662.76,-309.01"/>
</a>
</g>
</g>
<!-- Node8 -->
<g id="Node000008" class="node">
<title>Node8</title>
<g id="a_Node000008"><a xlink:href="a00454.html#ga3453a907bf8e14bb9bb434ddd0e82500" target="_top" xlink:title="This inline function sets the Trigger B compare value in count for a specific PWM generator selected ...">
<polygon fill="white" stroke="#666666" points="830,-286 669.25,-286 669.25,-266 830,-266 830,-286"/>
<text text-anchor="middle" x="749.62" y="-272.5" font-family="Helvetica,sans-Serif" font-size="10.00">PWM_TriggerBCompareValueSet</text>
</a>
</g>
</g>
<!-- Node5&#45;&gt;Node8 -->
<g id="edge7_Node000005_Node000008" class="edge">
<title>Node5&#45;&gt;Node8</title>
<g id="a_edge7_Node000005_Node000008"><a xlink:title=" ">
<path fill="none" stroke="#63b8ff" d="M615.21,-289.38C628.74,-288.02 643.53,-286.54 658.19,-285.07"/>
<polygon fill="#63b8ff" stroke="#63b8ff" points="658.21,-288.48 667.81,-284 657.51,-281.52 658.21,-288.48"/>
</a>
</g>
</g>
<!-- Node9 -->
<g id="Node000009" class="node">
<title>Node9</title>
<g id="a_Node000009"><a xlink:href="a00454.html#gacc5575148a6e8da6577d9be9e20541ce" target="_top" xlink:title="This inline function sets the Trigger C compare value in count for a specific PWM generator selected ...">
<polygon fill="white" stroke="#666666" points="830,-248 669.25,-248 669.25,-228 830,-228 830,-248"/>
<text text-anchor="middle" x="749.62" y="-234.5" font-family="Helvetica,sans-Serif" font-size="10.00">PWM_TriggerCCompareValueSet</text>
</a>
</g>
</g>
<!-- Node5&#45;&gt;Node9 -->
<g id="edge8_Node000005_Node000009" class="edge">
<title>Node5&#45;&gt;Node9</title>
<g id="a_edge8_Node000005_Node000009"><a xlink:title=" ">
<path fill="none" stroke="#63b8ff" d="M606.7,-284.57C615.64,-282.12 624.82,-279.25 633.25,-276 650.13,-269.49 652.32,-263.38 669.25,-257 674.72,-254.94 680.49,-253.05 686.32,-251.33"/>
<polygon fill="#63b8ff" stroke="#63b8ff" points="687.12,-254.46 695.82,-248.41 685.25,-247.72 687.12,-254.46"/>
</a>
</g>
</g>
<!-- Node14 -->
<g id="Node000014" class="node">
<title>Node14</title>
<g id="a_Node000014"><a xlink:href="a00444.html#ga1a12d5b7c5b1f234c50ea2214e91fcfc" target="_top" xlink:title="This function compares the fault source value with the threshold limits and sets (or) resets the faul...">
<polygon fill="white" stroke="#666666" points="424.5,-210 326.75,-210 326.75,-190 424.5,-190 424.5,-210"/>
<text text-anchor="middle" x="375.62" y="-196.5" font-family="Helvetica,sans-Serif" font-size="10.00">FAULT_CheckMax</text>
</a>
</g>
</g>
<!-- Node13&#45;&gt;Node14 -->
<g id="edge13_Node000013_Node000014" class="edge">
<title>Node13&#45;&gt;Node14</title>
<g id="a_edge13_Node000013_Node000014"><a xlink:title=" ">
<path fill="none" stroke="#63b8ff" d="M228.05,-157.43C240.93,-160.47 255.28,-164.11 268.25,-168 284.54,-172.89 288.02,-175.89 304.25,-181 310.28,-182.9 316.64,-184.78 322.97,-186.58"/>
<polygon fill="#63b8ff" stroke="#63b8ff" points="321.95,-190.21 332.52,-189.52 323.83,-183.47 321.95,-190.21"/>
</a>
</g>
</g>
<!-- Node15 -->
<g id="Node000015" class="node">
<title>Node15</title>
<g id="a_Node000015"><a xlink:href="a00444.html#gabe4788eb1b8be3ad755eb7daf6bba295" target="_top" xlink:title="This function compares the fault source value with the threshold limits and sets (or) resets the faul...">
<polygon fill="white" stroke="#666666" points="423,-172 328.25,-172 328.25,-152 423,-152 423,-172"/>
<text text-anchor="middle" x="375.62" y="-158.5" font-family="Helvetica,sans-Serif" font-size="10.00">FAULT_CheckMin</text>
</a>
</g>
</g>
<!-- Node13&#45;&gt;Node15 -->
<g id="edge14_Node000013_Node000015" class="edge">
<title>Node13&#45;&gt;Node15</title>
<g id="a_edge14_Node000013_Node000015"><a xlink:title=" ">
<path fill="none" stroke="#63b8ff" d="M228.11,-151.73C253.91,-153.53 288.21,-155.94 317.14,-157.97"/>
<polygon fill="#63b8ff" stroke="#63b8ff" points="316.72,-161.52 326.94,-158.73 317.21,-154.53 316.72,-161.52"/>
</a>
</g>
</g>
<!-- Node16 -->
<g id="Node000016" class="node">
<title>Node16</title>
<g id="a_Node000016"><a xlink:href="a00311.html#a525a7d54ffe10a34fc0de37c1d43aa6a" target="_top" xlink:title=" ">
<polygon fill="white" stroke="#666666" points="417,-134 334.25,-134 334.25,-114 417,-114 417,-134"/>
<text text-anchor="middle" x="375.62" y="-120.5" font-family="Helvetica,sans-Serif" font-size="10.00">Fault_GetFlags</text>
</a>
</g>
</g>
<!-- Node13&#45;&gt;Node16 -->
<g id="edge15_Node000013_Node000016" class="edge">
<title>Node13&#45;&gt;Node16</title>
<g id="a_edge15_Node000013_Node000016"><a xlink:title=" ">
<path fill="none" stroke="#63b8ff" d="M228.11,-143.76C255.72,-140.04 293.08,-135 323.17,-130.94"/>
<polygon fill="#63b8ff" stroke="#63b8ff" points="323.45,-134.3 332.89,-129.49 322.51,-127.36 323.45,-134.3"/>
</a>
</g>
</g>
<!-- Node17 -->
<g id="Node000017" class="node">
<title>Node17</title>
<g id="a_Node000017"><a xlink:href="a00443.html#gaf27f2f24932cec222273df148f8765cb" target="_top" xlink:title="Handles the fault trip by turning off the power control switching.">
<polygon fill="white" stroke="#666666" points="413.62,-96 337.62,-96 337.62,-76 413.62,-76 413.62,-96"/>
<text text-anchor="middle" x="375.62" y="-82.5" font-family="Helvetica,sans-Serif" font-size="10.00">Fault_Handler</text>
</a>
</g>
</g>
<!-- Node13&#45;&gt;Node17 -->
<g id="edge16_Node000013_Node000017" class="edge">
<title>Node13&#45;&gt;Node17</title>
<g id="a_edge16_Node000013_Node000017"><a xlink:title=" ">
<path fill="none" stroke="#63b8ff" d="M227.97,-142.68C241.1,-139.77 255.64,-135.66 268.25,-130 286.02,-122.03 286.59,-113.21 304.25,-105 311.35,-101.7 319.13,-98.88 326.84,-96.51"/>
<polygon fill="#63b8ff" stroke="#63b8ff" points="327.6,-99.65 336.26,-93.55 325.68,-92.92 327.6,-99.65"/>
</a>
</g>
</g>
<!-- Node18 -->
<g id="Node000018" class="node">
<title>Node18</title>
<g id="a_Node000018"><a xlink:href="a00436.html#gae13a0db6addfe827e4c48e0f2250e3f2" target="_top" xlink:title="Disable the PWM output.">
<polygon fill="white" stroke="#666666" points="633.25,-96 483,-96 483,-76 633.25,-76 633.25,-96"/>
<text text-anchor="middle" x="558.12" y="-82.5" font-family="Helvetica,sans-Serif" font-size="10.00">PwrCtrl_PWM_Stop_Switching</text>
</a>
</g>
</g>
<!-- Node17&#45;&gt;Node18 -->
<g id="edge17_Node000017_Node000018" class="edge">
<title>Node17&#45;&gt;Node18</title>
<g id="a_edge17_Node000017_Node000018"><a xlink:title=" ">
<path fill="none" stroke="#63b8ff" d="M414.02,-86C430.83,-86 451.41,-86 471.67,-86"/>
<polygon fill="#63b8ff" stroke="#63b8ff" points="471.54,-89.5 481.54,-86 471.54,-82.5 471.54,-89.5"/>
</a>
</g>
</g>
<!-- Node21 -->
<g id="Node000021" class="node">
<title>Node21</title>
<g id="a_Node000021"><a xlink:href="a00448.html#gaf4b6f81a05012533b633a78dad7b6a98" target="_top" xlink:title="Returns the conversion value for the channel selected.">
<polygon fill="white" stroke="#666666" points="444.38,-58 306.88,-58 306.88,-38 444.38,-38 444.38,-58"/>
<text text-anchor="middle" x="375.62" y="-44.5" font-family="Helvetica,sans-Serif" font-size="10.00">ADC1_ConversionResultGet</text>
</a>
</g>
</g>
<!-- Node20&#45;&gt;Node21 -->
<g id="edge20_Node000020_Node000021" class="edge">
<title>Node20&#45;&gt;Node21</title>
<g id="a_edge20_Node000020_Node000021"><a xlink:title=" ">
<path fill="none" stroke="#63b8ff" d="M267.6,-48C276.9,-48 286.4,-48 295.71,-48"/>
<polygon fill="#63b8ff" stroke="#63b8ff" points="295.54,-51.5 305.54,-48 295.54,-44.5 295.54,-51.5"/>
</a>
</g>
</g>
<!-- Node22 -->
<g id="Node000022" class="node">
<title>Node22</title>
<g id="a_Node000022"><a xlink:href="a00448.html#ga0a80bc862861bd96a1034b39589adf9f" target="_top" xlink:title="This inline function returns the status of conversion.This function is used to determine if conversio...">
<polygon fill="white" stroke="#666666" points="447,-20 304.25,-20 304.25,0 447,0 447,-20"/>
<text text-anchor="middle" x="375.62" y="-6.5" font-family="Helvetica,sans-Serif" font-size="10.00">ADC1_IsConversionComplete</text>
</a>
</g>
</g>
<!-- Node20&#45;&gt;Node22 -->
<g id="edge21_Node000020_Node000022" class="edge">
<title>Node20&#45;&gt;Node22</title>
<g id="a_edge21_Node000020_Node000022"><a xlink:title=" ">
<path fill="none" stroke="#63b8ff" d="M240.4,-37.52C262.89,-32.91 289.49,-27.45 313.06,-22.62"/>
<polygon fill="#63b8ff" stroke="#63b8ff" points="313.55,-25.89 322.65,-20.45 312.15,-19.03 313.55,-25.89"/>
</a>
</g>
</g>
</g>
</svg>
