<?xml version="1.0" encoding="UTF-8" standalone="no"?>
<!DOCTYPE svg PUBLIC "-//W3C//DTD SVG 1.1//EN"
 "http://www.w3.org/Graphics/SVG/1.1/DTD/svg11.dtd">
<!-- Generated by graphviz version 8.1.0 (20230707.0739)
 -->
<!-- Title: PwrCtrl_StateMachine Pages: 1 -->
<svg width="680pt" height="412pt"
 viewBox="0.00 0.00 679.50 412.00" xmlns="http://www.w3.org/2000/svg" xmlns:xlink="http://www.w3.org/1999/xlink">
<g id="graph0" class="graph" transform="scale(1 1) rotate(0) translate(4 408)">
<title>PwrCtrl_StateMachine</title>
<!-- Node1 -->
<g id="Node000001" class="node">
<title>Node1</title>
<g id="a_Node000001"><a xlink:title="Manages the power control state machine.">
<polygon fill="#999999" stroke="#666666" points="112.75,-139 0,-139 0,-119 112.75,-119 112.75,-139"/>
<text text-anchor="middle" x="56.38" y="-125.5" font-family="Helvetica,sans-Serif" font-size="10.00">PwrCtrl_StateMachine</text>
</a>
</g>
</g>
<!-- Node2 -->
<g id="Node000002" class="node">
<title>Node2</title>
<g id="a_Node000002"><a xlink:href="a00437.html#ga8307344d190a5459682d315fc7bfe198" target="_top" xlink:title="Executes function for initialze state machine.">
<polygon fill="white" stroke="#666666" points="266,-297 171.25,-297 171.25,-277 266,-277 266,-297"/>
<text text-anchor="middle" x="218.62" y="-283.5" font-family="Helvetica,sans-Serif" font-size="10.00">PCS_INIT_handler</text>
</a>
</g>
</g>
<!-- Node1&#45;&gt;Node2 -->
<g id="edge1_Node000001_Node000002" class="edge">
<title>Node1&#45;&gt;Node2</title>
<g id="a_edge1_Node000001_Node000002"><a xlink:title=" ">
<path fill="none" stroke="#63b8ff" d="M67.89,-139.37C94.72,-165.82 165.98,-236.08 199.6,-269.22"/>
<polygon fill="#63b8ff" stroke="#63b8ff" points="196.7,-271.27 206.28,-275.8 201.62,-266.29 196.7,-271.27"/>
</a>
</g>
</g>
<!-- Node9 -->
<g id="Node000009" class="node">
<title>Node9</title>
<g id="a_Node000009"><a xlink:href="a00437.html#ga175dce657b908bab1509d14d90b547de" target="_top" xlink:title="Executes Standby State machine.">
<polygon fill="white" stroke="#666666" points="288.5,-196 148.75,-196 148.75,-176 288.5,-176 288.5,-196"/>
<text text-anchor="middle" x="218.62" y="-182.5" font-family="Helvetica,sans-Serif" font-size="10.00">PCS_PRECHARGE_handler</text>
</a>
</g>
</g>
<!-- Node1&#45;&gt;Node9 -->
<g id="edge8_Node000001_Node000009" class="edge">
<title>Node1&#45;&gt;Node9</title>
<g id="a_edge8_Node000001_Node000009"><a xlink:title=" ">
<path fill="none" stroke="#63b8ff" d="M80.35,-139.49C98.65,-147.62 125.03,-158.83 148.75,-167 154.32,-168.92 160.2,-170.78 166.07,-172.54"/>
<polygon fill="#63b8ff" stroke="#63b8ff" points="165,-176.16 175.58,-175.58 166.95,-169.44 165,-176.16"/>
</a>
</g>
</g>
<!-- Node15 -->
<g id="Node000015" class="node">
<title>Node15</title>
<g id="a_Node000015"><a xlink:href="a00437.html#gabda6b853bb6547821acd0ec87e0a4842" target="_top" xlink:title="Executes the power control soft start state machine.">
<polygon fill="white" stroke="#666666" points="288.5,-158 148.75,-158 148.75,-138 288.5,-138 288.5,-158"/>
<text text-anchor="middle" x="218.62" y="-144.5" font-family="Helvetica,sans-Serif" font-size="10.00">PCS_SOFT_START_handler</text>
</a>
</g>
</g>
<!-- Node1&#45;&gt;Node15 -->
<g id="edge16_Node000001_Node000015" class="edge">
<title>Node1&#45;&gt;Node15</title>
<g id="a_edge16_Node000001_Node000015"><a xlink:title=" ">
<path fill="none" stroke="#63b8ff" d="M112.97,-135.59C120.89,-136.53 129.17,-137.51 137.44,-138.49"/>
<polygon fill="#63b8ff" stroke="#63b8ff" points="136.95,-142.08 147.29,-139.78 137.77,-135.13 136.95,-142.08"/>
</a>
</g>
</g>
<!-- Node17 -->
<g id="Node000017" class="node">
<title>Node17</title>
<g id="a_Node000017"><a xlink:href="a00437.html#ga42f7c8f65745b2f81bb6dbd381ea8121" target="_top" xlink:title="Executes Standby State machine.">
<polygon fill="white" stroke="#666666" points="280.62,-120 156.62,-120 156.62,-100 280.62,-100 280.62,-120"/>
<text text-anchor="middle" x="218.62" y="-106.5" font-family="Helvetica,sans-Serif" font-size="10.00">PCS_STANDBY_handler</text>
</a>
</g>
</g>
<!-- Node1&#45;&gt;Node17 -->
<g id="edge19_Node000001_Node000017" class="edge">
<title>Node1&#45;&gt;Node17</title>
<g id="a_edge19_Node000001_Node000017"><a xlink:title=" ">
<path fill="none" stroke="#63b8ff" d="M112.97,-122.41C123.48,-121.16 134.61,-119.84 145.54,-118.55"/>
<polygon fill="#63b8ff" stroke="#63b8ff" points="145.86,-121.92 155.38,-117.26 145.03,-114.96 145.86,-121.92"/>
</a>
</g>
</g>
<!-- Node18 -->
<g id="Node000018" class="node">
<title>Node18</title>
<g id="a_Node000018"><a xlink:href="a00437.html#ga8752fbb48416e60141e205f1cbda0f98" target="_top" xlink:title="Executes the Online state.">
<polygon fill="white" stroke="#666666" points="283.25,-82 154,-82 154,-50 283.25,-50 283.25,-82"/>
<text text-anchor="start" x="162" y="-68.5" font-family="Helvetica,sans-Serif" font-size="10.00">PCS_UP_AND_RUNNING</text>
<text text-anchor="middle" x="218.62" y="-56.5" font-family="Helvetica,sans-Serif" font-size="10.00">_handler</text>
</a>
</g>
</g>
<!-- Node1&#45;&gt;Node18 -->
<g id="edge20_Node000001_Node000018" class="edge">
<title>Node1&#45;&gt;Node18</title>
<g id="a_edge20_Node000001_Node000018"><a xlink:title=" ">
<path fill="none" stroke="#63b8ff" d="M81.69,-118.53C100.03,-110.72 125.85,-99.91 148.75,-91 152.88,-89.39 157.17,-87.76 161.49,-86.13"/>
<polygon fill="#63b8ff" stroke="#63b8ff" points="162.42,-89.15 170.58,-82.38 159.98,-82.59 162.42,-89.15"/>
</a>
</g>
</g>
<!-- Node20 -->
<g id="Node000020" class="node">
<title>Node20</title>
<g id="a_Node000020"><a xlink:href="a00437.html#gaad6ef2378120876a621b349c1380aef7" target="_top" xlink:title="Executes the fault handler state machine.">
<polygon fill="white" stroke="#666666" points="275.75,-32 161.5,-32 161.5,0 275.75,0 275.75,-32"/>
<text text-anchor="start" x="169.5" y="-18.5" font-family="Helvetica,sans-Serif" font-size="10.00">PCS_WAIT_IF_FAULT</text>
<text text-anchor="middle" x="218.62" y="-6.5" font-family="Helvetica,sans-Serif" font-size="10.00">_ACTIVE_handler</text>
</a>
</g>
</g>
<!-- Node1&#45;&gt;Node20 -->
<g id="edge23_Node000001_Node000020" class="edge">
<title>Node1&#45;&gt;Node20</title>
<g id="a_edge23_Node000001_Node000020"><a xlink:title=" ">
<path fill="none" stroke="#63b8ff" d="M65.62,-118.6C80.45,-100.49 113.42,-63.02 148.75,-41 150.81,-39.72 152.95,-38.48 155.14,-37.3"/>
<polygon fill="#63b8ff" stroke="#63b8ff" points="156.57,-40.01 164.01,-32.46 153.49,-33.72 156.57,-40.01"/>
</a>
</g>
</g>
<!-- Node3 -->
<g id="Node000003" class="node">
<title>Node3</title>
<g id="a_Node000003"><a xlink:href="a00443.html#ga8ed0fee0d3aff71d49470aab1728a6ae" target="_top" xlink:title="Clears the fault object flag bits.">
<polygon fill="white" stroke="#666666" points="433.88,-278 365.38,-278 365.38,-258 433.88,-258 433.88,-278"/>
<text text-anchor="middle" x="399.62" y="-264.5" font-family="Helvetica,sans-Serif" font-size="10.00">Fault_Reset</text>
</a>
</g>
</g>
<!-- Node2&#45;&gt;Node3 -->
<g id="edge2_Node000002_Node000003" class="edge">
<title>Node2&#45;&gt;Node3</title>
<g id="a_edge2_Node000002_Node000003"><a xlink:title=" ">
<path fill="none" stroke="#63b8ff" d="M266.19,-282.06C293.41,-279.17 327.58,-275.54 354.39,-272.7"/>
<polygon fill="#63b8ff" stroke="#63b8ff" points="354.44,-276.1 364.01,-271.57 353.7,-269.14 354.44,-276.1"/>
</a>
</g>
</g>
<!-- Node4 -->
<g id="Node000004" class="node">
<title>Node4</title>
<g id="a_Node000004"><a xlink:href="a00439.html#ga6450795c316e2284ae94eb16f0da1fe8" target="_top" xlink:title="API function to get the raw ADC value for primary current transformer current.">
<polygon fill="white" stroke="#666666" points="458.25,-404 341,-404 341,-384 458.25,-384 458.25,-404"/>
<text text-anchor="middle" x="399.62" y="-390.5" font-family="Helvetica,sans-Serif" font-size="10.00">PwrCtrl_GetAdc_Ipri_ct</text>
</a>
</g>
</g>
<!-- Node2&#45;&gt;Node4 -->
<g id="edge3_Node000002_Node000004" class="edge">
<title>Node2&#45;&gt;Node4</title>
<g id="a_edge3_Node000002_Node000004"><a xlink:title=" ">
<path fill="none" stroke="#63b8ff" d="M228.93,-297.42C246.02,-315.89 284.33,-354.37 324.5,-375 328.02,-376.81 331.72,-378.45 335.51,-379.94"/>
<polygon fill="#63b8ff" stroke="#63b8ff" points="334.11,-383.51 344.71,-383.55 336.45,-376.92 334.11,-383.51"/>
</a>
</g>
</g>
<!-- Node5 -->
<g id="Node000005" class="node">
<title>Node5</title>
<g id="a_Node000005"><a xlink:href="a00439.html#ga73e4778085abb276456fb9611ae26feb" target="_top" xlink:title="API function to get the raw ADC value for secondary current transformer current.">
<polygon fill="white" stroke="#666666" points="454.12,-366 345.12,-366 345.12,-334 454.12,-334 454.12,-366"/>
<text text-anchor="start" x="353.12" y="-352.5" font-family="Helvetica,sans-Serif" font-size="10.00">PwrCtrl_GetAdc_Isec</text>
<text text-anchor="middle" x="399.62" y="-340.5" font-family="Helvetica,sans-Serif" font-size="10.00">_shunt</text>
</a>
</g>
</g>
<!-- Node2&#45;&gt;Node5 -->
<g id="edge4_Node000002_Node000005" class="edge">
<title>Node2&#45;&gt;Node5</title>
<g id="a_edge4_Node000002_Node000005"><a xlink:title=" ">
<path fill="none" stroke="#63b8ff" d="M248.05,-297.49C269.11,-305.22 298.54,-315.92 324.5,-325 329.3,-326.68 334.27,-328.4 339.27,-330.11"/>
<polygon fill="#63b8ff" stroke="#63b8ff" points="337.93,-333.7 348.53,-333.61 340.2,-327.07 337.93,-333.7"/>
</a>
</g>
</g>
<!-- Node6 -->
<g id="Node000006" class="node">
<title>Node6</title>
<g id="a_Node000006"><a xlink:href="a00434.html#ga8c07187b0c96b5916e4b46daa47500c5" target="_top" xlink:title="Resets the power control properties.">
<polygon fill="white" stroke="#666666" points="438.75,-240 360.5,-240 360.5,-220 438.75,-220 438.75,-240"/>
<text text-anchor="middle" x="399.62" y="-226.5" font-family="Helvetica,sans-Serif" font-size="10.00">PwrCtrl_Reset</text>
</a>
</g>
</g>
<!-- Node2&#45;&gt;Node6 -->
<g id="edge5_Node000002_Node000006" class="edge">
<title>Node2&#45;&gt;Node6</title>
<g id="a_edge5_Node000002_Node000006"><a xlink:title=" ">
<path fill="none" stroke="#63b8ff" d="M246.11,-276.6C267.17,-268.52 297.48,-257.34 324.5,-249 332.62,-246.49 341.32,-244.05 349.79,-241.8"/>
<polygon fill="#63b8ff" stroke="#63b8ff" points="350.54,-244.96 359.34,-239.06 348.78,-238.19 350.54,-244.96"/>
</a>
</g>
</g>
<!-- Node8 -->
<g id="Node000008" class="node">
<title>Node8</title>
<g id="a_Node000008"><a xlink:href="a00440.html#gad68ead20ade98451df7ea1e4e923cbaa" target="_top" xlink:title="Average the raw data over number of samples.">
<polygon fill="white" stroke="#666666" points="458.62,-316 340.62,-316 340.62,-296 458.62,-296 458.62,-316"/>
<text text-anchor="middle" x="399.62" y="-302.5" font-family="Helvetica,sans-Serif" font-size="10.00">PwrCtrl_UpdateAverage</text>
</a>
</g>
</g>
<!-- Node2&#45;&gt;Node8 -->
<g id="edge7_Node000002_Node000008" class="edge">
<title>Node2&#45;&gt;Node8</title>
<g id="a_edge7_Node000002_Node000008"><a xlink:title=" ">
<path fill="none" stroke="#63b8ff" d="M266.19,-291.94C285.51,-293.99 308.32,-296.41 329.52,-298.67"/>
<polygon fill="#63b8ff" stroke="#63b8ff" points="329.12,-302.25 339.44,-299.82 329.86,-295.29 329.12,-302.25"/>
</a>
</g>
</g>
<!-- Node7 -->
<g id="Node000007" class="node">
<title>Node7</title>
<g id="a_Node000007"><a xlink:href="a00438.html#gae5d978249e235e284da922df5ec4363a" target="_top" xlink:title="Clear the control and error histories of the control loops.">
<polygon fill="white" stroke="#666666" points="656.12,-265 526.12,-265 526.12,-233 656.12,-233 656.12,-265"/>
<text text-anchor="start" x="534.12" y="-251.5" font-family="Helvetica,sans-Serif" font-size="10.00">PwrCtrl_ResetControlLoop</text>
<text text-anchor="middle" x="591.12" y="-239.5" font-family="Helvetica,sans-Serif" font-size="10.00">Histories</text>
</a>
</g>
</g>
<!-- Node6&#45;&gt;Node7 -->
<g id="edge6_Node000006_Node000007" class="edge">
<title>Node6&#45;&gt;Node7</title>
<g id="a_edge6_Node000006_Node000007"><a xlink:title=" ">
<path fill="none" stroke="#63b8ff" d="M438.97,-233.84C460.84,-236.04 489,-238.86 515.07,-241.48"/>
<polygon fill="#63b8ff" stroke="#63b8ff" points="514.41,-245.03 524.71,-242.54 515.11,-238.06 514.41,-245.03"/>
</a>
</g>
</g>
<!-- Node9&#45;&gt;Node3 -->
<g id="edge9_Node000009_Node000003" class="edge">
<title>Node9&#45;&gt;Node3</title>
<g id="a_edge9_Node000009_Node000003"><a xlink:title=" ">
<path fill="none" stroke="#63b8ff" d="M233.84,-196.39C253.37,-210.21 290.01,-234.58 324.5,-249 333.95,-252.95 344.43,-256.25 354.47,-258.92"/>
<polygon fill="#63b8ff" stroke="#63b8ff" points="353.56,-262.55 364.11,-261.58 355.26,-255.76 353.56,-262.55"/>
</a>
</g>
</g>
<!-- Node9&#45;&gt;Node6 -->
<g id="edge15_Node000009_Node000006" class="edge">
<title>Node9&#45;&gt;Node6</title>
<g id="a_edge15_Node000009_Node000006"><a xlink:title=" ">
<path fill="none" stroke="#63b8ff" d="M262.05,-196.43C288.33,-202.89 322.19,-211.21 349.62,-217.95"/>
<polygon fill="#63b8ff" stroke="#63b8ff" points="348.62,-221.56 359.17,-220.55 350.29,-214.76 348.62,-221.56"/>
</a>
</g>
</g>
<!-- Node10 -->
<g id="Node000010" class="node">
<title>Node10</title>
<g id="a_Node000010"><a xlink:href="a00436.html#gadd5e4ddb9642de13028547e4a4316f0c" target="_top" xlink:title="set the PWM output to particular duty cycle.">
<polygon fill="white" stroke="#666666" points="471,-202 328.25,-202 328.25,-170 471,-170 471,-202"/>
<text text-anchor="start" x="336.25" y="-188.5" font-family="Helvetica,sans-Serif" font-size="10.00">PwrCtrl_PWM_SetDutyCycle</text>
<text text-anchor="middle" x="399.62" y="-176.5" font-family="Helvetica,sans-Serif" font-size="10.00">Primary</text>
</a>
</g>
</g>
<!-- Node9&#45;&gt;Node10 -->
<g id="edge10_Node000009_Node000010" class="edge">
<title>Node9&#45;&gt;Node10</title>
<g id="a_edge10_Node000009_Node000010"><a xlink:title=" ">
<path fill="none" stroke="#63b8ff" d="M288.83,-186C298.02,-186 307.52,-186 316.9,-186"/>
<polygon fill="#63b8ff" stroke="#63b8ff" points="316.83,-189.5 326.83,-186 316.83,-182.5 316.83,-189.5"/>
</a>
</g>
</g>
<!-- Node14 -->
<g id="Node000014" class="node">
<title>Node14</title>
<g id="a_Node000014"><a xlink:href="a00436.html#gae13a0db6addfe827e4c48e0f2250e3f2" target="_top" xlink:title="Disable the PWM output.">
<polygon fill="white" stroke="#666666" points="474.75,-152 324.5,-152 324.5,-132 474.75,-132 474.75,-152"/>
<text text-anchor="middle" x="399.62" y="-138.5" font-family="Helvetica,sans-Serif" font-size="10.00">PwrCtrl_PWM_Stop_Switching</text>
</a>
</g>
</g>
<!-- Node9&#45;&gt;Node14 -->
<g id="edge14_Node000009_Node000014" class="edge">
<title>Node9&#45;&gt;Node14</title>
<g id="a_edge14_Node000009_Node000014"><a xlink:title=" ">
<path fill="none" stroke="#63b8ff" d="M262.05,-175.57C287.14,-169.4 319.15,-161.54 345.87,-154.97"/>
<polygon fill="#63b8ff" stroke="#63b8ff" points="346.32,-158.21 355.2,-152.43 344.65,-151.42 346.32,-158.21"/>
</a>
</g>
</g>
<!-- Node11 -->
<g id="Node000011" class="node">
<title>Node11</title>
<g id="a_Node000011"><a xlink:href="a00454.html#ga83e780358618114f0d424ca7467cf751" target="_top" xlink:title="This inline function requests to update the data registers for specific PWM generator selected by the...">
<polygon fill="white" stroke="#666666" points="666.25,-215 516,-215 516,-195 666.25,-195 666.25,-215"/>
<text text-anchor="middle" x="591.12" y="-201.5" font-family="Helvetica,sans-Serif" font-size="10.00">PWM_SoftwareUpdateRequest</text>
</a>
</g>
</g>
<!-- Node10&#45;&gt;Node11 -->
<g id="edge11_Node000010_Node000011" class="edge">
<title>Node10&#45;&gt;Node11</title>
<g id="a_edge11_Node000010_Node000011"><a xlink:title=" ">
<path fill="none" stroke="#63b8ff" d="M471.46,-193.1C482.37,-194.2 493.74,-195.34 504.93,-196.46"/>
<polygon fill="#63b8ff" stroke="#63b8ff" points="504.28,-200.01 514.58,-197.53 504.98,-193.05 504.28,-200.01"/>
</a>
</g>
</g>
<!-- Node12 -->
<g id="Node000012" class="node">
<title>Node12</title>
<g id="a_Node000012"><a xlink:href="a00454.html#ga3453a907bf8e14bb9bb434ddd0e82500" target="_top" xlink:title="This inline function sets the Trigger B compare value in count for a specific PWM generator selected ...">
<polygon fill="white" stroke="#666666" points="671.5,-177 510.75,-177 510.75,-157 671.5,-157 671.5,-177"/>
<text text-anchor="middle" x="591.12" y="-163.5" font-family="Helvetica,sans-Serif" font-size="10.00">PWM_TriggerBCompareValueSet</text>
</a>
</g>
</g>
<!-- Node10&#45;&gt;Node12 -->
<g id="edge12_Node000010_Node000012" class="edge">
<title>Node10&#45;&gt;Node12</title>
<g id="a_edge12_Node000010_Node000012"><a xlink:title=" ">
<path fill="none" stroke="#63b8ff" d="M471.46,-178.9C480.7,-177.97 490.27,-177.01 499.77,-176.06"/>
<polygon fill="#63b8ff" stroke="#63b8ff" points="499.86,-179.47 509.46,-174.99 499.16,-172.5 499.86,-179.47"/>
</a>
</g>
</g>
<!-- Node13 -->
<g id="Node000013" class="node">
<title>Node13</title>
<g id="a_Node000013"><a xlink:href="a00454.html#gacc5575148a6e8da6577d9be9e20541ce" target="_top" xlink:title="This inline function sets the Trigger C compare value in count for a specific PWM generator selected ...">
<polygon fill="white" stroke="#666666" points="671.5,-139 510.75,-139 510.75,-119 671.5,-119 671.5,-139"/>
<text text-anchor="middle" x="591.12" y="-125.5" font-family="Helvetica,sans-Serif" font-size="10.00">PWM_TriggerCCompareValueSet</text>
</a>
</g>
</g>
<!-- Node10&#45;&gt;Node13 -->
<g id="edge13_Node000010_Node000013" class="edge">
<title>Node10&#45;&gt;Node13</title>
<g id="a_edge13_Node000010_Node000013"><a xlink:title=" ">
<path fill="none" stroke="#63b8ff" d="M449.72,-169.61C458.08,-166.77 466.67,-163.82 474.75,-161 490.81,-155.39 494.45,-152.88 510.75,-148 517.59,-145.95 524.81,-143.98 532,-142.12"/>
<polygon fill="#63b8ff" stroke="#63b8ff" points="532.62,-145.32 541.47,-139.49 530.91,-138.53 532.62,-145.32"/>
</a>
</g>
</g>
<!-- Node15&#45;&gt;Node14 -->
<g id="edge17_Node000015_Node000014" class="edge">
<title>Node15&#45;&gt;Node14</title>
<g id="a_edge17_Node000015_Node000014"><a xlink:title=" ">
<path fill="none" stroke="#63b8ff" d="M288.83,-145.68C296.9,-145.41 305.21,-145.13 313.46,-144.85"/>
<polygon fill="#63b8ff" stroke="#63b8ff" points="313.38,-148.33 323.26,-144.49 313.15,-141.33 313.38,-148.33"/>
</a>
</g>
</g>
<!-- Node16 -->
<g id="Node000016" class="node">
<title>Node16</title>
<g id="a_Node000016"><a xlink:href="a00440.html#ga59bb2fab32dc783d76f800283b4c7e2b" target="_top" xlink:title="Softly increment / decrement to the set reference target.">
<polygon fill="white" stroke="#666666" points="460.5,-114 338.75,-114 338.75,-94 460.5,-94 460.5,-114"/>
<text text-anchor="middle" x="399.62" y="-100.5" font-family="Helvetica,sans-Serif" font-size="10.00">PwrCtrl_RampReference</text>
</a>
</g>
</g>
<!-- Node15&#45;&gt;Node16 -->
<g id="edge18_Node000015_Node000016" class="edge">
<title>Node15&#45;&gt;Node16</title>
<g id="a_edge18_Node000015_Node000016"><a xlink:title=" ">
<path fill="none" stroke="#63b8ff" d="M262.05,-137.57C287.14,-131.4 319.15,-123.54 345.87,-116.97"/>
<polygon fill="#63b8ff" stroke="#63b8ff" points="346.32,-120.21 355.2,-114.43 344.65,-113.42 346.32,-120.21"/>
</a>
</g>
</g>
<!-- Node18&#45;&gt;Node14 -->
<g id="edge22_Node000018_Node000014" class="edge">
<title>Node18&#45;&gt;Node14</title>
<g id="a_edge22_Node000018_Node000014"><a xlink:title=" ">
<path fill="none" stroke="#63b8ff" d="M271.39,-82.34C277.32,-84.92 283.15,-87.81 288.5,-91 306.89,-101.96 305.6,-112.95 324.5,-123 327.83,-124.77 331.33,-126.38 334.92,-127.84"/>
<polygon fill="#63b8ff" stroke="#63b8ff" points="333.63,-131.46 344.23,-131.6 336.03,-124.89 333.63,-131.46"/>
</a>
</g>
</g>
<!-- Node19 -->
<g id="Node000019" class="node">
<title>Node19</title>
<g id="a_Node000019"><a xlink:href="a00435.html#gaec6f57d582c3eec519e92a391975b47d" target="_top" xlink:title="Averages secondary current for droop.">
<polygon fill="white" stroke="#666666" points="456,-76 343.25,-76 343.25,-56 456,-56 456,-76"/>
<text text-anchor="middle" x="399.62" y="-62.5" font-family="Helvetica,sans-Serif" font-size="10.00">PwrCtrl_DroopAverage</text>
</a>
</g>
</g>
<!-- Node18&#45;&gt;Node19 -->
<g id="edge21_Node000018_Node000019" class="edge">
<title>Node18&#45;&gt;Node19</title>
<g id="a_edge21_Node000018_Node000019"><a xlink:title=" ">
<path fill="none" stroke="#63b8ff" d="M283.74,-66C299.47,-66 316.34,-66 332.18,-66"/>
<polygon fill="#63b8ff" stroke="#63b8ff" points="331.96,-69.5 341.96,-66 331.96,-62.5 331.96,-69.5"/>
</a>
</g>
</g>
<!-- Node21 -->
<g id="Node000021" class="node">
<title>Node21</title>
<g id="a_Node000021"><a xlink:href="a00428.html#ga7a0c2b9310bac913f834943e1d21316e" target="_top" xlink:title=" ">
<polygon fill="white" stroke="#666666" points="451.5,-32 347.75,-32 347.75,0 451.5,0 451.5,-32"/>
<text text-anchor="start" x="355.75" y="-18.5" font-family="Helvetica,sans-Serif" font-size="10.00">dev_MeasureOffsets</text>
<text text-anchor="middle" x="399.62" y="-6.5" font-family="Helvetica,sans-Serif" font-size="10.00">_Initialize</text>
</a>
</g>
</g>
<!-- Node20&#45;&gt;Node21 -->
<g id="edge24_Node000020_Node000021" class="edge">
<title>Node20&#45;&gt;Node21</title>
<g id="a_edge24_Node000020_Node000021"><a xlink:title=" ">
<path fill="none" stroke="#63b8ff" d="M275.77,-16C295.15,-16 316.96,-16 336.77,-16"/>
<polygon fill="#63b8ff" stroke="#63b8ff" points="336.54,-19.5 346.54,-16 336.54,-12.5 336.54,-19.5"/>
</a>
</g>
</g>
</g>
</svg>
