<?xml version="1.0" encoding="UTF-8" standalone="no"?>
<!DOCTYPE svg PUBLIC "-//W3C//DTD SVG 1.1//EN"
 "http://www.w3.org/Graphics/SVG/1.1/DTD/svg11.dtd">
<!-- Generated by graphviz version 8.1.0 (20230707.0739)
 -->
<!-- Title: FAULT_CheckMin Pages: 1 -->
<svg width="326pt" height="28pt"
 viewBox="0.00 0.00 326.00 28.00" xmlns="http://www.w3.org/2000/svg" xmlns:xlink="http://www.w3.org/1999/xlink">
<g id="graph0" class="graph" transform="scale(1 1) rotate(0) translate(4 24)">
<title>FAULT_CheckMin</title>
<!-- Node1 -->
<g id="Node000001" class="node">
<title>Node1</title>
<g id="a_Node000001"><a xlink:title="This function compares the fault source value with the threshold limits and sets (or) resets the faul...">
<polygon fill="#999999" stroke="#666666" points="318,-20 223.25,-20 223.25,0 318,0 318,-20"/>
<text text-anchor="middle" x="270.62" y="-6.5" font-family="Helvetica,sans-Serif" font-size="10.00">FAULT_CheckMin</text>
</a>
</g>
</g>
<!-- Node2 -->
<g id="Node000002" class="node">
<title>Node2</title>
<g id="a_Node000002"><a xlink:href="a00443.html#gacd1ca209275dae0bc2388ac954858d83" target="_top" xlink:title="Executes the fault handlers.">
<polygon fill="white" stroke="#666666" points="187.25,-20 108.25,-20 108.25,0 187.25,0 187.25,-20"/>
<text text-anchor="middle" x="147.75" y="-6.5" font-family="Helvetica,sans-Serif" font-size="10.00">Fault_Execute</text>
</a>
</g>
</g>
<!-- Node1&#45;&gt;Node2 -->
<g id="edge1_Node000001_Node000002" class="edge">
<title>Node1&#45;&gt;Node2</title>
<g id="a_edge1_Node000001_Node000002"><a xlink:title=" ">
<path fill="none" stroke="#63b8ff" d="M212.06,-10C203.74,-10 195.35,-10 187.53,-10"/>
<polygon fill="#63b8ff" stroke="#63b8ff" points="211.89,-13.5 221.89,-10 211.89,-6.5 211.89,-13.5"/>
</a>
</g>
</g>
<!-- Node3 -->
<g id="Node000003" class="node">
<title>Node3</title>
<g id="a_Node000003"><a xlink:href="a00435.html#ga2068c3c2584547dbc1c8b9bca2d55b18" target="_top" xlink:title="Executes the power converter control loop.">
<polygon fill="white" stroke="#666666" points="72.25,-20 0,-20 0,0 72.25,0 72.25,-20"/>
<text text-anchor="middle" x="36.12" y="-6.5" font-family="Helvetica,sans-Serif" font-size="10.00">__attribute__</text>
</a>
</g>
</g>
<!-- Node2&#45;&gt;Node3 -->
<g id="edge2_Node000002_Node000003" class="edge">
<title>Node2&#45;&gt;Node3</title>
<g id="a_edge2_Node000002_Node000003"><a xlink:title=" ">
<path fill="none" stroke="#63b8ff" d="M96.83,-10C88.68,-10 80.38,-10 72.67,-10"/>
<polygon fill="#63b8ff" stroke="#63b8ff" points="96.79,-13.5 106.79,-10 96.79,-6.5 96.79,-13.5"/>
</a>
</g>
</g>
</g>
</svg>
