<?xml version="1.0" encoding="UTF-8" standalone="no"?>
<!DOCTYPE svg PUBLIC "-//W3C//DTD SVG 1.1//EN"
 "http://www.w3.org/Graphics/SVG/1.1/DTD/svg11.dtd">
<!-- Generated by graphviz version 8.1.0 (20230707.0739)
 -->
<!-- Title: App_PBV_psfb_Task_10ms Pages: 1 -->
<!--zoomable 520 -->

<svg id="main" version="1.1" xmlns="http://www.w3.org/2000/svg" xmlns:xlink="http://www.w3.org/1999/xlink" xml:space="preserve" onload="init(evt)">

<style type="text/css"><![CDATA[
.node, .edge {opacity: 0.7;}
.node.selected, .edge.selected {opacity: 1;}
.edge:hover path { stroke: red; }
.edge:hover polygon { stroke: red; fill: red; }
]]></style>

<defs>
  <circle id="rim" cx="0" cy="0" r="7"/>
  <circle id="rim2" cx="0" cy="0" r="3.5"/>
  <g id="zoomPlus">
    <use xlink:href="#rim" fill="#404040"><set attributeName="fill" to="#808080" begin="zoomplus.mouseover" end="zoomplus.mouseout"/></use>
    <path d="M-4,0h8M0,-4v8" fill="none" stroke="white" stroke-width="1.5" pointer-events="none"/>
  </g>
  <g id="zoomMin">
    <use xlink:href="#rim" fill="#404040"><set attributeName="fill" to="#808080" begin="zoomminus.mouseover" end="zoomminus.mouseout"/></use>
    <path d="M-4,0h8" fill="none" stroke="white" stroke-width="1.5" pointer-events="none"/>
  </g>
  <g id="arrowUp" transform="translate(30 24)">
    <use xlink:href="#rim"/>
    <path pointer-events="none" fill="none" stroke="white" stroke-width="1.5" d="M0,-3.0v7 M-2.5,-0.5L0,-3.0L2.5,-0.5"/>
  </g>
  <g id="arrowRight" transform="rotate(90) translate(36 -43)">
    <use xlink:href="#rim"/>
    <path pointer-events="none" fill="none" stroke="white" stroke-width="1.5" d="M0,-3.0v7 M-2.5,-0.5L0,-3.0L2.5,-0.5"/>
  </g>
  <g id="arrowDown" transform="rotate(180) translate(-30 -48)">
    <use xlink:href="#rim"/>
    <path pointer-events="none" fill="none" stroke="white" stroke-width="1.5" d="M0,-3.0v7 M-2.5,-0.5L0,-3.0L2.5,-0.5"/>
  </g>
  <g id="arrowLeft" transform="rotate(270) translate(-36 17)">
    <use xlink:href="#rim"/>
    <path pointer-events="none" fill="none" stroke="white" stroke-width="1.5" d="M0,-3.0v7 M-2.5,-0.5L0,-3.0L2.5,-0.5"/>
  </g>
  <g id="resetDef">
    <use xlink:href="#rim2" fill="#404040"><set attributeName="fill" to="#808080" begin="reset.mouseover" end="reset.mouseout"/></use>
  </g>
</defs>
<script type="application/ecmascript">
var viewWidth = 477;
var viewHeight = 520;
var sectionId = 'dynsection-3';
</script>
<script type="application/ecmascript" xlink:href="svg.min.js"/>
<svg id="graph" class="graph">
<g id="viewport">
<title>App_PBV_psfb_Task_10ms</title>
<!-- Node1 -->
<g id="Node000001" class="node">
<title>Node1</title>
<g id="a_Node000001"><a xlink:title="this is high frequency task to simulate sending of high frequency numeric data. Also to check if ther...">
<polygon fill="#999999" stroke="#666666" points="137.5,-244 0,-244 0,-224 137.5,-224 137.5,-244"/>
<text text-anchor="middle" x="68.75" y="-230.5" font-family="Helvetica,sans-Serif" font-size="10.00">App_PBV_psfb_Task_10ms</text>
</a>
</g>
</g>
<!-- Node2 -->
<g id="Node000002" class="node">
<title>Node2</title>
<g id="a_Node000002"><a xlink:href="a00426.html#ga96b58cf519f2a436993861504db6b3e1" target="_top" xlink:title="this builds frame">
<polygon fill="white" stroke="#666666" points="282.5,-272 173.5,-272 173.5,-240 282.5,-240 282.5,-272"/>
<text text-anchor="start" x="181.5" y="-258.5" font-family="Helvetica,sans-Serif" font-size="10.00">App_PBV_psfb_Build</text>
<text text-anchor="middle" x="228" y="-246.5" font-family="Helvetica,sans-Serif" font-size="10.00">_Frame</text>
</a>
</g>
</g>
<!-- Node1&#45;&gt;Node2 -->
<g id="edge1_Node000001_Node000002" class="edge">
<title>Node1&#45;&gt;Node2</title>
<g id="a_edge1_Node000001_Node000002"><a xlink:title=" ">
<path fill="none" stroke="#63b8ff" d="M137.81,-243.52C145.91,-244.66 154.17,-245.81 162.22,-246.94"/>
<polygon fill="#63b8ff" stroke="#63b8ff" points="161.66,-250.53 172.05,-248.45 162.63,-243.6 161.66,-250.53"/>
</a>
</g>
</g>
<!-- Node16 -->
<g id="Node000016" class="node">
<title>Node16</title>
<g id="a_Node000016"><a xlink:href="a00424.html#gaeb1c57673c8a08b078d3acd72b20a533" target="_top" xlink:title=" ">
<polygon fill="white" stroke="#666666" points="278.38,-222 177.62,-222 177.62,-202 278.38,-202 278.38,-222"/>
<text text-anchor="middle" x="228" y="-208.5" font-family="Helvetica,sans-Serif" font-size="10.00">app_Send_To_PBV</text>
</a>
</g>
</g>
<!-- Node1&#45;&gt;Node16 -->
<g id="edge15_Node000001_Node000016" class="edge">
<title>Node1&#45;&gt;Node16</title>
<g id="a_edge15_Node000001_Node000016"><a xlink:title=" ">
<path fill="none" stroke="#63b8ff" d="M137.81,-224.48C147.35,-223.14 157.11,-221.78 166.5,-220.46"/>
<polygon fill="#63b8ff" stroke="#63b8ff" points="166.91,-223.8 176.33,-218.95 165.94,-216.87 166.91,-223.8"/>
</a>
</g>
</g>
<!-- Node3 -->
<g id="Node000003" class="node">
<title>Node3</title>
<g id="a_Node000003"><a xlink:href="a00439.html#ga7a61c299efe9f39fbddb6d902d4b3adc" target="_top" xlink:title="API function to get the state of the power control enable bit.">
<polygon fill="white" stroke="#666666" points="465.38,-512 321.88,-512 321.88,-492 465.38,-492 465.38,-512"/>
<text text-anchor="middle" x="393.62" y="-498.5" font-family="Helvetica,sans-Serif" font-size="10.00">Dev_PwrCtrl_Get_EnableFlag</text>
</a>
</g>
</g>
<!-- Node2&#45;&gt;Node3 -->
<g id="edge2_Node000002_Node000003" class="edge">
<title>Node2&#45;&gt;Node3</title>
<g id="a_edge2_Node000002_Node000003"><a xlink:title=" ">
<path fill="none" stroke="#63b8ff" d="M230.45,-272.29C235.08,-314 253.23,-425.4 318.5,-483 319.71,-484.07 320.98,-485.08 322.29,-486.04"/>
<polygon fill="#63b8ff" stroke="#63b8ff" points="320.14,-489.43 330.51,-491.58 323.74,-483.43 320.14,-489.43"/>
</a>
</g>
</g>
<!-- Node4 -->
<g id="Node000004" class="node">
<title>Node4</title>
<g id="a_Node000004"><a xlink:href="a00439.html#ga0a4bc9ff1027ccd07af11d8bd2865219" target="_top" xlink:title="API function to get the current state of the state machine.">
<polygon fill="white" stroke="#666666" points="452.62,-474 334.62,-474 334.62,-454 452.62,-454 452.62,-474"/>
<text text-anchor="middle" x="393.62" y="-460.5" font-family="Helvetica,sans-Serif" font-size="10.00">Dev_PwrCtrl_Get_State</text>
</a>
</g>
</g>
<!-- Node2&#45;&gt;Node4 -->
<g id="edge3_Node000002_Node000004" class="edge">
<title>Node2&#45;&gt;Node4</title>
<g id="a_edge3_Node000002_Node000004"><a xlink:title=" ">
<path fill="none" stroke="#63b8ff" d="M231.88,-272.27C239.25,-308.98 262.35,-398.68 318.5,-445 320.56,-446.7 322.76,-448.25 325.06,-449.67"/>
<polygon fill="#63b8ff" stroke="#63b8ff" points="322.85,-452.98 333.34,-454.47 326.06,-446.77 322.85,-452.98"/>
</a>
</g>
</g>
<!-- Node5 -->
<g id="Node000005" class="node">
<title>Node5</title>
<g id="a_Node000005"><a xlink:href="a00439.html#gab500c9c4e05b023607a8e72ababe07b3" target="_top" xlink:title="API function to get the power control status.">
<polygon fill="white" stroke="#666666" points="455.25,-436 332,-436 332,-416 455.25,-416 455.25,-436"/>
<text text-anchor="middle" x="393.62" y="-422.5" font-family="Helvetica,sans-Serif" font-size="10.00">Dev_PwrCtrl_Get_Status</text>
</a>
</g>
</g>
<!-- Node2&#45;&gt;Node5 -->
<g id="edge4_Node000002_Node000005" class="edge">
<title>Node2&#45;&gt;Node5</title>
<g id="a_edge4_Node000002_Node000005"><a xlink:title=" ">
<path fill="none" stroke="#63b8ff" d="M233.88,-272.04C244.19,-303.11 271.2,-371.54 318.5,-407 320.21,-408.29 322.01,-409.48 323.86,-410.6"/>
<polygon fill="#63b8ff" stroke="#63b8ff" points="322.06,-414.12 332.56,-415.54 325.24,-407.89 322.06,-414.12"/>
</a>
</g>
</g>
<!-- Node6 -->
<g id="Node000006" class="node">
<title>Node6</title>
<g id="a_Node000006"><a xlink:href="a00439.html#ga896f23a8b36846c241697d85fe836dd7" target="_top" xlink:title="API function to get the value of the sampled ADC for input Voltage.">
<polygon fill="white" stroke="#666666" points="458.25,-398 329,-398 329,-378 458.25,-378 458.25,-398"/>
<text text-anchor="middle" x="393.62" y="-384.5" font-family="Helvetica,sans-Serif" font-size="10.00">Dev_PwrCtrl_GetAdc_Vpri</text>
</a>
</g>
</g>
<!-- Node2&#45;&gt;Node6 -->
<g id="edge5_Node000002_Node000006" class="edge">
<title>Node2&#45;&gt;Node6</title>
<g id="a_edge5_Node000002_Node000006"><a xlink:title=" ">
<path fill="none" stroke="#63b8ff" d="M237.31,-272.24C250.86,-297.03 280.09,-344.06 318.5,-369 320.92,-370.57 323.47,-372.02 326.1,-373.34"/>
<polygon fill="#63b8ff" stroke="#63b8ff" points="324.37,-376.84 334.93,-377.63 327.17,-370.42 324.37,-376.84"/>
</a>
</g>
</g>
<!-- Node7 -->
<g id="Node000007" class="node">
<title>Node7</title>
<g id="a_Node000007"><a xlink:href="a00439.html#ga96927eaff219e7917b625da4a2846797" target="_top" xlink:title="API function to get the value of the sampled ADC for output Voltage.">
<polygon fill="white" stroke="#666666" points="460.88,-360 326.38,-360 326.38,-340 460.88,-340 460.88,-360"/>
<text text-anchor="middle" x="393.62" y="-346.5" font-family="Helvetica,sans-Serif" font-size="10.00">Dev_PwrCtrl_GetAdc_Vsec</text>
</a>
</g>
</g>
<!-- Node2&#45;&gt;Node7 -->
<g id="edge6_Node000002_Node000007" class="edge">
<title>Node2&#45;&gt;Node7</title>
<g id="a_edge6_Node000002_Node000007"><a xlink:title=" ">
<path fill="none" stroke="#63b8ff" d="M243.91,-272.21C260.51,-289.31 288.92,-315.82 318.5,-331 322.02,-332.8 325.72,-334.45 329.51,-335.94"/>
<polygon fill="#63b8ff" stroke="#63b8ff" points="328.11,-339.51 338.71,-339.55 330.45,-332.91 328.11,-339.51"/>
</a>
</g>
</g>
<!-- Node8 -->
<g id="Node000008" class="node">
<title>Node8</title>
<g id="a_Node000008"><a xlink:href="a00439.html#ga20ec70f40fccdef1e2a340bf76c1df70" target="_top" xlink:title="API function to get the value of the primary sensor offset value.">
<polygon fill="white" stroke="#666666" points="445.5,-322 341.75,-322 341.75,-290 445.5,-290 445.5,-322"/>
<text text-anchor="start" x="349.75" y="-308.5" font-family="Helvetica,sans-Serif" font-size="10.00">Dev_PwrCtrl_GetIPri</text>
<text text-anchor="middle" x="393.62" y="-296.5" font-family="Helvetica,sans-Serif" font-size="10.00">_Offset</text>
</a>
</g>
</g>
<!-- Node2&#45;&gt;Node8 -->
<g id="edge7_Node000002_Node000008" class="edge">
<title>Node2&#45;&gt;Node8</title>
<g id="a_edge7_Node000002_Node000008"><a xlink:title=" ">
<path fill="none" stroke="#63b8ff" d="M282.58,-272.37C298.1,-277.11 315.16,-282.33 331.13,-287.21"/>
<polygon fill="#63b8ff" stroke="#63b8ff" points="329.85,-290.78 340.43,-290.36 331.89,-284.09 329.85,-290.78"/>
</a>
</g>
</g>
<!-- Node9 -->
<g id="Node000009" class="node">
<title>Node9</title>
<g id="a_Node000009"><a xlink:href="a00439.html#ga750f6130ea1e750498d2a6b7baa3922a" target="_top" xlink:title="API function to get the value of the secondary sensor offset value.">
<polygon fill="white" stroke="#666666" points="447.38,-272 339.88,-272 339.88,-240 447.38,-240 447.38,-272"/>
<text text-anchor="start" x="347.88" y="-258.5" font-family="Helvetica,sans-Serif" font-size="10.00">Dev_PwrCtrl_GetIsec</text>
<text text-anchor="middle" x="393.62" y="-246.5" font-family="Helvetica,sans-Serif" font-size="10.00">_Offset</text>
</a>
</g>
</g>
<!-- Node2&#45;&gt;Node9 -->
<g id="edge8_Node000002_Node000009" class="edge">
<title>Node2&#45;&gt;Node9</title>
<g id="a_edge8_Node000002_Node000009"><a xlink:title=" ">
<path fill="none" stroke="#63b8ff" d="M282.58,-256C297.28,-256 313.36,-256 328.59,-256"/>
<polygon fill="#63b8ff" stroke="#63b8ff" points="328.49,-259.5 338.49,-256 328.49,-252.5 328.49,-259.5"/>
</a>
</g>
</g>
<!-- Node10 -->
<g id="Node000010" class="node">
<title>Node10</title>
<g id="a_Node000010"><a xlink:href="a00439.html#gad6974009436ae2feff88ba7717efe5d4" target="_top" xlink:title="API function to get the value of the sampled ADC for Capacitor Voltage.">
<polygon fill="white" stroke="#666666" points="468.75,-222 318.5,-222 318.5,-202 468.75,-202 468.75,-222"/>
<text text-anchor="middle" x="393.62" y="-208.5" font-family="Helvetica,sans-Serif" font-size="10.00">Dev_PwrCtrl_GetVoltage_Vcap</text>
</a>
</g>
</g>
<!-- Node2&#45;&gt;Node10 -->
<g id="edge9_Node000002_Node000010" class="edge">
<title>Node2&#45;&gt;Node10</title>
<g id="a_edge9_Node000002_Node000010"><a xlink:title=" ">
<path fill="none" stroke="#63b8ff" d="M282.9,-240.74C294.62,-237.48 306.97,-234.09 318.5,-231 325.57,-229.11 333.03,-227.15 340.38,-225.24"/>
<polygon fill="#63b8ff" stroke="#63b8ff" points="341.22,-228.38 350.03,-222.5 339.47,-221.6 341.22,-228.38"/>
</a>
</g>
</g>
<!-- Node11 -->
<g id="Node000011" class="node">
<title>Node11</title>
<g id="a_Node000011"><a xlink:href="a00311.html#a525a7d54ffe10a34fc0de37c1d43aa6a" target="_top" xlink:title=" ">
<polygon fill="white" stroke="#666666" points="435,-184 352.25,-184 352.25,-164 435,-164 435,-184"/>
<text text-anchor="middle" x="393.62" y="-170.5" font-family="Helvetica,sans-Serif" font-size="10.00">Fault_GetFlags</text>
</a>
</g>
</g>
<!-- Node2&#45;&gt;Node11 -->
<g id="edge10_Node000002_Node000011" class="edge">
<title>Node2&#45;&gt;Node11</title>
<g id="a_edge10_Node000002_Node000011"><a xlink:title=" ">
<path fill="none" stroke="#63b8ff" d="M268.54,-239.62C273.4,-237 278.18,-234.12 282.5,-231 301.37,-217.39 298.45,-204.79 318.5,-193 325.51,-188.88 333.4,-185.64 341.35,-183.1"/>
<polygon fill="#63b8ff" stroke="#63b8ff" points="342.11,-186.24 350.77,-180.15 340.2,-179.51 342.11,-186.24"/>
</a>
</g>
</g>
<!-- Node12 -->
<g id="Node000012" class="node">
<title>Node12</title>
<g id="a_Node000012"><a xlink:href="a00439.html#ga6450795c316e2284ae94eb16f0da1fe8" target="_top" xlink:title="API function to get the raw ADC value for primary current transformer current.">
<polygon fill="white" stroke="#666666" points="452.25,-146 335,-146 335,-126 452.25,-126 452.25,-146"/>
<text text-anchor="middle" x="393.62" y="-132.5" font-family="Helvetica,sans-Serif" font-size="10.00">PwrCtrl_GetAdc_Ipri_ct</text>
</a>
</g>
</g>
<!-- Node2&#45;&gt;Node12 -->
<g id="edge11_Node000002_Node000012" class="edge">
<title>Node2&#45;&gt;Node12</title>
<g id="a_edge11_Node000002_Node000012"><a xlink:title=" ">
<path fill="none" stroke="#63b8ff" d="M271.72,-239.51C275.62,-237.01 279.3,-234.18 282.5,-231 309,-204.64 289.67,-178.78 318.5,-155 320.53,-153.32 322.69,-151.79 324.95,-150.4"/>
<polygon fill="#63b8ff" stroke="#63b8ff" points="326.42,-153.06 333.71,-145.37 323.22,-146.84 326.42,-153.06"/>
</a>
</g>
</g>
<!-- Node13 -->
<g id="Node000013" class="node">
<title>Node13</title>
<g id="a_Node000013"><a xlink:href="a00439.html#ga73e4778085abb276456fb9611ae26feb" target="_top" xlink:title="API function to get the raw ADC value for secondary current transformer current.">
<polygon fill="white" stroke="#666666" points="448.12,-108 339.12,-108 339.12,-76 448.12,-76 448.12,-108"/>
<text text-anchor="start" x="347.12" y="-94.5" font-family="Helvetica,sans-Serif" font-size="10.00">PwrCtrl_GetAdc_Isec</text>
<text text-anchor="middle" x="393.62" y="-82.5" font-family="Helvetica,sans-Serif" font-size="10.00">_shunt</text>
</a>
</g>
</g>
<!-- Node2&#45;&gt;Node13 -->
<g id="edge12_Node000002_Node000013" class="edge">
<title>Node2&#45;&gt;Node13</title>
<g id="a_edge12_Node000002_Node000013"><a xlink:title=" ">
<path fill="none" stroke="#63b8ff" d="M272.7,-239.59C276.31,-237.09 279.66,-234.24 282.5,-231 317.53,-191.05 281.3,-154.93 318.5,-117 321.71,-113.73 325.36,-110.88 329.28,-108.41"/>
<polygon fill="#63b8ff" stroke="#63b8ff" points="330.68,-111.1 337.84,-103.29 327.37,-104.93 330.68,-111.1"/>
</a>
</g>
</g>
<!-- Node14 -->
<g id="Node000014" class="node">
<title>Node14</title>
<g id="a_Node000014"><a xlink:href="a00439.html#gac82d4ab7cf3f3ca8180033a4d17d789f" target="_top" xlink:title="API function to get the raw ADC value for temperature.">
<polygon fill="white" stroke="#666666" points="466.12,-58 321.12,-58 321.12,-38 466.12,-38 466.12,-58"/>
<text text-anchor="middle" x="393.62" y="-44.5" font-family="Helvetica,sans-Serif" font-size="10.00">PwrCtrl_GetAdc_Temperature</text>
</a>
</g>
</g>
<!-- Node2&#45;&gt;Node14 -->
<g id="edge13_Node000002_Node000014" class="edge">
<title>Node2&#45;&gt;Node14</title>
<g id="a_edge13_Node000002_Node000014"><a xlink:title=" ">
<path fill="none" stroke="#63b8ff" d="M273.27,-239.66C276.72,-237.15 279.87,-234.28 282.5,-231 329.13,-172.73 266.66,-120.68 318.5,-67 319.33,-66.14 320.19,-65.32 321.09,-64.53"/>
<polygon fill="#63b8ff" stroke="#63b8ff" points="322.69,-66.98 328.85,-58.36 318.66,-61.26 322.69,-66.98"/>
</a>
</g>
</g>
<!-- Node15 -->
<g id="Node000015" class="node">
<title>Node15</title>
<g id="a_Node000015"><a xlink:href="a00439.html#gaf0b0a68f7829d9f898c6f0840a77c065" target="_top" xlink:title="API function to get the raw ADC value for 5V rail.">
<polygon fill="white" stroke="#666666" points="457.5,-20 329.75,-20 329.75,0 457.5,0 457.5,-20"/>
<text text-anchor="middle" x="393.62" y="-6.5" font-family="Helvetica,sans-Serif" font-size="10.00">PwrCtrl_GetAdc_Vrail_5V</text>
</a>
</g>
</g>
<!-- Node2&#45;&gt;Node15 -->
<g id="edge14_Node000002_Node000015" class="edge">
<title>Node2&#45;&gt;Node15</title>
<g id="a_edge14_Node000002_Node000015"><a xlink:title=" ">
<path fill="none" stroke="#63b8ff" d="M273.65,-239.59C276.98,-237.1 280,-234.25 282.5,-231 338.05,-158.68 256.47,-95.84 318.5,-29 319.19,-28.25 319.91,-27.54 320.65,-26.85"/>
<polygon fill="#63b8ff" stroke="#63b8ff" points="322.39,-29.17 328.35,-20.41 318.23,-23.54 322.39,-29.17"/>
</a>
</g>
</g>
</g>
</svg>

<g id="navigator" transform="translate(0 0)" fill="#404254">
  <rect fill="#f2f5e9" fill-opacity="0.5" stroke="#606060" stroke-width=".5" x="0" y="0" width="60" height="60"/>
  <use id="zoomplus" xlink:href="#zoomPlus" x="17" y="9" onmousedown="handleZoom(evt,'in')"/>
  <use id="zoomminus" xlink:href="#zoomMin" x="42" y="9" onmousedown="handleZoom(evt,'out')"/>
  <use id="reset" xlink:href="#resetDef" x="30" y="36" onmousedown="handleReset()"/>
   <use id="arrowup" xlink:href="#arrowUp" x="0" y="0" onmousedown="handlePan(0,-1)"/>
  <use id="arrowright" xlink:href="#arrowRight" x="0" y="0" onmousedown="handlePan(1,0)"/>
  <use id="arrowdown" xlink:href="#arrowDown" x="0" y="0" onmousedown="handlePan(0,1)"/>
  <use id="arrowleft" xlink:href="#arrowLeft" x="0" y="0" onmousedown="handlePan(-1,0)"/>
</g>
<svg viewBox="0 0 15 15" width="100%" height="30px" preserveAspectRatio="xMaxYMin meet">
 <g id="arrow_out" transform="scale(0.3 0.3)">
  <a xlink:href="a00426_ga34ef08c06d636819aa039ff4a8f85c50_cgraph_org.svg" target="_base">
   <rect id="button" ry="5" rx="5" y="6" x="6" height="38" width="38"
        fill="#f2f5e9" fill-opacity="0.5" stroke="#606060" stroke-width="1.0"/>
   <path id="arrow"
     d="M 11.500037,31.436501 C 11.940474,20.09759 22.043105,11.32322 32.158766,21.979434 L 37.068811,17.246167 C 37.068811,17.246167 37.088388,32 37.088388,32 L 22.160133,31.978069 C 22.160133,31.978069 26.997745,27.140456 26.997745,27.140456 C 18.528582,18.264221 13.291696,25.230495 11.500037,31.436501 z"
     style="fill:#404040;"/>
  </a>
 </g>
</svg>

<style type='text/css'>
<![CDATA[
[data-mouse-over-selected='false'] { opacity: 0.7; }
[data-mouse-over-selected='true']  { opacity: 1.0; }
]]>
</style>
<script type="application/ecmascript"><![CDATA[
document.addEventListener('DOMContentLoaded', (event) => {
  highlightEdges();
  highlightAdjacentNodes();
});
]]></script>
</svg>
