<?xml version="1.0" encoding="UTF-8" standalone="no"?>
<!DOCTYPE svg PUBLIC "-//W3C//DTD SVG 1.1//EN"
 "http://www.w3.org/Graphics/SVG/1.1/DTD/svg11.dtd">
<!-- Generated by graphviz version 2.44.1 (20200629.0846)
 -->
<!-- Title: PwrCtrl_GetAdc_Isec_shunt Pages: 1 -->
<svg width="565pt" height="113pt"
 viewBox="0.00 0.00 565.00 112.50" xmlns="http://www.w3.org/2000/svg" xmlns:xlink="http://www.w3.org/1999/xlink">
<g id="graph0" class="graph" transform="scale(1 1) rotate(0) translate(4 108.5)">
<title>PwrCtrl_GetAdc_Isec_shunt</title>
<!-- Node1 -->
<g id="Node000001" class="node">
<title>Node1</title>
<g id="a_Node000001"><a xlink:title="API function to get the raw ADC value for secondary current transformer current.">
<polygon fill="#999999" stroke="#666666" points="557,-61.5 447,-61.5 447,-31.5 557,-31.5 557,-61.5"/>
<text text-anchor="start" x="455" y="-49.5" font-family="Helvetica,sans-Serif" font-size="10.00">PwrCtrl_GetAdc_Isec</text>
<text text-anchor="middle" x="502" y="-38.5" font-family="Helvetica,sans-Serif" font-size="10.00">_shunt</text>
</a>
</g>
</g>
<!-- Node2 -->
<g id="Node000002" class="node">
<title>Node2</title>
<g id="a_Node000002"><a xlink:href="a00426.html#ga96b58cf519f2a436993861504db6b3e1" target="_top" xlink:title="this builds frame">
<polygon fill="white" stroke="#666666" points="410,-104.5 300,-104.5 300,-74.5 410,-74.5 410,-104.5"/>
<text text-anchor="start" x="308" y="-92.5" font-family="Helvetica,sans-Serif" font-size="10.00">App_PBV_psfb_Build</text>
<text text-anchor="middle" x="355" y="-81.5" font-family="Helvetica,sans-Serif" font-size="10.00">_Frame</text>
</a>
</g>
</g>
<!-- Node1&#45;&gt;Node2 -->
<g id="edge1_Node000001_Node000002" class="edge">
<title>Node1&#45;&gt;Node2</title>
<g id="a_edge1_Node000001_Node000002"><a xlink:title=" ">
<path fill="none" stroke="#63b8ff" d="M440.58,-64.42C429.39,-67.74 417.8,-71.17 406.93,-74.4"/>
<polygon fill="#63b8ff" stroke="#63b8ff" points="441.69,-67.74 450.29,-61.54 439.7,-61.03 441.69,-67.74"/>
</a>
</g>
</g>
<!-- Node4 -->
<g id="Node000004" class="node">
<title>Node4</title>
<g id="a_Node000004"><a xlink:href="a00428.html#ga96b0fadd9410b8b69eb6cd3962175834" target="_top" xlink:title=" ">
<polygon fill="white" stroke="#666666" points="411,-56 299,-56 299,-37 411,-37 411,-56"/>
<text text-anchor="middle" x="355" y="-44" font-family="Helvetica,sans-Serif" font-size="10.00">dev_ReadADCSample</text>
</a>
</g>
</g>
<!-- Node1&#45;&gt;Node4 -->
<g id="edge3_Node000001_Node000004" class="edge">
<title>Node1&#45;&gt;Node4</title>
<g id="a_edge3_Node000001_Node000004"><a xlink:title=" ">
<path fill="none" stroke="#63b8ff" d="M436.43,-46.5C428.01,-46.5 419.44,-46.5 411.19,-46.5"/>
<polygon fill="#63b8ff" stroke="#63b8ff" points="436.59,-50 446.59,-46.5 436.59,-43 436.59,-50"/>
</a>
</g>
</g>
<!-- Node6 -->
<g id="Node000006" class="node">
<title>Node6</title>
<g id="a_Node000006"><a xlink:href="a00437.html#ga8307344d190a5459682d315fc7bfe198" target="_top" xlink:title="Executes function for initialze state machine.">
<polygon fill="white" stroke="#666666" points="402.5,-19 307.5,-19 307.5,0 402.5,0 402.5,-19"/>
<text text-anchor="middle" x="355" y="-7" font-family="Helvetica,sans-Serif" font-size="10.00">PCS_INIT_handler</text>
</a>
</g>
</g>
<!-- Node1&#45;&gt;Node6 -->
<g id="edge5_Node000001_Node000006" class="edge">
<title>Node1&#45;&gt;Node6</title>
<g id="a_edge5_Node000001_Node000006"><a xlink:title=" ">
<path fill="none" stroke="#63b8ff" d="M436.52,-30.05C421.82,-26.29 406.67,-22.43 393.54,-19.08"/>
<polygon fill="#63b8ff" stroke="#63b8ff" points="436.04,-33.54 446.59,-32.62 437.77,-26.75 436.04,-33.54"/>
</a>
</g>
</g>
<!-- Node3 -->
<g id="Node000003" class="node">
<title>Node3</title>
<g id="a_Node000003"><a xlink:href="a00426.html#ga34ef08c06d636819aa039ff4a8f85c50" target="_top" xlink:title="this is high frequency task to simulate sending of high frequency numeric data. Also to check if ther...">
<polygon fill="white" stroke="#666666" points="263,-99 125,-99 125,-80 263,-80 263,-99"/>
<text text-anchor="middle" x="194" y="-87" font-family="Helvetica,sans-Serif" font-size="10.00">App_PBV_psfb_Task_10ms</text>
</a>
</g>
</g>
<!-- Node2&#45;&gt;Node3 -->
<g id="edge2_Node000002_Node000003" class="edge">
<title>Node2&#45;&gt;Node3</title>
<g id="a_edge2_Node000002_Node000003"><a xlink:title=" ">
<path fill="none" stroke="#63b8ff" d="M289.61,-89.5C280.88,-89.5 271.89,-89.5 263.09,-89.5"/>
<polygon fill="#63b8ff" stroke="#63b8ff" points="289.73,-93 299.73,-89.5 289.73,-86 289.73,-93"/>
</a>
</g>
</g>
<!-- Node5 -->
<g id="Node000005" class="node">
<title>Node5</title>
<g id="a_Node000005"><a xlink:href="a00428.html#gaaf49fa4fa4fb5b695ec987eb8cb5bd31" target="_top" xlink:title=" ">
<polygon fill="white" stroke="#666666" points="246,-56 142,-56 142,-37 246,-37 246,-56"/>
<text text-anchor="middle" x="194" y="-44" font-family="Helvetica,sans-Serif" font-size="10.00">dev_MeasureOffsets</text>
</a>
</g>
</g>
<!-- Node4&#45;&gt;Node5 -->
<g id="edge4_Node000004_Node000005" class="edge">
<title>Node4&#45;&gt;Node5</title>
<g id="a_edge4_Node000004_Node000005"><a xlink:title=" ">
<path fill="none" stroke="#63b8ff" d="M288.63,-46.5C274.44,-46.5 259.62,-46.5 246.06,-46.5"/>
<polygon fill="#63b8ff" stroke="#63b8ff" points="288.84,-50 298.84,-46.5 288.84,-43 288.84,-50"/>
</a>
</g>
</g>
<!-- Node7 -->
<g id="Node000007" class="node">
<title>Node7</title>
<g id="a_Node000007"><a xlink:href="a00437.html#ga2408c0b52cd2c2487f43716f261434e6" target="_top" xlink:title="Manages the power control state machine.">
<polygon fill="white" stroke="#666666" points="250.5,-19 137.5,-19 137.5,0 250.5,0 250.5,-19"/>
<text text-anchor="middle" x="194" y="-7" font-family="Helvetica,sans-Serif" font-size="10.00">PwrCtrl_StateMachine</text>
</a>
</g>
</g>
<!-- Node6&#45;&gt;Node7 -->
<g id="edge6_Node000006_Node000007" class="edge">
<title>Node6&#45;&gt;Node7</title>
<g id="a_edge6_Node000006_Node000007"><a xlink:title=" ">
<path fill="none" stroke="#63b8ff" d="M296.96,-9.5C281.93,-9.5 265.73,-9.5 250.77,-9.5"/>
<polygon fill="#63b8ff" stroke="#63b8ff" points="297.15,-13 307.15,-9.5 297.15,-6 297.15,-13"/>
</a>
</g>
</g>
<!-- Node8 -->
<g id="Node000008" class="node">
<title>Node8</title>
<g id="a_Node000008"><a xlink:href="a00434.html#ga48dcb018afa53b60b6112cde00561c4b" target="_top" xlink:title="Executes the power control state machine.">
<polygon fill="white" stroke="#666666" points="89,-19 0,-19 0,0 89,0 89,-19"/>
<text text-anchor="middle" x="44.5" y="-7" font-family="Helvetica,sans-Serif" font-size="10.00">PwrCtrl_Execute</text>
</a>
</g>
</g>
<!-- Node7&#45;&gt;Node8 -->
<g id="edge7_Node000007_Node000008" class="edge">
<title>Node7&#45;&gt;Node8</title>
<g id="a_edge7_Node000007_Node000008"><a xlink:title=" ">
<path fill="none" stroke="#63b8ff" d="M127.09,-9.5C114.32,-9.5 101.24,-9.5 89.39,-9.5"/>
<polygon fill="#63b8ff" stroke="#63b8ff" points="127.24,-13 137.24,-9.5 127.24,-6 127.24,-13"/>
</a>
</g>
</g>
</g>
</svg>
