<?xml version="1.0" encoding="UTF-8" standalone="no"?>
<!DOCTYPE svg PUBLIC "-//W3C//DTD SVG 1.1//EN"
 "http://www.w3.org/Graphics/SVG/1.1/DTD/svg11.dtd">
<!-- Generated by graphviz version 8.1.0 (20230707.0739)
 -->
<!-- Title: App_PBV_psfb_Build_Frame Pages: 1 -->
<svg width="303pt" height="520pt"
 viewBox="0.00 0.00 303.25 520.00" xmlns="http://www.w3.org/2000/svg" xmlns:xlink="http://www.w3.org/1999/xlink">
<g id="graph0" class="graph" transform="scale(1 1) rotate(0) translate(4 516)">
<title>App_PBV_psfb_Build_Frame</title>
<!-- Node1 -->
<g id="Node000001" class="node">
<title>Node1</title>
<g id="a_Node000001"><a xlink:title="this builds frame">
<polygon fill="#999999" stroke="#666666" points="109,-272 0,-272 0,-240 109,-240 109,-272"/>
<text text-anchor="start" x="8" y="-258.5" font-family="Helvetica,sans-Serif" font-size="10.00">App_PBV_psfb_Build</text>
<text text-anchor="middle" x="54.5" y="-246.5" font-family="Helvetica,sans-Serif" font-size="10.00">_Frame</text>
</a>
</g>
</g>
<!-- Node2 -->
<g id="Node000002" class="node">
<title>Node2</title>
<g id="a_Node000002"><a xlink:href="a00439.html#ga7a61c299efe9f39fbddb6d902d4b3adc" target="_top" xlink:title="API function to get the state of the power control enable bit.">
<polygon fill="white" stroke="#666666" points="291.88,-512 148.38,-512 148.38,-492 291.88,-492 291.88,-512"/>
<text text-anchor="middle" x="220.12" y="-498.5" font-family="Helvetica,sans-Serif" font-size="10.00">Dev_PwrCtrl_Get_EnableFlag</text>
</a>
</g>
</g>
<!-- Node1&#45;&gt;Node2 -->
<g id="edge1_Node000001_Node000002" class="edge">
<title>Node1&#45;&gt;Node2</title>
<g id="a_edge1_Node000001_Node000002"><a xlink:title=" ">
<path fill="none" stroke="#63b8ff" d="M56.95,-272.29C61.58,-314 79.73,-425.4 145,-483 146.21,-484.07 147.48,-485.08 148.79,-486.04"/>
<polygon fill="#63b8ff" stroke="#63b8ff" points="146.64,-489.43 157.01,-491.58 150.24,-483.43 146.64,-489.43"/>
</a>
</g>
</g>
<!-- Node3 -->
<g id="Node000003" class="node">
<title>Node3</title>
<g id="a_Node000003"><a xlink:href="a00439.html#ga0a4bc9ff1027ccd07af11d8bd2865219" target="_top" xlink:title="API function to get the current state of the state machine.">
<polygon fill="white" stroke="#666666" points="279.12,-474 161.12,-474 161.12,-454 279.12,-454 279.12,-474"/>
<text text-anchor="middle" x="220.12" y="-460.5" font-family="Helvetica,sans-Serif" font-size="10.00">Dev_PwrCtrl_Get_State</text>
</a>
</g>
</g>
<!-- Node1&#45;&gt;Node3 -->
<g id="edge2_Node000001_Node000003" class="edge">
<title>Node1&#45;&gt;Node3</title>
<g id="a_edge2_Node000001_Node000003"><a xlink:title=" ">
<path fill="none" stroke="#63b8ff" d="M58.38,-272.27C65.75,-308.98 88.85,-398.68 145,-445 147.06,-446.7 149.26,-448.25 151.56,-449.67"/>
<polygon fill="#63b8ff" stroke="#63b8ff" points="149.35,-452.98 159.84,-454.47 152.56,-446.77 149.35,-452.98"/>
</a>
</g>
</g>
<!-- Node4 -->
<g id="Node000004" class="node">
<title>Node4</title>
<g id="a_Node000004"><a xlink:href="a00439.html#gab500c9c4e05b023607a8e72ababe07b3" target="_top" xlink:title="API function to get the power control status.">
<polygon fill="white" stroke="#666666" points="281.75,-436 158.5,-436 158.5,-416 281.75,-416 281.75,-436"/>
<text text-anchor="middle" x="220.12" y="-422.5" font-family="Helvetica,sans-Serif" font-size="10.00">Dev_PwrCtrl_Get_Status</text>
</a>
</g>
</g>
<!-- Node1&#45;&gt;Node4 -->
<g id="edge3_Node000001_Node000004" class="edge">
<title>Node1&#45;&gt;Node4</title>
<g id="a_edge3_Node000001_Node000004"><a xlink:title=" ">
<path fill="none" stroke="#63b8ff" d="M60.38,-272.04C70.69,-303.11 97.7,-371.54 145,-407 146.71,-408.29 148.51,-409.48 150.36,-410.6"/>
<polygon fill="#63b8ff" stroke="#63b8ff" points="148.56,-414.12 159.06,-415.54 151.74,-407.89 148.56,-414.12"/>
</a>
</g>
</g>
<!-- Node5 -->
<g id="Node000005" class="node">
<title>Node5</title>
<g id="a_Node000005"><a xlink:href="a00439.html#ga896f23a8b36846c241697d85fe836dd7" target="_top" xlink:title="API function to get the value of the sampled ADC for input Voltage.">
<polygon fill="white" stroke="#666666" points="284.75,-398 155.5,-398 155.5,-378 284.75,-378 284.75,-398"/>
<text text-anchor="middle" x="220.12" y="-384.5" font-family="Helvetica,sans-Serif" font-size="10.00">Dev_PwrCtrl_GetAdc_Vpri</text>
</a>
</g>
</g>
<!-- Node1&#45;&gt;Node5 -->
<g id="edge4_Node000001_Node000005" class="edge">
<title>Node1&#45;&gt;Node5</title>
<g id="a_edge4_Node000001_Node000005"><a xlink:title=" ">
<path fill="none" stroke="#63b8ff" d="M63.81,-272.24C77.36,-297.03 106.59,-344.06 145,-369 147.42,-370.57 149.97,-372.02 152.6,-373.34"/>
<polygon fill="#63b8ff" stroke="#63b8ff" points="150.87,-376.84 161.43,-377.63 153.67,-370.42 150.87,-376.84"/>
</a>
</g>
</g>
<!-- Node6 -->
<g id="Node000006" class="node">
<title>Node6</title>
<g id="a_Node000006"><a xlink:href="a00439.html#ga96927eaff219e7917b625da4a2846797" target="_top" xlink:title="API function to get the value of the sampled ADC for output Voltage.">
<polygon fill="white" stroke="#666666" points="287.38,-360 152.88,-360 152.88,-340 287.38,-340 287.38,-360"/>
<text text-anchor="middle" x="220.12" y="-346.5" font-family="Helvetica,sans-Serif" font-size="10.00">Dev_PwrCtrl_GetAdc_Vsec</text>
</a>
</g>
</g>
<!-- Node1&#45;&gt;Node6 -->
<g id="edge5_Node000001_Node000006" class="edge">
<title>Node1&#45;&gt;Node6</title>
<g id="a_edge5_Node000001_Node000006"><a xlink:title=" ">
<path fill="none" stroke="#63b8ff" d="M70.41,-272.21C87.01,-289.31 115.42,-315.82 145,-331 148.52,-332.8 152.22,-334.45 156.01,-335.94"/>
<polygon fill="#63b8ff" stroke="#63b8ff" points="154.61,-339.51 165.21,-339.55 156.95,-332.91 154.61,-339.51"/>
</a>
</g>
</g>
<!-- Node7 -->
<g id="Node000007" class="node">
<title>Node7</title>
<g id="a_Node000007"><a xlink:href="a00439.html#ga20ec70f40fccdef1e2a340bf76c1df70" target="_top" xlink:title="API function to get the value of the primary sensor offset value.">
<polygon fill="white" stroke="#666666" points="272,-322 168.25,-322 168.25,-290 272,-290 272,-322"/>
<text text-anchor="start" x="176.25" y="-308.5" font-family="Helvetica,sans-Serif" font-size="10.00">Dev_PwrCtrl_GetIPri</text>
<text text-anchor="middle" x="220.12" y="-296.5" font-family="Helvetica,sans-Serif" font-size="10.00">_Offset</text>
</a>
</g>
</g>
<!-- Node1&#45;&gt;Node7 -->
<g id="edge6_Node000001_Node000007" class="edge">
<title>Node1&#45;&gt;Node7</title>
<g id="a_edge6_Node000001_Node000007"><a xlink:title=" ">
<path fill="none" stroke="#63b8ff" d="M109.08,-272.37C124.6,-277.11 141.66,-282.33 157.63,-287.21"/>
<polygon fill="#63b8ff" stroke="#63b8ff" points="156.35,-290.78 166.93,-290.36 158.39,-284.09 156.35,-290.78"/>
</a>
</g>
</g>
<!-- Node8 -->
<g id="Node000008" class="node">
<title>Node8</title>
<g id="a_Node000008"><a xlink:href="a00439.html#ga750f6130ea1e750498d2a6b7baa3922a" target="_top" xlink:title="API function to get the value of the secondary sensor offset value.">
<polygon fill="white" stroke="#666666" points="273.88,-272 166.38,-272 166.38,-240 273.88,-240 273.88,-272"/>
<text text-anchor="start" x="174.38" y="-258.5" font-family="Helvetica,sans-Serif" font-size="10.00">Dev_PwrCtrl_GetIsec</text>
<text text-anchor="middle" x="220.12" y="-246.5" font-family="Helvetica,sans-Serif" font-size="10.00">_Offset</text>
</a>
</g>
</g>
<!-- Node1&#45;&gt;Node8 -->
<g id="edge7_Node000001_Node000008" class="edge">
<title>Node1&#45;&gt;Node8</title>
<g id="a_edge7_Node000001_Node000008"><a xlink:title=" ">
<path fill="none" stroke="#63b8ff" d="M109.08,-256C123.78,-256 139.86,-256 155.09,-256"/>
<polygon fill="#63b8ff" stroke="#63b8ff" points="154.99,-259.5 164.99,-256 154.99,-252.5 154.99,-259.5"/>
</a>
</g>
</g>
<!-- Node9 -->
<g id="Node000009" class="node">
<title>Node9</title>
<g id="a_Node000009"><a xlink:href="a00439.html#gad6974009436ae2feff88ba7717efe5d4" target="_top" xlink:title="API function to get the value of the sampled ADC for Capacitor Voltage.">
<polygon fill="white" stroke="#666666" points="295.25,-222 145,-222 145,-202 295.25,-202 295.25,-222"/>
<text text-anchor="middle" x="220.12" y="-208.5" font-family="Helvetica,sans-Serif" font-size="10.00">Dev_PwrCtrl_GetVoltage_Vcap</text>
</a>
</g>
</g>
<!-- Node1&#45;&gt;Node9 -->
<g id="edge8_Node000001_Node000009" class="edge">
<title>Node1&#45;&gt;Node9</title>
<g id="a_edge8_Node000001_Node000009"><a xlink:title=" ">
<path fill="none" stroke="#63b8ff" d="M109.4,-240.74C121.12,-237.48 133.47,-234.09 145,-231 152.07,-229.11 159.53,-227.15 166.88,-225.24"/>
<polygon fill="#63b8ff" stroke="#63b8ff" points="167.72,-228.38 176.53,-222.5 165.97,-221.6 167.72,-228.38"/>
</a>
</g>
</g>
<!-- Node10 -->
<g id="Node000010" class="node">
<title>Node10</title>
<g id="a_Node000010"><a xlink:href="a00311.html#a525a7d54ffe10a34fc0de37c1d43aa6a" target="_top" xlink:title=" ">
<polygon fill="white" stroke="#666666" points="261.5,-184 178.75,-184 178.75,-164 261.5,-164 261.5,-184"/>
<text text-anchor="middle" x="220.12" y="-170.5" font-family="Helvetica,sans-Serif" font-size="10.00">Fault_GetFlags</text>
</a>
</g>
</g>
<!-- Node1&#45;&gt;Node10 -->
<g id="edge9_Node000001_Node000010" class="edge">
<title>Node1&#45;&gt;Node10</title>
<g id="a_edge9_Node000001_Node000010"><a xlink:title=" ">
<path fill="none" stroke="#63b8ff" d="M74.49,-239.52C91.79,-225.3 118.6,-205.18 145,-193 152.3,-189.63 160.29,-186.8 168.23,-184.43"/>
<polygon fill="#63b8ff" stroke="#63b8ff" points="168.87,-187.61 177.59,-181.58 167.02,-180.86 168.87,-187.61"/>
</a>
</g>
</g>
<!-- Node11 -->
<g id="Node000011" class="node">
<title>Node11</title>
<g id="a_Node000011"><a xlink:href="a00439.html#ga6450795c316e2284ae94eb16f0da1fe8" target="_top" xlink:title="API function to get the raw ADC value for primary current transformer current.">
<polygon fill="white" stroke="#666666" points="278.75,-146 161.5,-146 161.5,-126 278.75,-126 278.75,-146"/>
<text text-anchor="middle" x="220.12" y="-132.5" font-family="Helvetica,sans-Serif" font-size="10.00">PwrCtrl_GetAdc_Ipri_ct</text>
</a>
</g>
</g>
<!-- Node1&#45;&gt;Node11 -->
<g id="edge10_Node000001_Node000011" class="edge">
<title>Node1&#45;&gt;Node11</title>
<g id="a_edge10_Node000001_Node000011"><a xlink:title=" ">
<path fill="none" stroke="#63b8ff" d="M65.45,-239.64C80.04,-217.08 109.41,-176.74 145,-155 147.66,-153.38 150.45,-151.89 153.33,-150.53"/>
<polygon fill="#63b8ff" stroke="#63b8ff" points="154.48,-153.43 162.39,-146.38 151.81,-146.96 154.48,-153.43"/>
</a>
</g>
</g>
<!-- Node12 -->
<g id="Node000012" class="node">
<title>Node12</title>
<g id="a_Node000012"><a xlink:href="a00439.html#ga73e4778085abb276456fb9611ae26feb" target="_top" xlink:title="API function to get the raw ADC value for secondary current transformer current.">
<polygon fill="white" stroke="#666666" points="274.62,-108 165.62,-108 165.62,-76 274.62,-76 274.62,-108"/>
<text text-anchor="start" x="173.62" y="-94.5" font-family="Helvetica,sans-Serif" font-size="10.00">PwrCtrl_GetAdc_Isec</text>
<text text-anchor="middle" x="220.12" y="-82.5" font-family="Helvetica,sans-Serif" font-size="10.00">_shunt</text>
</a>
</g>
</g>
<!-- Node1&#45;&gt;Node12 -->
<g id="edge11_Node000001_Node000012" class="edge">
<title>Node1&#45;&gt;Node12</title>
<g id="a_edge11_Node000001_Node000012"><a xlink:title=" ">
<path fill="none" stroke="#63b8ff" d="M61.7,-239.73C73.52,-210.85 101.99,-150.52 145,-117 148.34,-114.4 151.96,-112.06 155.76,-109.96"/>
<polygon fill="#63b8ff" stroke="#63b8ff" points="157.01,-112.75 164.46,-105.21 153.94,-106.46 157.01,-112.75"/>
</a>
</g>
</g>
<!-- Node13 -->
<g id="Node000013" class="node">
<title>Node13</title>
<g id="a_Node000013"><a xlink:href="a00439.html#gac82d4ab7cf3f3ca8180033a4d17d789f" target="_top" xlink:title="API function to get the raw ADC value for temperature.">
<polygon fill="white" stroke="#666666" points="292.62,-58 147.62,-58 147.62,-38 292.62,-38 292.62,-58"/>
<text text-anchor="middle" x="220.12" y="-44.5" font-family="Helvetica,sans-Serif" font-size="10.00">PwrCtrl_GetAdc_Temperature</text>
</a>
</g>
</g>
<!-- Node1&#45;&gt;Node13 -->
<g id="edge12_Node000001_Node000013" class="edge">
<title>Node1&#45;&gt;Node13</title>
<g id="a_edge12_Node000001_Node000013"><a xlink:title=" ">
<path fill="none" stroke="#63b8ff" d="M58.38,-239.73C65.75,-203.02 88.85,-113.32 145,-67 146.44,-65.81 147.95,-64.69 149.52,-63.64"/>
<polygon fill="#63b8ff" stroke="#63b8ff" points="150.96,-66.29 157.99,-58.36 147.55,-60.18 150.96,-66.29"/>
</a>
</g>
</g>
<!-- Node14 -->
<g id="Node000014" class="node">
<title>Node14</title>
<g id="a_Node000014"><a xlink:href="a00439.html#gaf0b0a68f7829d9f898c6f0840a77c065" target="_top" xlink:title="API function to get the raw ADC value for 5V rail.">
<polygon fill="white" stroke="#666666" points="284,-20 156.25,-20 156.25,0 284,0 284,-20"/>
<text text-anchor="middle" x="220.12" y="-6.5" font-family="Helvetica,sans-Serif" font-size="10.00">PwrCtrl_GetAdc_Vrail_5V</text>
</a>
</g>
</g>
<!-- Node1&#45;&gt;Node14 -->
<g id="edge13_Node000001_Node000014" class="edge">
<title>Node1&#45;&gt;Node14</title>
<g id="a_edge13_Node000001_Node000014"><a xlink:title=" ">
<path fill="none" stroke="#63b8ff" d="M56.95,-239.71C61.58,-198 79.73,-86.6 145,-29 146.21,-27.93 147.48,-26.92 148.79,-25.96"/>
<polygon fill="#63b8ff" stroke="#63b8ff" points="150.24,-28.57 157.01,-20.42 146.64,-22.57 150.24,-28.57"/>
</a>
</g>
</g>
</g>
</svg>
