<?xml version="1.0" encoding="UTF-8" standalone="no"?>
<!DOCTYPE svg PUBLIC "-//W3C//DTD SVG 1.1//EN"
 "http://www.w3.org/Graphics/SVG/1.1/DTD/svg11.dtd">
<!-- Generated by graphviz version 8.1.0 (20230707.0739)
 -->
<!-- Title: PwrCtrl_PWM_SetDutyCyclePrimary Pages: 1 -->
<svg width="348pt" height="104pt"
 viewBox="0.00 0.00 347.50 104.00" xmlns="http://www.w3.org/2000/svg" xmlns:xlink="http://www.w3.org/1999/xlink">
<g id="graph0" class="graph" transform="scale(1 1) rotate(0) translate(4 100)">
<title>PwrCtrl_PWM_SetDutyCyclePrimary</title>
<!-- Node1 -->
<g id="Node000001" class="node">
<title>Node1</title>
<g id="a_Node000001"><a xlink:title="set the PWM output to particular duty cycle.">
<polygon fill="#999999" stroke="#666666" points="142.75,-64 0,-64 0,-32 142.75,-32 142.75,-64"/>
<text text-anchor="start" x="8" y="-50.5" font-family="Helvetica,sans-Serif" font-size="10.00">PwrCtrl_PWM_SetDutyCycle</text>
<text text-anchor="middle" x="71.38" y="-38.5" font-family="Helvetica,sans-Serif" font-size="10.00">Primary</text>
</a>
</g>
</g>
<!-- Node2 -->
<g id="Node000002" class="node">
<title>Node2</title>
<g id="a_Node000002"><a xlink:href="a00454.html#ga83e780358618114f0d424ca7467cf751" target="_top" xlink:title="This inline function requests to update the data registers for specific PWM generator selected by the...">
<polygon fill="white" stroke="#666666" points="334.25,-96 184,-96 184,-76 334.25,-76 334.25,-96"/>
<text text-anchor="middle" x="259.12" y="-82.5" font-family="Helvetica,sans-Serif" font-size="10.00">PWM_SoftwareUpdateRequest</text>
</a>
</g>
</g>
<!-- Node1&#45;&gt;Node2 -->
<g id="edge1_Node000001_Node000002" class="edge">
<title>Node1&#45;&gt;Node2</title>
<g id="a_edge1_Node000001_Node000002"><a xlink:title=" ">
<path fill="none" stroke="#63b8ff" d="M143.13,-62.47C160.7,-66.07 179.4,-69.89 196.5,-73.39"/>
<polygon fill="#63b8ff" stroke="#63b8ff" points="195.42,-76.95 205.91,-75.52 196.82,-70.09 195.42,-76.95"/>
</a>
</g>
</g>
<!-- Node3 -->
<g id="Node000003" class="node">
<title>Node3</title>
<g id="a_Node000003"><a xlink:href="a00454.html#ga3453a907bf8e14bb9bb434ddd0e82500" target="_top" xlink:title="This inline function sets the Trigger B compare value in count for a specific PWM generator selected ...">
<polygon fill="white" stroke="#666666" points="339.5,-58 178.75,-58 178.75,-38 339.5,-38 339.5,-58"/>
<text text-anchor="middle" x="259.12" y="-44.5" font-family="Helvetica,sans-Serif" font-size="10.00">PWM_TriggerBCompareValueSet</text>
</a>
</g>
</g>
<!-- Node1&#45;&gt;Node3 -->
<g id="edge2_Node000001_Node000003" class="edge">
<title>Node1&#45;&gt;Node3</title>
<g id="a_edge2_Node000001_Node000003"><a xlink:title=" ">
<path fill="none" stroke="#63b8ff" d="M143.13,-48C151.11,-48 159.33,-48 167.52,-48"/>
<polygon fill="#63b8ff" stroke="#63b8ff" points="167.26,-51.5 177.26,-48 167.26,-44.5 167.26,-51.5"/>
</a>
</g>
</g>
<!-- Node4 -->
<g id="Node000004" class="node">
<title>Node4</title>
<g id="a_Node000004"><a xlink:href="a00454.html#gacc5575148a6e8da6577d9be9e20541ce" target="_top" xlink:title="This inline function sets the Trigger C compare value in count for a specific PWM generator selected ...">
<polygon fill="white" stroke="#666666" points="339.5,-20 178.75,-20 178.75,0 339.5,0 339.5,-20"/>
<text text-anchor="middle" x="259.12" y="-6.5" font-family="Helvetica,sans-Serif" font-size="10.00">PWM_TriggerCCompareValueSet</text>
</a>
</g>
</g>
<!-- Node1&#45;&gt;Node4 -->
<g id="edge3_Node000001_Node000004" class="edge">
<title>Node1&#45;&gt;Node4</title>
<g id="a_edge3_Node000001_Node000004"><a xlink:title=" ">
<path fill="none" stroke="#63b8ff" d="M143.13,-33.53C160.7,-29.93 179.4,-26.11 196.5,-22.61"/>
<polygon fill="#63b8ff" stroke="#63b8ff" points="196.82,-25.91 205.91,-20.48 195.42,-19.05 196.82,-25.91"/>
</a>
</g>
</g>
</g>
</svg>
