<?xml version="1.0" encoding="UTF-8" standalone="no"?>
<!DOCTYPE svg PUBLIC "-//W3C//DTD SVG 1.1//EN"
 "http://www.w3.org/Graphics/SVG/1.1/DTD/svg11.dtd">
<!-- Generated by graphviz version 8.1.0 (20230707.0739)
 -->
<!-- Title: psfb_droop.X/sources/pwrctrl/pwrctrl_pwm.h Pages: 1 -->
<svg width="400pt" height="376pt"
 viewBox="0.00 0.00 400.12 376.00" xmlns="http://www.w3.org/2000/svg" xmlns:xlink="http://www.w3.org/1999/xlink">
<g id="graph0" class="graph" transform="scale(1 1) rotate(0) translate(4 372)">
<title>psfb_droop.X/sources/pwrctrl/pwrctrl_pwm.h</title>
<!-- Node1 -->
<g id="Node000001" class="node">
<title>Node1</title>
<g id="a_Node000001"><a xlink:title="Contains public functions for PWM.">
<polygon fill="#999999" stroke="#666666" points="142.5,-368 29.75,-368 29.75,-336 142.5,-336 142.5,-368"/>
<text text-anchor="start" x="37.75" y="-354.5" font-family="Helvetica,sans-Serif" font-size="10.00">psfb_droop.X/sources</text>
<text text-anchor="middle" x="86.12" y="-342.5" font-family="Helvetica,sans-Serif" font-size="10.00">/pwrctrl/pwrctrl_pwm.h</text>
</a>
</g>
</g>
<!-- Node2 -->
<g id="Node000002" class="node">
<title>Node2</title>
<g id="a_Node000002"><a xlink:href="a00416_source.html" target="_top" xlink:title=" ">
<polygon fill="white" stroke="#666666" points="103.88,-188 14.38,-188 14.38,-168 103.88,-168 103.88,-188"/>
<text text-anchor="middle" x="59.12" y="-174.5" font-family="Helvetica,sans-Serif" font-size="10.00">pwrctrl_typedef.h</text>
</a>
</g>
</g>
<!-- Node1&#45;&gt;Node2 -->
<g id="edge1_Node000001_Node000002" class="edge">
<title>Node1&#45;&gt;Node2</title>
<g id="a_edge1_Node000001_Node000002"><a xlink:title=" ">
<path fill="none" stroke="#63b8ff" d="M82.3,-335.51C77.33,-314.8 68.75,-276.87 64.12,-244 62.02,-229.05 60.75,-212.04 60.02,-199.16"/>
<polygon fill="#63b8ff" stroke="#63b8ff" points="63.47,-199.11 59.47,-189.3 56.48,-199.46 63.47,-199.11"/>
</a>
</g>
</g>
<!-- Node7 -->
<g id="Node000007" class="node">
<title>Node7</title>
<g id="a_Node000007"><a xlink:href="a00383_source.html" target="_top" xlink:title=" ">
<polygon fill="white" stroke="#666666" points="193.25,-300 109,-300 109,-280 193.25,-280 193.25,-300"/>
<text text-anchor="middle" x="151.12" y="-286.5" font-family="Helvetica,sans-Serif" font-size="10.00">pwrctrl/pwrctrl.h</text>
</a>
</g>
</g>
<!-- Node1&#45;&gt;Node7 -->
<g id="edge6_Node000001_Node000007" class="edge">
<title>Node1&#45;&gt;Node7</title>
<g id="a_edge6_Node000001_Node000007"><a xlink:title=" ">
<path fill="none" stroke="#63b8ff" d="M102.86,-335.55C112.08,-327.04 123.53,-316.48 132.96,-307.77"/>
<polygon fill="#63b8ff" stroke="#63b8ff" points="134.96,-310.76 139.93,-301.41 130.21,-305.62 134.96,-310.76"/>
</a>
</g>
</g>
<!-- Node3 -->
<g id="Node000003" class="node">
<title>Node3</title>
<g id="a_Node000003"><a xlink:href="a00317.html" target="_top" xlink:title="Contains fault data types.">
<polygon fill="white" stroke="#666666" points="109.12,-132 9.12,-132 9.12,-112 109.12,-112 109.12,-132"/>
<text text-anchor="middle" x="59.12" y="-118.5" font-family="Helvetica,sans-Serif" font-size="10.00">fault/fault_typedef.h</text>
</a>
</g>
</g>
<!-- Node2&#45;&gt;Node3 -->
<g id="edge2_Node000002_Node000003" class="edge">
<title>Node2&#45;&gt;Node3</title>
<g id="a_edge2_Node000002_Node000003"><a xlink:title=" ">
<path fill="none" stroke="#63b8ff" d="M59.12,-167.59C59.12,-160.86 59.12,-151.53 59.12,-143.15"/>
<polygon fill="#63b8ff" stroke="#63b8ff" points="62.63,-143.3 59.12,-133.3 55.63,-143.3 62.63,-143.3"/>
</a>
</g>
</g>
<!-- Node4 -->
<g id="Node000004" class="node">
<title>Node4</title>
<g id="a_Node000004"><a xlink:href="a00308.html" target="_top" xlink:title="Contains fault generic public functions.">
<polygon fill="white" stroke="#666666" points="101.62,-76 16.62,-76 16.62,-56 101.62,-56 101.62,-76"/>
<text text-anchor="middle" x="59.12" y="-62.5" font-family="Helvetica,sans-Serif" font-size="10.00">fault_common.h</text>
</a>
</g>
</g>
<!-- Node3&#45;&gt;Node4 -->
<g id="edge3_Node000003_Node000004" class="edge">
<title>Node3&#45;&gt;Node4</title>
<g id="a_edge3_Node000003_Node000004"><a xlink:title=" ">
<path fill="none" stroke="#63b8ff" d="M59.12,-111.59C59.12,-104.86 59.12,-95.53 59.12,-87.15"/>
<polygon fill="#63b8ff" stroke="#63b8ff" points="62.63,-87.3 59.12,-77.3 55.63,-87.3 62.63,-87.3"/>
</a>
</g>
</g>
<!-- Node5 -->
<g id="Node000005" class="node">
<title>Node5</title>
<g id="a_Node000005"><a xlink:title=" ">
<polygon fill="#e0e0e0" stroke="#999999" points="48.25,-20 0,-20 0,0 48.25,0 48.25,-20"/>
<text text-anchor="middle" x="24.12" y="-6.5" font-family="Helvetica,sans-Serif" font-size="10.00">stdint.h</text>
</a>
</g>
</g>
<!-- Node4&#45;&gt;Node5 -->
<g id="edge4_Node000004_Node000005" class="edge">
<title>Node4&#45;&gt;Node5</title>
<g id="a_edge4_Node000004_Node000005"><a xlink:title=" ">
<path fill="none" stroke="#63b8ff" d="M53.03,-55.59C48.36,-48.39 41.78,-38.23 36.07,-29.43"/>
<polygon fill="#63b8ff" stroke="#63b8ff" points="38.53,-27.79 30.15,-21.3 32.65,-31.59 38.53,-27.79"/>
</a>
</g>
</g>
<!-- Node6 -->
<g id="Node000006" class="node">
<title>Node6</title>
<g id="a_Node000006"><a xlink:title=" ">
<polygon fill="#e0e0e0" stroke="#999999" points="122,-20 66.25,-20 66.25,0 122,0 122,-20"/>
<text text-anchor="middle" x="94.12" y="-6.5" font-family="Helvetica,sans-Serif" font-size="10.00">stdbool.h</text>
</a>
</g>
</g>
<!-- Node4&#45;&gt;Node6 -->
<g id="edge5_Node000004_Node000006" class="edge">
<title>Node4&#45;&gt;Node6</title>
<g id="a_edge5_Node000004_Node000006"><a xlink:title=" ">
<path fill="none" stroke="#63b8ff" d="M65.22,-55.59C69.89,-48.39 76.47,-38.23 82.18,-29.43"/>
<polygon fill="#63b8ff" stroke="#63b8ff" points="85.6,-31.59 88.1,-21.3 79.72,-27.79 85.6,-31.59"/>
</a>
</g>
</g>
<!-- Node7&#45;&gt;Node2 -->
<g id="edge7_Node000007_Node000002" class="edge">
<title>Node7&#45;&gt;Node2</title>
<g id="a_edge7_Node000007_Node000002"><a xlink:title=" ">
<path fill="none" stroke="#63b8ff" d="M126.83,-279.55C110.82,-272.14 90.58,-260.34 78.12,-244 68.2,-230.98 63.45,-212.9 61.18,-199.11"/>
<polygon fill="#63b8ff" stroke="#63b8ff" points="64.54,-198.79 59.76,-189.34 57.6,-199.71 64.54,-198.79"/>
</a>
</g>
</g>
<!-- Node8 -->
<g id="Node000008" class="node">
<title>Node8</title>
<g id="a_Node000008"><a xlink:href="a00395.html" target="_top" xlink:title="Contains public functions relevant for power control communication interface.">
<polygon fill="white" stroke="#666666" points="214.62,-244 87.62,-244 87.62,-224 214.62,-224 214.62,-244"/>
<text text-anchor="middle" x="151.12" y="-230.5" font-family="Helvetica,sans-Serif" font-size="10.00">pwrctrl_comm_interface.h</text>
</a>
</g>
</g>
<!-- Node7&#45;&gt;Node8 -->
<g id="edge8_Node000007_Node000008" class="edge">
<title>Node7&#45;&gt;Node8</title>
<g id="a_edge8_Node000007_Node000008"><a xlink:title=" ">
<path fill="none" stroke="#63b8ff" d="M151.12,-279.59C151.12,-272.86 151.12,-263.53 151.12,-255.15"/>
<polygon fill="#63b8ff" stroke="#63b8ff" points="154.63,-255.3 151.12,-245.3 147.63,-255.3 154.63,-255.3"/>
</a>
</g>
</g>
<!-- Node9 -->
<g id="Node000009" class="node">
<title>Node9</title>
<g id="a_Node000009"><a xlink:href="a00389.html" target="_top" xlink:title="Contains the power control reusable functions.">
<polygon fill="white" stroke="#666666" points="327.88,-244 232.38,-244 232.38,-224 327.88,-224 327.88,-244"/>
<text text-anchor="middle" x="280.12" y="-230.5" font-family="Helvetica,sans-Serif" font-size="10.00">pwrctrl_common.h</text>
</a>
</g>
</g>
<!-- Node7&#45;&gt;Node9 -->
<g id="edge9_Node000007_Node000009" class="edge">
<title>Node7&#45;&gt;Node9</title>
<g id="a_edge9_Node000007_Node000009"><a xlink:title=" ">
<path fill="none" stroke="#63b8ff" d="M173.6,-279.59C194,-271.05 224.35,-258.35 247.44,-248.68"/>
<polygon fill="#63b8ff" stroke="#63b8ff" points="248.61,-251.57 256.48,-244.48 245.9,-245.11 248.61,-251.57"/>
</a>
</g>
</g>
<!-- Node10 -->
<g id="Node000010" class="node">
<title>Node10</title>
<g id="a_Node000010"><a xlink:title=" ">
<polygon fill="#e0e0e0" stroke="#999999" points="392.12,-244 346.12,-244 346.12,-224 392.12,-224 392.12,-244"/>
<text text-anchor="middle" x="369.12" y="-230.5" font-family="Helvetica,sans-Serif" font-size="10.00">math.h</text>
</a>
</g>
</g>
<!-- Node7&#45;&gt;Node10 -->
<g id="edge11_Node000007_Node000010" class="edge">
<title>Node7&#45;&gt;Node10</title>
<g id="a_edge11_Node000007_Node000010"><a xlink:title=" ">
<path fill="none" stroke="#63b8ff" d="M192.24,-279.51C227.71,-271.22 280.58,-258.63 335.16,-244.45"/>
<polygon fill="#63b8ff" stroke="#63b8ff" points="335.94,-247.6 344.73,-241.69 334.17,-240.83 335.94,-247.6"/>
</a>
</g>
</g>
<!-- Node9&#45;&gt;Node2 -->
<g id="edge10_Node000009_Node000002" class="edge">
<title>Node9&#45;&gt;Node2</title>
<g id="a_edge10_Node000009_Node000002"><a xlink:title=" ">
<path fill="none" stroke="#63b8ff" d="M241.38,-223.53C204.41,-214.5 148.57,-200.85 108.44,-191.05"/>
<polygon fill="#63b8ff" stroke="#63b8ff" points="109.37,-187.43 98.83,-188.46 107.71,-194.23 109.37,-187.43"/>
</a>
</g>
</g>
</g>
</svg>
