<?xml version="1.0" encoding="UTF-8" standalone="no"?>
<!DOCTYPE svg PUBLIC "-//W3C//DTD SVG 1.1//EN"
 "http://www.w3.org/Graphics/SVG/1.1/DTD/svg11.dtd">
<!-- Generated by graphviz version 8.1.0 (20230707.0739)
 -->
<!-- Title: PCS_PRECHARGE_handler Pages: 1 -->
<svg width="531pt" height="160pt"
 viewBox="0.00 0.00 530.75 160.00" xmlns="http://www.w3.org/2000/svg" xmlns:xlink="http://www.w3.org/1999/xlink">
<g id="graph0" class="graph" transform="scale(1 1) rotate(0) translate(4 156)">
<title>PCS_PRECHARGE_handler</title>
<!-- Node1 -->
<g id="Node000001" class="node">
<title>Node1</title>
<g id="a_Node000001"><a xlink:title="Executes Standby State machine.">
<polygon fill="#999999" stroke="#666666" points="139.75,-86 0,-86 0,-66 139.75,-66 139.75,-86"/>
<text text-anchor="middle" x="69.88" y="-72.5" font-family="Helvetica,sans-Serif" font-size="10.00">PCS_PRECHARGE_handler</text>
</a>
</g>
</g>
<!-- Node2 -->
<g id="Node000002" class="node">
<title>Node2</title>
<g id="a_Node000002"><a xlink:href="a00443.html#ga8ed0fee0d3aff71d49470aab1728a6ae" target="_top" xlink:title="Clears the fault object flag bits.">
<polygon fill="white" stroke="#666666" points="285.12,-152 216.62,-152 216.62,-132 285.12,-132 285.12,-152"/>
<text text-anchor="middle" x="250.88" y="-138.5" font-family="Helvetica,sans-Serif" font-size="10.00">Fault_Reset</text>
</a>
</g>
</g>
<!-- Node1&#45;&gt;Node2 -->
<g id="edge1_Node000001_Node000002" class="edge">
<title>Node1&#45;&gt;Node2</title>
<g id="a_edge1_Node000001_Node000002"><a xlink:title=" ">
<path fill="none" stroke="#63b8ff" d="M91.34,-86.43C112.18,-96.74 145.61,-112.47 175.75,-123 185.33,-126.35 195.79,-129.39 205.75,-132.01"/>
<polygon fill="#63b8ff" stroke="#63b8ff" points="204.75,-135.62 215.31,-134.68 206.47,-128.83 204.75,-135.62"/>
</a>
</g>
</g>
<!-- Node3 -->
<g id="Node000003" class="node">
<title>Node3</title>
<g id="a_Node000003"><a xlink:href="a00436.html#gadd5e4ddb9642de13028547e4a4316f0c" target="_top" xlink:title="set the PWM output to particular duty cycle.">
<polygon fill="white" stroke="#666666" points="322.25,-114 179.5,-114 179.5,-82 322.25,-82 322.25,-114"/>
<text text-anchor="start" x="187.5" y="-100.5" font-family="Helvetica,sans-Serif" font-size="10.00">PwrCtrl_PWM_SetDutyCycle</text>
<text text-anchor="middle" x="250.88" y="-88.5" font-family="Helvetica,sans-Serif" font-size="10.00">Primary</text>
</a>
</g>
</g>
<!-- Node1&#45;&gt;Node3 -->
<g id="edge2_Node000001_Node000003" class="edge">
<title>Node1&#45;&gt;Node3</title>
<g id="a_edge2_Node000001_Node000003"><a xlink:title=" ">
<path fill="none" stroke="#63b8ff" d="M140.08,-84.51C149.37,-85.65 158.97,-86.83 168.45,-87.99"/>
<polygon fill="#63b8ff" stroke="#63b8ff" points="167.73,-91.55 178.08,-89.3 168.58,-84.61 167.73,-91.55"/>
</a>
</g>
</g>
<!-- Node7 -->
<g id="Node000007" class="node">
<title>Node7</title>
<g id="a_Node000007"><a xlink:href="a00436.html#gae13a0db6addfe827e4c48e0f2250e3f2" target="_top" xlink:title="Disable the PWM output.">
<polygon fill="white" stroke="#666666" points="326,-64 175.75,-64 175.75,-44 326,-44 326,-64"/>
<text text-anchor="middle" x="250.88" y="-50.5" font-family="Helvetica,sans-Serif" font-size="10.00">PwrCtrl_PWM_Stop_Switching</text>
</a>
</g>
</g>
<!-- Node1&#45;&gt;Node7 -->
<g id="edge6_Node000001_Node000007" class="edge">
<title>Node1&#45;&gt;Node7</title>
<g id="a_edge6_Node000001_Node000007"><a xlink:title=" ">
<path fill="none" stroke="#63b8ff" d="M140.08,-67.49C148.15,-66.5 156.46,-65.48 164.71,-64.47"/>
<polygon fill="#63b8ff" stroke="#63b8ff" points="165.01,-67.83 174.51,-63.14 164.16,-60.89 165.01,-67.83"/>
</a>
</g>
</g>
<!-- Node8 -->
<g id="Node000008" class="node">
<title>Node8</title>
<g id="a_Node000008"><a xlink:href="a00434.html#ga8c07187b0c96b5916e4b46daa47500c5" target="_top" xlink:title="Resets the power control properties.">
<polygon fill="white" stroke="#666666" points="290,-26 211.75,-26 211.75,-6 290,-6 290,-26"/>
<text text-anchor="middle" x="250.88" y="-12.5" font-family="Helvetica,sans-Serif" font-size="10.00">PwrCtrl_Reset</text>
</a>
</g>
</g>
<!-- Node1&#45;&gt;Node8 -->
<g id="edge7_Node000001_Node000008" class="edge">
<title>Node1&#45;&gt;Node8</title>
<g id="a_edge7_Node000001_Node000008"><a xlink:title=" ">
<path fill="none" stroke="#63b8ff" d="M95.15,-65.54C116.21,-56.69 147.65,-44.06 175.75,-35 183.84,-32.39 192.52,-29.9 200.98,-27.63"/>
<polygon fill="#63b8ff" stroke="#63b8ff" points="201.74,-30.79 210.53,-24.88 199.97,-24.02 201.74,-30.79"/>
</a>
</g>
</g>
<!-- Node4 -->
<g id="Node000004" class="node">
<title>Node4</title>
<g id="a_Node000004"><a xlink:href="a00454.html#ga83e780358618114f0d424ca7467cf751" target="_top" xlink:title="This inline function requests to update the data registers for specific PWM generator selected by the...">
<polygon fill="white" stroke="#666666" points="517.5,-146 367.25,-146 367.25,-126 517.5,-126 517.5,-146"/>
<text text-anchor="middle" x="442.38" y="-132.5" font-family="Helvetica,sans-Serif" font-size="10.00">PWM_SoftwareUpdateRequest</text>
</a>
</g>
</g>
<!-- Node3&#45;&gt;Node4 -->
<g id="edge3_Node000003_Node000004" class="edge">
<title>Node3&#45;&gt;Node4</title>
<g id="a_edge3_Node000003_Node000004"><a xlink:title=" ">
<path fill="none" stroke="#63b8ff" d="M322.71,-112.2C341.08,-115.89 360.73,-119.83 378.65,-123.42"/>
<polygon fill="#63b8ff" stroke="#63b8ff" points="377.77,-127.02 388.26,-125.55 379.15,-120.15 377.77,-127.02"/>
</a>
</g>
</g>
<!-- Node5 -->
<g id="Node000005" class="node">
<title>Node5</title>
<g id="a_Node000005"><a xlink:href="a00454.html#ga3453a907bf8e14bb9bb434ddd0e82500" target="_top" xlink:title="This inline function sets the Trigger B compare value in count for a specific PWM generator selected ...">
<polygon fill="white" stroke="#666666" points="522.75,-108 362,-108 362,-88 522.75,-88 522.75,-108"/>
<text text-anchor="middle" x="442.38" y="-94.5" font-family="Helvetica,sans-Serif" font-size="10.00">PWM_TriggerBCompareValueSet</text>
</a>
</g>
</g>
<!-- Node3&#45;&gt;Node5 -->
<g id="edge4_Node000003_Node000005" class="edge">
<title>Node3&#45;&gt;Node5</title>
<g id="a_edge4_Node000003_Node000005"><a xlink:title=" ">
<path fill="none" stroke="#63b8ff" d="M322.71,-98C331.85,-98 341.31,-98 350.72,-98"/>
<polygon fill="#63b8ff" stroke="#63b8ff" points="350.71,-101.5 360.71,-98 350.71,-94.5 350.71,-101.5"/>
</a>
</g>
</g>
<!-- Node6 -->
<g id="Node000006" class="node">
<title>Node6</title>
<g id="a_Node000006"><a xlink:href="a00454.html#gacc5575148a6e8da6577d9be9e20541ce" target="_top" xlink:title="This inline function sets the Trigger C compare value in count for a specific PWM generator selected ...">
<polygon fill="white" stroke="#666666" points="522.75,-70 362,-70 362,-50 522.75,-50 522.75,-70"/>
<text text-anchor="middle" x="442.38" y="-56.5" font-family="Helvetica,sans-Serif" font-size="10.00">PWM_TriggerCCompareValueSet</text>
</a>
</g>
</g>
<!-- Node3&#45;&gt;Node6 -->
<g id="edge5_Node000003_Node000006" class="edge">
<title>Node3&#45;&gt;Node6</title>
<g id="a_edge5_Node000003_Node000006"><a xlink:title=" ">
<path fill="none" stroke="#63b8ff" d="M322.71,-83.8C341.08,-80.11 360.73,-76.17 378.65,-72.58"/>
<polygon fill="#63b8ff" stroke="#63b8ff" points="379.15,-75.85 388.26,-70.45 377.77,-68.98 379.15,-75.85"/>
</a>
</g>
</g>
<!-- Node9 -->
<g id="Node000009" class="node">
<title>Node9</title>
<g id="a_Node000009"><a xlink:href="a00438.html#gae5d978249e235e284da922df5ec4363a" target="_top" xlink:title="Clear the control and error histories of the control loops.">
<polygon fill="white" stroke="#666666" points="507.38,-32 377.38,-32 377.38,0 507.38,0 507.38,-32"/>
<text text-anchor="start" x="385.38" y="-18.5" font-family="Helvetica,sans-Serif" font-size="10.00">PwrCtrl_ResetControlLoop</text>
<text text-anchor="middle" x="442.38" y="-6.5" font-family="Helvetica,sans-Serif" font-size="10.00">Histories</text>
</a>
</g>
</g>
<!-- Node8&#45;&gt;Node9 -->
<g id="edge8_Node000008_Node000009" class="edge">
<title>Node8&#45;&gt;Node9</title>
<g id="a_edge8_Node000008_Node000009"><a xlink:title=" ">
<path fill="none" stroke="#63b8ff" d="M290.22,-16C311.99,-16 340,-16 365.98,-16"/>
<polygon fill="#63b8ff" stroke="#63b8ff" points="365.96,-19.5 375.96,-16 365.96,-12.5 365.96,-19.5"/>
</a>
</g>
</g>
</g>
</svg>
