<?xml version="1.0" encoding="UTF-8" standalone="no"?>
<!DOCTYPE svg PUBLIC "-//W3C//DTD SVG 1.1//EN"
 "http://www.w3.org/Graphics/SVG/1.1/DTD/svg11.dtd">
<!-- Generated by graphviz version 8.1.0 (20230707.0739)
 -->
<!-- Title: PwrCtrl_ControlLoopExecute Pages: 1 -->
<svg width="526pt" height="199pt"
 viewBox="0.00 0.00 525.50 199.00" xmlns="http://www.w3.org/2000/svg" xmlns:xlink="http://www.w3.org/1999/xlink">
<g id="graph0" class="graph" transform="scale(1 1) rotate(0) translate(4 195)">
<title>PwrCtrl_ControlLoopExecute</title>
<!-- Node1 -->
<g id="Node000001" class="node">
<title>Node1</title>
<g id="a_Node000001"><a xlink:title="Executes the power converter control loop.">
<polygon fill="#999999" stroke="#666666" points="140.5,-77 0,-77 0,-57 140.5,-57 140.5,-77"/>
<text text-anchor="middle" x="70.25" y="-63.5" font-family="Helvetica,sans-Serif" font-size="10.00">PwrCtrl_ControlLoopExecute</text>
</a>
</g>
</g>
<!-- Node2 -->
<g id="Node000002" class="node">
<title>Node2</title>
<g id="a_Node000002"><a xlink:href="a00436.html#ga054f3de472c33a84cb37459b27a0d3b3" target="_top" xlink:title="PWM distribution for PSFB converter.">
<polygon fill="white" stroke="#666666" points="305.38,-134 191.88,-134 191.88,-114 305.38,-114 305.38,-134"/>
<text text-anchor="middle" x="248.62" y="-120.5" font-family="Helvetica,sans-Serif" font-size="10.00">PwrCtrl_PWM_Update</text>
</a>
</g>
</g>
<!-- Node1&#45;&gt;Node2 -->
<g id="edge1_Node000001_Node000002" class="edge">
<title>Node1&#45;&gt;Node2</title>
<g id="a_edge1_Node000001_Node000002"><a xlink:title=" ">
<path fill="none" stroke="#63b8ff" d="M98.29,-77.48C119.42,-85.5 149.62,-96.57 176.5,-105 182.74,-106.96 189.33,-108.89 195.88,-110.73"/>
<polygon fill="#63b8ff" stroke="#63b8ff" points="194.51,-114.26 205.08,-113.54 196.37,-107.51 194.51,-114.26"/>
</a>
</g>
</g>
<!-- Node7 -->
<g id="Node000007" class="node">
<title>Node7</title>
<g id="a_Node000007"><a xlink:href="a00439.html#gae62d241af8152bb7989d448f30adc55e" target="_top" xlink:title="API function to set the target PWM phase.">
<polygon fill="white" stroke="#666666" points="309.88,-96 187.38,-96 187.38,-76 309.88,-76 309.88,-96"/>
<text text-anchor="middle" x="248.62" y="-82.5" font-family="Helvetica,sans-Serif" font-size="10.00">PwrCtrl_SetPhaseTarget</text>
</a>
</g>
</g>
<!-- Node1&#45;&gt;Node7 -->
<g id="edge6_Node000001_Node000007" class="edge">
<title>Node1&#45;&gt;Node7</title>
<g id="a_edge6_Node000001_Node000007"><a xlink:title=" ">
<path fill="none" stroke="#63b8ff" d="M140.96,-74.51C152.61,-75.76 164.7,-77.07 176.39,-78.33"/>
<polygon fill="#63b8ff" stroke="#63b8ff" points="175.66,-81.88 185.98,-79.47 176.41,-74.92 175.66,-81.88"/>
</a>
</g>
</g>
<!-- Node8 -->
<g id="Node000008" class="node">
<title>Node8</title>
<g id="a_Node000008"><a xlink:href="a00374.html#ac4c8852561395f2969c08ff062325e03" target="_top" xlink:title=" ">
<polygon fill="white" stroke="#666666" points="320.75,-58 176.5,-58 176.5,-38 320.75,-38 320.75,-58"/>
<text text-anchor="middle" x="248.62" y="-44.5" font-family="Helvetica,sans-Serif" font-size="10.00">SMPS_Controller2P2ZUpdate</text>
</a>
</g>
</g>
<!-- Node1&#45;&gt;Node8 -->
<g id="edge7_Node000001_Node000008" class="edge">
<title>Node1&#45;&gt;Node8</title>
<g id="a_edge7_Node000001_Node000008"><a xlink:title=" ">
<path fill="none" stroke="#63b8ff" d="M140.96,-59.49C148.99,-58.63 157.24,-57.74 165.42,-56.86"/>
<polygon fill="#63b8ff" stroke="#63b8ff" points="165.54,-60.26 175.11,-55.7 164.79,-53.3 165.54,-60.26"/>
</a>
</g>
</g>
<!-- Node9 -->
<g id="Node000009" class="node">
<title>Node9</title>
<g id="a_Node000009"><a xlink:href="a00374.html#a8ba04b5d00e0c881d269a9429b3ed34b" target="_top" xlink:title=" ">
<polygon fill="white" stroke="#666666" points="320.75,-20 176.5,-20 176.5,0 320.75,0 320.75,-20"/>
<text text-anchor="middle" x="248.62" y="-6.5" font-family="Helvetica,sans-Serif" font-size="10.00">SMPS_Controller3P3ZUpdate</text>
</a>
</g>
</g>
<!-- Node1&#45;&gt;Node9 -->
<g id="edge8_Node000001_Node000009" class="edge">
<title>Node1&#45;&gt;Node9</title>
<g id="a_edge8_Node000001_Node000009"><a xlink:title=" ">
<path fill="none" stroke="#63b8ff" d="M98.29,-56.52C119.42,-48.5 149.62,-37.43 176.5,-29 182.74,-27.04 189.33,-25.11 195.88,-23.27"/>
<polygon fill="#63b8ff" stroke="#63b8ff" points="196.37,-26.49 205.08,-20.46 194.51,-19.74 196.37,-26.49"/>
</a>
</g>
</g>
<!-- Node3 -->
<g id="Node000003" class="node">
<title>Node3</title>
<g id="a_Node000003"><a xlink:href="a00454.html#ga37968a783e44cd80643478d2b559dbf4" target="_top" xlink:title="This inline function sets the PWM generator specific duty cycle register.">
<polygon fill="white" stroke="#666666" points="490.12,-191 384.12,-191 384.12,-171 490.12,-171 490.12,-191"/>
<text text-anchor="middle" x="437.12" y="-177.5" font-family="Helvetica,sans-Serif" font-size="10.00">PWM_DutyCycleSet</text>
</a>
</g>
</g>
<!-- Node2&#45;&gt;Node3 -->
<g id="edge2_Node000002_Node000003" class="edge">
<title>Node2&#45;&gt;Node3</title>
<g id="a_edge2_Node000002_Node000003"><a xlink:title=" ">
<path fill="none" stroke="#63b8ff" d="M276.66,-134.49C298.17,-142.61 329.12,-153.82 356.75,-162 363.69,-164.05 371.02,-166.05 378.3,-167.92"/>
<polygon fill="#63b8ff" stroke="#63b8ff" points="377.35,-171.54 387.9,-170.56 379.05,-164.74 377.35,-171.54"/>
</a>
</g>
</g>
<!-- Node4 -->
<g id="Node000004" class="node">
<title>Node4</title>
<g id="a_Node000004"><a xlink:href="a00454.html#ga83e780358618114f0d424ca7467cf751" target="_top" xlink:title="This inline function requests to update the data registers for specific PWM generator selected by the...">
<polygon fill="white" stroke="#666666" points="512.25,-153 362,-153 362,-133 512.25,-133 512.25,-153"/>
<text text-anchor="middle" x="437.12" y="-139.5" font-family="Helvetica,sans-Serif" font-size="10.00">PWM_SoftwareUpdateRequest</text>
</a>
</g>
</g>
<!-- Node2&#45;&gt;Node4 -->
<g id="edge3_Node000002_Node000004" class="edge">
<title>Node2&#45;&gt;Node4</title>
<g id="a_edge3_Node000002_Node000004"><a xlink:title=" ">
<path fill="none" stroke="#63b8ff" d="M305.83,-129.73C320.13,-131.18 335.8,-132.78 351.18,-134.35"/>
<polygon fill="#63b8ff" stroke="#63b8ff" points="350.45,-137.89 360.75,-135.42 351.16,-130.93 350.45,-137.89"/>
</a>
</g>
</g>
<!-- Node5 -->
<g id="Node000005" class="node">
<title>Node5</title>
<g id="a_Node000005"><a xlink:href="a00454.html#ga3453a907bf8e14bb9bb434ddd0e82500" target="_top" xlink:title="This inline function sets the Trigger B compare value in count for a specific PWM generator selected ...">
<polygon fill="white" stroke="#666666" points="517.5,-115 356.75,-115 356.75,-95 517.5,-95 517.5,-115"/>
<text text-anchor="middle" x="437.12" y="-101.5" font-family="Helvetica,sans-Serif" font-size="10.00">PWM_TriggerBCompareValueSet</text>
</a>
</g>
</g>
<!-- Node2&#45;&gt;Node5 -->
<g id="edge4_Node000002_Node000005" class="edge">
<title>Node2&#45;&gt;Node5</title>
<g id="a_edge4_Node000002_Node000005"><a xlink:title=" ">
<path fill="none" stroke="#63b8ff" d="M305.83,-118.27C318.36,-117 331.95,-115.61 345.47,-114.24"/>
<polygon fill="#63b8ff" stroke="#63b8ff" points="345.68,-117.63 355.27,-113.14 344.97,-110.67 345.68,-117.63"/>
</a>
</g>
</g>
<!-- Node6 -->
<g id="Node000006" class="node">
<title>Node6</title>
<g id="a_Node000006"><a xlink:href="a00454.html#gacc5575148a6e8da6577d9be9e20541ce" target="_top" xlink:title="This inline function sets the Trigger C compare value in count for a specific PWM generator selected ...">
<polygon fill="white" stroke="#666666" points="517.5,-77 356.75,-77 356.75,-57 517.5,-57 517.5,-77"/>
<text text-anchor="middle" x="437.12" y="-63.5" font-family="Helvetica,sans-Serif" font-size="10.00">PWM_TriggerCCompareValueSet</text>
</a>
</g>
</g>
<!-- Node2&#45;&gt;Node6 -->
<g id="edge5_Node000002_Node000006" class="edge">
<title>Node2&#45;&gt;Node6</title>
<g id="a_edge5_Node000002_Node000006"><a xlink:title=" ">
<path fill="none" stroke="#63b8ff" d="M294.89,-113.55C303.59,-111.08 312.54,-108.22 320.75,-105 337.6,-98.4 339.82,-92.38 356.75,-86 362.22,-83.94 367.99,-82.05 373.82,-80.33"/>
<polygon fill="#63b8ff" stroke="#63b8ff" points="374.62,-83.46 383.32,-77.41 372.75,-76.72 374.62,-83.46"/>
</a>
</g>
</g>
</g>
</svg>
