<?xml version="1.0" encoding="UTF-8" standalone="no"?>
<!DOCTYPE svg PUBLIC "-//W3C//DTD SVG 1.1//EN"
 "http://www.w3.org/Graphics/SVG/1.1/DTD/svg11.dtd">
<!-- Generated by graphviz version 8.1.0 (20230707.0739)
 -->
<!-- Title: CAN_MSG_OBJ Pages: 1 -->
<svg width="98pt" height="246pt"
 viewBox="0.00 0.00 98.00 246.00" xmlns="http://www.w3.org/2000/svg" xmlns:xlink="http://www.w3.org/1999/xlink">
<g id="graph0" class="graph" transform="scale(1 1) rotate(0) translate(4 242)">
<title>CAN_MSG_OBJ</title>
<!-- Node1 -->
<g id="Node000001" class="node">
<title>Node1</title>
<g id="a_Node000001"><a xlink:title="This data structure used to configure the CAN FD message object.">
<polygon fill="#999999" stroke="none" points="86,-68 4,-68 4,0 86,0 86,-68"/>
<text text-anchor="start" x="9" y="-54.5" font-family="Helvetica,sans-Serif" font-size="10.00">CAN_MSG_OBJ</text>
<text text-anchor="start" x="17.5" y="-38.5" font-family="Helvetica,sans-Serif" font-size="10.00">+</text>
<text text-anchor="start" x="37" y="-38.5" font-family="Helvetica,sans-Serif" font-size="10.00">msgId</text>
<text text-anchor="start" x="17.5" y="-22.5" font-family="Helvetica,sans-Serif" font-size="10.00">+</text>
<text text-anchor="start" x="37" y="-22.5" font-family="Helvetica,sans-Serif" font-size="10.00">data</text>
<text text-anchor="start" x="43.5" y="-6.5" font-family="Helvetica,sans-Serif" font-size="10.00"> </text>
<polygon fill="#666666" stroke="#666666" points="4,-50 4,-50 86,-50 86,-50 4,-50"/>
<polygon fill="#666666" stroke="#666666" points="4,-18 4,-18 35,-18 35,-18 4,-18"/>
<polygon fill="#666666" stroke="#666666" points="35,-18 35,-18 86,-18 86,-18 35,-18"/>
<polygon fill="none" stroke="#666666" points="4,0 4,-68 86,-68 86,0 4,0"/>
</a>
</g>
</g>
<!-- Node2 -->
<g id="Node000002" class="node">
<title>Node2</title>
<g id="a_Node000002"><a xlink:href="a00481.html" target="_top" xlink:title="This data structure used to configure the message fields. Some of the fields formatType and brs data ...">
<polygon fill="white" stroke="none" points="90,-238 0,-238 0,-122 90,-122 90,-238"/>
<text text-anchor="start" x="4.88" y="-224.5" font-family="Helvetica,sans-Serif" font-size="10.00">CAN_MSG_FIELD</text>
<text text-anchor="start" x="10" y="-208.5" font-family="Helvetica,sans-Serif" font-size="10.00">+</text>
<text text-anchor="start" x="26" y="-208.5" font-family="Helvetica,sans-Serif" font-size="10.00">idType</text>
<text text-anchor="start" x="10" y="-192.5" font-family="Helvetica,sans-Serif" font-size="10.00">+</text>
<text text-anchor="start" x="26" y="-192.5" font-family="Helvetica,sans-Serif" font-size="10.00">frameType</text>
<text text-anchor="start" x="10" y="-176.5" font-family="Helvetica,sans-Serif" font-size="10.00">+</text>
<text text-anchor="start" x="26" y="-176.5" font-family="Helvetica,sans-Serif" font-size="10.00">dlc</text>
<text text-anchor="start" x="10" y="-160.5" font-family="Helvetica,sans-Serif" font-size="10.00">+</text>
<text text-anchor="start" x="26" y="-160.5" font-family="Helvetica,sans-Serif" font-size="10.00">formatType</text>
<text text-anchor="start" x="10" y="-144.5" font-family="Helvetica,sans-Serif" font-size="10.00">+</text>
<text text-anchor="start" x="26" y="-144.5" font-family="Helvetica,sans-Serif" font-size="10.00">brs</text>
<text text-anchor="start" x="43.5" y="-128.5" font-family="Helvetica,sans-Serif" font-size="10.00"> </text>
<polygon fill="#666666" stroke="#666666" points="0,-220 0,-220 90,-220 90,-220 0,-220"/>
<polygon fill="#666666" stroke="#666666" points="0,-140 0,-140 24,-140 24,-140 0,-140"/>
<polygon fill="#666666" stroke="#666666" points="24,-140 24,-140 90,-140 90,-140 24,-140"/>
<polygon fill="none" stroke="#666666" points="0,-122 0,-238 90,-238 90,-122 0,-122"/>
</a>
</g>
</g>
<!-- Node2&#45;&gt;Node1 -->
<g id="edge1_Node000001_Node000002" class="edge">
<title>Node2&#45;&gt;Node1</title>
<g id="a_edge1_Node000001_Node000002"><a xlink:title=" ">
<path fill="none" stroke="#63b8ff" d="M45,-122.09C45,-108.29 45,-93.72 45,-80.53"/>
<polygon fill="none" stroke="#63b8ff" points="45,-80.77 41,-74.77 45,-68.77 49,-74.77 45,-80.77"/>
</a>
</g>
<text text-anchor="start" x="48" y="-91.5" font-family="Helvetica,sans-Serif" font-size="10.00" fill="grey">+field</text>
</g>
</g>
</svg>
