<?xml version="1.0" encoding="UTF-8" standalone="no"?>
<!DOCTYPE svg PUBLIC "-//W3C//DTD SVG 1.1//EN"
 "http://www.w3.org/Graphics/SVG/1.1/DTD/svg11.dtd">
<!-- Generated by graphviz version 8.1.0 (20230707.0739)
 -->
<!-- Title: Dev_PwrCtrl_GetIPri_Offset Pages: 1 -->
<svg width="430pt" height="40pt"
 viewBox="0.00 0.00 430.25 40.00" xmlns="http://www.w3.org/2000/svg" xmlns:xlink="http://www.w3.org/1999/xlink">
<g id="graph0" class="graph" transform="scale(1 1) rotate(0) translate(4 36)">
<title>Dev_PwrCtrl_GetIPri_Offset</title>
<!-- Node1 -->
<g id="Node000001" class="node">
<title>Node1</title>
<g id="a_Node000001"><a xlink:title="API function to get the value of the primary sensor offset value.">
<polygon fill="#999999" stroke="#666666" points="422.25,-32 318.5,-32 318.5,0 422.25,0 422.25,-32"/>
<text text-anchor="start" x="326.5" y="-18.5" font-family="Helvetica,sans-Serif" font-size="10.00">Dev_PwrCtrl_GetIPri</text>
<text text-anchor="middle" x="370.38" y="-6.5" font-family="Helvetica,sans-Serif" font-size="10.00">_Offset</text>
</a>
</g>
</g>
<!-- Node2 -->
<g id="Node000002" class="node">
<title>Node2</title>
<g id="a_Node000002"><a xlink:href="a00426.html#ga96b58cf519f2a436993861504db6b3e1" target="_top" xlink:title="this builds frame">
<polygon fill="white" stroke="#666666" points="282.5,-32 173.5,-32 173.5,0 282.5,0 282.5,-32"/>
<text text-anchor="start" x="181.5" y="-18.5" font-family="Helvetica,sans-Serif" font-size="10.00">App_PBV_psfb_Build</text>
<text text-anchor="middle" x="228" y="-6.5" font-family="Helvetica,sans-Serif" font-size="10.00">_Frame</text>
</a>
</g>
</g>
<!-- Node1&#45;&gt;Node2 -->
<g id="edge1_Node000001_Node000002" class="edge">
<title>Node1&#45;&gt;Node2</title>
<g id="a_edge1_Node000001_Node000002"><a xlink:title=" ">
<path fill="none" stroke="#63b8ff" d="M307.52,-16C299.23,-16 290.77,-16 282.64,-16"/>
<polygon fill="#63b8ff" stroke="#63b8ff" points="307.3,-19.5 317.3,-16 307.3,-12.5 307.3,-19.5"/>
</a>
</g>
</g>
<!-- Node3 -->
<g id="Node000003" class="node">
<title>Node3</title>
<g id="a_Node000003"><a xlink:href="a00426.html#ga34ef08c06d636819aa039ff4a8f85c50" target="_top" xlink:title="this is high frequency task to simulate sending of high frequency numeric data. Also to check if ther...">
<polygon fill="white" stroke="#666666" points="137.5,-26 0,-26 0,-6 137.5,-6 137.5,-26"/>
<text text-anchor="middle" x="68.75" y="-12.5" font-family="Helvetica,sans-Serif" font-size="10.00">App_PBV_psfb_Task_10ms</text>
</a>
</g>
</g>
<!-- Node2&#45;&gt;Node3 -->
<g id="edge2_Node000002_Node000003" class="edge">
<title>Node2&#45;&gt;Node3</title>
<g id="a_edge2_Node000002_Node000003"><a xlink:title=" ">
<path fill="none" stroke="#63b8ff" d="M162.45,-16C154.36,-16 146.07,-16 137.92,-16"/>
<polygon fill="#63b8ff" stroke="#63b8ff" points="162.32,-19.5 172.32,-16 162.32,-12.5 162.32,-19.5"/>
</a>
</g>
</g>
</g>
</svg>
