<?xml version="1.0" encoding="UTF-8" standalone="no"?>
<!DOCTYPE svg PUBLIC "-//W3C//DTD SVG 1.1//EN"
 "http://www.w3.org/Graphics/SVG/1.1/DTD/svg11.dtd">
<!-- Generated by graphviz version 8.1.0 (20230707.0739)
 -->
<!-- Title: dev_Get_SecondaryShuntOffset Pages: 1 -->
<svg width="453pt" height="28pt"
 viewBox="0.00 0.00 452.75 28.00" xmlns="http://www.w3.org/2000/svg" xmlns:xlink="http://www.w3.org/1999/xlink">
<g id="graph0" class="graph" transform="scale(1 1) rotate(0) translate(4 24)">
<title>dev_Get_SecondaryShuntOffset</title>
<!-- Node1 -->
<g id="Node000001" class="node">
<title>Node1</title>
<g id="a_Node000001"><a xlink:title=" ">
<polygon fill="#999999" stroke="#666666" points="154,-20 0,-20 0,0 154,0 154,-20"/>
<text text-anchor="middle" x="77" y="-6.5" font-family="Helvetica,sans-Serif" font-size="10.00">dev_Get_SecondaryShuntOffset</text>
</a>
</g>
</g>
<!-- Node2 -->
<g id="Node000002" class="node">
<title>Node2</title>
<g id="a_Node000002"><a xlink:href="a00428.html#ga0c23d5a65f61e93198d800d07386e9b1" target="_top" xlink:title=" ">
<polygon fill="white" stroke="#666666" points="298.25,-20 190,-20 190,0 298.25,0 298.25,-20"/>
<text text-anchor="middle" x="244.12" y="-6.5" font-family="Helvetica,sans-Serif" font-size="10.00">dev_AverageSamples</text>
</a>
</g>
</g>
<!-- Node1&#45;&gt;Node2 -->
<g id="edge1_Node000001_Node000002" class="edge">
<title>Node1&#45;&gt;Node2</title>
<g id="a_edge1_Node000001_Node000002"><a xlink:title=" ">
<path fill="none" stroke="#63b8ff" d="M154.28,-10C162.53,-10 170.86,-10 178.95,-10"/>
<polygon fill="#63b8ff" stroke="#63b8ff" points="178.79,-13.5 188.79,-10 178.79,-6.5 178.79,-13.5"/>
</a>
</g>
</g>
<!-- Node3 -->
<g id="Node000003" class="node">
<title>Node3</title>
<g id="a_Node000003"><a xlink:href="a00428.html#ga7806a06617949d40c2098591f3dee7dc" target="_top" xlink:title="Averages the ADC samples.">
<polygon fill="white" stroke="#666666" points="444.75,-20 334.25,-20 334.25,0 444.75,0 444.75,-20"/>
<text text-anchor="middle" x="389.5" y="-6.5" font-family="Helvetica,sans-Serif" font-size="10.00">dev_CalculateAverage</text>
</a>
</g>
</g>
<!-- Node2&#45;&gt;Node3 -->
<g id="edge2_Node000002_Node000003" class="edge">
<title>Node2&#45;&gt;Node3</title>
<g id="a_edge2_Node000002_Node000003"><a xlink:title=" ">
<path fill="none" stroke="#63b8ff" d="M298.51,-10C306.59,-10 315.01,-10 323.31,-10"/>
<polygon fill="#63b8ff" stroke="#63b8ff" points="323.11,-13.5 333.11,-10 323.11,-6.5 323.11,-13.5"/>
</a>
</g>
</g>
</g>
</svg>
