<?xml version="1.0" encoding="UTF-8" standalone="no"?>
<!DOCTYPE svg PUBLIC "-//W3C//DTD SVG 1.1//EN"
 "http://www.w3.org/Graphics/SVG/1.1/DTD/svg11.dtd">
<!-- Generated by graphviz version 8.1.0 (20230707.0739)
 -->
<!-- Title: PwrCtrl_ControlLoopInitialize Pages: 1 -->
<svg width="494pt" height="78pt"
 viewBox="0.00 0.00 494.00 78.00" xmlns="http://www.w3.org/2000/svg" xmlns:xlink="http://www.w3.org/1999/xlink">
<g id="graph0" class="graph" transform="scale(1 1) rotate(0) translate(4 74)">
<title>PwrCtrl_ControlLoopInitialize</title>
<!-- Node1 -->
<g id="Node000001" class="node">
<title>Node1</title>
<g id="a_Node000001"><a xlink:title="Initializes the control loop.">
<polygon fill="#999999" stroke="#666666" points="139.75,-42 0,-42 0,-22 139.75,-22 139.75,-42"/>
<text text-anchor="middle" x="69.88" y="-28.5" font-family="Helvetica,sans-Serif" font-size="10.00">PwrCtrl_ControlLoopInitialize</text>
</a>
</g>
</g>
<!-- Node2 -->
<g id="Node000002" class="node">
<title>Node2</title>
<g id="a_Node000002"><a xlink:href="a00438.html#ga683c378ec457def5ed040dac9759eb44" target="_top" xlink:title="Initialize the Current Loop Control.">
<polygon fill="white" stroke="#666666" points="291.88,-70 185.12,-70 185.12,-38 291.88,-38 291.88,-70"/>
<text text-anchor="start" x="193.12" y="-56.5" font-family="Helvetica,sans-Serif" font-size="10.00">PwrCtrl_IComp_3p3z</text>
<text text-anchor="middle" x="238.5" y="-44.5" font-family="Helvetica,sans-Serif" font-size="10.00">_Initialize</text>
</a>
</g>
</g>
<!-- Node1&#45;&gt;Node2 -->
<g id="edge1_Node000001_Node000002" class="edge">
<title>Node1&#45;&gt;Node2</title>
<g id="a_edge1_Node000001_Node000002"><a xlink:title=" ">
<path fill="none" stroke="#63b8ff" d="M140.09,-41.14C151.29,-42.62 162.84,-44.14 173.9,-45.6"/>
<polygon fill="#63b8ff" stroke="#63b8ff" points="173.39,-49.2 183.76,-47.04 174.3,-42.26 173.39,-49.2"/>
</a>
</g>
</g>
<!-- Node4 -->
<g id="Node000004" class="node">
<title>Node4</title>
<g id="a_Node000004"><a xlink:href="a00438.html#ga8603aa8f7d4f64fa925228cf9c99de83" target="_top" xlink:title="Initialize the Voltage Loop Control.">
<polygon fill="white" stroke="#666666" points="301.25,-20 175.75,-20 175.75,0 301.25,0 301.25,-20"/>
<text text-anchor="middle" x="238.5" y="-6.5" font-family="Helvetica,sans-Serif" font-size="10.00">PwrCtrl_VComp_Initialize</text>
</a>
</g>
</g>
<!-- Node1&#45;&gt;Node4 -->
<g id="edge3_Node000001_Node000004" class="edge">
<title>Node1&#45;&gt;Node4</title>
<g id="a_edge3_Node000001_Node000004"><a xlink:title=" ">
<path fill="none" stroke="#63b8ff" d="M140.09,-22.86C148.24,-21.79 156.57,-20.69 164.76,-19.6"/>
<polygon fill="#63b8ff" stroke="#63b8ff" points="164.96,-22.98 174.42,-18.2 164.04,-16.04 164.96,-22.98"/>
</a>
</g>
</g>
<!-- Node3 -->
<g id="Node000003" class="node">
<title>Node3</title>
<g id="a_Node000003"><a xlink:href="a00374.html#a4201f46447c8802666c1fe6ade902908" target="_top" xlink:title=" ">
<polygon fill="white" stroke="#666666" points="486,-64 337.25,-64 337.25,-44 486,-44 486,-64"/>
<text text-anchor="middle" x="411.62" y="-50.5" font-family="Helvetica,sans-Serif" font-size="10.00">SMPS_Controller3P3ZInitialize</text>
</a>
</g>
</g>
<!-- Node2&#45;&gt;Node3 -->
<g id="edge2_Node000002_Node000003" class="edge">
<title>Node2&#45;&gt;Node3</title>
<g id="a_edge2_Node000002_Node000003"><a xlink:title=" ">
<path fill="none" stroke="#63b8ff" d="M292.24,-54C302.96,-54 314.48,-54 325.99,-54"/>
<polygon fill="#63b8ff" stroke="#63b8ff" points="325.98,-57.5 335.98,-54 325.98,-50.5 325.98,-57.5"/>
</a>
</g>
</g>
<!-- Node5 -->
<g id="Node000005" class="node">
<title>Node5</title>
<g id="a_Node000005"><a xlink:href="a00374.html#a8d0d916c7a3ca172408fcded86a6baa2" target="_top" xlink:title=" ">
<polygon fill="white" stroke="#666666" points="486,-20 337.25,-20 337.25,0 486,0 486,-20"/>
<text text-anchor="middle" x="411.62" y="-6.5" font-family="Helvetica,sans-Serif" font-size="10.00">SMPS_Controller2P2ZInitialize</text>
</a>
</g>
</g>
<!-- Node4&#45;&gt;Node5 -->
<g id="edge4_Node000004_Node000005" class="edge">
<title>Node4&#45;&gt;Node5</title>
<g id="a_edge4_Node000004_Node000005"><a xlink:title=" ">
<path fill="none" stroke="#63b8ff" d="M301.28,-10C309.33,-10 317.69,-10 326.04,-10"/>
<polygon fill="#63b8ff" stroke="#63b8ff" points="325.98,-13.5 335.98,-10 325.98,-6.5 325.98,-13.5"/>
</a>
</g>
</g>
</g>
</svg>
