<?xml version="1.0" encoding="UTF-8" standalone="no"?>
<!DOCTYPE svg PUBLIC "-//W3C//DTD SVG 1.1//EN"
 "http://www.w3.org/Graphics/SVG/1.1/DTD/svg11.dtd">
<!-- Generated by graphviz version 8.1.0 (20230707.0739)
 -->
<!-- Title: ControlLoop_Interrupt_CallBack Pages: 1 -->
<svg width="670pt" height="199pt"
 viewBox="0.00 0.00 669.75 199.00" xmlns="http://www.w3.org/2000/svg" xmlns:xlink="http://www.w3.org/1999/xlink">
<g id="graph0" class="graph" transform="scale(1 1) rotate(0) translate(4 195)">
<title>ControlLoop_Interrupt_CallBack</title>
<!-- Node1 -->
<g id="Node000001" class="node">
<title>Node1</title>
<g id="a_Node000001"><a xlink:title="Executes the power converter control loop.">
<polygon fill="#999999" stroke="#666666" points="108.25,-83 0,-83 0,-51 108.25,-51 108.25,-83"/>
<text text-anchor="start" x="8" y="-69.5" font-family="Helvetica,sans-Serif" font-size="10.00">ControlLoop_Interrupt</text>
<text text-anchor="middle" x="54.12" y="-57.5" font-family="Helvetica,sans-Serif" font-size="10.00">_CallBack</text>
</a>
</g>
</g>
<!-- Node2 -->
<g id="Node000002" class="node">
<title>Node2</title>
<g id="a_Node000002"><a xlink:href="a00435.html#ga2eeebdb0cef4bbfeed446752525dd879" target="_top" xlink:title="Executes the power converter control loop.">
<polygon fill="white" stroke="#666666" points="284.75,-77 144.25,-77 144.25,-57 284.75,-57 284.75,-77"/>
<text text-anchor="middle" x="214.5" y="-63.5" font-family="Helvetica,sans-Serif" font-size="10.00">PwrCtrl_ControlLoopExecute</text>
</a>
</g>
</g>
<!-- Node1&#45;&gt;Node2 -->
<g id="edge1_Node000001_Node000002" class="edge">
<title>Node1&#45;&gt;Node2</title>
<g id="a_edge1_Node000001_Node000002"><a xlink:title=" ">
<path fill="none" stroke="#63b8ff" d="M108.74,-67C116.61,-67 124.84,-67 133.1,-67"/>
<polygon fill="#63b8ff" stroke="#63b8ff" points="132.93,-70.5 142.93,-67 132.93,-63.5 132.93,-70.5"/>
</a>
</g>
</g>
<!-- Node3 -->
<g id="Node000003" class="node">
<title>Node3</title>
<g id="a_Node000003"><a xlink:href="a00436.html#ga054f3de472c33a84cb37459b27a0d3b3" target="_top" xlink:title="PWM distribution for PSFB converter.">
<polygon fill="white" stroke="#666666" points="449.62,-134 336.12,-134 336.12,-114 449.62,-114 449.62,-134"/>
<text text-anchor="middle" x="392.88" y="-120.5" font-family="Helvetica,sans-Serif" font-size="10.00">PwrCtrl_PWM_Update</text>
</a>
</g>
</g>
<!-- Node2&#45;&gt;Node3 -->
<g id="edge2_Node000002_Node000003" class="edge">
<title>Node2&#45;&gt;Node3</title>
<g id="a_edge2_Node000002_Node000003"><a xlink:title=" ">
<path fill="none" stroke="#63b8ff" d="M242.54,-77.48C263.67,-85.5 293.87,-96.57 320.75,-105 326.99,-106.96 333.58,-108.89 340.13,-110.73"/>
<polygon fill="#63b8ff" stroke="#63b8ff" points="338.76,-114.26 349.33,-113.54 340.62,-107.51 338.76,-114.26"/>
</a>
</g>
</g>
<!-- Node8 -->
<g id="Node000008" class="node">
<title>Node8</title>
<g id="a_Node000008"><a xlink:href="a00439.html#gae62d241af8152bb7989d448f30adc55e" target="_top" xlink:title="API function to set the target PWM phase.">
<polygon fill="white" stroke="#666666" points="454.12,-96 331.62,-96 331.62,-76 454.12,-76 454.12,-96"/>
<text text-anchor="middle" x="392.88" y="-82.5" font-family="Helvetica,sans-Serif" font-size="10.00">PwrCtrl_SetPhaseTarget</text>
</a>
</g>
</g>
<!-- Node2&#45;&gt;Node8 -->
<g id="edge7_Node000002_Node000008" class="edge">
<title>Node2&#45;&gt;Node8</title>
<g id="a_edge7_Node000002_Node000008"><a xlink:title=" ">
<path fill="none" stroke="#63b8ff" d="M285.21,-74.51C296.86,-75.76 308.95,-77.07 320.64,-78.33"/>
<polygon fill="#63b8ff" stroke="#63b8ff" points="319.91,-81.88 330.23,-79.47 320.66,-74.92 319.91,-81.88"/>
</a>
</g>
</g>
<!-- Node9 -->
<g id="Node000009" class="node">
<title>Node9</title>
<g id="a_Node000009"><a xlink:href="a00374.html#ac4c8852561395f2969c08ff062325e03" target="_top" xlink:title=" ">
<polygon fill="white" stroke="#666666" points="465,-58 320.75,-58 320.75,-38 465,-38 465,-58"/>
<text text-anchor="middle" x="392.88" y="-44.5" font-family="Helvetica,sans-Serif" font-size="10.00">SMPS_Controller2P2ZUpdate</text>
</a>
</g>
</g>
<!-- Node2&#45;&gt;Node9 -->
<g id="edge8_Node000002_Node000009" class="edge">
<title>Node2&#45;&gt;Node9</title>
<g id="a_edge8_Node000002_Node000009"><a xlink:title=" ">
<path fill="none" stroke="#63b8ff" d="M285.21,-59.49C293.24,-58.63 301.49,-57.74 309.67,-56.86"/>
<polygon fill="#63b8ff" stroke="#63b8ff" points="309.79,-60.26 319.36,-55.7 309.04,-53.3 309.79,-60.26"/>
</a>
</g>
</g>
<!-- Node10 -->
<g id="Node000010" class="node">
<title>Node10</title>
<g id="a_Node000010"><a xlink:href="a00374.html#a8ba04b5d00e0c881d269a9429b3ed34b" target="_top" xlink:title=" ">
<polygon fill="white" stroke="#666666" points="465,-20 320.75,-20 320.75,0 465,0 465,-20"/>
<text text-anchor="middle" x="392.88" y="-6.5" font-family="Helvetica,sans-Serif" font-size="10.00">SMPS_Controller3P3ZUpdate</text>
</a>
</g>
</g>
<!-- Node2&#45;&gt;Node10 -->
<g id="edge9_Node000002_Node000010" class="edge">
<title>Node2&#45;&gt;Node10</title>
<g id="a_edge9_Node000002_Node000010"><a xlink:title=" ">
<path fill="none" stroke="#63b8ff" d="M242.54,-56.52C263.67,-48.5 293.87,-37.43 320.75,-29 326.99,-27.04 333.58,-25.11 340.13,-23.27"/>
<polygon fill="#63b8ff" stroke="#63b8ff" points="340.62,-26.49 349.33,-20.46 338.76,-19.74 340.62,-26.49"/>
</a>
</g>
</g>
<!-- Node4 -->
<g id="Node000004" class="node">
<title>Node4</title>
<g id="a_Node000004"><a xlink:href="a00454.html#ga37968a783e44cd80643478d2b559dbf4" target="_top" xlink:title="This inline function sets the PWM generator specific duty cycle register.">
<polygon fill="white" stroke="#666666" points="634.38,-191 528.38,-191 528.38,-171 634.38,-171 634.38,-191"/>
<text text-anchor="middle" x="581.38" y="-177.5" font-family="Helvetica,sans-Serif" font-size="10.00">PWM_DutyCycleSet</text>
</a>
</g>
</g>
<!-- Node3&#45;&gt;Node4 -->
<g id="edge3_Node000003_Node000004" class="edge">
<title>Node3&#45;&gt;Node4</title>
<g id="a_edge3_Node000003_Node000004"><a xlink:title=" ">
<path fill="none" stroke="#63b8ff" d="M420.91,-134.49C442.42,-142.61 473.37,-153.82 501,-162 507.94,-164.05 515.27,-166.05 522.55,-167.92"/>
<polygon fill="#63b8ff" stroke="#63b8ff" points="521.6,-171.54 532.15,-170.56 523.3,-164.74 521.6,-171.54"/>
</a>
</g>
</g>
<!-- Node5 -->
<g id="Node000005" class="node">
<title>Node5</title>
<g id="a_Node000005"><a xlink:href="a00454.html#ga83e780358618114f0d424ca7467cf751" target="_top" xlink:title="This inline function requests to update the data registers for specific PWM generator selected by the...">
<polygon fill="white" stroke="#666666" points="656.5,-153 506.25,-153 506.25,-133 656.5,-133 656.5,-153"/>
<text text-anchor="middle" x="581.38" y="-139.5" font-family="Helvetica,sans-Serif" font-size="10.00">PWM_SoftwareUpdateRequest</text>
</a>
</g>
</g>
<!-- Node3&#45;&gt;Node5 -->
<g id="edge4_Node000003_Node000005" class="edge">
<title>Node3&#45;&gt;Node5</title>
<g id="a_edge4_Node000003_Node000005"><a xlink:title=" ">
<path fill="none" stroke="#63b8ff" d="M450.08,-129.73C464.38,-131.18 480.05,-132.78 495.43,-134.35"/>
<polygon fill="#63b8ff" stroke="#63b8ff" points="494.7,-137.89 505,-135.42 495.41,-130.93 494.7,-137.89"/>
</a>
</g>
</g>
<!-- Node6 -->
<g id="Node000006" class="node">
<title>Node6</title>
<g id="a_Node000006"><a xlink:href="a00454.html#ga3453a907bf8e14bb9bb434ddd0e82500" target="_top" xlink:title="This inline function sets the Trigger B compare value in count for a specific PWM generator selected ...">
<polygon fill="white" stroke="#666666" points="661.75,-115 501,-115 501,-95 661.75,-95 661.75,-115"/>
<text text-anchor="middle" x="581.38" y="-101.5" font-family="Helvetica,sans-Serif" font-size="10.00">PWM_TriggerBCompareValueSet</text>
</a>
</g>
</g>
<!-- Node3&#45;&gt;Node6 -->
<g id="edge5_Node000003_Node000006" class="edge">
<title>Node3&#45;&gt;Node6</title>
<g id="a_edge5_Node000003_Node000006"><a xlink:title=" ">
<path fill="none" stroke="#63b8ff" d="M450.08,-118.27C462.61,-117 476.2,-115.61 489.72,-114.24"/>
<polygon fill="#63b8ff" stroke="#63b8ff" points="489.93,-117.63 499.52,-113.14 489.22,-110.67 489.93,-117.63"/>
</a>
</g>
</g>
<!-- Node7 -->
<g id="Node000007" class="node">
<title>Node7</title>
<g id="a_Node000007"><a xlink:href="a00454.html#gacc5575148a6e8da6577d9be9e20541ce" target="_top" xlink:title="This inline function sets the Trigger C compare value in count for a specific PWM generator selected ...">
<polygon fill="white" stroke="#666666" points="661.75,-77 501,-77 501,-57 661.75,-57 661.75,-77"/>
<text text-anchor="middle" x="581.38" y="-63.5" font-family="Helvetica,sans-Serif" font-size="10.00">PWM_TriggerCCompareValueSet</text>
</a>
</g>
</g>
<!-- Node3&#45;&gt;Node7 -->
<g id="edge6_Node000003_Node000007" class="edge">
<title>Node3&#45;&gt;Node7</title>
<g id="a_edge6_Node000003_Node000007"><a xlink:title=" ">
<path fill="none" stroke="#63b8ff" d="M439.14,-113.55C447.84,-111.08 456.79,-108.22 465,-105 481.85,-98.4 484.07,-92.38 501,-86 506.47,-83.94 512.24,-82.05 518.07,-80.33"/>
<polygon fill="#63b8ff" stroke="#63b8ff" points="518.87,-83.46 527.57,-77.41 517,-76.72 518.87,-83.46"/>
</a>
</g>
</g>
</g>
</svg>
