<?xml version="1.0" encoding="UTF-8" standalone="no"?>
<!DOCTYPE svg PUBLIC "-//W3C//DTD SVG 1.1//EN"
 "http://www.w3.org/Graphics/SVG/1.1/DTD/svg11.dtd">
<!-- Generated by graphviz version 8.1.0 (20230707.0739)
 -->
<!-- Title: app_Send_To_PBV Pages: 1 -->
<svg width="282pt" height="66pt"
 viewBox="0.00 0.00 282.25 66.00" xmlns="http://www.w3.org/2000/svg" xmlns:xlink="http://www.w3.org/1999/xlink">
<g id="graph0" class="graph" transform="scale(1 1) rotate(0) translate(4 62)">
<title>app_Send_To_PBV</title>
<!-- Node1 -->
<g id="Node000001" class="node">
<title>Node1</title>
<g id="a_Node000001"><a xlink:title=" ">
<polygon fill="#999999" stroke="#666666" points="274.25,-39 173.5,-39 173.5,-19 274.25,-19 274.25,-39"/>
<text text-anchor="middle" x="223.88" y="-25.5" font-family="Helvetica,sans-Serif" font-size="10.00">app_Send_To_PBV</text>
</a>
</g>
</g>
<!-- Node2 -->
<g id="Node000002" class="node">
<title>Node2</title>
<g id="a_Node000002"><a xlink:href="a00426.html#ga34ef08c06d636819aa039ff4a8f85c50" target="_top" xlink:title="this is high frequency task to simulate sending of high frequency numeric data. Also to check if ther...">
<polygon fill="white" stroke="#666666" points="137.5,-58 0,-58 0,-38 137.5,-38 137.5,-58"/>
<text text-anchor="middle" x="68.75" y="-44.5" font-family="Helvetica,sans-Serif" font-size="10.00">App_PBV_psfb_Task_10ms</text>
</a>
</g>
</g>
<!-- Node1&#45;&gt;Node2 -->
<g id="edge1_Node000001_Node000002" class="edge">
<title>Node1&#45;&gt;Node2</title>
<g id="a_edge1_Node000001_Node000002"><a xlink:title=" ">
<path fill="none" stroke="#63b8ff" d="M162.37,-36.51C154.33,-37.51 146.03,-38.54 137.86,-39.55"/>
<polygon fill="#63b8ff" stroke="#63b8ff" points="162.67,-39.87 172.16,-35.17 161.8,-32.93 162.67,-39.87"/>
</a>
</g>
</g>
<!-- Node3 -->
<g id="Node000003" class="node">
<title>Node3</title>
<g id="a_Node000003"><a xlink:href="a00426.html#ga013f0a367010149ee627b6c78a97b093" target="_top" xlink:title="1 second PBV task to be execution">
<polygon fill="white" stroke="#666666" points="130.75,-20 6.75,-20 6.75,0 130.75,0 130.75,-20"/>
<text text-anchor="middle" x="68.75" y="-6.5" font-family="Helvetica,sans-Serif" font-size="10.00">App_PBV_psfb_Task_1s</text>
</a>
</g>
</g>
<!-- Node1&#45;&gt;Node3 -->
<g id="edge2_Node000001_Node000003" class="edge">
<title>Node1&#45;&gt;Node3</title>
<g id="a_edge2_Node000001_Node000003"><a xlink:title=" ">
<path fill="none" stroke="#63b8ff" d="M162.54,-21.51C152.17,-20.23 141.39,-18.89 131,-17.6"/>
<polygon fill="#63b8ff" stroke="#63b8ff" points="161.8,-25.07 172.16,-22.83 162.67,-18.13 161.8,-25.07"/>
</a>
</g>
</g>
</g>
</svg>
