<?xml version="1.0" encoding="UTF-8" standalone="no"?>
<!DOCTYPE svg PUBLIC "-//W3C//DTD SVG 1.1//EN"
 "http://www.w3.org/Graphics/SVG/1.1/DTD/svg11.dtd">
<!-- Generated by graphviz version 8.1.0 (20230707.0739)
 -->
<!-- Title: PCS_UP_AND_RUNNING_handler Pages: 1 -->
<svg width="324pt" height="66pt"
 viewBox="0.00 0.00 323.50 66.00" xmlns="http://www.w3.org/2000/svg" xmlns:xlink="http://www.w3.org/1999/xlink">
<g id="graph0" class="graph" transform="scale(1 1) rotate(0) translate(4 62)">
<title>PCS_UP_AND_RUNNING_handler</title>
<!-- Node1 -->
<g id="Node000001" class="node">
<title>Node1</title>
<g id="a_Node000001"><a xlink:title="Executes the Online state.">
<polygon fill="#999999" stroke="#666666" points="129.25,-45 0,-45 0,-13 129.25,-13 129.25,-45"/>
<text text-anchor="start" x="8" y="-31.5" font-family="Helvetica,sans-Serif" font-size="10.00">PCS_UP_AND_RUNNING</text>
<text text-anchor="middle" x="64.62" y="-19.5" font-family="Helvetica,sans-Serif" font-size="10.00">_handler</text>
</a>
</g>
</g>
<!-- Node2 -->
<g id="Node000002" class="node">
<title>Node2</title>
<g id="a_Node000002"><a xlink:href="a00435.html#gaec6f57d582c3eec519e92a391975b47d" target="_top" xlink:title="Averages secondary current for droop.">
<polygon fill="white" stroke="#666666" points="296.75,-58 184,-58 184,-38 296.75,-38 296.75,-58"/>
<text text-anchor="middle" x="240.38" y="-44.5" font-family="Helvetica,sans-Serif" font-size="10.00">PwrCtrl_DroopAverage</text>
</a>
</g>
</g>
<!-- Node1&#45;&gt;Node2 -->
<g id="edge1_Node000001_Node000002" class="edge">
<title>Node1&#45;&gt;Node2</title>
<g id="a_edge1_Node000001_Node000002"><a xlink:title=" ">
<path fill="none" stroke="#63b8ff" d="M129.34,-35.97C143.54,-37.52 158.63,-39.17 172.94,-40.73"/>
<polygon fill="#63b8ff" stroke="#63b8ff" points="172.38,-44.3 182.7,-41.91 173.14,-37.35 172.38,-44.3"/>
</a>
</g>
</g>
<!-- Node3 -->
<g id="Node000003" class="node">
<title>Node3</title>
<g id="a_Node000003"><a xlink:href="a00436.html#gae13a0db6addfe827e4c48e0f2250e3f2" target="_top" xlink:title="Disable the PWM output.">
<polygon fill="white" stroke="#666666" points="315.5,-20 165.25,-20 165.25,0 315.5,0 315.5,-20"/>
<text text-anchor="middle" x="240.38" y="-6.5" font-family="Helvetica,sans-Serif" font-size="10.00">PwrCtrl_PWM_Stop_Switching</text>
</a>
</g>
</g>
<!-- Node1&#45;&gt;Node3 -->
<g id="edge2_Node000001_Node000003" class="edge">
<title>Node1&#45;&gt;Node3</title>
<g id="a_edge2_Node000001_Node000003"><a xlink:title=" ">
<path fill="none" stroke="#63b8ff" d="M129.34,-22.03C137.35,-21.16 145.65,-20.25 153.93,-19.34"/>
<polygon fill="#63b8ff" stroke="#63b8ff" points="154.22,-22.72 163.78,-18.16 153.46,-15.77 154.22,-22.72"/>
</a>
</g>
</g>
</g>
</svg>
