<?xml version="1.0" encoding="UTF-8" standalone="no"?>
<!DOCTYPE svg PUBLIC "-//W3C//DTD SVG 1.1//EN"
 "http://www.w3.org/Graphics/SVG/1.1/DTD/svg11.dtd">
<!-- Generated by graphviz version 8.1.0 (20230707.0739)
 -->
<!-- Title: dev_CalculateAverage Pages: 1 -->
<svg width="453pt" height="66pt"
 viewBox="0.00 0.00 452.75 66.00" xmlns="http://www.w3.org/2000/svg" xmlns:xlink="http://www.w3.org/1999/xlink">
<g id="graph0" class="graph" transform="scale(1 1) rotate(0) translate(4 62)">
<title>dev_CalculateAverage</title>
<!-- Node1 -->
<g id="Node000001" class="node">
<title>Node1</title>
<g id="a_Node000001"><a xlink:title="Averages the ADC samples.">
<polygon fill="#999999" stroke="#666666" points="444.75,-39 334.25,-39 334.25,-19 444.75,-19 444.75,-39"/>
<text text-anchor="middle" x="389.5" y="-25.5" font-family="Helvetica,sans-Serif" font-size="10.00">dev_CalculateAverage</text>
</a>
</g>
</g>
<!-- Node2 -->
<g id="Node000002" class="node">
<title>Node2</title>
<g id="a_Node000002"><a xlink:href="a00428.html#ga0c23d5a65f61e93198d800d07386e9b1" target="_top" xlink:title=" ">
<polygon fill="white" stroke="#666666" points="298.25,-39 190,-39 190,-19 298.25,-19 298.25,-39"/>
<text text-anchor="middle" x="244.12" y="-25.5" font-family="Helvetica,sans-Serif" font-size="10.00">dev_AverageSamples</text>
</a>
</g>
</g>
<!-- Node1&#45;&gt;Node2 -->
<g id="edge1_Node000001_Node000002" class="edge">
<title>Node1&#45;&gt;Node2</title>
<g id="a_edge1_Node000001_Node000002"><a xlink:title=" ">
<path fill="none" stroke="#63b8ff" d="M322.91,-29C314.78,-29 306.55,-29 298.64,-29"/>
<polygon fill="#63b8ff" stroke="#63b8ff" points="322.89,-32.5 332.89,-29 322.89,-25.5 322.89,-32.5"/>
</a>
</g>
</g>
<!-- Node3 -->
<g id="Node000003" class="node">
<title>Node3</title>
<g id="a_Node000003"><a xlink:href="a00428.html#ga602ca3089eba0f5de69f13a9857557c2" target="_top" xlink:title=" ">
<polygon fill="white" stroke="#666666" points="140.88,-58 13.12,-58 13.12,-38 140.88,-38 140.88,-58"/>
<text text-anchor="middle" x="77" y="-44.5" font-family="Helvetica,sans-Serif" font-size="10.00">dev_Get_PrimaryCTOffset</text>
</a>
</g>
</g>
<!-- Node2&#45;&gt;Node3 -->
<g id="edge2_Node000002_Node000003" class="edge">
<title>Node2&#45;&gt;Node3</title>
<g id="a_edge2_Node000002_Node000003"><a xlink:title=" ">
<path fill="none" stroke="#63b8ff" d="M178.81,-36.4C166.42,-37.83 153.46,-39.32 141.12,-40.74"/>
<polygon fill="#63b8ff" stroke="#63b8ff" points="178.98,-39.79 188.51,-35.17 178.18,-32.83 178.98,-39.79"/>
</a>
</g>
</g>
<!-- Node4 -->
<g id="Node000004" class="node">
<title>Node4</title>
<g id="a_Node000004"><a xlink:href="a00428.html#gadeba83d587bc87b905f825cf8bd9a7ca" target="_top" xlink:title=" ">
<polygon fill="white" stroke="#666666" points="154,-20 0,-20 0,0 154,0 154,-20"/>
<text text-anchor="middle" x="77" y="-6.5" font-family="Helvetica,sans-Serif" font-size="10.00">dev_Get_SecondaryShuntOffset</text>
</a>
</g>
</g>
<!-- Node2&#45;&gt;Node4 -->
<g id="edge3_Node000002_Node000004" class="edge">
<title>Node2&#45;&gt;Node4</title>
<g id="a_edge3_Node000002_Node000004"><a xlink:title=" ">
<path fill="none" stroke="#63b8ff" d="M178.8,-21.6C170.81,-20.68 162.58,-19.73 154.43,-18.79"/>
<polygon fill="#63b8ff" stroke="#63b8ff" points="178.18,-25.17 188.51,-22.83 178.98,-18.21 178.18,-25.17"/>
</a>
</g>
</g>
</g>
</svg>
