<?xml version="1.0" encoding="UTF-8" standalone="no"?>
<!DOCTYPE svg PUBLIC "-//W3C//DTD SVG 1.1//EN"
 "http://www.w3.org/Graphics/SVG/1.1/DTD/svg11.dtd">
<!-- Generated by graphviz version 8.1.0 (20230707.0739)
 -->
<!-- Title: PwrCtrl_PWM_Stop_Switching Pages: 1 -->
<svg width="608pt" height="204pt"
 viewBox="0.00 0.00 607.50 204.00" xmlns="http://www.w3.org/2000/svg" xmlns:xlink="http://www.w3.org/1999/xlink">
<g id="graph0" class="graph" transform="scale(1 1) rotate(0) translate(4 200)">
<title>PwrCtrl_PWM_Stop_Switching</title>
<!-- Node1 -->
<g id="Node000001" class="node">
<title>Node1</title>
<g id="a_Node000001"><a xlink:title="Disable the PWM output.">
<polygon fill="#999999" stroke="#666666" points="599.5,-108 449.25,-108 449.25,-88 599.5,-88 599.5,-108"/>
<text text-anchor="middle" x="524.38" y="-94.5" font-family="Helvetica,sans-Serif" font-size="10.00">PwrCtrl_PWM_Stop_Switching</text>
</a>
</g>
</g>
<!-- Node2 -->
<g id="Node000002" class="node">
<title>Node2</title>
<g id="a_Node000002"><a xlink:href="a00443.html#gaf27f2f24932cec222273df148f8765cb" target="_top" xlink:title="Handles the fault trip by turning off the power control switching.">
<polygon fill="white" stroke="#666666" points="381.38,-196 305.38,-196 305.38,-176 381.38,-176 381.38,-196"/>
<text text-anchor="middle" x="343.38" y="-182.5" font-family="Helvetica,sans-Serif" font-size="10.00">Fault_Handler</text>
</a>
</g>
</g>
<!-- Node1&#45;&gt;Node2 -->
<g id="edge1_Node000001_Node000002" class="edge">
<title>Node1&#45;&gt;Node2</title>
<g id="a_edge1_Node000001_Node000002"><a xlink:title=" ">
<path fill="none" stroke="#63b8ff" d="M501.17,-114.64C479.66,-130.07 445.63,-152.75 413.25,-167 403.26,-171.4 392,-175.01 381.52,-177.87"/>
<polygon fill="#63b8ff" stroke="#63b8ff" points="502.83,-117.03 508.85,-108.31 498.71,-111.37 502.83,-117.03"/>
</a>
</g>
</g>
<!-- Node5 -->
<g id="Node000005" class="node">
<title>Node5</title>
<g id="a_Node000005"><a xlink:href="a00443.html#ga5ea57fbbe8d131a4f801a04c9c3dfb45" target="_top" xlink:title="callback for primary OC">
<polygon fill="white" stroke="#666666" points="407.25,-158 279.5,-158 279.5,-126 407.25,-126 407.25,-158"/>
<text text-anchor="start" x="287.5" y="-144.5" font-family="Helvetica,sans-Serif" font-size="10.00">Fault_PrimaryOverCurrent</text>
<text text-anchor="middle" x="343.38" y="-132.5" font-family="Helvetica,sans-Serif" font-size="10.00">_EventHandler</text>
</a>
</g>
</g>
<!-- Node1&#45;&gt;Node5 -->
<g id="edge4_Node000001_Node000005" class="edge">
<title>Node1&#45;&gt;Node5</title>
<g id="a_edge4_Node000001_Node000005"><a xlink:title=" ">
<path fill="none" stroke="#63b8ff" d="M470.33,-111.04C450.61,-115.89 428.05,-121.43 407.52,-126.48"/>
<polygon fill="#63b8ff" stroke="#63b8ff" points="471.08,-114.21 479.95,-108.43 469.41,-107.42 471.08,-114.21"/>
</a>
</g>
</g>
<!-- Node7 -->
<g id="Node000007" class="node">
<title>Node7</title>
<g id="a_Node000007"><a xlink:href="a00437.html#ga175dce657b908bab1509d14d90b547de" target="_top" xlink:title="Executes Standby State machine.">
<polygon fill="white" stroke="#666666" points="413.25,-108 273.5,-108 273.5,-88 413.25,-88 413.25,-108"/>
<text text-anchor="middle" x="343.38" y="-94.5" font-family="Helvetica,sans-Serif" font-size="10.00">PCS_PRECHARGE_handler</text>
</a>
</g>
</g>
<!-- Node1&#45;&gt;Node7 -->
<g id="edge6_Node000001_Node000007" class="edge">
<title>Node1&#45;&gt;Node7</title>
<g id="a_edge6_Node000001_Node000007"><a xlink:title=" ">
<path fill="none" stroke="#63b8ff" d="M437.8,-98C429.73,-98 421.61,-98 413.72,-98"/>
<polygon fill="#63b8ff" stroke="#63b8ff" points="437.76,-101.5 447.76,-98 437.76,-94.5 437.76,-101.5"/>
</a>
</g>
</g>
<!-- Node10 -->
<g id="Node000010" class="node">
<title>Node10</title>
<g id="a_Node000010"><a xlink:href="a00437.html#gabda6b853bb6547821acd0ec87e0a4842" target="_top" xlink:title="Executes the power control soft start state machine.">
<polygon fill="white" stroke="#666666" points="413.25,-70 273.5,-70 273.5,-50 413.25,-50 413.25,-70"/>
<text text-anchor="middle" x="343.38" y="-56.5" font-family="Helvetica,sans-Serif" font-size="10.00">PCS_SOFT_START_handler</text>
</a>
</g>
</g>
<!-- Node1&#45;&gt;Node10 -->
<g id="edge9_Node000001_Node000010" class="edge">
<title>Node1&#45;&gt;Node10</title>
<g id="a_edge9_Node000001_Node000010"><a xlink:title=" ">
<path fill="none" stroke="#63b8ff" d="M463.45,-85.28C440.75,-80.46 415.2,-75.04 393.6,-70.45"/>
<polygon fill="#63b8ff" stroke="#63b8ff" points="462.48,-88.86 472.99,-87.52 463.93,-82.02 462.48,-88.86"/>
</a>
</g>
</g>
<!-- Node11 -->
<g id="Node000011" class="node">
<title>Node11</title>
<g id="a_Node000011"><a xlink:href="a00437.html#ga8752fbb48416e60141e205f1cbda0f98" target="_top" xlink:title="Executes the Online state.">
<polygon fill="white" stroke="#666666" points="408,-32 278.75,-32 278.75,0 408,0 408,-32"/>
<text text-anchor="start" x="286.75" y="-18.5" font-family="Helvetica,sans-Serif" font-size="10.00">PCS_UP_AND_RUNNING</text>
<text text-anchor="middle" x="343.38" y="-6.5" font-family="Helvetica,sans-Serif" font-size="10.00">_handler</text>
</a>
</g>
</g>
<!-- Node1&#45;&gt;Node11 -->
<g id="edge11_Node000001_Node000011" class="edge">
<title>Node1&#45;&gt;Node11</title>
<g id="a_edge11_Node000001_Node000011"><a xlink:title=" ">
<path fill="none" stroke="#63b8ff" d="M495.66,-82.38C473.67,-70.31 441.98,-53.59 413.25,-41 406.49,-38.04 399.26,-35.14 392.12,-32.42"/>
<polygon fill="#63b8ff" stroke="#63b8ff" points="493.58,-85.79 504.03,-87.57 496.97,-79.66 493.58,-85.79"/>
</a>
</g>
</g>
<!-- Node3 -->
<g id="Node000003" class="node">
<title>Node3</title>
<g id="a_Node000003"><a xlink:href="a00443.html#gacd1ca209275dae0bc2388ac954858d83" target="_top" xlink:title="Executes the fault handlers.">
<polygon fill="white" stroke="#666666" points="220.62,-196 141.62,-196 141.62,-176 220.62,-176 220.62,-196"/>
<text text-anchor="middle" x="181.12" y="-182.5" font-family="Helvetica,sans-Serif" font-size="10.00">Fault_Execute</text>
</a>
</g>
</g>
<!-- Node2&#45;&gt;Node3 -->
<g id="edge2_Node000002_Node000003" class="edge">
<title>Node2&#45;&gt;Node3</title>
<g id="a_edge2_Node000002_Node000003"><a xlink:title=" ">
<path fill="none" stroke="#63b8ff" d="M294.44,-186C271,-186 243.15,-186 221.04,-186"/>
<polygon fill="#63b8ff" stroke="#63b8ff" points="294.21,-189.5 304.21,-186 294.21,-182.5 294.21,-189.5"/>
</a>
</g>
</g>
<!-- Node4 -->
<g id="Node000004" class="node">
<title>Node4</title>
<g id="a_Node000004"><a xlink:href="a00435.html#ga2068c3c2584547dbc1c8b9bca2d55b18" target="_top" xlink:title="Executes the power converter control loop.">
<polygon fill="white" stroke="#666666" points="80.5,-196 8.25,-196 8.25,-176 80.5,-176 80.5,-196"/>
<text text-anchor="middle" x="44.38" y="-182.5" font-family="Helvetica,sans-Serif" font-size="10.00">__attribute__</text>
</a>
</g>
</g>
<!-- Node3&#45;&gt;Node4 -->
<g id="edge3_Node000003_Node000004" class="edge">
<title>Node3&#45;&gt;Node4</title>
<g id="a_edge3_Node000003_Node000004"><a xlink:title=" ">
<path fill="none" stroke="#63b8ff" d="M130.53,-186C113.95,-186 95.83,-186 80.58,-186"/>
<polygon fill="#63b8ff" stroke="#63b8ff" points="130.15,-189.5 140.15,-186 130.15,-182.5 130.15,-189.5"/>
</a>
</g>
</g>
<!-- Node6 -->
<g id="Node000006" class="node">
<title>Node6</title>
<g id="a_Node000006"><a xlink:href="a00443.html#gaaa5a7a6dc7ce982dec4f07edcd73e874" target="_top" xlink:title="Initialize the fault objects.">
<polygon fill="white" stroke="#666666" points="220.25,-152 142,-152 142,-132 220.25,-132 220.25,-152"/>
<text text-anchor="middle" x="181.12" y="-138.5" font-family="Helvetica,sans-Serif" font-size="10.00">Fault_Initialize</text>
</a>
</g>
</g>
<!-- Node5&#45;&gt;Node6 -->
<g id="edge5_Node000005_Node000006" class="edge">
<title>Node5&#45;&gt;Node6</title>
<g id="a_edge5_Node000005_Node000006"><a xlink:title=" ">
<path fill="none" stroke="#63b8ff" d="M268.27,-142C251.77,-142 234.92,-142 220.55,-142"/>
<polygon fill="#63b8ff" stroke="#63b8ff" points="268.04,-145.5 278.04,-142 268.04,-138.5 268.04,-145.5"/>
</a>
</g>
</g>
<!-- Node8 -->
<g id="Node000008" class="node">
<title>Node8</title>
<g id="a_Node000008"><a xlink:href="a00437.html#ga2408c0b52cd2c2487f43716f261434e6" target="_top" xlink:title="Manages the power control state machine.">
<polygon fill="white" stroke="#666666" points="237.5,-70 124.75,-70 124.75,-50 237.5,-50 237.5,-70"/>
<text text-anchor="middle" x="181.12" y="-56.5" font-family="Helvetica,sans-Serif" font-size="10.00">PwrCtrl_StateMachine</text>
</a>
</g>
</g>
<!-- Node7&#45;&gt;Node8 -->
<g id="edge7_Node000007_Node000008" class="edge">
<title>Node7&#45;&gt;Node8</title>
<g id="a_edge7_Node000007_Node000008"><a xlink:title=" ">
<path fill="none" stroke="#63b8ff" d="M287.62,-85.02C267.58,-80.26 245.18,-74.95 226.19,-70.45"/>
<polygon fill="#63b8ff" stroke="#63b8ff" points="286.62,-88.61 297.16,-87.52 288.24,-81.8 286.62,-88.61"/>
</a>
</g>
</g>
<!-- Node9 -->
<g id="Node000009" class="node">
<title>Node9</title>
<g id="a_Node000009"><a xlink:href="a00434.html#ga48dcb018afa53b60b6112cde00561c4b" target="_top" xlink:title="Executes the power control state machine.">
<polygon fill="white" stroke="#666666" points="88.75,-70 0,-70 0,-50 88.75,-50 88.75,-70"/>
<text text-anchor="middle" x="44.38" y="-56.5" font-family="Helvetica,sans-Serif" font-size="10.00">PwrCtrl_Execute</text>
</a>
</g>
</g>
<!-- Node8&#45;&gt;Node9 -->
<g id="edge8_Node000008_Node000009" class="edge">
<title>Node8&#45;&gt;Node9</title>
<g id="a_edge8_Node000008_Node000009"><a xlink:title=" ">
<path fill="none" stroke="#63b8ff" d="M113.57,-60C105.19,-60 96.79,-60 88.9,-60"/>
<polygon fill="#63b8ff" stroke="#63b8ff" points="113.54,-63.5 123.54,-60 113.54,-56.5 113.54,-63.5"/>
</a>
</g>
</g>
<!-- Node10&#45;&gt;Node8 -->
<g id="edge10_Node000010_Node000008" class="edge">
<title>Node10&#45;&gt;Node8</title>
<g id="a_edge10_Node000010_Node000008"><a xlink:title=" ">
<path fill="none" stroke="#63b8ff" d="M262.14,-60C253.83,-60 245.53,-60 237.59,-60"/>
<polygon fill="#63b8ff" stroke="#63b8ff" points="262.02,-63.5 272.02,-60 262.02,-56.5 262.02,-63.5"/>
</a>
</g>
</g>
<!-- Node11&#45;&gt;Node8 -->
<g id="edge12_Node000011_Node000008" class="edge">
<title>Node11&#45;&gt;Node8</title>
<g id="a_edge12_Node000011_Node000008"><a xlink:title=" ">
<path fill="none" stroke="#63b8ff" d="M272.23,-35.26C254.27,-40.19 235.62,-45.31 219.99,-49.6"/>
<polygon fill="#63b8ff" stroke="#63b8ff" points="272.99,-38.41 281.7,-32.38 271.13,-31.66 272.99,-38.41"/>
</a>
</g>
</g>
</g>
</svg>
