<?xml version="1.0" encoding="UTF-8" standalone="no"?>
<!DOCTYPE svg PUBLIC "-//W3C//DTD SVG 1.1//EN"
 "http://www.w3.org/Graphics/SVG/1.1/DTD/svg11.dtd">
<!-- Generated by graphviz version 8.1.0 (20230707.0739)
 -->
<!-- Title: CMP_INTERFACE Pages: 1 -->
<svg width="175pt" height="294pt"
 viewBox="0.00 0.00 175.00 294.00" xmlns="http://www.w3.org/2000/svg" xmlns:xlink="http://www.w3.org/1999/xlink">
<g id="graph0" class="graph" transform="scale(1 1) rotate(0) translate(4 290)">
<title>CMP_INTERFACE</title>
<!-- Node1 -->
<g id="Node000001" class="node">
<title>Node1</title>
<g id="a_Node000001"><a xlink:title="Structure containing the function pointers of CMP driver.">
<polygon fill="#999999" stroke="none" points="115,-148 0,-148 0,0 115,0 115,-148"/>
<text text-anchor="start" x="17" y="-134.5" font-family="Helvetica,sans-Serif" font-size="10.00">CMP_INTERFACE</text>
<text text-anchor="start" x="4" y="-118.5" font-family="Helvetica,sans-Serif" font-size="10.00">+</text>
<text text-anchor="start" x="14" y="-118.5" font-family="Helvetica,sans-Serif" font-size="10.00">Initialize</text>
<text text-anchor="start" x="4" y="-102.5" font-family="Helvetica,sans-Serif" font-size="10.00">+</text>
<text text-anchor="start" x="14" y="-102.5" font-family="Helvetica,sans-Serif" font-size="10.00">Deinitialize</text>
<text text-anchor="start" x="4" y="-86.5" font-family="Helvetica,sans-Serif" font-size="10.00">+</text>
<text text-anchor="start" x="14" y="-86.5" font-family="Helvetica,sans-Serif" font-size="10.00">Enable</text>
<text text-anchor="start" x="4" y="-70.5" font-family="Helvetica,sans-Serif" font-size="10.00">+</text>
<text text-anchor="start" x="14" y="-70.5" font-family="Helvetica,sans-Serif" font-size="10.00">Disable</text>
<text text-anchor="start" x="4" y="-54.5" font-family="Helvetica,sans-Serif" font-size="10.00">+</text>
<text text-anchor="start" x="14" y="-54.5" font-family="Helvetica,sans-Serif" font-size="10.00">StatusGet</text>
<text text-anchor="start" x="4" y="-38.5" font-family="Helvetica,sans-Serif" font-size="10.00">+</text>
<text text-anchor="start" x="14" y="-38.5" font-family="Helvetica,sans-Serif" font-size="10.00">EventCallbackRegister</text>
<text text-anchor="start" x="4" y="-22.5" font-family="Helvetica,sans-Serif" font-size="10.00">+</text>
<text text-anchor="start" x="14" y="-22.5" font-family="Helvetica,sans-Serif" font-size="10.00">Tasks</text>
<text text-anchor="start" x="56" y="-6.5" font-family="Helvetica,sans-Serif" font-size="10.00"> </text>
<polygon fill="#666666" stroke="#666666" points="0,-130 0,-130 115,-130 115,-130 0,-130"/>
<polygon fill="#666666" stroke="#666666" points="0,-18 0,-18 12,-18 12,-18 0,-18"/>
<polygon fill="#666666" stroke="#666666" points="12,-18 12,-18 115,-18 115,-18 12,-18"/>
<polygon fill="none" stroke="#666666" points="0,0 0,-148 115,-148 115,0 0,0"/>
</a>
</g>
</g>
<!-- Node2 -->
<g id="Node000002" class="node">
<title>Node2</title>
<g id="a_Node000002"><a xlink:href="a00493.html" target="_top" xlink:title="Structure containing the function pointers of DAC driver in DC mode.">
<polygon fill="white" stroke="none" points="111.5,-286 3.5,-286 3.5,-202 111.5,-202 111.5,-286"/>
<text text-anchor="start" x="8.38" y="-272.5" font-family="Helvetica,sans-Serif" font-size="10.00">DAC_DC_INTERFACE</text>
<text text-anchor="start" x="19" y="-256.5" font-family="Helvetica,sans-Serif" font-size="10.00">+</text>
<text text-anchor="start" x="40.5" y="-256.5" font-family="Helvetica,sans-Serif" font-size="10.00">Enable</text>
<text text-anchor="start" x="19" y="-240.5" font-family="Helvetica,sans-Serif" font-size="10.00">+</text>
<text text-anchor="start" x="40.5" y="-240.5" font-family="Helvetica,sans-Serif" font-size="10.00">Disable</text>
<text text-anchor="start" x="19" y="-224.5" font-family="Helvetica,sans-Serif" font-size="10.00">+</text>
<text text-anchor="start" x="40.5" y="-224.5" font-family="Helvetica,sans-Serif" font-size="10.00">DataWrite</text>
<text text-anchor="start" x="56" y="-208.5" font-family="Helvetica,sans-Serif" font-size="10.00"> </text>
<polygon fill="#666666" stroke="#666666" points="3.5,-268 3.5,-268 111.5,-268 111.5,-268 3.5,-268"/>
<polygon fill="#666666" stroke="#666666" points="3.5,-220 3.5,-220 38.5,-220 38.5,-220 3.5,-220"/>
<polygon fill="#666666" stroke="#666666" points="38.5,-220 38.5,-220 111.5,-220 111.5,-220 38.5,-220"/>
<polygon fill="none" stroke="#666666" points="3.5,-202 3.5,-286 111.5,-286 111.5,-202 3.5,-202"/>
</a>
</g>
</g>
<!-- Node2&#45;&gt;Node1 -->
<g id="edge1_Node000001_Node000002" class="edge">
<title>Node2&#45;&gt;Node1</title>
<g id="a_edge1_Node000001_Node000002"><a xlink:title=" ">
<path fill="none" stroke="#63b8ff" d="M57.5,-202.33C57.5,-189.64 57.5,-175.13 57.5,-160.55"/>
<polygon fill="none" stroke="#63b8ff" points="57.5,-160.68 53.5,-154.68 57.5,-148.68 61.5,-154.68 57.5,-160.68"/>
</a>
</g>
<text text-anchor="start" x="60.5" y="-171.5" font-family="Helvetica,sans-Serif" font-size="10.00" fill="grey">+cmp_dac_dc_interface</text>
</g>
</g>
</svg>
