<?xml version="1.0" encoding="UTF-8" standalone="no"?>
<!DOCTYPE svg PUBLIC "-//W3C//DTD SVG 1.1//EN"
 "http://www.w3.org/Graphics/SVG/1.1/DTD/svg11.dtd">
<!-- Generated by graphviz version 8.1.0 (20230707.0739)
 -->
<!-- Title: PwrCtrl_Initialize Pages: 1 -->
<svg width="618pt" height="94pt"
 viewBox="0.00 0.00 618.00 94.00" xmlns="http://www.w3.org/2000/svg" xmlns:xlink="http://www.w3.org/1999/xlink">
<g id="graph0" class="graph" transform="scale(1 1) rotate(0) translate(4 90)">
<title>PwrCtrl_Initialize</title>
<!-- Node1 -->
<g id="Node000001" class="node">
<title>Node1</title>
<g id="a_Node000001"><a xlink:title="Initialize the power control parameters.">
<polygon fill="#999999" stroke="#666666" points="88,-39 0,-39 0,-19 88,-19 88,-39"/>
<text text-anchor="middle" x="44" y="-25.5" font-family="Helvetica,sans-Serif" font-size="10.00">PwrCtrl_Initialize</text>
</a>
</g>
</g>
<!-- Node2 -->
<g id="Node000002" class="node">
<title>Node2</title>
<g id="a_Node000002"><a xlink:href="a00434.html#gae58162e874535adf2003e9ed8a13b656" target="_top" xlink:title="Initializes the control loop.">
<polygon fill="white" stroke="#666666" points="263.75,-58 124,-58 124,-38 263.75,-38 263.75,-58"/>
<text text-anchor="middle" x="193.88" y="-44.5" font-family="Helvetica,sans-Serif" font-size="10.00">PwrCtrl_ControlLoopInitialize</text>
</a>
</g>
</g>
<!-- Node1&#45;&gt;Node2 -->
<g id="edge1_Node000001_Node000002" class="edge">
<title>Node1&#45;&gt;Node2</title>
<g id="a_edge1_Node000001_Node000002"><a xlink:title=" ">
<path fill="none" stroke="#63b8ff" d="M88.17,-34.55C96.02,-35.56 104.44,-36.64 112.96,-37.73"/>
<polygon fill="#63b8ff" stroke="#63b8ff" points="112.41,-41.32 122.78,-39.12 113.3,-34.38 112.41,-41.32"/>
</a>
</g>
</g>
<!-- Node7 -->
<g id="Node000007" class="node">
<title>Node7</title>
<g id="a_Node000007"><a xlink:href="a00434.html#ga45940145031d4886842c27f5e5277e9b" target="_top" xlink:title="Initialize the StartUp Ramp configuration.">
<polygon fill="white" stroke="#666666" points="254.38,-20 133.38,-20 133.38,0 254.38,0 254.38,-20"/>
<text text-anchor="middle" x="193.88" y="-6.5" font-family="Helvetica,sans-Serif" font-size="10.00">PwrCtrl_StartUpInitialize</text>
</a>
</g>
</g>
<!-- Node1&#45;&gt;Node7 -->
<g id="edge6_Node000001_Node000007" class="edge">
<title>Node1&#45;&gt;Node7</title>
<g id="a_edge6_Node000001_Node000007"><a xlink:title=" ">
<path fill="none" stroke="#63b8ff" d="M88.17,-23.45C98.87,-22.08 110.62,-20.57 122.27,-19.07"/>
<polygon fill="#63b8ff" stroke="#63b8ff" points="122.42,-22.45 131.89,-17.71 121.53,-15.51 122.42,-22.45"/>
</a>
</g>
</g>
<!-- Node3 -->
<g id="Node000003" class="node">
<title>Node3</title>
<g id="a_Node000003"><a xlink:href="a00438.html#ga683c378ec457def5ed040dac9759eb44" target="_top" xlink:title="Initialize the Current Loop Control.">
<polygon fill="white" stroke="#666666" points="415.88,-86 309.12,-86 309.12,-54 415.88,-54 415.88,-86"/>
<text text-anchor="start" x="317.12" y="-72.5" font-family="Helvetica,sans-Serif" font-size="10.00">PwrCtrl_IComp_3p3z</text>
<text text-anchor="middle" x="362.5" y="-60.5" font-family="Helvetica,sans-Serif" font-size="10.00">_Initialize</text>
</a>
</g>
</g>
<!-- Node2&#45;&gt;Node3 -->
<g id="edge2_Node000002_Node000003" class="edge">
<title>Node2&#45;&gt;Node3</title>
<g id="a_edge2_Node000002_Node000003"><a xlink:title=" ">
<path fill="none" stroke="#63b8ff" d="M264.09,-57.14C275.29,-58.62 286.84,-60.14 297.9,-61.6"/>
<polygon fill="#63b8ff" stroke="#63b8ff" points="297.39,-65.2 307.76,-63.04 298.3,-58.26 297.39,-65.2"/>
</a>
</g>
</g>
<!-- Node5 -->
<g id="Node000005" class="node">
<title>Node5</title>
<g id="a_Node000005"><a xlink:href="a00438.html#ga8603aa8f7d4f64fa925228cf9c99de83" target="_top" xlink:title="Initialize the Voltage Loop Control.">
<polygon fill="white" stroke="#666666" points="425.25,-36 299.75,-36 299.75,-16 425.25,-16 425.25,-36"/>
<text text-anchor="middle" x="362.5" y="-22.5" font-family="Helvetica,sans-Serif" font-size="10.00">PwrCtrl_VComp_Initialize</text>
</a>
</g>
</g>
<!-- Node2&#45;&gt;Node5 -->
<g id="edge4_Node000002_Node000005" class="edge">
<title>Node2&#45;&gt;Node5</title>
<g id="a_edge4_Node000002_Node000005"><a xlink:title=" ">
<path fill="none" stroke="#63b8ff" d="M264.09,-38.86C272.24,-37.79 280.57,-36.69 288.76,-35.6"/>
<polygon fill="#63b8ff" stroke="#63b8ff" points="288.96,-38.98 298.42,-34.2 288.04,-32.04 288.96,-38.98"/>
</a>
</g>
</g>
<!-- Node4 -->
<g id="Node000004" class="node">
<title>Node4</title>
<g id="a_Node000004"><a xlink:href="a00374.html#a4201f46447c8802666c1fe6ade902908" target="_top" xlink:title=" ">
<polygon fill="white" stroke="#666666" points="610,-80 461.25,-80 461.25,-60 610,-60 610,-80"/>
<text text-anchor="middle" x="535.62" y="-66.5" font-family="Helvetica,sans-Serif" font-size="10.00">SMPS_Controller3P3ZInitialize</text>
</a>
</g>
</g>
<!-- Node3&#45;&gt;Node4 -->
<g id="edge3_Node000003_Node000004" class="edge">
<title>Node3&#45;&gt;Node4</title>
<g id="a_edge3_Node000003_Node000004"><a xlink:title=" ">
<path fill="none" stroke="#63b8ff" d="M416.24,-70C426.96,-70 438.48,-70 449.99,-70"/>
<polygon fill="#63b8ff" stroke="#63b8ff" points="449.98,-73.5 459.98,-70 449.98,-66.5 449.98,-73.5"/>
</a>
</g>
</g>
<!-- Node6 -->
<g id="Node000006" class="node">
<title>Node6</title>
<g id="a_Node000006"><a xlink:href="a00374.html#a8d0d916c7a3ca172408fcded86a6baa2" target="_top" xlink:title=" ">
<polygon fill="white" stroke="#666666" points="610,-36 461.25,-36 461.25,-16 610,-16 610,-36"/>
<text text-anchor="middle" x="535.62" y="-22.5" font-family="Helvetica,sans-Serif" font-size="10.00">SMPS_Controller2P2ZInitialize</text>
</a>
</g>
</g>
<!-- Node5&#45;&gt;Node6 -->
<g id="edge5_Node000005_Node000006" class="edge">
<title>Node5&#45;&gt;Node6</title>
<g id="a_edge5_Node000005_Node000006"><a xlink:title=" ">
<path fill="none" stroke="#63b8ff" d="M425.28,-26C433.33,-26 441.69,-26 450.04,-26"/>
<polygon fill="#63b8ff" stroke="#63b8ff" points="449.98,-29.5 459.98,-26 449.98,-22.5 449.98,-29.5"/>
</a>
</g>
</g>
</g>
</svg>
