<?xml version="1.0" encoding="UTF-8" standalone="no"?>
<!DOCTYPE svg PUBLIC "-//W3C//DTD SVG 1.1//EN"
 "http://www.w3.org/Graphics/SVG/1.1/DTD/svg11.dtd">
<!-- Generated by graphviz version 8.1.0 (20230707.0739)
 -->
<!-- Title: psfb_droop.X/sources/pwrctrl/pwrctrl_pwm.c Pages: 1 -->
<!--zoomable 432 -->

<svg id="main" version="1.1" xmlns="http://www.w3.org/2000/svg" xmlns:xlink="http://www.w3.org/1999/xlink" xml:space="preserve" onload="init(evt)">

<style type="text/css"><![CDATA[
.node, .edge {opacity: 0.7;}
.node.selected, .edge.selected {opacity: 1;}
.edge:hover path { stroke: red; }
.edge:hover polygon { stroke: red; fill: red; }
]]></style>

<defs>
  <circle id="rim" cx="0" cy="0" r="7"/>
  <circle id="rim2" cx="0" cy="0" r="3.5"/>
  <g id="zoomPlus">
    <use xlink:href="#rim" fill="#404040"><set attributeName="fill" to="#808080" begin="zoomplus.mouseover" end="zoomplus.mouseout"/></use>
    <path d="M-4,0h8M0,-4v8" fill="none" stroke="white" stroke-width="1.5" pointer-events="none"/>
  </g>
  <g id="zoomMin">
    <use xlink:href="#rim" fill="#404040"><set attributeName="fill" to="#808080" begin="zoomminus.mouseover" end="zoomminus.mouseout"/></use>
    <path d="M-4,0h8" fill="none" stroke="white" stroke-width="1.5" pointer-events="none"/>
  </g>
  <g id="arrowUp" transform="translate(30 24)">
    <use xlink:href="#rim"/>
    <path pointer-events="none" fill="none" stroke="white" stroke-width="1.5" d="M0,-3.0v7 M-2.5,-0.5L0,-3.0L2.5,-0.5"/>
  </g>
  <g id="arrowRight" transform="rotate(90) translate(36 -43)">
    <use xlink:href="#rim"/>
    <path pointer-events="none" fill="none" stroke="white" stroke-width="1.5" d="M0,-3.0v7 M-2.5,-0.5L0,-3.0L2.5,-0.5"/>
  </g>
  <g id="arrowDown" transform="rotate(180) translate(-30 -48)">
    <use xlink:href="#rim"/>
    <path pointer-events="none" fill="none" stroke="white" stroke-width="1.5" d="M0,-3.0v7 M-2.5,-0.5L0,-3.0L2.5,-0.5"/>
  </g>
  <g id="arrowLeft" transform="rotate(270) translate(-36 17)">
    <use xlink:href="#rim"/>
    <path pointer-events="none" fill="none" stroke="white" stroke-width="1.5" d="M0,-3.0v7 M-2.5,-0.5L0,-3.0L2.5,-0.5"/>
  </g>
  <g id="resetDef">
    <use xlink:href="#rim2" fill="#404040"><set attributeName="fill" to="#808080" begin="reset.mouseover" end="reset.mouseout"/></use>
  </g>
</defs>
<script type="application/ecmascript">
var viewWidth = 595;
var viewHeight = 432;
var sectionId = 'dynsection-0';
</script>
<script type="application/ecmascript" xlink:href="svg.min.js"/>
<svg id="graph" class="graph">
<g id="viewport">
<title>psfb_droop.X/sources/pwrctrl/pwrctrl_pwm.c</title>
<!-- Node1 -->
<g id="Node000001" class="node">
<title>Node1</title>
<g id="a_Node000001"><a xlink:title="Contains PSFB control phase calculation between primary and secondary, and the PWM distribution.">
<polygon fill="#999999" stroke="#666666" points="205.75,-424 93,-424 93,-392 205.75,-392 205.75,-424"/>
<text text-anchor="start" x="101" y="-410.5" font-family="Helvetica,sans-Serif" font-size="10.00">psfb_droop.X/sources</text>
<text text-anchor="middle" x="149.38" y="-398.5" font-family="Helvetica,sans-Serif" font-size="10.00">/pwrctrl/pwrctrl_pwm.c</text>
</a>
</g>
</g>
<!-- Node2 -->
<g id="Node000002" class="node">
<title>Node2</title>
<g id="a_Node000002"><a xlink:title=" ">
<polygon fill="#e0e0e0" stroke="#999999" points="34.75,-76 0,-76 0,-56 34.75,-56 34.75,-76"/>
<text text-anchor="middle" x="17.38" y="-62.5" font-family="Helvetica,sans-Serif" font-size="10.00">xc.h</text>
</a>
</g>
</g>
<!-- Node1&#45;&gt;Node2 -->
<g id="edge1_Node000001_Node000002" class="edge">
<title>Node1&#45;&gt;Node2</title>
<g id="a_edge1_Node000001_Node000002"><a xlink:title=" ">
<path fill="none" stroke="#63b8ff" d="M120.96,-391.65C89.86,-372.54 44.38,-336.77 44.38,-291 44.38,-291 44.38,-291 44.38,-177 44.38,-144.5 33.12,-108.11 25.14,-86.4"/>
<polygon fill="#63b8ff" stroke="#63b8ff" points="28.09,-85.31 21.24,-77.23 21.55,-87.82 28.09,-85.31"/>
</a>
</g>
</g>
<!-- Node3 -->
<g id="Node000003" class="node">
<title>Node3</title>
<g id="a_Node000003"><a xlink:title=" ">
<polygon fill="#e0e0e0" stroke="#999999" points="403.25,-20 347.5,-20 347.5,0 403.25,0 403.25,-20"/>
<text text-anchor="middle" x="375.38" y="-6.5" font-family="Helvetica,sans-Serif" font-size="10.00">stdbool.h</text>
</a>
</g>
</g>
<!-- Node1&#45;&gt;Node3 -->
<g id="edge2_Node000001_Node000003" class="edge">
<title>Node1&#45;&gt;Node3</title>
<g id="a_edge2_Node000001_Node000003"><a xlink:title=" ">
<path fill="none" stroke="#63b8ff" d="M206.19,-403.86C324.7,-395.75 587.38,-368.97 587.38,-291 587.38,-291 587.38,-291 587.38,-121 587.38,-43.9 475.55,-20.77 414.33,-13.88"/>
<polygon fill="#63b8ff" stroke="#63b8ff" points="414.83,-10.31 404.53,-12.78 414.12,-17.28 414.83,-10.31"/>
</a>
</g>
</g>
<!-- Node4 -->
<g id="Node000004" class="node">
<title>Node4</title>
<g id="a_Node000004"><a xlink:href="a00119.html" target="_top" xlink:title="This is the generated driver header file for the PWM driver.">
<polygon fill="white" stroke="#666666" points="183.12,-132 99.62,-132 99.62,-112 183.12,-112 183.12,-132"/>
<text text-anchor="middle" x="141.38" y="-118.5" font-family="Helvetica,sans-Serif" font-size="10.00">pwm_hs/pwm.h</text>
</a>
</g>
</g>
<!-- Node1&#45;&gt;Node4 -->
<g id="edge3_Node000001_Node000004" class="edge">
<title>Node1&#45;&gt;Node4</title>
<g id="a_edge3_Node000001_Node000004"><a xlink:title=" ">
<path fill="none" stroke="#63b8ff" d="M140.94,-391.76C129.75,-370.07 111.38,-328.72 111.38,-291 111.38,-291 111.38,-291 111.38,-233 111.38,-200.3 123.87,-163.99 132.73,-142.36"/>
<polygon fill="#63b8ff" stroke="#63b8ff" points="136.24,-144.04 136.95,-133.47 129.8,-141.3 136.24,-144.04"/>
</a>
</g>
</g>
<!-- Node9 -->
<g id="Node000009" class="node">
<title>Node9</title>
<g id="a_Node000009"><a xlink:href="a00416_source.html" target="_top" xlink:title=" ">
<polygon fill="white" stroke="#666666" points="346.12,-188 256.62,-188 256.62,-168 346.12,-168 346.12,-188"/>
<text text-anchor="middle" x="301.38" y="-174.5" font-family="Helvetica,sans-Serif" font-size="10.00">pwrctrl_typedef.h</text>
</a>
</g>
</g>
<!-- Node1&#45;&gt;Node9 -->
<g id="edge13_Node000001_Node000009" class="edge">
<title>Node1&#45;&gt;Node9</title>
<g id="a_edge13_Node000001_Node000009"><a xlink:title=" ">
<path fill="none" stroke="#63b8ff" d="M145.98,-391.73C139.33,-357.53 128.5,-273.91 168.38,-224 186.98,-200.71 218.15,-189.4 245.64,-183.95"/>
<polygon fill="#63b8ff" stroke="#63b8ff" points="246.11,-187.24 255.36,-182.07 244.9,-180.35 246.11,-187.24"/>
</a>
</g>
</g>
<!-- Node12 -->
<g id="Node000012" class="node">
<title>Node12</title>
<g id="a_Node000012"><a xlink:href="a00410.html" target="_top" xlink:title="Contains public functions for PWM.">
<polygon fill="white" stroke="#666666" points="386.5,-356 308.25,-356 308.25,-336 386.5,-336 386.5,-356"/>
<text text-anchor="middle" x="347.38" y="-342.5" font-family="Helvetica,sans-Serif" font-size="10.00">pwrctrl_pwm.h</text>
</a>
</g>
</g>
<!-- Node1&#45;&gt;Node12 -->
<g id="edge18_Node000001_Node000012" class="edge">
<title>Node1&#45;&gt;Node12</title>
<g id="a_edge18_Node000001_Node000012"><a xlink:title=" ">
<path fill="none" stroke="#63b8ff" d="M200.36,-391.55C233.06,-381.64 274.98,-368.94 305.68,-359.64"/>
<polygon fill="#63b8ff" stroke="#63b8ff" points="306.48,-362.75 315.04,-356.5 304.45,-356.05 306.48,-362.75"/>
</a>
</g>
</g>
<!-- Node4&#45;&gt;Node2 -->
<g id="edge4_Node000004_Node000002" class="edge">
<title>Node4&#45;&gt;Node2</title>
<g id="a_edge4_Node000004_Node000002"><a xlink:title=" ">
<path fill="none" stroke="#63b8ff" d="M119.78,-111.59C99.05,-102.57 67.66,-88.9 45.09,-79.07"/>
<polygon fill="#63b8ff" stroke="#63b8ff" points="46.68,-75.51 36.12,-74.73 43.89,-81.93 46.68,-75.51"/>
</a>
</g>
</g>
<!-- Node4&#45;&gt;Node3 -->
<g id="edge6_Node000004_Node000003" class="edge">
<title>Node4&#45;&gt;Node3</title>
<g id="a_edge6_Node000004_Node000003"><a xlink:title=" ">
<path fill="none" stroke="#63b8ff" d="M183.4,-111.86C213.13,-104.48 253.41,-92.58 286.38,-76 312.72,-62.75 339.61,-41.89 356.83,-27.39"/>
<polygon fill="#63b8ff" stroke="#63b8ff" points="358.59,-29.63 363.9,-20.46 354.03,-24.32 358.59,-29.63"/>
</a>
</g>
</g>
<!-- Node5 -->
<g id="Node000005" class="node">
<title>Node5</title>
<g id="a_Node000005"><a xlink:title=" ">
<polygon fill="#e0e0e0" stroke="#999999" points="310.5,-20 262.25,-20 262.25,0 310.5,0 310.5,-20"/>
<text text-anchor="middle" x="286.38" y="-6.5" font-family="Helvetica,sans-Serif" font-size="10.00">stdint.h</text>
</a>
</g>
</g>
<!-- Node4&#45;&gt;Node5 -->
<g id="edge5_Node000004_Node000005" class="edge">
<title>Node4&#45;&gt;Node5</title>
<g id="a_edge5_Node000004_Node000005"><a xlink:title=" ">
<path fill="none" stroke="#63b8ff" d="M183.59,-115.88C210.99,-110.41 245.54,-99.15 267.38,-76 278.84,-63.84 283.43,-45.13 285.25,-30.91"/>
<polygon fill="#63b8ff" stroke="#63b8ff" points="288.8,-31.53 286.21,-21.25 281.83,-30.9 288.8,-31.53"/>
</a>
</g>
</g>
<!-- Node6 -->
<g id="Node000006" class="node">
<title>Node6</title>
<g id="a_Node000006"><a xlink:title=" ">
<polygon fill="#e0e0e0" stroke="#999999" points="258.12,-76 210.62,-76 210.62,-56 258.12,-56 258.12,-76"/>
<text text-anchor="middle" x="234.38" y="-62.5" font-family="Helvetica,sans-Serif" font-size="10.00">stdlib.h</text>
</a>
</g>
</g>
<!-- Node4&#45;&gt;Node6 -->
<g id="edge7_Node000004_Node000006" class="edge">
<title>Node4&#45;&gt;Node6</title>
<g id="a_edge7_Node000004_Node000006"><a xlink:title=" ">
<path fill="none" stroke="#63b8ff" d="M157.57,-111.59C171.76,-103.36 192.6,-91.26 208.99,-81.74"/>
<polygon fill="#63b8ff" stroke="#63b8ff" points="210.16,-84.53 217.05,-76.48 206.64,-78.47 210.16,-84.53"/>
</a>
</g>
</g>
<!-- Node7 -->
<g id="Node000007" class="node">
<title>Node7</title>
<g id="a_Node000007"><a xlink:href="a00128.html" target="_top" xlink:title="This is the generated driver types header file for the PWM driver.">
<polygon fill="white" stroke="#666666" points="147.12,-20 57.62,-20 57.62,0 147.12,0 147.12,-20"/>
<text text-anchor="middle" x="102.38" y="-6.5" font-family="Helvetica,sans-Serif" font-size="10.00">pwm_hs_types.h</text>
</a>
</g>
</g>
<!-- Node4&#45;&gt;Node7 -->
<g id="edge8_Node000004_Node000007" class="edge">
<title>Node4&#45;&gt;Node7</title>
<g id="a_edge8_Node000004_Node000007"><a xlink:title=" ">
<path fill="none" stroke="#63b8ff" d="M120.3,-111.54C106.46,-104.06 89.47,-92.19 81.38,-76 73.85,-60.95 81.11,-42.63 89.08,-29.27"/>
<polygon fill="#63b8ff" stroke="#63b8ff" points="92.5,-31.44 95.09,-21.17 86.66,-27.59 92.5,-31.44"/>
</a>
</g>
</g>
<!-- Node8 -->
<g id="Node000008" class="node">
<title>Node8</title>
<g id="a_Node000008"><a xlink:href="a00125_source.html" target="_top" xlink:title=" ">
<polygon fill="white" stroke="#666666" points="192.5,-76 90.25,-76 90.25,-56 192.5,-56 192.5,-76"/>
<text text-anchor="middle" x="141.38" y="-62.5" font-family="Helvetica,sans-Serif" font-size="10.00">pwm_hs_interface.h</text>
</a>
</g>
</g>
<!-- Node4&#45;&gt;Node8 -->
<g id="edge9_Node000004_Node000008" class="edge">
<title>Node4&#45;&gt;Node8</title>
<g id="a_edge9_Node000004_Node000008"><a xlink:title=" ">
<path fill="none" stroke="#63b8ff" d="M141.38,-111.59C141.38,-104.86 141.38,-95.53 141.38,-87.15"/>
<polygon fill="#63b8ff" stroke="#63b8ff" points="144.88,-87.3 141.38,-77.3 137.88,-87.3 144.88,-87.3"/>
</a>
</g>
</g>
<!-- Node8&#45;&gt;Node3 -->
<g id="edge10_Node000008_Node000003" class="edge">
<title>Node8&#45;&gt;Node3</title>
<g id="a_edge10_Node000008_Node000003"><a xlink:title=" ">
<path fill="none" stroke="#63b8ff" d="M182.4,-55.53C225.93,-45.49 294.18,-29.74 336.76,-19.91"/>
<polygon fill="#63b8ff" stroke="#63b8ff" points="337.31,-23.15 346.27,-17.49 335.74,-16.32 337.31,-23.15"/>
</a>
</g>
</g>
<!-- Node8&#45;&gt;Node5 -->
<g id="edge11_Node000008_Node000005" class="edge">
<title>Node8&#45;&gt;Node5</title>
<g id="a_edge11_Node000008_Node000005"><a xlink:title=" ">
<path fill="none" stroke="#63b8ff" d="M166.63,-55.59C190.17,-46.83 225.46,-33.68 251.64,-23.93"/>
<polygon fill="#63b8ff" stroke="#63b8ff" points="252.74,-26.89 260.89,-20.12 250.3,-20.33 252.74,-26.89"/>
</a>
</g>
</g>
<!-- Node8&#45;&gt;Node7 -->
<g id="edge12_Node000008_Node000007" class="edge">
<title>Node8&#45;&gt;Node7</title>
<g id="a_edge12_Node000008_Node000007"><a xlink:title=" ">
<path fill="none" stroke="#63b8ff" d="M134.58,-55.59C129.32,-48.32 121.89,-38.02 115.48,-29.15"/>
<polygon fill="#63b8ff" stroke="#63b8ff" points="117.78,-27.36 109.09,-21.3 112.11,-31.45 117.78,-27.36"/>
</a>
</g>
</g>
<!-- Node10 -->
<g id="Node000010" class="node">
<title>Node10</title>
<g id="a_Node000010"><a xlink:href="a00317.html" target="_top" xlink:title="Contains fault data types.">
<polygon fill="white" stroke="#666666" points="398.38,-132 298.38,-132 298.38,-112 398.38,-112 398.38,-132"/>
<text text-anchor="middle" x="348.38" y="-118.5" font-family="Helvetica,sans-Serif" font-size="10.00">fault/fault_typedef.h</text>
</a>
</g>
</g>
<!-- Node9&#45;&gt;Node10 -->
<g id="edge14_Node000009_Node000010" class="edge">
<title>Node9&#45;&gt;Node10</title>
<g id="a_edge14_Node000009_Node000010"><a xlink:title=" ">
<path fill="none" stroke="#63b8ff" d="M309.56,-167.59C316.03,-160.16 325.24,-149.58 333.07,-140.58"/>
<polygon fill="#63b8ff" stroke="#63b8ff" points="336.36,-143.14 340.28,-133.3 331.08,-138.54 336.36,-143.14"/>
</a>
</g>
</g>
<!-- Node11 -->
<g id="Node000011" class="node">
<title>Node11</title>
<g id="a_Node000011"><a xlink:href="a00308.html" target="_top" xlink:title="Contains fault generic public functions.">
<polygon fill="white" stroke="#666666" points="437.88,-76 352.88,-76 352.88,-56 437.88,-56 437.88,-76"/>
<text text-anchor="middle" x="395.38" y="-62.5" font-family="Helvetica,sans-Serif" font-size="10.00">fault_common.h</text>
</a>
</g>
</g>
<!-- Node10&#45;&gt;Node11 -->
<g id="edge15_Node000010_Node000011" class="edge">
<title>Node10&#45;&gt;Node11</title>
<g id="a_edge15_Node000010_Node000011"><a xlink:title=" ">
<path fill="none" stroke="#63b8ff" d="M356.56,-111.59C363.03,-104.16 372.24,-93.58 380.07,-84.58"/>
<polygon fill="#63b8ff" stroke="#63b8ff" points="383.36,-87.14 387.28,-77.3 378.08,-82.54 383.36,-87.14"/>
</a>
</g>
</g>
<!-- Node11&#45;&gt;Node3 -->
<g id="edge17_Node000011_Node000003" class="edge">
<title>Node11&#45;&gt;Node3</title>
<g id="a_edge17_Node000011_Node000003"><a xlink:title=" ">
<path fill="none" stroke="#63b8ff" d="M391.89,-55.59C389.34,-48.7 385.78,-39.1 382.62,-30.57"/>
<polygon fill="#63b8ff" stroke="#63b8ff" points="385.57,-29.46 378.82,-21.3 379.01,-31.89 385.57,-29.46"/>
</a>
</g>
</g>
<!-- Node11&#45;&gt;Node5 -->
<g id="edge16_Node000011_Node000005" class="edge">
<title>Node11&#45;&gt;Node5</title>
<g id="a_edge16_Node000011_Node000005"><a xlink:title=" ">
<path fill="none" stroke="#63b8ff" d="M376.39,-55.59C359.53,-47.24 334.65,-34.92 315.32,-25.34"/>
<polygon fill="#63b8ff" stroke="#63b8ff" points="317.02,-21.78 306.51,-20.48 313.92,-28.05 317.02,-21.78"/>
</a>
</g>
</g>
<!-- Node12&#45;&gt;Node9 -->
<g id="edge19_Node000012_Node000009" class="edge">
<title>Node12&#45;&gt;Node9</title>
<g id="a_edge19_Node000012_Node000009"><a xlink:title=" ">
<path fill="none" stroke="#63b8ff" d="M386.76,-336.16C453.28,-319.47 576.35,-279.89 530.38,-224 508.9,-197.89 418.13,-186.7 357.52,-182.07"/>
<polygon fill="#63b8ff" stroke="#63b8ff" points="357.8,-178.51 347.58,-181.28 357.3,-185.49 357.8,-178.51"/>
</a>
</g>
</g>
<!-- Node13 -->
<g id="Node000013" class="node">
<title>Node13</title>
<g id="a_Node000013"><a xlink:href="a00383_source.html" target="_top" xlink:title=" ">
<polygon fill="white" stroke="#666666" points="389.5,-300 305.25,-300 305.25,-280 389.5,-280 389.5,-300"/>
<text text-anchor="middle" x="347.38" y="-286.5" font-family="Helvetica,sans-Serif" font-size="10.00">pwrctrl/pwrctrl.h</text>
</a>
</g>
</g>
<!-- Node12&#45;&gt;Node13 -->
<g id="edge20_Node000012_Node000013" class="edge">
<title>Node12&#45;&gt;Node13</title>
<g id="a_edge20_Node000012_Node000013"><a xlink:title=" ">
<path fill="none" stroke="#63b8ff" d="M347.38,-335.59C347.38,-328.86 347.38,-319.53 347.38,-311.15"/>
<polygon fill="#63b8ff" stroke="#63b8ff" points="350.88,-311.3 347.38,-301.3 343.88,-311.3 350.88,-311.3"/>
</a>
</g>
</g>
<!-- Node13&#45;&gt;Node9 -->
<g id="edge21_Node000013_Node000009" class="edge">
<title>Node13&#45;&gt;Node9</title>
<g id="a_edge21_Node000013_Node000009"><a xlink:title=" ">
<path fill="none" stroke="#63b8ff" d="M341.15,-279.67C335.43,-270.79 327,-256.9 321.38,-244 315.02,-229.42 309.81,-212.18 306.3,-199.12"/>
<polygon fill="#63b8ff" stroke="#63b8ff" points="309.46,-198.31 303.58,-189.5 302.67,-200.05 309.46,-198.31"/>
</a>
</g>
</g>
<!-- Node14 -->
<g id="Node000014" class="node">
<title>Node14</title>
<g id="a_Node000014"><a xlink:href="a00395.html" target="_top" xlink:title="Contains public functions relevant for power control communication interface.">
<polygon fill="white" stroke="#666666" points="456.88,-244 329.88,-244 329.88,-224 456.88,-224 456.88,-244"/>
<text text-anchor="middle" x="393.38" y="-230.5" font-family="Helvetica,sans-Serif" font-size="10.00">pwrctrl_comm_interface.h</text>
</a>
</g>
</g>
<!-- Node13&#45;&gt;Node14 -->
<g id="edge22_Node000013_Node000014" class="edge">
<title>Node13&#45;&gt;Node14</title>
<g id="a_edge22_Node000013_Node000014"><a xlink:title=" ">
<path fill="none" stroke="#63b8ff" d="M355.39,-279.59C361.72,-272.16 370.74,-261.58 378.4,-252.58"/>
<polygon fill="#63b8ff" stroke="#63b8ff" points="381.63,-255.18 385.45,-245.3 376.31,-250.64 381.63,-255.18"/>
</a>
</g>
</g>
<!-- Node15 -->
<g id="Node000015" class="node">
<title>Node15</title>
<g id="a_Node000015"><a xlink:href="a00389.html" target="_top" xlink:title="Contains the power control reusable functions.">
<polygon fill="white" stroke="#666666" points="273.12,-244 177.62,-244 177.62,-224 273.12,-224 273.12,-244"/>
<text text-anchor="middle" x="225.38" y="-230.5" font-family="Helvetica,sans-Serif" font-size="10.00">pwrctrl_common.h</text>
</a>
</g>
</g>
<!-- Node13&#45;&gt;Node15 -->
<g id="edge23_Node000013_Node000015" class="edge">
<title>Node13&#45;&gt;Node15</title>
<g id="a_edge23_Node000013_Node000015"><a xlink:title=" ">
<path fill="none" stroke="#63b8ff" d="M326.12,-279.59C306.91,-271.09 278.38,-258.46 256.58,-248.81"/>
<polygon fill="#63b8ff" stroke="#63b8ff" points="258.35,-245.33 247.79,-244.48 255.52,-251.73 258.35,-245.33"/>
</a>
</g>
</g>
<!-- Node16 -->
<g id="Node000016" class="node">
<title>Node16</title>
<g id="a_Node000016"><a xlink:title=" ">
<polygon fill="#e0e0e0" stroke="#999999" points="521.38,-244 475.38,-244 475.38,-224 521.38,-224 521.38,-244"/>
<text text-anchor="middle" x="498.38" y="-230.5" font-family="Helvetica,sans-Serif" font-size="10.00">math.h</text>
</a>
</g>
</g>
<!-- Node13&#45;&gt;Node16 -->
<g id="edge25_Node000013_Node000016" class="edge">
<title>Node13&#45;&gt;Node16</title>
<g id="a_edge25_Node000013_Node000016"><a xlink:title=" ">
<path fill="none" stroke="#63b8ff" d="M373.68,-279.59C399.04,-270.52 437.52,-256.76 465.02,-246.93"/>
<polygon fill="#63b8ff" stroke="#63b8ff" points="466.1,-249.9 474.34,-243.24 463.74,-243.31 466.1,-249.9"/>
</a>
</g>
</g>
<!-- Node15&#45;&gt;Node9 -->
<g id="edge24_Node000015_Node000009" class="edge">
<title>Node15&#45;&gt;Node9</title>
<g id="a_edge24_Node000015_Node000009"><a xlink:title=" ">
<path fill="none" stroke="#63b8ff" d="M238.61,-223.59C249.77,-215.67 265.97,-204.16 279.12,-194.82"/>
<polygon fill="#63b8ff" stroke="#63b8ff" points="280.91,-197.12 287.03,-188.48 276.85,-191.42 280.91,-197.12"/>
</a>
</g>
</g>
</g>
</svg>

<g id="navigator" transform="translate(0 0)" fill="#404254">
  <rect fill="#f2f5e9" fill-opacity="0.5" stroke="#606060" stroke-width=".5" x="0" y="0" width="60" height="60"/>
  <use id="zoomplus" xlink:href="#zoomPlus" x="17" y="9" onmousedown="handleZoom(evt,'in')"/>
  <use id="zoomminus" xlink:href="#zoomMin" x="42" y="9" onmousedown="handleZoom(evt,'out')"/>
  <use id="reset" xlink:href="#resetDef" x="30" y="36" onmousedown="handleReset()"/>
   <use id="arrowup" xlink:href="#arrowUp" x="0" y="0" onmousedown="handlePan(0,-1)"/>
  <use id="arrowright" xlink:href="#arrowRight" x="0" y="0" onmousedown="handlePan(1,0)"/>
  <use id="arrowdown" xlink:href="#arrowDown" x="0" y="0" onmousedown="handlePan(0,1)"/>
  <use id="arrowleft" xlink:href="#arrowLeft" x="0" y="0" onmousedown="handlePan(-1,0)"/>
</g>
<svg viewBox="0 0 15 15" width="100%" height="30px" preserveAspectRatio="xMaxYMin meet">
 <g id="arrow_out" transform="scale(0.3 0.3)">
  <a xlink:href="a00408_org.svg" target="_base">
   <rect id="button" ry="5" rx="5" y="6" x="6" height="38" width="38"
        fill="#f2f5e9" fill-opacity="0.5" stroke="#606060" stroke-width="1.0"/>
   <path id="arrow"
     d="M 11.500037,31.436501 C 11.940474,20.09759 22.043105,11.32322 32.158766,21.979434 L 37.068811,17.246167 C 37.068811,17.246167 37.088388,32 37.088388,32 L 22.160133,31.978069 C 22.160133,31.978069 26.997745,27.140456 26.997745,27.140456 C 18.528582,18.264221 13.291696,25.230495 11.500037,31.436501 z"
     style="fill:#404040;"/>
  </a>
 </g>
</svg>

<style type='text/css'>
<![CDATA[
[data-mouse-over-selected='false'] { opacity: 0.7; }
[data-mouse-over-selected='true']  { opacity: 1.0; }
]]>
</style>
<script type="application/ecmascript"><![CDATA[
document.addEventListener('DOMContentLoaded', (event) => {
  highlightEdges();
  highlightAdjacentNodes();
});
]]></script>
</svg>
