<?xml version="1.0" encoding="UTF-8" standalone="no"?>
<!DOCTYPE svg PUBLIC "-//W3C//DTD SVG 1.1//EN"
 "http://www.w3.org/Graphics/SVG/1.1/DTD/svg11.dtd">
<!-- Generated by graphviz version 8.1.0 (20230707.0739)
 -->
<!-- Title: APP_PBV_INTF_API_s Pages: 1 -->
<svg width="248pt" height="294pt"
 viewBox="0.00 0.00 248.00 294.00" xmlns="http://www.w3.org/2000/svg" xmlns:xlink="http://www.w3.org/1999/xlink">

<svg id="main" version="1.1" xmlns="http://www.w3.org/2000/svg" xmlns:xlink="http://www.w3.org/1999/xlink" xml:space="preserve">

<style type="text/css"><![CDATA[
.node, .edge {opacity: 0.7;}
.node.selected, .edge.selected {opacity: 1;}
.edge:hover path { stroke: red; }
.edge:hover polygon { stroke: red; fill: red; }
]]></style>
<script type="application/ecmascript" xlink:href="svg.min.js"/>
<svg id="graph" class="graph">
<g id="graph0" class="graph" transform="scale(1 1) rotate(0) translate(4 290)">
<title>APP_PBV_INTF_API_s</title>
<!-- Node1 -->
<g id="Node000001" class="node">
<title>Node1</title>
<g id="a_Node000001"><a xlink:title="structure of API function pointers.">
<polygon fill="#999999" stroke="none" points="175.5,-84 63.5,-84 63.5,0 175.5,0 175.5,-84"/>
<text text-anchor="start" x="68.12" y="-70.5" font-family="Helvetica,sans-Serif" font-size="10.00">APP_PBV_INTF_API_s</text>
<text text-anchor="start" x="79.5" y="-54.5" font-family="Helvetica,sans-Serif" font-size="10.00">+</text>
<text text-anchor="start" x="101.5" y="-54.5" font-family="Helvetica,sans-Serif" font-size="10.00">rxGui</text>
<text text-anchor="start" x="79.5" y="-38.5" font-family="Helvetica,sans-Serif" font-size="10.00">+</text>
<text text-anchor="start" x="101.5" y="-38.5" font-family="Helvetica,sans-Serif" font-size="10.00">txGui</text>
<text text-anchor="start" x="79.5" y="-22.5" font-family="Helvetica,sans-Serif" font-size="10.00">+</text>
<text text-anchor="start" x="101.5" y="-22.5" font-family="Helvetica,sans-Serif" font-size="10.00">txGuiAscii</text>
<text text-anchor="start" x="118" y="-6.5" font-family="Helvetica,sans-Serif" font-size="10.00"> </text>
<polygon fill="#666666" stroke="#666666" points="63.5,-66 63.5,-66 175.5,-66 175.5,-66 63.5,-66"/>
<polygon fill="#666666" stroke="#666666" points="63.5,-18 63.5,-18 99.5,-18 99.5,-18 63.5,-18"/>
<polygon fill="#666666" stroke="#666666" points="99.5,-18 99.5,-18 175.5,-18 175.5,-18 99.5,-18"/>
<polygon fill="none" stroke="#666666" points="63.5,0 63.5,-84 175.5,-84 175.5,0 63.5,0"/>
</a>
</g>
</g>
<!-- Node2 -->
<g id="Node000002" class="node">
<title>Node2</title>
<g id="a_Node000002"><a xlink:href="a00537.html" target="_top" xlink:title=" ">
<polygon fill="white" stroke="none" points="111,-286 0,-286 0,-170 111,-170 111,-286"/>
<text text-anchor="start" x="11.25" y="-272.5" font-family="Helvetica,sans-Serif" font-size="10.00">PBV_Datatype_TX_t</text>
<text text-anchor="start" x="4" y="-256.5" font-family="Helvetica,sans-Serif" font-size="10.00">+</text>
<text text-anchor="start" x="14" y="-256.5" font-family="Helvetica,sans-Serif" font-size="10.00">Length</text>
<text text-anchor="start" x="4" y="-240.5" font-family="Helvetica,sans-Serif" font-size="10.00">+</text>
<text text-anchor="start" x="14" y="-240.5" font-family="Helvetica,sans-Serif" font-size="10.00">PBV_Protcol_ID</text>
<text text-anchor="start" x="4" y="-224.5" font-family="Helvetica,sans-Serif" font-size="10.00">+</text>
<text text-anchor="start" x="14" y="-224.5" font-family="Helvetica,sans-Serif" font-size="10.00">PBV_Signal_Ascii</text>
<text text-anchor="start" x="4" y="-208.5" font-family="Helvetica,sans-Serif" font-size="10.00">+</text>
<text text-anchor="start" x="14" y="-208.5" font-family="Helvetica,sans-Serif" font-size="10.00">PBV_Message_State</text>
<text text-anchor="start" x="4" y="-192.5" font-family="Helvetica,sans-Serif" font-size="10.00">+</text>
<text text-anchor="start" x="14" y="-192.5" font-family="Helvetica,sans-Serif" font-size="10.00">Data_Buffer</text>
<text text-anchor="start" x="54" y="-176.5" font-family="Helvetica,sans-Serif" font-size="10.00"> </text>
<polygon fill="#666666" stroke="#666666" points="0,-268 0,-268 111,-268 111,-268 0,-268"/>
<polygon fill="#666666" stroke="#666666" points="0,-188 0,-188 12,-188 12,-188 0,-188"/>
<polygon fill="#666666" stroke="#666666" points="12,-188 12,-188 111,-188 111,-188 12,-188"/>
<polygon fill="none" stroke="#666666" points="0,-170 0,-286 111,-286 111,-170 0,-170"/>
</a>
</g>
</g>
<!-- Node2&#45;&gt;Node1 -->
<g id="edge1_Node000001_Node000002" class="edge">
<title>Node2&#45;&gt;Node1</title>
<g id="a_edge1_Node000001_Node000002"><a xlink:title=" ">
<path fill="none" stroke="#63b8ff" d="M75.31,-170.04C83.53,-146.42 93,-119.18 101.07,-96"/>
<polygon fill="none" stroke="#63b8ff" points="101.02,-96.12 99.22,-89.14 104.97,-84.78 106.77,-91.76 101.02,-96.12"/>
</a>
</g>
<text text-anchor="start" x="102.5" y="-139.5" font-family="Helvetica,sans-Serif" font-size="10.00" fill="grey">+init</text>
<text text-anchor="start" x="102.5" y="-123.5" font-family="Helvetica,sans-Serif" font-size="10.00" fill="grey">+linkDataTX</text>
<text text-anchor="start" x="102.5" y="-107.5" font-family="Helvetica,sans-Serif" font-size="10.00" fill="grey">+reinit</text>
</g>
<!-- Node3 -->
<g id="Node000003" class="node">
<title>Node3</title>
<g id="a_Node000003"><a xlink:href="a00541.html" target="_top" xlink:title=" ">
<polygon fill="white" stroke="none" points="240,-286 129,-286 129,-170 240,-170 240,-286"/>
<text text-anchor="start" x="139.5" y="-272.5" font-family="Helvetica,sans-Serif" font-size="10.00">PBV_Datatype_RX_t</text>
<text text-anchor="start" x="133" y="-256.5" font-family="Helvetica,sans-Serif" font-size="10.00">+</text>
<text text-anchor="start" x="143" y="-256.5" font-family="Helvetica,sans-Serif" font-size="10.00">Length</text>
<text text-anchor="start" x="133" y="-240.5" font-family="Helvetica,sans-Serif" font-size="10.00">+</text>
<text text-anchor="start" x="143" y="-240.5" font-family="Helvetica,sans-Serif" font-size="10.00">PBV_Protcol_ID</text>
<text text-anchor="start" x="133" y="-224.5" font-family="Helvetica,sans-Serif" font-size="10.00">+</text>
<text text-anchor="start" x="143" y="-224.5" font-family="Helvetica,sans-Serif" font-size="10.00">Callback_Function</text>
<text text-anchor="start" x="133" y="-208.5" font-family="Helvetica,sans-Serif" font-size="10.00">+</text>
<text text-anchor="start" x="143" y="-208.5" font-family="Helvetica,sans-Serif" font-size="10.00">PBV_Message_State</text>
<text text-anchor="start" x="133" y="-192.5" font-family="Helvetica,sans-Serif" font-size="10.00">+</text>
<text text-anchor="start" x="143" y="-192.5" font-family="Helvetica,sans-Serif" font-size="10.00">Data_Buffer</text>
<text text-anchor="start" x="183" y="-176.5" font-family="Helvetica,sans-Serif" font-size="10.00"> </text>
<polygon fill="#666666" stroke="#666666" points="129,-268 129,-268 240,-268 240,-268 129,-268"/>
<polygon fill="#666666" stroke="#666666" points="129,-188 129,-188 141,-188 141,-188 129,-188"/>
<polygon fill="#666666" stroke="#666666" points="141,-188 141,-188 240,-188 240,-188 141,-188"/>
<polygon fill="none" stroke="#666666" points="129,-170 129,-286 240,-286 240,-170 129,-170"/>
</a>
</g>
</g>
<!-- Node3&#45;&gt;Node1 -->
<g id="edge2_Node000001_Node000003" class="edge">
<title>Node3&#45;&gt;Node1</title>
<g id="a_edge2_Node000001_Node000003"><a xlink:title=" ">
<path fill="none" stroke="#63b8ff" d="M179.36,-170.11C176.02,-148.2 170.53,-123.34 161.5,-102 160.53,-99.7 159.45,-97.4 158.29,-95.11"/>
<polygon fill="none" stroke="#63b8ff" points="158.29,-95.11 151.86,-91.86 152.39,-84.67 158.82,-87.92 158.29,-95.11"/>
</a>
</g>
<text text-anchor="start" x="178.5" y="-123.5" font-family="Helvetica,sans-Serif" font-size="10.00" fill="grey">+linkDataRX</text>
</g>
</g>
</svg>
</svg>

<style type='text/css'>
<![CDATA[
[data-mouse-over-selected='false'] { opacity: 0.7; }
[data-mouse-over-selected='true']  { opacity: 1.0; }
]]>
</style>
<script type="application/ecmascript"><![CDATA[
document.addEventListener('DOMContentLoaded', (event) => {
  highlightEdges();
  highlightAdjacentNodes();
});
]]></script>
</svg>
