<?xml version="1.0" encoding="UTF-8" standalone="no"?>
<!DOCTYPE svg PUBLIC "-//W3C//DTD SVG 1.1//EN"
 "http://www.w3.org/Graphics/SVG/1.1/DTD/svg11.dtd">
<!-- Generated by graphviz version 8.1.0 (20230707.0739)
 -->
<!-- Title: POWER_CONTROL_s Pages: 1 -->
<svg width="1683pt" height="890pt"
 viewBox="0.00 0.00 1682.50 890.00" xmlns="http://www.w3.org/2000/svg" xmlns:xlink="http://www.w3.org/1999/xlink">
<g id="graph0" class="graph" transform="scale(1 1) rotate(0) translate(4 886)">
<title>POWER_CONTROL_s</title>
<!-- Node1 -->
<g id="Node000001" class="node">
<title>Node1</title>
<g id="a_Node000001"><a xlink:title="Power control API structure.">
<polygon fill="#999999" stroke="none" points="1053,-52 944,-52 944,0 1053,0 1053,-52"/>
<text text-anchor="start" x="949" y="-38.5" font-family="Helvetica,sans-Serif" font-size="10.00">POWER_CONTROL_s</text>
<text text-anchor="start" x="965" y="-22.5" font-family="Helvetica,sans-Serif" font-size="10.00">+</text>
<text text-anchor="start" x="992" y="-22.5" font-family="Helvetica,sans-Serif" font-size="10.00">State</text>
<text text-anchor="start" x="997" y="-6.5" font-family="Helvetica,sans-Serif" font-size="10.00"> </text>
<polygon fill="#666666" stroke="#666666" points="944,-34 944,-34 1053,-34 1053,-34 944,-34"/>
<polygon fill="#666666" stroke="#666666" points="944,-18 944,-18 990,-18 990,-18 944,-18"/>
<polygon fill="#666666" stroke="#666666" points="990,-18 990,-18 1053,-18 1053,-18 990,-18"/>
<polygon fill="none" stroke="#666666" points="944,0 944,-52 1053,-52 1053,0 944,0"/>
</a>
</g>
</g>
<!-- Node2 -->
<g id="Node000002" class="node">
<title>Node2</title>
<g id="a_Node000002"><a xlink:href="a00605.html" target="_top" xlink:title="Power converter status flags.">
<polygon fill="white" stroke="none" points="279,-334 0,-334 0,-218 279,-218 279,-334"/>
<text text-anchor="start" x="96.75" y="-320.5" font-family="Helvetica,sans-Serif" font-size="10.00">STATUS_FLAGS_s</text>
<text text-anchor="start" x="4" y="-304.5" font-family="Helvetica,sans-Serif" font-size="10.00">+</text>
<text text-anchor="start" x="14" y="-304.5" font-family="Helvetica,sans-Serif" font-size="10.00">Running</text>
<text text-anchor="start" x="4" y="-288.5" font-family="Helvetica,sans-Serif" font-size="10.00">+</text>
<text text-anchor="start" x="14" y="-288.5" font-family="Helvetica,sans-Serif" font-size="10.00">FaultActive</text>
<text text-anchor="start" x="4" y="-272.5" font-family="Helvetica,sans-Serif" font-size="10.00">+</text>
<text text-anchor="start" x="14" y="-272.5" font-family="Helvetica,sans-Serif" font-size="10.00">notUsed</text>
<text text-anchor="start" x="4" y="-256.5" font-family="Helvetica,sans-Serif" font-size="10.00">+</text>
<text text-anchor="start" x="14" y="-256.5" font-family="Helvetica,sans-Serif" font-size="10.00">value</text>
<text text-anchor="start" x="4" y="-240.5" font-family="Helvetica,sans-Serif" font-size="10.00">+</text>
<text text-anchor="start" x="14" y="-240.5" font-family="Helvetica,sans-Serif" font-size="10.00">@066236142271063051255260071310313122021140162272</text>
<text text-anchor="start" x="138" y="-224.5" font-family="Helvetica,sans-Serif" font-size="10.00"> </text>
<polygon fill="#666666" stroke="#666666" points="0,-316 0,-316 279,-316 279,-316 0,-316"/>
<polygon fill="#666666" stroke="#666666" points="0,-236 0,-236 12,-236 12,-236 0,-236"/>
<polygon fill="#666666" stroke="#666666" points="12,-236 12,-236 279,-236 279,-236 12,-236"/>
<polygon fill="none" stroke="#666666" points="0,-218 0,-334 279,-334 279,-218 0,-218"/>
</a>
</g>
</g>
<!-- Node2&#45;&gt;Node1 -->
<g id="edge1_Node000001_Node000002" class="edge">
<title>Node2&#45;&gt;Node1</title>
<g id="a_edge1_Node000001_Node000002"><a xlink:title=" ">
<path fill="none" stroke="#63b8ff" d="M194.83,-218.2C247.61,-168.39 332.04,-99.45 421,-70 513.97,-39.23 799.86,-30.39 931.22,-27.92"/>
<polygon fill="none" stroke="#63b8ff" points="931.3,-27.92 937.23,-23.81 943.3,-27.7 937.37,-31.81 931.3,-27.92"/>
</a>
</g>
<text text-anchor="start" x="424.5" y="-99.5" font-family="Helvetica,sans-Serif" font-size="10.00" fill="grey">+Status</text>
</g>
<!-- Node3 -->
<g id="Node000003" class="node">
<title>Node3</title>
<g id="a_Node000003"><a xlink:href="a00625.html" target="_top" xlink:title="Collection of power control properties.">
<polygon fill="white" stroke="none" points="437.5,-342 297.5,-342 297.5,-210 437.5,-210 437.5,-342"/>
<text text-anchor="start" x="302.25" y="-328.5" font-family="Helvetica,sans-Serif" font-size="10.00">PWR_CTRL_PROPERTIES_s</text>
<text text-anchor="start" x="315" y="-312.5" font-family="Helvetica,sans-Serif" font-size="10.00">+</text>
<text text-anchor="start" x="338.5" y="-312.5" font-family="Helvetica,sans-Serif" font-size="10.00">VSecReference</text>
<text text-anchor="start" x="315" y="-296.5" font-family="Helvetica,sans-Serif" font-size="10.00">+</text>
<text text-anchor="start" x="338.5" y="-296.5" font-family="Helvetica,sans-Serif" font-size="10.00">VPriReference</text>
<text text-anchor="start" x="315" y="-280.5" font-family="Helvetica,sans-Serif" font-size="10.00">+</text>
<text text-anchor="start" x="338.5" y="-280.5" font-family="Helvetica,sans-Serif" font-size="10.00">IReference</text>
<text text-anchor="start" x="315" y="-264.5" font-family="Helvetica,sans-Serif" font-size="10.00">+</text>
<text text-anchor="start" x="338.5" y="-264.5" font-family="Helvetica,sans-Serif" font-size="10.00">PwrReference</text>
<text text-anchor="start" x="315" y="-248.5" font-family="Helvetica,sans-Serif" font-size="10.00">+</text>
<text text-anchor="start" x="338.5" y="-248.5" font-family="Helvetica,sans-Serif" font-size="10.00">Precharged</text>
<text text-anchor="start" x="315" y="-232.5" font-family="Helvetica,sans-Serif" font-size="10.00">+</text>
<text text-anchor="start" x="338.5" y="-232.5" font-family="Helvetica,sans-Serif" font-size="10.00">Enable</text>
<text text-anchor="start" x="366" y="-216.5" font-family="Helvetica,sans-Serif" font-size="10.00"> </text>
<polygon fill="#666666" stroke="#666666" points="297.5,-324 297.5,-324 437.5,-324 437.5,-324 297.5,-324"/>
<polygon fill="#666666" stroke="#666666" points="297.5,-228 297.5,-228 336.5,-228 336.5,-228 297.5,-228"/>
<polygon fill="#666666" stroke="#666666" points="336.5,-228 336.5,-228 437.5,-228 437.5,-228 336.5,-228"/>
<polygon fill="none" stroke="#666666" points="297.5,-210 297.5,-342 437.5,-342 437.5,-210 297.5,-210"/>
</a>
</g>
</g>
<!-- Node3&#45;&gt;Node1 -->
<g id="edge2_Node000001_Node000003" class="edge">
<title>Node3&#45;&gt;Node1</title>
<g id="a_edge2_Node000001_Node000003"><a xlink:title=" ">
<path fill="none" stroke="#63b8ff" d="M402.89,-210.02C415.19,-190.72 430.06,-170.38 446.5,-154 495.17,-105.52 511.44,-92.78 576.25,-70 640.02,-47.59 829.24,-35.21 931.36,-30"/>
<polygon fill="none" stroke="#63b8ff" points="931.38,-30 937.18,-25.71 943.37,-29.4 937.58,-33.7 931.38,-30"/>
</a>
</g>
<text text-anchor="start" x="579.5" y="-99.5" font-family="Helvetica,sans-Serif" font-size="10.00" fill="grey">+Properties</text>
</g>
<!-- Node4 -->
<g id="Node000004" class="node">
<title>Node4</title>
<g id="a_Node000004"><a xlink:href="a00597.html" target="_top" xlink:title="Power converter switch&#45;node specifications.">
<polygon fill="white" stroke="none" points="607.5,-374 455.5,-374 455.5,-178 607.5,-178 607.5,-374"/>
<text text-anchor="start" x="491" y="-360.5" font-family="Helvetica,sans-Serif" font-size="10.00">SWITCH_NODE_s</text>
<text text-anchor="start" x="459.5" y="-344.5" font-family="Helvetica,sans-Serif" font-size="10.00">+</text>
<text text-anchor="start" x="469.5" y="-344.5" font-family="Helvetica,sans-Serif" font-size="10.00">ControlPeriod</text>
<text text-anchor="start" x="459.5" y="-328.5" font-family="Helvetica,sans-Serif" font-size="10.00">+</text>
<text text-anchor="start" x="469.5" y="-328.5" font-family="Helvetica,sans-Serif" font-size="10.00">ControlDutyCycle</text>
<text text-anchor="start" x="459.5" y="-312.5" font-family="Helvetica,sans-Serif" font-size="10.00">+</text>
<text text-anchor="start" x="469.5" y="-312.5" font-family="Helvetica,sans-Serif" font-size="10.00">ControlPhase</text>
<text text-anchor="start" x="459.5" y="-296.5" font-family="Helvetica,sans-Serif" font-size="10.00">+</text>
<text text-anchor="start" x="469.5" y="-296.5" font-family="Helvetica,sans-Serif" font-size="10.00">ControlPhase_P2S_Degreex10</text>
<text text-anchor="start" x="459.5" y="-280.5" font-family="Helvetica,sans-Serif" font-size="10.00">+</text>
<text text-anchor="start" x="469.5" y="-280.5" font-family="Helvetica,sans-Serif" font-size="10.00">ControlPhase_P2S_Target</text>
<text text-anchor="start" x="459.5" y="-264.5" font-family="Helvetica,sans-Serif" font-size="10.00">+</text>
<text text-anchor="start" x="469.5" y="-264.5" font-family="Helvetica,sans-Serif" font-size="10.00">DeadTimeHigh</text>
<text text-anchor="start" x="459.5" y="-248.5" font-family="Helvetica,sans-Serif" font-size="10.00">+</text>
<text text-anchor="start" x="469.5" y="-248.5" font-family="Helvetica,sans-Serif" font-size="10.00">DeadTimeLow</text>
<text text-anchor="start" x="459.5" y="-232.5" font-family="Helvetica,sans-Serif" font-size="10.00">+</text>
<text text-anchor="start" x="469.5" y="-232.5" font-family="Helvetica,sans-Serif" font-size="10.00">PBVPeriodTarget</text>
<text text-anchor="start" x="459.5" y="-216.5" font-family="Helvetica,sans-Serif" font-size="10.00">+</text>
<text text-anchor="start" x="469.5" y="-216.5" font-family="Helvetica,sans-Serif" font-size="10.00">PBVControlPhaseTarget</text>
<text text-anchor="start" x="459.5" y="-200.5" font-family="Helvetica,sans-Serif" font-size="10.00">+</text>
<text text-anchor="start" x="469.5" y="-200.5" font-family="Helvetica,sans-Serif" font-size="10.00">LowPowerSlowMode</text>
<text text-anchor="start" x="530" y="-184.5" font-family="Helvetica,sans-Serif" font-size="10.00"> </text>
<polygon fill="#666666" stroke="#666666" points="455.5,-356 455.5,-356 607.5,-356 607.5,-356 455.5,-356"/>
<polygon fill="#666666" stroke="#666666" points="455.5,-196 455.5,-196 467.5,-196 467.5,-196 455.5,-196"/>
<polygon fill="#666666" stroke="#666666" points="467.5,-196 467.5,-196 607.5,-196 607.5,-196 467.5,-196"/>
<polygon fill="none" stroke="#666666" points="455.5,-178 455.5,-374 607.5,-374 607.5,-178 455.5,-178"/>
</a>
</g>
</g>
<!-- Node4&#45;&gt;Node1 -->
<g id="edge3_Node000001_Node000004" class="edge">
<title>Node4&#45;&gt;Node1</title>
<g id="a_edge3_Node000001_Node000004"><a xlink:title=" ">
<path fill="none" stroke="#63b8ff" d="M594.92,-178.08C601.83,-169.61 609.06,-161.45 616.5,-154 662.31,-108.13 675.74,-94.52 735.75,-70 799,-44.15 876.8,-33.82 931.27,-29.7"/>
<polygon fill="none" stroke="#63b8ff" points="931.38,-29.69 937.09,-25.29 943.35,-28.86 937.64,-33.27 931.38,-29.69"/>
</a>
</g>
<text text-anchor="start" x="739.5" y="-99.5" font-family="Helvetica,sans-Serif" font-size="10.00" fill="grey">+Pwm</text>
</g>
<!-- Node5 -->
<g id="Node000005" class="node">
<title>Node5</title>
<g id="a_Node000005"><a xlink:href="a00601.html" target="_top" xlink:title="Publicly accessible data buffer of most recent runtime data values.">
<polygon fill="white" stroke="none" points="751.5,-398 625.5,-398 625.5,-154 751.5,-154 751.5,-398"/>
<text text-anchor="start" x="630.38" y="-384.5" font-family="Helvetica,sans-Serif" font-size="10.00">FEEDBACK_SETTINGS_s</text>
<text text-anchor="start" x="633.5" y="-368.5" font-family="Helvetica,sans-Serif" font-size="10.00">+</text>
<text text-anchor="start" x="647.5" y="-368.5" font-family="Helvetica,sans-Serif" font-size="10.00">VInVoltage</text>
<text text-anchor="start" x="633.5" y="-352.5" font-family="Helvetica,sans-Serif" font-size="10.00">+</text>
<text text-anchor="start" x="647.5" y="-352.5" font-family="Helvetica,sans-Serif" font-size="10.00">VOutVoltage</text>
<text text-anchor="start" x="633.5" y="-336.5" font-family="Helvetica,sans-Serif" font-size="10.00">+</text>
<text text-anchor="start" x="647.5" y="-336.5" font-family="Helvetica,sans-Serif" font-size="10.00">VCapVoltage</text>
<text text-anchor="start" x="633.5" y="-320.5" font-family="Helvetica,sans-Serif" font-size="10.00">+</text>
<text text-anchor="start" x="647.5" y="-320.5" font-family="Helvetica,sans-Serif" font-size="10.00">ISensePrimary</text>
<text text-anchor="start" x="633.5" y="-304.5" font-family="Helvetica,sans-Serif" font-size="10.00">+</text>
<text text-anchor="start" x="647.5" y="-304.5" font-family="Helvetica,sans-Serif" font-size="10.00">IPriSensorOffset</text>
<text text-anchor="start" x="633.5" y="-288.5" font-family="Helvetica,sans-Serif" font-size="10.00">+</text>
<text text-anchor="start" x="647.5" y="-288.5" font-family="Helvetica,sans-Serif" font-size="10.00">ISenseSecondary</text>
<text text-anchor="start" x="633.5" y="-272.5" font-family="Helvetica,sans-Serif" font-size="10.00">+</text>
<text text-anchor="start" x="647.5" y="-272.5" font-family="Helvetica,sans-Serif" font-size="10.00">ISecAverage</text>
<text text-anchor="start" x="633.5" y="-256.5" font-family="Helvetica,sans-Serif" font-size="10.00">+</text>
<text text-anchor="start" x="647.5" y="-256.5" font-family="Helvetica,sans-Serif" font-size="10.00">ISecAverageRectified</text>
<text text-anchor="start" x="633.5" y="-240.5" font-family="Helvetica,sans-Serif" font-size="10.00">+</text>
<text text-anchor="start" x="647.5" y="-240.5" font-family="Helvetica,sans-Serif" font-size="10.00">ISecSensorOffset</text>
<text text-anchor="start" x="633.5" y="-224.5" font-family="Helvetica,sans-Serif" font-size="10.00">+</text>
<text text-anchor="start" x="647.5" y="-224.5" font-family="Helvetica,sans-Serif" font-size="10.00">SecPower</text>
<text text-anchor="start" x="633.5" y="-208.5" font-family="Helvetica,sans-Serif" font-size="10.00">+</text>
<text text-anchor="start" x="647.5" y="-208.5" font-family="Helvetica,sans-Serif" font-size="10.00">Temperature</text>
<text text-anchor="start" x="633.5" y="-192.5" font-family="Helvetica,sans-Serif" font-size="10.00">+</text>
<text text-anchor="start" x="647.5" y="-192.5" font-family="Helvetica,sans-Serif" font-size="10.00">VRail_5V</text>
<text text-anchor="start" x="633.5" y="-176.5" font-family="Helvetica,sans-Serif" font-size="10.00">+</text>
<text text-anchor="start" x="647.5" y="-176.5" font-family="Helvetica,sans-Serif" font-size="10.00">Channel_AN15</text>
<text text-anchor="start" x="687" y="-160.5" font-family="Helvetica,sans-Serif" font-size="10.00"> </text>
<polygon fill="#666666" stroke="#666666" points="625.5,-380 625.5,-380 751.5,-380 751.5,-380 625.5,-380"/>
<polygon fill="#666666" stroke="#666666" points="625.5,-172 625.5,-172 645.5,-172 645.5,-172 625.5,-172"/>
<polygon fill="#666666" stroke="#666666" points="645.5,-172 645.5,-172 751.5,-172 751.5,-172 645.5,-172"/>
<polygon fill="none" stroke="#666666" points="625.5,-154 625.5,-398 751.5,-398 751.5,-154 625.5,-154"/>
</a>
</g>
</g>
<!-- Node5&#45;&gt;Node1 -->
<g id="edge4_Node000001_Node000005" class="edge">
<title>Node5&#45;&gt;Node1</title>
<g id="a_edge4_Node000001_Node000005"><a xlink:title=" ">
<path fill="none" stroke="#63b8ff" d="M751.41,-162.58C776.65,-127.43 808.94,-92.1 847.25,-70 872.97,-55.16 904.14,-45.17 931.49,-38.59"/>
<polygon fill="none" stroke="#63b8ff" points="931.57,-38.57 936.54,-33.34 943.27,-35.91 938.31,-41.14 931.57,-38.57"/>
</a>
</g>
<text text-anchor="start" x="849.5" y="-99.5" font-family="Helvetica,sans-Serif" font-size="10.00" fill="grey">+Data</text>
</g>
<!-- Node6 -->
<g id="Node000006" class="node">
<title>Node6</title>
<g id="a_Node000006"><a xlink:href="a00565.html" target="_top" xlink:title="Contains Fault settings.">
<polygon fill="white" stroke="none" points="873,-302 770,-302 770,-250 873,-250 873,-302"/>
<text text-anchor="start" x="775" y="-288.5" font-family="Helvetica,sans-Serif" font-size="10.00">FAULT_SETTINGS_s</text>
<text text-anchor="start" x="780" y="-272.5" font-family="Helvetica,sans-Serif" font-size="10.00">+</text>
<text text-anchor="start" x="796" y="-272.5" font-family="Helvetica,sans-Serif" font-size="10.00">FaultDetected</text>
<text text-anchor="start" x="820" y="-256.5" font-family="Helvetica,sans-Serif" font-size="10.00"> </text>
<polygon fill="#666666" stroke="#666666" points="770,-284 770,-284 873,-284 873,-284 770,-284"/>
<polygon fill="#666666" stroke="#666666" points="770,-268 770,-268 794,-268 794,-268 770,-268"/>
<polygon fill="#666666" stroke="#666666" points="794,-268 794,-268 873,-268 873,-268 794,-268"/>
<polygon fill="none" stroke="#666666" points="770,-250 770,-302 873,-302 873,-250 770,-250"/>
</a>
</g>
</g>
<!-- Node6&#45;&gt;Node1 -->
<g id="edge5_Node000001_Node000006" class="edge">
<title>Node6&#45;&gt;Node1</title>
<g id="a_edge5_Node000001_Node000006"><a xlink:title=" ">
<path fill="none" stroke="#63b8ff" d="M829.53,-250.22C843.98,-208.73 877.78,-124.44 929.75,-70 933.26,-66.32 937.14,-62.83 941.23,-59.54"/>
<polygon fill="none" stroke="#63b8ff" points="941.33,-59.47 943.78,-52.68 950.98,-52.33 948.53,-59.11 941.33,-59.47"/>
</a>
</g>
<text text-anchor="start" x="932.5" y="-99.5" font-family="Helvetica,sans-Serif" font-size="10.00" fill="grey">+Fault</text>
</g>
<!-- Node7 -->
<g id="Node000007" class="node">
<title>Node7</title>
<g id="a_Node000007"><a xlink:href="a00561.html" target="_top" xlink:title="Collection of faults to be monitored.">
<polygon fill="white" stroke="none" points="846.5,-504 796.5,-504 796.5,-452 846.5,-452 846.5,-504"/>
<text text-anchor="start" x="801.25" y="-490.5" font-family="Helvetica,sans-Serif" font-size="10.00">FAULT_s</text>
<text text-anchor="start" x="820" y="-474.5" font-family="Helvetica,sans-Serif" font-size="10.00"> </text>
<text text-anchor="start" x="820" y="-458.5" font-family="Helvetica,sans-Serif" font-size="10.00"> </text>
<polygon fill="#666666" stroke="#666666" points="796.5,-486 796.5,-486 846.5,-486 846.5,-486 796.5,-486"/>
<polygon fill="#666666" stroke="#666666" points="796.5,-470 796.5,-470 846.5,-470 846.5,-470 796.5,-470"/>
<polygon fill="none" stroke="#666666" points="796.5,-452 796.5,-504 846.5,-504 846.5,-452 796.5,-452"/>
</a>
</g>
</g>
<!-- Node7&#45;&gt;Node6 -->
<g id="edge6_Node000006_Node000007" class="edge">
<title>Node7&#45;&gt;Node6</title>
<g id="a_edge6_Node000006_Node000007"><a xlink:title=" ">
<path fill="none" stroke="#63b8ff" d="M821.5,-452.07C821.5,-417.62 821.5,-355.15 821.5,-314.9"/>
<polygon fill="none" stroke="#63b8ff" points="821.5,-314.83 817.5,-308.83 821.5,-302.83 825.5,-308.83 821.5,-314.83"/>
</a>
</g>
<text text-anchor="start" x="824.5" y="-421.5" font-family="Helvetica,sans-Serif" font-size="10.00" fill="grey">+Object</text>
</g>
<!-- Node8 -->
<g id="Node000008" class="node">
<title>Node8</title>
<g id="a_Node000008"><a xlink:href="a00557.html" target="_top" xlink:title="The Fault object data structure contains a list of elements/variables that are used to detect/check a...">
<polygon fill="white" stroke="none" points="866,-882 777,-882 777,-686 866,-686 866,-882"/>
<text text-anchor="start" x="789.25" y="-868.5" font-family="Helvetica,sans-Serif" font-size="10.00">FAULT_OBJ_T</text>
<text text-anchor="start" x="781" y="-852.5" font-family="Helvetica,sans-Serif" font-size="10.00">+</text>
<text text-anchor="start" x="791" y="-852.5" font-family="Helvetica,sans-Serif" font-size="10.00">Val1_Threshold</text>
<text text-anchor="start" x="781" y="-836.5" font-family="Helvetica,sans-Serif" font-size="10.00">+</text>
<text text-anchor="start" x="791" y="-836.5" font-family="Helvetica,sans-Serif" font-size="10.00">Val1_Hysteresis</text>
<text text-anchor="start" x="781" y="-820.5" font-family="Helvetica,sans-Serif" font-size="10.00">+</text>
<text text-anchor="start" x="791" y="-820.5" font-family="Helvetica,sans-Serif" font-size="10.00">Val2_Threshold</text>
<text text-anchor="start" x="781" y="-804.5" font-family="Helvetica,sans-Serif" font-size="10.00">+</text>
<text text-anchor="start" x="791" y="-804.5" font-family="Helvetica,sans-Serif" font-size="10.00">Val2_Hysteresis</text>
<text text-anchor="start" x="781" y="-788.5" font-family="Helvetica,sans-Serif" font-size="10.00">+</text>
<text text-anchor="start" x="791" y="-788.5" font-family="Helvetica,sans-Serif" font-size="10.00">CounterSet</text>
<text text-anchor="start" x="781" y="-772.5" font-family="Helvetica,sans-Serif" font-size="10.00">+</text>
<text text-anchor="start" x="791" y="-772.5" font-family="Helvetica,sans-Serif" font-size="10.00">CounterReset</text>
<text text-anchor="start" x="781" y="-756.5" font-family="Helvetica,sans-Serif" font-size="10.00">+</text>
<text text-anchor="start" x="791" y="-756.5" font-family="Helvetica,sans-Serif" font-size="10.00">FaultCounter</text>
<text text-anchor="start" x="781" y="-740.5" font-family="Helvetica,sans-Serif" font-size="10.00">+</text>
<text text-anchor="start" x="791" y="-740.5" font-family="Helvetica,sans-Serif" font-size="10.00">FaultCode</text>
<text text-anchor="start" x="781" y="-724.5" font-family="Helvetica,sans-Serif" font-size="10.00">+</text>
<text text-anchor="start" x="791" y="-724.5" font-family="Helvetica,sans-Serif" font-size="10.00">FaultActive</text>
<text text-anchor="start" x="781" y="-708.5" font-family="Helvetica,sans-Serif" font-size="10.00">+</text>
<text text-anchor="start" x="791" y="-708.5" font-family="Helvetica,sans-Serif" font-size="10.00">FaultLatch</text>
<text text-anchor="start" x="820" y="-692.5" font-family="Helvetica,sans-Serif" font-size="10.00"> </text>
<polygon fill="#666666" stroke="#666666" points="777,-864 777,-864 866,-864 866,-864 777,-864"/>
<polygon fill="#666666" stroke="#666666" points="777,-704 777,-704 789,-704 789,-704 777,-704"/>
<polygon fill="#666666" stroke="#666666" points="789,-704 789,-704 866,-704 866,-704 789,-704"/>
<polygon fill="none" stroke="#666666" points="777,-686 777,-882 866,-882 866,-686 777,-686"/>
</a>
</g>
</g>
<!-- Node8&#45;&gt;Node7 -->
<g id="edge7_Node000007_Node000008" class="edge">
<title>Node8&#45;&gt;Node7</title>
<g id="a_edge7_Node000007_Node000008"><a xlink:title=" ">
<path fill="none" stroke="#63b8ff" d="M821.5,-686.39C821.5,-628.79 821.5,-558.88 821.5,-516.72"/>
<polygon fill="none" stroke="#63b8ff" points="821.5,-516.71 817.5,-510.71 821.5,-504.71 825.5,-510.71 821.5,-516.71"/>
</a>
</g>
<text text-anchor="start" x="824.5" y="-655.5" font-family="Helvetica,sans-Serif" font-size="10.00" fill="grey">+IPrimaryOCP</text>
<text text-anchor="start" x="824.5" y="-639.5" font-family="Helvetica,sans-Serif" font-size="10.00" fill="grey">+ISecondaryOCP</text>
<text text-anchor="start" x="824.5" y="-623.5" font-family="Helvetica,sans-Serif" font-size="10.00" fill="grey">+ISenseSCP</text>
<text text-anchor="start" x="824.5" y="-607.5" font-family="Helvetica,sans-Serif" font-size="10.00" fill="grey">+PowerSupplyOTP</text>
<text text-anchor="start" x="824.5" y="-591.5" font-family="Helvetica,sans-Serif" font-size="10.00" fill="grey">+VPrimaryOVP</text>
<text text-anchor="start" x="824.5" y="-575.5" font-family="Helvetica,sans-Serif" font-size="10.00" fill="grey">+VPrimaryUVP</text>
<text text-anchor="start" x="824.5" y="-559.5" font-family="Helvetica,sans-Serif" font-size="10.00" fill="grey">+VRail_5V</text>
<text text-anchor="start" x="824.5" y="-543.5" font-family="Helvetica,sans-Serif" font-size="10.00" fill="grey">+VSecondaryOVP</text>
<text text-anchor="start" x="824.5" y="-527.5" font-family="Helvetica,sans-Serif" font-size="10.00" fill="grey">+VSecondaryUVP</text>
</g>
<!-- Node9 -->
<g id="Node000009" class="node">
<title>Node9</title>
<g id="a_Node000009"><a xlink:href="a00617.html" target="_top" xlink:title="Stores data related to the ramping up/down of the reference.">
<polygon fill="white" stroke="none" points="994,-342 891,-342 891,-210 994,-210 994,-342"/>
<text text-anchor="start" x="895.62" y="-328.5" font-family="Helvetica,sans-Serif" font-size="10.00">START_UP_RAMP_s</text>
<text text-anchor="start" x="896" y="-312.5" font-family="Helvetica,sans-Serif" font-size="10.00">+</text>
<text text-anchor="start" x="907" y="-312.5" font-family="Helvetica,sans-Serif" font-size="10.00">Counter</text>
<text text-anchor="start" x="896" y="-296.5" font-family="Helvetica,sans-Serif" font-size="10.00">+</text>
<text text-anchor="start" x="907" y="-296.5" font-family="Helvetica,sans-Serif" font-size="10.00">Delay</text>
<text text-anchor="start" x="896" y="-280.5" font-family="Helvetica,sans-Serif" font-size="10.00">+</text>
<text text-anchor="start" x="907" y="-280.5" font-family="Helvetica,sans-Serif" font-size="10.00">StepSize</text>
<text text-anchor="start" x="896" y="-264.5" font-family="Helvetica,sans-Serif" font-size="10.00">+</text>
<text text-anchor="start" x="907" y="-264.5" font-family="Helvetica,sans-Serif" font-size="10.00">ptrReference</text>
<text text-anchor="start" x="896" y="-248.5" font-family="Helvetica,sans-Serif" font-size="10.00">+</text>
<text text-anchor="start" x="907" y="-248.5" font-family="Helvetica,sans-Serif" font-size="10.00">ptrReferenceTarget</text>
<text text-anchor="start" x="896" y="-232.5" font-family="Helvetica,sans-Serif" font-size="10.00">+</text>
<text text-anchor="start" x="907" y="-232.5" font-family="Helvetica,sans-Serif" font-size="10.00">RampComplete</text>
<text text-anchor="start" x="941" y="-216.5" font-family="Helvetica,sans-Serif" font-size="10.00"> </text>
<polygon fill="#666666" stroke="#666666" points="891,-324 891,-324 994,-324 994,-324 891,-324"/>
<polygon fill="#666666" stroke="#666666" points="891,-228 891,-228 905,-228 905,-228 891,-228"/>
<polygon fill="#666666" stroke="#666666" points="905,-228 905,-228 994,-228 994,-228 905,-228"/>
<polygon fill="none" stroke="#666666" points="891,-210 891,-342 994,-342 994,-210 891,-210"/>
</a>
</g>
</g>
<!-- Node9&#45;&gt;Node1 -->
<g id="edge8_Node000001_Node000009" class="edge">
<title>Node9&#45;&gt;Node1</title>
<g id="a_edge8_Node000001_Node000009"><a xlink:title=" ">
<path fill="none" stroke="#63b8ff" d="M952.71,-210.24C959.76,-169.61 970.16,-116.32 983,-70 983.54,-68.04 984.13,-66.05 984.75,-64.04"/>
<polygon fill="none" stroke="#63b8ff" points="984.75,-64.04 982.86,-57.08 988.55,-52.66 990.45,-59.62 984.75,-64.04"/>
</a>
</g>
<text text-anchor="start" x="985.5" y="-123.5" font-family="Helvetica,sans-Serif" font-size="10.00" fill="grey">+IRamp</text>
<text text-anchor="start" x="985.5" y="-107.5" font-family="Helvetica,sans-Serif" font-size="10.00" fill="grey">+PRamp</text>
<text text-anchor="start" x="985.5" y="-91.5" font-family="Helvetica,sans-Serif" font-size="10.00" fill="grey">+PhRamp</text>
<text text-anchor="start" x="985.5" y="-75.5" font-family="Helvetica,sans-Serif" font-size="10.00" fill="grey">+VRamp</text>
</g>
<!-- Node10 -->
<g id="Node000010" class="node">
<title>Node10</title>
<g id="a_Node000010"><a xlink:href="a00621.html" target="_top" xlink:title="Stores data related to the control loop properties.">
<polygon fill="white" stroke="none" points="1097,-334 1012,-334 1012,-218 1097,-218 1097,-334"/>
<text text-anchor="start" x="1017" y="-320.5" font-family="Helvetica,sans-Serif" font-size="10.00">CONTROLLER_s</text>
<text text-anchor="start" x="1021.5" y="-304.5" font-family="Helvetica,sans-Serif" font-size="10.00">+</text>
<text text-anchor="start" x="1037" y="-304.5" font-family="Helvetica,sans-Serif" font-size="10.00">Reference</text>
<text text-anchor="start" x="1021.5" y="-288.5" font-family="Helvetica,sans-Serif" font-size="10.00">+</text>
<text text-anchor="start" x="1037" y="-288.5" font-family="Helvetica,sans-Serif" font-size="10.00">Feedback</text>
<text text-anchor="start" x="1021.5" y="-272.5" font-family="Helvetica,sans-Serif" font-size="10.00">+</text>
<text text-anchor="start" x="1037" y="-272.5" font-family="Helvetica,sans-Serif" font-size="10.00">Output</text>
<text text-anchor="start" x="1021.5" y="-256.5" font-family="Helvetica,sans-Serif" font-size="10.00">+</text>
<text text-anchor="start" x="1037" y="-256.5" font-family="Helvetica,sans-Serif" font-size="10.00">AgcFactor</text>
<text text-anchor="start" x="1021.5" y="-240.5" font-family="Helvetica,sans-Serif" font-size="10.00">+</text>
<text text-anchor="start" x="1037" y="-240.5" font-family="Helvetica,sans-Serif" font-size="10.00">Enable</text>
<text text-anchor="start" x="1053" y="-224.5" font-family="Helvetica,sans-Serif" font-size="10.00"> </text>
<polygon fill="#666666" stroke="#666666" points="1012,-316 1012,-316 1097,-316 1097,-316 1012,-316"/>
<polygon fill="#666666" stroke="#666666" points="1012,-236 1012,-236 1035,-236 1035,-236 1012,-236"/>
<polygon fill="#666666" stroke="#666666" points="1035,-236 1035,-236 1097,-236 1097,-236 1035,-236"/>
<polygon fill="none" stroke="#666666" points="1012,-218 1012,-334 1097,-334 1097,-218 1012,-218"/>
</a>
</g>
</g>
<!-- Node10&#45;&gt;Node1 -->
<g id="edge9_Node000001_Node000010" class="edge">
<title>Node10&#45;&gt;Node1</title>
<g id="a_edge9_Node000001_Node000010"><a xlink:title=" ">
<path fill="none" stroke="#63b8ff" d="M1056.74,-218.13C1056.46,-175.79 1051.86,-117.38 1032.5,-70 1031.49,-67.52 1030.29,-65.07 1028.95,-62.67"/>
<polygon fill="none" stroke="#63b8ff" points="1028.97,-62.69 1022.34,-59.84 1022.42,-52.63 1029.04,-55.48 1028.97,-62.69"/>
</a>
</g>
<text text-anchor="start" x="1052.5" y="-115.5" font-family="Helvetica,sans-Serif" font-size="10.00" fill="grey">+ILoop</text>
<text text-anchor="start" x="1052.5" y="-99.5" font-family="Helvetica,sans-Serif" font-size="10.00" fill="grey">+PLoop</text>
<text text-anchor="start" x="1052.5" y="-83.5" font-family="Helvetica,sans-Serif" font-size="10.00" fill="grey">+VLoop</text>
</g>
<!-- Node11 -->
<g id="Node000011" class="node">
<title>Node11</title>
<g id="a_Node000011"><a xlink:href="a00629.html" target="_top" xlink:title="Collection of Precharge Properties.">
<polygon fill="white" stroke="none" points="1212,-350 1115,-350 1115,-202 1212,-202 1212,-350"/>
<text text-anchor="start" x="1127.5" y="-336.5" font-family="Helvetica,sans-Serif" font-size="10.00">PRECHARGE_s</text>
<text text-anchor="start" x="1119" y="-320.5" font-family="Helvetica,sans-Serif" font-size="10.00">+</text>
<text text-anchor="start" x="1129" y="-320.5" font-family="Helvetica,sans-Serif" font-size="10.00">PrechargeEnabled</text>
<text text-anchor="start" x="1119" y="-304.5" font-family="Helvetica,sans-Serif" font-size="10.00">+</text>
<text text-anchor="start" x="1129" y="-304.5" font-family="Helvetica,sans-Serif" font-size="10.00">DutyCycle</text>
<text text-anchor="start" x="1119" y="-288.5" font-family="Helvetica,sans-Serif" font-size="10.00">+</text>
<text text-anchor="start" x="1129" y="-288.5" font-family="Helvetica,sans-Serif" font-size="10.00">precharged</text>
<text text-anchor="start" x="1119" y="-272.5" font-family="Helvetica,sans-Serif" font-size="10.00">+</text>
<text text-anchor="start" x="1129" y="-272.5" font-family="Helvetica,sans-Serif" font-size="10.00">maxDutyCycle</text>
<text text-anchor="start" x="1119" y="-256.5" font-family="Helvetica,sans-Serif" font-size="10.00">+</text>
<text text-anchor="start" x="1129" y="-256.5" font-family="Helvetica,sans-Serif" font-size="10.00">delayCounter</text>
<text text-anchor="start" x="1119" y="-240.5" font-family="Helvetica,sans-Serif" font-size="10.00">+</text>
<text text-anchor="start" x="1129" y="-240.5" font-family="Helvetica,sans-Serif" font-size="10.00">scaler</text>
<text text-anchor="start" x="1119" y="-224.5" font-family="Helvetica,sans-Serif" font-size="10.00">+</text>
<text text-anchor="start" x="1129" y="-224.5" font-family="Helvetica,sans-Serif" font-size="10.00">primaryVoltage</text>
<text text-anchor="start" x="1162" y="-208.5" font-family="Helvetica,sans-Serif" font-size="10.00"> </text>
<polygon fill="#666666" stroke="#666666" points="1115,-332 1115,-332 1212,-332 1212,-332 1115,-332"/>
<polygon fill="#666666" stroke="#666666" points="1115,-220 1115,-220 1127,-220 1127,-220 1115,-220"/>
<polygon fill="#666666" stroke="#666666" points="1127,-220 1127,-220 1212,-220 1212,-220 1127,-220"/>
<polygon fill="none" stroke="#666666" points="1115,-202 1115,-350 1212,-350 1212,-202 1115,-202"/>
</a>
</g>
</g>
<!-- Node11&#45;&gt;Node1 -->
<g id="edge10_Node000001_Node000011" class="edge">
<title>Node11&#45;&gt;Node1</title>
<g id="a_edge10_Node000001_Node000011"><a xlink:title=" ">
<path fill="none" stroke="#63b8ff" d="M1153.42,-202.19C1144.18,-159.29 1126.63,-106.47 1093.5,-70 1085.37,-61.05 1075.01,-53.84 1064.15,-48.08"/>
<polygon fill="none" stroke="#63b8ff" points="1064.34,-48.17 1057.2,-49.17 1053.52,-42.97 1060.66,-41.96 1064.34,-48.17"/>
</a>
</g>
<text text-anchor="start" x="1135.5" y="-99.5" font-family="Helvetica,sans-Serif" font-size="10.00" fill="grey">+Precharge</text>
</g>
<!-- Node12 -->
<g id="Node000012" class="node">
<title>Node12</title>
<g id="a_Node000012"><a xlink:href="a00633.html" target="_top" xlink:title="Collection of Secondary Rectifier Properties.">
<polygon fill="white" stroke="none" points="1313,-326 1230,-326 1230,-226 1313,-226 1313,-326"/>
<text text-anchor="start" x="1243.38" y="-312.5" font-family="Helvetica,sans-Serif" font-size="10.00">SEC_REC_s</text>
<text text-anchor="start" x="1234" y="-296.5" font-family="Helvetica,sans-Serif" font-size="10.00">+</text>
<text text-anchor="start" x="1244" y="-296.5" font-family="Helvetica,sans-Serif" font-size="10.00">SR_Enabled</text>
<text text-anchor="start" x="1234" y="-280.5" font-family="Helvetica,sans-Serif" font-size="10.00">+</text>
<text text-anchor="start" x="1244" y="-280.5" font-family="Helvetica,sans-Serif" font-size="10.00">SR_Flag</text>
<text text-anchor="start" x="1234" y="-264.5" font-family="Helvetica,sans-Serif" font-size="10.00">+</text>
<text text-anchor="start" x="1244" y="-264.5" font-family="Helvetica,sans-Serif" font-size="10.00">Threshold_high</text>
<text text-anchor="start" x="1234" y="-248.5" font-family="Helvetica,sans-Serif" font-size="10.00">+</text>
<text text-anchor="start" x="1244" y="-248.5" font-family="Helvetica,sans-Serif" font-size="10.00">Threshold_low</text>
<text text-anchor="start" x="1270" y="-232.5" font-family="Helvetica,sans-Serif" font-size="10.00"> </text>
<polygon fill="#666666" stroke="#666666" points="1230,-308 1230,-308 1313,-308 1313,-308 1230,-308"/>
<polygon fill="#666666" stroke="#666666" points="1230,-244 1230,-244 1242,-244 1242,-244 1230,-244"/>
<polygon fill="#666666" stroke="#666666" points="1242,-244 1242,-244 1313,-244 1313,-244 1242,-244"/>
<polygon fill="none" stroke="#666666" points="1230,-226 1230,-326 1313,-326 1313,-226 1230,-226"/>
</a>
</g>
</g>
<!-- Node12&#45;&gt;Node1 -->
<g id="edge11_Node000001_Node000012" class="edge">
<title>Node12&#45;&gt;Node1</title>
<g id="a_edge11_Node000001_Node000012"><a xlink:title=" ">
<path fill="none" stroke="#63b8ff" d="M1265.87,-226.05C1257.81,-179.06 1238.47,-109.56 1192.5,-70 1173.58,-53.72 1114.04,-42.1 1065.87,-35.08"/>
<polygon fill="none" stroke="#63b8ff" points="1065.72,-35.06 1059.22,-38.19 1053.83,-33.39 1060.33,-30.26 1065.72,-35.06"/>
</a>
</g>
<text text-anchor="start" x="1239.5" y="-99.5" font-family="Helvetica,sans-Serif" font-size="10.00" fill="grey">+SecRec</text>
</g>
<!-- Node13 -->
<g id="Node000013" class="node">
<title>Node13</title>
<g id="a_Node000013"><a xlink:href="a00637.html" target="_top" xlink:title="Averaging data type.">
<polygon fill="white" stroke="none" points="1416,-326 1331,-326 1331,-226 1416,-226 1416,-326"/>
<text text-anchor="start" x="1339.38" y="-312.5" font-family="Helvetica,sans-Serif" font-size="10.00">AVERAGING_s</text>
<text text-anchor="start" x="1335" y="-296.5" font-family="Helvetica,sans-Serif" font-size="10.00">+</text>
<text text-anchor="start" x="1345" y="-296.5" font-family="Helvetica,sans-Serif" font-size="10.00">Accumulator</text>
<text text-anchor="start" x="1335" y="-280.5" font-family="Helvetica,sans-Serif" font-size="10.00">+</text>
<text text-anchor="start" x="1345" y="-280.5" font-family="Helvetica,sans-Serif" font-size="10.00">Counter</text>
<text text-anchor="start" x="1335" y="-264.5" font-family="Helvetica,sans-Serif" font-size="10.00">+</text>
<text text-anchor="start" x="1345" y="-264.5" font-family="Helvetica,sans-Serif" font-size="10.00">AveragingCount</text>
<text text-anchor="start" x="1335" y="-248.5" font-family="Helvetica,sans-Serif" font-size="10.00">+</text>
<text text-anchor="start" x="1345" y="-248.5" font-family="Helvetica,sans-Serif" font-size="10.00">AverageValue</text>
<text text-anchor="start" x="1372" y="-232.5" font-family="Helvetica,sans-Serif" font-size="10.00"> </text>
<polygon fill="#666666" stroke="#666666" points="1331,-308 1331,-308 1416,-308 1416,-308 1331,-308"/>
<polygon fill="#666666" stroke="#666666" points="1331,-244 1331,-244 1343,-244 1343,-244 1331,-244"/>
<polygon fill="#666666" stroke="#666666" points="1343,-244 1343,-244 1416,-244 1416,-244 1343,-244"/>
<polygon fill="none" stroke="#666666" points="1331,-226 1331,-326 1416,-326 1416,-226 1331,-226"/>
</a>
</g>
</g>
<!-- Node13&#45;&gt;Node1 -->
<g id="edge12_Node000001_Node000013" class="edge">
<title>Node13&#45;&gt;Node1</title>
<g id="a_edge12_Node000001_Node000013"><a xlink:title=" ">
<path fill="none" stroke="#63b8ff" d="M1366.86,-226.12C1357.66,-178.5 1336.26,-107.89 1287.5,-70 1253.87,-43.87 1140.02,-33.52 1065.65,-29.49"/>
<polygon fill="none" stroke="#63b8ff" points="1065.6,-29.48 1059.4,-33.17 1053.61,-28.87 1059.81,-25.18 1065.6,-29.48"/>
</a>
</g>
<text text-anchor="start" x="1340.5" y="-123.5" font-family="Helvetica,sans-Serif" font-size="10.00" fill="grey">+ISecAveraging</text>
<text text-anchor="start" x="1340.5" y="-107.5" font-family="Helvetica,sans-Serif" font-size="10.00" fill="grey">+PrimaryCT_Offset</text>
<text text-anchor="start" x="1340.5" y="-91.5" font-family="Helvetica,sans-Serif" font-size="10.00" fill="grey">+SecondarySh_Offset</text>
<text text-anchor="start" x="1340.5" y="-75.5" font-family="Helvetica,sans-Serif" font-size="10.00" fill="grey">+VoutCalibratingAveraging</text>
</g>
<!-- Node14 -->
<g id="Node000014" class="node">
<title>Node14</title>
<g id="a_Node000014"><a xlink:href="a00645.html" target="_top" xlink:title="Collection of calibrate Properties.">
<polygon fill="white" stroke="none" points="1526,-318 1437,-318 1437,-234 1526,-234 1526,-318"/>
<text text-anchor="start" x="1448.88" y="-304.5" font-family="Helvetica,sans-Serif" font-size="10.00">CALIBRATE_S</text>
<text text-anchor="start" x="1441" y="-288.5" font-family="Helvetica,sans-Serif" font-size="10.00">+</text>
<text text-anchor="start" x="1451" y="-288.5" font-family="Helvetica,sans-Serif" font-size="10.00">real_value</text>
<text text-anchor="start" x="1441" y="-272.5" font-family="Helvetica,sans-Serif" font-size="10.00">+</text>
<text text-anchor="start" x="1451" y="-272.5" font-family="Helvetica,sans-Serif" font-size="10.00">calculated_value</text>
<text text-anchor="start" x="1441" y="-256.5" font-family="Helvetica,sans-Serif" font-size="10.00">+</text>
<text text-anchor="start" x="1451" y="-256.5" font-family="Helvetica,sans-Serif" font-size="10.00">gain_factor</text>
<text text-anchor="start" x="1480" y="-240.5" font-family="Helvetica,sans-Serif" font-size="10.00"> </text>
<polygon fill="#666666" stroke="#666666" points="1437,-300 1437,-300 1526,-300 1526,-300 1437,-300"/>
<polygon fill="#666666" stroke="#666666" points="1437,-252 1437,-252 1449,-252 1449,-252 1437,-252"/>
<polygon fill="#666666" stroke="#666666" points="1449,-252 1449,-252 1526,-252 1526,-252 1449,-252"/>
<polygon fill="none" stroke="#666666" points="1437,-234 1437,-318 1526,-318 1526,-234 1437,-234"/>
</a>
</g>
</g>
<!-- Node14&#45;&gt;Node1 -->
<g id="edge13_Node000001_Node000014" class="edge">
<title>Node14&#45;&gt;Node1</title>
<g id="a_edge13_Node000001_Node000014"><a xlink:title=" ">
<path fill="none" stroke="#63b8ff" d="M1490.6,-234.37C1498.39,-187.76 1502.44,-112.35 1459.5,-70 1432.03,-42.91 1186.44,-32.27 1065.37,-28.64"/>
<polygon fill="none" stroke="#63b8ff" points="1065.55,-28.64 1059.43,-32.47 1053.55,-28.3 1059.67,-24.47 1065.55,-28.64"/>
</a>
</g>
<text text-anchor="start" x="1493.5" y="-99.5" font-family="Helvetica,sans-Serif" font-size="10.00" fill="grey">+VoutCalibrate</text>
</g>
<!-- Node15 -->
<g id="Node000015" class="node">
<title>Node15</title>
<g id="a_Node000015"><a xlink:href="a00641.html" target="_top" xlink:title="Collection of Secondary Rectifier Properties.">
<polygon fill="white" stroke="none" points="1674.5,-354 1544.5,-354 1544.5,-198 1674.5,-198 1674.5,-354"/>
<text text-anchor="start" x="1586.62" y="-340.5" font-family="Helvetica,sans-Serif" font-size="10.00">DROOP_s</text>
<text text-anchor="start" x="1548.5" y="-324.5" font-family="Helvetica,sans-Serif" font-size="10.00">+</text>
<text text-anchor="start" x="1558.5" y="-324.5" font-family="Helvetica,sans-Serif" font-size="10.00">Droop_Enabled</text>
<text text-anchor="start" x="1548.5" y="-308.5" font-family="Helvetica,sans-Serif" font-size="10.00">+</text>
<text text-anchor="start" x="1558.5" y="-308.5" font-family="Helvetica,sans-Serif" font-size="10.00">Droop_Flag</text>
<text text-anchor="start" x="1548.5" y="-292.5" font-family="Helvetica,sans-Serif" font-size="10.00">+</text>
<text text-anchor="start" x="1558.5" y="-292.5" font-family="Helvetica,sans-Serif" font-size="10.00">Droop_Delay_Counter</text>
<text text-anchor="start" x="1548.5" y="-276.5" font-family="Helvetica,sans-Serif" font-size="10.00">+</text>
<text text-anchor="start" x="1558.5" y="-276.5" font-family="Helvetica,sans-Serif" font-size="10.00">Droop_Voltage_Reference</text>
<text text-anchor="start" x="1558.5" y="-264.5" font-family="Helvetica,sans-Serif" font-size="10.00">_from_PBV</text>
<text text-anchor="start" x="1548.5" y="-248.5" font-family="Helvetica,sans-Serif" font-size="10.00">+</text>
<text text-anchor="start" x="1558.5" y="-248.5" font-family="Helvetica,sans-Serif" font-size="10.00">Droop_New_Voltage</text>
<text text-anchor="start" x="1558.5" y="-236.5" font-family="Helvetica,sans-Serif" font-size="10.00">_Reference</text>
<text text-anchor="start" x="1548.5" y="-220.5" font-family="Helvetica,sans-Serif" font-size="10.00">+</text>
<text text-anchor="start" x="1558.5" y="-220.5" font-family="Helvetica,sans-Serif" font-size="10.00">ref_diff</text>
<text text-anchor="start" x="1608" y="-204.5" font-family="Helvetica,sans-Serif" font-size="10.00"> </text>
<polygon fill="#666666" stroke="#666666" points="1544.5,-336 1544.5,-336 1674.5,-336 1674.5,-336 1544.5,-336"/>
<polygon fill="#666666" stroke="#666666" points="1544.5,-216 1544.5,-216 1556.5,-216 1556.5,-216 1544.5,-216"/>
<polygon fill="#666666" stroke="#666666" points="1556.5,-216 1556.5,-216 1674.5,-216 1674.5,-216 1556.5,-216"/>
<polygon fill="none" stroke="#666666" points="1544.5,-198 1544.5,-354 1674.5,-354 1674.5,-198 1544.5,-198"/>
</a>
</g>
</g>
<!-- Node15&#45;&gt;Node1 -->
<g id="edge14_Node000001_Node000015" class="edge">
<title>Node15&#45;&gt;Node1</title>
<g id="a_edge14_Node000001_Node000015"><a xlink:title=" ">
<path fill="none" stroke="#63b8ff" d="M1613.95,-198.02C1612.03,-153.9 1601.29,-101.23 1565.5,-70 1528.58,-37.78 1207.85,-29.67 1065.77,-27.66"/>
<polygon fill="none" stroke="#63b8ff" points="1065.9,-27.66 1059.84,-31.58 1053.9,-27.5 1059.95,-23.58 1065.9,-27.66"/>
</a>
</g>
<text text-anchor="start" x="1606.5" y="-99.5" font-family="Helvetica,sans-Serif" font-size="10.00" fill="grey">+Droop</text>
</g>
</g>
</svg>
