<?xml version="1.0" encoding="UTF-8" standalone="no"?>
<!DOCTYPE svg PUBLIC "-//W3C//DTD SVG 1.1//EN"
 "http://www.w3.org/Graphics/SVG/1.1/DTD/svg11.dtd">
<!-- Generated by graphviz version 2.44.1 (20200629.0846)
 -->
<!-- Title: START_UP_RAMP_s Pages: 1 -->
<svg width="112pt" height="132pt"
 viewBox="0.00 0.00 112.00 132.00" xmlns="http://www.w3.org/2000/svg" xmlns:xlink="http://www.w3.org/1999/xlink">
<g id="graph0" class="graph" transform="scale(1 1) rotate(0) translate(4 128)">
<title>START_UP_RAMP_s</title>
<!-- Node1 -->
<g id="Node000001" class="node">
<title>Node1</title>
<g id="a_Node000001"><a xlink:title="Stores data related to the ramping up/down of the reference.">
<polygon fill="#999999" stroke="transparent" points="104,-124 0,-124 0,0 104,0 104,-124"/>
<text text-anchor="start" x="5" y="-112" font-family="Helvetica,sans-Serif" font-size="10.00">START_UP_RAMP_s</text>
<text text-anchor="start" x="4.5" y="-97" font-family="Helvetica,sans-Serif" font-size="10.00">+</text>
<text text-anchor="start" x="16" y="-97" font-family="Helvetica,sans-Serif" font-size="10.00">Counter</text>
<text text-anchor="start" x="4.5" y="-82" font-family="Helvetica,sans-Serif" font-size="10.00">+</text>
<text text-anchor="start" x="16" y="-82" font-family="Helvetica,sans-Serif" font-size="10.00">Delay</text>
<text text-anchor="start" x="4.5" y="-67" font-family="Helvetica,sans-Serif" font-size="10.00">+</text>
<text text-anchor="start" x="16" y="-67" font-family="Helvetica,sans-Serif" font-size="10.00">StepSize</text>
<text text-anchor="start" x="4.5" y="-52" font-family="Helvetica,sans-Serif" font-size="10.00">+</text>
<text text-anchor="start" x="16" y="-52" font-family="Helvetica,sans-Serif" font-size="10.00">ptrReference</text>
<text text-anchor="start" x="4.5" y="-37" font-family="Helvetica,sans-Serif" font-size="10.00">+</text>
<text text-anchor="start" x="16" y="-37" font-family="Helvetica,sans-Serif" font-size="10.00">ptrReferenceTarget</text>
<text text-anchor="start" x="4.5" y="-22" font-family="Helvetica,sans-Serif" font-size="10.00">+</text>
<text text-anchor="start" x="16" y="-22" font-family="Helvetica,sans-Serif" font-size="10.00">RampComplete</text>
<text text-anchor="start" x="50" y="-7" font-family="Helvetica,sans-Serif" font-size="10.00"> </text>
<polygon fill="#666666" stroke="#666666" points="0,-107 0,-107 104,-107 104,-107 0,-107"/>
<polygon fill="#666666" stroke="#666666" points="0,-17 0,-17 14,-17 14,-17 0,-17"/>
<polygon fill="#666666" stroke="#666666" points="14,-17 14,-17 104,-17 104,-17 14,-17"/>
<polygon fill="none" stroke="#666666" points="0,0 0,-124 104,-124 104,0 0,0"/>
</a>
</g>
</g>
</g>
</svg>
