<?xml version="1.0" encoding="UTF-8" standalone="no"?>
<!DOCTYPE svg PUBLIC "-//W3C//DTD SVG 1.1//EN"
 "http://www.w3.org/Graphics/SVG/1.1/DTD/svg11.dtd">
<!-- Generated by graphviz version 8.1.0 (20230707.0739)
 -->
<!-- Title: psfb_droop.X/sources Pages: 1 -->
<svg width="364pt" height="312pt"
 viewBox="0.00 0.00 364.00 312.00" xmlns="http://www.w3.org/2000/svg" xmlns:xlink="http://www.w3.org/1999/xlink">

<svg id="main" version="1.1" xmlns="http://www.w3.org/2000/svg" xmlns:xlink="http://www.w3.org/1999/xlink" xml:space="preserve">

<style type="text/css"><![CDATA[
.node, .edge {opacity: 0.7;}
.node.selected, .edge.selected {opacity: 1;}
.edge:hover path { stroke: red; }
.edge:hover polygon { stroke: red; fill: red; }
]]></style>
<script type="application/ecmascript" xlink:href="svg.min.js"/>
<svg id="graph" class="graph">
<g id="graph0" class="graph" transform="scale(1 1) rotate(0) translate(4 308)">
<title>psfb_droop.X/sources</title>
<g id="clust1" class="cluster">
<title>clusterdir_f5f0741b1f8b566c413f03be2c74c0fb</title>
<g id="a_clust1"><a xlink:href="dir_f5f0741b1f8b566c413f03be2c74c0fb.html" target="_top" xlink:title="psfb_droop.X">
<polygon fill="#edf0f7" stroke="#404040" stroke-dasharray="5,2" points="8,-8 8,-296 348,-296 348,-8 8,-8"/>
<text text-anchor="middle" x="178" y="-282.5" font-family="Helvetica,sans-Serif" font-size="10.00">psfb_droop.X</text>
</a>
</g>
</g>
<g id="clust2" class="cluster">
<title>clusterdir_e1e28ef4e2418e7f2c9efca4f8237fc3</title>
<g id="a_clust2"><a xlink:href="dir_e1e28ef4e2418e7f2c9efca4f8237fc3.html" target="_top">
<polygon fill="#edf0f7" stroke="#404040" stroke-width="2" points="16,-64 16,-268 238,-268 238,-64 16,-64"/>
</a>
</g>
</g>
<!-- dir_860d6a38b01d836db3c6df3bfc38590d -->
<g id="node1" class="node">
<title>dir_860d6a38b01d836db3c6df3bfc38590d</title>
<g id="a_node1"><a xlink:href="dir_860d6a38b01d836db3c6df3bfc38590d.html" target="_top" xlink:title="mcc_generated_files">
<polygon fill="#a2b4d6" stroke="red" points="339.62,-36 234.38,-36 234.38,-16 339.62,-16 339.62,-36"/>
<text text-anchor="middle" x="287" y="-22.5" font-family="Helvetica,sans-Serif" font-size="10.00">mcc_generated_files</text>
</a>
</g>
</g>
<!-- dir_a1c32dffa67f164d61ce5e4f2b165333 -->
<g id="node2" class="node">
<title>dir_a1c32dffa67f164d61ce5e4f2b165333</title>
<g id="a_node2"><a xlink:href="dir_a1c32dffa67f164d61ce5e4f2b165333.html" target="_top" xlink:title="dcdt">
<polygon fill="#a2b4d6" stroke="red" points="280.38,-92 245.62,-92 245.62,-72 280.38,-72 280.38,-92"/>
<text text-anchor="middle" x="263" y="-78.5" font-family="Helvetica,sans-Serif" font-size="10.00">dcdt</text>
</a>
</g>
</g>
<!-- dir_e1e28ef4e2418e7f2c9efca4f8237fc3 -->
<g id="node3" class="node">
<title>dir_e1e28ef4e2418e7f2c9efca4f8237fc3</title>
<text text-anchor="middle" x="205" y="-246.5" font-family="Helvetica,sans-Serif" font-size="10.00">sources</text>
</g>
<!-- dir_f2952795b8983bdc581fd0c71e3220b9 -->
<g id="node4" class="node">
<title>dir_f2952795b8983bdc581fd0c71e3220b9</title>
<g id="a_node4"><a xlink:href="dir_f2952795b8983bdc581fd0c71e3220b9.html" target="_top" xlink:title="app">
<polygon fill="#a2b4d6" stroke="#404040" points="161.88,-260 130.12,-260 130.12,-240 161.88,-240 161.88,-260"/>
<text text-anchor="middle" x="146" y="-246.5" font-family="Helvetica,sans-Serif" font-size="10.00">app</text>
</a>
</g>
</g>
<!-- dir_f2952795b8983bdc581fd0c71e3220b9&#45;&gt;dir_860d6a38b01d836db3c6df3bfc38590d -->
<g id="edge2" class="edge">
<title>dir_f2952795b8983bdc581fd0c71e3220b9&#45;&gt;dir_860d6a38b01d836db3c6df3bfc38590d</title>
<g id="a_edge2"><a xlink:href="dir_000002_000022.html" target="_top">
<path fill="none" stroke="#63b8ff" d="M162.32,-242.31C181.31,-234.25 213.35,-219.82 239,-204 273.81,-182.54 293.91,-184.67 312,-148 328.51,-114.52 322.93,-99.7 312,-64 309.94,-57.26 306.18,-50.63 302.2,-44.9"/>
<polygon fill="#63b8ff" stroke="#63b8ff" points="304.4,-43.02 295.54,-37.21 298.85,-47.28 304.4,-43.02"/>
</a>
</g>
<g id="a_edge2&#45;headlabel"><a xlink:href="dir_000002_000022.html" target="_top" xlink:title="3">
<text text-anchor="middle" x="308.84" y="-39.64" font-family="Helvetica,sans-Serif" font-size="10.00" fill="#63b8ff">3</text>
</a>
</g>
</g>
<!-- dir_6db308ef57ebef573b944ce2611d641b -->
<g id="node8" class="node">
<title>dir_6db308ef57ebef573b944ce2611d641b</title>
<g id="a_node8"><a xlink:href="dir_6db308ef57ebef573b944ce2611d641b.html" target="_top" xlink:title="fault">
<polygon fill="#a2b4d6" stroke="#404040" points="174,-204 140,-204 140,-184 174,-184 174,-204"/>
<text text-anchor="middle" x="157" y="-190.5" font-family="Helvetica,sans-Serif" font-size="10.00">fault</text>
</a>
</g>
</g>
<!-- dir_f2952795b8983bdc581fd0c71e3220b9&#45;&gt;dir_6db308ef57ebef573b944ce2611d641b -->
<g id="edge1" class="edge">
<title>dir_f2952795b8983bdc581fd0c71e3220b9&#45;&gt;dir_6db308ef57ebef573b944ce2611d641b</title>
<g id="a_edge1"><a xlink:href="dir_000002_000017.html" target="_top">
<path fill="none" stroke="#63b8ff" d="M147.92,-239.59C149.3,-232.78 151.23,-223.32 152.95,-214.86"/>
<polygon fill="#63b8ff" stroke="#63b8ff" points="156.54,-215.8 155.11,-205.3 149.68,-214.4 156.54,-215.8"/>
</a>
</g>
<g id="a_edge1&#45;headlabel"><a xlink:href="dir_000002_000017.html" target="_top" xlink:title="1">
<text text-anchor="middle" x="158.6" y="-215.38" font-family="Helvetica,sans-Serif" font-size="10.00" fill="#63b8ff">1</text>
</a>
</g>
</g>
<!-- dir_b5bc7a61aee86a9185d5482140373e03 -->
<g id="node10" class="node">
<title>dir_b5bc7a61aee86a9185d5482140373e03</title>
<g id="a_node10"><a xlink:href="dir_b5bc7a61aee86a9185d5482140373e03.html" target="_top" xlink:title="pwrctrl">
<polygon fill="#a2b4d6" stroke="#404040" points="220.25,-148 175.75,-148 175.75,-128 220.25,-128 220.25,-148"/>
<text text-anchor="middle" x="198" y="-134.5" font-family="Helvetica,sans-Serif" font-size="10.00">pwrctrl</text>
</a>
</g>
</g>
<!-- dir_f2952795b8983bdc581fd0c71e3220b9&#45;&gt;dir_b5bc7a61aee86a9185d5482140373e03 -->
<g id="edge3" class="edge">
<title>dir_f2952795b8983bdc581fd0c71e3220b9&#45;&gt;dir_b5bc7a61aee86a9185d5482140373e03</title>
<g id="a_edge3"><a xlink:href="dir_000002_000026.html" target="_top">
<path fill="none" stroke="#63b8ff" d="M139.97,-239.64C132.34,-226.51 121.3,-202.19 131,-184 138.53,-169.87 152.69,-159.39 166.05,-152.11"/>
<polygon fill="#63b8ff" stroke="#63b8ff" points="167.16,-154.98 174.54,-147.38 164.03,-148.71 167.16,-154.98"/>
</a>
</g>
<g id="a_edge3&#45;headlabel"><a xlink:href="dir_000002_000026.html" target="_top" xlink:title="2">
<text text-anchor="middle" x="166.21" y="-155.62" font-family="Helvetica,sans-Serif" font-size="10.00" fill="#63b8ff">2</text>
</a>
</g>
</g>
<!-- dir_2c6c61fee2398e04d92e8e4fad2c7cc7 -->
<g id="node5" class="node">
<title>dir_2c6c61fee2398e04d92e8e4fad2c7cc7</title>
<g id="a_node5"><a xlink:href="dir_2c6c61fee2398e04d92e8e4fad2c7cc7.html" target="_top" xlink:title="config">
<polygon fill="#a2b4d6" stroke="#404040" points="111.75,-260 70.25,-260 70.25,-240 111.75,-240 111.75,-260"/>
<text text-anchor="middle" x="91" y="-246.5" font-family="Helvetica,sans-Serif" font-size="10.00">config</text>
</a>
</g>
</g>
<!-- dir_773016d196059be4d11560d15e8346f3 -->
<g id="node6" class="node">
<title>dir_773016d196059be4d11560d15e8346f3</title>
<g id="a_node6"><a xlink:href="dir_773016d196059be4d11560d15e8346f3.html" target="_top" xlink:title="device">
<polygon fill="#a2b4d6" stroke="#404040" points="207.5,-92 164.5,-92 164.5,-72 207.5,-72 207.5,-92"/>
<text text-anchor="middle" x="186" y="-78.5" font-family="Helvetica,sans-Serif" font-size="10.00">device</text>
</a>
</g>
</g>
<!-- dir_773016d196059be4d11560d15e8346f3&#45;&gt;dir_860d6a38b01d836db3c6df3bfc38590d -->
<g id="edge4" class="edge">
<title>dir_773016d196059be4d11560d15e8346f3&#45;&gt;dir_860d6a38b01d836db3c6df3bfc38590d</title>
<g id="a_edge4"><a xlink:href="dir_000013_000022.html" target="_top">
<path fill="none" stroke="#63b8ff" d="M199.84,-71.51C203.72,-68.97 207.97,-66.3 212,-64 226.41,-55.78 242.9,-47.52 256.74,-40.9"/>
<polygon fill="#63b8ff" stroke="#63b8ff" points="257.73,-43.83 265.28,-36.4 254.74,-37.5 257.73,-43.83"/>
</a>
</g>
<g id="a_edge4&#45;headlabel"><a xlink:href="dir_000013_000022.html" target="_top" xlink:title="1">
<text text-anchor="middle" x="256.69" y="-44.43" font-family="Helvetica,sans-Serif" font-size="10.00" fill="#63b8ff">1</text>
</a>
</g>
</g>
<!-- dir_65e90c9846d1049037c17626295b7300 -->
<g id="node7" class="node">
<title>dir_65e90c9846d1049037c17626295b7300</title>
<g id="a_node7"><a xlink:href="dir_65e90c9846d1049037c17626295b7300.html" target="_top" xlink:title="driver">
<polygon fill="#a2b4d6" stroke="#404040" points="230.25,-204 191.75,-204 191.75,-184 230.25,-184 230.25,-204"/>
<text text-anchor="middle" x="211" y="-190.5" font-family="Helvetica,sans-Serif" font-size="10.00">driver</text>
</a>
</g>
</g>
<!-- dir_65e90c9846d1049037c17626295b7300&#45;&gt;dir_860d6a38b01d836db3c6df3bfc38590d -->
<g id="edge5" class="edge">
<title>dir_65e90c9846d1049037c17626295b7300&#45;&gt;dir_860d6a38b01d836db3c6df3bfc38590d</title>
<g id="a_edge5"><a xlink:href="dir_000016_000022.html" target="_top">
<path fill="none" stroke="#63b8ff" d="M230.46,-184.9C256.45,-173.88 299.76,-154.76 304,-148 323.73,-116.53 308.52,-71.51 296.93,-46.19"/>
<polygon fill="#63b8ff" stroke="#63b8ff" points="299.67,-44.82 292.15,-37.35 293.38,-47.88 299.67,-44.82"/>
</a>
</g>
<g id="a_edge5&#45;headlabel"><a xlink:href="dir_000016_000022.html" target="_top" xlink:title="2">
<text text-anchor="middle" x="303.8" y="-42.31" font-family="Helvetica,sans-Serif" font-size="10.00" fill="#63b8ff">2</text>
</a>
</g>
</g>
<!-- dir_65e90c9846d1049037c17626295b7300&#45;&gt;dir_b5bc7a61aee86a9185d5482140373e03 -->
<g id="edge6" class="edge">
<title>dir_65e90c9846d1049037c17626295b7300&#45;&gt;dir_b5bc7a61aee86a9185d5482140373e03</title>
<g id="a_edge6"><a xlink:href="dir_000016_000026.html" target="_top">
<path fill="none" stroke="#63b8ff" d="M208.74,-183.59C207.1,-176.78 204.82,-167.32 202.78,-158.86"/>
<polygon fill="#63b8ff" stroke="#63b8ff" points="205.98,-158.2 200.24,-149.3 199.18,-159.84 205.98,-158.2"/>
</a>
</g>
<g id="a_edge6&#45;headlabel"><a xlink:href="dir_000016_000026.html" target="_top" xlink:title="1">
<text text-anchor="middle" x="209.58" y="-156.53" font-family="Helvetica,sans-Serif" font-size="10.00" fill="#63b8ff">1</text>
</a>
</g>
</g>
<!-- dir_6db308ef57ebef573b944ce2611d641b&#45;&gt;dir_860d6a38b01d836db3c6df3bfc38590d -->
<g id="edge8" class="edge">
<title>dir_6db308ef57ebef573b944ce2611d641b&#45;&gt;dir_860d6a38b01d836db3c6df3bfc38590d</title>
<g id="a_edge8"><a xlink:href="dir_000017_000022.html" target="_top">
<path fill="none" stroke="#63b8ff" d="M174.44,-186.35C205.02,-173.56 267.15,-142.28 289,-92 295.19,-77.74 294.15,-60.02 291.86,-46.69"/>
<polygon fill="#63b8ff" stroke="#63b8ff" points="295.16,-46.36 289.67,-37.29 288.3,-47.8 295.16,-46.36"/>
</a>
</g>
<g id="a_edge8&#45;headlabel"><a xlink:href="dir_000017_000022.html" target="_top" xlink:title="3">
<text text-anchor="middle" x="298.67" y="-44.79" font-family="Helvetica,sans-Serif" font-size="10.00" fill="#63b8ff">3</text>
</a>
</g>
</g>
<!-- dir_6db308ef57ebef573b944ce2611d641b&#45;&gt;dir_773016d196059be4d11560d15e8346f3 -->
<g id="edge7" class="edge">
<title>dir_6db308ef57ebef573b944ce2611d641b&#45;&gt;dir_773016d196059be4d11560d15e8346f3</title>
<g id="a_edge7"><a xlink:href="dir_000017_000013.html" target="_top">
<path fill="none" stroke="#63b8ff" d="M157.71,-183.59C158.85,-170.81 161.52,-147.33 167,-128 169.45,-119.35 173.13,-110.14 176.6,-102.33"/>
<polygon fill="#63b8ff" stroke="#63b8ff" points="180.17,-103.95 181.22,-93.41 173.83,-101 180.17,-103.95"/>
</a>
</g>
<g id="a_edge7&#45;headlabel"><a xlink:href="dir_000017_000013.html" target="_top" xlink:title="1">
<text text-anchor="middle" x="181.23" y="-103.91" font-family="Helvetica,sans-Serif" font-size="10.00" fill="#63b8ff">1</text>
</a>
</g>
</g>
<!-- dir_6db308ef57ebef573b944ce2611d641b&#45;&gt;dir_b5bc7a61aee86a9185d5482140373e03 -->
<g id="edge9" class="edge">
<title>dir_6db308ef57ebef573b944ce2611d641b&#45;&gt;dir_b5bc7a61aee86a9185d5482140373e03</title>
<g id="a_edge9"><a xlink:href="dir_000017_000026.html" target="_top">
<path fill="none" stroke="#63b8ff" d="M158.87,-183.59C163.07,-176.08 170.86,-165.35 178.52,-156.3"/>
<polygon fill="#63b8ff" stroke="#63b8ff" points="180.62,-159.08 184.7,-149.3 175.41,-154.41 180.62,-159.08"/>
</a>
</g>
<g id="a_edge9&#45;headlabel"><a xlink:href="dir_000017_000026.html" target="_top" xlink:title="1">
<text text-anchor="middle" x="181.34" y="-159.15" font-family="Helvetica,sans-Serif" font-size="10.00" fill="#63b8ff">1</text>
</a>
</g>
</g>
<!-- dir_54c87502765876025138c91c7bd9734c -->
<g id="node9" class="node">
<title>dir_54c87502765876025138c91c7bd9734c</title>
<g id="a_node9"><a xlink:href="dir_54c87502765876025138c91c7bd9734c.html" target="_top" xlink:title="os">
<polygon fill="#a2b4d6" stroke="#404040" points="52.4,-260 23.6,-260 23.6,-240 52.4,-240 52.4,-260"/>
<text text-anchor="middle" x="38" y="-246.5" font-family="Helvetica,sans-Serif" font-size="10.00">os</text>
</a>
</g>
</g>
<!-- dir_b5bc7a61aee86a9185d5482140373e03&#45;&gt;dir_860d6a38b01d836db3c6df3bfc38590d -->
<g id="edge12" class="edge">
<title>dir_b5bc7a61aee86a9185d5482140373e03&#45;&gt;dir_860d6a38b01d836db3c6df3bfc38590d</title>
<g id="a_edge12"><a xlink:href="dir_000026_000022.html" target="_top">
<path fill="none" stroke="#63b8ff" d="M201.42,-127.67C207.13,-112.97 219.72,-84.01 237,-64 244.05,-55.84 253.21,-48.41 261.76,-42.39"/>
<polygon fill="#63b8ff" stroke="#63b8ff" points="263.29,-44.9 269.67,-36.44 259.41,-39.08 263.29,-44.9"/>
</a>
</g>
<g id="a_edge12&#45;headlabel"><a xlink:href="dir_000026_000022.html" target="_top" xlink:title="6">
<text text-anchor="middle" x="262.88" y="-45.76" font-family="Helvetica,sans-Serif" font-size="10.00" fill="#63b8ff">6</text>
</a>
</g>
</g>
<!-- dir_b5bc7a61aee86a9185d5482140373e03&#45;&gt;dir_a1c32dffa67f164d61ce5e4f2b165333 -->
<g id="edge13" class="edge">
<title>dir_b5bc7a61aee86a9185d5482140373e03&#45;&gt;dir_a1c32dffa67f164d61ce5e4f2b165333</title>
<g id="a_edge13"><a xlink:href="dir_000026_000008.html" target="_top">
<path fill="none" stroke="#63b8ff" d="M209.32,-127.59C218.74,-119.77 232.35,-108.46 243.51,-99.19"/>
<polygon fill="#63b8ff" stroke="#63b8ff" points="245.35,-101.38 250.81,-92.3 240.88,-96 245.35,-101.38"/>
</a>
</g>
<g id="a_edge13&#45;headlabel"><a xlink:href="dir_000026_000008.html" target="_top" xlink:title="3">
<text text-anchor="middle" x="245.4" y="-102.36" font-family="Helvetica,sans-Serif" font-size="10.00" fill="#63b8ff">3</text>
</a>
</g>
</g>
<!-- dir_b5bc7a61aee86a9185d5482140373e03&#45;&gt;dir_773016d196059be4d11560d15e8346f3 -->
<g id="edge11" class="edge">
<title>dir_b5bc7a61aee86a9185d5482140373e03&#45;&gt;dir_773016d196059be4d11560d15e8346f3</title>
<g id="a_edge11"><a xlink:href="dir_000026_000013.html" target="_top">
<path fill="none" stroke="#63b8ff" d="M195.91,-127.59C194.4,-120.78 192.29,-111.32 190.41,-102.86"/>
<polygon fill="#63b8ff" stroke="#63b8ff" points="193.65,-102.3 188.07,-93.3 186.82,-103.82 193.65,-102.3"/>
</a>
</g>
<g id="a_edge11&#45;headlabel"><a xlink:href="dir_000026_000013.html" target="_top" xlink:title="1">
<text text-anchor="middle" x="197.2" y="-100.69" font-family="Helvetica,sans-Serif" font-size="10.00" fill="#63b8ff">1</text>
</a>
</g>
</g>
<!-- dir_b5bc7a61aee86a9185d5482140373e03&#45;&gt;dir_6db308ef57ebef573b944ce2611d641b -->
<g id="edge10" class="edge">
<title>dir_b5bc7a61aee86a9185d5482140373e03&#45;&gt;dir_6db308ef57ebef573b944ce2611d641b</title>
<g id="a_edge10"><a xlink:href="dir_000026_000017.html" target="_top">
<path fill="none" stroke="#63b8ff" d="M196.19,-148.3C192.02,-155.78 184.25,-166.5 176.59,-175.57"/>
<polygon fill="#63b8ff" stroke="#63b8ff" points="174.47,-172.81 170.41,-182.59 179.69,-177.48 174.47,-172.81"/>
</a>
</g>
<g id="a_edge10&#45;headlabel"><a xlink:href="dir_000026_000017.html" target="_top" xlink:title="4">
<text text-anchor="middle" x="173.75" y="-165.74" font-family="Helvetica,sans-Serif" font-size="10.00" fill="#63b8ff">4</text>
</a>
</g>
</g>
</g>
</svg>
</svg>

<style type='text/css'>
<![CDATA[
[data-mouse-over-selected='false'] { opacity: 0.7; }
[data-mouse-over-selected='true']  { opacity: 1.0; }
]]>
</style>
<script type="application/ecmascript"><![CDATA[
document.addEventListener('DOMContentLoaded', (event) => {
  highlightEdges();
  highlightAdjacentNodes();
});
]]></script>
</svg>
